<?xml version="1.0" encoding="UTF-8" standalone="no"?>
<svg xmlns:xlink="http://www.w3.org/1999/xlink" height="14.85px" width="15.5px" xmlns="http://www.w3.org/2000/svg">
  <g transform="matrix(1.0, 0.0, 0.0, 1.0, 8.6, 8.3)">
    <path d="M4.0 -8.2 L6.15 -8.15 Q4.05 -6.45 5.65 -3.35 6.5 -1.6 6.75 0.45 7.0 2.65 5.35 1.85 3.6 1.0 1.85 0.4 -0.2 -0.3 -2.25 -0.65 -6.55 -1.4 -8.4 -0.3 L-6.6 -2.7 Q-1.1 -3.5 4.6 -0.6 4.55 -1.95 3.65 -3.5 2.7 -5.1 3.1 -6.7 3.35 -7.7 4.0 -8.2" fill="#ffffff" fill-rule="evenodd" stroke="none"/>
    <path d="M-8.4 -0.3 Q-6.55 -1.4 -2.25 -0.65 -0.2 -0.3 1.85 0.4 L1.75 3.5 Q1.75 6.05 0.55 6.4 -0.65 6.7 -4.85 3.7 -9.1 0.7 -8.4 -0.3" fill="#192a3e" fill-rule="evenodd" stroke="none"/>
    <path d="M4.0 -8.2 Q3.35 -7.7 3.1 -6.7 2.7 -5.1 3.65 -3.5 4.55 -1.95 4.6 -0.6 -1.1 -3.5 -6.6 -2.7 -1.95 -7.85 4.0 -8.2" fill="#8a4343" fill-rule="evenodd" stroke="none"/>
    <path d="M1.85 0.4 Q3.6 1.0 5.35 1.85 7.0 2.65 6.75 0.45 6.5 -1.6 5.65 -3.35 4.05 -6.45 6.15 -8.15 L4.0 -8.2 Q-1.95 -7.85 -6.6 -2.7 L-8.4 -0.3 Q-6.55 -1.4 -2.25 -0.65 -0.2 -0.3 1.85 0.4 L1.75 3.5 Q1.75 6.05 0.55 6.4 -0.65 6.7 -4.85 3.7 -9.1 0.7 -8.4 -0.3" fill="none" stroke="#8a4343" stroke-linecap="round" stroke-linejoin="round" stroke-width="0.25"/>
  </g>
</svg>
