<?xml version="1.0" encoding="UTF-8" standalone="no"?>
<svg xmlns:xlink="http://www.w3.org/1999/xlink" height="17.6px" width="13.35px" xmlns="http://www.w3.org/2000/svg">
  <g transform="matrix(1.0, 0.0, 0.0, 1.0, 7.05, 10.6)">
    <path d="M-6.4 -1.9 Q-1.35 -3.6 4.5 0.15 L4.25 -2.0 Q0.9 -4.85 0.95 -5.5 1.05 -6.15 2.1 -6.45 L3.95 -6.75 Q3.4 -8.8 2.45 -9.5 L0.1 -9.3 -0.6 -9.9 Q1.2 -10.6 3.5 -10.5 7.2 -8.85 5.85 2.95 3.45 1.35 1.4 0.45 -3.7 -1.75 -6.75 -0.3 L-6.6 -0.9 -6.4 -1.9" fill="#b4dacd" fill-rule="evenodd" stroke="none"/>
    <path d="M-0.6 -9.9 L0.1 -9.3 2.45 -9.5 Q3.4 -8.8 3.95 -6.75 L2.1 -6.45 Q1.05 -6.15 0.95 -5.5 0.9 -4.85 4.25 -2.0 L4.5 0.15 Q-1.35 -3.6 -6.4 -1.9 -4.9 -8.25 -0.6 -9.9 M-6.75 -0.3 Q-3.7 -1.75 1.4 0.45 0.5 2.35 0.65 6.9 -8.15 2.4 -6.75 -0.3" fill="#313747" fill-rule="evenodd" stroke="none"/>
    <path d="M-6.4 -1.9 L-6.6 -0.9 -6.75 -0.3 Q-3.7 -1.75 1.4 0.45 3.45 1.35 5.85 2.95 7.2 -8.85 3.5 -10.5 1.2 -10.6 -0.6 -9.9 -4.9 -8.25 -6.4 -1.9 M-6.75 -0.3 Q-8.15 2.4 0.65 6.9 0.5 2.35 1.4 0.45" fill="none" stroke="#000000" stroke-linecap="round" stroke-linejoin="round" stroke-width="0.25"/>
  </g>
</svg>
