<?xml version="1.0" encoding="UTF-8" standalone="no"?>
<svg xmlns:xlink="http://www.w3.org/1999/xlink" height="15.15px" width="19.0px" xmlns="http://www.w3.org/2000/svg">
  <g transform="matrix(1.0, 0.0, 0.0, 1.0, 9.5, 10.25)">
    <path d="M5.15 -0.4 Q2.95 -0.8 1.15 -1.55 3.3 -2.8 6.55 -3.05 5.95 -1.65 5.15 -0.4" fill="#294163" fill-rule="evenodd" stroke="none"/>
    <path d="M4.1 -9.15 Q5.95 -11.25 7.6 -9.0 9.55 -6.5 9.4 -2.55 9.35 -0.85 8.1 0.6 7.1 1.65 5.3 2.0 L4.95 2.1 Q2.85 2.4 -0.9 0.95 -4.65 -0.5 -6.75 -1.65 -8.4 -2.25 -9.05 -1.1 L-9.3 -0.55 Q-8.45 -4.7 -6.05 -4.0 L-5.7 -3.85 Q-3.0 -2.75 -0.75 -2.25 2.5 -4.4 6.85 -4.8 7.1 -6.45 4.85 -9.05 L4.1 -9.15 M5.15 -0.4 Q5.95 -1.65 6.55 -3.05 3.3 -2.8 1.15 -1.55 2.95 -0.8 5.15 -0.4" fill="#ffffff" fill-rule="evenodd" stroke="none"/>
    <path d="M4.1 -9.15 L4.85 -9.05 Q7.1 -6.45 6.85 -4.8 2.5 -4.4 -0.75 -2.25 -3.0 -2.75 -5.7 -3.85 L-6.05 -4.0 Q-2.15 -9.9 4.1 -9.15" fill="#454b3f" fill-rule="evenodd" stroke="none"/>
    <path d="M-9.3 -0.55 L-9.05 -1.1 Q-8.4 -2.25 -6.75 -1.65 -4.65 -0.5 -0.9 0.95 2.85 2.4 4.95 2.1 L5.3 2.0 Q5.5 2.7 4.1 3.65 2.65 4.55 0.9 4.75 -2.55 5.1 -6.7 3.0 -9.75 1.4 -9.35 -0.35 L-9.3 -0.55" fill="#191718" fill-rule="evenodd" stroke="none"/>
    <path d="M5.3 2.0 Q7.1 1.65 8.1 0.6 9.35 -0.85 9.4 -2.55 9.55 -6.5 7.6 -9.0 5.95 -11.25 4.1 -9.15 -2.15 -9.9 -6.05 -4.0 -8.45 -4.7 -9.3 -0.55 L-9.05 -1.1 Q-8.4 -2.25 -6.75 -1.65 -4.65 -0.5 -0.9 0.95 2.85 2.4 4.95 2.1 L5.3 2.0 Q5.5 2.7 4.1 3.65 2.65 4.55 0.9 4.75 -2.55 5.1 -6.7 3.0 -9.75 1.4 -9.35 -0.35 L-9.3 -0.55" fill="none" stroke="#000000" stroke-linecap="round" stroke-linejoin="round" stroke-width="0.25"/>
  </g>
</svg>
