<?xml version="1.0" encoding="UTF-8" standalone="no"?>
<svg xmlns:xlink="http://www.w3.org/1999/xlink" height="14.95px" width="17.6px" xmlns="http://www.w3.org/2000/svg">
  <g transform="matrix(1.0, 0.0, 0.0, 1.0, 8.2, 8.6)">
    <path d="M4.95 4.4 Q3.55 5.75 1.5 6.35 -3.1 4.85 -7.55 -1.0 -7.7 -1.8 -6.2 -3.1 -4.75 -4.4 -3.65 -4.15 1.75 2.5 4.95 4.4" fill="#000000" fill-rule="evenodd" stroke="none"/>
    <path d="M6.7 2.85 Q6.3 3.05 5.8 2.85 5.35 2.65 5.05 2.2 4.65 1.65 4.7 1.15 4.65 0.65 5.05 0.4 L5.9 0.35 6.7 1.0 Q7.05 1.5 7.05 2.05 7.05 2.6 6.7 2.85" fill="#8bd7fe" fill-rule="evenodd" stroke="none"/>
    <path d="M5.45 -7.55 Q5.5 -2.7 9.4 2.55 7.65 4.55 6.35 5.05 L4.95 4.4 Q1.75 2.5 -3.65 -4.15 -4.75 -4.4 -6.2 -3.1 -7.7 -1.8 -7.55 -1.0 L-8.1 -1.95 Q-1.75 -8.9 5.45 -7.55 M6.7 2.85 Q7.05 2.6 7.05 2.05 7.05 1.5 6.7 1.0 L5.9 0.35 5.05 0.4 Q4.65 0.65 4.7 1.15 4.65 1.65 5.05 2.2 5.35 2.65 5.8 2.85 6.3 3.05 6.7 2.85" fill="#3c6f64" fill-rule="evenodd" stroke="none"/>
    <path d="M-8.1 -1.95 Q-8.3 -2.45 -8.1 -2.85 L-6.25 -4.8 -3.2 -6.9 Q-0.1 -8.55 2.65 -8.6 5.4 -8.65 5.45 -7.95 L5.45 -7.55 Q-1.75 -8.9 -8.1 -1.95" fill="#7bcca7" fill-rule="evenodd" stroke="none"/>
    <path d="M-8.1 -1.95 Q-8.3 -2.45 -8.1 -2.85 L-6.25 -4.8 -3.2 -6.9 Q-0.1 -8.55 2.65 -8.6 5.4 -8.65 5.45 -7.95 L5.45 -7.55 Q5.5 -2.7 9.4 2.55 7.65 4.55 6.35 5.05 L4.95 4.4 Q3.55 5.75 1.5 6.35 -3.1 4.85 -7.55 -1.0 L-8.1 -1.95 M4.95 4.4 Q1.75 2.5 -3.65 -4.15 -4.75 -4.4 -6.2 -3.1 -7.7 -1.8 -7.55 -1.0" fill="none" stroke="#999999" stroke-linecap="round" stroke-linejoin="round" stroke-width="0.05"/>
  </g>
</svg>
