<?xml version="1.0" encoding="UTF-8" standalone="no"?>
<svg xmlns:xlink="http://www.w3.org/1999/xlink" height="17.8px" width="8.55px" xmlns="http://www.w3.org/2000/svg">
  <g transform="matrix(1.0, 0.0, 0.0, 1.0, 4.45, 11.0)">
    <path d="M-3.25 -9.15 L-2.85 -10.3 -2.5 -10.65 -0.8 -10.95 -0.3 -11.0 0.8 -11.0 3.0 -10.95 3.4 -9.2 Q3.75 -7.6 3.65 0.45 3.55 -6.2 -1.55 -6.4 L-3.4 -6.3 -3.25 -9.15" fill="#639a58" fill-rule="evenodd" stroke="none"/>
    <path d="M3.65 0.45 L3.6 3.0 3.6 4.0 1.05 4.25 Q-1.55 4.15 -3.6 2.6 L-3.6 1.95 -3.55 0.85 Q-3.15 2.4 1.05 2.65 L1.0 -0.8 1.8 -0.8 1.5 -2.2 Q-1.35 -2.05 -3.5 -3.65 L-3.45 -5.7 -3.4 -6.3 -1.55 -6.4 Q3.55 -6.2 3.65 0.45 M3.55 6.35 L3.55 6.4 3.45 6.45 3.55 6.35" fill="#86b079" fill-rule="evenodd" stroke="none"/>
    <path d="M3.6 3.0 L3.9 3.2 4.1 5.6 3.55 6.35 3.45 6.45 Q-0.55 7.5 -3.65 5.2 L-4.1 4.75 -4.15 2.35 -3.6 1.95 -3.6 2.6 Q-1.55 4.15 1.05 4.25 L3.6 4.0 3.6 3.0" fill="#c2d6ba" fill-rule="evenodd" stroke="none"/>
    <path d="M-2.9 -1.7 Q-2.2 -1.3 -1.35 -1.05 -1.7 0.45 -1.05 1.8 -2.2 1.55 -2.6 1.1 -3.3 -0.3 -2.9 -1.7" fill="#a8c49b" fill-rule="evenodd" stroke="none"/>
    <path d="M-3.8 -2.35 L-4.45 -2.9 -3.5 -3.65 Q-1.35 -2.05 1.5 -2.2 L1.8 -0.8 1.0 -0.8 -1.35 -1.05 Q-2.2 -1.3 -2.9 -1.7 L-3.8 -2.35" fill="#94b685" fill-rule="evenodd" stroke="none"/>
    <path d="M-3.55 0.85 Q-4.05 -0.85 -3.8 -2.35 L-2.9 -1.7 Q-3.3 -0.3 -2.6 1.1 -2.2 1.55 -1.05 1.8 -1.7 0.45 -1.35 -1.05 L1.0 -0.8 1.05 2.65 Q-3.15 2.4 -3.55 0.85" fill="#739f60" fill-rule="evenodd" stroke="none"/>
    <path d="M3.0 -10.95 L3.4 -9.2 Q3.75 -7.6 3.65 0.45 L3.6 3.0 3.9 3.2 4.1 5.6 3.55 6.35 3.55 6.4 3.45 6.45 Q-0.55 7.5 -3.65 5.2 L-4.1 4.75 -4.15 2.35 -3.6 1.95 -3.55 0.85 Q-4.05 -0.85 -3.8 -2.35 L-4.45 -2.9 -3.5 -3.65 -3.45 -5.7 -3.4 -6.3 -3.25 -9.15 M-3.5 -3.65 Q-1.35 -2.05 1.5 -2.2 L1.8 -0.8 1.0 -0.8 1.05 2.65 Q-3.15 2.4 -3.55 0.85 M-3.8 -2.35 L-2.9 -1.7 Q-2.2 -1.3 -1.35 -1.05 L1.0 -0.8 M-1.35 -1.05 Q-1.7 0.45 -1.05 1.8 -2.2 1.55 -2.6 1.1 -3.3 -0.3 -2.9 -1.7 M-3.6 1.95 L-3.6 2.6 Q-1.55 4.15 1.05 4.25 L3.6 4.0 3.6 3.0 M3.55 6.35 L3.45 6.45" fill="none" stroke="#44633a" stroke-linecap="round" stroke-linejoin="round" stroke-width="0.05"/>
  </g>
</svg>
