<?xml version="1.0" encoding="UTF-8" standalone="no"?>
<svg xmlns:xlink="http://www.w3.org/1999/xlink" height="20.9px" width="7.4px" xmlns="http://www.w3.org/2000/svg">
  <g transform="matrix(1.0, 0.0, 0.0, 1.0, 3.75, 11.6)">
    <path d="M-3.4 -6.85 Q-3.3 -9.85 -2.0 -11.25 L3.0 -11.05 3.4 -9.45 Q3.75 -8.05 3.65 -0.75 3.55 -7.8 -3.4 -6.85" fill="#e0e0e0" fill-rule="evenodd" stroke="none"/>
    <path d="M3.65 -0.75 L3.4 8.9 Q-1.35 10.05 -3.75 7.75 L-3.45 -6.3 -3.4 -6.85 Q3.55 -7.8 3.65 -0.75" fill="#ffffff" fill-rule="evenodd" stroke="none"/>
    <path d="M-3.4 -6.85 Q-3.3 -9.85 -2.0 -11.25 L3.0 -11.05 3.4 -9.45 Q3.75 -8.05 3.65 -0.75 L3.4 8.9 Q-1.35 10.05 -3.75 7.75 L-3.45 -6.3 -3.4 -6.85 Z" fill="none" stroke="#a0a0a0" stroke-linecap="round" stroke-linejoin="round" stroke-width="0.05"/>
  </g>
</svg>
