<?xml version="1.0" encoding="UTF-8" standalone="no"?>
<svg xmlns:xlink="http://www.w3.org/1999/xlink" height="87.5px" width="105.7px" xmlns="http://www.w3.org/2000/svg">
  <g transform="matrix(1.0, 0.0, 0.0, 1.0, 52.85, 43.75)">
    <path d="M-28.3 -37.3 Q-15.1 -44.25 1.5 -43.7 L4.4 -43.55 5.85 -43.4 Q23.65 -41.75 36.6 -31.15 L36.75 -31.05 36.95 -30.85 37.5 -30.4 38.4 -29.6 41.05 -27.1 Q30.45 -35.4 -1.95 -25.65 -10.2 -42.8 -28.3 -37.3 M52.3 -6.3 Q52.95 -2.4 52.85 1.85 52.2 19.9 36.3 32.2 20.7 44.25 -0.65 43.75 L-1.5 43.75 Q-23.6 42.75 -38.4 29.65 -51.35 18.15 -52.7 3.1 -44.75 32.35 -21.7 25.85 1.3 19.35 1.75 -9.75 25.8 -15.7 39.25 -14.95 49.25 -12.75 52.3 -6.3" fill="#993300" fill-rule="evenodd" stroke="none"/>
    <path d="M41.05 -27.1 Q50.25 -17.8 52.3 -6.3 49.25 -12.75 39.25 -14.95 25.8 -15.7 1.75 -9.75 1.3 19.35 -21.7 25.85 -44.75 32.35 -52.7 3.1 L-52.8 -1.8 Q-52.2 -19.9 -36.3 -32.15 -32.5 -35.15 -28.3 -37.3 -10.2 -42.8 -1.95 -25.65 30.45 -35.4 41.05 -27.1" fill="#333333" fill-rule="evenodd" stroke="none"/>
    <path d="M-28.3 -37.3 Q-15.1 -44.25 1.5 -43.7 L4.4 -43.55 5.85 -43.4 Q23.65 -41.75 36.6 -31.15 L36.75 -31.05 36.95 -30.85 37.5 -30.4 38.4 -29.6 41.05 -27.1 Q50.25 -17.8 52.3 -6.3 52.95 -2.4 52.85 1.85 52.2 19.9 36.3 32.2 20.7 44.25 -0.65 43.75 L-1.5 43.75 Q-23.6 42.75 -38.4 29.65 -51.35 18.15 -52.7 3.1 L-52.8 -1.8 Q-52.2 -19.9 -36.3 -32.15 -32.5 -35.15 -28.3 -37.3 -10.2 -42.8 -1.95 -25.65 30.45 -35.4 41.05 -27.1 M52.3 -6.3 Q49.25 -12.75 39.25 -14.95 25.8 -15.7 1.75 -9.75 1.3 19.35 -21.7 25.85 -44.75 32.35 -52.7 3.1" fill="none" stroke="#6b1e01" stroke-linecap="round" stroke-linejoin="round" stroke-width="0.05"/>
    <path d="M-45.45 -13.0 L-18.7 -25.9 -21.95 16.7 -45.45 -13.0" fill="#993300" fill-rule="evenodd" stroke="none"/>
    <path d="M-45.45 -13.0 L-21.95 16.7 -18.7 -25.9 -45.45 -13.0 Z" fill="none" stroke="#993300" stroke-linecap="round" stroke-linejoin="round" stroke-width="0.05"/>
  </g>
</svg>
