<?xml version="1.0" encoding="UTF-8" standalone="no"?>
<svg xmlns:xlink="http://www.w3.org/1999/xlink" height="87.55px" width="105.7px" xmlns="http://www.w3.org/2000/svg">
  <g transform="matrix(1.0, 0.0, 0.0, 1.0, 52.85, 43.75)">
    <path d="M-1.5 43.75 L-2.2 43.7 -1.45 43.65 -1.5 43.75" fill="#000000" fill-rule="evenodd" stroke="none"/>
    <path d="M-1.45 43.75 L-1.5 43.75 -1.45 43.65 -1.45 43.75" fill="#000066" fill-rule="evenodd" stroke="none"/>
    <path d="M47.75 19.55 Q43.65 26.5 36.3 32.2 20.4 44.45 -1.45 43.75 L-1.45 43.65 -2.2 43.7 Q-19.25 42.95 -32.1 34.5 L-38.4 29.65 -42.45 25.7 Q-26.8 35.3 -13.75 34.45 12.6 30.3 39.25 2.95 35.45 38.85 -1.45 43.65 35.45 38.85 39.25 2.95 42.95 13.05 47.75 19.55" fill="#efefd1" fill-rule="evenodd" stroke="none"/>
    <path d="M-52.7 3.1 L-52.8 -1.8 Q-52.2 -19.9 -36.3 -32.15 -20.4 -44.45 1.5 -43.7 L4.4 -43.55 5.85 -43.4 Q11.7 -42.85 17.05 -41.35 27.9 -38.25 36.6 -31.15 L36.75 -31.05 36.95 -30.85 37.5 -30.4 38.4 -29.6 Q49.95 -19.4 52.3 -6.3 52.95 -2.4 52.85 1.85 52.75 4.7 52.25 7.4 47.1 3.05 39.25 -14.95 9.2 11.4 -11.85 16.55 -32.95 21.65 -52.7 3.1 M17.05 -41.35 Q34.7 -34.6 39.25 -14.95 34.7 -34.6 17.05 -41.35" fill="#d2d17b" fill-rule="evenodd" stroke="none"/>
    <path d="M52.25 7.4 Q51.1 13.9 47.75 19.55 42.95 13.05 39.25 2.95 12.6 30.3 -13.75 34.45 -26.8 35.3 -42.45 25.7 -51.6 15.6 -52.7 3.1 -32.95 21.65 -11.85 16.55 9.2 11.4 39.25 -14.95 40.1 -5.2 39.25 2.95 40.1 -5.2 39.25 -14.95 47.1 3.05 52.25 7.4" fill="#bf504a" fill-rule="evenodd" stroke="none"/>
    <path d="M-1.45 43.75 L-1.5 43.75 -2.2 43.7 M-1.45 43.65 L-1.5 43.75" fill="none" stroke="#999999" stroke-linecap="round" stroke-linejoin="round" stroke-width="0.05"/>
    <path d="M-52.7 3.1 L-52.8 -1.8 Q-52.2 -19.9 -36.3 -32.15 -20.4 -44.45 1.5 -43.7 L4.4 -43.55 5.85 -43.4 Q11.7 -42.85 17.05 -41.35 27.9 -38.25 36.6 -31.15 L36.75 -31.05 36.95 -30.85 37.5 -30.4 38.4 -29.6 Q49.95 -19.4 52.3 -6.3 52.95 -2.4 52.85 1.85 52.75 4.7 52.25 7.4 51.1 13.9 47.75 19.55 43.65 26.5 36.3 32.2 20.4 44.45 -1.45 43.75 L-1.45 43.65 Q35.45 38.85 39.25 2.95 12.6 30.3 -13.75 34.45 -26.8 35.3 -42.45 25.7 -51.6 15.6 -52.7 3.1 -32.95 21.65 -11.85 16.55 9.2 11.4 39.25 -14.95 34.7 -34.6 17.05 -41.35 M-2.2 43.7 Q-19.25 42.95 -32.1 34.5 L-38.4 29.65 -42.45 25.7 M-2.2 43.7 L-1.45 43.65 M47.75 19.55 Q42.95 13.05 39.25 2.95 40.1 -5.2 39.25 -14.95 47.1 3.05 52.25 7.4" fill="none" stroke="#36743e" stroke-linecap="round" stroke-linejoin="round" stroke-width="0.05"/>
  </g>
</svg>
