<?xml version="1.0" encoding="UTF-8" standalone="no"?>
<svg xmlns:xlink="http://www.w3.org/1999/xlink" height="73.35px" width="113.85px" xmlns="http://www.w3.org/2000/svg">
  <g transform="matrix(1.0, 0.0, 0.0, 1.0, 47.2, 39.8)">
    <path d="M-28.9 -22.35 Q-18.85 -32.0 -8.5 -36.0 4.95 -41.2 16.45 -39.3 27.9 -37.45 30.25 -36.55 32.5 -35.7 34.15 -34.2 L34.5 -31.9 40.35 4.85 Q30.9 1.1 16.0 -0.85 1.1 -2.8 -16.8 6.9 -19.9 8.55 -22.6 10.25 L-28.9 -22.35 -22.6 10.25 Q-35.75 18.15 -40.6 25.45 L-40.65 25.3 -40.7 25.2 -40.7 25.1 -40.95 24.5 -40.7 25.1 -40.7 25.2 -40.7 25.25 -40.65 25.45 -40.6 25.6 -40.65 25.55 Q-47.15 13.3 -47.15 3.05 L-47.15 3.0 Q-47.75 -1.45 -34.8 -16.1 -31.85 -19.5 -28.9 -22.35 M52.2 -32.4 Q57.0 -30.9 60.4 -28.35 66.85 -8.85 66.65 2.7 66.45 14.2 65.75 15.15 L65.7 14.55 65.7 15.0 65.35 14.25 Q63.75 10.4 59.8 8.75 L52.2 -32.4 M-40.95 24.5 L-41.0 24.35 -41.05 24.35 -40.95 24.5" fill="#743a3a" fill-rule="evenodd" stroke="none"/>
    <path d="M47.4 -30.1 L52.2 -32.4 59.8 8.75 54.05 10.1 47.4 -30.1" fill="#3f2121" fill-rule="evenodd" stroke="none"/>
    <path d="M34.5 -31.9 Q42.8 -31.65 47.4 -30.1 L54.05 10.1 54.05 10.15 Q47.9 8.4 41.9 7.65 L33.85 6.8 40.35 4.9 40.35 4.85 34.5 -31.9" fill="#397559" fill-rule="evenodd" stroke="none"/>
    <path d="M-41.0 24.35 L-40.95 24.5 -41.05 24.35 -41.0 24.35 M-40.7 25.2 L-40.65 25.3 -40.65 25.45 -40.7 25.25 -40.7 25.2 M-40.7 25.25 L-40.65 25.3 -40.7 25.25" fill="#651c01" fill-rule="evenodd" stroke="none"/>
    <path d="M65.7 15.05 Q65.5 21.1 46.8 25.4 28.1 29.65 15.3 31.05 L-4.6 33.25 Q-10.6 33.9 -18.2 33.1 L-21.05 32.8 -28.35 31.5 -32.9 30.35 Q-35.45 29.75 -37.65 28.7 -39.9 27.6 -40.35 26.55 -40.85 25.55 -40.6 25.6 L-40.65 25.45 -40.6 25.45 Q-35.75 18.15 -22.6 10.25 -19.9 8.55 -16.8 6.9 1.1 -2.8 16.0 -0.85 30.9 1.1 40.35 4.85 L40.35 4.9 33.85 6.8 3.25 15.6 20.7 18.35 54.05 10.15 54.05 10.1 59.8 8.75 Q63.75 10.4 65.35 14.25 L65.7 15.0 65.7 15.05 M-18.2 33.1 L-22.6 10.25 -18.2 33.1" fill="#984e4e" fill-rule="evenodd" stroke="none"/>
    <path d="M33.85 6.8 L41.9 7.65 Q47.9 8.4 54.05 10.15 L20.7 18.35 3.25 15.6 33.85 6.8" fill="#61af88" fill-rule="evenodd" stroke="none"/>
    <path d="M-28.9 -22.35 Q-18.85 -32.0 -8.5 -36.0 4.95 -41.2 16.45 -39.3 27.9 -37.45 30.25 -36.55 32.5 -35.7 34.15 -34.2 L34.5 -31.9 Q42.8 -31.65 47.4 -30.1 L52.2 -32.4 Q57.0 -30.9 60.4 -28.35 66.85 -8.85 66.65 2.7 66.45 14.2 65.75 15.15 L65.7 15.05 Q65.5 21.1 46.8 25.4 28.1 29.65 15.3 31.05 L-4.6 33.25 Q-10.6 33.9 -18.2 33.1 L-21.05 32.8 -28.35 31.5 -32.9 30.35 Q-35.45 29.75 -37.65 28.7 -39.9 27.6 -40.35 26.55 -40.85 25.55 -40.6 25.6 L-40.65 25.55 Q-47.15 13.3 -47.15 3.05 L-47.2 3.1 -47.15 3.0 Q-47.75 -1.45 -34.8 -16.1 -31.85 -19.5 -28.9 -22.35 M-22.6 10.25 Q-19.9 8.55 -16.8 6.9 1.1 -2.8 16.0 -0.85 30.9 1.1 40.35 4.85 L34.5 -31.9 M-47.15 3.05 L-47.15 3.0 M-41.0 24.35 L-41.05 24.35 -40.95 24.5 -40.7 25.1 -40.7 25.2 -40.65 25.3 -40.6 25.45 Q-35.75 18.15 -22.6 10.25 M-40.65 25.3 L-40.65 25.45 -40.6 25.6 M-40.65 25.3 L-40.7 25.25 -40.65 25.45 M-40.7 25.25 L-40.7 25.2 M59.8 8.75 Q63.75 10.4 65.35 14.25 L65.7 15.0 65.7 14.55 M65.7 15.0 L65.7 15.05 M54.05 10.15 L54.05 10.1 47.4 -30.1 M33.85 6.8 L3.25 15.6 20.7 18.35 54.05 10.15 M54.05 10.1 L59.8 8.75 52.2 -32.4 M40.35 4.85 L40.35 4.9 33.85 6.8" fill="none" stroke="#6b1e01" stroke-linecap="round" stroke-linejoin="round" stroke-width="0.05"/>
    <path d="M-36.6 22.25 L-36.8 21.5 -40.8 4.3 Q-39.85 -0.55 -37.55 -2.35 L-39.55 -11.15 M-11.6 4.7 L-11.75 3.9 -15.25 -13.7 Q-19.5 -17.05 -24.3 -13.25 L-26.45 -24.5" fill="none" stroke="#984e4e" stroke-linecap="round" stroke-linejoin="round" stroke-width="0.05"/>
    <path d="M7.55 9.5 L-11.6 17.65 18.45 24.15 32.8 21.05 45.9 25.2 M-36.8 21.5 L10.35 31.65 M-11.75 3.9 L8.3 9.35" fill="none" stroke="#6b1e01" stroke-linecap="round" stroke-linejoin="round" stroke-width="0.05"/>
  </g>
</svg>
