<?xml version="1.0" encoding="UTF-8" standalone="no"?>
<svg xmlns:xlink="http://www.w3.org/1999/xlink" height="87.5px" width="105.7px" xmlns="http://www.w3.org/2000/svg">
  <g transform="matrix(1.0, 0.0, 0.0, 1.0, 52.85, 43.75)">
    <path d="M41.05 -27.1 Q50.25 -17.8 52.3 -6.3 49.25 -12.75 39.25 -14.95 25.8 -15.7 1.75 -9.75 1.3 19.35 -21.7 25.85 -44.75 32.35 -52.7 3.1 L-52.8 -1.8 Q-52.2 -19.9 -36.3 -32.15 -32.5 -35.15 -28.3 -37.3 -10.2 -42.8 -1.95 -25.65 30.45 -35.4 41.05 -27.1 M27.3 37.85 Q14.85 44.1 -0.65 43.75 L-1.5 43.75 -3.85 43.6 -4.05 43.15 Q-4.7 40.65 -0.45 37.65 3.85 34.7 10.55 32.95 17.25 31.2 22.45 31.7 27.65 32.25 28.3 34.7 28.7 36.2 27.3 37.85 M-19.9 40.4 L-20.5 40.2 Q-26.3 38.15 -31.35 35.0 L-35.65 31.95 Q-32.5 32.25 -28.9 33.7 L-27.35 34.4 Q-23.8 36.05 -21.5 38.4 -20.45 39.45 -19.9 40.4 M34.35 -9.65 Q39.05 -10.8 42.65 -7.55 46.25 -4.25 46.55 1.55 46.85 7.4 43.65 12.3 40.5 17.25 35.75 18.4 31.0 19.6 27.45 16.3 23.9 13.05 23.65 7.2 23.35 1.4 26.45 -3.55 29.55 -8.45 34.35 -9.65 M-42.35 -12.5 L-42.95 -10.4 Q-44.25 -6.1 -42.95 -1.35 -41.35 4.65 -36.6 8.0 -34.85 9.2 -32.65 9.85 -34.85 9.2 -36.6 8.0 -41.35 4.65 -42.95 -1.35 -44.25 -6.1 -42.95 -10.4 L-42.35 -12.5 -42.1 -12.5 Q-39.6 -17.8 -34.4 -19.2 -29.2 -20.55 -24.5 -17.25 -19.7 -14.0 -18.1 -8.0 -16.5 -2.0 -19.0 3.25 -21.45 8.45 -26.6 9.85 -29.7 10.65 -32.65 9.85 L-32.7 9.9 -32.7 9.95 -32.65 9.95 Q-30.25 10.85 -27.75 10.75 L-24.85 10.3 -24.65 10.25 Q-19.9 8.9 -17.35 4.55 L-16.6 3.1 Q-13.85 -2.6 -15.55 -9.1 -17.35 -15.65 -22.55 -19.2 -27.7 -22.8 -33.3 -21.25 L-34.4 -20.95 Q-36.7 -20.1 -38.45 -18.55 -40.4 -16.75 -41.7 -14.05 L-42.3 -12.6 -42.35 -12.5" fill="#fad9cd" fill-rule="evenodd" stroke="none"/>
    <path d="M-28.3 -37.3 Q-15.1 -44.25 1.5 -43.7 L4.4 -43.55 5.85 -43.4 Q23.65 -41.75 36.6 -31.15 L36.75 -31.05 36.95 -30.85 37.5 -30.4 38.4 -29.6 41.05 -27.1 Q30.45 -35.4 -1.95 -25.65 -10.2 -42.8 -28.3 -37.3 M52.3 -6.3 Q52.95 -2.4 52.85 1.85 52.2 19.9 36.3 32.2 32.0 35.5 27.3 37.85 28.7 36.2 28.3 34.7 27.65 32.25 22.45 31.7 17.25 31.2 10.55 32.95 3.85 34.7 -0.45 37.65 -4.7 40.65 -4.05 43.15 L-3.85 43.6 Q-12.45 42.95 -19.9 40.4 -20.45 39.45 -21.5 38.4 -23.8 36.05 -27.35 34.4 L-28.9 33.7 Q-32.5 32.25 -35.65 31.95 L-38.4 29.65 Q-51.35 18.15 -52.7 3.1 -44.75 32.35 -21.7 25.85 1.3 19.35 1.75 -9.75 25.8 -15.7 39.25 -14.95 49.25 -12.75 52.3 -6.3 M34.35 -9.65 Q29.55 -8.45 26.45 -3.55 23.35 1.4 23.65 7.2 23.9 13.05 27.45 16.3 31.0 19.6 35.75 18.4 40.5 17.25 43.65 12.3 46.85 7.4 46.55 1.55 46.25 -4.25 42.65 -7.55 39.05 -10.8 34.35 -9.65 M-42.3 -12.6 L-41.7 -14.05 Q-40.4 -16.75 -38.45 -18.55 -36.7 -20.1 -34.4 -20.95 L-33.3 -21.25 Q-27.7 -22.8 -22.55 -19.2 -17.35 -15.65 -15.55 -9.1 -13.85 -2.6 -16.6 3.1 L-17.35 4.55 Q-19.9 8.9 -24.65 10.25 L-24.85 10.3 -27.75 10.75 Q-30.25 10.85 -32.65 9.95 L-32.65 9.85 Q-29.7 10.65 -26.6 9.85 -21.45 8.45 -19.0 3.25 -16.5 -2.0 -18.1 -8.0 -19.7 -14.0 -24.5 -17.25 -29.2 -20.55 -34.4 -19.2 -39.6 -17.8 -42.1 -12.5 L-42.3 -12.6" fill="#86392f" fill-rule="evenodd" stroke="none"/>
    <path d="M-42.35 -12.5 L-42.3 -12.6 -42.1 -12.5 -42.35 -12.5 M-32.65 9.95 L-32.7 9.95 -32.7 9.9 -32.65 9.85 -32.65 9.95" fill="#e6bafa" fill-rule="evenodd" stroke="none"/>
    <path d="M-28.3 -37.3 Q-15.1 -44.25 1.5 -43.7 L4.4 -43.55 5.85 -43.4 Q23.65 -41.75 36.6 -31.15 L36.75 -31.05 36.95 -30.85 37.5 -30.4 38.4 -29.6 41.05 -27.1 Q50.25 -17.8 52.3 -6.3 52.95 -2.4 52.85 1.85 52.2 19.9 36.3 32.2 32.0 35.5 27.3 37.85 14.85 44.1 -0.65 43.75 L-1.5 43.75 -3.85 43.6 Q-12.45 42.95 -19.9 40.4 L-20.5 40.2 Q-26.3 38.15 -31.35 35.0 L-35.65 31.95 -38.4 29.65 Q-51.35 18.15 -52.7 3.1 L-52.8 -1.8 Q-52.2 -19.9 -36.3 -32.15 -32.5 -35.15 -28.3 -37.3 -10.2 -42.8 -1.95 -25.65 30.45 -35.4 41.05 -27.1 M34.35 -9.65 Q39.05 -10.8 42.65 -7.55 46.25 -4.25 46.55 1.55 46.85 7.4 43.65 12.3 40.5 17.25 35.75 18.4 31.0 19.6 27.45 16.3 23.9 13.05 23.65 7.2 23.35 1.4 26.45 -3.55 29.55 -8.45 34.35 -9.65 M52.3 -6.3 Q49.25 -12.75 39.25 -14.95 25.8 -15.7 1.75 -9.75 1.3 19.35 -21.7 25.85 -44.75 32.35 -52.7 3.1 M-32.65 9.85 Q-34.85 9.2 -36.6 8.0 -41.35 4.65 -42.95 -1.35 -44.25 -6.1 -42.95 -10.4 L-42.35 -12.5 -42.3 -12.6 -41.7 -14.05 Q-40.4 -16.75 -38.45 -18.55 -36.7 -20.1 -34.4 -20.95 L-33.3 -21.25 Q-27.7 -22.8 -22.55 -19.2 -17.35 -15.65 -15.55 -9.1 -13.85 -2.6 -16.6 3.1 L-17.35 4.55 Q-19.9 8.9 -24.65 10.25 L-24.85 10.3 -27.75 10.75 Q-30.25 10.85 -32.65 9.95 L-32.7 9.95 -32.7 9.9 -32.65 9.85 Q-29.7 10.65 -26.6 9.85 -21.45 8.45 -19.0 3.25 -16.5 -2.0 -18.1 -8.0 -19.7 -14.0 -24.5 -17.25 -29.2 -20.55 -34.4 -19.2 -39.6 -17.8 -42.1 -12.5 L-42.35 -12.5 M-35.65 31.95 Q-32.5 32.25 -28.9 33.7 L-27.35 34.4 Q-23.8 36.05 -21.5 38.4 -20.45 39.45 -19.9 40.4 M-3.85 43.6 L-4.05 43.15 Q-4.7 40.65 -0.45 37.65 3.85 34.7 10.55 32.95 17.25 31.2 22.45 31.7 27.65 32.25 28.3 34.7 28.7 36.2 27.3 37.85" fill="none" stroke="#d28582" stroke-linecap="round" stroke-linejoin="round" stroke-width="0.05"/>
    <path d="M-41.5 -10.15 L-26.3 -17.45 -28.2 6.75 -41.5 -10.15" fill="#993300" fill-rule="evenodd" stroke="none"/>
    <path d="M-41.5 -10.15 L-28.2 6.75 -26.3 -17.45 -41.5 -10.15 Z" fill="none" stroke="#993300" stroke-linecap="round" stroke-linejoin="round" stroke-width="0.05"/>
  </g>
</svg>
