<?xml version="1.0" encoding="UTF-8" standalone="no"?>
<svg xmlns:xlink="http://www.w3.org/1999/xlink" height="93.1px" width="116.3px" xmlns="http://www.w3.org/2000/svg">
  <g transform="matrix(1.0, 0.0, 0.0, 1.0, 57.95, 48.65)">
    <path d="M28.55 0.45 Q44.45 -1.7 58.2 6.75 L58.35 6.65 58.2 6.75 Q47.9 11.55 38.85 11.4 35.6 11.35 32.9 9.35 29.35 6.8 28.65 2.45 L28.55 0.45" fill="#ffff99" fill-rule="evenodd" stroke="none"/>
    <path d="M28.55 0.4 Q28.65 -2.75 30.6 -5.4 33.2 -8.95 37.6 -9.6 40.95 -10.15 43.9 -8.7 52.95 -2.8 58.35 6.65 L58.2 6.75 Q44.45 -1.7 28.55 0.45 L28.55 0.4" fill="#f8f801" fill-rule="evenodd" stroke="none"/>
    <path d="M58.35 6.65 Q52.95 -2.8 43.9 -8.7 40.95 -10.15 37.6 -9.6 33.2 -8.95 30.6 -5.4 28.65 -2.75 28.55 0.4 M58.2 6.75 Q47.9 11.55 38.85 11.4 35.6 11.35 32.9 9.35 29.35 6.8 28.65 2.45 L28.55 0.45" fill="none" stroke="#f0bd0f" stroke-linecap="round" stroke-linejoin="round" stroke-width="0.05"/>
    <path d="M28.55 0.4 L28.55 0.45 M58.35 6.65 L58.2 6.75" fill="none" stroke="#993300" stroke-linecap="round" stroke-linejoin="round" stroke-width="0.05"/>
    <path d="M42.85 -7.25 L42.9 -7.75 43.1 -7.35 42.85 -7.25" fill="#61af88" fill-rule="evenodd" stroke="none"/>
    <path d="M32.4 -36.75 L36.3 -32.9 Q41.0 -27.65 43.85 -20.95 46.75 -12.0 45.5 0.15 L45.8 2.45 46.25 10.15 Q44.6 15.9 41.35 21.45 36.9 29.05 30.55 34.2 24.3 39.2 16.35 41.85 L12.95 42.85 Q7.4 44.3 2.1 44.45 7.8 42.7 14.85 39.45 46.45 24.65 41.8 -2.95 42.6 -4.65 42.85 -7.25 L43.1 -7.35 42.9 -7.75 Q43.35 -13.65 40.7 -20.9 38.8 -26.25 36.05 -30.15 L33.55 -33.2 32.05 -34.65 32.4 -36.75 M-31.1 31.35 L-33.3 29.1 Q-21.75 35.7 -8.35 31.05 L-7.3 30.75 Q-33.4 10.9 -30.6 -27.25 -38.35 -22.65 -43.1 -16.0 L-41.35 -20.55 Q-33.75 -31.6 -15.2 -37.1 3.35 -42.65 21.7 -32.4 L21.3 -29.95 21.2 -28.85 21.2 -28.0 Q21.1 -22.7 23.4 -16.3 25.05 -11.6 27.45 -7.95 28.85 -5.75 30.55 -3.95 L30.9 -3.6 Q25.65 25.3 -4.5 34.3 -18.85 39.3 -31.1 31.35 M18.1 -30.35 Q1.2 -38.65 -15.9 -33.55 -20.75 -32.15 -24.95 -30.2 -28.75 8.1 -0.15 28.05 19.5 19.15 25.8 -1.2 18.65 -13.65 18.1 -30.35" fill="#ffff99" fill-rule="evenodd" stroke="none"/>
    <path d="M43.85 -20.95 Q45.3 -17.55 46.3 -13.75 L46.35 -13.5 Q48.85 -3.65 47.3 5.65 L46.25 10.15 45.8 2.45 45.5 0.15 Q46.75 -12.0 43.85 -20.95 M-33.3 29.1 L-35.05 27.0 Q-41.05 19.55 -43.6 9.55 -47.1 -3.8 -43.1 -16.0 -38.35 -22.65 -30.6 -27.25 -33.4 10.9 -7.3 30.75 L-8.35 31.05 Q-21.75 35.7 -33.3 29.1 M18.1 -30.35 Q18.65 -13.65 25.8 -1.2 19.5 19.15 -0.15 28.05 -28.75 8.1 -24.95 -30.2 -20.75 -32.15 -15.9 -33.55 1.2 -38.65 18.1 -30.35" fill="#714f86" fill-rule="evenodd" stroke="none"/>
    <path d="M2.1 44.45 Q-10.6 44.8 -22.25 37.95 L-22.6 37.75 Q-27.35 34.9 -31.1 31.35 -18.85 39.3 -4.5 34.3 25.65 25.3 30.9 -3.6 35.2 0.7 38.65 -0.2 40.7 -0.75 41.8 -2.95 46.45 24.65 14.85 39.45 7.8 42.7 2.1 44.45" fill="#533a63" fill-rule="evenodd" stroke="none"/>
    <path d="M21.7 -32.4 Q22.65 -36.25 25.45 -37.0 28.45 -37.8 32.05 -34.65 L33.55 -33.2 36.05 -30.15 Q38.8 -26.25 40.7 -20.9 43.35 -13.65 42.9 -7.75 L42.85 -7.25 Q42.6 -4.65 41.8 -2.95 40.7 -0.75 38.65 -0.2 35.2 0.7 30.9 -3.6 L30.55 -3.95 Q28.85 -5.75 27.45 -7.95 25.05 -11.6 23.4 -16.3 21.1 -22.7 21.2 -28.0 L21.2 -28.85 21.3 -29.95 21.7 -32.4" fill="#432f51" fill-rule="evenodd" stroke="none"/>
    <path d="M-41.35 -20.55 Q-40.25 -23.15 -38.75 -25.7 -29.0 -42.2 -10.35 -47.05 7.9 -51.8 24.15 -42.6 L24.9 -42.15 Q29.0 -39.75 32.4 -36.75 L32.05 -34.65 Q28.45 -37.8 25.45 -37.0 22.65 -36.25 21.7 -32.4 3.35 -42.65 -15.2 -37.1 -33.75 -31.6 -41.35 -20.55" fill="#291d32" fill-rule="evenodd" stroke="none"/>
    <path d="M-41.35 -20.55 Q-40.25 -23.15 -38.75 -25.7 -29.0 -42.2 -10.35 -47.05 7.9 -51.8 24.15 -42.6 L24.9 -42.15 Q29.0 -39.75 32.4 -36.75 L36.3 -32.9 Q41.0 -27.65 43.85 -20.95 45.3 -17.55 46.3 -13.75 L46.35 -13.5 Q48.85 -3.65 47.3 5.65 L46.25 10.15 Q44.6 15.9 41.35 21.45 36.9 29.05 30.55 34.2 24.3 39.2 16.35 41.85 L12.95 42.85 Q7.4 44.3 2.1 44.45 -10.6 44.8 -22.25 37.95 L-22.6 37.75 Q-27.35 34.9 -31.1 31.35 L-33.3 29.1 -35.05 27.0 Q-41.05 19.55 -43.6 9.55 -47.1 -3.8 -43.1 -16.0 L-41.35 -20.55 Q-33.75 -31.6 -15.2 -37.1 3.35 -42.65 21.7 -32.4 L21.3 -29.95 21.2 -28.85 21.2 -28.0 Q21.1 -22.7 23.4 -16.3 25.05 -11.6 27.45 -7.95 28.85 -5.75 30.55 -3.95 L30.9 -3.6 Q35.2 0.7 38.65 -0.2 40.7 -0.75 41.8 -2.95 42.6 -4.65 42.85 -7.25 L42.9 -7.75 Q43.35 -13.65 40.7 -20.9 38.8 -26.25 36.05 -30.15 L33.55 -33.2 32.05 -34.65 32.4 -36.75 M18.1 -30.35 Q1.2 -38.65 -15.9 -33.55 -20.75 -32.15 -24.95 -30.2 -28.75 8.1 -0.15 28.05 19.5 19.15 25.8 -1.2 18.65 -13.65 18.1 -30.35 M43.1 -7.35 L42.9 -7.75 M-33.3 29.1 Q-21.75 35.7 -8.35 31.05 L-7.3 30.75 Q-33.4 10.9 -30.6 -27.25 -38.35 -22.65 -43.1 -16.0 M30.9 -3.6 Q25.65 25.3 -4.5 34.3 -18.85 39.3 -31.1 31.35 M43.85 -20.95 Q46.75 -12.0 45.5 0.15 L45.8 2.45 46.25 10.15 M2.1 44.45 Q7.8 42.7 14.85 39.45 46.45 24.65 41.8 -2.95" fill="none" stroke="#4d355b" stroke-linecap="round" stroke-linejoin="round" stroke-width="0.05"/>
    <path d="M5.05 -18.45 Q6.8 -17.4 8.15 -15.55 10.65 -12.05 10.0 -7.7 9.25 -3.35 5.65 -0.75 2.85 1.25 -0.4 1.3 -7.05 0.75 -13.0 -2.3 -12.2 -9.75 -8.5 -14.95 L-8.5 -5.5 5.0 -18.45 5.05 -18.45 M-29.7 0.85 Q-27.65 4.15 -28.25 8.0 -28.95 12.35 -32.45 14.9 -35.2 16.9 -38.45 16.95 -47.15 17.1 -57.0 12.65 -38.85 -5.9 -29.7 0.85" fill="#ffff99" fill-rule="evenodd" stroke="none"/>
    <path d="M-8.5 -14.95 Q-7.0 -17.15 -5.0 -18.95 -2.1 -20.4 1.25 -19.8 3.35 -19.5 5.0 -18.45 L-8.5 -5.5 -8.5 -14.95 M-57.0 12.65 L-57.95 12.2 Q-52.55 2.75 -43.5 -3.15 -40.55 -4.6 -37.15 -4.05 -32.8 -3.4 -30.2 0.15 L-29.7 0.85 Q-38.85 -5.9 -57.0 12.65" fill="#f8f801" fill-rule="evenodd" stroke="none"/>
    <path d="M5.05 -18.45 Q6.8 -17.4 8.15 -15.55 10.65 -12.05 10.0 -7.7 9.25 -3.35 5.65 -0.75 2.85 1.25 -0.4 1.3 -7.05 0.75 -13.0 -2.3 -12.2 -9.75 -8.5 -14.95 -7.0 -17.15 -5.0 -18.95 -2.1 -20.4 1.25 -19.8 3.35 -19.5 5.0 -18.45 M-57.0 12.65 L-57.95 12.2 Q-52.55 2.75 -43.5 -3.15 -40.55 -4.6 -37.15 -4.05 -32.8 -3.4 -30.2 0.15 L-29.7 0.85 Q-27.65 4.15 -28.25 8.0 -28.95 12.35 -32.45 14.9 -35.2 16.9 -38.45 16.95 -47.15 17.1 -57.0 12.65" fill="none" stroke="#f0bd0f" stroke-linecap="round" stroke-linejoin="round" stroke-width="0.05"/>
  </g>
</svg>
