<?xml version="1.0" encoding="UTF-8" standalone="no"?>
<svg xmlns:xlink="http://www.w3.org/1999/xlink" height="100.2px" width="156.2px" xmlns="http://www.w3.org/2000/svg">
  <g transform="matrix(1.0, 0.0, 0.0, 1.0, 103.35, 43.75)">
    <path d="M-9.6 27.4 L-8.45 19.85 Q4.1 16.45 12.7 11.6 18.45 8.25 22.4 4.25 L18.45 30.05 -24.65 51.05 -57.25 56.45 Q-24.8 38.05 -9.6 27.4 L-10.0 28.5 -9.6 27.4" fill="#3a5c94" fill-rule="evenodd" stroke="none"/>
    <path d="M-9.6 27.4 Q-24.8 38.05 -57.25 56.45 L-24.65 51.05 18.45 30.05 22.4 4.25 Q18.45 8.25 12.7 11.6 4.1 16.45 -8.45 19.85 L-9.6 27.4 -10.0 28.5" fill="none" stroke="#999999" stroke-linecap="round" stroke-linejoin="round" stroke-width="0.05"/>
    <path d="M-1.5 43.75 L-2.2 43.7 -1.45 43.65 -1.5 43.75" fill="#000000" fill-rule="evenodd" stroke="none"/>
    <path d="M-1.5 43.75 L-1.45 43.65 -1.45 43.75 -1.5 43.75" fill="#000066" fill-rule="evenodd" stroke="none"/>
    <path d="M-52.7 3.1 Q-38.05 27.35 -20.9 23.9 1.3 19.35 1.75 -9.75 25.8 -15.7 39.25 -14.95 49.25 -12.75 52.3 -6.3 52.95 -2.4 52.85 1.85 52.45 12.15 47.15 20.6 43.7 18.25 35.85 17.65 L34.3 17.55 Q20.35 16.9 2.05 21.65 -16.25 26.4 -28.15 33.75 L-30.65 35.4 Q-34.75 32.9 -38.4 29.65 -51.35 18.15 -52.7 3.1 M39.25 -14.95 Q40.95 4.55 35.85 17.65 40.95 4.55 39.25 -14.95" fill="#3a5c94" fill-rule="evenodd" stroke="none"/>
    <path d="M52.3 -6.3 Q49.25 -12.75 39.25 -14.95 25.8 -15.7 1.75 -9.75 1.3 19.35 -20.9 23.9 -38.05 27.35 -52.7 3.1 L-52.8 -1.8 Q-52.2 -19.9 -36.3 -32.15 -20.4 -44.45 1.5 -43.7 L4.4 -43.55 5.85 -43.4 Q23.65 -41.75 36.6 -31.15 L36.75 -31.05 36.95 -30.85 37.5 -30.4 38.4 -29.6 Q49.95 -19.4 52.3 -6.3 M-30.65 35.4 L-28.15 33.75 Q-16.25 26.4 2.05 21.65 20.35 16.9 34.3 17.55 L35.85 17.65 Q27.1 39.95 -1.45 43.65 27.1 39.95 35.85 17.65 43.7 18.25 47.15 20.6 43.15 26.9 36.3 32.2 20.4 44.45 -1.45 43.75 L-1.45 43.65 -2.2 43.7 Q-18.3 43.0 -30.65 35.4 M-30.3 11.55 Q-32.15 11.0 -33.9 9.8 -38.65 6.45 -40.25 0.45 -41.55 -4.3 -40.25 -8.6 L-39.65 -10.7 -40.25 -8.6 Q-41.55 -4.3 -40.25 0.45 -38.65 6.45 -33.9 9.8 -32.15 11.0 -30.3 11.55 M-39.65 -10.7 L-39.4 -10.7 Q-36.9 -16.0 -31.7 -17.4 -26.5 -18.75 -21.8 -15.45 -17.0 -12.2 -15.4 -6.2 -13.8 -0.2 -16.3 5.05 -18.75 10.25 -23.9 11.65 -27.0 12.45 -29.95 11.65 L-30.0 11.7 Q-27.6 12.65 -25.05 12.55 L-22.15 12.1 -21.95 12.05 Q-17.2 10.7 -14.65 6.35 L-13.9 4.9 Q-11.15 -0.8 -12.85 -7.3 -14.65 -13.85 -19.85 -17.4 -25.0 -21.0 -30.6 -19.45 L-31.7 -19.15 Q-34.0 -18.3 -35.75 -16.75 -37.7 -14.95 -39.0 -12.25 L-39.65 -10.7" fill="#faedfe" fill-rule="evenodd" stroke="none"/>
    <path d="M-30.0 11.7 L-29.95 11.65 Q-27.0 12.45 -23.9 11.65 -18.75 10.25 -16.3 5.05 -13.8 -0.2 -15.4 -6.2 -17.0 -12.2 -21.8 -15.45 -26.5 -18.75 -31.7 -17.4 -36.9 -16.0 -39.4 -10.7 L-39.65 -10.7 -39.0 -12.25 Q-37.7 -14.95 -35.75 -16.75 -34.0 -18.3 -31.7 -19.15 L-30.6 -19.45 Q-25.0 -21.0 -19.85 -17.4 -14.65 -13.85 -12.85 -7.3 -11.15 -0.8 -13.9 4.9 L-14.65 6.35 Q-17.2 10.7 -21.95 12.05 L-22.15 12.1 -25.05 12.55 Q-27.6 12.65 -30.0 11.7" fill="#e6bafa" fill-rule="evenodd" stroke="none"/>
    <path d="M-52.7 3.1 Q-38.05 27.35 -20.9 23.9 1.3 19.35 1.75 -9.75 25.8 -15.7 39.25 -14.95 49.25 -12.75 52.3 -6.3 49.95 -19.4 38.4 -29.6 L37.5 -30.4 36.95 -30.85 36.75 -31.05 36.6 -31.15 Q23.65 -41.75 5.85 -43.4 L4.4 -43.55 1.5 -43.7 Q-20.4 -44.45 -36.3 -32.15 -52.2 -19.9 -52.8 -1.8 L-52.7 3.1 Q-51.35 18.15 -38.4 29.65 -34.75 32.9 -30.65 35.4 L-28.15 33.75 Q-16.25 26.4 2.05 21.65 20.35 16.9 34.3 17.55 L35.85 17.65 Q40.95 4.55 39.25 -14.95 M-39.65 -10.7 L-40.25 -8.6 Q-41.55 -4.3 -40.25 0.45 -38.65 6.45 -33.9 9.8 -32.15 11.0 -30.3 11.55 M-39.65 -10.7 L-39.0 -12.25 Q-37.7 -14.95 -35.75 -16.75 -34.0 -18.3 -31.7 -19.15 L-30.6 -19.45 Q-25.0 -21.0 -19.85 -17.4 -14.65 -13.85 -12.85 -7.3 -11.15 -0.8 -13.9 4.9 L-14.65 6.35 Q-17.2 10.7 -21.95 12.05 L-22.15 12.1 -25.05 12.55 Q-27.6 12.65 -30.0 11.7 M-2.2 43.7 L-1.5 43.75 -1.45 43.65 -2.2 43.7 Q-18.3 43.0 -30.65 35.4 M-1.5 43.75 L-1.45 43.75 Q20.4 44.45 36.3 32.2 43.15 26.9 47.15 20.6 52.45 12.15 52.85 1.85 52.95 -2.4 52.3 -6.3 M-1.45 43.65 Q27.1 39.95 35.85 17.65 43.7 18.25 47.15 20.6" fill="none" stroke="#999999" stroke-linecap="round" stroke-linejoin="round" stroke-width="0.05"/>
    <path d="M-29.05 -9.6 Q-16.4 2.1 -32.85 5.45 -47.8 4.95 -57.15 11.75 -62.45 14.9 -69.3 19.4 -83.15 28.5 -103.35 43.25 L-88.85 13.95 -48.0 -14.9 -29.05 -9.6" fill="#3a5c94" fill-rule="evenodd" stroke="none"/>
    <path d="M-29.05 -9.6 Q-16.4 2.1 -32.85 5.45 -47.8 4.95 -57.15 11.75 -62.45 14.9 -69.3 19.4 -83.15 28.5 -103.35 43.25 L-88.85 13.95 -48.0 -14.9 -29.05 -9.6 Z" fill="none" stroke="#999999" stroke-linecap="round" stroke-linejoin="round" stroke-width="0.05"/>
  </g>
</svg>
