<?xml version="1.0" encoding="UTF-8" standalone="no"?>
<svg xmlns:xlink="http://www.w3.org/1999/xlink" height="95.5px" width="142.8px" xmlns="http://www.w3.org/2000/svg">
  <g transform="matrix(1.0, 0.0, 0.0, 1.0, 89.95, 43.75)">
    <path d="M12.5 26.1 L15.8 19.6 Q34.2 5.8 47.4 5.75 L35.9 27.9 -9.25 50.25 -37.75 51.75 Q-15.2 40.85 -0.3 33.05 L12.5 26.1" fill="#ffff99" fill-rule="evenodd" stroke="none"/>
    <path d="M12.5 26.1 L-0.3 33.05 Q-15.2 40.85 -37.75 51.75 L-9.25 50.25 35.9 27.9 47.4 5.75 Q34.2 5.8 15.8 19.6 L12.5 26.1 Z" fill="none" stroke="#c7c701" stroke-linecap="round" stroke-linejoin="round" stroke-width="0.05"/>
    <path d="M-1.5 43.75 L-2.2 43.7 -1.45 43.65 -1.5 43.75" fill="#000000" fill-rule="evenodd" stroke="none"/>
    <path d="M52.3 -6.3 Q52.95 -2.4 52.85 1.85 52.2 19.9 36.3 32.2 20.4 44.5 -1.5 43.75 L-1.45 43.65 -2.2 43.7 Q-23.6 42.75 -38.4 29.65 -51.35 18.15 -52.7 3.1 -38.05 27.35 -20.9 23.9 1.3 19.35 1.75 -9.75 25.8 -15.7 39.25 -14.95 49.25 -12.75 52.3 -6.3 M39.25 -14.95 Q43.85 37.8 -1.45 43.65 43.85 37.8 39.25 -14.95" fill="#000066" fill-rule="evenodd" stroke="none"/>
    <path d="M-52.7 3.1 L-52.8 -1.8 Q-52.2 -19.9 -36.3 -32.15 -20.4 -44.45 1.5 -43.7 L4.4 -43.55 5.85 -43.4 Q23.65 -41.75 36.6 -31.15 L36.75 -31.05 36.95 -30.85 37.5 -30.4 38.4 -29.6 Q49.95 -19.4 52.3 -6.3 49.25 -12.75 39.25 -14.95 25.8 -15.7 1.75 -9.75 1.3 19.35 -20.9 23.9 -38.05 27.35 -52.7 3.1" fill="#ffffff" fill-rule="evenodd" stroke="none"/>
    <path d="M-52.7 3.1 L-52.8 -1.8 Q-52.2 -19.9 -36.3 -32.15 -20.4 -44.45 1.5 -43.7 L4.4 -43.55 5.85 -43.4 Q23.65 -41.75 36.6 -31.15 L36.75 -31.05 36.95 -30.85 37.5 -30.4 38.4 -29.6 Q49.95 -19.4 52.3 -6.3 52.95 -2.4 52.85 1.85 52.2 19.9 36.3 32.2 20.4 44.5 -1.5 43.75 L-2.2 43.7 Q-23.6 42.75 -38.4 29.65 -51.35 18.15 -52.7 3.1 -38.05 27.35 -20.9 23.9 1.3 19.35 1.75 -9.75 25.8 -15.7 39.25 -14.95 49.25 -12.75 52.3 -6.3 M-1.45 43.65 L-1.5 43.75 M-2.2 43.7 L-1.45 43.65 Q43.85 37.8 39.25 -14.95" fill="none" stroke="#999999" stroke-linecap="round" stroke-linejoin="round" stroke-width="0.05"/>
    <path d="M-6.8 -7.45 Q-13.45 6.25 -34.8 13.2 L-42.2 10.85 Q-47.65 13.75 -54.75 18.0 -69.05 26.55 -89.95 40.45 L-74.4 11.95 -32.1 -15.25 -6.8 -7.45" fill="#ffff99" fill-rule="evenodd" stroke="none"/>
    <path d="M-6.8 -7.45 Q-13.45 6.25 -34.8 13.2 L-42.2 10.85 Q-47.65 13.75 -54.75 18.0 -69.05 26.55 -89.95 40.45 L-74.4 11.95 -32.1 -15.25 -6.8 -7.45 Z" fill="none" stroke="#c7c701" stroke-linecap="round" stroke-linejoin="round" stroke-width="0.05"/>
  </g>
</svg>
