<?xml version="1.0" encoding="UTF-8" standalone="no"?>
<svg xmlns:xlink="http://www.w3.org/1999/xlink" height="28.9px" width="21.4px" xmlns="http://www.w3.org/2000/svg">
  <g transform="matrix(1.0, 0.0, 0.0, 1.0, 10.6, 13.15)">
    <path d="M7.1 -7.8 L7.2 -7.75 7.15 -7.75 7.1 -7.8 M-6.9 7.4 L-7.2 6.45 -7.55 4.3 -4.65 5.45 Q-5.25 6.95 -6.9 7.4 M-6.9 -10.65 L-6.85 -10.65 -6.9 -10.6 -6.9 -10.65 M6.0 6.4 Q6.05 7.25 5.7 8.35 4.95 10.7 2.9 10.1 -1.3 8.5 -3.35 6.2 L-3.7 5.7 Q0.7 6.8 6.0 6.4 M-3.35 6.2 L-2.95 6.15 -3.35 6.2" fill="#ffffff" fill-rule="evenodd" stroke="none"/>
    <path d="M6.6 11.7 L6.85 12.15 Q7.35 13.1 7.1 13.85 5.5 14.95 2.3 15.55 L-3.7 15.25 Q-6.5 14.35 -7.4 13.75 -8.3 13.15 -8.15 12.15 -8.0 11.15 -7.5 10.65 -1.4 13.35 6.55 11.65 L6.6 11.7" fill="#474534" fill-rule="evenodd" stroke="none"/>
    <path d="M-3.8 -4.95 Q0.6 -2.85 5.5 -9.0 2.45 -0.05 -3.8 -4.95 M10.7 -3.55 Q11.0 -1.85 10.25 0.5 L8.2 5.4 7.75 6.2 6.0 6.4 Q5.95 4.65 4.4 3.65 L0.1 3.9 Q-0.5 2.9 -0.75 1.9 L-0.15 1.85 -0.75 1.9 Q-3.25 2.15 -5.35 0.75 L-6.8 -0.35 Q-0.1 3.5 6.8 -3.6 5.5 0.15 0.55 1.65 L-0.15 1.85 0.4 3.3 Q4.65 3.5 8.5 -0.25 L8.85 -0.75 Q9.6 -2.1 10.7 -3.55 M-7.65 2.0 L-7.8 1.85 Q-9.6 -0.25 -10.1 -2.45 -9.1 -0.2 -7.35 1.35 L-7.3 -0.85 -6.8 -0.35 -6.35 2.75 Q-7.3 2.35 -7.65 2.0 M1.85 -12.2 L3.85 -11.15 4.05 -9.4 Q3.75 -8.55 2.0 -8.3 -4.35 -6.95 -5.3 -9.05 -0.15 -8.0 1.85 -12.2 M-3.7 5.7 L-4.65 5.45 Q-4.4 4.8 -4.3 3.95 L-3.7 5.7" fill="#b86c63" fill-rule="evenodd" stroke="none"/>
    <path d="M5.5 -9.0 Q0.6 -2.85 -3.8 -4.95 2.45 -0.05 5.5 -9.0 6.0 -9.2 6.35 -8.45 L7.1 -7.8 7.15 -7.75 7.2 -7.75 7.85 -7.35 Q10.05 -6.15 10.25 -5.5 L10.6 -4.5 10.7 -3.55 Q9.6 -2.1 8.85 -0.75 L8.5 -0.25 Q4.65 3.5 0.4 3.3 L-0.15 1.85 0.55 1.65 Q5.5 0.15 6.8 -3.6 7.4 -5.45 7.15 -7.75 7.4 -5.45 6.8 -3.6 -0.1 3.5 -6.8 -0.35 L-7.3 -0.85 -7.35 1.35 Q-9.1 -0.2 -10.1 -2.45 L-10.4 -3.65 -10.6 -6.3 -10.45 -7.35 Q-10.0 -8.85 -8.4 -10.25 L-8.1 -10.35 -6.9 -10.65 -6.9 -10.6 -6.85 -10.65 Q-6.55 -11.35 -5.7 -11.0 -5.75 -12.0 -5.45 -12.75 -1.8 -13.75 1.85 -12.2 -0.15 -8.0 -5.3 -9.05 -4.35 -6.95 2.0 -8.3 3.75 -8.55 4.05 -9.4 5.0 -9.8 5.5 -9.0 M-7.55 4.3 L-7.65 2.0 Q-7.3 2.35 -6.35 2.75 L-6.8 -0.35 -5.35 0.75 Q-3.25 2.15 -0.75 1.9 -0.5 2.9 0.1 3.9 L4.4 3.65 Q5.95 4.65 6.0 6.4 0.7 6.8 -3.7 5.7 L-4.3 3.95 Q-4.4 4.8 -4.65 5.45 L-7.55 4.3 M0.9 -0.7 Q6.25 -3.6 6.35 -8.45 6.25 -3.6 0.9 -0.7 M-5.7 -6.0 Q-7.75 -9.4 -6.0 -10.8 L-5.7 -11.0 -5.65 -10.8 -5.6 -10.3 -5.3 -9.1 -5.3 -9.05 -5.3 -9.1 -5.6 -10.3 -5.65 -10.8 -5.7 -11.0 -6.0 -10.8 Q-7.75 -9.4 -5.7 -6.0 M-6.95 -3.15 Q-9.5 -6.35 -6.9 -10.6 -9.5 -6.35 -6.95 -3.15 M-6.9 -10.6 Q-9.05 -9.55 -9.1 -6.0 -9.15 -2.95 -7.3 -0.85 -9.15 -2.95 -9.1 -6.0 -9.05 -9.55 -6.9 -10.6" fill="#e39391" fill-rule="evenodd" stroke="none"/>
    <path d="M7.75 6.2 L6.65 7.85 Q6.1 10.0 6.6 11.7 L6.55 11.65 Q-1.4 13.35 -7.5 10.65 L-7.0 8.35 -6.9 7.4 Q-5.25 6.95 -4.65 5.45 L-3.7 5.7 -3.35 6.2 Q-1.3 8.5 2.9 10.1 4.95 10.7 5.7 8.35 6.05 7.25 6.0 6.4 L7.75 6.2" fill="#e0e0e0" fill-rule="evenodd" stroke="none"/>
    <path d="M5.5 -9.0 Q0.6 -2.85 -3.8 -4.95 M5.5 -9.0 Q6.0 -9.2 6.35 -8.45 L7.1 -7.8 7.2 -7.75 7.85 -7.35 Q10.05 -6.15 10.25 -5.5 M10.25 0.5 L8.2 5.4 7.75 6.2 6.65 7.85 Q6.1 10.0 6.6 11.7 L6.85 12.15 Q7.35 13.1 7.1 13.85 5.5 14.95 2.3 15.55 L-3.7 15.25 Q-6.5 14.35 -7.4 13.75 -8.3 13.15 -8.15 12.15 -8.0 11.15 -7.5 10.65 L-7.0 8.35 -6.9 7.4 -7.2 6.45 -7.55 4.3 -7.65 2.0 -7.8 1.85 Q-9.6 -0.25 -10.1 -2.45 L-10.4 -3.65 -10.6 -6.3 M-8.4 -10.25 L-8.1 -10.35 -6.9 -10.65 -6.85 -10.65 Q-6.55 -11.35 -5.7 -11.0 -5.75 -12.0 -5.45 -12.75 -1.8 -13.75 1.85 -12.2 L3.85 -11.15 4.05 -9.4 Q5.0 -9.8 5.5 -9.0 M7.15 -7.75 Q7.4 -5.45 6.8 -3.6 5.5 0.15 0.55 1.65 L-0.15 1.85 -0.75 1.9 Q-3.25 2.15 -5.35 0.75 L-6.8 -0.35 -7.3 -0.85 Q-9.15 -2.95 -9.1 -6.0 -9.05 -9.55 -6.9 -10.6 -9.5 -6.35 -6.95 -3.15 M7.1 -7.8 L7.15 -7.75 M2.0 -8.3 Q-4.35 -6.95 -5.3 -9.05 L-5.3 -9.1 -5.6 -10.3 -5.65 -10.8 -5.7 -11.0 -6.0 -10.8 Q-7.75 -9.4 -5.7 -6.0 M6.35 -8.45 Q6.25 -3.6 0.9 -0.7 M6.0 6.4 L7.75 6.2 M6.0 6.4 Q0.7 6.8 -3.7 5.7 L-4.65 5.45 -7.55 4.3 M6.6 11.7 L6.55 11.65 Q-1.4 13.35 -7.5 10.65 M-6.85 -10.65 L-6.9 -10.6" fill="none" stroke="#000000" stroke-linecap="round" stroke-linejoin="round" stroke-width="0.05"/>
  </g>
</svg>
