<?xml version="1.0" encoding="UTF-8" standalone="no"?>
<svg xmlns:xlink="http://www.w3.org/1999/xlink" height="28.5px" width="21.4px" xmlns="http://www.w3.org/2000/svg">
  <g transform="matrix(1.0, 0.0, 0.0, 1.0, 10.6, 12.3)">
    <path d="M6.0 6.25 Q6.05 7.2 5.7 8.35 4.95 10.7 2.9 10.1 L1.65 9.6 Q3.2 9.25 4.05 8.45 L6.0 6.25" fill="#ffffff" fill-rule="evenodd" stroke="none"/>
    <path d="M10.7 -3.55 Q11.0 -1.85 10.25 0.5 L8.9 3.95 Q8.05 3.9 6.6 5.55 L6.0 6.25 Q5.85 4.6 4.4 3.65 L0.1 3.9 Q-0.85 2.3 -1.05 0.55 L-0.45 0.4 0.4 3.3 Q4.65 3.5 8.5 -0.25 L8.85 -0.75 Q9.6 -2.1 10.7 -3.55 M-7.65 2.0 L-7.8 1.85 Q-9.6 -0.25 -10.1 -2.45 -9.1 -0.2 -7.35 1.35 L-7.25 -1.5 -6.8 -0.95 Q-6.85 0.85 -6.35 2.75 -7.3 2.35 -7.65 2.0 M-6.9 7.4 Q-4.6 6.8 -4.3 3.95 -4.1 5.35 -3.35 6.2 -1.65 8.15 1.65 9.6 L-1.2 9.8 Q-5.25 9.65 -6.9 7.4" fill="#1e2225" fill-rule="evenodd" stroke="none"/>
    <path d="M-7.15 -10.55 Q-8.75 -6.45 -8.05 -3.4 L-7.55 -2.05 -7.25 -1.5 -7.35 1.35 Q-9.1 -0.2 -10.1 -2.45 L-10.4 -3.65 -10.6 -6.3 -10.45 -7.35 Q-10.0 -8.85 -8.4 -10.25 L-8.1 -10.35 -7.15 -10.55 M8.5 -7.0 Q10.05 -6.05 10.25 -5.5 L10.6 -4.5 10.7 -3.55 Q9.6 -2.1 8.85 -0.75 L8.5 -0.25 Q4.65 3.5 0.4 3.3 L-0.45 0.4 Q3.7 -0.9 8.5 -7.0 M-6.9 7.4 L-7.2 6.45 Q-7.75 4.45 -7.65 2.0 -7.3 2.35 -6.35 2.75 -6.85 0.85 -6.8 -0.95 L-4.85 0.35 -1.05 0.55 Q-0.85 2.3 0.1 3.9 L4.4 3.65 Q5.85 4.6 6.0 6.25 L4.05 8.45 Q3.2 9.25 1.65 9.6 -1.65 8.15 -3.35 6.2 -4.1 5.35 -4.3 3.95 -4.6 6.8 -6.9 7.4 M-3.35 6.2 L-2.95 6.15 -3.35 6.2" fill="#3c4147" fill-rule="evenodd" stroke="none"/>
    <path d="M4.95 -9.0 L6.1 -8.4 6.5 -8.15 7.25 -7.7 Q0.4 -0.1 -7.55 -2.05 L-8.05 -3.4 Q-8.75 -6.45 -7.15 -10.55 L-6.3 -10.75 -6.5 -10.2 Q-6.55 -9.2 -4.95 -8.45 -3.3 -7.6 -0.95 -7.45 1.45 -7.35 3.25 -7.95 4.55 -8.4 4.95 -9.0 4.55 -8.4 3.25 -7.95 1.45 -7.35 -0.95 -7.45 -3.3 -7.6 -4.95 -8.45 -6.55 -9.2 -6.5 -10.2 L-6.3 -10.75 Q-5.85 -11.4 -4.6 -11.8 L-0.5 -12.25 Q1.9 -12.1 3.55 -11.35 5.2 -10.5 5.1 -9.5 L4.95 -9.0 M-7.95 13.45 Q-8.65 11.85 -7.5 10.65 -2.7 12.75 2.0 12.15 1.15 16.75 -7.95 13.45" fill="#5a5a5a" fill-rule="evenodd" stroke="none"/>
    <path d="M-7.55 -2.05 Q0.4 -0.1 7.25 -7.7 L7.85 -7.35 Q8.2 -7.15 8.5 -7.0 3.7 -0.9 -0.45 0.4 L-1.05 0.55 -4.85 0.35 -6.8 -0.95 -7.25 -1.5 -7.55 -2.05 M6.45 11.0 Q8.2 11.85 6.85 13.95 5.7 14.75 4.0 15.15 -3.95 17.95 -7.95 13.45 1.15 16.75 2.0 12.15 4.25 11.9 6.45 11.0" fill="#000000" fill-rule="evenodd" stroke="none"/>
    <path d="M8.9 3.95 L8.2 5.4 6.65 7.85 Q6.2 9.55 6.45 11.0 4.25 11.9 2.0 12.15 -2.7 12.75 -7.5 10.65 L-7.0 8.35 -6.9 7.4 Q-5.25 9.65 -1.2 9.8 L1.65 9.6 2.9 10.1 Q4.95 10.7 5.7 8.35 6.05 7.2 6.0 6.25 L6.6 5.55 Q8.05 3.9 8.9 3.95" fill="#e0e0e0" fill-rule="evenodd" stroke="none"/>
    <path d="M8.5 -7.0 Q10.05 -6.05 10.25 -5.5 M10.25 0.5 L8.9 3.95 8.2 5.4 6.65 7.85 Q6.2 9.55 6.45 11.0 M-7.5 10.65 L-7.0 8.35 -6.9 7.4 -7.2 6.45 Q-7.75 4.45 -7.65 2.0 L-7.8 1.85 Q-9.6 -0.25 -10.1 -2.45 L-10.4 -3.65 -10.6 -6.3 M-8.4 -10.25 L-8.1 -10.35 -7.15 -10.55 M6.0 6.25 L6.6 5.55 Q8.05 3.9 8.9 3.95 M6.0 6.25 L4.05 8.45 Q3.2 9.25 1.65 9.6 L-1.2 9.8 Q-5.25 9.65 -6.9 7.4" fill="none" stroke="#000000" stroke-linecap="round" stroke-linejoin="round" stroke-width="0.05"/>
    <path d="M7.25 -7.7 L6.5 -8.15 6.1 -8.4 4.95 -9.0 Q4.55 -8.4 3.25 -7.95 1.45 -7.35 -0.95 -7.45 -3.3 -7.6 -4.95 -8.45 -6.55 -9.2 -6.5 -10.2 L-6.3 -10.75 -7.15 -10.55 Q-8.75 -6.45 -8.05 -3.4 L-7.55 -2.05 -7.25 -1.5 -6.8 -0.95 -4.85 0.35 -1.05 0.55 -0.45 0.4 Q3.7 -0.9 8.5 -7.0 8.2 -7.15 7.85 -7.35 L7.25 -7.7 M6.45 11.0 Q8.2 11.85 6.85 13.95 5.7 14.75 4.0 15.15 -3.95 17.95 -7.95 13.45 -8.65 11.85 -7.5 10.65 -2.7 12.75 2.0 12.15 4.25 11.9 6.45 11.0 M4.95 -9.0 L5.1 -9.5 Q5.2 -10.5 3.55 -11.35 1.9 -12.1 -0.5 -12.25 L-4.6 -11.8 Q-5.85 -11.4 -6.3 -10.75" fill="none" stroke="#999999" stroke-linecap="round" stroke-linejoin="round" stroke-width="0.05"/>
  </g>
</svg>
