<?xml version="1.0" encoding="UTF-8" standalone="no"?>
<svg xmlns:xlink="http://www.w3.org/1999/xlink" height="26.5px" width="21.35px" xmlns="http://www.w3.org/2000/svg">
  <g transform="matrix(1.0, 0.0, 0.0, 1.0, 10.5, 10.9)">
    <path d="M-4.7 -10.85 L-4.7 -10.9 -4.6 -10.9 -4.7 -10.85" fill="#f2f2f2" fill-rule="evenodd" stroke="none"/>
    <path d="M-4.7 -10.85 L-5.55 -10.25 -5.7 -10.05 Q-5.6 -7.85 2.1 -8.3 L2.9 -8.35 Q4.25 -8.8 3.8 -9.55 L7.95 -7.35 Q10.15 -6.15 10.35 -5.5 L10.7 -4.5 10.8 -3.95 10.8 -3.55 Q11.0 -2.3 10.65 -0.65 L8.8 -0.55 8.6 -0.25 Q4.75 3.55 0.5 3.3 -0.15 1.9 -0.4 0.05 L-1.0 0.1 -6.2 -0.8 -7.25 -0.8 -7.25 1.35 -8.05 0.55 -8.65 0.6 Q-9.65 -0.9 -10.0 -2.45 L-10.05 -2.55 -10.4 -4.05 -10.5 -6.3 -10.45 -6.85 -10.45 -6.9 -10.35 -7.35 -10.15 -7.85 -9.0 -9.6 -8.55 -10.05 -8.3 -10.25 -8.0 -10.35 -6.0 -10.75 -4.7 -10.9 -4.7 -10.85" fill="#5e5e5e" fill-rule="evenodd" stroke="none"/>
    <path d="M3.8 -9.55 Q4.25 -8.8 2.9 -8.35 L2.1 -8.3 Q-5.6 -7.85 -5.7 -10.05 L-5.55 -10.25 -4.7 -10.85 Q-4.75 -10.2 -3.3 -9.75 L-2.1 -9.45 -0.15 -9.25 2.2 -9.45 3.35 -9.75 3.8 -9.55 M-8.65 0.6 L-8.05 0.55 -7.25 1.35 -7.25 -0.8 -6.2 -0.8 -1.0 0.1 -0.4 0.05 Q-0.15 1.9 0.5 3.3 4.75 3.55 8.6 -0.25 L8.8 -0.55 10.65 -0.65 10.35 0.5 8.3 5.4 7.0 7.5 6.75 7.85 6.5 9.4 Q6.4 10.75 6.7 11.8 L6.85 12.15 6.9 12.35 Q7.15 13.05 6.95 13.95 4.25 15.8 -1.6 15.55 L-4.9 14.85 Q-6.8 14.2 -7.8 13.05 L-7.6 11.4 -7.45 10.85 Q-7.0 9.4 -6.9 8.35 L-6.8 7.4 -7.1 6.45 Q-7.6 4.45 -7.55 2.0 L-7.7 1.85 -8.65 0.6" fill="#333333" fill-rule="evenodd" stroke="none"/>
    <path d="M3.8 -9.55 L3.35 -9.75 2.2 -9.45 -0.15 -9.25 -2.1 -9.45 -3.3 -9.75 Q-4.75 -10.2 -4.7 -10.85 L-4.6 -10.9 -4.7 -10.9 -6.0 -10.75 -8.0 -10.35 -8.3 -10.25 M-10.5 -6.3 L-10.4 -4.05 -10.05 -2.55 -10.0 -2.45 Q-9.65 -0.9 -8.65 0.6 L-7.7 1.85 -7.55 2.0 Q-7.6 4.45 -7.1 6.45 L-6.8 7.4 -6.9 8.35 Q-7.0 9.4 -7.45 10.85 L-7.6 11.4 M10.35 -5.5 Q10.15 -6.15 7.95 -7.35 L3.8 -9.55 M10.35 0.5 L8.3 5.4 7.0 7.5 6.75 7.85 6.5 9.4 Q6.4 10.75 6.7 11.8" fill="none" stroke="#000000" stroke-linecap="round" stroke-linejoin="round" stroke-width="0.05"/>
    <path d="M6.7 11.8 L6.85 12.15 6.9 12.35 Q7.15 13.05 6.95 13.95 4.25 15.8 -1.6 15.55 L-4.9 14.85 Q-6.8 14.2 -7.8 13.05 L-7.6 11.4" fill="none" stroke="#000000" stroke-linecap="round" stroke-linejoin="round" stroke-width="0.05"/>
  </g>
</svg>
