<?xml version="1.0" encoding="UTF-8" standalone="no"?>
<svg xmlns:xlink="http://www.w3.org/1999/xlink" height="27.35px" width="21.35px" xmlns="http://www.w3.org/2000/svg">
  <g transform="matrix(1.0, 0.0, 0.0, 1.0, 10.6, 11.75)">
    <path d="M-4.7 -10.9 L-4.65 -10.9 -4.7 -10.8 -4.7 -10.9" fill="#ffffff" fill-rule="evenodd" stroke="none"/>
    <path d="M-9.15 -0.1 L-9.45 -0.65 -10.1 -2.45 -10.15 -2.55 -10.4 -3.65 -10.5 -4.05 -10.6 -6.3 -10.55 -6.85 -10.55 -6.9 -10.45 -7.35 -10.25 -7.85 Q-9.75 -9.0 -8.65 -10.05 L-8.4 -10.25 -8.1 -10.35 -6.1 -10.75 -5.75 -10.8 -4.7 -10.9 -4.7 -10.8 -5.65 -10.25 -5.8 -10.05 Q-5.95 -9.5 -5.45 -9.15 L-5.1 -9.0 -2.95 -8.6 -2.35 -8.55 1.85 -8.3 2.0 -8.3 3.45 -8.5 Q4.3 -8.85 3.7 -9.55 L4.9 -9.0 6.1 -8.4 6.5 -8.15 7.85 -7.35 Q10.05 -6.15 10.25 -5.5 L10.6 -4.5 10.7 -3.55 Q10.9 -2.3 10.55 -0.65 L8.7 -0.55 8.5 -0.25 Q4.65 3.5 0.4 3.3 -0.3 1.85 -0.5 0.05 L-1.1 0.1 Q-1.0 2.1 0.1 3.9 L4.4 3.65 Q7.0 5.2 6.9 7.5 L6.65 7.85 Q6.45 8.65 6.4 9.4 6.3 10.65 6.6 11.8 7.15 15.05 -4.15 15.05 -6.95 13.7 -7.7 11.4 L-7.55 10.95 -7.55 10.85 -7.45 10.5 Q-8.05 3.6 -9.15 -0.1 L-7.8 1.85 -7.65 2.0 Q-7.3 2.35 -6.35 2.75 L-6.75 0.45 -7.35 0.5 -7.35 1.35 -8.15 0.55 -9.15 -0.1" fill="#97b3c1" fill-rule="evenodd" stroke="none"/>
    <path d="M-9.15 -0.1 L-8.15 0.55 -7.35 1.35 -7.35 0.5 -6.75 0.45 -6.35 2.75 Q-7.3 2.35 -7.65 2.0 L-7.8 1.85 -9.15 -0.1 M6.9 7.5 Q7.0 5.2 4.4 3.65 L0.1 3.9 Q-1.0 2.1 -1.1 0.1 L-0.5 0.05 Q-0.3 1.85 0.4 3.3 4.65 3.5 8.5 -0.25 L8.7 -0.55 10.55 -0.65 10.25 0.5 9.95 1.5 8.2 5.4 6.9 7.5 M6.6 11.8 L6.75 12.15 6.8 12.35 Q7.05 12.95 6.85 13.95 4.1 15.8 -1.7 15.55 L-5.0 14.85 Q-6.95 14.15 -7.9 13.05 L-7.7 11.4 Q-6.95 13.7 -4.15 15.05 7.15 15.05 6.6 11.8" fill="#6992a7" fill-rule="evenodd" stroke="none"/>
    <path d="M-4.65 -10.9 L-4.7 -10.9 M10.25 0.5 L9.95 1.5" fill="none" stroke="#38575f" stroke-linecap="round" stroke-linejoin="round" stroke-width="0.05"/>
    <path d="M-10.6 -6.3 L-10.5 -4.05 -10.4 -3.65 -10.15 -2.55 -10.1 -2.45 -9.45 -0.65 -9.15 -0.1 Q-8.05 3.6 -7.45 10.5 L-7.55 10.85 -7.55 10.95 -7.7 11.4 -7.9 13.05 Q-6.95 14.15 -5.0 14.85 L-1.7 15.55 Q4.1 15.8 6.85 13.95 7.05 12.95 6.8 12.35 L6.75 12.15 6.6 11.8 Q6.3 10.65 6.4 9.4 6.45 8.65 6.65 7.85 L6.9 7.5 8.2 5.4 9.95 1.5 M-4.7 -10.9 L-4.7 -10.8 -5.65 -10.25 -5.8 -10.05 Q-5.95 -9.5 -5.45 -9.15 L-5.1 -9.0 -2.95 -8.6 -2.35 -8.55 1.85 -8.3 2.0 -8.3 3.45 -8.5 Q4.3 -8.85 3.7 -9.55 L4.9 -9.0 6.1 -8.4 6.5 -8.15 7.85 -7.35 Q10.05 -6.15 10.25 -5.5 M-4.7 -10.9 L-5.75 -10.8 -6.1 -10.75 -8.1 -10.35 -8.4 -10.25" fill="none" stroke="#40626a" stroke-linecap="round" stroke-linejoin="round" stroke-width="0.05"/>
    <path d="M3.85 -10.05 L3.35 -9.2 3.35 -9.15 3.2 -8.9 3.15 -8.85 1.85 -7.6 Q0.35 -6.45 -1.95 -5.65 L-2.55 -5.45 Q-5.75 -4.7 -6.85 -5.5 -6.5 -4.95 -5.4 -4.75 L-4.95 -4.65 -2.55 -5.2 -2.15 -5.35 -1.7 -5.5 -0.65 -5.95 0.35 -6.45 0.95 -6.75 1.0 -6.8 Q2.3 -7.55 3.0 -8.4 L3.2 -8.65 3.35 -8.85 3.5 -9.1 3.75 -9.55 3.9 -10.0 3.9 -10.05 3.85 -10.05 M3.85 -10.5 L4.2 -10.45 Q4.9 -10.35 5.0 -9.6 L4.9 -9.25 4.65 -8.7 4.5 -8.5 4.05 -7.8 Q-0.1 2.15 -4.7 1.15 -7.15 -0.05 -7.3 -2.7 L-7.45 -5.9 -7.55 -6.6 Q-8.35 -7.85 -7.4 -9.4 L-7.3 -9.55 -6.25 -10.9 Q-5.8 -11.4 -5.2 -11.35 -5.75 -10.8 -5.75 -9.2 L-5.75 -9.15 -5.7 -9.0 -3.8 -7.9 Q-2.0 -6.95 3.85 -10.5" fill="#6992a7" fill-rule="evenodd" stroke="none"/>
    <path d="M3.85 -10.05 L3.9 -10.0 3.75 -9.55 3.5 -9.1 3.35 -8.85 3.2 -8.65 3.0 -8.4 Q2.3 -7.55 1.0 -6.8 L0.95 -6.75 0.35 -6.45 -0.65 -5.95 -1.7 -5.5 -2.15 -5.35 -2.55 -5.2 -4.95 -4.65 -5.4 -4.75 Q-6.5 -4.95 -6.85 -5.5 -5.75 -4.7 -2.55 -5.45 L-1.95 -5.65 Q0.35 -6.45 1.85 -7.6 L3.15 -8.85 3.2 -8.9 3.35 -9.15 3.4 -9.2 3.35 -9.2 3.85 -10.05 M-5.2 -11.35 L-4.55 -11.75 Q-4.9 -10.2 -3.75 -9.7 L0.7 -9.8 Q3.15 -10.75 2.7 -11.4 L3.3 -11.25 Q3.85 -11.05 3.85 -10.5 -2.0 -6.95 -3.8 -7.9 L-5.7 -9.0 -5.75 -9.15 -5.75 -9.2 Q-5.75 -10.8 -5.2 -11.35" fill="#40626a" fill-rule="evenodd" stroke="none"/>
    <path d="M-4.95 -4.65 L-2.55 -5.2 -2.15 -5.35 -1.7 -5.5 -0.65 -5.95 0.35 -6.45 0.95 -6.75 1.0 -6.8 Q2.3 -7.55 3.0 -8.4 L3.2 -8.65 3.35 -8.85 3.5 -9.1 3.75 -9.55 3.9 -10.0 M3.85 -10.5 L4.2 -10.45 Q4.9 -10.35 5.0 -9.6 L4.9 -9.25 4.65 -8.7 4.5 -8.5 4.05 -7.8 Q-0.1 2.15 -4.7 1.15 -7.15 -0.05 -7.3 -2.7 L-7.45 -5.9 -7.55 -6.6 Q-8.35 -7.85 -7.4 -9.4 L-7.3 -9.55 -6.25 -10.9 Q-5.8 -11.4 -5.2 -11.35 L-4.55 -11.75 Q-4.9 -10.2 -3.75 -9.7 L0.7 -9.8 Q3.15 -10.75 2.7 -11.4 L3.3 -11.25 Q3.85 -11.05 3.85 -10.5 M-5.75 -9.15 L-5.75 -9.2 Q-5.75 -10.8 -5.2 -11.35" fill="none" stroke="#40626a" stroke-linecap="round" stroke-linejoin="round" stroke-width="0.05"/>
    <path d="M3.35 -9.2 L3.4 -9.2" fill="none" stroke="#40626a" stroke-linecap="round" stroke-linejoin="round" stroke-width="0.05"/>
  </g>
</svg>
