<?xml version="1.0" encoding="UTF-8" standalone="no"?>
<svg xmlns:xlink="http://www.w3.org/1999/xlink" height="2.3px" width="7.2px" xmlns="http://www.w3.org/2000/svg">
  <g transform="matrix(1.0, 0.0, 0.0, 1.0, 3.6, 1.15)">
    <path d="M2.8 -0.25 L3.05 -0.15 3.25 -0.2 3.3 -0.25 3.35 -0.3 3.4 0.0 3.25 0.5 2.9 0.7 2.6 0.5 2.45 0.0 2.6 -0.5 2.8 -0.65 2.75 -0.65 2.7 -0.45 2.8 -0.25 M-3.05 -0.25 L-2.8 -0.15 -2.6 -0.2 -2.55 -0.25 -2.5 -0.3 -2.45 0.0 -2.6 0.5 Q-2.75 0.7 -2.95 0.7 L-3.25 0.5 -3.4 0.0 -3.25 -0.5 -3.05 -0.65 -3.1 -0.65 -3.15 -0.45 -3.05 -0.25" fill="#000000" fill-rule="evenodd" stroke="none"/>
    <path d="M2.8 -0.25 L2.7 -0.45 2.75 -0.65 2.8 -0.65 2.6 -0.5 2.45 0.0 2.6 0.5 2.9 0.7 3.25 0.5 3.4 0.0 3.35 -0.3 3.3 -0.25 3.25 -0.2 3.05 -0.15 2.8 -0.25 M3.4 -0.8 L3.6 0.0 3.4 0.85 2.9 1.15 2.45 0.85 2.25 0.0 2.45 -0.8 2.9 -1.15 3.4 -0.8 M-2.95 -1.15 L-2.45 -0.8 -2.25 0.0 -2.45 0.85 -2.95 1.15 -3.4 0.85 -3.6 0.0 -3.4 -0.8 -2.95 -1.15 M-3.05 -0.25 L-3.15 -0.45 -3.1 -0.65 -3.05 -0.65 -3.25 -0.5 -3.4 0.0 -3.25 0.5 -2.95 0.7 Q-2.75 0.7 -2.6 0.5 L-2.45 0.0 -2.5 -0.3 -2.55 -0.25 -2.6 -0.2 -2.8 -0.15 -3.05 -0.25" fill="#339933" fill-rule="evenodd" stroke="none"/>
    <path d="M-3.1 -0.2 L-3.2 -0.45 -3.1 -0.7 -2.85 -0.8 -2.6 -0.7 -2.5 -0.45 -2.6 -0.2 -2.85 -0.05 -3.1 -0.2" fill="#ffffff" fill-rule="evenodd" stroke="none"/>
    <path d="M2.75 -0.2 L2.65 -0.45 2.75 -0.7 3.0 -0.8 3.25 -0.7 3.35 -0.45 3.25 -0.2 3.0 -0.05 2.75 -0.2" fill="#ffffff" fill-rule="evenodd" stroke="none"/>
  </g>
</svg>
