<?xml version="1.0" encoding="UTF-8" standalone="no"?>
<svg xmlns:xlink="http://www.w3.org/1999/xlink" height="35.1px" width="33.7px" xmlns="http://www.w3.org/2000/svg">
  <g transform="matrix(1.0, 0.0, 0.0, 1.0, 16.85, 17.45)">
    <path d="M13.25 -4.6 L16.85 -2.4 16.85 7.05 -0.4 17.65 -13.25 17.65 -13.25 13.15 -4.0 13.15 13.25 2.6 13.25 -4.6" fill="#000000" fill-opacity="0.3137255" fill-rule="evenodd" stroke="none"/>
    <path d="M13.25 -6.9 L13.25 -4.6 13.25 2.6 -4.0 13.15 -13.25 13.15 -16.85 13.15 -16.85 -17.45 -4.0 -17.45 13.25 -6.9" fill="url(#gradient0)" fill-rule="evenodd" stroke="none"/>
    <path d="M13.25 -6.9 L13.25 -4.6 13.25 2.6 -4.0 13.15 -13.25 13.15 -16.85 13.15" fill="none" stroke="#522653" stroke-linecap="round" stroke-linejoin="round" stroke-width="0.05"/>
    <path d="M-16.85 13.15 L-16.85 -17.45 -4.0 -17.45 13.25 -6.9 Z" fill="none" stroke="#bf6f6f" stroke-linecap="round" stroke-linejoin="round" stroke-width="0.05"/>
  </g>
  <defs>
    <linearGradient gradientTransform="matrix(0.0, 0.0187, -0.0158, 0.0, -30.95, -2.15)" gradientUnits="userSpaceOnUse" id="gradient0" spreadMethod="pad" x1="-819.2" x2="819.2">
      <stop offset="0.0" stop-color="#532626"/>
      <stop offset="1.0" stop-color="#a94949"/>
    </linearGradient>
  </defs>
</svg>
