<?xml version="1.0" encoding="UTF-8" standalone="no"?>
<svg xmlns:xlink="http://www.w3.org/1999/xlink" height="35.35px" width="33.2px" xmlns="http://www.w3.org/2000/svg">
  <g transform="matrix(1.0, 0.0, 0.0, 1.0, 16.6, 17.5)">
    <path d="M14.1 -13.0 L16.6 -13.0 16.6 17.85 4.25 17.8 Q-4.4 12.5 -13.0 7.15 L-13.0 4.9 0.65 13.3 14.1 13.3 14.1 -13.0" fill="#000000" fill-opacity="0.3137255" fill-rule="evenodd" stroke="none"/>
    <path d="M14.1 -17.5 L14.1 -13.0 14.1 13.3 0.65 13.3 -13.0 4.9 -16.6 2.65 -16.6 -6.9 0.65 -17.5 14.1 -17.5" fill="url(#gradient0)" fill-rule="evenodd" stroke="none"/>
    <path d="M14.1 -17.5 L14.1 -13.0 14.1 13.3 0.65 13.3 -13.0 4.9 -16.6 2.65" fill="none" stroke="#522653" stroke-linecap="round" stroke-linejoin="round" stroke-width="0.05"/>
    <path d="M-16.6 2.65 L-16.6 -6.9 0.65 -17.5 14.1 -17.5 Z" fill="none" stroke="#bf6f6f" stroke-linecap="round" stroke-linejoin="round" stroke-width="0.05"/>
  </g>
  <defs>
    <linearGradient gradientTransform="matrix(0.0, 0.0188, -0.0158, 0.0, 2.0, -2.15)" gradientUnits="userSpaceOnUse" id="gradient0" spreadMethod="pad" x1="-819.2" x2="819.2">
      <stop offset="0.0" stop-color="#532626"/>
      <stop offset="1.0" stop-color="#a94949"/>
    </linearGradient>
  </defs>
</svg>
