<?xml version="1.0" encoding="UTF-8" standalone="no"?>
<svg xmlns:xlink="http://www.w3.org/1999/xlink" height="37.7px" width="190.25px" xmlns="http://www.w3.org/2000/svg">
  <g transform="matrix(1.0, 0.0, 0.0, 1.0, 146.35, 18.85)">
    <path d="M40.6 -18.35 L43.4 -18.35 Q27.5 2.85 12.7 18.35 L-115.05 18.35 -126.85 3.95 Q-135.2 -6.15 -145.85 -18.35 L40.6 -18.35 M11.5 16.2 Q24.7 2.35 38.85 -16.05 24.7 2.35 11.5 16.2 L-114.15 16.05 11.5 16.2 M-114.25 16.05 L-114.2 16.1 -114.15 16.05 -115.2 14.8 -114.25 16.05 M-141.45 -16.25 L-140.75 -15.35 Q-132.8 -6.9 -124.45 3.2 L-115.2 14.8 -124.45 3.2 Q-132.8 -6.9 -140.75 -15.35 L-141.45 -16.25 38.85 -16.05 -141.45 -16.25" fill="url(#gradient0)" fill-rule="evenodd" stroke="none"/>
    <path d="M-114.15 16.05 L-114.25 16.05" fill="none" stroke="#8f3f3f" stroke-linecap="round" stroke-linejoin="round" stroke-width="1.0"/>
    <path d="M-115.05 18.35 L-126.85 3.95 Q-135.2 -6.15 -145.85 -18.35 M38.85 -16.05 Q24.7 2.35 11.5 16.2" fill="none" stroke="#3a1b1b" stroke-linecap="round" stroke-linejoin="round" stroke-width="1.0"/>
    <path d="M43.4 -18.35 Q27.5 2.85 12.7 18.35" fill="none" stroke="#8f3f3f" stroke-linecap="round" stroke-linejoin="round" stroke-width="1.0"/>
    <path d="M12.7 18.35 L-115.05 18.35" fill="none" stroke="#421e1e" stroke-linecap="round" stroke-linejoin="round" stroke-width="1.0"/>
    <path d="M40.6 -18.35 L43.4 -18.35" fill="none" stroke="#b15252" stroke-linecap="round" stroke-linejoin="round" stroke-width="1.0"/>
    <path d="M-145.85 -18.35 L40.6 -18.35" fill="none" stroke="#b15252" stroke-linecap="round" stroke-linejoin="round" stroke-width="1.0"/>
    <path d="M11.5 16.2 L-114.15 16.05" fill="none" stroke="#b76060" stroke-linecap="round" stroke-linejoin="round" stroke-width="1.0"/>
    <path d="M-141.45 -16.25 L38.85 -16.05" fill="none" stroke="#1e0d0d" stroke-linecap="round" stroke-linejoin="round" stroke-width="1.0"/>
    <path d="M-114.25 16.05 L-115.2 14.8 -124.45 3.2 Q-132.8 -6.9 -140.75 -15.35 L-141.45 -16.25" fill="none" stroke="#3a1b1b" stroke-linecap="round" stroke-linejoin="round" stroke-width="1.0"/>
  </g>
  <defs>
    <linearGradient gradientTransform="matrix(0.019, -0.0327, -0.1041, -0.0826, -70.9, -34.35)" gradientUnits="userSpaceOnUse" id="gradient0" spreadMethod="pad" x1="-819.2" x2="819.2">
      <stop offset="0.0" stop-color="#000000"/>
      <stop offset="1.0" stop-color="#6d3030"/>
    </linearGradient>
  </defs>
</svg>
