<?xml version="1.0" encoding="UTF-8" standalone="no"?>
<svg xmlns:xlink="http://www.w3.org/1999/xlink" height="53.05px" width="129.0px" xmlns="http://www.w3.org/2000/svg">
  <g transform="matrix(1.0, 0.0, 0.0, 1.0, 35.7, 29.45)">
    <path d="M92.8 15.2 L3.8 15.2 -15.2 -5.2 Q-26.8 -17.8 -35.2 -28.95 L92.8 -28.95 92.8 15.2" fill="url(#gradient0)" fill-rule="evenodd" stroke="none"/>
    <path d="M-35.2 -28.95 Q-26.8 -17.8 -15.2 -5.2 L3.8 15.2" fill="none" stroke="#be6b6b" stroke-linecap="round" stroke-linejoin="round" stroke-width="1.0"/>
    <path d="M3.8 15.2 L92.8 15.2" fill="none" stroke="#8f3f3f" stroke-linecap="round" stroke-linejoin="round" stroke-width="1.0"/>
    <path d="M-12.55 2.95 L-11.6 3.0 -10.85 3.6 Q-10.65 4.05 -10.8 4.5 L-11.45 5.1 -12.4 5.05 -13.15 4.4 -13.2 3.55 Q-13.05 3.1 -12.55 2.95 M-9.3 11.85 Q-9.15 11.4 -8.65 11.25 L-7.7 11.3 Q-7.2 11.5 -6.95 11.9 -6.75 12.35 -6.9 12.8 L-7.55 13.35 -8.5 13.35 -9.2 12.7 Q-9.45 12.25 -9.3 11.85 M-9.05 8.65 Q-9.2 9.1 -9.65 9.25 L-10.6 9.2 -11.35 8.6 -11.4 7.75 -10.8 7.15 -9.8 7.2 -9.05 7.8 Q-8.85 8.2 -9.05 8.65 M34.0 -25.4 L68.8 -25.55 68.8 7.0 68.6 7.0 68.6 7.2 68.0 7.75 66.85 8.55 66.85 8.6 66.35 9.05 Q66.0 9.55 65.9 10.2 L63.4 11.6 63.5 12.4 63.9 14.0 64.25 14.8 Q64.0 16.5 63.1 17.75 62.0 19.3 60.5 19.8 L58.25 19.9 Q56.7 19.3 56.05 17.65 55.5 16.5 55.8 15.5 L56.05 14.7 56.55 13.85 57.3 13.4 58.95 13.05 59.75 14.05 Q60.05 14.6 59.85 15.25 L59.6 15.8 58.9 16.6 58.55 16.6 58.05 16.25 57.75 16.2 57.55 15.9 57.65 14.1 57.25 14.05 Q56.25 15.1 56.35 16.1 56.45 17.1 57.1 18.05 L57.4 18.1 Q58.25 19.1 59.55 18.8 L60.45 18.5 60.75 18.45 Q61.95 17.45 62.2 15.75 L62.15 14.75 61.3 11.85 56.75 10.2 56.4 10.1 50.7 9.2 48.65 9.35 Q48.15 9.4 47.9 9.75 47.15 10.1 46.8 10.75 45.8 13.5 45.95 14.85 44.45 11.6 44.6 10.65 44.65 10.4 40.85 12.4 35.2 15.4 27.55 14.6 L26.55 14.4 Q26.7 15.9 26.3 17.8 25.55 20.7 23.55 22.25 22.1 23.4 20.3 23.6 17.8 23.6 15.75 21.65 14.4 20.45 14.15 18.7 L14.1 17.35 Q14.1 16.65 14.35 15.9 14.7 15.15 15.25 14.8 16.25 13.9 17.45 13.4 18.5 13.75 19.2 14.35 20.0 15.05 20.05 16.0 L20.0 17.0 19.4 18.5 18.85 18.7 17.95 18.5 17.45 18.55 17.0 18.25 16.15 15.6 15.55 15.8 Q14.7 17.9 15.35 19.2 16.0 20.6 17.6 21.65 L18.0 21.5 21.65 21.35 22.8 20.4 Q22.95 20.2 23.2 20.2 24.5 17.8 23.85 15.4 L23.2 14.05 22.05 12.55 21.3 12.2 18.05 10.25 12.6 10.55 12.0 10.6 7.45 10.9 3.05 11.5 Q1.4 11.95 0.05 12.9 -0.6 13.35 -0.85 13.9 -1.75 14.95 -1.9 15.95 L-1.9 17.9 -1.7 19.95 Q-3.9 16.95 -3.6 14.95 -3.25 12.75 -3.2 8.8 L-3.05 7.55 -4.05 5.4 -4.65 4.5 Q-5.35 3.75 -6.25 3.5 L-7.6 -0.85 -8.85 -0.9 -11.45 -0.7 -12.8 -0.4 Q-15.25 -1.15 -16.95 -2.95 -18.9 -5.0 -19.3 -7.6 -19.55 -9.6 -18.75 -11.1 -17.45 -13.25 -14.7 -13.95 L-11.35 -13.8 -10.2 -13.15 -9.05 -12.1 Q-8.6 -11.5 -8.6 -10.8 -8.4 -9.6 -8.55 -8.2 L-10.3 -7.2 -12.15 -7.35 -12.95 -7.9 -13.95 -9.2 -13.8 -9.75 -13.2 -10.45 -13.0 -10.9 -12.5 -11.1 -9.75 -10.45 -9.6 -11.05 Q-10.85 -12.85 -12.4 -13.0 -13.95 -13.2 -15.65 -12.4 L-15.8 -12.0 Q-17.6 -10.9 -17.55 -8.75 L-17.35 -7.3 -17.35 -6.85 Q-16.15 -4.65 -13.6 -3.8 L-12.1 -3.6 -7.35 -4.2 Q-2.05 -7.6 -2.15 -10.75 -2.2 -14.8 -9.45 -25.85 L34.0 -25.4" fill="#000000" fill-opacity="0.4509804" fill-rule="evenodd" stroke="none"/>
    <path d="M-11.65 1.8 Q-11.45 2.25 -11.6 2.7 L-12.25 3.3 -13.2 3.25 -13.95 2.6 -14.0 1.75 Q-13.85 1.3 -13.35 1.15 L-12.4 1.2 -11.65 1.8 M-9.85 6.0 Q-9.65 6.4 -9.85 6.85 -10.0 7.3 -10.45 7.45 L-11.4 7.4 -12.15 6.8 -12.2 5.95 -11.6 5.35 -10.6 5.4 -9.85 6.0 M-10.1 10.05 Q-9.95 9.6 -9.45 9.45 L-8.5 9.5 Q-8.0 9.7 -7.75 10.1 -7.55 10.55 -7.7 11.0 L-8.35 11.55 -9.3 11.55 -10.0 10.9 Q-10.25 10.45 -10.1 10.05" fill="#1c9ee3" fill-rule="evenodd" stroke="none"/>
    <path d="M33.2 -27.2 L68.0 -27.35 68.0 5.2 67.8 5.2 67.8 5.4 67.2 5.95 66.05 6.75 66.05 6.8 65.55 7.25 Q65.2 7.75 65.1 8.4 L62.6 9.8 62.7 10.6 63.1 12.2 63.45 13.0 Q63.2 14.7 62.3 15.95 61.2 17.5 59.7 18.0 L57.45 18.1 Q55.9 17.5 55.25 15.85 54.7 14.7 55.0 13.7 L55.25 12.9 55.75 12.05 Q56.15 11.7 56.5 11.6 L58.15 11.25 58.95 12.25 Q59.25 12.8 59.05 13.45 L58.8 14.0 58.1 14.8 57.75 14.8 57.25 14.45 56.95 14.4 56.75 14.1 56.85 12.3 56.45 12.25 Q55.45 13.3 55.55 14.3 55.65 15.3 56.3 16.25 L56.6 16.3 Q57.45 17.3 58.75 17.0 L59.65 16.7 59.95 16.65 Q61.15 15.65 61.4 13.95 L61.35 12.95 60.5 10.05 Q57.9 8.9 55.95 8.4 L55.6 8.3 49.9 7.4 47.85 7.55 Q47.35 7.6 47.1 7.95 46.35 8.3 46.0 8.95 45.0 11.7 45.15 13.05 43.65 9.8 43.8 8.85 43.85 8.6 40.05 10.6 34.4 13.6 26.75 12.8 L25.75 12.6 Q25.9 14.1 25.5 16.0 24.75 18.9 22.75 20.45 21.3 21.6 19.5 21.8 17.0 21.8 14.95 19.85 13.6 18.65 13.35 16.9 L13.3 15.55 Q13.3 14.85 13.55 14.1 L14.45 13.0 Q15.45 12.1 16.65 11.6 L18.4 12.55 Q19.2 13.25 19.25 14.2 L19.2 15.2 18.6 16.7 18.05 16.9 17.15 16.7 16.65 16.75 16.2 16.45 15.35 13.8 14.75 14.0 Q13.9 16.1 14.55 17.4 15.2 18.8 16.8 19.85 L17.2 19.7 20.85 19.55 22.0 18.6 Q22.15 18.4 22.4 18.4 23.7 16.0 23.05 13.6 L22.4 12.25 21.25 10.75 20.5 10.4 17.25 8.45 11.8 8.75 11.2 8.8 6.65 9.1 2.25 9.7 Q0.6 10.15 -0.75 11.1 -1.4 11.55 -1.65 12.1 -2.55 13.15 -2.7 14.15 L-2.7 16.1 -2.5 18.15 Q-4.7 15.15 -4.4 13.15 -4.05 10.95 -4.0 7.0 L-3.85 5.75 -4.85 3.6 -5.45 2.7 Q-6.15 1.95 -7.05 1.7 -8.3 -1.65 -8.4 -2.65 L-9.65 -2.7 -12.25 -2.5 -13.6 -2.2 Q-16.05 -2.95 -17.75 -4.75 -19.7 -6.8 -20.1 -9.4 -20.35 -11.4 -19.55 -12.9 -18.25 -15.05 -15.5 -15.75 L-12.15 -15.6 -11.0 -14.95 -9.85 -13.9 Q-9.4 -13.3 -9.4 -12.6 -9.2 -11.4 -9.35 -10.0 L-11.1 -9.0 -12.95 -9.15 -13.75 -9.7 -14.75 -11.0 -14.6 -11.55 -14.0 -12.25 -13.8 -12.7 -13.3 -12.9 -10.55 -12.25 -10.4 -12.85 Q-11.65 -14.65 -13.2 -14.8 -14.75 -15.0 -16.45 -14.2 L-16.6 -13.8 Q-18.4 -12.7 -18.35 -10.55 L-18.15 -9.1 -18.15 -8.65 Q-16.95 -6.45 -14.4 -5.6 L-12.9 -5.4 -8.15 -6.0 Q-2.85 -9.4 -2.95 -12.55 -3.0 -16.6 -10.25 -27.65 L33.2 -27.2" fill="url(#gradient1)" fill-rule="evenodd" stroke="none"/>
    <path d="M33.75 -27.45 L33.75 -27.25 67.55 -27.25 67.55 2.25 67.35 2.45 66.1 3.45 65.65 3.9 Q65.3 4.35 65.2 5.0 63.25 6.15 61.35 7.0 58.35 5.45 56.5 5.0 L56.2 4.9 50.75 4.05 48.8 4.2 46.25 4.6 Q45.75 4.8 41.4 7.1 37.45 9.15 32.45 9.3 L31.6 9.4 29.25 9.3 28.8 9.2 Q24.25 8.35 20.6 6.9 L20.55 6.85 17.35 4.95 11.9 5.25 11.3 5.3 6.75 5.35 2.35 5.7 Q0.85 6.1 -0.4 6.95 L-1.3 3.75 -1.75 2.7 -2.35 1.8 Q-3.1 1.0 -3.95 0.8 -5.2 -2.5 -5.6 -5.05 0.5 -9.4 0.45 -12.55 0.35 -16.6 -6.45 -28.05 L33.75 -27.45" fill="url(#gradient2)" fill-rule="evenodd" stroke="none"/>
  </g>
  <defs>
    <linearGradient gradientTransform="matrix(-0.0172, 0.0207, -0.1132, -0.0693, -46.45, -48.15)" gradientUnits="userSpaceOnUse" id="gradient0" spreadMethod="pad" x1="-819.2" x2="819.2">
      <stop offset="0.0" stop-color="#000000"/>
      <stop offset="1.0" stop-color="#6d3030"/>
    </linearGradient>
    <linearGradient gradientTransform="matrix(0.0049, -0.0148, 0.024, 0.008, 8.45, -7.0)" gradientUnits="userSpaceOnUse" id="gradient1" spreadMethod="pad" x1="-819.2" x2="819.2">
      <stop offset="0.0" stop-color="#1c9ee3"/>
      <stop offset="1.0" stop-color="#094176"/>
    </linearGradient>
    <linearGradient gradientTransform="matrix(0.0035, -0.0129, 0.0169, 0.0045, 3.8, -4.15)" gradientUnits="userSpaceOnUse" id="gradient2" spreadMethod="pad" x1="-819.2" x2="819.2">
      <stop offset="0.0" stop-color="#ddf3fb" stop-opacity="0.6901961"/>
      <stop offset="1.0" stop-color="#0f64b9" stop-opacity="0.0"/>
    </linearGradient>
  </defs>
</svg>
