<?xml version="1.0" encoding="UTF-8" standalone="no"?>
<svg xmlns:xlink="http://www.w3.org/1999/xlink" height="17.3px" width="17.15px" xmlns="http://www.w3.org/2000/svg">
  <g transform="matrix(1.0, 0.0, 0.0, 1.0, 8.85, 7.85)">
    <path d="M-8.1 -7.8 L-8.1 -7.85 6.5 -7.85 8.3 -7.2 8.3 8.6 8.2 8.6 -4.35 8.6 -4.4 8.6 -8.1 4.9 -8.1 -7.8" fill="#ffffff" fill-rule="evenodd" stroke="none"/>
    <path d="M-8.1 -7.8 L-8.1 4.9 -4.4 8.6 -4.35 8.65 -4.35 8.6 8.2 8.6 6.9 9.45 -4.75 9.3 -8.85 5.4 -8.8 -5.85 -8.1 -7.8" fill="#1682c2" fill-rule="evenodd" stroke="none"/>
    <path d="M8.2 8.6 L8.3 8.6 8.3 -7.2 6.5 -7.85 -8.1 -7.85 -8.1 -7.8 -8.8 -5.85 -8.85 5.4 -4.75 9.3 6.9 9.45 8.2 8.6 Z" fill="none" stroke="#093940" stroke-linecap="round" stroke-linejoin="round" stroke-width="0.05"/>
    <path d="M5.2 3.2 L5.3 8.5 -3.55 8.5 -3.75 3.25 5.2 3.2" fill="#bde8f7" fill-rule="evenodd" stroke="none"/>
    <path d="M-5.95 0.25 L-6.05 -6.7 5.8 -6.7 5.85 0.25 -5.95 0.25" fill="url(#gradient0)" fill-rule="evenodd" stroke="none"/>
    <path d="M-5.95 0.25 L5.85 0.25" fill="none" stroke="#72cced" stroke-linecap="round" stroke-linejoin="round" stroke-width="0.05"/>
    <path d="M5.2 3.2 L-3.75 3.25 -3.55 8.5" fill="none" stroke="#72cced" stroke-linecap="round" stroke-linejoin="round" stroke-width="0.05"/>
    <path d="M5.3 8.5 L5.2 3.2" fill="none" stroke="#1aa4c6" stroke-linecap="round" stroke-linejoin="round" stroke-width="0.05"/>
    <path d="M5.85 0.25 L5.8 -6.7" fill="none" stroke="#1aa4c6" stroke-linecap="round" stroke-linejoin="round" stroke-width="0.05"/>
    <path d="M-0.25 3.7 L-0.15 7.75 -2.75 7.85 -2.95 3.8 -0.25 3.7" fill="#72cced" fill-rule="evenodd" stroke="none"/>
  </g>
  <defs>
    <linearGradient gradientTransform="matrix(0.0022, 0.0052, -0.0039, 0.0017, 0.4, -4.85)" gradientUnits="userSpaceOnUse" id="gradient0" spreadMethod="pad" x1="-819.2" x2="819.2">
      <stop offset="0.0" stop-color="#ffffff" stop-opacity="0.0"/>
      <stop offset="1.0" stop-color="#1c9ee3"/>
    </linearGradient>
  </defs>
</svg>
