<?xml version="1.0" encoding="UTF-8" standalone="no"?>
<svg xmlns:xlink="http://www.w3.org/1999/xlink" height="22.55px" width="17.25px" xmlns="http://www.w3.org/2000/svg">
  <g transform="matrix(1.0, 0.0, 0.0, 1.0, 8.65, 13.3)">
    <path d="M2.45 -9.5 L1.5 -9.5 Q2.35 -12.25 4.85 -12.8 6.4 -13.05 7.25 -12.15 9.8 -9.15 7.55 -0.6 L6.8 -2.9 Q8.4 -8.75 6.5 -11.05 5.9 -11.8 4.8 -11.55 3.1 -11.2 2.45 -9.5 M2.3 -9.0 L4.15 -8.95 Q6.3 -4.75 4.55 -2.8 3.6 -1.75 1.5 -1.35 -4.3 -0.4 -4.25 -8.0 L-2.2 -8.6 -1.3 -8.75 1.35 -9.0 2.3 -9.0 M1.1 -5.1 L0.15 -4.05 1.2 -1.95 2.45 -2.3 2.45 -4.5 1.1 -5.1 M5.8 -4.45 L7.35 0.4 7.35 0.45 Q9.55 7.45 1.2 9.05 -5.7 10.4 -5.7 3.55 L-5.55 1.35 -5.5 0.75 -4.25 -4.2 Q-3.0 -0.1 1.6 -0.85 4.45 -1.35 5.4 -3.0 L5.8 -4.45 M-7.75 -11.75 Q-6.25 -13.9 -4.25 -13.05 -2.25 -12.2 -1.4 -9.15 L-2.3 -9.0 Q-3.0 -11.2 -4.6 -11.75 -6.2 -12.35 -7.1 -10.35 -8.05 -8.35 -6.55 -1.4 L-5.95 0.4 -6.15 2.9 Q-7.3 1.45 -8.25 -4.1 -9.25 -9.65 -7.75 -11.75" fill="#ffffff" fill-rule="evenodd" stroke="none"/>
  </g>
</svg>
