<?xml version="1.0" encoding="UTF-8" standalone="no"?>
<svg xmlns:xlink="http://www.w3.org/1999/xlink" height="23.3px" width="18.05px" xmlns="http://www.w3.org/2000/svg">
  <g transform="matrix(1.0, 0.0, 0.0, 1.0, 9.0, 11.65)">
    <path d="M2.65 -9.85 L3.0 -9.45 4.1 -6.85 2.95 -7.9 0.8 -6.55 0.75 -6.3 0.8 -6.1 1.8 -6.0 2.7 -5.3 2.95 -5.4 4.75 -4.05 5.75 -3.65 7.25 -2.3 7.6 -2.2 9.05 -1.2 8.45 -1.2 8.95 -0.2 8.3 -0.85 8.45 0.3 8.2 0.1 8.0 0.25 7.6 -0.65 7.35 0.15 7.2 -0.9 6.85 -1.15 6.75 -1.65 2.2 -4.15 2.2 -4.4 1.55 -4.7 1.55 -1.4 2.7 0.85 2.15 1.0 2.15 1.85 2.3 1.85 2.2 4.85 2.55 6.6 2.35 9.0 2.5 10.25 2.85 11.25 2.45 11.65 1.85 11.65 1.05 10.6 1.1 8.0 0.75 5.9 0.75 4.85 0.35 2.05 0.45 2.05 0.35 1.25 -0.3 1.25 -0.45 2.05 -0.3 2.05 -0.75 4.85 -0.75 5.9 -1.1 8.0 -1.0 10.6 -1.85 11.65 -2.4 11.65 -2.8 11.25 -2.5 10.25 -2.35 9.0 -2.55 6.6 -2.2 4.85 -2.3 1.85 -2.1 1.85 -2.1 1.0 -2.7 0.85 -1.5 -1.35 -1.5 -4.7 -2.2 -4.4 -2.2 -4.15 -6.75 -1.65 -6.85 -1.15 -7.2 -0.9 -7.35 0.15 -7.55 -0.65 -8.0 0.25 -8.2 0.1 -8.4 0.3 -8.25 -0.85 -8.95 -0.2 -8.45 -1.2 -9.0 -1.2 -7.6 -2.2 -7.25 -2.3 -5.7 -3.65 -4.7 -4.05 -2.9 -5.4 -2.7 -5.3 -1.8 -6.0 -0.75 -6.1 -0.55 -6.3 -0.55 -6.55 -2.55 -7.85 -3.8 -6.9 -3.35 -8.35 -2.8 -9.45 -2.45 -9.85 -2.1 -10.7 -0.75 -11.65 -0.05 -11.35 0.95 -11.65 2.3 -10.7 2.65 -9.85" fill="#ffffff" fill-rule="evenodd" stroke="none"/>
  </g>
</svg>
