<?xml version="1.0" encoding="UTF-8" standalone="no"?>
<svg xmlns:xlink="http://www.w3.org/1999/xlink" height="19.15px" width="27.2px" xmlns="http://www.w3.org/2000/svg">
  <g transform="matrix(1.0, 0.0, 0.0, 1.0, 13.55, 9.65)">
    <path d="M5.45 -6.5 Q5.75 -7.05 6.4 -7.2 L7.55 -7.05 12.9 -4.0 Q13.4 -3.7 13.55 -3.05 13.75 -2.45 13.45 -1.9 L7.3 8.7 6.4 9.4 5.2 9.3 -0.1 6.25 -0.65 5.65 -0.8 5.25 Q-1.0 4.65 -0.65 4.1 L5.45 -6.5 M4.8 -8.1 L4.8 -6.55 -1.5 4.35 Q-1.9 4.95 -1.7 5.65 L-2.9 5.65 Q-3.55 5.65 -4.0 5.25 -4.45 4.75 -4.4 4.15 L-4.4 -8.1 Q-4.45 -8.75 -4.0 -9.2 -3.55 -9.65 -2.9 -9.65 L3.25 -9.65 Q3.85 -9.65 4.3 -9.2 4.75 -8.75 4.8 -8.1 M-7.8 -7.1 L-6.65 -7.35 Q-6.0 -7.2 -5.65 -6.7 L-5.05 -5.8 -5.05 4.7 Q-5.05 5.45 -4.5 6.05 -3.95 6.55 -3.2 6.55 L-0.6 6.55 -4.3 9.0 -5.45 9.25 Q-6.05 9.1 -6.4 8.6 L-13.3 -1.55 Q-13.65 -2.05 -13.5 -2.7 L-12.85 -3.65 -7.8 -7.1" fill="#ffffff" fill-rule="evenodd" stroke="none"/>
  </g>
</svg>
