<?xml version="1.0" encoding="UTF-8" standalone="no"?>
<svg xmlns:xlink="http://www.w3.org/1999/xlink" height="121.1px" width="25.9px" xmlns="http://www.w3.org/2000/svg">
  <g transform="matrix(1.0, 0.0, 0.0, 1.0, 12.8, 60.7)">
    <path d="M2.95 -55.7 L3.0 -55.75 3.05 -55.75 4.3 -56.45 4.7 -56.3 4.75 -56.25 4.8 -56.25 4.9 -56.2 5.1 -56.1 4.5 -55.8 1.6 -53.95 1.55 -53.95 1.55 -53.9 1.45 -53.85 2.45 -53.6 Q3.55 -53.25 3.95 -52.2 L4.35 -51.15 4.4 -51.1 4.45 -51.1 4.5 -51.1 4.6 -51.15 Q5.8 -52.4 7.7 -53.45 L7.9 -53.45 7.95 -53.45 8.1 -53.35 8.15 -53.15 8.15 -53.1 8.0 -52.95 Q5.6 -51.6 4.35 -49.9 L4.3 -49.85 Q2.9 -47.9 3.05 -45.5 L3.05 48.1 Q2.5 52.25 0.45 54.95 L0.4 55.0 Q-2.25 58.55 -7.5 59.65 L-7.55 59.7 -7.6 59.7 -8.75 60.1 -9.85 60.4 Q-11.0 60.0 -11.8 59.0 L-12.75 57.35 -12.75 57.3 Q-13.05 56.5 -12.1 55.55 L-11.1 54.9 -11.05 54.9 -11.0 54.85 -10.1 54.65 -10.05 54.65 Q-5.0 53.55 -3.1 50.85 L-3.05 50.8 Q-2.05 49.25 -2.1 47.15 L-2.1 34.35 -2.1 34.25 -2.1 -10.65 -2.1 -17.1 -2.1 -48.2 Q-2.05 -51.25 0.35 -53.6 L0.4 -53.65 0.4 -53.7 2.95 -55.7 M4.8 -56.25 L4.7 -56.2 4.8 -56.25 M0.65 -53.05 L0.6 -53.0 Q-1.4 -50.85 -1.5 -48.2 L-1.5 -43.35 -1.2 -42.9 Q0.0 -41.2 1.85 -41.4 L2.45 -41.4 2.45 -45.5 Q2.3 -48.0 3.8 -50.1 L3.8 -50.15 3.8 -50.2 Q3.75 -52.75 0.8 -53.1 L0.75 -53.1 0.65 -53.05 M2.45 -29.1 L2.45 -40.75 Q-0.15 -40.6 -1.1 -41.95 L-1.2 -42.05 -1.25 -42.05 -1.35 -42.05 -1.4 -42.0 -1.45 -42.0 -1.5 -41.9 -1.5 -31.1 -1.45 -31.05 Q-0.35 -28.5 2.3 -28.95 L2.4 -29.0 2.45 -29.05 2.45 -29.1 M2.4 -28.25 L2.4 -28.3 2.3 -28.35 2.25 -28.35 Q0.1 -28.0 -1.15 -29.4 L-1.2 -29.45 -1.3 -29.5 -1.4 -29.45 -1.45 -29.4 -1.5 -29.3 -1.5 -17.1 Q-1.75 -15.7 -1.55 -14.1 L-1.45 -13.2 Q-0.6 -11.9 0.9 -11.55 L2.4 -12.0 2.45 -17.1 2.45 -28.15 2.4 -28.25 M1.5 -11.0 L1.15 -10.9 Q-0.15 -11.0 -1.35 -12.05 L-1.5 -10.65 -1.5 2.85 Q-0.95 4.25 0.05 4.75 L2.35 4.7 2.4 4.65 2.45 4.55 2.45 -10.65 2.35 -11.3 1.5 -11.0 M2.2 5.35 L-0.2 5.3 -0.2 5.25 -1.15 4.65 -1.2 4.6 -1.3 4.55 -1.4 4.6 -1.45 4.65 -1.5 4.75 -1.5 18.25 -1.3 20.45 0.5 21.7 1.75 21.9 2.35 21.7 2.45 5.55 2.4 5.45 2.4 5.4 2.3 5.35 2.2 5.35 M2.2 22.35 Q0.4 23.3 -1.2 21.4 L-1.5 23.5 -1.5 34.3 Q-1.05 35.6 -0.05 35.8 0.9 36.0 2.35 35.2 L2.4 35.15 2.45 35.05 2.45 23.5 2.2 22.35 M2.25 35.95 L2.15 35.95 Q0.75 36.65 -0.25 36.4 -0.8 36.3 -1.15 35.95 L-1.25 35.9 -1.3 35.9 -1.4 35.95 -1.45 36.0 -1.5 36.1 -1.5 47.1 Q-1.45 49.0 -2.2 50.5 L-2.2 50.55 -2.2 50.6 -2.15 50.7 -2.1 50.75 -2.05 50.8 Q-0.3 51.15 0.3 53.55 L0.35 53.65 0.4 53.7 0.55 53.7 0.6 53.65 0.65 53.6 Q2.0 51.25 2.45 48.0 L2.45 36.1 2.45 36.05 2.4 36.0 2.3 35.95 2.25 35.95 M-2.6 51.35 L-2.7 51.4 -2.75 51.4 Q-4.5 53.7 -8.45 54.9 L-8.5 54.95 -8.55 55.05 -8.55 55.1 -8.5 55.25 -7.6 56.35 Q-6.55 58.1 -6.75 58.45 L-6.8 58.55 -6.8 58.6 -6.75 58.7 -6.7 58.75 -6.65 58.8 -6.55 58.8 -6.5 58.8 Q-2.4 57.65 -0.15 54.8 L-0.1 54.7 -0.1 54.65 Q-0.55 51.55 -2.55 51.35 L-2.6 51.35 M-9.9 55.25 L-10.05 55.25 -10.1 55.25 -10.8 55.45 -10.85 55.45 Q-11.35 55.6 -11.65 56.0 -12.3 56.6 -12.2 57.05 L-12.2 57.15 -12.2 57.2 -11.35 58.65 -10.95 59.15 Q-10.0 60.05 -9.35 59.8 L-8.0 59.25 -7.95 59.2 -7.9 59.15 -7.3 58.2 -7.25 58.15 -7.25 58.1 -7.3 57.95 -7.35 57.95 -8.1 56.65 Q-8.9 55.3 -9.85 55.25 L-9.9 55.25" fill="#91651e" fill-rule="evenodd" stroke="none"/>
    <path d="M7.85 -53.55 L7.9 -53.45 7.9 -53.5 7.95 -53.45 7.9 -53.45 7.7 -53.45 7.85 -53.55" fill="#dd9c5e" fill-rule="evenodd" stroke="none"/>
    <path d="M2.95 -59.15 Q3.6 -58.35 5.0 -57.9 L6.0 -57.6 7.2 -57.45 8.35 -57.4 11.7 -57.9 Q12.75 -58.25 13.05 -58.7 L13.1 -59.0 13.1 -54.55 Q10.8 -52.9 8.2 -53.1 L8.15 -53.1 8.15 -53.15 8.1 -53.35 7.95 -53.45 7.9 -53.5 7.9 -53.45 7.85 -53.55 Q6.65 -55.35 5.1 -56.1 L4.9 -56.2 4.8 -56.25 4.75 -56.25 4.7 -56.3 4.3 -56.45 3.05 -55.75 3.0 -55.75 2.95 -55.7 2.95 -59.15 M8.15 -53.1 L8.2 -53.1 8.15 -53.1" fill="#999999" fill-rule="evenodd" stroke="none"/>
    <path d="M13.1 -59.0 L13.05 -58.7 Q12.75 -58.25 11.7 -57.9 L8.35 -57.4 7.2 -57.45 6.0 -57.6 5.0 -57.9 Q3.6 -58.35 2.95 -59.15 3.05 -59.9 4.75 -60.3 L8.35 -60.7 11.7 -60.25 Q12.9 -59.85 13.05 -59.25 L13.1 -59.2 13.1 -59.05 13.1 -59.0" fill="#cccccc" fill-rule="evenodd" stroke="none"/>
    <path d="M-9.9 55.25 L-9.85 55.25 Q-8.9 55.3 -8.1 56.65 L-7.35 57.95 -7.3 57.95 -7.25 58.1 -7.25 58.15 -7.3 58.2 -7.9 59.15 -7.95 59.2 -8.0 59.25 -9.35 59.8 Q-10.0 60.05 -10.95 59.15 L-11.35 58.65 -12.2 57.2 -12.2 57.15 -12.2 57.05 Q-12.3 56.6 -11.65 56.0 -11.35 55.6 -10.85 55.45 L-10.8 55.45 -10.1 55.25 -10.05 55.25 -9.9 55.25" fill="#c1752b" fill-rule="evenodd" stroke="none"/>
    <path d="M5.1 -56.1 Q6.65 -55.35 7.85 -53.55 L7.7 -53.45 Q5.8 -52.4 4.6 -51.15 L4.5 -51.1 4.45 -51.1 4.4 -51.1 4.35 -51.15 3.95 -52.2 Q3.55 -53.25 2.45 -53.6 L1.45 -53.85 1.55 -53.9 1.55 -53.95 1.6 -53.95 4.5 -55.8 5.1 -56.1 M4.8 -56.25 L4.7 -56.2 4.8 -56.25 M0.65 -53.05 L0.75 -53.1 0.8 -53.1 Q3.75 -52.75 3.8 -50.2 L3.8 -50.15 3.8 -50.1 Q2.3 -48.0 2.45 -45.5 L2.45 -41.4 1.85 -41.4 Q0.0 -41.2 -1.2 -42.9 L-1.5 -43.35 -1.5 -48.2 Q-1.4 -50.85 0.6 -53.0 L0.65 -53.05 M-2.6 51.35 L-2.55 51.35 Q-0.55 51.55 -0.1 54.65 L-0.1 54.7 -0.15 54.8 Q-2.4 57.65 -6.5 58.8 L-6.55 58.8 -6.65 58.8 -6.7 58.75 -6.75 58.7 -6.8 58.6 -6.8 58.55 -6.75 58.45 Q-6.55 58.1 -7.6 56.35 L-8.5 55.25 -8.55 55.1 -8.55 55.05 -8.5 54.95 -8.45 54.9 Q-4.5 53.7 -2.75 51.4 L-2.7 51.4 -2.6 51.35 M2.25 35.95 L2.3 35.95 2.4 36.0 2.45 36.05 2.45 36.1 2.45 48.0 Q2.0 51.25 0.65 53.6 L0.6 53.65 0.55 53.7 0.4 53.7 0.35 53.65 0.3 53.55 Q-0.3 51.15 -2.05 50.8 L-2.1 50.75 -2.15 50.7 -2.2 50.6 -2.2 50.55 -2.2 50.5 Q-1.45 49.0 -1.5 47.1 L-1.5 36.1 -1.45 36.0 -1.4 35.95 -1.3 35.9 -1.25 35.9 -1.15 35.95 Q-0.8 36.3 -0.25 36.4 0.75 36.65 2.15 35.95 L2.25 35.95 M2.2 22.35 L2.45 23.5 2.45 35.05 2.4 35.15 2.35 35.2 Q0.9 36.0 -0.05 35.8 -1.05 35.6 -1.5 34.3 L-1.5 23.5 -1.2 21.4 Q0.4 23.3 2.2 22.35 M2.2 5.35 L2.3 5.35 2.4 5.4 2.4 5.45 2.45 5.55 2.35 21.7 1.75 21.9 0.5 21.7 -1.3 20.45 -1.5 18.25 -1.5 4.75 -1.45 4.65 -1.4 4.6 -1.3 4.55 -1.2 4.6 -1.15 4.65 -0.2 5.25 -0.2 5.3 2.2 5.35 M1.5 -11.0 L2.35 -11.3 2.45 -10.65 2.45 4.55 2.4 4.65 2.35 4.7 0.05 4.75 Q-0.95 4.25 -1.5 2.85 L-1.5 -10.65 -1.35 -12.05 Q-0.15 -11.0 1.15 -10.9 L1.5 -11.0 M2.4 -28.25 L2.45 -28.15 2.45 -17.1 2.4 -12.0 0.9 -11.55 Q-0.6 -11.9 -1.45 -13.2 L-1.55 -14.1 Q-1.75 -15.7 -1.5 -17.1 L-1.5 -29.3 -1.45 -29.4 -1.4 -29.45 -1.3 -29.5 -1.2 -29.45 -1.15 -29.4 Q0.1 -28.0 2.25 -28.35 L2.3 -28.35 2.4 -28.3 2.4 -28.25 M2.45 -29.1 L2.45 -29.05 2.4 -29.0 2.3 -28.95 Q-0.35 -28.5 -1.45 -31.05 L-1.5 -31.1 -1.5 -41.9 -1.45 -42.0 -1.4 -42.0 -1.35 -42.05 -1.25 -42.05 -1.2 -42.05 -1.1 -41.95 Q-0.15 -40.6 2.45 -40.75 L2.45 -29.1" fill="#e0a929" fill-rule="evenodd" stroke="none"/>
    <path d="M2.95 -59.15 L2.95 -55.7 M4.3 -56.45 L4.7 -56.3 4.75 -56.25 4.8 -56.25 4.9 -56.2 5.1 -56.1 Q6.65 -55.35 7.85 -53.55 L7.9 -53.45 M8.15 -53.1 L8.2 -53.1 Q10.8 -52.9 13.1 -54.55 L13.1 -59.0 13.1 -59.05 13.1 -59.2 13.05 -59.25 Q12.9 -59.85 11.7 -60.25 L8.35 -60.7 4.75 -60.3 Q3.05 -59.9 2.95 -59.15 Z" fill="none" stroke="#666666" stroke-linecap="round" stroke-linejoin="round" stroke-width="0.05"/>
  </g>
</svg>
