<?xml version="1.0" encoding="UTF-8" standalone="no"?>
<svg xmlns:xlink="http://www.w3.org/1999/xlink" height="26.55px" width="46.4px" xmlns="http://www.w3.org/2000/svg">
  <g transform="matrix(1.0, 0.0, 0.0, 1.0, 23.15, 13.25)">
    <path d="M3.55 -9.5 L3.45 -9.35 4.25 -9.3 10.5 -8.5 10.65 -8.45 13.35 -7.7 13.45 -7.65 13.5 -7.65 Q16.25 -6.7 18.7 -5.2 L18.7 -5.25 18.75 -5.2 18.8 -5.2 21.6 -2.85 21.65 -2.8 Q23.35 -0.9 23.25 1.9 L23.25 1.95 Q23.2 4.05 21.95 5.85 L21.85 5.9 Q20.15 8.1 17.85 9.4 L17.8 9.4 14.3 11.0 14.25 11.05 Q10.05 12.6 5.75 13.05 1.25 13.5 -3.3 13.2 L-3.4 13.2 Q-9.15 13.0 -14.55 11.05 L-14.65 11.0 Q-17.4 9.85 -19.75 8.1 -22.25 6.25 -22.9 3.75 -23.85 -0.05 -21.25 -2.7 -17.45 -6.65 -11.8 -8.0 L-11.7 -8.05 Q-9.5 -8.65 -7.35 -9.7 L-7.2 -9.75 Q-5.15 -10.85 -3.55 -12.65 L-3.55 -12.7 Q-3.15 -13.25 -2.3 -13.25 L-0.75 -13.25 -0.7 -13.25 Q1.3 -13.2 2.55 -12.2 L2.65 -12.05 3.45 -11.2 3.75 -10.35 3.55 -9.5 M1.5 -0.45 L-1.2 0.0 Q-2.15 0.3 -2.85 0.95 L-3.05 1.05 -3.05 1.1 -3.55 1.4 -3.55 1.45 Q-4.3 2.4 -5.55 2.95 L-5.0 3.05 -4.9 3.1 -4.85 3.1 -0.25 3.7 6.4 2.75 8.7 2.05 8.7 2.0 8.85 1.95 9.15 1.85 9.2 1.7 9.05 1.3 9.0 1.25 Q6.25 -0.5 3.0 -0.7 L1.5 -0.45" fill="#000000" fill-rule="evenodd" stroke="none"/>
    <path d="M-7.95 -7.8 L-7.8 -7.85 Q-5.6 -8.9 -4.05 -10.1 L-2.45 -11.7 -2.4 -11.7 -2.3 -11.75 -2.2 -11.8 Q0.9 -11.8 1.65 -11.05 L2.25 -10.3 2.2 -10.15 0.85 -8.05 1.85 -8.05 10.0 -7.1 10.05 -7.1 10.1 -7.05 10.15 -7.05 Q13.0 -6.4 15.45 -5.25 L15.5 -5.25 15.55 -5.25 Q18.2 -4.0 19.7 -2.6 L19.8 -2.55 19.8 -2.5 20.4 -1.85 20.45 -1.85 20.5 -1.8 Q21.85 -0.15 21.8 1.85 21.75 3.45 20.8 4.95 L20.75 5.0 Q19.15 7.15 15.25 8.95 L15.15 9.0 13.9 9.5 13.8 9.55 13.75 9.6 13.7 9.6 Q7.8 11.8 -0.1 11.8 L-0.2 11.8 -3.25 11.7 -3.3 11.7 -3.4 11.7 Q-10.25 11.3 -15.4 9.0 L-15.5 8.95 -17.05 8.15 -17.3 8.0 Q-20.9 5.85 -21.55 3.35 L-21.75 1.85 Q-21.7 0.45 -20.8 -1.05 L-19.55 -2.5 -18.25 -3.5 -18.3 -3.45 -18.25 -3.55 -17.05 -4.3 -15.15 -5.25 -15.1 -5.25 -15.05 -5.25 -15.05 -5.3 -14.65 -5.5 -14.55 -5.5 Q-13.0 -6.2 -11.3 -6.6 L-11.3 -6.65 -11.0 -6.75 -7.95 -7.85 -7.95 -7.8 M10.0 -6.45 L9.9 -6.4 9.9 -6.45 Q8.3 -5.55 8.9 -3.9 L11.5 -3.05 12.2 -2.75 Q14.4 -4.55 17.0 -3.85 L15.25 -4.75 15.2 -4.8 Q12.8 -5.85 10.05 -6.45 L10.0 -6.45 M1.35 -10.45 Q0.4 -11.3 -2.05 -11.2 L-3.65 -9.6 Q-5.0 -8.6 -6.8 -7.7 L-6.2 -7.35 Q-5.8 -7.0 -5.8 -6.4 L-3.85 -6.95 -3.75 -6.95 -3.7 -6.95 -3.7 -7.0 -1.6 -7.6 -1.5 -7.6 -1.45 -7.65 -0.75 -7.85 -0.25 -7.95 -0.1 -8.1 Q1.15 -9.05 1.5 -10.35 L1.35 -10.45 M-1.85 -6.2 Q-1.5 -5.7 -1.55 -4.8 L-0.75 -4.9 -0.1 -4.9 3.2 -4.8 3.25 -4.8 4.45 -4.7 8.2 -4.05 Q7.75 -5.7 9.15 -6.65 L1.85 -7.45 0.35 -7.5 0.0 -7.4 -0.05 -7.4 -1.25 -7.05 -1.3 -7.05 -1.4 -7.0 -2.45 -6.7 -1.9 -6.2 -1.85 -6.2 M-6.7 -2.25 Q-5.8 -2.15 -5.2 -1.65 L-5.15 -1.6 Q-4.65 -1.15 -4.5 -0.65 L-4.45 -0.5 -3.8 -1.05 Q-2.75 -1.9 -1.55 -2.1 L-0.15 -2.35 2.75 -2.8 Q2.95 -3.65 3.4 -3.95 3.85 -4.3 2.75 -4.3 L0.6 -4.3 -0.75 -4.3 -1.7 -4.2 -1.75 -4.2 -2.0 -4.15 -2.05 -4.15 -3.65 -3.65 -3.7 -3.6 -6.7 -2.3 -6.75 -2.25 -6.7 -2.25 M-6.75 -2.25 L-6.8 -2.25 -6.75 -2.25 M3.6 -2.75 L7.9 -1.75 Q8.9 -1.4 9.55 -0.9 10.9 -0.1 11.25 0.85 13.5 -0.8 15.8 1.8 L15.8 1.7 15.8 1.65 Q15.8 -0.5 12.15 -2.1 L12.1 -2.1 12.0 -2.2 11.3 -2.45 8.7 -3.3 8.65 -3.35 8.6 -3.35 4.55 -4.05 4.15 -3.95 Q3.75 -3.75 3.6 -2.75 M-9.5 -0.5 L-9.4 -0.8 Q-11.0 0.3 -11.15 1.5 L-11.15 1.55 -11.15 1.65 Q-11.2 3.2 -8.8 3.75 L-5.4 4.5 -5.3 4.55 -3.8 4.9 -0.1 5.2 1.55 5.0 6.8 4.2 Q8.8 3.8 9.85 3.25 10.75 2.7 10.75 1.65 L10.8 1.55 10.75 1.45 Q10.6 0.4 9.25 -0.4 L7.7 -1.15 3.0 -2.25 2.85 -2.2 -0.05 -1.75 -1.45 -1.5 Q-2.45 -1.3 -3.4 -0.55 L-4.2 0.05 -4.8 0.45 -5.2 0.8 Q-5.75 1.4 -6.6 1.7 L-6.65 1.7 -8.5 1.5 -8.55 1.45 Q-9.6 0.95 -9.6 0.0 L-9.45 -0.5 -9.5 -0.5 M19.4 -2.05 Q15.7 -4.55 12.85 -2.45 16.5 -0.7 16.4 1.7 L16.4 1.75 16.25 2.55 16.25 2.6 Q15.6 4.75 11.55 6.4 12.25 6.5 12.85 7.05 13.45 7.6 13.65 8.75 L14.95 8.4 15.05 8.4 Q18.75 6.7 20.25 4.65 L20.3 4.55 Q21.15 3.25 21.2 1.85 21.25 0.05 19.95 -1.45 L19.95 -1.5 19.4 -2.05 M10.15 3.75 L7.65 4.65 Q8.55 5.45 8.3 6.8 L9.1 6.55 11.1 5.9 Q14.85 4.45 15.6 2.55 13.45 -0.15 11.4 1.55 L11.35 1.6 11.35 1.65 Q11.35 3.0 10.15 3.75 M-3.2 11.1 L-0.2 11.2 -0.1 11.2 Q7.65 11.2 13.0 9.2 12.85 8.1 12.2 7.4 11.55 6.65 10.1 7.0 L7.8 7.5 2.9 8.2 -0.1 8.35 -0.35 8.35 -2.25 8.3 -2.3 8.3 Q-3.6 8.65 -3.85 9.35 -4.05 10.0 -3.25 11.05 L-3.25 11.1 -3.2 11.1 M6.9 4.8 L1.65 5.6 -0.1 5.8 -3.95 5.5 -4.0 5.5 Q-4.4 5.3 -5.25 5.05 L-7.15 4.95 Q-8.15 5.05 -8.9 6.8 L-2.75 7.65 -2.55 7.75 -2.5 7.7 -2.45 7.7 -2.3 7.75 -2.25 7.7 -0.35 7.75 -0.1 7.75 2.9 7.6 7.55 6.95 Q8.05 5.55 6.95 4.85 L6.9 4.8 M-17.9 -3.0 L-19.15 -2.1 -20.3 -0.75 Q-21.1 0.55 -21.15 1.85 L-20.95 3.15 Q-20.4 5.25 -17.65 7.0 -18.05 5.1 -17.05 4.65 L-15.45 4.45 -16.3 3.4 Q-16.8 2.6 -16.75 1.7 L-16.7 1.0 -16.7 0.95 Q-16.45 -0.7 -15.0 -2.1 -15.85 -3.35 -16.9 -3.35 L-17.75 -3.1 -17.85 -3.05 -17.9 -3.0 M-11.1 -6.05 L-14.45 -4.9 -14.85 -4.75 -14.9 -4.7 -16.5 -3.9 Q-15.45 -3.8 -14.6 -2.5 L-13.9 -3.05 -13.85 -3.1 Q-12.0 -4.45 -6.45 -6.2 -6.4 -6.7 -6.6 -6.95 L-7.75 -7.25 -10.8 -6.15 -11.1 -6.05 M-14.45 -1.8 Q-15.6 -0.75 -15.95 0.45 L-14.55 0.1 Q-13.1 -0.05 -11.65 0.95 -11.25 -0.3 -9.55 -1.4 L-9.5 -1.45 -8.95 -1.8 -8.75 -1.85 -8.65 -1.95 Q-5.7 -3.55 -3.9 -4.2 L-3.8 -4.2 -2.2 -4.75 Q-2.1 -5.45 -2.35 -5.85 -2.75 -6.3 -3.55 -6.4 L-3.65 -6.35 -6.1 -5.65 Q-11.65 -3.9 -13.45 -2.6 L-13.55 -2.55 -14.35 -1.95 -14.4 -1.85 -14.45 -1.8 M-8.95 -0.3 L-9.0 0.0 Q-9.0 0.6 -8.35 0.95 L-8.3 0.95 -8.25 0.95 -6.8 1.1 Q-6.05 0.9 -5.6 0.4 L-5.0 -0.15 -5.1 -0.45 -5.5 -1.1 -5.6 -1.15 Q-6.1 -1.55 -6.75 -1.65 L-6.8 -1.65 -7.0 -1.65 Q-7.85 -1.65 -8.4 -1.15 L-8.55 -1.1 -8.9 -0.4 -8.9 -0.35 -8.95 -0.3 M-13.9 4.8 L-13.8 4.85 -11.7 5.9 -9.55 6.6 Q-9.3 5.4 -8.65 5.05 L-7.7 4.55 -8.9 4.35 Q-11.9 3.7 -11.75 1.65 L-11.75 1.6 -11.8 1.6 Q-13.15 0.55 -14.5 0.7 L-14.55 0.7 -16.1 1.2 -16.15 1.7 -15.8 3.1 Q-15.25 4.0 -13.9 4.8 L-13.85 4.85 -13.9 4.8 M-8.5 7.5 L-11.9 6.5 -14.05 5.4 -14.1 5.4 -16.75 5.15 Q-17.45 5.6 -16.9 7.5 L-16.9 7.55 -16.75 7.65 -15.2 8.45 -15.15 8.5 Q-10.35 10.6 -4.0 11.1 -4.75 9.95 -4.45 9.15 -4.25 8.6 -3.6 8.2 L-8.4 7.5 -8.5 7.5" fill="#91651e" fill-rule="evenodd" stroke="none"/>
    <path d="M-6.7 -2.3 L-6.7 -2.25 -6.75 -2.25 -6.7 -2.3 M-3.25 11.05 L-3.2 11.1 -3.25 11.1 -3.25 11.05 M-17.85 -3.05 L-17.9 -3.0 -17.85 -3.05" fill="#dd9c5e" fill-rule="evenodd" stroke="none"/>
    <path d="M-7.95 -7.85 L-7.95 -7.8 -7.95 -7.85 M-1.9 -6.2 L-1.85 -6.2 -1.9 -6.2 M-9.45 -0.5 L-9.5 -0.5 -9.45 -0.5" fill="#6d5316" fill-rule="evenodd" stroke="none"/>
    <path d="M-8.95 -0.3 L-8.9 -0.35 -8.9 -0.4 -8.55 -1.1 -8.4 -1.15 Q-7.85 -1.65 -7.0 -1.65 L-6.8 -1.65 -6.75 -1.65 Q-6.1 -1.55 -5.6 -1.15 L-5.5 -1.1 -5.1 -0.45 -5.0 -0.15 -5.6 0.4 Q-6.05 0.9 -6.8 1.1 L-8.25 0.95 -8.3 0.95 -8.35 0.95 Q-9.0 0.6 -9.0 0.0 L-8.95 -0.3" fill="#c1752b" fill-rule="evenodd" stroke="none"/>
    <path d="M10.0 -6.45 L10.05 -6.45 Q12.8 -5.85 15.2 -4.8 L15.25 -4.75 17.0 -3.85 Q14.4 -4.55 12.2 -2.75 L11.5 -3.05 8.9 -3.9 Q8.3 -5.55 9.9 -6.45 L9.9 -6.4 10.0 -6.45 M1.35 -10.45 L1.5 -10.35 Q1.15 -9.05 -0.1 -8.1 L-0.25 -7.95 -0.75 -7.85 -1.45 -7.65 -1.5 -7.6 -1.6 -7.6 -3.7 -7.0 -3.7 -6.95 -3.75 -6.95 -3.85 -6.95 -5.8 -6.4 Q-5.8 -7.0 -6.2 -7.35 L-6.8 -7.7 Q-5.0 -8.6 -3.65 -9.6 L-2.05 -11.2 Q0.4 -11.3 1.35 -10.45 M-1.9 -6.2 L-2.45 -6.7 -1.4 -7.0 -1.3 -7.05 -1.25 -7.05 -0.05 -7.4 0.0 -7.4 0.35 -7.5 1.85 -7.45 9.15 -6.65 Q7.75 -5.7 8.2 -4.05 L4.45 -4.7 3.25 -4.8 3.2 -4.8 -0.1 -4.9 -0.75 -4.9 -1.55 -4.8 Q-1.5 -5.7 -1.85 -6.2 L-1.9 -6.2 M-6.7 -2.3 L-3.7 -3.6 -3.65 -3.65 -2.05 -4.15 -2.0 -4.15 -1.75 -4.2 -1.7 -4.2 -0.75 -4.3 0.6 -4.3 2.75 -4.3 Q3.85 -4.3 3.4 -3.95 2.95 -3.65 2.75 -2.8 L-0.15 -2.35 -1.55 -2.1 Q-2.75 -1.9 -3.8 -1.05 L-4.45 -0.5 -4.5 -0.65 Q-4.65 -1.15 -5.15 -1.6 L-5.2 -1.65 Q-5.8 -2.15 -6.7 -2.25 L-6.7 -2.3 M3.6 -2.75 Q3.75 -3.75 4.15 -3.95 L4.55 -4.05 8.6 -3.35 8.65 -3.35 8.7 -3.3 11.3 -2.45 12.0 -2.2 12.1 -2.1 12.15 -2.1 Q15.8 -0.5 15.8 1.65 L15.8 1.7 15.8 1.8 Q13.5 -0.8 11.25 0.85 10.9 -0.1 9.55 -0.9 8.9 -1.4 7.9 -1.75 L3.6 -2.75 M-3.25 11.05 Q-4.05 10.0 -3.85 9.35 -3.6 8.65 -2.3 8.3 L-2.25 8.3 -0.35 8.35 -0.1 8.35 2.9 8.2 7.8 7.5 10.1 7.0 Q11.55 6.65 12.2 7.4 12.85 8.1 13.0 9.2 7.65 11.2 -0.1 11.2 L-0.2 11.2 -3.2 11.1 -3.25 11.05 M10.15 3.75 Q11.35 3.0 11.35 1.65 L11.35 1.6 11.4 1.55 Q13.45 -0.15 15.6 2.55 14.85 4.45 11.1 5.9 L9.1 6.55 8.3 6.8 Q8.55 5.45 7.65 4.65 L10.15 3.75 M19.4 -2.05 L19.95 -1.5 19.95 -1.45 Q21.25 0.05 21.2 1.85 21.15 3.25 20.3 4.55 L20.25 4.65 Q18.75 6.7 15.05 8.4 L14.95 8.4 13.65 8.75 Q13.45 7.6 12.85 7.05 12.25 6.5 11.55 6.4 15.6 4.75 16.25 2.6 L16.25 2.55 16.4 1.75 16.4 1.7 Q16.5 -0.7 12.85 -2.45 15.7 -4.55 19.4 -2.05 M6.9 4.8 L6.95 4.85 Q8.05 5.55 7.55 6.95 L2.9 7.6 -0.1 7.75 -0.35 7.75 -2.25 7.7 -2.3 7.75 -2.45 7.7 -2.5 7.7 -2.55 7.75 -2.75 7.65 -8.9 6.8 Q-8.15 5.05 -7.15 4.95 L-5.25 5.05 Q-4.4 5.3 -4.0 5.5 L-3.95 5.5 -0.1 5.8 1.65 5.6 6.9 4.8 M-17.9 -3.0 L-17.85 -3.05 -17.75 -3.1 -16.9 -3.35 Q-15.85 -3.35 -15.0 -2.1 -16.45 -0.7 -16.7 0.95 L-16.7 1.0 -16.75 1.7 Q-16.8 2.6 -16.3 3.4 L-15.45 4.45 -17.05 4.65 Q-18.05 5.1 -17.65 7.0 -20.4 5.25 -20.95 3.15 L-21.15 1.85 Q-21.1 0.55 -20.3 -0.75 L-19.15 -2.1 -17.9 -3.0 M-14.45 -1.8 L-14.4 -1.85 -14.35 -1.95 -13.55 -2.55 -13.45 -2.6 Q-11.65 -3.9 -6.1 -5.65 L-3.65 -6.35 -3.55 -6.4 Q-2.75 -6.3 -2.35 -5.85 -2.1 -5.45 -2.2 -4.75 L-3.8 -4.2 -3.9 -4.2 Q-5.7 -3.55 -8.65 -1.95 L-8.75 -1.85 -8.95 -1.8 -9.5 -1.45 -9.55 -1.4 Q-11.25 -0.3 -11.65 0.95 -13.1 -0.05 -14.55 0.1 L-15.95 0.45 Q-15.6 -0.75 -14.45 -1.8 M-11.1 -6.05 L-10.8 -6.15 -7.75 -7.25 -6.6 -6.95 Q-6.4 -6.7 -6.45 -6.2 -12.0 -4.45 -13.85 -3.1 L-13.9 -3.05 -14.6 -2.5 Q-15.45 -3.8 -16.5 -3.9 L-14.9 -4.7 -14.85 -4.75 -14.45 -4.9 -11.1 -6.05 M-13.9 4.8 Q-15.25 4.0 -15.8 3.1 L-16.15 1.7 -16.1 1.2 -14.55 0.7 -14.5 0.7 Q-13.15 0.55 -11.8 1.6 L-11.75 1.6 -11.75 1.65 Q-11.9 3.7 -8.9 4.35 L-7.7 4.55 -8.65 5.05 Q-9.3 5.4 -9.55 6.6 L-11.7 5.9 -13.8 4.85 -13.9 4.8 M-8.5 7.5 L-8.4 7.5 -3.6 8.2 Q-4.25 8.6 -4.45 9.15 -4.75 9.95 -4.0 11.1 -10.35 10.6 -15.15 8.5 L-15.2 8.45 -16.75 7.65 -16.9 7.55 -16.9 7.5 Q-17.45 5.6 -16.75 5.15 L-14.1 5.4 -14.05 5.4 -11.9 6.5 -8.5 7.5" fill="#e0a929" fill-rule="evenodd" stroke="none"/>
  </g>
</svg>
