<?xml version="1.0" encoding="UTF-8" standalone="no"?>
<svg xmlns:xlink="http://www.w3.org/1999/xlink" height="299.15px" width="411.4px" xmlns="http://www.w3.org/2000/svg">
  <g transform="matrix(1.0, 0.0, 0.0, 1.0, 276.3, -51.6)">
    <path d="M135.05 51.7 L135.1 51.9 132.15 350.3 132.0 350.6 131.8 350.75 -266.2 343.85 -266.45 343.75 -266.55 343.55 -271.4 65.35 -271.35 65.05 -271.05 64.95 134.75 51.6 135.05 51.7" fill="#000000" fill-opacity="0.43137255" fill-rule="evenodd" stroke="none"/>
    <path d="M129.55 52.75 L126.25 336.2 -271.7 330.05 -276.3 65.85 129.55 52.75" fill="#062942" fill-rule="evenodd" stroke="none"/>
    <path d="M129.55 52.75 L126.25 336.2 -271.7 330.05" fill="none" stroke="#07253a" stroke-linecap="round" stroke-linejoin="round" stroke-width="0.05"/>
    <path d="M-271.7 330.05 L-276.3 65.85 129.55 52.75 Z" fill="none" stroke="#1b5e76" stroke-linecap="round" stroke-linejoin="round" stroke-width="0.05"/>
    <path d="M123.6 58.9 L120.7 328.65 -266.0 323.25 -270.1 71.45 123.6 58.9" fill="url(#gradient0)" fill-rule="evenodd" stroke="none"/>
    <path d="M120.7 328.65 L-266.0 323.25" fill="none" stroke="#75c2df" stroke-linecap="round" stroke-linejoin="round" stroke-width="0.05"/>
    <path d="M-266.0 323.25 L-270.1 71.45 123.6 58.9" fill="none" stroke="#03131b" stroke-linecap="round" stroke-linejoin="round" stroke-width="0.05"/>
    <path d="M123.6 58.9 L120.7 328.65 Z" fill="none" stroke="#3eaad2" stroke-linecap="round" stroke-linejoin="round" stroke-width="0.05"/>
  </g>
  <defs>
    <linearGradient gradientTransform="matrix(-0.0098, -0.1149, -0.2333, 0.025, -109.6, 134.3)" gradientUnits="userSpaceOnUse" id="gradient0" spreadMethod="pad" x1="-819.2" x2="819.2">
      <stop offset="0.0" stop-color="#093d72"/>
      <stop offset="1.0" stop-color="#55b6e1"/>
    </linearGradient>
  </defs>
</svg>
