<?xml version="1.0" encoding="UTF-8" standalone="no"?>
<svg xmlns:xlink="http://www.w3.org/1999/xlink" height="135.35px" width="154.8px" xmlns="http://www.w3.org/2000/svg">
  <g transform="matrix(1.0, 0.0, 0.0, 1.0, 77.4, 62.55)">
    <path d="M46.35 -62.55 L70.85 -52.8 48.3 -44.6 77.4 -23.5 44.35 -14.7 59.75 3.85 38.95 -0.45 72.2 72.8 15.25 14.4 6.15 47.45 -11.65 10.6 -44.6 50.1 -44.6 -3.55 -70.2 15.25 -56.55 -31.5 -77.4 -31.5 -58.3 -51.15 -75.05 -56.3 -61.7 -60.35 Q-61.5 -60.85 -60.05 -61.55 -58.65 -62.25 -56.95 -61.55 -54.6 -61.1 -52.6 -62.15 L-52.1 -62.55 46.35 -62.55" fill="#000000" fill-opacity="0.3137255" fill-rule="evenodd" stroke="none"/>
  </g>
</svg>
