<?xml version="1.0" encoding="UTF-8" standalone="no"?>
<svg xmlns:xlink="http://www.w3.org/1999/xlink" height="17.65px" width="16.65px" xmlns="http://www.w3.org/2000/svg">
  <g transform="matrix(1.0, 0.0, 0.0, 1.0, 8.3, 8.55)">
    <path d="M6.1 -3.15 Q6.9 -2.85 7.45 -1.95 L8.15 -0.15 8.35 1.55 Q8.45 3.7 7.0 5.6 4.9 8.5 1.7 9.1 -0.6 9.25 -2.7 8.1 -5.6 6.45 -7.15 3.1 -8.5 0.2 -8.25 -3.0 L-7.3 -4.45 -5.8 -7.45 -5.4 -8.55 -0.55 -7.85 -1.2 -7.7 -4.1 -2.3 -4.6 -0.45 Q-4.85 2.9 -2.7 5.45 L-2.15 5.6 Q-1.3 6.0 -0.5 6.55 2.0 7.65 4.15 5.95 L4.7 6.0 Q6.45 4.35 6.95 2.45 7.45 0.5 5.95 -1.85 L5.15 -1.9 4.65 1.65 4.15 2.1 3.55 2.15 2.4 2.6 1.7 2.45 0.6 0.7 0.3 -0.5 Q0.15 -1.8 1.0 -2.8 1.75 -3.75 3.0 -4.4 L6.1 -3.15" fill="#faa52a" fill-rule="evenodd" stroke="none"/>
  </g>
</svg>
