<?xml version="1.0" encoding="UTF-8" standalone="no"?>
<svg xmlns:xlink="http://www.w3.org/1999/xlink" height="30.2px" width="20.35px" xmlns="http://www.w3.org/2000/svg">
  <g transform="matrix(1.0, 0.0, 0.0, 1.0, 10.35, 15.1)">
    <path d="M6.2 2.2 L6.2 2.15 6.2 2.2" fill="#ffdfc8" fill-rule="evenodd" stroke="none"/>
    <path d="M-4.7 -10.7 L-4.65 -10.7 -4.7 -10.6 -4.7 -10.7" fill="#eebf5a" fill-rule="evenodd" stroke="none"/>
    <path d="M2.9 -10.2 L3.05 -9.6 3.5 -9.45 Q5.0 -8.15 2.8 -6.95 7.45 -3.95 6.2 2.15 L6.2 2.2 6.15 2.25 Q3.1 4.3 0.1 3.5 -1.3 2.6 -3.7 2.2 L-3.4 3.25 -3.0 3.8 -1.15 4.7 -3.0 3.8 -3.4 3.25 -3.7 2.2 Q-1.3 2.6 0.1 3.5 3.1 4.3 6.15 2.25 5.1 6.35 -0.9 4.9 L-1.15 4.7 Q0.0 6.6 0.4 8.2 L-3.0 8.4 0.4 8.2 Q1.05 11.1 -0.8 13.15 L-3.2 13.0 -3.55 12.9 Q-3.15 11.0 -3.0 8.4 -3.15 11.0 -3.55 12.9 L-3.2 13.0 -0.8 13.15 -0.55 13.15 Q0.5 14.35 -0.5 15.1 L-1.7 15.05 Q-5.05 14.6 -6.8 13.5 -7.95 12.25 -6.75 11.45 L-6.75 11.2 -6.75 8.65 Q-6.6 6.6 -5.85 4.7 -7.4 4.1 -7.6 3.2 L-7.65 1.7 -7.8 1.55 -9.15 -0.3 Q-9.7 -2.4 -9.25 -4.25 L-6.5 -4.45 -6.65 -8.55 -5.95 -9.25 -5.8 -9.85 Q-5.5 -10.35 -4.7 -10.6 L-4.8 -9.85 -4.8 -9.8 -4.8 -9.75 -4.7 -9.6 Q-3.2 -6.4 0.4 -8.85 L2.9 -10.2 M3.3 -8.75 L3.05 -9.6 3.3 -8.75 M-3.85 -7.35 L-5.7 -7.75 -3.85 -7.35 M-3.75 -6.15 Q-5.15 -0.9 -3.7 2.2 L-6.2 2.45 -7.65 1.7 -6.2 2.45 -3.7 2.2 Q-5.15 -0.9 -3.75 -6.15 M-3.0 8.4 L-3.0 3.8 Q-4.75 3.7 -5.85 4.7 -4.75 3.7 -3.0 3.8 L-3.0 8.4 -6.75 8.65 -3.0 8.4 M-3.55 12.9 Q-5.75 12.3 -6.75 11.45 -5.75 12.3 -3.55 12.9 M1.0 -6.25 L-1.9 -6.9 1.0 -6.25" fill="#a56c5f" fill-rule="evenodd" stroke="none"/>
    <path d="M-4.65 -10.7 Q-4.3 -13.0 -4.75 -14.7 -0.15 -15.55 2.95 -14.65 L2.75 -13.25 2.75 -13.0 Q2.65 -11.55 2.9 -10.2 L0.4 -8.85 Q-3.2 -6.4 -4.7 -9.6 L-4.8 -9.75 -4.8 -9.8 -4.8 -9.85 -4.7 -10.6 -4.65 -10.7 M3.5 -9.45 L6.1 -8.3 6.5 -8.05 7.05 -7.75 7.4 0.1 8.15 0.05 10.0 -0.05 Q9.2 4.0 6.65 7.35 L6.55 7.8 Q6.1 9.95 6.75 11.65 L6.8 11.85 Q7.05 12.45 6.85 13.45 4.4 15.1 -0.5 15.1 0.5 14.35 -0.55 13.15 L-0.8 13.15 Q1.05 11.1 0.4 8.2 0.0 6.6 -1.15 4.7 L-0.9 4.9 Q5.1 6.35 6.15 2.25 L6.2 2.2 6.2 2.15 Q7.45 -3.95 2.8 -6.95 5.0 -8.15 3.5 -9.45 M-6.8 13.5 L-7.9 12.55 -7.55 10.35 -7.1 8.7 -7.0 7.85 -6.9 6.9 Q-7.55 5.25 -7.6 3.2 -7.4 4.1 -5.85 4.7 -6.6 5.45 -6.9 6.9 -6.6 5.45 -5.85 4.7 -6.6 6.6 -6.75 8.65 L-7.1 8.7 -6.75 8.65 -6.75 11.2 -6.75 11.45 -6.9 11.3 -7.55 10.35 -6.9 11.3 -6.75 11.45 Q-7.95 12.25 -6.8 13.5 M-9.15 -0.3 Q-10.3 -2.2 -10.35 -4.2 L-9.25 -4.25 Q-9.7 -2.4 -9.15 -0.3 M-6.65 -8.55 L-6.75 -10.45 -5.75 -10.6 -4.7 -10.7 -4.7 -10.6 Q-5.5 -10.35 -5.8 -9.85 L-5.95 -9.25 -6.65 -8.55 M8.15 0.05 L6.2 2.15 8.15 0.05 M1.95 8.1 L0.4 8.2 1.95 8.1 1.55 7.55 Q0.5 5.9 -0.9 4.9 0.5 5.9 1.55 7.55 L1.95 8.1 Q3.45 9.75 6.05 7.85 L6.55 7.8 6.05 7.85 6.65 7.35 6.05 7.85 Q3.45 9.75 1.95 8.1 L6.05 7.85 1.95 8.1 M6.8 11.85 Q5.0 13.25 -0.55 13.15 5.0 13.25 6.8 11.85" fill="#784d43" fill-rule="evenodd" stroke="none"/>
    <path d="M-4.65 -10.7 Q-4.3 -13.0 -4.75 -14.7 -0.15 -15.55 2.95 -14.65 L2.75 -13.25 2.75 -13.0 Q2.65 -11.55 2.9 -10.2 L3.05 -9.6 3.5 -9.45 6.1 -8.3 6.5 -8.05 7.05 -7.75 M10.0 -0.05 Q9.2 4.0 6.65 7.35 L6.55 7.8 Q6.1 9.95 6.75 11.65 L6.8 11.85 Q7.05 12.45 6.85 13.45 4.4 15.1 -0.5 15.1 L-1.7 15.05 Q-5.05 14.6 -6.8 13.5 L-7.9 12.55 -7.55 10.35 -7.1 8.7 -7.0 7.85 -6.9 6.9 Q-7.55 5.25 -7.6 3.2 L-7.65 1.7 -7.8 1.55 -9.15 -0.3 Q-10.3 -2.2 -10.35 -4.2 M-6.75 -10.45 L-5.75 -10.6 -4.7 -10.7 -4.65 -10.7 -4.7 -10.6 -4.8 -9.85 -4.8 -9.8 -4.8 -9.75 M3.05 -9.6 L3.3 -8.75 M-5.7 -7.75 L-3.85 -7.35 M6.15 2.25 Q3.1 4.3 0.1 3.5 -1.3 2.6 -3.7 2.2 L-3.4 3.25 -3.0 3.8 -1.15 4.7 -0.9 4.9 Q0.5 5.9 1.55 7.55 L1.95 8.1 Q3.45 9.75 6.05 7.85 L6.65 7.35 M6.15 2.25 L6.2 2.2 6.2 2.15 8.15 0.05 M-7.65 1.7 L-6.2 2.45 -3.7 2.2 Q-5.15 -0.9 -3.75 -6.15 M-6.9 6.9 Q-6.6 5.45 -5.85 4.7 -4.75 3.7 -3.0 3.8 L-3.0 8.4 Q-3.15 11.0 -3.55 12.9 L-3.2 13.0 -0.8 13.15 -0.55 13.15 Q5.0 13.25 6.8 11.85 M-7.55 10.35 L-6.9 11.3 -6.75 11.45 Q-5.75 12.3 -3.55 12.9 M-1.9 -6.9 L1.0 -6.25" fill="none" stroke="#68413c" stroke-linecap="round" stroke-linejoin="round" stroke-width="0.05"/>
  </g>
</svg>
