<?xml version="1.0" encoding="UTF-8" standalone="no"?>
<svg xmlns:xlink="http://www.w3.org/1999/xlink" height="16.2px" width="12.1px" xmlns="http://www.w3.org/2000/svg">
  <g transform="matrix(1.0, 0.0, 0.0, 1.0, 6.05, 8.1)">
    <path d="M5.4 0.55 L5.4 0.7 5.35 0.7 5.4 0.55 5.4 0.5 5.45 0.4 5.4 0.55 M5.45 0.35 L5.45 0.4 5.45 0.35" fill="#eebf5a" fill-rule="evenodd" stroke="none"/>
    <path d="M5.45 -3.95 Q5.6 -2.7 4.1 -1.45 5.4 -1.3 5.45 0.35 L5.5 0.25 5.7 -0.5 Q6.3 -0.65 5.85 0.95 L5.4 0.7 5.4 0.55 5.45 0.4 5.4 0.5 5.4 0.55 5.35 0.7 4.2 5.3 Q2.3 7.0 0.05 8.1 L0.0 8.1 -0.25 8.05 -0.3 8.05 Q-2.7 6.7 -4.05 5.2 L-5.15 0.35 Q-5.0 -1.95 -3.75 -2.45 -5.55 -3.5 -4.75 -5.3 L-3.85 -6.4 Q-2.2 -8.0 0.05 -8.1 2.2 -8.0 3.85 -6.4 4.95 -5.3 5.45 -3.95 M-5.9 0.7 Q-6.25 -0.65 -5.65 -0.5 L-5.4 0.45 -5.9 0.7 M5.45 0.4 L5.45 0.35 5.45 0.4 M-0.5 5.1 Q-0.4 5.35 0.0 5.4 L0.5 5.15 -0.5 5.1 M-1.9 5.6 Q-1.2 6.05 0.05 6.15 1.25 6.05 1.95 5.6 1.25 6.05 0.05 6.15 -1.2 6.05 -1.9 5.6 M4.2 3.0 Q3.95 0.4 2.25 0.95 1.8 1.9 1.75 3.25 L4.2 3.0 M-1.75 3.25 Q-1.8 1.9 -2.2 0.95 -3.95 0.4 -4.2 3.0 L-1.75 3.25" fill="#d5a480" fill-rule="evenodd" stroke="none"/>
    <path d="M5.45 -3.95 Q5.8 -2.95 5.8 -1.75 L5.7 -0.5 5.5 0.25 5.45 0.35 Q5.4 -1.3 4.1 -1.45 5.6 -2.7 5.45 -3.95 M5.85 0.95 L5.8 1.05 Q5.6 3.25 5.2 3.1 L4.65 5.5 Q2.2 7.85 0.05 8.1 2.3 7.0 4.2 5.3 L5.35 0.7 5.4 0.7 5.85 0.95 M-0.3 8.05 Q-2.35 7.7 -4.75 5.25 L-5.2 3.1 Q-5.6 3.25 -5.8 1.05 L-5.9 0.7 -5.4 0.45 -5.65 -0.5 -5.75 -1.75 Q-5.8 -3.75 -4.75 -5.3 -5.55 -3.5 -3.75 -2.45 -5.0 -1.95 -5.15 0.35 L-4.05 5.2 Q-2.7 6.7 -0.3 8.05 M5.2 3.1 L5.4 0.7 5.2 3.1 M0.5 5.15 L0.0 5.4 Q-0.4 5.35 -0.5 5.1 L0.5 5.15 M-5.2 3.1 L-5.4 0.5 -5.4 0.45 -5.4 0.5 -5.2 3.1" fill="#ca8c60" fill-rule="evenodd" stroke="none"/>
    <path d="M5.7 -0.5 L5.8 -1.75 Q5.8 -2.95 5.45 -3.95 4.95 -5.3 3.85 -6.4 2.2 -8.0 0.05 -8.1 -2.2 -8.0 -3.85 -6.4 L-4.75 -5.3 Q-5.8 -3.75 -5.75 -1.75 L-5.65 -0.5 Q-6.25 -0.65 -5.9 0.7 L-5.8 1.05 Q-5.6 3.25 -5.2 3.1 L-4.75 5.25 Q-2.35 7.7 -0.3 8.05 M5.45 0.35 L5.5 0.25 5.7 -0.5 Q6.3 -0.65 5.85 0.95 L5.8 1.05 Q5.6 3.25 5.2 3.1 L4.65 5.5 Q2.2 7.85 0.05 8.1 L0.0 8.1 -0.25 8.05 M5.4 0.55 L5.4 0.7 5.2 3.1 M5.45 0.4 L5.4 0.5 5.4 0.55 M5.45 0.35 L5.45 0.4 M0.5 5.15 L0.0 5.4 Q-0.4 5.35 -0.5 5.1 M1.95 5.6 Q1.25 6.05 0.05 6.15 -1.2 6.05 -1.9 5.6 M4.2 3.0 Q3.95 0.4 2.25 0.95 1.8 1.9 1.75 3.25 L4.2 3.0 M0.0 8.1 L0.05 8.1 M-1.75 3.25 L-4.2 3.0 Q-3.95 0.4 -2.2 0.95 -1.8 1.9 -1.75 3.25 M-5.4 0.45 L-5.65 -0.5 M-5.4 0.45 L-5.4 0.5 -5.2 3.1" fill="none" stroke="#714a1c" stroke-linecap="round" stroke-linejoin="round" stroke-width="0.05"/>
  </g>
</svg>
