<?xml version="1.0" encoding="UTF-8" standalone="no"?>
<svg xmlns:xlink="http://www.w3.org/1999/xlink" height="27.2px" width="7.15px" xmlns="http://www.w3.org/2000/svg">
  <g transform="matrix(1.0, 0.0, 0.0, 1.0, 3.6, 14.35)">
    <path d="M3.55 -4.5 L2.55 12.5 0.15 12.85 Q-1.2 12.6 -2.1 12.0 -2.05 5.25 -3.15 -1.15 -3.8 -3.45 -3.55 -7.05 -3.3 -10.15 -2.6 -12.9 L-1.35 -14.3 Q1.1 -14.65 2.4 -12.3 3.3 -9.0 3.5 -5.0 L3.55 -4.5" fill="#fde0bd" fill-rule="evenodd" stroke="none"/>
    <path d="M3.55 -4.5 L2.55 12.5 0.15 12.85 Q-1.2 12.6 -2.1 12.0 -2.05 5.25 -3.15 -1.15 -3.8 -3.45 -3.55 -7.05 -3.3 -10.15 -2.6 -12.9 L-1.35 -14.3 Q1.1 -14.65 2.4 -12.3 3.3 -9.0 3.5 -5.0 L3.55 -4.5 Z" fill="none" stroke="#c28030" stroke-linecap="round" stroke-linejoin="round" stroke-width="0.05"/>
  </g>
</svg>
