<?xml version="1.0" encoding="UTF-8" standalone="no"?>
<svg xmlns:xlink="http://www.w3.org/1999/xlink" height="7.85px" width="6.3px" xmlns="http://www.w3.org/2000/svg">
  <g transform="matrix(1.0, 0.0, 0.0, 1.0, 2.95, -5.3)">
    <path d="M0.4 13.15 L-1.9 12.45 Q-2.55 12.1 -2.55 11.2 -2.45 9.5 -2.8 7.7 -3.15 6.35 -2.7 5.35 L-2.45 5.3 3.05 5.55 Q3.35 5.75 3.35 6.5 L3.1 8.65 Q2.9 9.9 3.0 11.9 2.95 12.65 2.3 12.95 L0.4 13.15" fill="#ffffff" fill-rule="evenodd" stroke="none"/>
    <path d="M0.4 13.15 L-1.9 12.45 Q-2.55 12.1 -2.55 11.2 -2.45 9.5 -2.8 7.7 -3.15 6.35 -2.7 5.35 L-2.45 5.3 3.05 5.55 Q3.35 5.75 3.35 6.5 L3.1 8.65 Q2.9 9.9 3.0 11.9 2.95 12.65 2.3 12.95 L0.4 13.15 Z" fill="none" stroke="#999999" stroke-linecap="round" stroke-linejoin="round" stroke-width="0.05"/>
  </g>
</svg>
