<?xml version="1.0" encoding="UTF-8" standalone="no"?>
<svg xmlns:xlink="http://www.w3.org/1999/xlink" height="28.9px" width="9.35px" xmlns="http://www.w3.org/2000/svg">
  <g transform="matrix(1.0, 0.0, 0.0, 1.0, 4.5, 14.45)">
    <path d="M-3.65 10.25 Q-5.2 3.7 -3.9 -9.55 -3.65 -12.95 -1.6 -14.3 -0.75 -14.6 0.85 -14.3 2.4 -14.05 3.65 -10.2 5.6 0.6 4.4 11.4 L2.95 11.65 2.9 11.65 0.5 11.65 -0.3 11.5 -0.35 11.5 -1.95 11.05 -2.1 11.0 -3.65 10.25" fill="#000000" fill-rule="evenodd" stroke="none"/>
    <path d="M-3.65 10.25 L-2.1 11.0 -1.95 11.05 -0.35 11.5 -0.3 11.5 0.5 11.65 2.9 11.65 2.95 11.65 4.4 11.4 4.1 13.55 3.15 14.2 2.95 14.25 0.5 14.45 -0.3 14.35 Q-1.25 14.1 -1.95 13.55 L-3.05 12.35 -3.65 10.25 M0.5 11.65 L0.5 14.45 0.5 11.65 M-1.95 11.05 L-1.95 13.55 -1.95 11.05 M2.9 11.65 L2.95 14.25 2.9 11.65" fill="#676767" fill-rule="evenodd" stroke="none"/>
    <path d="M4.4 11.4 Q5.6 0.6 3.65 -10.2 2.4 -14.05 0.85 -14.3 -0.75 -14.6 -1.6 -14.3 -3.65 -12.95 -3.9 -9.55 -5.2 3.7 -3.65 10.25 L-3.05 12.35 -1.95 13.55 Q-1.25 14.1 -0.3 14.35 L0.5 14.45 0.5 11.65 M4.4 11.4 L4.1 13.55 3.15 14.2 2.95 14.25 0.5 14.45" fill="none" stroke="#000000" stroke-linecap="round" stroke-linejoin="round" stroke-width="0.05"/>
    <path d="M2.95 14.25 L2.9 11.65 M-1.95 13.55 L-1.95 11.05" fill="none" stroke="#000000" stroke-linecap="round" stroke-linejoin="round" stroke-width="0.05"/>
  </g>
</svg>
