<?xml version="1.0" encoding="UTF-8" standalone="no"?>
<svg xmlns:xlink="http://www.w3.org/1999/xlink" height="28.45px" width="9.95px" xmlns="http://www.w3.org/2000/svg">
  <g transform="matrix(1.0, 0.0, 0.0, 1.0, 5.05, 14.85)">
    <path d="M2.9 -14.05 Q5.8 -7.3 4.5 -0.1 3.2 7.1 2.8 12.5 0.4 14.6 -2.35 12.05 -2.6 1.45 -4.35 -2.6 -6.1 -6.7 -3.35 -14.1 -0.25 -12.4 2.9 -14.05" fill="#224156" fill-rule="evenodd" stroke="none"/>
    <path d="M-3.35 -14.1 Q-0.8 -15.65 2.9 -14.05 -0.25 -12.4 -3.35 -14.1" fill="#000000" fill-rule="evenodd" stroke="none"/>
    <path d="M2.9 -14.05 Q5.8 -7.3 4.5 -0.1 3.2 7.1 2.8 12.5 0.4 14.6 -2.35 12.05 -2.6 1.45 -4.35 -2.6 -6.1 -6.7 -3.35 -14.1 -0.25 -12.4 2.9 -14.05" fill="none" stroke="#666666" stroke-linecap="round" stroke-linejoin="round" stroke-width="0.05"/>
    <path d="M-3.35 -14.1 Q-0.8 -15.65 2.9 -14.05 Z" fill="none" stroke="#666666" stroke-linecap="round" stroke-linejoin="round" stroke-width="0.05"/>
    <path d="M2.7 10.65 L2.6 11.25 2.7 12.5 Q0.2 11.55 -2.3 12.0 L-2.1 10.8 -2.15 9.5 -2.1 10.8 -2.3 12.0 -2.3 12.05 -2.4 12.35 Q-2.65 13.0 -2.9 12.95 L-3.35 12.2 -3.5 10.55 -3.2 8.95 Q-2.95 8.3 -2.7 8.35 -2.4 8.4 -2.2 9.1 L-2.15 9.5 Q-0.95 8.9 0.3 9.05 1.55 9.15 2.85 10.0 L2.85 10.05 2.7 10.65 2.85 10.05 2.85 10.0 2.95 9.65 Q3.2 9.05 3.45 9.1 3.75 9.15 3.9 9.8 L4.05 11.45 3.7 13.0 Q3.5 13.65 3.2 13.6 L2.75 12.85 2.7 12.5 Q2.6 11.95 2.65 11.25 L2.7 10.65" fill="#346681" fill-rule="evenodd" stroke="none"/>
    <path d="M2.7 10.65 L2.85 10.05 2.85 10.0 Q1.55 9.15 0.3 9.05 -0.95 8.9 -2.15 9.5 L-2.1 10.8 -2.3 12.0 Q0.2 11.55 2.7 12.5 2.6 11.95 2.65 11.25 L2.7 10.65 M2.7 12.5 L2.75 12.85 3.2 13.6 Q3.5 13.65 3.7 13.0 L4.05 11.45 3.9 9.8 Q3.75 9.15 3.45 9.1 3.2 9.05 2.95 9.65 L2.85 10.0 M-2.3 12.0 L-2.3 12.05 -2.4 12.35 Q-2.65 13.0 -2.9 12.95 L-3.35 12.2 -3.5 10.55 -3.2 8.95 Q-2.95 8.3 -2.7 8.35 -2.4 8.4 -2.2 9.1 L-2.15 9.5" fill="none" stroke="#333333" stroke-linecap="round" stroke-linejoin="round" stroke-width="0.05"/>
    <path d="M0.3 9.05 L0.3 -13.25" fill="none" stroke="#000000" stroke-linecap="round" stroke-linejoin="round" stroke-width="0.05"/>
  </g>
</svg>
