<?xml version="1.0" encoding="UTF-8" standalone="no"?>
<svg xmlns:xlink="http://www.w3.org/1999/xlink" height="11.7px" width="5.9px" xmlns="http://www.w3.org/2000/svg">
  <g transform="matrix(1.0, 0.0, 0.0, 1.0, 2.85, 4.05)">
    <path d="M-1.5 -3.25 L-0.7 -3.25 2.75 -4.05 2.8 -3.85 Q3.1 -3.45 3.05 -2.25 1.95 -0.55 -0.7 -0.3 1.95 -0.55 3.05 -2.25 3.0 -0.55 2.7 0.0 2.7 3.05 2.3 3.7 2.55 5.85 2.0 7.25 L-0.15 7.3 -0.2 5.95 -0.25 5.3 -0.3 4.75 -0.35 3.55 -0.4 2.75 -0.55 1.0 -0.7 -0.3 Q-0.95 -2.45 -1.25 -3.05 L-1.5 -3.25 M2.3 3.7 Q1.1 5.3 -0.25 5.3 1.1 5.3 2.3 3.7 M2.7 0.0 Q1.2 2.5 -0.4 2.75 1.2 2.5 2.7 0.0" fill="#e2cfcb" fill-rule="evenodd" stroke="none"/>
    <path d="M-1.5 -3.25 L-1.25 -3.05 Q-0.95 -2.45 -0.7 -0.3 L-2.0 -0.1 Q-2.65 -0.85 -2.75 -1.8 L-2.85 -3.65 Q-2.55 -3.45 -2.3 -3.4 L-1.5 -3.25 M-0.15 7.3 L-0.7 6.7 -0.95 5.8 -0.85 5.25 -1.05 4.65 -1.2 3.65 -1.3 2.85 Q-1.8 2.2 -1.8 1.3 L-2.0 -0.1 -0.7 -0.3 -0.55 1.0 -0.4 2.75 -1.3 2.85 -0.4 2.75 -0.35 3.55 -0.3 4.75 -0.25 5.3 -0.2 5.95 -0.15 7.3 M-0.85 5.25 L-0.3 5.3 -0.25 5.3 -0.3 5.3 -0.85 5.25" fill="#b18378" fill-rule="evenodd" stroke="none"/>
    <path d="M3.05 -2.25 Q3.1 -3.45 2.8 -3.85 L2.75 -4.05 -0.7 -3.25 -1.5 -3.25 -2.3 -3.4 Q-2.55 -3.45 -2.85 -3.65 L-2.75 -1.8 Q-2.65 -0.85 -2.0 -0.1 L-1.8 1.3 Q-1.8 2.2 -1.3 2.85 L-0.4 2.75 Q1.2 2.5 2.7 0.0 2.7 3.05 2.3 3.7 2.55 5.85 2.0 7.25 L-0.15 7.3 -0.7 6.7 -0.95 5.8 -0.85 5.25 -1.05 4.65 -1.2 3.65 -1.3 2.85 M-0.7 -0.3 Q1.95 -0.55 3.05 -2.25 3.0 -0.55 2.7 0.0 M-0.7 -0.3 L-2.0 -0.1 M-0.25 5.3 L-0.3 5.3 -0.85 5.25 M-0.25 5.3 Q1.1 5.3 2.3 3.7" fill="none" stroke="#666624" stroke-linecap="round" stroke-linejoin="round" stroke-width="0.05"/>
  </g>
</svg>
