<?xml version="1.0" encoding="UTF-8" standalone="no"?>
<svg xmlns:xlink="http://www.w3.org/1999/xlink" height="15.15px" width="7.65px" xmlns="http://www.w3.org/2000/svg">
  <g transform="matrix(1.0, 0.0, 0.0, 1.0, 3.35, 7.55)">
    <path d="M3.05 -2.85 L2.0 7.25 Q0.4 8.2 -0.7 6.7 L-0.75 6.25 Q-1.55 1.55 -3.35 -4.15 -2.6 -8.0 0.8 -7.5 L1.05 -7.5 2.1 -6.7 Q2.9 -5.7 3.15 -3.95 L3.05 -2.85" fill="#3c6f64" fill-rule="evenodd" stroke="none"/>
    <path d="M2.1 -6.7 L3.25 -7.2 Q4.85 -5.4 4.0 -2.85 L3.05 -2.85 3.15 -3.95 Q2.9 -5.7 2.1 -6.7" fill="#6f8c5e" fill-rule="evenodd" stroke="none"/>
    <path d="M3.05 -2.85 L2.0 7.25 Q0.4 8.2 -0.7 6.7 L-0.75 6.25 Q-1.55 1.55 -3.35 -4.15 -2.6 -8.0 0.8 -7.5 L1.05 -7.5 2.1 -6.7 3.25 -7.2 Q4.85 -5.4 4.0 -2.85 L3.05 -2.85 3.15 -3.95 Q2.9 -5.7 2.1 -6.7" fill="none" stroke="#4a684d" stroke-linecap="round" stroke-linejoin="round" stroke-width="0.05"/>
  </g>
</svg>
