<?xml version="1.0" encoding="UTF-8" standalone="no"?>
<svg xmlns:xlink="http://www.w3.org/1999/xlink" height="15.6px" width="6.2px" xmlns="http://www.w3.org/2000/svg">
  <g transform="matrix(1.0, 0.0, 0.0, 1.0, 3.05, 7.95)">
    <path d="M-2.8 -3.1 L-2.8 -3.15 -2.8 -3.1" fill="#ffffff" fill-rule="evenodd" stroke="none"/>
    <path d="M-2.8 -3.15 L-2.8 -4.55 -2.75 -5.0 -2.7 -5.35 Q-2.4 -6.55 -1.3 -7.45 L1.45 -7.4 Q2.4 -6.15 2.7 -4.8 L2.8 -3.95 2.75 -2.85 Q0.75 -4.9 -2.8 -3.15" fill="#3c4147" fill-rule="evenodd" stroke="none"/>
    <path d="M-2.35 -1.25 L-2.35 -1.3 -2.3 -1.25 -2.35 -1.25" fill="#40b961" fill-rule="evenodd" stroke="none"/>
    <path d="M2.75 -2.85 Q3.4 -2.1 2.65 -1.3 0.4 -2.1 -2.3 -1.25 L-2.35 -1.3 Q-3.25 -2.05 -2.8 -3.1 L-2.8 -3.15 Q0.75 -4.9 2.75 -2.85" fill="#45916e" fill-rule="evenodd" stroke="none"/>
    <path d="M2.65 -1.3 L2.0 7.25 1.35 7.55 0.05 7.45 -0.7 6.7 Q-1.15 2.5 -2.35 -1.25 L-2.3 -1.25 Q0.4 -2.1 2.65 -1.3" fill="#a7dcc1" fill-rule="evenodd" stroke="none"/>
    <path d="M1.35 7.55 L0.05 7.45 M-2.8 -3.15 L-2.8 -4.55 -2.75 -5.0 -2.7 -5.35 Q-2.4 -6.55 -1.3 -7.45 L1.45 -7.4 Q2.4 -6.15 2.7 -4.8 L2.8 -3.95 2.75 -2.85" fill="none" stroke="#000000" stroke-linecap="round" stroke-linejoin="round" stroke-width="0.05"/>
    <path d="M2.75 -2.85 Q3.4 -2.1 2.65 -1.3 L2.0 7.25 1.35 7.55 M0.05 7.45 L-0.7 6.7 Q-1.15 2.5 -2.35 -1.25 L-2.35 -1.3 Q-3.25 -2.05 -2.8 -3.1 L-2.8 -3.15 -2.8 -3.1 M2.75 -2.85 Q0.75 -4.9 -2.8 -3.15 M-2.35 -1.3 L-2.3 -1.25 Q0.4 -2.1 2.65 -1.3" fill="none" stroke="#2e813e" stroke-linecap="round" stroke-linejoin="round" stroke-width="0.25"/>
  </g>
</svg>
