<?xml version="1.0" encoding="UTF-8" standalone="no"?>
<svg xmlns:xlink="http://www.w3.org/1999/xlink" height="15.55px" width="6.0px" xmlns="http://www.w3.org/2000/svg">
  <g transform="matrix(1.0, 0.0, 0.0, 1.0, 2.95, 7.95)">
    <path d="M-2.8 -3.15 L-2.75 -5.0 Q-2.6 -6.45 -1.3 -7.45 L1.45 -7.4 Q3.1 -5.2 2.75 -2.85 0.75 -4.9 -2.8 -3.15" fill="#3c4147" fill-rule="evenodd" stroke="none"/>
    <path d="M2.75 -2.85 Q3.4 -2.1 2.65 -1.3 0.4 -2.1 -2.3 -1.25 L-2.35 -1.3 Q-3.25 -2.05 -2.8 -3.1 L-2.8 -3.15 Q0.75 -4.9 2.75 -2.85 M-2.8 -3.1 L-2.8 -3.15 -2.8 -3.1" fill="#ffffff" fill-rule="evenodd" stroke="none"/>
    <path d="M-2.35 -1.25 L-2.35 -1.3 -2.3 -1.25 -2.35 -1.25" fill="#5a5a5a" fill-rule="evenodd" stroke="none"/>
    <path d="M2.65 -1.3 L2.0 7.25 Q0.4 8.2 -0.7 6.7 -1.15 2.5 -2.35 -1.25 L-2.3 -1.25 Q0.4 -2.1 2.65 -1.3" fill="#ff9933" fill-rule="evenodd" stroke="none"/>
    <path d="M-2.8 -3.1 L-2.8 -3.15 -2.75 -5.0 Q-2.6 -6.45 -1.3 -7.45 L1.45 -7.4 Q3.1 -5.2 2.75 -2.85" fill="none" stroke="#666666" stroke-linecap="round" stroke-linejoin="round" stroke-width="0.05"/>
    <path d="M2.75 -2.85 Q3.4 -2.1 2.65 -1.3 L2.0 7.25 Q0.4 8.2 -0.7 6.7 -1.15 2.5 -2.35 -1.25 L-2.35 -1.3 Q-3.25 -2.05 -2.8 -3.1 L-2.8 -3.15 Q0.75 -4.9 2.75 -2.85 M-2.35 -1.3 L-2.3 -1.25 Q0.4 -2.1 2.65 -1.3" fill="none" stroke="#666666" stroke-linecap="round" stroke-linejoin="round" stroke-width="0.05"/>
  </g>
</svg>
