<?xml version="1.0" encoding="UTF-8" standalone="no"?>
<svg xmlns:xlink="http://www.w3.org/1999/xlink" height="20.9px" width="9.65px" xmlns="http://www.w3.org/2000/svg">
  <g transform="matrix(1.0, 0.0, 0.0, 1.0, 5.15, 11.6)">
    <path d="M-3.45 -6.45 Q-3.3 -9.85 -2.0 -11.25 L-0.7 -11.5 Q1.4 -11.8 3.0 -11.05 L3.4 -9.45 Q3.75 -8.05 4.1 -2.15 3.65 -6.75 -1.05 -6.7 L-3.45 -6.45 M-0.7 -11.5 L-1.05 -6.7 -0.7 -11.5" fill="#1e2225" fill-rule="evenodd" stroke="none"/>
    <path d="M4.1 -2.15 L4.5 4.8 Q4.15 7.35 3.4 8.9 L-1.1 9.15 Q-2.7 8.8 -3.75 7.75 -4.35 6.7 -4.85 3.95 L-3.95 -0.95 Q-3.65 -2.55 -3.45 -6.45 L-1.05 -6.7 -1.95 4.85 Q-2.0 7.8 -1.1 9.15 -2.0 7.8 -1.95 4.85 L-1.05 -6.7 Q3.65 -6.75 4.1 -2.15" fill="#3c4147" fill-rule="evenodd" stroke="none"/>
    <path d="M-3.45 -6.45 Q-3.3 -9.85 -2.0 -11.25 L-0.7 -11.5 Q1.4 -11.8 3.0 -11.05 L3.4 -9.45 Q3.75 -8.05 4.1 -2.15 L4.5 4.8 Q4.15 7.35 3.4 8.9 L-1.1 9.15 Q-2.7 8.8 -3.75 7.75 -4.35 6.7 -4.85 3.95 L-3.95 -0.95 Q-3.65 -2.55 -3.45 -6.45 M-1.05 -6.7 L-0.7 -11.5 M-1.05 -6.7 L-1.95 4.85 Q-2.0 7.8 -1.1 9.15" fill="none" stroke="#666666" stroke-linecap="round" stroke-linejoin="round" stroke-width="0.05"/>
    <path d="M-3.45 -7.7 L-3.15 -8.9 Q-1.45 -11.0 1.2 -8.35 L1.85 -0.9 Q2.1 3.7 1.85 4.15 L-2.7 6.85 -4.4 4.9 Q-5.05 4.15 -5.05 3.35 L-5.0 1.9 Q-3.55 4.4 -2.6 5.15 0.25 3.8 0.6 3.0 1.0 2.1 0.1 -7.9 -1.8 -10.0 -3.45 -7.7" fill="#8f392d" fill-rule="evenodd" stroke="none"/>
    <path d="M-5.0 1.9 Q-4.7 -2.9 -3.45 -7.7 -1.8 -10.0 0.1 -7.9 1.0 2.1 0.6 3.0 0.25 3.8 -2.6 5.15 -3.55 4.4 -5.0 1.9" fill="#ed7976" fill-rule="evenodd" stroke="none"/>
    <path d="M-3.45 -7.7 L-3.15 -8.9 Q-1.45 -11.0 1.2 -8.35 L1.85 -0.9 Q2.1 3.7 1.85 4.15 L-2.7 6.85 -4.4 4.9 Q-5.05 4.15 -5.05 3.35 L-5.0 1.9 Q-4.7 -2.9 -3.45 -7.7 Z" fill="none" stroke="#000000" stroke-linecap="round" stroke-linejoin="round" stroke-width="0.25"/>
  </g>
</svg>
