<?xml version="1.0" encoding="UTF-8" standalone="no"?>
<svg xmlns:xlink="http://www.w3.org/1999/xlink" height="9.85px" width="4.55px" xmlns="http://www.w3.org/2000/svg">
  <g transform="matrix(1.0, 0.0, 0.0, 1.0, 2.35, 4.75)">
    <path d="M-2.0 -1.2 L-2.25 -4.7 0.1 -4.6 2.2 -3.9 1.95 -0.1 1.45 -0.25 0.25 -1.05 -2.0 -1.2" fill="#333333" fill-rule="evenodd" stroke="none"/>
    <path d="M-2.0 -1.2 L0.25 -1.05 1.45 -0.25 -2.0 -0.1 -2.0 -1.2" fill="#666666" fill-rule="evenodd" stroke="none"/>
    <path d="M1.8 2.4 L1.7 4.35 0.6 4.9 Q-0.4 5.45 -2.0 4.5 L-2.0 2.2 1.8 2.4" fill="#ffffff" fill-rule="evenodd" stroke="none"/>
    <path d="M1.45 -0.25 L1.95 -0.1 2.0 -0.1 Q2.5 1.2 1.8 2.4 L-2.0 2.2 Q-2.65 1.0 -2.0 -0.1 L1.45 -0.25" fill="#8a4343" fill-rule="evenodd" stroke="none"/>
    <path d="M1.45 -0.25 L1.95 -0.1 2.0 -0.1 Q2.5 1.2 1.8 2.4 L1.7 4.35 M-2.0 4.5 L-2.0 2.2 Q-2.65 1.0 -2.0 -0.1 L1.45 -0.25 M-2.0 2.2 L1.8 2.4" fill="none" stroke="#999999" stroke-linecap="round" stroke-linejoin="round" stroke-width="0.05"/>
    <path d="M1.95 -0.1 L2.2 -3.9 0.1 -4.6 -2.25 -4.7 -2.0 -1.2 -2.0 -0.1" fill="none" stroke="#000000" stroke-linecap="round" stroke-linejoin="round" stroke-width="0.05"/>
  </g>
</svg>
