<?xml version="1.0" encoding="UTF-8" standalone="no"?>
<svg xmlns:xlink="http://www.w3.org/1999/xlink" height="7.7px" width="16.1px" xmlns="http://www.w3.org/2000/svg">
  <g transform="matrix(1.0, 0.0, 0.0, 1.0, 6.45, 3.55)">
    <path d="M-5.45 2.15 L-2.4 2.35 -1.35 2.35 -1.15 2.35 -0.25 2.3 Q2.6 2.0 3.9 0.6 L4.55 -0.4 4.6 -0.6 4.6 -0.95 4.6 -1.05 Q4.6 -1.9 4.05 -2.5 L2.55 -3.1 9.15 -2.8 Q10.55 0.55 8.15 4.15 5.4 3.25 2.0 3.3 L1.35 3.4 0.0 3.45 -0.5 3.45 -2.0 3.35 -2.5 3.4 -3.4 3.2 -5.45 2.15" fill="#f2f2f2" fill-rule="evenodd" stroke="none"/>
    <path d="M-6.2 -1.05 L-5.6 -1.8 -4.25 -2.75 Q-2.35 -3.7 0.2 -3.5 L2.55 -3.1 4.05 -2.5 Q4.6 -1.9 4.6 -1.05 L4.6 -0.95 4.6 -0.6 4.55 -0.4 3.9 0.6 Q2.6 2.0 -0.25 2.3 L-1.15 2.35 -1.35 2.35 -2.4 2.35 -5.45 2.15 Q-6.05 1.8 -6.25 1.15 L-6.4 0.0 -6.3 -0.65 -6.2 -1.05" fill="#ffffff" fill-rule="evenodd" stroke="none"/>
    <path d="M2.55 -3.1 L0.2 -3.5 Q-2.35 -3.7 -4.25 -2.75 L-5.6 -1.8 -6.2 -1.05 M4.05 -2.5 L2.55 -3.1 9.15 -2.8 Q10.55 0.55 8.15 4.15 5.4 3.25 2.0 3.3 L1.35 3.4 0.0 3.45 -0.5 3.45 -2.0 3.35" fill="none" stroke="#a0a0a0" stroke-linecap="round" stroke-linejoin="round" stroke-width="0.05"/>
  </g>
</svg>
