<?xml version="1.0" encoding="UTF-8" standalone="no"?>
<svg xmlns:xlink="http://www.w3.org/1999/xlink" height="7.3px" width="12.7px" xmlns="http://www.w3.org/2000/svg">
  <g transform="matrix(1.0, 0.0, 0.0, 1.0, 6.3, 3.7)">
    <path d="M4.35 -2.6 L4.5 -2.5 4.45 -2.5 4.35 -2.6" fill="#d1d1d1" fill-rule="evenodd" stroke="none"/>
    <path d="M4.7 0.1 L4.65 0.05 4.7 0.1" fill="#f2f2f2" fill-rule="evenodd" stroke="none"/>
    <path d="M4.5 -2.5 L4.85 -2.3 5.4 -1.85 5.75 -1.45 6.1 -1.0 6.2 -0.9 Q6.5 -0.3 6.4 0.45 L6.35 0.75 Q6.05 2.0 4.3 2.85 L2.7 3.4 1.9 3.55 -0.3 3.6 Q-2.95 3.45 -4.7 2.3 L-4.8 2.25 Q-1.4 2.7 0.85 2.3 L3.15 1.5 4.7 0.1 5.0 -0.5 5.0 -0.6 5.0 -1.0 5.0 -1.05 5.0 -1.3 4.9 -1.75 4.45 -2.5 4.5 -2.5" fill="#333333" fill-rule="evenodd" stroke="none"/>
    <path d="M-4.8 2.25 L-6.05 0.85 -6.3 -0.35 -5.85 -1.55 Q-5.3 -2.3 -4.15 -2.85 -2.25 -3.85 0.4 -3.65 2.7 -3.55 4.35 -2.6 L4.45 -2.5 4.9 -1.75 5.0 -1.3 5.0 -1.05 5.0 -1.0 5.0 -0.6 5.0 -0.5 4.7 0.1 3.15 1.5 0.85 2.3 Q-1.4 2.7 -4.8 2.25 M4.7 0.1 L4.65 0.05 4.7 0.1" fill="#666666" fill-rule="evenodd" stroke="none"/>
    <path d="M4.5 -2.5 L4.85 -2.3 5.4 -1.85 M-5.85 -1.55 Q-5.3 -2.3 -4.15 -2.85 -2.25 -3.85 0.4 -3.65 2.7 -3.55 4.35 -2.6 L4.5 -2.5 Z" fill="none" stroke="#000000" stroke-linecap="round" stroke-linejoin="round" stroke-width="0.05"/>
  </g>
</svg>
