<?xml version="1.0" encoding="UTF-8" standalone="no"?>
<svg xmlns:xlink="http://www.w3.org/1999/xlink" height="7.15px" width="12.8px" xmlns="http://www.w3.org/2000/svg">
  <g transform="matrix(1.0, 0.0, 0.0, 1.0, 6.4, 3.55)">
    <path d="M-4.75 2.3 Q-1.4 2.7 0.8 2.35 2.15 2.15 3.1 1.6 L4.2 0.75 4.6 0.2 4.75 0.1 4.95 -0.3 5.0 -0.5 5.0 -0.85 5.0 -0.95 5.0 -1.2 4.9 -1.6 4.45 -2.35 4.85 -2.15 5.4 -1.7 5.75 -1.3 6.1 -0.9 6.2 -0.75 Q6.5 -0.2 6.4 0.5 L6.35 0.85 Q6.05 2.1 4.25 2.9 L2.7 3.4 1.85 3.55 -0.35 3.6 Q-3.0 3.45 -4.75 2.35 L-4.75 2.3" fill="#6992a7" fill-rule="evenodd" stroke="none"/>
    <path d="M4.45 -2.35 L4.35 -2.45 4.45 -2.35" fill="#d1d1d1" fill-rule="evenodd" stroke="none"/>
    <path d="M4.35 -2.45 L4.45 -2.35 4.9 -1.6 5.0 -1.2 5.0 -0.95 5.0 -0.85 5.0 -0.5 4.95 -0.3 4.75 0.1 4.6 0.2 4.2 0.75 3.1 1.6 Q2.15 2.15 0.8 2.35 -1.4 2.7 -4.75 2.3 L-4.85 2.3 Q-5.85 1.7 -6.15 0.95 -6.45 0.35 -6.4 -0.25 -6.35 -0.9 -5.9 -1.5 -5.45 -2.2 -4.0 -2.9 -2.6 -3.65 0.05 -3.5 2.7 -3.35 4.35 -2.45" fill="#97b3c1" fill-rule="evenodd" stroke="none"/>
    <path d="M-4.85 2.3 L-4.75 2.3 -4.75 2.35 -4.85 2.3" fill="#333333" fill-rule="evenodd" stroke="none"/>
    <path d="M4.45 -2.35 L4.35 -2.45 M5.4 -1.7 L4.85 -2.15 4.45 -2.35" fill="none" stroke="#38575f" stroke-linecap="round" stroke-linejoin="round" stroke-width="0.05"/>
    <path d="M4.35 -2.45 Q2.7 -3.35 0.05 -3.5 -2.6 -3.65 -4.0 -2.9 -5.45 -2.2 -5.9 -1.5" fill="none" stroke="#38575f" stroke-linecap="round" stroke-linejoin="round" stroke-width="0.05"/>
  </g>
</svg>
