<?xml version="1.0" encoding="UTF-8" standalone="no"?>
<svg xmlns:xlink="http://www.w3.org/1999/xlink" height="11.1px" width="15.0px" xmlns="http://www.w3.org/2000/svg">
  <g transform="matrix(1.0, 0.0, 0.0, 1.0, 7.6, 5.75)">
    <path d="M-2.15 -5.15 L-2.25 -5.35 Q-2.2 -5.6 -1.4 -5.7 L-1.1 -5.7 0.5 -5.7 2.05 -5.45 2.25 -5.35 2.8 -5.1 Q3.25 -4.95 3.25 -4.8 3.15 -4.55 2.35 -4.45 L2.25 -4.4 0.15 -4.4 -0.7 -4.5 -1.9 -4.8 Q-2.4 -4.95 -2.1 -5.15 L-2.15 -5.15" fill="#c03f3f" fill-rule="evenodd" stroke="none"/>
    <path d="M-2.15 -5.15 L-2.1 -5.15 Q-2.4 -4.95 -1.9 -4.8 L-0.7 -4.5 0.15 -4.4 2.25 -4.4 2.35 -4.45 Q3.15 -4.55 3.25 -4.8 3.25 -4.95 2.8 -5.1" fill="none" stroke="#a0a0a0" stroke-linecap="round" stroke-linejoin="round" stroke-width="0.05"/>
    <path d="M-7.6 -1.2 L-6.15 -2.05 -4.0 -2.55 Q-5.1 -1.95 -5.8 -1.0 -6.85 2.15 -1.0 3.45 3.0 3.8 5.1 2.1 L6.1 2.1 5.1 3.25 4.0 4.2 2.35 5.35 Q-1.95 4.2 -4.4 2.7 L-5.15 2.15 -5.9 1.5 Q-7.25 0.25 -7.6 -1.2" fill="#333333" fill-rule="evenodd" stroke="none"/>
    <path d="M6.1 2.1 L5.1 3.25 4.0 4.2 2.35 5.35 Q-1.95 4.2 -4.4 2.7 L-5.15 2.15 -5.9 1.5 Q-7.25 0.25 -7.6 -1.2" fill="none" stroke="#a0a0a0" stroke-linecap="round" stroke-linejoin="round" stroke-width="0.05"/>
    <path d="M6.75 -3.85 L7.05 -2.8 Q7.55 -1.0 7.3 0.95 -3.25 -2.2 -7.55 -1.35 L-7.2 -2.1 -6.9 -2.45 Q-4.3 -5.45 1.05 -5.0 3.2 -4.85 5.8 -4.1 L6.75 -3.85" fill="#ffffff" fill-rule="evenodd" stroke="none"/>
    <path d="M6.75 -3.85 L7.05 -2.8 Q7.55 -1.0 7.3 0.95 -3.25 -2.2 -7.55 -1.35 L-7.2 -2.1 -6.9 -2.45 Q-4.3 -5.45 1.05 -5.0 3.2 -4.85 5.8 -4.1 L6.75 -3.85 Z" fill="none" stroke="#a0a0a0" stroke-linecap="round" stroke-linejoin="round" stroke-width="0.05"/>
  </g>
</svg>
