<?xml version="1.0" encoding="UTF-8" standalone="no"?>
<svg xmlns:xlink="http://www.w3.org/1999/xlink" height="17.5px" width="13.2px" xmlns="http://www.w3.org/2000/svg">
  <g transform="matrix(1.0, 0.0, 0.0, 1.0, 6.95, 10.55)">
    <path d="M-6.75 -0.25 Q-3.7 -1.75 1.35 0.5 0.5 2.35 0.65 6.95 -8.15 2.35 -6.75 -0.25" fill="#313747" fill-rule="evenodd" stroke="none"/>
    <path d="M-6.4 -1.9 Q-1.35 -3.6 4.55 0.15 L4.25 -2.0 Q0.9 -4.85 1.0 -5.5 1.05 -6.15 2.1 -6.45 L4.0 -6.75 Q3.4 -8.75 2.45 -9.45 L0.15 -9.25 -0.65 -9.9 Q1.15 -10.65 3.5 -10.5 7.25 -8.85 5.9 2.95 3.45 1.4 1.35 0.5 -3.7 -1.75 -6.75 -0.25 L-6.6 -0.9 -6.4 -1.9" fill="#000000" fill-rule="evenodd" stroke="none"/>
    <path d="M-0.65 -9.9 L0.15 -9.25 2.45 -9.45 Q3.4 -8.75 4.0 -6.75 L2.1 -6.45 Q1.05 -6.15 1.0 -5.5 0.9 -4.85 4.25 -2.0 L4.55 0.15 Q-1.35 -3.6 -6.4 -1.9 -4.9 -8.2 -0.65 -9.9" fill="#9d9d9d" fill-rule="evenodd" stroke="none"/>
    <path d="M-6.4 -1.9 L-6.6 -0.9 -6.75 -0.25 Q-3.7 -1.75 1.35 0.5 3.45 1.4 5.9 2.95 7.25 -8.85 3.5 -10.5 1.15 -10.65 -0.65 -9.9 -4.9 -8.2 -6.4 -1.9 M-6.75 -0.25 Q-8.15 2.35 0.65 6.95 0.5 2.35 1.35 0.5" fill="none" stroke="#999999" stroke-linecap="round" stroke-linejoin="round" stroke-width="0.05"/>
  </g>
</svg>
