<?xml version="1.0" encoding="UTF-8" standalone="no"?>
<svg xmlns:xlink="http://www.w3.org/1999/xlink" height="17.9px" width="20.6px" xmlns="http://www.w3.org/2000/svg">
  <g transform="matrix(1.0, 0.0, 0.0, 1.0, 10.4, 10.95)">
    <path d="M6.5 -7.95 L7.75 -7.8 Q9.35 -6.3 10.2 -4.5 L8.7 -5.55 8.5 -5.6 7.65 -5.85 5.0 -5.9 Q4.3 -5.5 3.9 -4.5 L6.65 -1.9 7.9 -0.35 8.05 0.65 7.5 2.5 Q6.95 3.7 6.05 3.85 L0.6 -0.05 Q-5.35 -3.55 -9.85 0.0 L-9.9 -0.05 Q-11.15 -2.05 -9.35 -2.65 L-9.0 -2.75 Q-7.3 -5.15 -2.25 -3.9 2.35 -2.75 5.35 0.6 6.2 0.35 5.9 -0.55 -3.0 -10.05 -8.15 -5.95 -8.8 -7.75 -6.75 -8.0 L-6.7 -8.0 Q-4.7 -9.7 -2.0 -9.35 -0.35 -11.05 3.25 -9.3 1.05 -9.9 -0.05 -8.85 1.35 -8.35 2.95 -7.3 4.15 -8.2 6.5 -7.95" fill="#ffffff" fill-rule="evenodd" stroke="none"/>
    <path d="M-9.85 0.0 Q-5.35 -3.55 0.6 -0.05 -0.7 3.15 -0.05 6.95 -9.8 4.3 -9.9 0.0 L-9.85 0.0 M3.9 -4.5 Q4.3 -5.5 5.0 -5.9 L7.65 -5.85 8.5 -5.6 Q4.7 -5.7 3.9 -4.5" fill="#474536" fill-rule="evenodd" stroke="none"/>
    <path d="M6.5 -7.95 Q4.15 -8.2 2.95 -7.3 1.35 -8.35 -0.05 -8.85 1.05 -9.9 3.25 -9.3 -0.35 -11.05 -2.0 -9.35 -4.7 -9.7 -6.7 -8.0 -5.15 -9.8 -2.75 -10.6 2.15 -12.0 6.5 -7.95 M-8.15 -5.95 Q-3.0 -10.05 5.9 -0.55 6.2 0.35 5.35 0.6 2.35 -2.75 -2.25 -3.9 -7.3 -5.15 -9.0 -2.75 L-9.35 -2.65 Q-8.9 -4.5 -8.15 -5.95" fill="#000000" fill-rule="evenodd" stroke="none"/>
    <path d="M8.5 -5.6 L8.7 -5.55 10.2 -4.5 Q9.35 -6.3 7.75 -7.8 L6.5 -7.95 Q2.15 -12.0 -2.75 -10.6 -5.15 -9.8 -6.7 -8.0 L-6.75 -8.0 Q-8.8 -7.75 -8.15 -5.95 -8.9 -4.5 -9.35 -2.65 -11.15 -2.05 -9.9 -0.05 L-9.85 0.0 Q-5.35 -3.55 0.6 -0.05 L6.05 3.85 Q6.95 3.7 7.5 2.5 L8.05 0.65 7.9 -0.35 6.65 -1.9 3.9 -4.5 Q4.7 -5.7 8.5 -5.6 M-9.0 -2.75 L-9.35 -2.65 M-6.75 -8.0 L-6.7 -8.0 M0.6 -0.05 Q-0.7 3.15 -0.05 6.95 -9.8 4.3 -9.9 0.0 L-9.9 -0.05" fill="none" stroke="#999999" stroke-linecap="round" stroke-linejoin="round" stroke-width="0.05"/>
  </g>
</svg>
