<?xml version="1.0" encoding="UTF-8" standalone="no"?>
<svg xmlns:xlink="http://www.w3.org/1999/xlink" height="18.65px" width="9.9px" xmlns="http://www.w3.org/2000/svg">
  <g transform="matrix(1.0, 0.0, 0.0, 1.0, 5.9, 5.4)">
    <path d="M-0.95 -5.4 Q1.1 -5.4 2.55 -3.45 4.0 -1.4 4.0 1.45 4.0 4.35 2.55 6.35 1.1 8.35 -0.95 8.35 -2.95 8.35 -4.4 6.35 -5.85 4.35 -5.85 1.45 -5.85 -1.4 -4.4 -3.45 -2.95 -5.4 -0.95 -5.4" fill="#b18378" fill-rule="evenodd" stroke="none"/>
    <path d="M-0.95 -5.4 Q1.1 -5.4 2.55 -3.45 4.0 -1.4 4.0 1.45 4.0 4.35 2.55 6.35 1.1 8.35 -0.95 8.35 -2.95 8.35 -4.4 6.35 -5.85 4.35 -5.85 1.45 -5.85 -1.4 -4.4 -3.45 -2.95 -5.4 -0.95 -5.4 Z" fill="none" stroke="#7b5046" stroke-linecap="round" stroke-linejoin="round" stroke-width="0.05"/>
    <path d="M-5.1 -0.6 L-5.05 13.25 -5.1 12.75 -5.2 12.65 -5.3 12.6 -5.45 11.75 -5.6 10.95 Q-5.65 10.8 -5.7 10.95 L-5.75 10.65 -5.8 7.85 -5.9 -1.85 -5.1 -0.6 M-5.7 10.95 L-5.8 7.85 -5.7 10.95" fill="#8bc087" fill-rule="evenodd" stroke="none"/>
    <path d="M-5.1 -0.6 L-5.05 13.25 -5.1 12.75 -5.2 12.65 -5.3 12.6 -5.45 11.75 -5.6 10.95 Q-5.65 10.8 -5.7 10.95 L-5.75 10.65 -5.8 7.85 -5.9 -1.85 -5.1 -0.6 M-5.8 7.85 L-5.7 10.95" fill="none" stroke="#666666" stroke-linecap="round" stroke-linejoin="round" stroke-width="0.05"/>
  </g>
</svg>
