<?xml version="1.0" encoding="UTF-8" standalone="no"?>
<svg xmlns:xlink="http://www.w3.org/1999/xlink" height="15.1px" width="1.45px" xmlns="http://www.w3.org/2000/svg">
  <g transform="matrix(1.0, 0.0, 0.0, 1.0, 6.05, 1.95)">
    <path d="M-5.75 10.85 L-5.85 10.55 -5.9 7.7 -5.75 10.85" fill="#82b5f0" fill-rule="evenodd" stroke="none"/>
    <path d="M-5.9 7.7 L-6.05 -1.95 Q-5.5 -1.1 -4.75 -0.7 L-4.6 13.15 Q-4.8 12.3 -4.9 12.55 -5.25 12.7 -5.35 11.65 -5.6 10.55 -5.75 10.85 L-5.9 7.7" fill="#c85e4f" fill-rule="evenodd" stroke="none"/>
    <path d="M-5.75 10.85 L-5.85 10.55 -5.9 7.7" fill="none" stroke="#1667b8" stroke-linecap="round" stroke-linejoin="round" stroke-width="0.05"/>
    <path d="M-5.9 7.7 L-6.05 -1.95 Q-5.5 -1.1 -4.75 -0.7 L-4.6 13.15 Q-4.8 12.3 -4.9 12.55 -5.25 12.7 -5.35 11.65 -5.6 10.55 -5.75 10.85 L-5.9 7.7" fill="none" stroke="#88312d" stroke-linecap="round" stroke-linejoin="round" stroke-width="0.05"/>
  </g>
</svg>
