<?xml version="1.0" encoding="UTF-8" standalone="no"?>
<svg xmlns:xlink="http://www.w3.org/1999/xlink" height="22.8px" width="10.55px" xmlns="http://www.w3.org/2000/svg">
  <g transform="matrix(1.0, 0.0, 0.0, 1.0, 6.55, 5.4)">
    <path d="M-0.95 -5.4 Q1.1 -5.4 2.55 -3.45 4.0 -1.4 4.0 1.45 4.0 4.35 2.55 6.35 1.1 8.35 -0.95 8.35 -2.95 8.35 -4.4 6.35 -5.85 4.35 -5.85 1.45 -5.85 -1.4 -4.4 -3.45 -2.95 -5.4 -0.95 -5.4" fill="#263959" fill-rule="evenodd" stroke="none"/>
    <path d="M-0.95 -5.4 Q1.1 -5.4 2.55 -3.45 4.0 -1.4 4.0 1.45 4.0 4.35 2.55 6.35 1.1 8.35 -0.95 8.35 -2.95 8.35 -4.4 6.35 -5.85 4.35 -5.85 1.45 -5.85 -1.4 -4.4 -3.45 -2.95 -5.4 -0.95 -5.4 Z" fill="none" stroke="#a0a0a0" stroke-linecap="round" stroke-linejoin="round" stroke-width="0.05"/>
    <path d="M-6.0 1.8 L-5.5 7.15 -4.65 14.5 Q-4.3 15.55 -3.9 14.8 L-4.3 7.65 -4.4 1.7 -3.95 1.6 -3.8 7.0 -3.35 16.7 Q-4.0 18.0 -4.8 16.4 L-6.15 5.3 -6.45 1.8 -6.0 1.8 M-5.05 1.75 L-4.65 7.9 -4.3 12.55 -4.7 12.3 -5.1 7.75 -5.5 1.75 -5.05 1.75" fill="#ffffff" fill-rule="evenodd" stroke="none"/>
    <path d="M-4.4 1.7 L-4.3 7.65 -3.9 14.8 Q-4.3 15.55 -4.65 14.5 L-5.5 7.15 -6.0 1.8 -5.5 1.75 -5.1 7.75 -4.7 12.3 -4.3 12.55 -4.65 7.9 -5.05 1.75 -4.4 1.7" fill="#add2e3" fill-rule="evenodd" stroke="none"/>
    <path d="M-4.4 1.7 L-5.05 1.75 -5.5 1.75 -6.0 1.8 -6.45 1.8 -6.15 5.3 -4.8 16.4 Q-4.0 18.0 -3.35 16.7 L-3.8 7.0 -3.95 1.6 -4.4 1.7" fill="none" stroke="#a0a0a0" stroke-linecap="round" stroke-linejoin="round" stroke-width="0.25"/>
    <path d="M-5.05 1.75 L-4.65 7.9 -4.3 12.55 -4.7 12.3 -5.1 7.75 -5.5 1.75" fill="none" stroke="#576cc9" stroke-linecap="round" stroke-linejoin="round" stroke-width="0.25"/>
  </g>
</svg>
