<?xml version="1.0" encoding="UTF-8" standalone="no"?>
<svg xmlns:xlink="http://www.w3.org/1999/xlink" height="13.75px" width="9.85px" xmlns="http://www.w3.org/2000/svg">
  <g transform="matrix(1.0, 0.0, 0.0, 1.0, 5.85, 5.4)">
    <path d="M-0.95 -5.4 Q1.1 -5.4 2.55 -3.45 4.0 -1.4 4.0 1.45 4.0 4.35 2.55 6.35 1.1 8.35 -0.95 8.35 -2.95 8.35 -4.4 6.35 -5.85 4.35 -5.85 1.45 -5.85 -1.4 -4.4 -3.45 -2.95 -5.4 -0.95 -5.4" fill="#ffffff" fill-rule="evenodd" stroke="none"/>
    <path d="M-0.95 -5.4 Q1.1 -5.4 2.55 -3.45 4.0 -1.4 4.0 1.45 4.0 4.35 2.55 6.35 1.1 8.35 -0.95 8.35 -2.95 8.35 -4.4 6.35 -5.85 4.35 -5.85 1.45 -5.85 -1.4 -4.4 -3.45 -2.95 -5.4 -0.95 -5.4 Z" fill="none" stroke="#000000" stroke-linecap="round" stroke-linejoin="round" stroke-width="0.05"/>
  </g>
</svg>
