<?xml version="1.0" encoding="UTF-8" standalone="no"?>
<svg xmlns:xlink="http://www.w3.org/1999/xlink" height="19.85px" width="10.6px" xmlns="http://www.w3.org/2000/svg">
  <g transform="matrix(1.0, 0.0, 0.0, 1.0, 6.6, 5.4)">
    <path d="M-0.95 -5.4 Q1.1 -5.4 2.55 -3.45 4.0 -1.4 4.0 1.45 4.0 4.35 2.55 6.35 1.1 8.35 -0.95 8.35 -2.95 8.35 -4.4 6.35 -5.85 4.35 -5.85 1.45 -5.85 -1.4 -4.4 -3.45 -2.95 -5.4 -0.95 -5.4" fill="#454b3f" fill-rule="evenodd" stroke="none"/>
    <path d="M-0.95 -5.4 Q1.1 -5.4 2.55 -3.45 4.0 -1.4 4.0 1.45 4.0 4.35 2.55 6.35 1.1 8.35 -0.95 8.35 -2.95 8.35 -4.4 6.35 -5.85 4.35 -5.85 1.45 -5.85 -1.4 -4.4 -3.45 -2.95 -5.4 -0.95 -5.4 Z" fill="none" stroke="#000000" stroke-linecap="round" stroke-linejoin="round" stroke-width="0.05"/>
    <path d="M-5.2 2.15 Q-5.35 8.0 -4.95 12.7 L-6.1 12.2 Q-6.6 7.55 -6.6 2.15 L-5.2 2.15" fill="#454b3f" fill-rule="evenodd" stroke="none"/>
    <path d="M-6.1 12.2 L-4.95 12.7 Q-5.35 8.0 -5.2 2.15 L-3.85 2.15 Q-3.8 8.8 -3.4 14.4 -4.75 14.65 -5.95 13.75 L-6.1 12.2" fill="#877b51" fill-rule="evenodd" stroke="none"/>
    <path d="M-6.1 12.2 L-5.95 13.75 Q-4.75 14.65 -3.4 14.4 -3.8 8.8 -3.85 2.15 M-6.6 2.15 Q-6.6 7.55 -6.1 12.2 Z" fill="none" stroke="#000000" stroke-linecap="round" stroke-linejoin="round" stroke-width="0.05"/>
  </g>
</svg>
