<?xml version="1.0" encoding="UTF-8" standalone="no"?>
<svg xmlns:xlink="http://www.w3.org/1999/xlink" height="28.35px" width="12.15px" xmlns="http://www.w3.org/2000/svg">
  <g transform="matrix(1.0, 0.0, 0.0, 1.0, 6.1, 14.15)">
    <path d="M-2.75 -8.8 L-2.7 -8.85 -2.75 -8.8" fill="#eebf5a" fill-rule="evenodd" stroke="none"/>
    <path d="M-2.7 -8.85 Q-2.15 -10.3 -2.5 -11.75 -0.85 -14.8 2.4 -14.0 2.1 -11.85 3.6 -9.2 L4.0 -8.9 4.65 -8.35 5.4 -7.6 5.85 -6.45 5.85 -6.3 5.85 -6.2 6.05 -3.65 5.8 1.85 Q6.0 6.5 5.35 11.5 5.65 12.15 5.35 12.75 3.6 14.8 -4.8 13.95 L-4.7 12.65 Q-4.8 10.5 -5.0 9.3 -5.25 8.1 -4.65 2.55 L-5.65 0.2 Q-7.2 -2.45 -3.4 -8.05 L-2.75 -8.8 -2.7 -8.85 M-1.9 4.25 Q-0.05 7.4 0.75 13.05 4.2 12.7 5.35 11.5 4.2 12.7 0.75 13.05 L-4.7 12.65 0.75 13.05 Q-0.05 7.4 -1.9 4.25 L-4.65 2.55 -1.9 4.25 Q2.1 5.9 5.8 1.85 2.1 5.9 -1.9 4.25 M-5.65 0.2 L-5.1 0.65 Q-3.8 1.2 -0.95 -0.75 1.8 -2.7 3.45 -2.6 4.8 -2.55 5.3 -3.65 L5.5 -4.0 5.85 -6.2 5.5 -4.0 5.3 -3.65 Q4.8 -2.55 3.45 -2.6 1.8 -2.7 -0.95 -0.75 -3.8 1.2 -5.1 0.65 L-5.65 0.2" fill="#d5a480" fill-rule="evenodd" stroke="none"/>
    <path d="M-2.75 -8.8 L-2.7 -8.85" fill="none" stroke="#003399" stroke-linecap="round" stroke-linejoin="round" stroke-width="0.05"/>
    <path d="M-2.7 -8.85 Q-2.15 -10.3 -2.5 -11.75 -0.85 -14.8 2.4 -14.0 2.1 -11.85 3.6 -9.2 L4.0 -8.9 4.65 -8.35 5.4 -7.6 5.85 -6.45 5.85 -6.3 5.85 -6.2 6.05 -3.65 5.8 1.85 Q6.0 6.5 5.35 11.5 5.65 12.15 5.35 12.75 3.6 14.8 -4.8 13.95 L-4.7 12.65 Q-4.8 10.5 -5.0 9.3 -5.25 8.1 -4.65 2.55 L-5.65 0.2 Q-7.2 -2.45 -3.4 -8.05 L-2.75 -8.8 -2.7 -8.85 M5.85 -6.2 L5.5 -4.0 5.3 -3.65 Q4.8 -2.55 3.45 -2.6 1.8 -2.7 -0.95 -0.75 -3.8 1.2 -5.1 0.65 L-5.65 0.2 M-4.65 2.55 L-1.9 4.25 Q2.1 5.9 5.8 1.85 M5.35 11.5 Q4.2 12.7 0.75 13.05 L-4.7 12.65 M0.75 13.05 Q-0.05 7.4 -1.9 4.25" fill="none" stroke="#714a1c" stroke-linecap="round" stroke-linejoin="round" stroke-width="0.05"/>
  </g>
</svg>
