<?xml version="1.0" encoding="UTF-8" standalone="no"?>
<svg xmlns:xlink="http://www.w3.org/1999/xlink" height="28.05px" width="13.1px" xmlns="http://www.w3.org/2000/svg">
  <g transform="matrix(1.0, 0.0, 0.0, 1.0, 7.05, 11.95)">
    <path d="M-6.05 -1.4 L-6.75 -1.65 Q-7.5 -3.2 -6.25 -3.8 L-6.2 -3.8 -5.65 -3.8 Q-4.05 -3.95 -2.55 -5.25 -3.8 -4.65 -5.35 -4.55 L-5.75 -4.55 -4.75 -6.55 -4.4 -6.5 -2.05 -6.55 Q-0.95 -6.85 -0.15 -7.55 L0.65 -8.2 Q-2.65 -6.65 -4.25 -7.15 L-4.5 -7.25 Q-5.25 -9.4 -2.75 -10.4 1.3 -10.6 2.75 -11.95 4.0 -11.0 3.95 -9.7 L3.95 -9.65 Q5.55 -9.2 5.9 -7.15 L5.9 -6.5 5.7 -6.95 Q5.3 -7.8 4.5 -7.8 3.3 -7.85 1.45 -6.45 L-0.9 -4.45 Q-3.8 -1.0 -6.05 -1.4 M0.65 -8.2 Q2.15 -9.25 3.95 -9.7 2.15 -9.25 0.65 -8.2" fill="#e2cfcb" fill-rule="evenodd" stroke="none"/>
    <path d="M5.7 -6.95 L5.85 -6.45 5.85 -6.3 5.85 -6.2 6.05 -3.65 6.05 -3.2 5.8 1.85 5.85 5.9 5.35 11.5 Q4.55 12.3 1.55 12.75 L1.65 12.6 Q3.3 9.7 0.65 5.8 L-1.1 4.85 Q4.15 4.35 0.95 -1.9 L1.85 -2.3 Q3.15 -5.15 1.45 -6.45 3.3 -7.85 4.5 -7.8 5.3 -7.8 5.7 -6.95" fill="#5a9e54" fill-rule="evenodd" stroke="none"/>
    <path d="M-4.7 12.65 Q-4.8 10.5 -5.0 9.3 L-4.95 5.95 -4.8 4.3 -4.75 3.7 -4.65 2.6 -4.6 2.6 -4.65 2.55 -5.6 0.25 -5.65 0.2 -5.8 -0.15 -5.9 -0.45 -6.05 -1.4 Q-3.8 -1.0 -0.9 -4.45 L1.45 -6.45 Q3.15 -5.15 1.85 -2.3 L0.95 -1.9 Q4.15 4.35 -1.1 4.85 L0.65 5.8 Q3.3 9.7 1.65 12.6 L1.4 12.8 -1.75 13.05 -1.9 13.05 -4.7 12.65" fill="#8bc087" fill-rule="evenodd" stroke="none"/>
    <path d="M5.35 11.5 Q5.65 12.15 5.6 12.75 6.1 14.95 0.5 15.25 L-3.05 15.2 Q-2.85 13.35 -1.85 13.1 L-1.75 13.05 1.4 12.8 1.55 12.75 Q4.55 12.3 5.35 11.5" fill="#87584e" fill-rule="evenodd" stroke="none"/>
    <path d="M1.65 12.6 L1.55 12.75 1.4 12.8 1.65 12.6" fill="#4b93e9" fill-rule="evenodd" stroke="none"/>
    <path d="M-3.05 15.2 Q-5.45 15.15 -5.15 13.8 -5.5 12.95 -4.7 12.65 L-1.9 13.05 -1.85 13.1 Q-2.85 13.35 -3.05 15.2 M-6.2 -3.8 L-5.95 -4.2 -5.75 -4.55 -5.35 -4.55 Q-3.8 -4.65 -2.55 -5.25 -4.05 -3.95 -5.65 -3.8 L-6.2 -3.8 M-4.75 -6.55 L-4.5 -7.15 -4.5 -7.25 -4.25 -7.15 Q-2.65 -6.65 0.65 -8.2 L-0.15 -7.55 Q-0.95 -6.85 -2.05 -6.55 L-4.4 -6.5 -4.75 -6.55" fill="#b18378" fill-rule="evenodd" stroke="none"/>
    <path d="M-1.75 13.05 L-1.85 13.1 -1.9 13.05 -1.75 13.05" fill="#eebf5a" fill-rule="evenodd" stroke="none"/>
    <path d="M5.35 11.5 Q5.65 12.15 5.6 12.75 6.1 14.95 0.5 15.25 L-3.05 15.2 Q-5.45 15.15 -5.15 13.8 -5.5 12.95 -4.7 12.65 L-1.9 13.05 -1.85 13.1 -1.75 13.05 1.4 12.8 1.55 12.75 Q4.55 12.3 5.35 11.5 M-6.05 -1.4 L-6.75 -1.65 Q-7.5 -3.2 -6.25 -3.8 L-6.2 -3.8 -5.95 -4.2 -5.75 -4.55 -4.75 -6.55 -4.5 -7.15 -4.5 -7.25 Q-5.25 -9.4 -2.75 -10.4 1.3 -10.6 2.75 -11.95 4.0 -11.0 3.95 -9.7 L3.95 -9.65 Q5.55 -9.2 5.9 -7.15 L5.9 -6.5 5.7 -6.95 Q5.3 -7.8 4.5 -7.8 3.3 -7.85 1.45 -6.45 L-0.9 -4.45 Q-3.8 -1.0 -6.05 -1.4 M3.95 -9.7 Q2.15 -9.25 0.65 -8.2 M-2.55 -5.25 Q-4.05 -3.95 -5.65 -3.8 L-6.2 -3.8" fill="none" stroke="#7b5046" stroke-linecap="round" stroke-linejoin="round" stroke-width="0.05"/>
    <path d="M5.7 -6.95 L5.85 -6.45 5.85 -6.3 5.85 -6.2 6.05 -3.65 6.05 -3.2 5.8 1.85 M-4.65 2.55 L-5.6 0.25 M-5.65 0.2 L-5.8 -0.15 -5.9 -0.45 -6.05 -1.4 M1.65 12.6 L1.55 12.75 M1.65 12.6 L1.4 12.8" fill="none" stroke="#666666" stroke-linecap="round" stroke-linejoin="round" stroke-width="0.05"/>
    <path d="M5.8 1.85 L5.85 5.9 5.35 11.5 M-4.7 12.65 Q-4.8 10.5 -5.0 9.3 L-4.95 5.95 -4.8 4.3 -4.75 3.7 -4.65 2.6 -4.6 2.6 -4.65 2.55 M-1.75 13.05 L-1.9 13.05" fill="none" stroke="#666666" stroke-linecap="round" stroke-linejoin="round" stroke-width="0.05"/>
    <path d="M-4.3 12.85 L-4.55 12.05 Q-4.85 11.45 -5.2 11.5 -5.6 11.5 -5.8 12.2 L-5.9 12.45 -6.05 13.75 -5.8 15.1 -5.7 15.25 Q-5.45 15.85 -5.05 15.8 L-4.55 15.4 -4.45 15.1 Q-4.15 14.45 -4.2 13.6 L-4.3 12.85 M-4.05 12.85 L-4.0 13.55 Q-3.95 14.55 -4.2 15.3 L-4.25 15.4 Q-4.55 16.05 -4.95 16.1 -5.4 16.15 -5.7 15.45 L-5.9 15.05 -6.1 13.75 -5.95 12.4 -5.85 11.95 Q-5.55 11.2 -5.15 11.15 -4.7 11.1 -4.35 11.8 L-4.05 12.85 M-5.2 12.95 L-5.25 13.25 -5.4 13.4 -5.6 13.3 -5.7 13.0 -5.6 12.6 -5.6 12.55 -5.45 12.45 -5.3 12.6 -5.25 12.65 -5.2 12.95" fill="#ffffff" fill-rule="evenodd" stroke="none"/>
    <path d="M-4.3 12.85 L-4.2 13.6 Q-4.15 14.45 -4.45 15.1 L-4.55 15.4 -5.05 15.8 Q-5.45 15.85 -5.7 15.25 L-5.8 15.1 -6.05 13.75 -5.9 12.45 -5.8 12.2 Q-5.6 11.5 -5.2 11.5 -4.85 11.45 -4.55 12.05 L-4.3 12.85 M-5.2 12.95 L-5.25 12.65 -5.3 12.6 -5.45 12.45 -5.6 12.55 -5.6 12.6 -5.7 13.0 -5.6 13.3 -5.4 13.4 -5.25 13.25 -5.2 12.95" fill="#8bd7fe" fill-rule="evenodd" stroke="none"/>
    <path d="M-4.05 12.85 L-4.0 13.55 Q-3.95 14.55 -4.2 15.3 L-4.25 15.4 Q-4.55 16.05 -4.95 16.1 -5.4 16.15 -5.7 15.45 L-5.9 15.05 -6.1 13.75 -5.95 12.4 -5.85 11.95 Q-5.55 11.2 -5.15 11.15 -4.7 11.1 -4.35 11.8 L-4.05 12.85 Z" fill="none" stroke="#a0a0a0" stroke-linecap="round" stroke-linejoin="round" stroke-width="0.05"/>
  </g>
</svg>
