<?xml version="1.0" encoding="UTF-8" standalone="no"?>
<svg xmlns:xlink="http://www.w3.org/1999/xlink" height="24.45px" width="12.55px" xmlns="http://www.w3.org/2000/svg">
  <g transform="matrix(1.0, 0.0, 0.0, 1.0, 6.5, 9.2)">
    <path d="M-4.65 2.55 L-4.6 2.6 -4.65 2.6 -4.65 2.55 M-1.85 13.1 L-1.9 13.05 -1.75 13.05 -1.85 13.1" fill="#eebf5a" fill-rule="evenodd" stroke="none"/>
    <path d="M4.55 -8.65 L5.1 -8.05 5.25 -7.9 5.4 -7.65 5.85 -6.45 5.85 -6.3 5.85 -6.2 5.5 -4.0 5.3 -3.65 5.0 -3.2 Q4.45 -2.6 3.45 -2.6 1.8 -2.7 -0.95 -0.75 -3.4 0.95 -4.75 0.75 L-5.0 0.7 -5.1 0.65 -5.6 0.25 -5.65 0.2 -5.8 -0.15 -5.95 -0.15 -6.3 0.25 -6.4 0.65 -6.45 0.9 -6.4 2.25 -5.95 3.5 -5.85 3.65 -5.15 4.1 -4.75 3.7 -4.8 4.3 -5.0 4.4 Q-5.45 4.5 -5.85 3.85 L-6.05 3.45 -6.45 2.25 -6.5 0.9 -6.45 0.4 -6.45 0.25 Q-6.3 -0.35 -5.9 -0.45 -6.15 -1.15 -6.05 -1.95 -5.95 -3.8 -4.45 -6.45 L-4.3 -6.7 Q2.35 -6.05 4.55 -8.65 M-5.9 -0.45 L-5.8 -0.15 -5.9 -0.45 M-6.15 0.95 L-6.0 0.85 -5.85 1.0 -5.8 1.05 -5.7 1.3 -5.7 1.6 -5.85 1.8 -6.05 1.7 -6.15 1.45 -6.15 1.05 -6.15 0.95" fill="#ffffff" fill-rule="evenodd" stroke="none"/>
    <path d="M5.85 -6.2 L6.05 -3.65 6.05 -3.2 5.8 1.85 Q5.65 9.6 -1.9 4.25 L-4.35 2.75 -4.6 2.6 -4.65 2.55 -5.6 0.25 -5.65 0.2 -5.6 0.25 -5.1 0.65 -5.0 0.7 -4.75 0.75 Q-3.4 0.95 -0.95 -0.75 1.8 -2.7 3.45 -2.6 4.45 -2.6 5.0 -3.2 L5.3 -3.65 5.5 -4.0 5.85 -6.2" fill="#e0e0e0" fill-rule="evenodd" stroke="none"/>
    <path d="M5.8 1.85 L5.85 5.9 5.35 11.5 Q5.65 12.15 5.6 12.75 6.2 15.6 -3.05 15.2 -2.85 13.35 -1.85 13.1 L-1.75 13.05 -1.9 13.05 Q0.15 8.75 -1.05 5.95 L-1.9 4.25 Q5.65 9.6 5.8 1.85 M-4.3 -6.7 Q-4.35 -7.7 -3.4 -8.05 L-3.1 -8.05 -1.75 -8.05 Q2.2 -8.1 3.6 -9.2 L3.9 -9.1 4.55 -8.65 Q2.35 -6.05 -4.3 -6.7 M-1.75 13.05 Q4.2 12.7 5.35 11.5 4.2 12.7 -1.75 13.05" fill="#4b93e9" fill-rule="evenodd" stroke="none"/>
    <path d="M-5.65 0.2 L-5.6 0.25 -4.65 2.55 -4.65 2.6 -4.75 3.7 -5.15 4.1 -5.85 3.65 -5.95 3.5 -6.4 2.25 -6.45 0.9 -6.4 0.65 -6.3 0.25 -5.95 -0.15 -5.8 -0.15 -5.65 0.2 M-6.15 0.95 L-6.15 1.05 -6.15 1.45 -6.05 1.7 -5.85 1.8 -5.7 1.6 -5.7 1.3 -5.8 1.05 -5.85 1.0 -6.0 0.85 -6.15 0.95" fill="#8bd7fe" fill-rule="evenodd" stroke="none"/>
    <path d="M-3.05 15.2 Q-5.45 15.15 -5.15 13.8 -5.5 12.95 -4.7 12.65 -4.8 10.5 -5.0 9.3 L-4.95 5.95 -4.8 4.3 -4.75 3.7 -4.65 2.6 -4.6 2.6 -4.35 2.75 -1.9 4.25 -1.05 5.95 Q0.15 8.75 -1.9 13.05 L-4.7 12.65 -1.9 13.05 -1.85 13.1 Q-2.85 13.35 -3.05 15.2" fill="#82b5f0" fill-rule="evenodd" stroke="none"/>
    <path d="M-4.65 2.55 L-4.6 2.6 M-4.65 2.6 L-4.65 2.55" fill="none" stroke="#003399" stroke-linecap="round" stroke-linejoin="round" stroke-width="0.05"/>
    <path d="M4.55 -8.65 L5.1 -8.05 5.25 -7.9 5.4 -7.65 5.85 -6.45 5.85 -6.3 5.85 -6.2 6.05 -3.65 6.05 -3.2 5.8 1.85 M-4.8 4.3 L-5.0 4.4 Q-5.45 4.5 -5.85 3.85 L-6.05 3.45 -6.45 2.25 -6.5 0.9 -6.45 0.4 -6.45 0.25 Q-6.3 -0.35 -5.9 -0.45 -6.15 -1.15 -6.05 -1.95 -5.95 -3.8 -4.45 -6.45 L-4.3 -6.7 M-5.65 0.2 L-5.6 0.25 -4.65 2.55 M-5.8 -0.15 L-5.9 -0.45 M-5.65 0.2 L-5.8 -0.15" fill="none" stroke="#a0a0a0" stroke-linecap="round" stroke-linejoin="round" stroke-width="0.05"/>
    <path d="M5.8 1.85 L5.85 5.9 5.35 11.5 Q5.65 12.15 5.6 12.75 6.2 15.6 -3.05 15.2 -5.45 15.15 -5.15 13.8 -5.5 12.95 -4.7 12.65 -4.8 10.5 -5.0 9.3 L-4.95 5.95 -4.8 4.3 -4.75 3.7 -4.65 2.6 -4.6 2.6 -4.35 2.75 -1.9 4.25 Q5.65 9.6 5.8 1.85 M-4.3 -6.7 Q-4.35 -7.7 -3.4 -8.05 L-3.1 -8.05 -1.75 -8.05 Q2.2 -8.1 3.6 -9.2 L3.9 -9.1 4.55 -8.65 Q2.35 -6.05 -4.3 -6.7 M-1.9 13.05 L-4.7 12.65 M-1.9 13.05 L-1.85 13.1 -1.75 13.05 -1.9 13.05 M5.35 11.5 Q4.2 12.7 -1.75 13.05" fill="none" stroke="#155fa6" stroke-linecap="round" stroke-linejoin="round" stroke-width="0.05"/>
  </g>
</svg>
