<?xml version="1.0" encoding="UTF-8" standalone="no"?>
<svg xmlns:xlink="http://www.w3.org/1999/xlink" height="29.4px" width="13.3px" xmlns="http://www.w3.org/2000/svg">
  <g transform="matrix(1.0, 0.0, 0.0, 1.0, 7.25, 11.9)">
    <path d="M5.6 10.5 L5.6 10.55 5.55 10.5 5.6 10.5 M-4.65 2.55 L-5.65 0.2 -5.1 0.65 -4.35 0.8 -3.6 2.6 -3.7 3.25 -4.65 2.55 M3.6 -9.2 L3.45 -9.1 3.6 -9.2" fill="#f2f2f2" fill-rule="evenodd" stroke="none"/>
    <path d="M5.8 11.55 L5.9 13.25 Q1.7 15.3 -1.95 15.1 L-1.8 13.6 -0.8 13.6 Q2.05 13.5 5.45 11.75 L5.8 11.55 M-5.0 16.2 Q-5.75 15.05 -5.55 13.45 L-4.85 13.65 -3.35 13.55 -3.35 15.0 -5.0 16.2" fill="#576bca" fill-rule="evenodd" stroke="none"/>
    <path d="M5.6 10.55 L5.8 11.55 5.45 11.75 Q2.05 13.5 -0.8 13.6 L-1.8 13.6 -1.95 15.1 Q1.7 15.3 5.9 13.25 5.8 14.1 5.3 14.65 3.85 15.7 0.7 15.85 -2.45 16.0 -3.6 17.5 L-5.0 16.2 -3.35 15.0 -3.35 13.55 -4.85 13.65 -5.55 13.45 -5.2 12.05 -5.15 12.05 -4.3 12.35 -3.0 12.6 Q-1.0 12.9 0.95 12.55 3.3 12.05 5.55 10.5 L5.6 10.55" fill="#263959" fill-rule="evenodd" stroke="none"/>
    <path d="M5.85 6.2 L5.6 10.5 5.55 10.5 Q3.3 12.05 0.95 12.55 1.95 9.85 1.8 8.05 3.65 7.4 5.85 6.2" fill="#e0e0e0" fill-rule="evenodd" stroke="none"/>
    <path d="M-5.15 12.05 Q-5.45 10.55 -5.35 9.6 L-4.65 2.55 -3.7 3.25 Q-4.6 9.5 -4.3 12.35 L-5.15 12.05 M-5.65 0.2 L-5.7 0.1 -4.8 -0.25 -4.35 0.8 -5.1 0.65 -5.65 0.2 M-5.75 -3.5 L-5.15 -5.05 -3.4 -8.05 -3.6 -8.2 Q-4.2 -8.7 -4.15 -9.45 L-2.95 -9.45 Q-3.05 -8.6 -2.2 -7.9 -4.15 -5.75 -4.9 -3.25 L-5.7 -3.5 -5.75 -3.5 M1.8 8.05 Q1.95 9.85 0.95 12.55 -1.0 12.9 -3.0 12.6 -3.5 10.15 -3.0 8.7 -0.95 9.0 1.8 8.05 M-6.15 -2.85 L-5.65 -3.05 -5.1 -2.85 -4.9 -2.4 -5.1 -1.9 Q-5.3 -1.7 -5.65 -1.7 L-6.15 -1.9 Q-6.35 -2.1 -6.35 -2.4 L-6.15 -2.85" fill="#ffffff" fill-rule="evenodd" stroke="none"/>
    <path d="M-4.15 -9.45 L-3.95 -10.45 Q-0.6 -12.0 2.5 -11.9 L2.15 -10.55 Q2.6 -9.5 2.2 -8.5 L0.15 -7.95 Q3.05 -6.85 1.85 -3.65 L1.0 -1.95 -0.4 -1.15 -4.25 -0.9 -0.4 -1.15 -0.5 -1.05 -0.95 -0.75 Q-3.1 0.7 -4.35 0.8 L-4.8 -0.25 -4.6 -0.45 -4.25 -0.9 Q-4.1 -1.25 -4.1 -1.7 L-4.2 -2.35 -4.6 -3.0 -4.9 -3.25 Q-4.15 -5.75 -2.2 -7.9 -3.05 -8.6 -2.95 -9.45 L-4.15 -9.45 M-2.8 -10.1 Q0.15 -9.55 2.15 -10.55 0.15 -9.55 -2.8 -10.1 M-3.7 3.25 Q-2.65 3.95 -1.9 4.25 L-0.7 4.65 Q1.6 5.55 1.8 8.05 -0.95 9.0 -3.0 8.7 -3.5 10.15 -3.0 12.6 L-4.3 12.35 Q-4.6 9.5 -3.7 3.25 M1.85 -3.65 Q-1.8 -2.3 -4.2 -2.35 -1.8 -2.3 1.85 -3.65 M0.15 -7.95 L-2.2 -7.9 0.15 -7.95" fill="#5a5a5a" fill-rule="evenodd" stroke="none"/>
    <path d="M2.5 -11.9 L3.6 -11.8 Q4.4 -10.5 3.6 -9.2 L3.9 -9.1 5.1 -8.05 5.25 -7.9 5.85 -6.45 5.85 -6.3 5.85 -6.2 5.95 -5.45 6.05 -3.65 6.05 -3.45 5.8 1.85 5.85 6.2 Q3.65 7.4 1.8 8.05 1.6 5.55 -0.7 4.65 L-1.9 4.25 Q-2.65 3.95 -3.7 3.25 L-3.6 2.6 -4.35 0.8 Q-3.1 0.7 -0.95 -0.75 L-0.5 -1.05 -0.4 -1.15 1.0 -1.95 1.85 -3.65 Q3.05 -6.85 0.15 -7.95 L2.2 -8.5 Q2.6 -9.5 2.15 -10.55 L2.5 -11.9 M2.9 -11.0 L2.15 -10.55 2.9 -11.0 M3.45 -9.1 L3.6 -9.2 3.45 -9.1 2.75 -8.7 2.2 -8.5 2.75 -8.7 3.45 -9.1 M6.05 -3.45 Q2.65 -1.7 -0.4 -1.15 2.65 -1.7 6.05 -3.45 M5.95 -5.45 Q3.7 -4.4 1.85 -3.65 3.7 -4.4 5.95 -5.45" fill="#000000" fill-rule="evenodd" stroke="none"/>
    <path d="M-5.7 0.1 Q-6.35 0.1 -6.8 -0.45 -7.25 -0.95 -7.25 -1.7 -7.25 -2.45 -6.8 -3.0 -6.4 -3.45 -5.75 -3.5 L-5.7 -3.5 -4.9 -3.25 -4.6 -3.0 -4.2 -2.35 -4.1 -1.7 Q-4.1 -1.25 -4.25 -0.9 L-4.6 -0.45 -4.8 -0.25 -5.7 0.1 M-6.15 -2.85 L-6.35 -2.4 Q-6.35 -2.1 -6.15 -1.9 L-5.65 -1.7 Q-5.3 -1.7 -5.1 -1.9 L-4.9 -2.4 -5.1 -2.85 -5.65 -3.05 -6.15 -2.85" fill="#ff9933" fill-rule="evenodd" stroke="none"/>
    <path d="M5.6 10.55 L5.8 11.55 5.9 13.25 Q5.8 14.1 5.3 14.65 3.85 15.7 0.7 15.85 -2.45 16.0 -3.6 17.5 L-5.0 16.2 Q-5.75 15.05 -5.55 13.45 L-5.2 12.05 -5.15 12.05 -4.3 12.35 -3.0 12.6 Q-1.0 12.9 0.95 12.55 3.3 12.05 5.55 10.5 L5.6 10.55" fill="none" stroke="#000000" stroke-linecap="round" stroke-linejoin="round" stroke-width="0.05"/>
    <path d="M2.5 -11.9 L3.6 -11.8 Q4.4 -10.5 3.6 -9.2 L3.9 -9.1 5.1 -8.05 5.25 -7.9 5.85 -6.45 5.85 -6.3 5.85 -6.2 5.95 -5.45 6.05 -3.65 6.05 -3.45 5.8 1.85 5.85 6.2 5.6 10.5 5.6 10.55 M-5.65 0.2 L-5.7 0.1 M-4.15 -9.45 L-3.95 -10.45 Q-0.6 -12.0 2.5 -11.9 M2.15 -10.55 L2.9 -11.0 M0.15 -7.95 L2.2 -8.5 2.75 -8.7 3.45 -9.1 3.6 -9.2 3.45 -9.1 M2.15 -10.55 Q0.15 -9.55 -2.8 -10.1 M-0.4 -1.15 Q2.65 -1.7 6.05 -3.45 M1.85 -3.65 Q3.7 -4.4 5.95 -5.45 M-4.25 -0.9 L-0.4 -1.15 M-4.2 -2.35 Q-1.8 -2.3 1.85 -3.65 M-2.2 -7.9 L0.15 -7.95" fill="none" stroke="#a0a0a0" stroke-linecap="round" stroke-linejoin="round" stroke-width="0.05"/>
    <path d="M-5.15 12.05 Q-5.45 10.55 -5.35 9.6 L-4.65 2.55 -5.65 0.2 M-5.75 -3.5 L-5.15 -5.05 -3.4 -8.05 -3.6 -8.2 Q-4.2 -8.7 -4.15 -9.45 L-2.95 -9.45 Q-3.05 -8.6 -2.2 -7.9 -4.15 -5.75 -4.9 -3.25 M-4.35 0.8 L-3.6 2.6 -3.7 3.25 Q-4.6 9.5 -4.3 12.35 M-4.8 -0.25 L-4.35 0.8" fill="none" stroke="#f47b02" stroke-linecap="round" stroke-linejoin="round" stroke-width="0.25"/>
  </g>
</svg>
