<?xml version="1.0" encoding="UTF-8" standalone="no"?>
<svg xmlns:xlink="http://www.w3.org/1999/xlink" height="29.6px" width="13.45px" xmlns="http://www.w3.org/2000/svg">
  <g transform="matrix(1.0, 0.0, 0.0, 1.0, 7.4, 13.35)">
    <path d="M-4.65 2.55 Q-5.35 1.9 -5.85 0.7 L-4.95 0.65 -4.6 0.6 -4.95 0.65 -4.6 1.35 -3.75 2.5 -3.85 3.15 -4.65 2.55" fill="#f2f2f2" fill-rule="evenodd" stroke="none"/>
    <path d="M-5.35 10.3 L-5.35 9.6 -4.65 2.55 -3.85 3.15 Q-4.45 7.4 -4.45 10.3 L-5.35 10.3 M-6.1 -1.55 Q-6.15 -3.9 -3.75 -7.5 L-3.7 -7.45 -3.15 -7.3 Q-5.2 -4.4 -5.2 -1.45 L-6.1 -1.55" fill="#ffffff" fill-rule="evenodd" stroke="none"/>
    <path d="M0.2 -7.95 Q2.55 -7.0 2.15 -4.7 -2.45 -1.55 -5.2 -1.45 -5.2 -4.4 -3.15 -7.3 -1.55 -6.95 0.2 -7.95 M-3.85 3.15 L-1.9 4.25 -0.7 4.65 Q2.95 6.1 1.3 11.5 L-3.35 11.8 -3.7 10.3 -4.45 10.3 Q-4.45 7.4 -3.85 3.15" fill="#b6cac8" fill-rule="evenodd" stroke="none"/>
    <path d="M3.65 -9.2 L3.9 -9.1 5.1 -8.05 5.25 -7.9 5.6 -7.3 5.85 -6.45 5.85 -6.3 5.85 -6.2 6.05 -3.65 5.8 1.85 Q5.95 5.45 5.6 10.05 3.8 11.05 1.3 11.5 2.95 6.1 -0.7 4.65 L-1.9 4.25 -3.85 3.15 -3.75 2.5 -4.6 1.35 -4.95 0.65 -4.6 0.6 Q-1.75 0.15 1.35 -2.6 3.4 -4.45 5.6 -7.3 L2.15 -4.7 Q2.55 -7.0 0.2 -7.95 L0.25 -8.0 0.15 -8.15 Q-0.5 -9.3 -0.65 -11.95 -3.75 -11.4 -4.95 -11.95 1.35 -14.05 3.95 -12.95 4.85 -10.05 3.65 -9.2" fill="#809b96" fill-rule="evenodd" stroke="none"/>
    <path d="M-3.75 -7.5 Q-5.5 -9.3 -4.95 -11.95 -3.75 -11.4 -0.65 -11.95 -0.5 -9.3 0.15 -8.15 L0.25 -8.0 0.2 -7.95 Q-1.55 -6.95 -3.15 -7.3 L-3.7 -7.45 -3.75 -7.5 M-2.05 -9.65 L-1.7 -8.95 Q-1.5 -8.7 -1.3 -8.75 -1.1 -8.8 -1.05 -9.15 L-1.1 -9.9 -1.45 -10.65 Q-1.7 -10.95 -1.85 -10.85 L-2.1 -10.45 -2.05 -9.65" fill="#224156" fill-rule="evenodd" stroke="none"/>
    <path d="M-5.85 0.7 L-6.25 0.05 Q-6.55 -0.7 -6.1 -1.55 L-5.2 -1.45 Q-2.45 -1.55 2.15 -4.7 L1.35 -2.6 Q-1.75 0.15 -4.6 0.6 L-4.95 0.65 -5.85 0.7 M-2.05 -9.65 L-2.1 -10.45 -1.85 -10.85 Q-1.7 -10.95 -1.45 -10.65 L-1.1 -9.9 -1.05 -9.15 Q-1.1 -8.8 -1.3 -8.75 -1.5 -8.7 -1.7 -8.95 L-2.05 -9.65" fill="#fffca8" fill-rule="evenodd" stroke="none"/>
    <path d="M2.15 -4.7 L5.6 -7.3 Q3.4 -4.45 1.35 -2.6 L2.15 -4.7" fill="#b8a434" fill-rule="evenodd" stroke="none"/>
    <path d="M-5.65 14.75 L-6.5 11.7 -4.75 11.7 -4.15 13.95 -4.15 14.0 -3.95 14.85 -5.65 14.75 M1.3 11.5 L0.75 13.05 Q-0.65 13.75 -2.85 13.9 L-3.35 11.8 1.3 11.5" fill="#2f3f4a" fill-rule="evenodd" stroke="none"/>
    <path d="M5.6 10.05 L5.35 12.75 Q4.8 13.4 3.55 13.8 1.45 14.55 -2.6 15.0 L-2.85 13.9 Q-0.65 13.75 0.75 13.05 L1.3 11.5 Q3.8 11.05 5.6 10.05" fill="#000000" fill-rule="evenodd" stroke="none"/>
    <path d="M-2.6 15.0 L-2.35 16.25 -5.65 16.25 Q-6.4 15.3 -5.65 14.75 L-3.95 14.85 -4.15 14.0 -4.15 13.95 -4.75 11.7 -6.5 11.7 Q-8.05 11.1 -6.95 10.3 L-5.35 10.3 -4.45 10.3 -3.7 10.3 -3.35 11.8 -2.85 13.9 -2.6 15.0" fill="#8f8b96" fill-rule="evenodd" stroke="none"/>
    <path d="M3.65 -9.2 L3.9 -9.1 5.1 -8.05 5.25 -7.9 5.6 -7.3 5.85 -6.45 5.85 -6.3 5.85 -6.2 6.05 -3.65 5.8 1.85 Q5.95 5.45 5.6 10.05 L5.35 12.75 Q4.8 13.4 3.55 13.8 1.45 14.55 -2.6 15.0 L-2.35 16.25 -5.65 16.25 Q-6.4 15.3 -5.65 14.75 L-6.5 11.7 Q-8.05 11.1 -6.95 10.3 L-5.35 10.3 -4.45 10.3 -3.7 10.3 -3.35 11.8 1.3 11.5 Q3.8 11.05 5.6 10.05 M-2.85 13.9 L-2.6 15.0 M-6.5 11.7 L-4.75 11.7 -4.15 13.95 -4.15 14.0 -3.95 14.85 -5.65 14.75 M-2.85 13.9 L-3.35 11.8" fill="none" stroke="#000000" stroke-linecap="round" stroke-linejoin="round" stroke-width="0.05"/>
    <path d="M-4.95 -11.95 Q1.35 -14.05 3.95 -12.95 4.85 -10.05 3.65 -9.2" fill="none" stroke="#000000" stroke-linecap="round" stroke-linejoin="round" stroke-width="0.05"/>
    <path d="M-5.35 10.3 L-5.35 9.6 -4.65 2.55 Q-5.35 1.9 -5.85 0.7 M-6.1 -1.55 Q-6.15 -3.9 -3.75 -7.5 -5.5 -9.3 -4.95 -11.95 -3.75 -11.4 -0.65 -11.95 -0.5 -9.3 0.15 -8.15 L0.25 -8.0 0.2 -7.95 Q-1.55 -6.95 -3.15 -7.3 -5.2 -4.4 -5.2 -1.45 M-4.6 0.6 L-4.95 0.65 -4.6 1.35 -3.75 2.5 -3.85 3.15 Q-4.45 7.4 -4.45 10.3 M-3.75 -7.5 L-3.7 -7.45 -3.15 -7.3" fill="none" stroke="#999999" stroke-linecap="round" stroke-linejoin="round" stroke-width="0.05"/>
    <path d="M-5.85 0.7 L-6.25 0.05 Q-6.55 -0.7 -6.1 -1.55 M5.6 -7.3 Q3.4 -4.45 1.35 -2.6 -1.75 0.15 -4.6 0.6 M-4.95 0.65 L-5.85 0.7" fill="none" stroke="#c0b101" stroke-linecap="round" stroke-linejoin="round" stroke-width="0.05"/>
  </g>
</svg>
