<?xml version="1.0" encoding="UTF-8" standalone="no"?>
<svg xmlns:xlink="http://www.w3.org/1999/xlink" height="13.1px" width="13.4px" xmlns="http://www.w3.org/2000/svg">
  <g transform="matrix(1.0, 0.0, 0.0, 1.0, 6.7, 4.25)">
    <path d="M2.05 -1.6 L6.55 -1.6 6.6 -0.25 6.5 0.7 6.5 0.9 6.45 1.4 6.6 2.5 Q6.8 3.25 6.6 3.8 L6.0 6.65 5.65 7.75 4.45 6.6 4.2 6.15 Q3.55 6.7 3.05 5.9 2.5 5.0 2.5 4.1 L2.5 3.7 Q2.55 3.05 2.85 2.65 L3.25 2.2 3.25 1.4 3.1 0.65 Q2.75 -0.65 2.05 -1.6 L0.5 -2.25 Q-2.6 -3.2 -5.5 -2.8 L-4.6 -3.3 Q-2.65 -4.25 0.15 -4.25 2.9 -4.25 4.8 -3.3 6.15 -2.65 6.5 -1.75 L6.5 -1.65 6.55 -1.6 2.05 -1.6 M4.6 2.55 Q4.3 2.05 3.75 2.05 L3.25 2.2 3.75 2.05 Q4.3 2.05 4.6 2.55 M3.3 4.35 L3.25 3.7 3.45 3.0 Q3.7 2.6 3.85 2.7 3.7 2.6 3.45 3.0 L4.1 3.55 4.3 4.5 4.2 5.35 4.3 4.5 4.1 3.55 3.45 3.0 3.25 3.7 3.3 4.35 M3.3 5.45 L3.8 5.55 Q3.4 5.05 4.3 4.5 3.4 5.05 3.8 5.55 L3.3 5.45" fill="#a56c5f" fill-rule="evenodd" stroke="none"/>
    <path d="M5.65 7.75 Q5.45 8.75 4.95 8.85 L3.55 8.8 3.45 7.9 3.45 7.8 3.15 7.7 2.5 7.55 1.75 7.45 1.65 7.45 1.5 7.45 1.4 7.45 Q-6.45 7.65 -6.7 -0.25 L-6.7 -0.7 -6.55 -1.6 2.05 -1.6 Q2.75 -0.65 3.1 0.65 L3.25 1.4 3.25 2.2 2.85 2.65 Q2.55 3.05 2.5 3.7 L2.5 4.1 Q2.5 5.0 3.05 5.9 3.55 6.7 4.2 6.15 L4.45 6.6 5.65 7.75 M-5.5 -2.8 Q-2.6 -3.2 0.5 -2.25 L2.05 -1.6 -6.55 -1.6 -6.5 -1.75 -5.5 -2.8" fill="#784d43" fill-rule="evenodd" stroke="none"/>
    <path d="M6.55 -1.6 L6.6 -0.25 6.5 0.7 6.5 0.9 6.45 1.4 6.6 2.5 Q6.8 3.25 6.6 3.8 L6.0 6.65 5.65 7.75 Q5.45 8.75 4.95 8.85 L3.55 8.8 3.45 7.9 3.45 7.8 M1.4 7.45 Q-6.45 7.65 -6.7 -0.25 L-6.7 -0.7 -6.55 -1.6 -6.5 -1.75 -5.5 -2.8 -4.6 -3.3 Q-2.65 -4.25 0.15 -4.25 2.9 -4.25 4.8 -3.3 6.15 -2.65 6.5 -1.75 L6.5 -1.65 6.55 -1.6 M3.25 2.2 L3.75 2.05 Q4.3 2.05 4.6 2.55 M4.2 6.15 Q3.55 6.7 3.05 5.9 2.5 5.0 2.5 4.1 L2.5 3.7 Q2.55 3.05 2.85 2.65 L3.25 2.2 M3.85 2.7 Q3.7 2.6 3.45 3.0 L4.1 3.55 4.3 4.5 4.2 5.35 M4.3 4.5 Q3.4 5.05 3.8 5.55 L3.3 5.45 M3.45 3.0 L3.25 3.7 3.3 4.35" fill="none" stroke="#68413c" stroke-linecap="round" stroke-linejoin="round" stroke-width="0.05"/>
  </g>
</svg>
