<?xml version="1.0" encoding="UTF-8" standalone="no"?>
<svg xmlns:xlink="http://www.w3.org/1999/xlink" height="15.15px" width="17.25px" xmlns="http://www.w3.org/2000/svg">
  <g transform="matrix(1.0, 0.0, 0.0, 1.0, 11.65, 6.15)">
    <path d="M5.25 -1.7 L5.25 -1.65 5.45 -0.9 5.55 0.65 4.75 -0.3 4.75 -0.2 Q4.65 2.0 3.45 4.3 L3.45 4.2 2.7 4.45 2.35 4.8 Q1.6 5.95 1.95 7.2 L2.15 7.7 Q-2.8 10.0 -4.95 8.3 L-6.85 6.65 Q-7.65 7.5 -7.8 8.8 -8.55 7.65 -8.05 5.45 -9.55 5.7 -10.85 6.8 -10.7 3.6 -8.05 0.55 -9.95 0.0 -11.65 0.5 -10.0 -2.25 -7.0 -2.15 -7.45 -3.6 -10.45 -4.35 -1.0 -9.0 5.2 -1.7 L5.25 -1.7" fill="#ffffcc" fill-rule="evenodd" stroke="none"/>
    <path d="M5.2 -1.7 Q-1.0 -9.0 -10.45 -4.35 -7.45 -3.6 -7.0 -2.15 -10.0 -2.25 -11.65 0.5 -9.95 0.0 -8.05 0.55 -10.7 3.6 -10.85 6.8 -9.55 5.7 -8.05 5.45 -8.55 7.65 -7.8 8.8 -7.65 7.5 -6.85 6.65 L-4.95 8.3 Q-2.8 10.0 2.15 7.7 L1.95 7.2 Q1.6 5.95 2.35 4.8 L2.7 4.45 3.45 4.2 3.45 4.3 Q4.65 2.0 4.75 -0.2 L4.75 -0.3 5.55 0.65 5.45 -0.9 5.25 -1.65 5.25 -1.7" fill="none" stroke="#d3d301" stroke-linecap="round" stroke-linejoin="round" stroke-width="0.05"/>
    <path d="M4.2 1.8 Q4.9 5.45 2.9 8.85 3.5 5.9 2.85 3.4 L2.8 3.2 4.2 1.8" fill="#ffffcc" fill-rule="evenodd" stroke="none"/>
    <path d="M2.8 3.2 L2.85 3.4 Q3.5 5.9 2.9 8.85 4.9 5.45 4.2 1.8" fill="none" stroke="#d3d301" stroke-linecap="round" stroke-linejoin="round" stroke-width="0.05"/>
  </g>
</svg>
