<?xml version="1.0" encoding="UTF-8" standalone="no"?>
<svg xmlns:xlink="http://www.w3.org/1999/xlink" height="7.45px" width="13.1px" xmlns="http://www.w3.org/2000/svg">
  <g transform="matrix(1.0, 0.0, 0.0, 1.0, 6.65, 3.75)">
    <path d="M4.35 -2.5 L4.45 -2.4 4.35 -2.5" fill="#d1d1d1" fill-rule="evenodd" stroke="none"/>
    <path d="M-5.1 2.35 L-6.4 0.95 Q-6.7 0.4 -6.65 -0.25 L-6.1 -1.55 Q-5.65 -2.25 -4.05 -3.1 -2.5 -3.95 0.1 -3.65 2.65 -3.45 4.35 -2.5 L4.45 -2.4 4.95 -1.65 5.0 -1.2 5.05 -0.95 5.05 -0.9 5.0 -0.5 5.0 -0.3 4.7 0.1 4.6 0.2 4.2 0.75 4.1 0.85 4.0 1.0 4.0 0.95 3.1 1.6 Q2.1 2.2 0.75 2.4 -1.6 2.8 -5.1 2.35" fill="#666666" fill-rule="evenodd" stroke="none"/>
    <path d="M4.45 -2.4 L4.8 -2.2 5.45 -1.75 5.8 -1.35 6.15 -0.9 6.25 -0.8 Q6.55 -0.2 6.45 0.55 L6.4 0.85 Q6.1 2.15 4.25 2.95 L2.65 3.5 1.8 3.65 -0.45 3.7 Q-3.2 3.55 -5.0 2.4 L-5.1 2.35 Q-1.6 2.8 0.75 2.4 2.1 2.2 3.1 1.6 L4.0 0.95 4.0 1.0 4.1 0.85 4.2 0.75 4.6 0.2 4.7 0.1 5.0 -0.3 5.0 -0.5 5.05 -0.9 5.05 -0.95 5.0 -1.2 4.95 -1.65 4.45 -2.4" fill="#333333" fill-rule="evenodd" stroke="none"/>
    <path d="M4.45 -2.4 L4.8 -2.2 5.45 -1.75 M-6.1 -1.55 Q-5.65 -2.25 -4.05 -3.1 -2.5 -3.95 0.1 -3.65 2.65 -3.45 4.35 -2.5 L4.45 -2.4 Z" fill="none" stroke="#000000" stroke-linecap="round" stroke-linejoin="round" stroke-width="0.05"/>
  </g>
</svg>
