<?xml version="1.0" encoding="UTF-8" standalone="no"?>
<svg xmlns:xlink="http://www.w3.org/1999/xlink" height="10.45px" width="15.55px" xmlns="http://www.w3.org/2000/svg">
  <g transform="matrix(1.0, 0.0, 0.0, 1.0, 7.7, 5.1)">
    <path d="M7.8 -1.2 Q7.4 0.2 6.6 1.45 L5.1 3.25 4.0 4.2 2.35 5.35 Q-1.95 4.2 -4.4 2.7 L-5.15 2.15 -5.9 1.5 Q-7.4 0.1 -7.7 -1.55 L-7.5 -1.85 Q-3.8 -4.75 7.8 -1.2" fill="#ffffff" fill-rule="evenodd" stroke="none"/>
    <path d="M-7.5 -1.85 Q-5.5 -5.45 1.05 -5.05 L6.9 -4.1 7.3 -3.3 Q7.95 -1.9 7.8 -1.2 -3.8 -4.75 -7.5 -1.85" fill="#e0e0e0" fill-rule="evenodd" stroke="none"/>
    <path d="M-7.5 -1.85 Q-5.5 -5.45 1.05 -5.05 L6.9 -4.1 7.3 -3.3 Q7.95 -1.9 7.8 -1.2 7.4 0.2 6.6 1.45 L5.1 3.25 4.0 4.2 2.35 5.35 Q-1.95 4.2 -4.4 2.7 L-5.15 2.15 -5.9 1.5 Q-7.4 0.1 -7.7 -1.55 L-7.5 -1.85 Z" fill="none" stroke="#a0a0a0" stroke-linecap="round" stroke-linejoin="round" stroke-width="0.05"/>
    <path d="M-0.1 -0.65 L0.75 -0.55 Q1.95 -0.45 2.8 -1.0 L2.95 -1.05 Q3.7 -1.6 3.75 -2.45 3.85 -3.3 3.0 -3.95 L2.5 -4.3 0.95 -4.7 -0.65 -4.45 -1.15 -4.2 Q-2.05 -3.65 -2.15 -2.8 -2.2 -1.9 -1.35 -1.25 -0.8 -0.85 -0.1 -0.65 M-0.1 -1.15 Q-0.65 -1.3 -1.05 -1.6 -1.75 -2.2 -1.7 -2.95 -1.7 -3.7 -0.85 -4.15 L-0.6 -4.3 Q0.15 -4.65 0.95 -4.6 1.95 -4.55 2.6 -4.1 L2.75 -3.95 Q3.5 -3.4 3.4 -2.65 3.35 -2.05 2.95 -1.65 L2.6 -1.4 Q1.8 -0.9 0.8 -1.0 L-0.1 -1.15 M-0.35 -3.05 L0.0 -2.95 0.4 -3.05 0.55 -3.35 0.45 -3.75 0.1 -3.9 -0.4 -3.75 -0.45 -3.7 -0.6 -3.4 -0.4 -3.1 -0.35 -3.05" fill="#ffffff" fill-rule="evenodd" stroke="none"/>
    <path d="M-0.1 -1.15 L0.8 -1.0 Q1.8 -0.9 2.6 -1.4 L2.95 -1.65 Q3.35 -2.05 3.4 -2.65 3.5 -3.4 2.75 -3.95 L2.6 -4.1 Q1.95 -4.55 0.95 -4.6 0.15 -4.65 -0.6 -4.3 L-0.85 -4.15 Q-1.7 -3.7 -1.7 -2.95 -1.75 -2.2 -1.05 -1.6 -0.65 -1.3 -0.1 -1.15 M-0.35 -3.05 L-0.4 -3.1 -0.6 -3.4 -0.45 -3.7 -0.4 -3.75 0.1 -3.9 0.45 -3.75 0.55 -3.35 0.4 -3.05 0.0 -2.95 -0.35 -3.05" fill="#8bd7fe" fill-rule="evenodd" stroke="none"/>
    <path d="M-0.1 -0.65 L0.75 -0.55 Q1.95 -0.45 2.8 -1.0 L2.95 -1.05 Q3.7 -1.6 3.75 -2.45 3.85 -3.3 3.0 -3.95 L2.5 -4.3 0.95 -4.7 -0.65 -4.45 -1.15 -4.2 Q-2.05 -3.65 -2.15 -2.8 -2.2 -1.9 -1.35 -1.25 -0.8 -0.85 -0.1 -0.65 Z" fill="none" stroke="#a0a0a0" stroke-linecap="round" stroke-linejoin="round" stroke-width="0.05"/>
  </g>
</svg>
