<?xml version="1.0" encoding="UTF-8" standalone="no"?>
<svg xmlns:xlink="http://www.w3.org/1999/xlink" height="19.45px" width="23.0px" xmlns="http://www.w3.org/2000/svg">
  <g transform="matrix(1.0, 0.0, 0.0, 1.0, 8.05, 10.95)">
    <path d="M5.8 -9.1 L4.75 -9.55 3.05 -7.55 Q5.6 -6.65 7.1 -4.65 3.2 -6.8 1.6 -4.95 0.25 -1.4 3.35 1.3 4.5 -2.35 13.1 -1.35 12.75 -3.05 11.0 -5.35 12.4 -5.4 13.7 -4.2 15.1 -0.95 14.95 1.7 6.4 -0.5 5.35 3.1 5.35 4.05 7.2 5.8 6.7 7.6 4.4 8.5 -2.25 7.35 -5.4 3.9 -8.6 0.45 -7.9 -3.85 -7.2 -8.25 -4.85 -6.8 L-5.65 -5.95 Q-8.2 2.65 2.35 6.05 3.3 5.9 3.4 5.25 -7.4 -1.9 0.65 -9.7 2.9 -11.45 4.4 -10.75 5.85 -10.1 5.8 -9.1" fill="#ffffff" fill-rule="evenodd" stroke="none"/>
    <path d="M11.0 -5.35 Q12.75 -3.05 13.1 -1.35 4.5 -2.35 3.35 1.3 0.25 -1.4 1.6 -4.95 3.2 -6.8 7.1 -4.65 5.6 -6.65 3.05 -7.55 L4.75 -9.55 5.8 -9.1 Q8.3 -7.95 11.0 -5.35 M0.65 -9.7 Q-7.4 -1.9 3.4 5.25 3.3 5.9 2.35 6.05 -8.2 2.65 -5.65 -5.95 L-4.85 -6.8 Q-2.6 -8.9 0.65 -9.7" fill="#877b51" fill-rule="evenodd" stroke="none"/>
    <path d="M5.8 -9.1 Q5.85 -10.1 4.4 -10.75 2.9 -11.45 0.65 -9.7 -2.6 -8.9 -4.85 -6.8 -7.2 -8.25 -7.9 -3.85 -8.6 0.45 -5.4 3.9 -2.25 7.35 4.4 8.5 6.7 7.6 7.2 5.8 5.35 4.05 5.35 3.1 6.4 -0.5 14.95 1.7 15.1 -0.95 13.7 -4.2 12.4 -5.4 11.0 -5.35 M-5.65 -5.95 L-4.85 -6.8" fill="none" stroke="#000000" stroke-linecap="round" stroke-linejoin="round" stroke-width="0.05"/>
  </g>
</svg>
