<?xml version="1.0" encoding="UTF-8" standalone="no"?>
<svg xmlns:xlink="http://www.w3.org/1999/xlink" height="16.95px" width="14.9px" xmlns="http://www.w3.org/2000/svg">
  <g transform="matrix(1.0, 0.0, 0.0, 1.0, 7.85, 9.45)">
    <path d="M-6.5 -5.4 Q-4.55 -7.4 -0.3 -8.65 6.85 -10.4 6.65 -8.35 5.05 -4.3 7.05 5.35 5.55 7.55 2.9 7.5 -7.55 2.15 -6.5 -5.4 M0.85 4.7 L1.6 5.55 2.9 5.7 3.9 5.05 Q4.2 4.6 3.95 4.05 L3.1 3.2 1.85 3.0 Q1.25 3.15 0.95 3.6 0.6 4.1 0.85 4.7" fill="#8a4343" fill-rule="evenodd" stroke="none"/>
    <path d="M2.9 7.5 L0.7 7.15 Q-5.3 3.6 -7.8 -2.45 -8.15 -3.8 -6.5 -5.4 -7.55 2.15 2.9 7.5" fill="#de8b87" fill-rule="evenodd" stroke="none"/>
    <path d="M0.85 4.7 Q0.6 4.1 0.95 3.6 1.25 3.15 1.85 3.0 L3.1 3.2 3.95 4.05 Q4.2 4.6 3.9 5.05 L2.9 5.7 1.6 5.55 0.85 4.7" fill="#96609c" fill-rule="evenodd" stroke="none"/>
    <path d="M-6.5 -5.4 Q-4.55 -7.4 -0.3 -8.65 6.85 -10.4 6.65 -8.35 5.05 -4.3 7.05 5.35 5.55 7.55 2.9 7.5 L0.7 7.15 Q-5.3 3.6 -7.8 -2.45 -8.15 -3.8 -6.5 -5.4 Z" fill="none" stroke="#999999" stroke-linecap="round" stroke-linejoin="round" stroke-width="0.05"/>
  </g>
</svg>
