<?xml version="1.0" encoding="UTF-8" standalone="no"?>
<svg xmlns:xlink="http://www.w3.org/1999/xlink" height="7.6px" width="14.6px" xmlns="http://www.w3.org/2000/svg">
  <g transform="matrix(1.0, 0.0, 0.0, 1.0, 7.5, 0.5)">
    <path d="M0.85 -0.15 L3.05 0.2 4.25 0.65 5.65 1.75 6.3 2.75 6.75 3.3 Q4.05 4.5 3.7 3.95 L3.1 3.25 3.1 3.2 Q2.5 2.8 1.85 2.55 L-0.35 2.15 -1.85 2.05 Q0.7 1.8 1.4 0.6 1.55 0.25 0.85 -0.15" fill="#bcdefe" fill-rule="evenodd" stroke="none"/>
    <path d="M-1.85 -0.25 L-0.7 -0.5 3.05 -0.25 Q4.1 -0.05 4.7 0.4 6.65 2.15 6.75 3.3 L6.3 2.75 5.65 1.75 4.25 0.65 3.05 0.2 0.85 -0.15 -1.85 -0.25 M-7.15 6.6 Q-8.25 3.35 -6.0 1.35 -5.2 2.1 -1.85 2.05 L-0.35 2.15 1.85 2.55 Q2.5 2.8 3.1 3.2 L3.1 3.25 3.7 3.95 Q4.05 4.5 6.75 3.3 6.95 6.2 4.1 6.15 L3.15 5.95 3.1 5.95 3.1 5.9 2.8 5.8 1.2 5.0 -0.5 2.95 -4.95 2.95 Q-8.05 3.1 -7.15 6.6" fill="#9ecffe" fill-rule="evenodd" stroke="none"/>
    <path d="M-6.0 1.35 Q-5.45 0.8 -4.6 0.4 L-4.55 0.4 -1.85 -0.25 0.85 -0.15 Q1.55 0.25 1.4 0.6 0.7 1.8 -1.85 2.05 -5.2 2.1 -6.0 1.35" fill="#000000" fill-rule="evenodd" stroke="none"/>
    <path d="M6.75 3.3 Q7.35 5.2 6.95 5.9 6.5 6.6 4.15 7.1 L3.2 7.0 3.15 7.0 -7.15 6.6 Q-8.05 3.1 -4.95 2.95 L-0.5 2.95 1.2 5.0 2.8 5.8 3.1 5.9 3.1 5.95 3.15 5.95 4.1 6.15 Q6.95 6.2 6.75 3.3" fill="#ffffff" fill-rule="evenodd" stroke="none"/>
    <path d="M-1.85 -0.25 L-0.7 -0.5 3.05 -0.25 Q4.1 -0.05 4.7 0.4 6.65 2.15 6.75 3.3 7.35 5.2 6.95 5.9 6.5 6.6 4.15 7.1 L3.2 7.0 M3.15 7.0 L-7.15 6.6 Q-8.25 3.35 -6.0 1.35 -5.45 0.8 -4.6 0.4 L-4.55 0.4 -1.85 -0.25 M6.75 3.3 Q6.95 6.2 4.1 6.15 L3.15 5.95 3.1 5.95 M3.1 5.9 L2.8 5.8 1.2 5.0 -0.5 2.95 -4.95 2.95 Q-8.05 3.1 -7.15 6.6 M-1.85 2.05 L-0.35 2.15 1.85 2.55 Q2.5 2.8 3.1 3.2 L3.1 3.25 3.7 3.95 Q4.05 4.5 6.75 3.3" fill="none" stroke="#003399" stroke-linecap="round" stroke-linejoin="round" stroke-width="0.05"/>
  </g>
</svg>
