<?xml version="1.0" encoding="UTF-8" standalone="no"?>
<svg xmlns:xlink="http://www.w3.org/1999/xlink" height="9.25px" width="15.0px" xmlns="http://www.w3.org/2000/svg">
  <g transform="matrix(1.0, 0.0, 0.0, 1.0, 8.05, 2.6)">
    <path d="M-7.5 0.9 Q-7.95 -0.65 -8.05 -2.6 -7.0 -1.65 -4.05 -1.1 L-3.6 -1.0 -2.75 -0.95 2.45 -0.7 Q4.95 -0.6 6.6 -1.45 7.4 0.8 6.25 2.95 3.8 6.4 0.3 6.65 L-0.35 6.65 -0.5 6.65 -1.0 6.65 -1.55 6.55 -2.35 6.4 -2.55 6.35 Q-6.3 5.3 -7.5 0.9" fill="#639a58" fill-rule="evenodd" stroke="none"/>
    <path d="M-1.0 6.65 L-0.5 6.65 -0.35 6.65 0.3 6.65 Q3.8 6.4 6.25 2.95 7.4 0.8 6.6 -1.45 4.95 -0.6 2.45 -0.7 L-2.75 -0.95 -3.6 -1.0 -4.05 -1.1 Q-7.0 -1.65 -8.05 -2.6 -7.95 -0.65 -7.5 0.9 M-2.55 6.35 L-2.35 6.4 -1.55 6.55" fill="none" stroke="#44633a" stroke-linecap="round" stroke-linejoin="round" stroke-width="0.05"/>
    <path d="M-1.55 6.55 L-1.0 6.65 Z" fill="none" stroke="#44633a" stroke-linecap="round" stroke-linejoin="round" stroke-width="0.05"/>
  </g>
</svg>
