<?xml version="1.0" encoding="UTF-8" standalone="no"?>
<svg xmlns:xlink="http://www.w3.org/1999/xlink" height="15.85px" width="15.0px" xmlns="http://www.w3.org/2000/svg">
  <g transform="matrix(1.0, 0.0, 0.0, 1.0, 8.05, 2.6)">
    <path d="M-7.5 0.9 Q-7.95 -0.65 -8.05 -2.6 -7.35 -2.0 -5.9 -1.55 L-4.05 -1.1 -3.6 -1.0 -2.75 -0.95 2.45 -0.7 3.95 -0.7 Q5.45 -0.85 6.6 -1.45 7.4 0.8 6.25 2.95 L4.2 5.15 Q2.45 6.5 0.3 6.65 L-0.35 6.65 -0.5 6.65 -1.0 6.65 -1.55 6.55 -2.35 6.4 -2.55 6.35 Q-4.4 5.8 -5.65 4.5 -6.9 3.15 -7.5 0.9" fill="#b18378" fill-rule="evenodd" stroke="none"/>
    <path d="M-2.55 6.35 L-2.35 6.4 -1.55 6.55 -1.0 6.65 -0.5 6.65 -0.35 6.65 0.3 6.65 Q2.45 6.5 4.2 5.15 L6.25 2.95 Q7.4 0.8 6.6 -1.45 5.45 -0.85 3.95 -0.7 L2.45 -0.7 -2.75 -0.95 -3.6 -1.0 -4.05 -1.1 -5.9 -1.55 Q-7.35 -2.0 -8.05 -2.6 -7.95 -0.65 -7.5 0.9" fill="none" stroke="#7b5046" stroke-linecap="round" stroke-linejoin="round" stroke-width="0.05"/>
    <path d="M-1.0 -0.6 L-0.3 13.25 -0.85 12.75 -1.6 12.65 -2.5 12.6 -3.55 11.75 Q-4.1 11.1 -4.55 10.95 -4.9 10.8 -5.15 10.95 L-5.7 10.65 -6.6 -1.85 Q-4.2 -1.0 -1.0 -0.6 M-1.95 6.85 L-1.6 12.65 -1.95 6.85 M-5.4 7.85 L-5.15 10.95 -5.4 7.85 M-3.55 9.35 L-3.55 11.75 -3.55 9.35" fill="#8bc087" fill-rule="evenodd" stroke="none"/>
    <path d="M-1.0 -0.6 L-0.3 13.25 -0.85 12.75 -1.6 12.65 -2.5 12.6 -3.55 11.75 Q-4.1 11.1 -4.55 10.95 -4.9 10.8 -5.15 10.95 L-5.7 10.65 -6.6 -1.85 Q-4.2 -1.0 -1.0 -0.6 M-3.55 11.75 L-3.55 9.35 M-5.15 10.95 L-5.4 7.85 M-1.6 12.65 L-1.95 6.85" fill="none" stroke="#666666" stroke-linecap="round" stroke-linejoin="round" stroke-width="0.05"/>
  </g>
</svg>
