<?xml version="1.0" encoding="UTF-8" standalone="no"?>
<svg xmlns:xlink="http://www.w3.org/1999/xlink" height="18.7px" width="15.0px" xmlns="http://www.w3.org/2000/svg">
  <g transform="matrix(1.0, 0.0, 0.0, 1.0, 8.05, 2.6)">
    <path d="M-7.5 0.9 Q-7.95 -0.65 -8.05 -2.6 -7.35 -2.0 -5.9 -1.55 L-4.05 -1.1 -3.6 -1.0 -2.75 -0.95 2.45 -0.7 3.95 -0.7 Q5.45 -0.85 6.6 -1.45 7.4 0.8 6.25 2.95 L4.2 5.15 Q2.45 6.5 0.3 6.65 L-0.35 6.65 -0.5 6.65 -1.0 6.65 -1.55 6.55 -2.35 6.4 -2.55 6.35 Q-4.4 5.8 -5.65 4.5 -6.9 3.15 -7.5 0.9" fill="#45916e" fill-rule="evenodd" stroke="none"/>
    <path d="M-2.55 6.35 L-2.35 6.4 -1.55 6.55 -1.0 6.65 -0.5 6.65 -0.35 6.65 0.3 6.65 Q2.45 6.5 4.2 5.15 L6.25 2.95 Q7.4 0.8 6.6 -1.45 5.45 -0.85 3.95 -0.7 L2.45 -0.7 -2.75 -0.95 -3.6 -1.0 -4.05 -1.1 -5.9 -1.55 Q-7.35 -2.0 -8.05 -2.6 -7.95 -0.65 -7.5 0.9" fill="none" stroke="#2e813e" stroke-linecap="round" stroke-linejoin="round" stroke-width="0.05"/>
    <path d="M0.9 0.95 L2.75 1.3 Q1.1 7.25 0.4 15.85 -2.45 16.5 -5.0 14.3 -6.7 7.1 -7.1 -0.8 L-5.3 -0.4 Q-5.2 7.5 -3.9 12.65 -2.75 14.0 -1.05 13.65 -1.1 8.55 0.9 0.95 M-3.4 0.05 L-1.6 0.4 Q-2.1 4.2 -1.85 11.25 L-3.5 10.55 Q-3.8 3.65 -3.4 0.05" fill="#ffffff" fill-rule="evenodd" stroke="none"/>
    <path d="M-5.3 -0.4 L-3.4 0.05 Q-3.8 3.65 -3.5 10.55 L-1.85 11.25 Q-2.1 4.2 -1.6 0.4 L0.9 0.95 Q-1.1 8.55 -1.05 13.65 -2.75 14.0 -3.9 12.65 -5.2 7.5 -5.3 -0.4" fill="#42ac81" fill-rule="evenodd" stroke="none"/>
    <path d="M-3.4 0.05 Q-3.8 3.65 -3.5 10.55 L-1.85 11.25 Q-2.1 4.2 -1.6 0.4" fill="none" stroke="#2e813e" stroke-linecap="round" stroke-linejoin="round" stroke-width="0.25"/>
    <path d="M0.9 0.95 L2.75 1.3 Q1.1 7.25 0.4 15.85 -2.45 16.5 -5.0 14.3 -6.7 7.1 -7.1 -0.8 L-5.3 -0.4 -3.4 0.05 -1.6 0.4 0.9 0.95" fill="none" stroke="#2e813e" stroke-linecap="round" stroke-linejoin="round" stroke-width="0.25"/>
  </g>
</svg>
