<?xml version="1.0" encoding="UTF-8" standalone="no"?>
<svg xmlns:xlink="http://www.w3.org/1999/xlink" height="31.2px" width="20.7px" xmlns="http://www.w3.org/2000/svg">
  <g transform="matrix(1.0, 0.0, 0.0, 1.0, 10.35, 15.6)">
    <path d="M-4.7 -10.9 L-4.65 -10.9 -4.7 -10.8 -4.7 -10.9" fill="#eebf5a" fill-rule="evenodd" stroke="none"/>
    <path d="M-4.65 -10.9 L-4.05 -14.35 Q-3.8 -15.9 -3.4 -15.55 L0.8 -15.45 2.6 -15.05 Q2.45 -12.25 3.05 -9.8 L3.5 -9.6 3.7 -9.55 6.1 -8.4 6.5 -8.15 7.85 -7.35 Q10.55 -5.9 10.3 -4.6 L10.35 -3.75 Q10.3 1.25 8.2 5.4 L6.65 7.85 Q6.05 10.3 6.75 12.15 L6.8 12.35 Q7.05 12.95 6.85 13.95 4.1 15.8 -1.7 15.55 -6.25 14.95 -7.9 13.05 L-7.55 10.85 -7.0 8.35 -6.9 7.4 -7.2 6.45 Q-7.75 4.45 -7.65 2.0 L-7.8 1.85 Q-12.6 -3.75 -8.4 -10.25 L-5.75 -10.8 -4.7 -10.9 -4.7 -10.8 -4.65 -10.9 M3.45 -8.5 L3.05 -9.8 3.45 -8.5 M-4.9 -9.7 L-4.7 -10.8 -4.9 -9.7 M2.0 -8.3 L-0.2 -4.7 Q-2.2 0.05 0.1 3.9 6.3 5.6 10.35 -3.75 6.3 5.6 0.1 3.9 -2.2 0.05 -0.2 -4.7 L2.0 -8.3 M-7.55 10.85 Q-7.0 12.45 -3.55 13.4 -2.9 10.6 -2.95 6.15 L-3.0 4.2 -3.25 3.55 Q-5.0 -1.2 -2.95 -8.6 -5.0 -1.2 -3.25 3.55 L-3.0 4.2 -2.95 6.15 Q-2.9 10.6 -3.55 13.4 L-3.2 13.5 Q4.6 14.1 6.8 12.35 4.6 14.1 -3.2 13.5 L-3.55 13.4 Q-7.0 12.45 -7.55 10.85 M-7.65 2.0 Q-7.3 2.35 -6.35 2.75 -7.55 -1.7 -5.75 -5.75 L-5.1 -9.0 -5.75 -5.75 Q-7.55 -1.7 -6.35 2.75 -7.3 2.35 -7.65 2.0" fill="#a56c5f" fill-rule="evenodd" stroke="none"/>
    <path d="M-4.65 -10.9 L-4.05 -14.35 Q-3.8 -15.9 -3.4 -15.55 L0.8 -15.45 2.6 -15.05 Q2.45 -12.25 3.05 -9.8 L3.5 -9.6 3.7 -9.55 6.1 -8.4 6.5 -8.15 7.85 -7.35 Q10.55 -5.9 10.3 -4.6 L10.35 -3.75 Q10.3 1.25 8.2 5.4 L6.65 7.85 Q6.05 10.3 6.75 12.15 L6.8 12.35 Q7.05 12.95 6.85 13.95 4.1 15.8 -1.7 15.55 -6.25 14.95 -7.9 13.05 L-7.55 10.85 -7.0 8.35 -6.9 7.4 -7.2 6.45 Q-7.75 4.45 -7.65 2.0 L-7.8 1.85 Q-12.6 -3.75 -8.4 -10.25 L-5.75 -10.8 -4.7 -10.9 -4.7 -10.8 -4.9 -9.7 M-4.65 -10.9 L-4.7 -10.8 M3.05 -9.8 L3.45 -8.5 M-5.1 -9.0 L-5.75 -5.75 Q-7.55 -1.7 -6.35 2.75 -7.3 2.35 -7.65 2.0 M-2.95 -8.6 Q-5.0 -1.2 -3.25 3.55 L-3.0 4.2 -2.95 6.15 Q-2.9 10.6 -3.55 13.4 L-3.2 13.5 Q4.6 14.1 6.8 12.35 M-3.55 13.4 Q-7.0 12.45 -7.55 10.85 M10.35 -3.75 Q6.3 5.6 0.1 3.9 -2.2 0.05 -0.2 -4.7 L2.0 -8.3" fill="none" stroke="#68413c" stroke-linecap="round" stroke-linejoin="round" stroke-width="0.05"/>
    <path d="M-4.7 -10.9 L-4.65 -10.9 Z" fill="none" stroke="#d7995e" stroke-linecap="round" stroke-linejoin="round" stroke-width="0.05"/>
  </g>
</svg>
