<?xml version="1.0" encoding="UTF-8" standalone="no"?>
<svg xmlns:xlink="http://www.w3.org/1999/xlink" height="26.5px" width="21.4px" xmlns="http://www.w3.org/2000/svg">
  <g transform="matrix(1.0, 0.0, 0.0, 1.0, 10.6, 10.9)">
    <path d="M-10.1 -2.45 Q-9.1 -0.2 -7.35 1.35 -7.5 -3.55 -5.7 -6.0 L-5.75 -5.75 Q-7.55 -1.7 -6.35 2.75 -7.3 2.35 -7.65 2.0 L-7.8 1.85 Q-9.6 -0.25 -10.1 -2.45 M-6.9 7.4 Q-4.6 6.8 -4.3 3.95 -4.1 5.35 -3.35 6.2 -1.3 8.5 2.9 10.1 4.95 10.7 5.7 8.35 6.7 5.15 4.4 3.65 L0.1 3.9 Q-2.1 0.25 -0.35 -4.25 -1.1 0.3 0.4 3.3 4.65 3.5 8.5 -0.25 L8.85 -0.75 Q9.6 -2.1 10.7 -3.55 11.0 -1.85 10.25 0.5 L8.2 5.4 6.65 7.85 Q6.05 10.3 6.75 12.15 L6.8 12.35 Q7.05 12.95 6.85 13.95 4.1 15.8 -1.7 15.55 -6.25 14.95 -7.9 13.05 L-7.55 10.85 -7.0 8.35 -6.9 7.4" fill="#f2f2f2" fill-rule="evenodd" stroke="none"/>
    <path d="M-4.7 -10.8 Q-5.5 -10.55 -5.8 -10.05 -5.95 -9.5 -5.45 -9.15 L-5.1 -9.0 -2.95 -8.6 2.0 -8.3 3.45 -8.5 Q4.3 -8.85 3.7 -9.55 L6.1 -8.4 6.5 -8.15 7.85 -7.35 Q10.05 -6.15 10.25 -5.5 L10.6 -4.5 10.7 -3.55 Q9.6 -2.1 8.85 -0.75 L8.5 -0.25 Q4.65 3.5 0.4 3.3 -1.1 0.3 -0.35 -4.25 -2.1 0.25 0.1 3.9 L4.4 3.65 Q6.7 5.15 5.7 8.35 4.95 10.7 2.9 10.1 -1.3 8.5 -3.35 6.2 -4.1 5.35 -4.3 3.95 -4.6 6.8 -6.9 7.4 L-7.2 6.45 Q-7.75 4.45 -7.65 2.0 -7.3 2.35 -6.35 2.75 -7.55 -1.7 -5.75 -5.75 L-5.7 -6.0 Q-7.5 -3.55 -7.35 1.35 -9.1 -0.2 -10.1 -2.45 L-10.4 -3.65 -10.6 -6.3 -10.45 -7.35 Q-10.0 -8.85 -8.4 -10.25 L-8.1 -10.35 -5.75 -10.8 -4.65 -10.9 -4.7 -10.8 M-3.35 6.2 L-2.95 6.15 -3.35 6.2" fill="#ffffff" fill-rule="evenodd" stroke="none"/>
    <path d="M10.25 -5.5 Q10.05 -6.15 7.85 -7.35 L6.5 -8.15 6.1 -8.4 3.7 -9.55 Q4.3 -8.85 3.45 -8.5 L2.0 -8.3 -2.95 -8.6 -5.1 -9.0 -5.45 -9.15 Q-5.95 -9.5 -5.8 -10.05 -5.5 -10.55 -4.7 -10.8 M-4.65 -10.9 L-5.75 -10.8 -8.1 -10.35 -8.4 -10.25 M-10.6 -6.3 L-10.4 -3.65 -10.1 -2.45 Q-9.6 -0.25 -7.8 1.85 L-7.65 2.0 Q-7.75 4.45 -7.2 6.45 L-6.9 7.4 -7.0 8.35 -7.55 10.85 -7.9 13.05 Q-6.25 14.95 -1.7 15.55 4.1 15.8 6.85 13.95 7.05 12.95 6.8 12.35 L6.75 12.15 Q6.05 10.3 6.65 7.85 L8.2 5.4 10.25 0.5" fill="none" stroke="#a0a0a0" stroke-linecap="round" stroke-linejoin="round" stroke-width="0.05"/>
  </g>
</svg>
