<?xml version="1.0" encoding="UTF-8" standalone="no"?>
<svg xmlns:xlink="http://www.w3.org/1999/xlink" height="28.4px" width="21.35px" xmlns="http://www.w3.org/2000/svg">
  <g transform="matrix(1.0, 0.0, 0.0, 1.0, 10.6, 12.8)">
    <path d="M-4.7 -10.8 L-4.7 -10.9 -4.65 -10.9 -4.7 -10.8" fill="#ffffff" fill-rule="evenodd" stroke="none"/>
    <path d="M-4.7 -10.8 L-5.65 -10.25 -5.8 -10.05 Q-5.95 -9.5 -5.45 -9.15 L-5.1 -9.0 -2.95 -8.6 -2.35 -8.55 1.85 -8.3 2.0 -8.3 3.45 -8.5 Q4.3 -8.85 3.7 -9.55 L4.9 -9.0 6.1 -8.4 6.5 -8.15 7.85 -7.35 Q10.05 -6.15 10.25 -5.5 L10.6 -4.5 10.7 -3.55 Q10.9 -2.3 10.55 -0.65 L8.7 -0.55 8.5 -0.25 Q4.65 3.5 0.4 3.3 -0.3 1.85 -0.5 0.05 L-1.1 0.1 Q-1.0 2.1 0.1 3.9 L4.4 3.65 Q7.0 5.2 6.9 7.5 L6.65 7.85 Q6.45 8.65 6.4 9.4 6.3 10.65 6.6 11.8 4.1 13.75 -4.2 13.05 L-7.7 11.4 -7.55 10.85 -7.0 8.35 -6.9 7.4 -7.2 6.45 Q-7.75 4.45 -7.65 2.0 -7.3 2.35 -6.35 2.75 L-6.75 0.45 -7.35 0.5 -7.35 1.35 -8.15 0.55 -8.75 0.6 Q-9.75 -0.9 -10.1 -2.45 L-10.15 -2.55 -10.4 -3.65 -10.5 -4.05 -10.6 -6.3 -10.55 -6.85 -10.55 -6.9 -10.45 -7.35 -10.25 -7.85 Q-9.75 -9.0 -8.65 -10.05 L-8.4 -10.25 -8.1 -10.35 -6.1 -10.75 -5.75 -10.8 -4.7 -10.9 -4.7 -10.8" fill="#8bc087" fill-rule="evenodd" stroke="none"/>
    <path d="M-8.75 0.6 L-8.15 0.55 -7.35 1.35 -7.35 0.5 -6.75 0.45 -6.35 2.75 Q-7.3 2.35 -7.65 2.0 L-7.8 1.85 -8.75 0.6 M6.9 7.5 Q7.0 5.2 4.4 3.65 L0.1 3.9 Q-1.0 2.1 -1.1 0.1 L-0.5 0.05 Q-0.3 1.85 0.4 3.3 4.65 3.5 8.5 -0.25 L8.7 -0.55 10.55 -0.65 10.25 0.5 8.2 5.4 6.9 7.5" fill="#5a9e54" fill-rule="evenodd" stroke="none"/>
    <path d="M-7.7 11.4 L-4.2 13.05 Q-4.0 13.7 -5.0 14.85 -6.95 14.15 -7.9 13.05 L-7.7 11.4" fill="#b18378" fill-rule="evenodd" stroke="none"/>
    <path d="M-4.2 13.05 Q4.1 13.75 6.6 11.8 L6.75 12.15 6.8 12.35 Q7.05 12.95 6.85 13.95 4.1 15.8 -1.7 15.55 L-5.0 14.85 Q-4.0 13.7 -4.2 13.05" fill="#86574d" fill-rule="evenodd" stroke="none"/>
    <path d="M-7.7 11.4 L-4.2 13.05 Q4.1 13.75 6.6 11.8 L6.75 12.15 6.8 12.35 Q7.05 12.95 6.85 13.95 4.1 15.8 -1.7 15.55 L-5.0 14.85 Q-6.95 14.15 -7.9 13.05 L-7.7 11.4" fill="none" stroke="#7b5046" stroke-linecap="round" stroke-linejoin="round" stroke-width="0.05"/>
    <path d="M10.25 -5.5 Q10.05 -6.15 7.85 -7.35 L6.5 -8.15 6.1 -8.4 4.9 -9.0 3.7 -9.55 Q4.3 -8.85 3.45 -8.5 L2.0 -8.3 1.85 -8.3 -2.35 -8.55 -2.95 -8.6 -5.1 -9.0 -5.45 -9.15 Q-5.95 -9.5 -5.8 -10.05 L-5.65 -10.25 -4.7 -10.8 -4.7 -10.9 -5.75 -10.8 -6.1 -10.75 -8.1 -10.35 -8.4 -10.25 M-10.6 -6.3 L-10.5 -4.05 -10.4 -3.65 -10.15 -2.55 -10.1 -2.45 Q-9.75 -0.9 -8.75 0.6 L-7.8 1.85 -7.65 2.0 Q-7.75 4.45 -7.2 6.45 L-6.9 7.4 -7.0 8.35 -7.55 10.85 -7.7 11.4 M6.6 11.8 Q6.3 10.65 6.4 9.4 6.45 8.65 6.65 7.85 L6.9 7.5 8.2 5.4 10.25 0.5 M-4.65 -10.9 L-4.7 -10.9" fill="none" stroke="#666666" stroke-linecap="round" stroke-linejoin="round" stroke-width="0.05"/>
    <path d="M4.6 -9.9 Q4.1 -6.65 1.2 -5.6 -1.65 -4.55 -4.3 -5.2 -7.25 -6.1 -7.1 -9.3 L-6.85 -10.8 Q-6.3 -11.8 -5.45 -11.65 0.4 -14.4 3.45 -10.7 L3.8 -10.6 Q4.4 -10.55 4.6 -9.9 M3.6 -10.15 L3.2 -9.3 2.6 -8.55 3.0 -9.0 Q1.8 -7.15 -1.45 -6.55 L-2.05 -6.45 Q-5.05 -6.3 -6.35 -7.45 -5.85 -6.75 -4.7 -6.2 L-3.2 -5.85 Q-1.95 -5.55 0.5 -6.45 2.95 -7.4 3.6 -10.15 M-5.45 -11.1 Q-6.4 -8.6 0.45 -9.0 -6.4 -8.6 -5.45 -11.1" fill="#e2cfcb" fill-rule="evenodd" stroke="none"/>
    <path d="M-3.2 -5.85 L-4.7 -6.2 Q-5.85 -6.75 -6.35 -7.45 -5.05 -6.3 -2.05 -6.45 L-1.45 -6.55 Q1.8 -7.15 3.0 -9.0 L2.6 -8.55 3.2 -9.3 3.6 -10.15 Q2.95 -7.4 0.5 -6.45 -1.95 -5.55 -3.2 -5.85" fill="#b18378" fill-rule="evenodd" stroke="none"/>
    <path d="M4.6 -9.9 Q4.4 -10.55 3.8 -10.6 L3.45 -10.7 Q0.4 -14.4 -5.45 -11.65 -6.3 -11.8 -6.85 -10.8 L-7.1 -9.3 Q-7.25 -6.1 -4.3 -5.2 -1.65 -4.55 1.2 -5.6 4.1 -6.65 4.6 -9.9 M3.6 -10.15 Q2.95 -7.4 0.5 -6.45 -1.95 -5.55 -3.2 -5.85 M0.45 -9.0 Q-6.4 -8.6 -5.45 -11.1" fill="none" stroke="#7b5046" stroke-linecap="round" stroke-linejoin="round" stroke-width="0.05"/>
  </g>
</svg>
