<?xml version="1.0" encoding="UTF-8" standalone="no"?>
<svg xmlns:xlink="http://www.w3.org/1999/xlink" height="26.5px" width="21.35px" xmlns="http://www.w3.org/2000/svg">
  <g transform="matrix(1.0, 0.0, 0.0, 1.0, 10.6, 10.9)">
    <path d="M-4.4 1.7 L-4.45 1.7 -4.45 1.6 -4.4 1.7" fill="#4b93e9" fill-rule="evenodd" stroke="none"/>
    <path d="M4.9 -9.0 L6.1 -8.4 6.5 -8.15 7.85 -7.35 Q10.05 -6.15 10.25 -5.5 L10.6 -4.5 10.7 -3.55 Q10.9 -2.3 10.55 -0.65 L8.7 -0.55 8.5 -0.25 Q4.65 3.5 0.4 3.3 -2.55 2.05 -1.1 -7.15 5.65 -7.25 4.9 -9.0 M-8.75 0.6 Q-9.75 -0.9 -10.1 -2.45 L-10.15 -2.55 -10.4 -3.65 -10.6 -6.3 -10.55 -6.9 -10.45 -7.35 -10.25 -7.85 Q-9.75 -9.0 -8.65 -10.05 L-8.4 -10.25 -8.1 -10.35 -6.1 -10.75 Q-9.0 -9.25 -4.9 -7.7 -6.2 1.2 -7.35 1.35 L-8.15 0.55 -8.75 0.6 M-4.7 -10.9 L-4.65 -10.9 -4.7 -10.8 -4.7 -10.9" fill="#ffffff" fill-rule="evenodd" stroke="none"/>
    <path d="M10.55 -0.65 L10.25 0.5 8.2 5.4 6.9 7.5 Q7.0 5.2 4.4 3.65 L0.1 3.9 Q-2.05 3.45 -1.95 2.2 L-4.4 1.7 -4.45 1.6 -4.45 1.7 -5.65 1.4 Q-5.7 2.4 -6.35 2.75 -7.3 2.35 -7.65 2.0 L-7.8 1.85 -8.75 0.6 -8.15 0.55 -7.35 1.35 Q-6.2 1.2 -4.9 -7.7 L-3.35 -7.2 -1.1 -7.15 Q-2.55 2.05 0.4 3.3 4.65 3.5 8.5 -0.25 L8.7 -0.55 10.55 -0.65" fill="#f2f2f2" fill-rule="evenodd" stroke="none"/>
    <path d="M-5.0 14.85 Q-6.95 14.15 -7.9 13.05 L-7.7 11.4 -7.55 10.85 -7.0 8.35 -6.9 7.4 -7.2 6.45 Q-7.75 4.45 -7.65 2.0 -7.3 2.35 -6.35 2.75 -5.7 2.4 -5.65 1.4 L-4.45 1.7 -4.3 6.8 Q-3.75 9.85 -4.2 13.05 -4.0 13.7 -5.0 14.85 M-6.1 -10.75 L-5.75 -10.8 -4.7 -10.9 -4.7 -10.8 -5.65 -10.25 -5.8 -10.05 Q-5.95 -9.5 -5.45 -9.15 L-5.1 -9.0 -2.95 -8.6 -2.35 -8.55 -3.35 -7.2 -4.9 -7.7 Q-9.0 -9.25 -6.1 -10.75 M-7.7 11.4 L-4.2 13.05 -7.7 11.4" fill="#40b961" fill-rule="evenodd" stroke="none"/>
    <path d="M-2.35 -8.55 L1.85 -8.3 2.0 -8.3 3.45 -8.5 Q4.3 -8.85 3.7 -9.55 L4.9 -9.0 Q5.65 -7.25 -1.1 -7.15 L-3.35 -7.2 -2.35 -8.55 M6.9 7.5 L6.65 7.85 Q6.45 8.65 6.4 9.4 6.3 10.65 6.6 11.8 L6.75 12.15 6.8 12.35 Q7.05 12.95 6.85 13.95 4.1 15.8 -1.7 15.55 L-5.0 14.85 Q-4.0 13.7 -4.2 13.05 -3.75 9.85 -4.3 6.8 L-4.45 1.7 -4.4 1.7 -1.95 2.2 Q-2.05 3.45 0.1 3.9 L4.4 3.65 Q7.0 5.2 6.9 7.5 M6.6 11.8 Q4.1 13.75 -4.2 13.05 4.1 13.75 6.6 11.8" fill="#39a657" fill-rule="evenodd" stroke="none"/>
    <path d="M4.9 -9.0 L6.1 -8.4 6.5 -8.15 7.85 -7.35 Q10.05 -6.15 10.25 -5.5 M10.25 0.5 L8.2 5.4 6.9 7.5 M-7.65 2.0 L-7.8 1.85 -8.75 0.6 Q-9.75 -0.9 -10.1 -2.45 L-10.15 -2.55 -10.4 -3.65 -10.6 -6.3 M-8.4 -10.25 L-8.1 -10.35 -6.1 -10.75 M-4.7 -10.9 L-4.65 -10.9" fill="none" stroke="#a0a0a0" stroke-linecap="round" stroke-linejoin="round" stroke-width="0.05"/>
    <path d="M-2.35 -8.55 L1.85 -8.3 2.0 -8.3 3.45 -8.5 Q4.3 -8.85 3.7 -9.55 L4.9 -9.0 Q5.65 -7.25 -1.1 -7.15 L-3.35 -7.2 -4.9 -7.7 Q-9.0 -9.25 -6.1 -10.75 L-5.75 -10.8 -4.7 -10.9 -4.7 -10.8 -5.65 -10.25 -5.8 -10.05 Q-5.95 -9.5 -5.45 -9.15 L-5.1 -9.0 -2.95 -8.6 -2.35 -8.55 -3.35 -7.2 M6.9 7.5 L6.65 7.85 Q6.45 8.65 6.4 9.4 6.3 10.65 6.6 11.8 L6.75 12.15 6.8 12.35 Q7.05 12.95 6.85 13.95 4.1 15.8 -1.7 15.55 L-5.0 14.85 Q-6.95 14.15 -7.9 13.05 L-7.7 11.4 -7.55 10.85 -7.0 8.35 -6.9 7.4 -7.2 6.45 Q-7.75 4.45 -7.65 2.0 -7.3 2.35 -6.35 2.75 -5.7 2.4 -5.65 1.4 L-4.45 1.7 -4.3 6.8 Q-3.75 9.85 -4.2 13.05 4.1 13.75 6.6 11.8 M-4.4 1.7 L-4.45 1.7 M6.9 7.5 Q7.0 5.2 4.4 3.65 L0.1 3.9 Q-2.05 3.45 -1.95 2.2 L-4.4 1.7 M-5.0 14.85 Q-4.0 13.7 -4.2 13.05 L-7.7 11.4" fill="none" stroke="#2e813e" stroke-linecap="round" stroke-linejoin="round" stroke-width="0.05"/>
  </g>
</svg>
