<?xml version="1.0" encoding="UTF-8" standalone="no"?>
<svg xmlns:xlink="http://www.w3.org/1999/xlink" height="29.45px" width="21.6px" xmlns="http://www.w3.org/2000/svg">
  <g transform="matrix(1.0, 0.0, 0.0, 1.0, 10.7, 13.3)">
    <path d="M-6.9 7.4 L-7.2 6.45 -7.45 5.3 -6.1 7.1 -6.9 7.4 M6.0 7.2 L5.7 8.35 5.7 8.4 Q4.95 10.7 2.9 10.1 1.3 9.5 0.0 8.75 L-0.25 8.6 Q2.4 8.4 6.0 7.2 M-7.35 1.35 L-7.45 1.25 -7.35 1.35" fill="#ffffff" fill-rule="evenodd" stroke="none"/>
    <path d="M7.5 6.65 L6.65 7.85 6.55 8.35 Q6.3 9.45 6.4 10.45 -2.9 13.65 -7.25 9.8 L-7.1 9.2 -7.0 8.35 -6.9 7.4 -6.1 7.1 Q-4.15 8.9 -0.25 8.6 L0.0 8.75 Q1.3 9.5 2.9 10.1 4.95 10.7 5.7 8.4 L5.7 8.35 6.0 7.2 7.5 6.65" fill="#e0e0e0" fill-rule="evenodd" stroke="none"/>
    <path d="M6.4 10.45 L7.2 11.1 6.55 11.45 Q3.35 12.95 -1.25 13.2 L-1.25 15.05 2.95 14.4 6.95 13.0 7.5 12.75 6.85 13.95 6.55 14.15 Q5.3 14.9 3.6 15.25 -2.5 17.2 -5.95 14.95 L-7.9 13.05 Q-8.45 12.35 -8.45 11.65 L-7.9 12.45 Q-6.6 14.0 -4.2 14.65 L-4.2 12.9 Q-6.3 12.15 -7.55 10.9 L-7.95 10.45 -7.3 9.75 -7.25 9.8 Q-2.9 13.65 6.4 10.45" fill="#263959" fill-rule="evenodd" stroke="none"/>
    <path d="M7.2 11.1 Q7.8 11.8 7.5 12.75 L6.95 13.0 2.95 14.4 -1.25 15.05 -1.25 13.2 Q3.35 12.95 6.55 11.45 L7.2 11.1 M-8.45 11.65 Q-8.45 11.05 -7.95 10.45 L-7.55 10.9 Q-6.3 12.15 -4.2 12.9 L-4.2 14.65 Q-6.6 14.0 -7.9 12.45 L-8.45 11.65" fill="#576bca" fill-rule="evenodd" stroke="none"/>
    <path d="M4.15 -9.35 L6.1 -8.4 6.5 -8.15 7.85 -7.35 Q10.05 -6.15 10.25 -5.5 L10.6 -4.5 10.7 -3.55 9.7 -2.15 Q2.4 -0.05 -0.5 0.25 2.4 -0.05 9.7 -2.15 L8.85 -0.75 8.5 -0.25 6.0 1.75 Q3.3 3.4 0.4 3.3 L0.2 2.8 6.0 1.75 0.2 2.8 -0.5 0.25 Q-0.75 -1.8 -0.35 -4.25 -1.3 -1.9 -1.1 0.25 -3.95 0.3 -6.25 -0.55 L-6.8 -0.8 -6.25 -0.55 Q-3.95 0.3 -1.1 0.25 L-0.45 2.85 0.1 3.9 4.4 3.65 Q6.25 4.85 6.0 7.2 2.4 8.4 -0.25 8.6 -2.2 7.5 -3.35 6.2 -4.1 5.35 -4.3 3.95 -4.55 6.25 -6.1 7.1 L-7.45 5.3 -7.65 2.0 Q-7.3 2.35 -6.35 2.75 L-6.55 1.8 -6.8 -0.8 Q-6.8 -3.35 -5.75 -5.75 L-5.7 -6.0 Q-7.0 -4.25 -7.3 -1.1 -9.05 -2.25 -10.6 -4.8 -9.05 -2.25 -7.3 -1.1 L-7.35 1.35 -7.45 1.25 Q-8.85 0.3 -9.7 -1.25 L-10.1 -2.45 -10.4 -3.65 -10.6 -4.8 -10.6 -6.3 -10.45 -7.35 Q-10.0 -8.85 -8.4 -10.25 L-8.1 -10.35 -6.0 -10.75 Q-5.9 -9.5 -5.45 -9.2 L-5.45 -9.15 -5.35 -9.1 -5.1 -9.0 -3.8 -8.7 -0.25 -8.35 1.2 -8.4 -0.25 -8.35 -3.8 -8.7 -5.1 -9.0 -5.35 -9.1 -5.45 -9.15 -5.45 -9.2 Q-5.9 -9.5 -6.0 -10.75 -6.15 -11.9 -5.4 -12.8 -2.15 -13.75 1.65 -12.8 2.6 -9.9 1.2 -8.4 L3.8 -8.75 3.95 -8.95 4.15 -9.35 M-6.55 1.8 Q-4.15 3.0 -0.45 2.85 -4.15 3.0 -6.55 1.8 M-3.35 6.2 L-2.95 6.15 -3.35 6.2" fill="#d66f64" fill-rule="evenodd" stroke="none"/>
    <path d="M4.15 -9.35 L3.95 -8.95 3.8 -8.75 1.2 -8.4 Q2.6 -9.9 1.65 -12.8 L4.05 -12.1 Q5.0 -11.1 4.15 -9.35 M-7.3 -1.1 Q-7.0 -4.25 -5.7 -6.0 L-5.75 -5.75 Q-6.8 -3.35 -6.8 -0.8 L-7.3 -1.1 -6.8 -0.8 -6.55 1.8 -6.35 2.75 Q-7.3 2.35 -7.65 2.0 L-7.8 1.85 Q-9.1 0.35 -9.7 -1.25 -8.85 0.3 -7.45 1.25 L-7.35 1.35 -7.3 -1.1 M-1.1 0.25 Q-1.3 -1.9 -0.35 -4.25 -0.75 -1.8 -0.5 0.25 L0.2 2.8 0.4 3.3 Q3.3 3.4 6.0 1.75 L8.5 -0.25 8.85 -0.75 9.7 -2.15 10.7 -3.55 10.8 -2.45 Q10.75 -1.2 10.3 0.4 L6.0 1.75 10.3 0.4 10.25 0.5 8.2 5.4 7.5 6.65 6.0 7.2 Q6.25 4.85 4.4 3.65 L0.1 3.9 -0.45 2.85 -1.1 0.25 -1.05 0.25 -0.5 0.25 -1.05 0.25 -1.1 0.25 M9.7 -2.15 L10.8 -2.45 9.7 -2.15 M0.2 2.8 L-0.45 2.85 0.2 2.8 M-0.25 8.6 Q-4.15 8.9 -6.1 7.1 -4.55 6.25 -4.3 3.95 -4.1 5.35 -3.35 6.2 -2.2 7.5 -0.25 8.6 M-7.35 1.35 L-6.55 1.8 -7.35 1.35" fill="#994848" fill-rule="evenodd" stroke="none"/>
    <path d="M-10.6 -4.8 Q-9.05 -2.25 -7.3 -1.1 L-6.8 -0.8 -6.25 -0.55 Q-3.95 0.3 -1.1 0.25 L-1.05 0.25 -0.5 0.25 Q2.4 -0.05 9.7 -2.15 L10.8 -2.45 M6.0 1.75 L10.3 0.4 M6.0 1.75 L0.2 2.8 -0.45 2.85 Q-4.15 3.0 -6.55 1.8 L-7.35 1.35 M-7.45 1.25 Q-8.85 0.3 -9.7 -1.25" fill="none" stroke="#ffffff" stroke-linecap="round" stroke-linejoin="round" stroke-width="0.25"/>
    <path d="M10.25 -5.5 Q10.05 -6.15 7.85 -7.35 L6.5 -8.15 6.1 -8.4 4.15 -9.35 3.95 -8.95 3.8 -8.75 1.2 -8.4 -0.25 -8.35 -3.8 -8.7 -5.1 -9.0 -5.35 -9.1 -5.45 -9.15 -5.45 -9.2 Q-5.9 -9.5 -6.0 -10.75 L-8.1 -10.35 -8.4 -10.25 M-10.6 -6.3 L-10.6 -4.8 -10.4 -3.65 -10.1 -2.45 -9.7 -1.25 Q-9.1 0.35 -7.8 1.85 L-7.65 2.0 -7.45 5.3 -7.2 6.45 -6.9 7.4 -7.0 8.35 -7.1 9.2 -7.25 9.8 -7.3 9.75 -7.95 10.45 Q-8.45 11.05 -8.45 11.65 -8.45 12.35 -7.9 13.05 L-5.95 14.95 Q-2.5 17.2 3.6 15.25 5.3 14.9 6.55 14.15 L6.85 13.95 7.5 12.75 Q7.8 11.8 7.2 11.1 L6.4 10.45 Q-2.9 13.65 -7.25 9.8 M4.15 -9.35 Q5.0 -11.1 4.05 -12.1 L1.65 -12.8 Q-2.15 -13.75 -5.4 -12.8 -6.15 -11.9 -6.0 -10.75 M10.25 0.5 L8.2 5.4 7.5 6.65 6.65 7.85 6.55 8.35 Q6.3 9.45 6.4 10.45 M-7.45 1.25 L-7.35 1.35" fill="none" stroke="#000000" stroke-linecap="round" stroke-linejoin="round" stroke-width="0.05"/>
  </g>
</svg>
