<?xml version="1.0" encoding="UTF-8" standalone="no"?>
<svg xmlns:xlink="http://www.w3.org/1999/xlink" height="29.05px" width="21.5px" xmlns="http://www.w3.org/2000/svg">
  <g transform="matrix(1.0, 0.0, 0.0, 1.0, 10.7, 13.1)">
    <path d="M-7.45 10.5 Q-2.05 14.0 6.65 11.85 L6.75 12.15 6.8 12.35 Q7.05 12.95 6.85 13.95 5.9 14.6 4.65 15.0 1.65 16.15 -0.7 15.9 L-5.65 15.0 Q-7.35 14.35 -7.9 13.05 L-7.55 10.85 -7.45 10.5" fill="#f2f2f2" fill-rule="evenodd" stroke="none"/>
    <path d="M-3.9 3.0 L-0.15 3.45 0.1 3.9 4.4 3.65 Q5.8 4.55 6.0 6.1 L-3.8 5.5 -4.3 3.95 -4.6 5.35 -7.55 4.3 -7.65 2.0 Q-7.3 2.35 -6.35 2.75 L-6.4 2.45 -3.9 3.0" fill="#ff9933" fill-rule="evenodd" stroke="none"/>
    <path d="M-0.15 3.45 L4.4 3.65 9.1 3.55 8.2 5.4 7.9 5.95 6.0 6.1 Q5.8 4.55 4.4 3.65 L0.1 3.9 -0.15 3.45 M-3.8 5.5 L-4.6 5.35 -4.3 3.95 -3.8 5.5 M-7.65 2.0 L-6.4 2.45 -6.35 2.75 Q-7.3 2.35 -7.65 2.0" fill="#c76401" fill-rule="evenodd" stroke="none"/>
    <path d="M10.7 -3.55 Q9.6 -2.1 8.85 -0.75 L8.5 -0.25 Q4.65 3.5 0.4 3.3 -1.1 0.3 -0.35 -4.25 -2.0 0.0 -0.15 3.45 L-3.9 3.0 Q-4.8 -3.2 -2.65 -8.35 L-2.0 -8.3 -2.65 -8.35 Q-4.8 -3.2 -3.9 3.0 L-6.4 2.45 Q-7.5 -1.85 -5.75 -5.75 L-5.7 -6.0 -5.85 -5.8 Q-7.5 -3.35 -7.35 1.35 -9.1 -0.2 -10.1 -2.45 L-10.4 -3.65 -10.6 -6.3 -10.45 -7.35 Q-10.0 -8.85 -8.4 -10.25 L-8.1 -10.35 -5.75 -10.8 -5.6 -10.85 Q-5.5 -11.95 -4.85 -12.9 -2.15 -13.25 1.5 -12.4 1.5 -9.3 -2.0 -8.3 -0.55 -8.15 1.4 -8.3 L3.1 -8.5 3.5 -9.5 3.5 -9.65 6.1 -8.4 6.5 -8.15 7.85 -7.35 Q10.05 -6.15 10.25 -5.5 L10.6 -4.5 10.7 -3.55 M6.0 6.1 Q6.1 7.1 5.7 8.35 4.95 10.7 2.9 10.1 -1.3 8.5 -3.35 6.2 L-3.8 5.5 6.0 6.1 M-4.6 5.35 Q-5.2 6.95 -6.9 7.4 L-7.2 6.45 -7.55 4.3 -4.6 5.35 M-5.6 -10.85 L-5.65 -10.25 -5.65 -9.6 Q-5.05 -9.05 -4.15 -8.75 L-2.65 -8.35 -4.15 -8.75 Q-5.05 -9.05 -5.65 -9.6 L-5.65 -10.25 -5.6 -10.85 M-3.35 6.2 L-2.95 6.15 -3.35 6.2" fill="#5a5a5a" fill-rule="evenodd" stroke="none"/>
    <path d="M-0.15 3.45 Q-2.0 0.0 -0.35 -4.25 -1.1 0.3 0.4 3.3 4.65 3.5 8.5 -0.25 L8.85 -0.75 Q9.6 -2.1 10.7 -3.55 11.0 -1.85 10.25 0.5 L9.1 3.55 4.4 3.65 -0.15 3.45 M3.5 -9.65 L3.5 -9.5 3.1 -8.5 1.4 -8.3 Q-0.55 -8.15 -2.0 -8.3 1.5 -9.3 1.5 -12.4 L3.0 -12.05 Q3.65 -10.75 3.5 -9.65 M6.0 6.1 L7.9 5.95 6.65 7.85 Q6.1 10.1 6.65 11.85 -2.05 14.0 -7.45 10.5 L-7.0 8.35 -6.9 7.4 Q-5.2 6.95 -4.6 5.35 L-3.8 5.5 -3.35 6.2 Q-1.3 8.5 2.9 10.1 4.95 10.7 5.7 8.35 6.1 7.1 6.0 6.1 M-10.1 -2.45 Q-9.1 -0.2 -7.35 1.35 -7.5 -3.35 -5.85 -5.8 L-5.7 -6.0 -5.75 -5.75 Q-7.5 -1.85 -6.4 2.45 L-7.65 2.0 -7.8 1.85 Q-9.6 -0.25 -10.1 -2.45" fill="#000000" fill-rule="evenodd" stroke="none"/>
    <path d="M10.25 -5.5 Q10.05 -6.15 7.85 -7.35 L6.5 -8.15 6.1 -8.4 3.5 -9.65 Q3.65 -10.75 3.0 -12.05 L1.5 -12.4 Q-2.15 -13.25 -4.85 -12.9 -5.5 -11.95 -5.6 -10.85 L-5.75 -10.8 -8.1 -10.35 -8.4 -10.25 M9.1 3.55 L10.25 0.5 M7.9 5.95 L8.2 5.4 9.1 3.55 M6.65 11.85 Q6.1 10.1 6.65 7.85 L7.9 5.95 M-10.1 -2.45 L-10.4 -3.65 -10.6 -6.3 M-7.65 2.0 L-7.55 4.3 -7.2 6.45 M-7.65 2.0 L-7.8 1.85 Q-9.6 -0.25 -10.1 -2.45" fill="none" stroke="#cccccc" stroke-linecap="round" stroke-linejoin="round" stroke-width="0.25"/>
    <path d="M3.5 -9.65 L3.5 -9.5 3.1 -8.5 1.4 -8.3 Q-0.55 -8.15 -2.0 -8.3 L-2.65 -8.35 Q-4.8 -3.2 -3.9 3.0 M-7.45 10.5 Q-2.05 14.0 6.65 11.85 L6.75 12.15 6.8 12.35 Q7.05 12.95 6.85 13.95 5.9 14.6 4.65 15.0 1.65 16.15 -0.7 15.9 L-5.65 15.0 Q-7.35 14.35 -7.9 13.05 L-7.55 10.85 -7.45 10.5 M-2.65 -8.35 L-4.15 -8.75 Q-5.05 -9.05 -5.65 -9.6 L-5.65 -10.25 -5.6 -10.85" fill="none" stroke="#000000" stroke-linecap="round" stroke-linejoin="round" stroke-width="0.05"/>
  </g>
</svg>
