<?xml version="1.0" encoding="UTF-8" standalone="no"?>
<svg xmlns:xlink="http://www.w3.org/1999/xlink" height="31.9px" width="21.4px" xmlns="http://www.w3.org/2000/svg">
  <g transform="matrix(1.0, 0.0, 0.0, 1.0, 10.6, 15.9)">
    <path d="M-5.0 6.1 L-4.6 5.35 -4.3 3.95 -3.8 5.5 -3.35 6.2 -1.7 7.7 Q-1.6 10.15 -2.0 12.5 -3.8 12.25 -5.35 11.6 -4.9 8.95 -5.0 6.1" fill="#f2f2f2" fill-rule="evenodd" stroke="none"/>
    <path d="M2.55 -6.4 Q2.45 -7.1 1.65 -7.3 3.55 -7.6 5.9 -8.5 L2.55 -6.4" fill="#b8a434" fill-rule="evenodd" stroke="none"/>
    <path d="M2.6 -14.75 L2.7 -14.7 Q4.05 -13.9 5.3 -12.5 L4.2 -9.35 5.9 -8.5 6.1 -8.4 6.5 -8.15 7.85 -7.35 8.35 -7.05 Q5.45 -5.15 2.55 -6.4 L5.9 -8.5 Q3.55 -7.6 1.65 -7.3 L-1.35 -7.2 -1.1 -8.3 Q0.5 -8.95 1.15 -10.3 2.4 -10.7 2.6 -14.75 M10.7 -3.55 Q11.0 -1.85 10.25 0.5 L9.1 3.55 9.0 3.8 8.2 5.4 7.9 5.95 6.65 7.85 Q6.1 10.1 6.65 11.85 1.8 13.05 -2.0 12.5 -1.6 10.15 -1.7 7.7 0.15 9.05 2.9 10.1 4.95 10.7 5.7 8.35 6.1 7.1 6.0 6.1 5.8 4.55 4.4 3.65 L0.1 3.9 -0.15 3.45 Q-2.0 0.0 -0.35 -4.25 -1.1 0.3 0.4 3.3 4.65 3.5 8.5 -0.25 L8.85 -0.75 8.9 -0.85 10.7 -3.55 M-7.45 10.5 L-7.0 8.35 -6.9 7.4 Q-5.65 7.05 -5.0 6.1 -4.9 8.95 -5.35 11.6 -6.45 11.15 -7.45 10.5 M-7.65 2.0 L-7.8 1.85 Q-9.6 -0.25 -10.1 -2.45 -9.1 -0.2 -7.35 1.35 -7.5 -3.35 -5.85 -5.8 L-5.7 -6.0 -5.75 -5.75 Q-7.5 -1.85 -6.4 2.45 L-6.35 2.75 Q-7.3 2.35 -7.65 2.0 M3.5 -9.6 L1.15 -10.3 3.5 -9.6" fill="#809b96" fill-rule="evenodd" stroke="none"/>
    <path d="M-1.35 -7.2 L-4.45 -7.55 Q-4.05 -9.5 -3.25 -10.9 L-0.05 -10.5 -1.1 -8.3 -1.35 -7.2 M-4.8 -5.75 Q-3.4 -5.0 -1.9 -5.0 -2.8 -0.25 -2.05 4.15 -1.75 5.95 -1.7 7.7 L-3.35 6.2 -3.8 5.5 -4.3 3.95 -4.6 5.35 -5.0 6.1 Q-5.05 4.55 -5.25 2.95 -5.9 -1.7 -4.8 -5.75" fill="#ffffff" fill-rule="evenodd" stroke="none"/>
    <path d="M8.35 -7.05 L8.75 -6.8 10.25 -5.5 10.6 -4.5 10.7 -3.55 8.9 -0.85 8.85 -0.75 8.5 -0.25 Q4.65 3.5 0.4 3.3 -1.1 0.3 -0.35 -4.25 -2.0 0.0 -0.15 3.45 L0.1 3.9 4.4 3.65 Q5.8 4.55 6.0 6.1 6.1 7.1 5.7 8.35 4.95 10.7 2.9 10.1 0.15 9.05 -1.7 7.7 -1.75 5.95 -2.05 4.15 -2.8 -0.25 -1.9 -5.0 0.1 -5.15 2.55 -6.4 5.45 -5.15 8.35 -7.05 M-6.9 7.4 L-7.2 6.45 -7.55 4.3 -7.65 2.0 Q-7.3 2.35 -6.35 2.75 L-6.4 2.45 Q-7.5 -1.85 -5.75 -5.75 L-5.7 -6.0 -5.85 -5.8 Q-7.5 -3.35 -7.35 1.35 -9.1 -0.2 -10.1 -2.45 L-10.4 -3.65 -10.6 -6.3 -10.45 -7.35 Q-10.0 -8.85 -8.4 -10.25 L-8.3 -10.3 -8.1 -10.35 -6.4 -10.7 -6.6 -10.7 -6.6 -14.1 Q-1.65 -17.3 2.6 -14.75 2.4 -10.7 1.15 -10.3 0.5 -8.95 -1.1 -8.3 L-0.05 -10.5 1.15 -10.3 -0.05 -10.5 -3.25 -10.9 Q-4.05 -9.5 -4.45 -7.55 -6.6 -8.3 -8.3 -10.25 -7.0 -7.0 -4.8 -5.75 -5.9 -1.7 -5.25 2.95 -5.05 4.55 -5.0 6.1 -5.65 7.05 -6.9 7.4 M-6.4 -10.7 L-3.25 -10.9 -6.4 -10.7" fill="#b6cac8" fill-rule="evenodd" stroke="none"/>
    <path d="M1.65 -7.3 Q2.45 -7.1 2.55 -6.4 0.1 -5.15 -1.9 -5.0 -3.4 -5.0 -4.8 -5.75 -7.0 -7.0 -8.3 -10.25 -6.6 -8.3 -4.45 -7.55 L-1.35 -7.2 1.65 -7.3" fill="#fffca8" fill-rule="evenodd" stroke="none"/>
    <path d="M6.65 11.85 Q7.2 12.65 7.1 14.35 L3.95 15.5 -1.1 15.9 -5.65 15.0 Q-7.35 14.35 -7.9 13.05 L-7.55 10.85 -7.45 10.5 Q-6.45 11.15 -5.35 11.6 -3.8 12.25 -2.0 12.5 1.8 13.05 6.65 11.85" fill="#000000" fill-rule="evenodd" stroke="none"/>
    <path d="M2.6 -14.75 L2.7 -14.7 Q4.05 -13.9 5.3 -12.5 L4.2 -9.35 5.9 -8.5 6.1 -8.4 6.5 -8.15 7.85 -7.35 8.35 -7.05 M6.65 11.85 Q7.2 12.65 7.1 14.35 L3.95 15.5 -1.1 15.9 -5.65 15.0 Q-7.35 14.35 -7.9 13.05 L-7.55 10.85 -7.45 10.5 Q-6.45 11.15 -5.35 11.6 -3.8 12.25 -2.0 12.5 1.8 13.05 6.65 11.85 M-10.1 -2.45 L-10.4 -3.65 -10.6 -6.3 M-6.4 -10.7 L-6.6 -10.7 -6.6 -14.1 Q-1.65 -17.3 2.6 -14.75 M1.15 -10.3 L3.5 -9.6 M1.15 -10.3 L-0.05 -10.5 -3.25 -10.9 -6.4 -10.7" fill="none" stroke="#000000" stroke-linecap="round" stroke-linejoin="round" stroke-width="0.05"/>
    <path d="M8.35 -7.05 L8.75 -6.8 10.25 -5.5 M10.25 0.5 L9.1 3.55 9.0 3.8 8.2 5.4 7.9 5.95 6.65 7.85 Q6.1 10.1 6.65 11.85 M-7.45 10.5 L-7.0 8.35 -6.9 7.4 -7.2 6.45 -7.55 4.3 -7.65 2.0 -7.8 1.85 Q-9.6 -0.25 -10.1 -2.45 M-8.4 -10.25 L-8.3 -10.3 -8.1 -10.35 -6.4 -10.7 M-1.1 -8.3 L-1.35 -7.2 M-0.05 -10.5 L-1.1 -8.3 M-3.25 -10.9 Q-4.05 -9.5 -4.45 -7.55 M-1.7 7.7 Q-1.75 5.95 -2.05 4.15 -2.8 -0.25 -1.9 -5.0 M-5.35 11.6 Q-4.9 8.95 -5.0 6.1 -5.05 4.55 -5.25 2.95 -5.9 -1.7 -4.8 -5.75 M-2.0 12.5 Q-1.6 10.15 -1.7 7.7" fill="none" stroke="#666666" stroke-linecap="round" stroke-linejoin="round" stroke-width="0.05"/>
    <path d="M2.55 -6.4 L5.9 -8.5 M-8.3 -10.25 Q-7.0 -7.0 -4.8 -5.75 -3.4 -5.0 -1.9 -5.0 0.1 -5.15 2.55 -6.4" fill="none" stroke="#c0b101" stroke-linecap="round" stroke-linejoin="round" stroke-width="0.05"/>
  </g>
</svg>
