<?xml version="1.0" encoding="UTF-8" standalone="no"?>
<svg xmlns:xlink="http://www.w3.org/1999/xlink" height="16.2px" width="12.05px" xmlns="http://www.w3.org/2000/svg">
  <g transform="matrix(1.0, 0.0, 0.0, 1.0, 6.0, 8.1)">
    <path d="M-5.75 -2.2 Q-5.6 -4.65 -3.85 -6.4 -2.2 -8.0 0.05 -8.1 2.2 -8.0 3.85 -6.4 5.55 -4.7 5.75 -2.1 3.0 -6.85 -0.8 -6.45 -4.6 -6.05 -5.75 -2.2 M5.7 -0.5 Q6.2 -0.65 5.95 0.5 5.7 0.15 5.5 0.25 L5.7 -0.5 M-5.95 0.3 Q-6.15 -0.65 -5.65 -0.5 L-5.55 0.0 Q-5.85 -0.25 -5.95 0.3" fill="#d5a480" fill-rule="evenodd" stroke="none"/>
    <path d="M5.75 -2.1 L5.75 -2.2 5.8 -1.75 5.7 -0.5 5.5 0.25 5.4 0.5 Q5.0 2.7 5.2 3.1 L4.65 5.5 Q2.2 7.85 0.05 8.1 L0.0 8.1 Q-2.2 7.85 -4.75 5.25 L-5.2 3.1 Q-5.6 3.25 -5.8 1.05 L-5.95 0.3 Q-5.85 -0.25 -5.55 0.0 L-5.65 -0.5 -5.75 -1.75 -5.75 -2.2 Q-4.6 -6.05 -0.8 -6.45 3.0 -6.85 5.75 -2.1 M5.95 0.5 L5.8 1.05 Q5.6 3.25 5.2 3.1 5.0 2.7 5.4 0.5 L5.5 0.25 Q5.7 0.15 5.95 0.5 M-5.55 0.0 L-5.4 0.5 Q-4.6 2.9 -5.2 3.1 -4.6 2.9 -5.4 0.5 L-5.55 0.0" fill="#ca8c60" fill-rule="evenodd" stroke="none"/>
    <path d="M-5.75 -2.2 Q-5.6 -4.65 -3.85 -6.4 -2.2 -8.0 0.05 -8.1 2.2 -8.0 3.85 -6.4 5.55 -4.7 5.75 -2.1 L5.75 -2.2 5.8 -1.75 5.7 -0.5 Q6.2 -0.65 5.95 0.5 L5.8 1.05 Q5.6 3.25 5.2 3.1 L4.65 5.5 Q2.2 7.85 0.05 8.1 L0.0 8.1 Q-2.2 7.85 -4.75 5.25 L-5.2 3.1 Q-5.6 3.25 -5.8 1.05 L-5.95 0.3 Q-6.15 -0.65 -5.65 -0.5 L-5.75 -1.75 -5.75 -2.2 M5.5 0.25 L5.4 0.5 Q5.0 2.7 5.2 3.1 M5.5 0.25 L5.7 -0.5 M0.05 8.1 L0.0 8.1 M-5.55 0.0 L-5.65 -0.5 M-5.2 3.1 Q-4.6 2.9 -5.4 0.5 L-5.55 0.0" fill="none" stroke="#714a1c" stroke-linecap="round" stroke-linejoin="round" stroke-width="0.05"/>
  </g>
</svg>
