<?xml version="1.0" encoding="UTF-8" standalone="no"?>
<svg xmlns:xlink="http://www.w3.org/1999/xlink" height="17.85px" width="21.4px" xmlns="http://www.w3.org/2000/svg">
  <g transform="matrix(1.0, 0.0, 0.0, 1.0, 12.25, 8.75)">
    <path d="M5.1 -8.75 Q1.6 -7.4 1.3 -5.8 L0.95 -4.15 Q1.55 -3.95 2.3 -4.15 L3.15 -4.55 Q7.95 -3.75 9.15 0.05 7.75 -2.6 6.3 -1.5 5.8 -0.3 6.35 -0.1 7.65 1.15 7.8 2.95 L7.05 2.05 5.7 0.95 5.9 5.6 5.9 6.5 4.65 2.1 4.6 1.65 Q4.3 0.1 3.6 -0.95 L4.1 2.0 4.1 2.75 4.2 2.9 Q4.5 4.25 3.25 6.15 L2.5 7.35 2.45 7.35 2.5 7.4 1.8 8.05 Q0.65 9.1 -1.85 9.1 -4.5 9.2 -6.25 7.4 L-6.25 7.35 -6.8 5.95 Q-7.65 5.6 -7.9 4.2 L-9.35 6.8 -9.1 5.9 Q-8.3 2.85 -7.7 1.5 L-9.3 2.15 -10.25 2.85 Q-9.65 1.2 -8.05 0.3 -7.5 0.2 -7.65 -1.05 -8.8 -2.5 -10.8 -0.3 -9.3 -2.65 -6.45 -3.1 L-6.4 -3.1 -5.85 -4.25 -5.85 -4.3 -5.85 -4.55 Q-5.6 -5.2 -4.2 -4.75 -4.85 -5.6 -6.3 -5.35 -5.25 -6.0 -3.65 -5.95 -3.45 -6.4 -6.05 -7.45 -3.2 -7.65 -1.35 -6.0 L-0.5 -6.1 -0.45 -6.05 -0.4 -6.05 Q1.15 -8.55 5.1 -8.75" fill="#413445" fill-rule="evenodd" stroke="none"/>
    <path d="M5.1 -8.75 Q3.0 -6.95 3.2 -5.8 L5.65 -5.2 6.2 -5.05 Q8.05 -4.2 9.15 0.05 7.95 -3.75 3.15 -4.55 L2.3 -4.15 Q1.55 -3.95 0.95 -4.15 L1.3 -5.8 Q1.6 -7.4 5.1 -8.75 M6.3 -1.5 Q9.05 1.65 8.95 6.35 8.6 4.35 7.8 2.95 7.65 1.15 6.35 -0.1 5.8 -0.3 6.3 -1.5 M5.7 0.95 Q6.8 2.8 5.9 6.5 L5.9 6.6 5.9 6.65 5.9 6.6 5.9 6.5 5.9 5.6 5.7 0.95 M4.65 2.1 L4.2 2.9 4.1 2.75 4.1 2.0 3.6 -0.95 Q4.3 0.1 4.6 1.65 L4.65 2.1 M-9.35 6.8 Q-9.25 2.95 -7.7 1.5 -8.3 2.85 -9.1 5.9 L-9.35 6.8 M-10.25 2.85 Q-11.4 4.0 -12.25 5.85 -11.15 1.25 -7.65 -1.05 -7.5 0.2 -8.05 0.3 -9.65 1.2 -10.25 2.85 M-10.8 -0.3 Q-8.7 -4.1 -6.65 -4.45 L-5.85 -4.55 -5.85 -4.6 Q-5.9 -5.15 -6.45 -5.25 L-6.3 -5.35 Q-4.85 -5.6 -4.2 -4.75 -5.6 -5.2 -5.85 -4.55 L-5.85 -4.3 -5.85 -4.25 -6.4 -3.1 -6.45 -3.1 Q-9.3 -2.65 -10.8 -0.3 M-6.05 -7.45 Q-2.5 -8.05 -0.5 -6.1 L-1.35 -6.0 Q-3.2 -7.65 -6.05 -7.45 M-9.35 6.95 L-9.4 6.9 -9.35 6.85 -9.35 6.95" fill="#68536f" fill-rule="evenodd" stroke="none"/>
  </g>
</svg>
