<?xml version="1.0" encoding="UTF-8" standalone="no"?>
<svg xmlns:xlink="http://www.w3.org/1999/xlink" height="14.1px" width="14.15px" xmlns="http://www.w3.org/2000/svg">
  <g transform="matrix(1.0, 0.0, 0.0, 1.0, 8.75, 5.5)">
    <path d="M4.45 -0.2 L4.45 -0.3 4.45 -0.4 4.65 -0.65 4.7 -0.75 5.25 -2.0 5.35 -2.25 5.4 -2.3 Q5.35 -1.6 4.75 -0.45 L4.45 -0.2" fill="#446584" fill-rule="evenodd" stroke="none"/>
    <path d="M-5.9 -3.8 Q-6.3 -2.55 -0.45 -3.1 2.35 -3.15 3.4 -1.25 L3.4 -1.2 3.4 -1.15 3.8 1.35 Q3.8 2.15 3.95 2.25 L4.9 2.2 5.05 2.6 Q4.25 3.2 3.7 3.2 L3.65 3.5 3.45 4.4 2.65 6.05 Q1.75 7.65 0.6 8.45 -3.6 9.0 -5.55 7.8 L-6.95 6.05 Q-9.65 1.95 -7.3 -1.75 L-7.35 -2.05 -8.75 -2.0 Q-8.35 -2.9 -6.9 -2.8 L-8.1 -4.2 -6.4 -3.4 Q-6.55 -4.4 -6.05 -5.5 L-5.9 -3.8 M4.45 1.25 L5.35 0.2 4.7 1.2 4.45 1.25" fill="#86554f" fill-rule="evenodd" stroke="none"/>
    <path d="M-5.1 -4.3 Q0.0 -5.65 2.25 -3.7 L3.4 -2.7 4.45 -1.4 Q4.75 -0.95 5.25 -2.0 L4.7 -0.75 4.65 -0.65 4.45 -0.4 4.45 -0.3 4.45 -0.2 4.6 0.0 5.2 0.2 5.35 0.2 4.45 1.25 4.9 2.2 3.95 2.25 Q3.8 2.15 3.8 1.35 L3.4 -1.15 3.4 -1.2 3.4 -1.25 Q2.35 -3.15 -0.45 -3.1 -6.3 -2.55 -5.9 -3.8 L-5.45 -4.15 -5.1 -4.3 -4.55 -3.8 -5.1 -4.3" fill="#af7c7a" fill-rule="evenodd" stroke="none"/>
    <path d="M3.4 -2.7 L2.25 -3.7 Q0.0 -5.65 -5.1 -4.3 L-5.45 -4.15 -5.9 -3.8 -6.05 -5.5 Q-6.55 -4.4 -6.4 -3.4 L-8.1 -4.2 -6.9 -2.8 Q-8.35 -2.9 -8.75 -2.0 L-7.35 -2.05 -7.3 -1.75 Q-9.65 1.95 -6.95 6.05 L-5.55 7.8 Q-3.6 9.0 0.6 8.45 1.75 7.65 2.65 6.05 L3.45 4.4 3.65 3.5 3.7 3.2 Q4.25 3.2 5.05 2.6 L4.9 2.2 4.45 1.25 4.7 1.2 5.35 0.2 5.2 0.2 4.6 0.0 4.45 -0.2 4.75 -0.45 Q5.35 -1.6 5.4 -2.3 M5.25 -2.0 Q4.75 -0.95 4.45 -1.4 L3.4 -2.7 M5.35 -2.25 L5.25 -2.0" fill="none" stroke="#5a3736" stroke-linecap="round" stroke-linejoin="round" stroke-width="0.05"/>
  </g>
</svg>
