<?xml version="1.0" encoding="UTF-8" standalone="no"?>
<svg xmlns:xlink="http://www.w3.org/1999/xlink" height="16.25px" width="17.85px" xmlns="http://www.w3.org/2000/svg">
  <g transform="matrix(1.0, 0.0, 0.0, 1.0, 10.75, 7.1)">
    <path d="M2.25 -5.05 L4.05 -5.25 Q5.6 -5.2 7.1 -3.7 5.2 -3.9 4.4 -2.0 L4.25 -1.6 Q6.0 -1.65 6.6 1.1 5.3 -0.35 4.75 0.15 6.3 3.45 6.0 6.9 5.15 5.65 4.05 5.4 4.1 7.8 3.4 9.0 3.45 7.65 2.95 6.7 L2.25 7.3 2.25 7.35 Q0.35 8.5 -1.8 9.15 -3.9 8.7 -5.9 7.6 L-5.9 7.55 -6.85 6.75 Q-7.35 7.7 -7.25 9.05 -8.0 7.85 -7.9 5.45 -9.0 5.7 -9.8 6.95 -10.15 3.5 -8.6 0.2 L-10.4 0.05 Q-9.2 -1.8 -8.2 -2.0 -8.95 -3.85 -10.75 -3.65 -8.2 -5.05 -5.9 -5.05 L-5.85 -5.05 -3.2 -4.75 Q-3.2 -5.9 -4.7 -7.1 -1.95 -6.8 0.65 -4.65 L2.25 -5.05" fill="#ffffcc" fill-rule="evenodd" stroke="none"/>
    <path d="M2.25 -5.05 L4.05 -5.25 Q5.6 -5.2 7.1 -3.7 5.2 -3.9 4.4 -2.0 L4.25 -1.6 Q6.0 -1.65 6.6 1.1 5.3 -0.35 4.75 0.15 6.3 3.45 6.0 6.9 5.15 5.65 4.05 5.4 4.1 7.8 3.4 9.0 3.45 7.65 2.95 6.7 L2.25 7.3 M2.25 7.35 Q0.35 8.5 -1.8 9.15 -3.9 8.7 -5.9 7.6 M-5.9 7.55 L-6.85 6.75 Q-7.35 7.7 -7.25 9.05 -8.0 7.85 -7.9 5.45 -9.0 5.7 -9.8 6.95 -10.15 3.5 -8.6 0.2 L-10.4 0.05 Q-9.2 -1.8 -8.2 -2.0 -8.95 -3.85 -10.75 -3.65 -8.2 -5.05 -5.9 -5.05 M-5.85 -5.05 L-3.2 -4.75 Q-3.2 -5.9 -4.7 -7.1 -1.95 -6.8 0.65 -4.65 L2.25 -5.05 Z" fill="none" stroke="#d3d301" stroke-linecap="round" stroke-linejoin="round" stroke-width="0.05"/>
  </g>
</svg>
