<?xml version="1.0" encoding="UTF-8" standalone="no"?>
<svg xmlns:xlink="http://www.w3.org/1999/xlink" height="20.0px" width="20.9px" xmlns="http://www.w3.org/2000/svg">
  <g transform="matrix(1.0, 0.0, 0.0, 1.0, 13.65, 8.0)">
    <path d="M4.95 0.3 L4.95 0.25 4.95 0.3" fill="#665044" fill-rule="evenodd" stroke="none"/>
    <path d="M-13.65 -5.05 Q-12.1 -6.75 -9.6 -7.6 -7.15 -8.45 -2.2 -7.55 L-1.5 -7.55 -1.45 -7.55 -0.05 -7.3 Q2.35 -6.65 4.65 -4.0 5.9 -3.4 6.55 -1.85 7.95 2.45 6.6 8.4 7.35 2.15 5.4 -0.9 3.45 -3.95 1.35 -4.55 L1.9 -2.85 Q0.9 -4.15 -0.75 -4.3 -2.4 -4.5 -4.35 -3.15 -4.0 -4.95 -1.6 -5.6 -3.6 -6.0 -6.35 -4.15 -6.35 -5.25 -5.5 -6.3 -8.3 -7.85 -13.65 -5.05 M-7.2 6.7 Q-7.8 7.25 -6.7 12.0 L-7.8 9.85 Q-8.3 6.45 -7.2 6.7 M-8.9 -0.15 Q-10.65 0.75 -11.1 6.2 -11.9 2.75 -11.35 1.4 -10.2 -0.4 -8.9 -0.15" fill="#9caccf" fill-rule="evenodd" stroke="none"/>
    <path d="M-13.65 -5.05 Q-8.3 -7.85 -5.5 -6.3 -6.35 -5.25 -6.35 -4.15 -3.6 -6.0 -1.6 -5.6 -4.0 -4.95 -4.35 -3.15 -2.4 -4.5 -0.75 -4.3 0.9 -4.15 1.9 -2.85 L1.35 -4.55 Q3.45 -3.95 5.4 -0.9 7.35 2.15 6.6 8.4 6.8 3.15 4.95 0.3 4.75 4.6 3.3 7.2 L-1.85 8.65 -7.2 6.7 Q-8.3 6.45 -7.8 9.85 -9.95 4.85 -8.85 0.75 L-8.85 -0.15 -8.85 -0.2 -8.9 -0.15 Q-10.2 -0.4 -11.35 1.4 -10.6 -2.75 -7.35 -5.45 -8.65 -6.6 -13.65 -5.05 M-0.7 4.7 L-0.7 4.85 -0.7 4.7 M4.95 0.3 L4.95 0.25 4.95 0.3" fill="#7892bc" fill-rule="evenodd" stroke="none"/>
    <path d="M6.6 8.4 Q7.95 2.45 6.55 -1.85 5.9 -3.4 4.65 -4.0 2.35 -6.65 -0.05 -7.3 L-1.45 -7.55 -1.5 -7.55 -2.2 -7.55 Q-7.15 -8.45 -9.6 -7.6 -12.1 -6.75 -13.65 -5.05 -8.65 -6.6 -7.35 -5.45 -10.6 -2.75 -11.35 1.4 -11.9 2.75 -11.1 6.2 -10.65 0.75 -8.9 -0.15 L-8.85 -0.2 -8.85 -0.15 -8.85 0.75 Q-9.95 4.85 -7.8 9.85 L-6.7 12.0 Q-7.8 7.25 -7.2 6.7 L-1.85 8.65 3.3 7.2 Q4.75 4.6 4.95 0.3 L4.95 0.25 4.95 0.3 Q6.8 3.15 6.6 8.4 Z" fill="none" stroke="#36506d" stroke-linecap="round" stroke-linejoin="round" stroke-width="0.05"/>
  </g>
</svg>
