<?xml version="1.0" encoding="UTF-8" standalone="no"?>
<svg xmlns:xlink="http://www.w3.org/1999/xlink" height="13.85px" width="15.45px" xmlns="http://www.w3.org/2000/svg">
  <g transform="matrix(1.0, 0.0, 0.0, 1.0, 8.25, 2.6)">
    <path d="M-8.0 3.15 L-8.25 1.75 -7.8 -1.85 -0.65 -2.4 -0.45 -2.4 6.8 -1.25 7.2 1.75 Q7.2 2.65 6.85 3.4 6.3 4.55 4.9 5.45 3.4 6.45 1.55 6.85 L-0.45 7.0 -0.55 7.0 -0.65 7.0 -2.55 6.85 Q-4.45 6.5 -6.0 5.45 -7.5 4.45 -8.0 3.15 M-0.45 7.0 L-0.45 -2.4 -0.45 7.0" fill="#b18378" fill-rule="evenodd" stroke="none"/>
    <path d="M-8.0 3.15 L-8.25 1.75 -7.8 -1.85 -0.65 -2.4 -0.45 -2.4 6.8 -1.25 7.2 1.75 Q7.2 2.65 6.85 3.4 M1.55 6.85 L-0.45 7.0 -0.55 7.0 -0.65 7.0 -2.55 6.85 M-0.45 -2.4 L-0.45 7.0" fill="none" stroke="#7b5046" stroke-linecap="round" stroke-linejoin="round" stroke-width="0.05"/>
    <path d="M0.85 5.1 L0.95 10.95 0.85 5.1 M0.95 10.95 Q-0.5 11.4 -1.15 10.5 -2.25 9.6 -2.9 10.1 L-3.5 9.9 -3.85 -2.55 Q-1.25 -2.3 2.3 -2.6 L2.35 11.25 Q1.6 10.6 0.95 10.95 M-1.0 7.75 L-1.15 10.5 -1.0 7.75 M-3.0 6.95 L-2.9 10.1 -3.0 6.95" fill="#8bc087" fill-rule="evenodd" stroke="none"/>
    <path d="M0.95 10.95 L0.85 5.1 M0.95 10.95 Q-0.5 11.4 -1.15 10.5 -2.25 9.6 -2.9 10.1 L-3.5 9.9 -3.85 -2.55 Q-1.25 -2.3 2.3 -2.6 L2.35 11.25 Q1.6 10.6 0.95 10.95 M-2.9 10.1 L-3.0 6.95 M-1.15 10.5 L-1.0 7.75" fill="none" stroke="#666666" stroke-linecap="round" stroke-linejoin="round" stroke-width="0.05"/>
  </g>
</svg>
