<?xml version="1.0" encoding="UTF-8" standalone="no"?>
<svg xmlns:xlink="http://www.w3.org/1999/xlink" height="9.45px" width="15.45px" xmlns="http://www.w3.org/2000/svg">
  <g transform="matrix(1.0, 0.0, 0.0, 1.0, 8.25, 2.45)">
    <path d="M-8.0 3.15 L-8.25 1.75 -7.8 -1.85 -0.65 -2.4 -0.45 -2.4 6.8 -1.25 7.2 1.75 Q7.2 2.65 6.85 3.4 6.3 4.55 4.9 5.45 3.4 6.45 1.55 6.85 L-0.45 7.0 -0.55 7.0 -0.65 7.0 -2.55 6.85 Q-4.45 6.5 -6.0 5.45 -7.5 4.45 -8.0 3.15" fill="#000000" fill-rule="evenodd" stroke="none"/>
    <path d="M-8.0 3.15 L-8.25 1.75 -7.8 -1.85 -0.65 -2.4 -0.45 -2.4 6.8 -1.25 7.2 1.75 Q7.2 2.65 6.85 3.4 M1.55 6.85 L-0.45 7.0 -0.55 7.0 -0.65 7.0 -2.55 6.85" fill="none" stroke="#000000" stroke-linecap="round" stroke-linejoin="round" stroke-width="0.05"/>
  </g>
</svg>
