<?xml version="1.0" encoding="UTF-8" standalone="no"?>
<svg xmlns:xlink="http://www.w3.org/1999/xlink" height="13.85px" width="6.2px" xmlns="http://www.w3.org/2000/svg">
  <g transform="matrix(1.0, 0.0, 0.0, 1.0, 3.85, 2.6)">
    <path d="M2.3 -2.6 L2.35 11.25 Q1.6 10.55 0.95 10.95 -0.5 11.4 -1.2 10.5 -2.25 9.65 -2.9 10.05 L-3.5 9.9 -3.85 -2.55 Q-1.25 -2.25 2.3 -2.6 M0.85 5.1 L0.95 10.95 0.85 5.1 M-3.05 6.95 L-2.9 10.05 -3.05 6.95 M-1.05 7.75 L-1.2 10.5 -1.05 7.75" fill="#82b5f0" fill-rule="evenodd" stroke="none"/>
    <path d="M2.3 -2.6 L2.35 11.25 Q1.6 10.55 0.95 10.95 -0.5 11.4 -1.2 10.5 -2.25 9.65 -2.9 10.05 L-3.5 9.9 -3.85 -2.55 Q-1.25 -2.25 2.3 -2.6 M-1.2 10.5 L-1.05 7.75 M-2.9 10.05 L-3.05 6.95 M0.95 10.95 L0.85 5.1" fill="none" stroke="#1667b8" stroke-linecap="round" stroke-linejoin="round" stroke-width="0.05"/>
  </g>
</svg>
