<?xml version="1.0" encoding="UTF-8" standalone="no"?>
<svg xmlns:xlink="http://www.w3.org/1999/xlink" height="24.45px" width="18.95px" xmlns="http://www.w3.org/2000/svg">
  <g transform="matrix(1.0, 0.0, 0.0, 1.0, 9.45, 9.2)">
    <path d="M3.0 -9.15 L3.0 -9.2 Q5.95 -9.2 9.5 -8.4 L9.35 -4.25 9.35 -4.2 9.1 -1.95 Q8.95 -0.85 7.85 0.35 L6.95 1.05 6.9 1.2 6.25 1.5 4.4 1.6 Q3.2 0.45 2.55 -1.4 L2.45 -1.7 2.2 -2.45 2.05 -2.5 Q2.25 2.8 4.25 2.4 6.5 2.45 7.85 1.05 L7.7 3.3 7.65 3.55 7.6 3.75 6.85 5.75 6.75 5.9 6.7 5.95 4.85 8.9 -0.2 5.75 -4.8 8.45 -6.7 5.9 -6.85 5.7 -7.6 3.75 -7.8 0.65 Q-7.3 2.1 -4.95 2.8 -2.65 3.5 -2.3 -3.8 L-2.55 -2.35 -2.6 -2.0 Q-3.3 0.35 -4.75 1.75 L-6.25 1.45 -7.8 0.25 Q-8.95 -0.9 -9.1 -2.05 L-9.4 -4.3 Q-9.6 -5.4 -9.0 -8.45 L-3.0 -9.2 -3.0 -9.15 Q-3.0 -8.85 -1.5 -8.4 L0.0 -8.25 1.3 -8.35 Q3.0 -8.8 3.0 -9.15" fill="#ffffff" fill-rule="evenodd" stroke="none"/>
    <path d="M-7.8 0.25 L-6.25 1.45 -4.75 1.75 Q-3.3 0.35 -2.6 -2.0 L-2.55 -2.35 -2.3 -3.8 Q-2.65 3.5 -4.95 2.8 -7.3 2.1 -7.8 0.65 L-7.8 0.25 M-7.6 3.75 L-6.85 5.7 -6.7 5.9 -4.8 8.45 -0.2 5.75 4.85 8.9 6.7 5.95 6.75 5.9 6.85 5.75 7.6 3.75 Q7.15 6.9 7.65 9.6 8.35 12.15 7.95 12.95 0.4 17.55 -7.95 12.9 -7.5 12.8 -7.6 3.75 M7.85 1.05 Q6.5 2.45 4.25 2.4 2.25 2.8 2.05 -2.5 L2.2 -2.45 2.45 -1.7 2.55 -1.4 Q3.2 0.45 4.4 1.6 L6.25 1.5 6.9 1.2 6.95 1.05 7.85 0.35 7.85 1.05" fill="#f2f2f2" fill-rule="evenodd" stroke="none"/>
    <path d="M3.0 -9.15 Q3.0 -8.8 1.3 -8.35 L0.0 -8.25 -1.5 -8.4 Q-3.0 -8.85 -3.0 -9.15 M-3.0 -9.2 L-9.0 -8.45 M-9.4 -4.3 L-9.1 -2.05 Q-8.95 -0.9 -7.8 0.25 L-7.8 0.65 -7.6 3.75 Q-7.5 12.8 -7.95 12.9 0.4 17.55 7.95 12.95 8.35 12.15 7.65 9.6 7.15 6.9 7.6 3.75 L7.65 3.55 M7.7 3.3 L7.85 1.05 7.85 0.35 Q8.95 -0.85 9.1 -1.95 L9.35 -4.2 M9.5 -8.4 Q5.95 -9.2 3.0 -9.2" fill="none" stroke="#a0a0a0" stroke-linecap="round" stroke-linejoin="round" stroke-width="0.05"/>
    <path d="M7.65 3.55 L7.7 3.3" fill="none" stroke="#a0a0a0" stroke-linecap="round" stroke-linejoin="round" stroke-width="0.05"/>
  </g>
</svg>
