<?xml version="1.0" encoding="UTF-8" standalone="no"?>
<svg xmlns:xlink="http://www.w3.org/1999/xlink" height="27.9px" width="18.95px" xmlns="http://www.w3.org/2000/svg">
  <g transform="matrix(1.0, 0.0, 0.0, 1.0, 9.45, 12.1)">
    <path d="M7.95 11.05 L8.0 11.0 8.0 11.1 7.95 11.05" fill="#4b93e9" fill-rule="evenodd" stroke="none"/>
    <path d="M0.0 15.8 Q-3.95 15.75 -7.9 14.2 -8.3 12.35 -7.6 10.9 -4.8 12.05 -2.95 12.2 L0.0 12.4 Q-0.5 14.45 0.0 15.8" fill="#b18378" fill-rule="evenodd" stroke="none"/>
    <path d="M8.0 11.1 L8.35 12.3 8.05 14.2 Q4.05 15.8 0.0 15.8 -0.5 14.45 0.0 12.4 L0.2 12.4 Q3.9 12.35 7.95 11.05 L8.0 11.1" fill="#87584e" fill-rule="evenodd" stroke="none"/>
    <path d="M9.3 -8.3 L9.4 -6.7 9.45 -4.1 9.15 -1.85 Q8.95 -0.85 7.85 0.35 L7.1 0.95 Q6.6 1.55 4.4 1.6 3.2 0.45 2.55 -1.4 L2.45 -1.7 2.3 -2.05 Q3.1 1.75 4.25 2.4 5.95 2.45 7.2 1.6 L7.85 1.05 7.7 3.3 7.65 3.55 7.6 3.75 6.85 5.75 6.75 5.9 6.7 5.95 4.85 8.9 1.2 5.25 0.15 3.8 Q-0.85 6.1 -4.8 8.45 L-6.7 5.9 -6.85 5.7 -7.6 3.75 -7.8 0.65 Q-7.3 2.05 -5.25 2.35 -3.15 2.6 -2.55 -2.35 L-2.6 -2.0 Q-3.3 0.35 -4.75 1.75 L-6.25 1.45 -7.8 0.25 Q-9.0 -0.95 -9.2 -2.05 L-9.45 -4.3 -9.0 -8.45 -3.0 -9.2 -3.0 -9.15 -3.0 -8.7 -1.5 -8.4 0.0 -8.25 1.3 -8.35 3.0 -8.65 3.0 -9.15 3.0 -9.2 9.3 -8.3" fill="#8bc087" fill-rule="evenodd" stroke="none"/>
    <path d="M7.85 0.35 L7.85 1.05 7.2 1.6 Q5.95 2.45 4.25 2.4 3.1 1.75 2.3 -2.05 L2.45 -1.7 2.55 -1.4 Q3.2 0.45 4.4 1.6 6.6 1.55 7.1 0.95 L7.85 0.35 M7.6 3.75 Q7.2 6.45 7.55 8.85 L7.65 9.6 7.95 11.05 Q3.9 12.35 0.2 12.4 L0.0 12.4 -2.95 12.2 Q-4.8 12.05 -7.6 10.9 L-7.55 8.8 -7.6 3.75 -6.85 5.7 -6.7 5.9 -4.8 8.45 Q-0.85 6.1 0.15 3.8 L1.2 5.25 4.85 8.9 6.7 5.95 6.75 5.9 6.85 5.75 7.6 3.75 M-7.8 0.65 L-7.8 0.25 -6.25 1.45 -4.75 1.75 Q-3.3 0.35 -2.6 -2.0 L-2.55 -2.35 Q-3.15 2.6 -5.25 2.35 -7.3 2.05 -7.8 0.65" fill="#5a9e54" fill-rule="evenodd" stroke="none"/>
    <path d="M9.45 -4.1 L9.15 -1.85 Q8.95 -0.85 7.85 0.35 L7.85 1.05 7.7 3.3 7.65 3.55 7.6 3.75 Q7.2 6.45 7.55 8.85 L7.65 9.6 7.95 11.05 M-7.6 10.9 L-7.55 8.8 -7.6 3.75 -7.8 0.65 -7.8 0.25 Q-9.0 -0.95 -9.2 -2.05 L-9.45 -4.3 M-9.0 -8.45 L-3.0 -9.2 M-3.0 -9.15 L-3.0 -8.7 -1.5 -8.4 0.0 -8.25 1.3 -8.35 3.0 -8.65 3.0 -9.15 M3.0 -9.2 L9.3 -8.3" fill="none" stroke="#666666" stroke-linecap="round" stroke-linejoin="round" stroke-width="0.05"/>
    <path d="M7.95 11.05 L8.0 11.0 8.0 11.1" fill="none" stroke="#155fa6" stroke-linecap="round" stroke-linejoin="round" stroke-width="0.05"/>
    <path d="M8.0 11.1 L8.35 12.3 8.05 14.2 Q4.05 15.8 0.0 15.8 -3.95 15.75 -7.9 14.2 -8.3 12.35 -7.6 10.9 -4.8 12.05 -2.95 12.2 L0.0 12.4 0.2 12.4 Q3.9 12.35 7.95 11.05 L8.0 11.1" fill="none" stroke="#7b5046" stroke-linecap="round" stroke-linejoin="round" stroke-width="0.05"/>
    <path d="M5.75 -9.7 Q5.9 -6.5 3.25 -5.3 0.65 -4.05 -2.1 -4.5 -5.15 -5.15 -5.65 -8.2 L-5.7 -9.7 Q-5.35 -10.7 -4.5 -10.6 0.7 -13.7 4.45 -10.35 L4.8 -10.3 Q5.4 -10.25 5.75 -9.7 M4.7 -9.85 L4.5 -9.0 4.05 -8.2 4.35 -8.7 Q3.55 -6.85 0.45 -6.0 L-0.1 -5.85 Q-3.05 -5.5 -4.55 -6.5 -3.9 -5.85 -2.7 -5.45 L-1.15 -5.2 Q0.15 -5.0 2.4 -6.05 4.6 -7.15 4.7 -9.85 M-4.4 -10.05 Q-4.85 -7.6 1.85 -8.5 -4.85 -7.6 -4.4 -10.05" fill="#e2cfcb" fill-rule="evenodd" stroke="none"/>
    <path d="M-1.15 -5.2 L-2.7 -5.45 Q-3.9 -5.85 -4.55 -6.5 -3.05 -5.5 -0.1 -5.85 L0.45 -6.0 Q3.55 -6.85 4.35 -8.7 L4.05 -8.2 4.5 -9.0 4.7 -9.85 Q4.6 -7.15 2.4 -6.05 0.15 -5.0 -1.15 -5.2" fill="#b18378" fill-rule="evenodd" stroke="none"/>
    <path d="M5.75 -9.7 Q5.4 -10.25 4.8 -10.3 L4.45 -10.35 Q0.7 -13.7 -4.5 -10.6 -5.35 -10.7 -5.7 -9.7 L-5.65 -8.2 Q-5.15 -5.15 -2.1 -4.5 0.65 -4.05 3.25 -5.3 5.9 -6.5 5.75 -9.7 M4.7 -9.85 Q4.6 -7.15 2.4 -6.05 0.15 -5.0 -1.15 -5.2 M1.85 -8.5 Q-4.85 -7.6 -4.4 -10.05" fill="none" stroke="#7b5046" stroke-linecap="round" stroke-linejoin="round" stroke-width="0.05"/>
  </g>
</svg>
