<?xml version="1.0" encoding="UTF-8" standalone="no"?>
<svg xmlns:xlink="http://www.w3.org/1999/xlink" height="25.0px" width="18.8px" xmlns="http://www.w3.org/2000/svg">
  <g transform="matrix(1.0, 0.0, 0.0, 1.0, 9.4, 9.2)">
    <path d="M8.45 -8.55 L9.25 -8.35 9.4 -6.8 9.3 -4.15 9.15 -2.75 9.05 -2.05 Q8.75 -0.6 7.85 0.35 7.2 1.1 6.25 1.5 L4.4 1.6 Q3.2 0.45 2.55 -1.4 L2.45 -1.7 2.2 -2.45 1.55 -6.8 Q7.2 -7.45 4.8 -9.1 L8.45 -8.55 M-7.8 0.25 Q-8.75 -0.7 -9.05 -2.15 L-9.2 -2.85 -9.35 -4.35 -9.2 -6.95 -9.2 -8.45 -8.9 -8.5 -4.9 -9.15 Q-6.5 -8.35 -5.1 -7.65 -3.8 -6.95 -1.75 -6.8 L-2.55 -2.35 -2.6 -2.0 Q-3.3 0.35 -4.75 1.75 L-6.25 1.45 -6.95 1.0 -7.8 0.25" fill="#ffffff" fill-rule="evenodd" stroke="none"/>
    <path d="M7.85 0.35 L7.85 1.05 Q6.5 2.45 4.25 2.4 2.35 1.55 1.5 -0.75 L0.0 -0.75 -1.7 -0.75 Q-3.8 2.9 -5.1 2.55 -7.3 2.1 -7.8 0.65 L-7.8 0.25 -6.95 1.0 -6.25 1.45 -4.75 1.75 Q-3.3 0.35 -2.6 -2.0 L-2.55 -2.35 -1.75 -6.8 0.0 -6.8 1.55 -6.8 2.2 -2.45 2.45 -1.7 2.55 -1.4 Q3.2 0.45 4.4 1.6 L6.25 1.5 Q7.2 1.1 7.85 0.35" fill="#f2f2f2" fill-rule="evenodd" stroke="none"/>
    <path d="M0.0 15.8 Q-3.95 15.75 -7.9 14.2 -8.4 11.9 -7.3 11.05 -6.45 9.05 -6.7 5.9 L-6.85 5.7 -7.6 3.75 -7.8 0.65 Q-7.3 2.1 -5.1 2.55 -3.8 2.9 -1.7 -0.75 L0.0 -0.75 0.0 12.4 0.0 15.8 M-4.9 -9.15 L-3.85 -9.2 -3.0 -9.2 -3.0 -9.15 Q-3.75 -8.8 -3.0 -8.7 L-1.5 -8.4 0.0 -8.25 0.0 -6.8 -1.75 -6.8 Q-3.8 -6.95 -5.1 -7.65 -6.5 -8.35 -4.9 -9.15 M-7.3 11.05 Q-4.8 12.05 -2.95 12.2 L0.0 12.4 -2.95 12.2 Q-4.8 12.05 -7.3 11.05" fill="#40b961" fill-rule="evenodd" stroke="none"/>
    <path d="M7.85 1.05 L7.6 3.75 6.85 5.75 6.75 5.9 6.7 5.95 Q6.45 9.1 7.3 11.1 8.4 11.95 8.05 14.2 4.05 15.8 0.0 15.8 L0.0 12.4 0.2 12.4 Q3.9 12.35 7.3 11.1 3.9 12.35 0.2 12.4 L0.0 12.4 0.0 -0.75 1.5 -0.75 Q2.35 1.55 4.25 2.4 6.5 2.45 7.85 1.05 M0.0 -8.25 L1.3 -8.35 3.0 -8.65 Q3.4 -8.8 3.0 -9.15 L3.0 -9.2 4.8 -9.1 Q7.2 -7.45 1.55 -6.8 L0.0 -6.8 0.0 -8.25" fill="#39a657" fill-rule="evenodd" stroke="none"/>
    <path d="M9.3 -4.15 L9.15 -2.75 9.05 -2.05 Q8.75 -0.6 7.85 0.35 L7.85 1.05 M-7.8 0.65 L-7.8 0.25 Q-8.75 -0.7 -9.05 -2.15 L-9.2 -2.85 -9.35 -4.35 M-8.9 -8.5 L-4.9 -9.15 M4.8 -9.1 L8.45 -8.55 M-6.25 1.45 L-6.95 1.0 -7.8 0.25 M7.85 0.35 Q7.2 1.1 6.25 1.5" fill="none" stroke="#a0a0a0" stroke-linecap="round" stroke-linejoin="round" stroke-width="0.05"/>
    <path d="M7.85 1.05 L7.6 3.75 6.85 5.75 6.75 5.9 6.7 5.95 Q6.45 9.1 7.3 11.1 8.4 11.95 8.05 14.2 4.05 15.8 0.0 15.8 -3.95 15.75 -7.9 14.2 -8.4 11.9 -7.3 11.05 -6.45 9.05 -6.7 5.9 L-6.85 5.7 -7.6 3.75 -7.8 0.65 Q-7.3 2.1 -5.1 2.55 -3.8 2.9 -1.7 -0.75 L0.0 -0.75 1.5 -0.75 Q2.35 1.55 4.25 2.4 6.5 2.45 7.85 1.05 M-4.9 -9.15 L-3.85 -9.2 -3.0 -9.2 -3.0 -9.15 Q-3.75 -8.8 -3.0 -8.7 L-1.5 -8.4 0.0 -8.25 1.3 -8.35 3.0 -8.65 Q3.4 -8.8 3.0 -9.15 L3.0 -9.2 4.8 -9.1 Q7.2 -7.45 1.55 -6.8 L0.0 -6.8 -1.75 -6.8 Q-3.8 -6.95 -5.1 -7.65 -6.5 -8.35 -4.9 -9.15 M0.0 -8.25 L0.0 -6.8 M7.3 11.1 Q3.9 12.35 0.2 12.4 L0.0 12.4 -2.95 12.2 Q-4.8 12.05 -7.3 11.05" fill="none" stroke="#2e813e" stroke-linecap="round" stroke-linejoin="round" stroke-width="0.05"/>
  </g>
</svg>
