<?xml version="1.0" encoding="UTF-8" standalone="no"?>
<svg xmlns:xlink="http://www.w3.org/1999/xlink" height="28.25px" width="18.95px" xmlns="http://www.w3.org/2000/svg">
  <g transform="matrix(1.0, 0.0, 0.0, 1.0, 9.45, 11.6)">
    <path d="M-5.3 -9.1 Q-5.05 -8.4 -3.8 -7.9 -2.2 -7.25 0.05 -7.25 2.3 -7.2 3.85 -7.85 5.2 -8.35 5.4 -9.05 L8.1 -8.65 Q7.5 -4.55 5.8 -1.9 0.05 2.55 -5.95 -2.05 -7.5 -4.8 -7.6 -8.75 L-5.3 -9.1 M8.05 11.3 Q8.65 12.6 8.55 13.8 0.6 17.45 -7.95 15.05 -8.9 13.05 -7.7 11.35 L-7.65 11.35 Q0.05 13.05 8.0 11.25 L8.05 11.3" fill="#ffffff" fill-rule="evenodd" stroke="none"/>
    <path d="M8.05 11.25 L8.05 11.3 8.0 11.25 8.05 11.25" fill="#f2f2f2" fill-rule="evenodd" stroke="none"/>
    <path d="M-5.3 -9.1 L-5.35 -9.45 Q-5.35 -10.35 -3.8 -11.0 L0.05 -11.6 3.85 -10.95 Q5.45 -10.3 5.45 -9.35 L5.4 -9.05 Q5.2 -8.35 3.85 -7.85 2.3 -7.2 0.05 -7.25 -2.2 -7.25 -3.8 -7.9 -5.05 -8.4 -5.3 -9.1" fill="#b4dacd" fill-rule="evenodd" stroke="none"/>
    <path d="M7.85 0.35 L7.85 1.05 Q6.5 2.45 4.25 2.4 3.15 2.6 2.6 1.2 L3.55 0.6 4.4 1.6 6.25 1.5 6.9 1.2 6.95 1.05 7.85 0.35 M-7.8 0.65 L-7.8 0.25 -6.25 1.45 -4.75 1.75 -3.75 0.55 -2.95 1.05 Q-3.65 3.2 -4.95 2.8 -7.3 2.1 -7.8 0.65 M3.55 8.15 L0.0 8.15 -3.55 7.8 -0.2 5.75 3.55 8.15" fill="#1e2225" fill-rule="evenodd" stroke="none"/>
    <path d="M8.1 -8.65 L9.5 -8.4 9.35 -4.25 9.35 -4.2 9.1 -1.95 Q8.95 -0.85 7.85 0.35 L6.95 1.05 6.9 1.2 6.25 1.5 4.4 1.6 3.55 0.6 4.75 -0.55 5.8 -1.9 Q7.5 -4.55 8.1 -8.65 M7.85 1.05 L7.7 3.3 7.65 3.55 7.6 3.75 Q7.0 3.95 6.55 5.1 L6.05 7.0 6.0 7.15 5.7 7.55 3.55 8.15 -0.2 5.75 -3.55 7.8 -5.75 7.2 -6.3 6.75 -6.55 6.1 -6.9 4.7 Q-7.15 3.6 -7.65 3.3 L-7.8 0.65 Q-7.3 2.1 -4.95 2.8 -3.65 3.2 -2.95 1.05 -1.8 1.7 -0.45 1.8 1.15 1.9 2.6 1.2 3.15 2.6 4.25 2.4 6.5 2.45 7.85 1.05 M-7.8 0.25 Q-8.95 -0.9 -9.1 -2.05 L-9.4 -4.3 Q-9.6 -5.4 -9.0 -8.45 L-7.6 -8.75 Q-7.5 -4.8 -5.95 -2.05 L-5.35 -1.1 Q-4.6 -0.1 -3.75 0.55 L-4.75 1.75 -6.25 1.45 -7.8 0.25" fill="#3c4147" fill-rule="evenodd" stroke="none"/>
    <path d="M7.6 3.75 Q7.15 6.9 7.65 9.6 L8.05 11.25 8.0 11.25 Q0.05 13.05 -7.65 11.35 -7.55 9.15 -7.6 3.75 L-6.85 5.7 -6.7 5.9 -6.55 6.1 -6.3 6.75 -5.75 7.2 -4.8 8.45 -3.55 7.8 0.0 8.15 3.55 8.15 4.85 8.9 5.7 7.55 6.0 7.15 6.05 7.0 6.7 5.95 6.75 5.9 6.85 5.75 7.6 3.75" fill="#90607a" fill-rule="evenodd" stroke="none"/>
    <path d="M-7.6 3.75 L-7.65 3.3 Q-7.15 3.6 -6.9 4.7 L-6.55 6.1 -6.7 5.9 -6.85 5.7 -7.6 3.75 M7.6 3.75 L6.85 5.75 6.75 5.9 6.7 5.95 6.05 7.0 6.55 5.1 Q7.0 3.95 7.6 3.75 M5.7 7.55 L4.85 8.9 3.55 8.15 5.7 7.55 M-3.55 7.8 L-4.8 8.45 -5.75 7.2 -3.55 7.8" fill="#d09ab4" fill-rule="evenodd" stroke="none"/>
    <path d="M8.55 13.8 L7.8 15.65 Q-0.05 17.7 -7.65 15.65 L-7.95 15.05 Q0.6 17.45 8.55 13.8 M5.8 -1.9 L4.75 -0.55 3.55 0.6 2.6 1.2 Q1.15 1.9 -0.45 1.8 -1.8 1.7 -2.95 1.05 L-3.75 0.55 Q-4.6 -0.1 -5.35 -1.1 L-5.95 -2.05 Q0.05 2.55 5.8 -1.9" fill="#dcc7d5" fill-rule="evenodd" stroke="none"/>
    <path d="M5.4 -9.05 L5.45 -9.35 Q5.45 -10.3 3.85 -10.95 L0.05 -11.6 -3.8 -11.0 Q-5.35 -10.35 -5.35 -9.45 L-5.3 -9.1 Q-5.05 -8.4 -3.8 -7.9 -2.2 -7.25 0.05 -7.25 2.3 -7.2 3.85 -7.85 5.2 -8.35 5.4 -9.05 L8.1 -8.65 9.5 -8.4 M9.35 -4.2 L9.1 -1.95 Q8.95 -0.85 7.85 0.35 L7.85 1.05 7.7 3.3 M7.65 3.55 L7.6 3.75 Q7.15 6.9 7.65 9.6 L8.05 11.25 8.05 11.3 Q8.65 12.6 8.55 13.8 L7.8 15.65 Q-0.05 17.7 -7.65 15.65 L-7.95 15.05 Q-8.9 13.05 -7.7 11.35 L-7.65 11.35 Q-7.55 9.15 -7.6 3.75 L-7.65 3.3 -7.8 0.65 -7.8 0.25 Q-8.95 -0.9 -9.1 -2.05 L-9.4 -4.3 M-9.0 -8.45 L-7.6 -8.75 -5.3 -9.1 M5.8 -1.9 L4.75 -0.55 3.55 0.6 2.6 1.2 Q1.15 1.9 -0.45 1.8 -1.8 1.7 -2.95 1.05 L-3.75 0.55 Q-4.6 -0.1 -5.35 -1.1 L-5.95 -2.05 Q-7.5 -4.8 -7.6 -8.75 M8.1 -8.65 Q7.5 -4.55 5.8 -1.9 M6.05 7.0 L6.0 7.15 5.7 7.55 3.55 8.15 0.0 8.15 -3.55 7.8 -5.75 7.2 -6.3 6.75 -6.55 6.1 -6.9 4.7 Q-7.15 3.6 -7.65 3.3 M7.6 3.75 Q7.0 3.95 6.55 5.1 L6.05 7.0 M8.0 11.25 L8.05 11.3 M-7.65 11.35 Q0.05 13.05 8.0 11.25" fill="none" stroke="#000000" stroke-linecap="round" stroke-linejoin="round" stroke-width="0.05"/>
    <path d="M7.7 3.3 L7.65 3.55" fill="none" stroke="#000000" stroke-linecap="round" stroke-linejoin="round" stroke-width="0.05"/>
  </g>
</svg>
