<?xml version="1.0" encoding="UTF-8" standalone="no"?>
<svg xmlns:xlink="http://www.w3.org/1999/xlink" height="27.35px" width="18.95px" xmlns="http://www.w3.org/2000/svg">
  <g transform="matrix(1.0, 0.0, 0.0, 1.0, 9.45, 12.1)">
    <path d="M7.5 -8.8 Q8.1 -7.35 7.7 -5.05 7.35 -3.15 5.5 -1.35 7.35 -3.15 7.7 -5.05 8.1 -7.35 7.5 -8.8 L9.5 -8.4 9.35 -4.25 9.35 -4.2 9.1 -1.95 Q8.95 -0.85 7.85 0.35 L6.95 1.05 6.9 1.2 6.25 1.5 4.4 1.6 3.4 0.35 4.55 -0.5 5.5 -1.35 Q0.6 2.4 -5.0 -1.25 L-4.25 -0.6 -3.45 0.05 -4.75 1.75 -6.25 1.45 -7.8 0.25 Q-8.95 -0.9 -9.1 -2.05 L-9.4 -4.3 Q-9.6 -5.4 -9.0 -8.45 L-7.45 -8.8 -7.4 -8.8 Q-6.9 -9.65 -6.3 -9.05 L-5.0 -9.1 -4.35 -9.15 -4.0 -9.15 -4.0 -9.2 Q-3.5 -9.9 -3.8 -11.15 -1.15 -12.6 1.9 -11.8 1.2 -8.3 3.15 -7.75 4.3 -8.2 5.0 -9.1 L4.4 -9.15 5.0 -9.15 Q5.65 -9.65 5.95 -9.0 5.15 -6.8 3.7 -5.5 5.5 -5.7 6.65 -6.95 L6.7 -9.0 Q7.1 -9.5 7.5 -8.8 M2.2 -0.75 L2.7 -1.0 Q6.2 -2.8 6.65 -6.95 6.2 -2.8 2.7 -1.0 L2.2 -0.75 M7.85 1.05 L7.7 3.3 7.65 3.55 7.6 3.75 7.1 5.4 Q4.05 6.4 1.05 6.55 L-0.2 5.75 -1.4 6.5 Q-4.25 6.25 -7.1 5.2 L-7.6 3.75 -7.8 0.65 Q-7.3 2.1 -4.95 2.8 -3.5 3.25 -2.8 0.45 -1.1 1.6 0.15 1.65 1.15 1.7 2.5 0.9 3.05 2.65 4.25 2.4 6.5 2.45 7.85 1.05 M-0.25 -7.5 L3.15 -7.75 -0.25 -7.5 M0.9 -5.3 Q-3.95 -5.35 -5.0 -9.1 L-4.35 -9.15 -5.0 -9.1 Q-3.95 -5.35 0.9 -5.3 M-6.3 -9.05 Q-6.55 -4.15 -2.8 -1.4 L-2.5 -1.2 -1.1 -0.4 Q-6.0 -4.95 -6.3 -9.05 M-7.45 -8.8 Q-7.9 -7.35 -7.4 -5.05 -7.05 -3.15 -5.0 -1.25 -7.05 -3.15 -7.4 -5.05 -7.9 -7.35 -7.45 -8.8" fill="#ffffff" fill-rule="evenodd" stroke="none"/>
    <path d="M7.6 3.75 L7.45 5.25 7.1 5.4 7.6 3.75 M-7.6 5.0 L-7.6 3.75 -7.1 5.2 -7.6 5.0" fill="#f2f2f2" fill-rule="evenodd" stroke="none"/>
    <path d="M7.45 5.25 Q7.25 7.55 7.65 9.6 0.2 12.35 -7.6 9.45 L-7.6 5.0 -7.1 5.2 -6.85 5.7 -6.7 5.9 -4.8 8.45 -1.4 6.5 1.05 6.55 4.85 8.9 6.7 5.95 6.75 5.9 6.85 5.75 7.1 5.4 7.45 5.25" fill="#1e2225" fill-rule="evenodd" stroke="none"/>
    <path d="M7.1 5.4 L6.85 5.75 6.75 5.9 6.7 5.95 4.85 8.9 1.05 6.55 Q4.05 6.4 7.1 5.4 M-1.4 6.5 L-4.8 8.45 -6.7 5.9 -6.85 5.7 -7.1 5.2 Q-4.25 6.25 -1.4 6.5" fill="#3c4147" fill-rule="evenodd" stroke="none"/>
    <path d="M6.7 -9.0 L6.65 -6.95 Q5.5 -5.7 3.7 -5.5 5.15 -6.8 5.95 -9.0 L6.7 -9.0 M7.85 0.35 L7.85 1.05 Q6.5 2.45 4.25 2.4 3.05 2.65 2.5 0.9 1.15 1.7 0.15 1.65 -1.1 1.6 -2.8 0.45 L-3.45 0.05 -2.8 0.45 Q-3.5 3.25 -4.95 2.8 -7.3 2.1 -7.8 0.65 L-7.8 0.25 -6.25 1.45 -4.75 1.75 -3.45 0.05 -4.25 -0.6 -5.0 -1.25 Q0.6 2.4 5.5 -1.35 L4.55 -0.5 3.4 0.35 Q2.9 0.65 2.5 0.9 2.9 0.65 3.4 0.35 L4.4 1.6 6.25 1.5 6.9 1.2 6.95 1.05 7.85 0.35 M1.9 -11.8 L3.75 -11.15 Q3.45 -9.8 4.0 -9.15 L4.4 -9.15 5.0 -9.1 Q4.3 -8.2 3.15 -7.75 1.2 -8.3 1.9 -11.8 M-1.4 6.5 L-0.2 5.75 1.05 6.55 -1.4 6.5 M-1.1 -0.4 L-2.5 -1.2 -2.8 -1.4 Q-6.55 -4.15 -6.3 -9.05 -6.0 -4.95 -1.1 -0.4" fill="#bbbdcf" fill-rule="evenodd" stroke="none"/>
    <path d="M7.65 9.6 Q8.6 11.15 7.95 12.95 0.4 17.55 -7.95 12.9 -8.4 10.8 -7.6 9.45 0.2 12.35 7.65 9.6" fill="#474534" fill-rule="evenodd" stroke="none"/>
    <path d="M5.5 -1.35 Q7.35 -3.15 7.7 -5.05 8.1 -7.35 7.5 -8.8 7.1 -9.5 6.7 -9.0 L6.65 -6.95 Q6.2 -2.8 2.7 -1.0 L2.2 -0.75 M5.95 -9.0 L6.7 -9.0 M7.5 -8.8 L9.5 -8.4 M9.35 -4.2 L9.1 -1.95 Q8.95 -0.85 7.85 0.35 L7.85 1.05 7.7 3.3 7.65 3.55 7.6 3.75 7.45 5.25 Q7.25 7.55 7.65 9.6 M-7.6 9.45 L-7.6 5.0 -7.6 3.75 -7.8 0.65 -7.8 0.25 Q-8.95 -0.9 -9.1 -2.05 L-9.4 -4.3 M-9.0 -8.45 L-7.45 -8.8 -7.4 -8.8 Q-6.9 -9.65 -6.3 -9.05 L-5.0 -9.1 -4.35 -9.15 -4.0 -9.2 Q-3.5 -9.9 -3.8 -11.15 -1.15 -12.6 1.9 -11.8 L3.75 -11.15 Q3.45 -9.8 4.0 -9.15 L4.4 -9.15 5.0 -9.15 Q5.65 -9.65 5.95 -9.0 5.15 -6.8 3.7 -5.5 M4.4 -9.15 L5.0 -9.1 Q4.3 -8.2 3.15 -7.75 L-0.25 -7.5 M3.4 0.35 L4.55 -0.5 5.5 -1.35 M-5.0 -1.25 L-4.25 -0.6 -3.45 0.05 -2.8 0.45 Q-1.1 1.6 0.15 1.65 1.15 1.7 2.5 0.9 2.9 0.65 3.4 0.35 M7.1 5.4 L7.45 5.25 M7.1 5.4 Q4.05 6.4 1.05 6.55 L-1.4 6.5 Q-4.25 6.25 -7.1 5.2 L-7.6 5.0 M-4.35 -9.15 L-4.0 -9.15 -4.0 -9.2 M-4.35 -9.15 L-5.0 -9.1 Q-3.95 -5.35 0.9 -5.3 M-6.3 -9.05 Q-6.55 -4.15 -2.8 -1.4 L-2.5 -1.2 -1.1 -0.4 M-5.0 -1.25 Q-7.05 -3.15 -7.4 -5.05 -7.9 -7.35 -7.45 -8.8" fill="none" stroke="#a0a0a0" stroke-linecap="round" stroke-linejoin="round" stroke-width="0.05"/>
    <path d="M7.65 9.6 Q8.6 11.15 7.95 12.95 0.4 17.55 -7.95 12.9 -8.4 10.8 -7.6 9.45 0.2 12.35 7.65 9.6" fill="none" stroke="#000000" stroke-linecap="round" stroke-linejoin="round" stroke-width="0.05"/>
  </g>
</svg>
