<?xml version="1.0" encoding="UTF-8" standalone="no"?>
<svg xmlns:xlink="http://www.w3.org/1999/xlink" height="28.05px" width="19.1px" xmlns="http://www.w3.org/2000/svg">
  <g transform="matrix(1.0, 0.0, 0.0, 1.0, 9.5, 12.5)">
    <path d="M3.85 -9.15 L4.05 -9.15 4.0 -9.15 3.85 -9.15 M-8.2 11.05 L-7.6 10.05 -7.6 10.0 Q-2.25 11.8 3.25 11.1 -4.45 13.35 -8.2 11.05" fill="#ffffff" fill-rule="evenodd" stroke="none"/>
    <path d="M7.6 3.75 L7.6 3.95 7.55 3.95 7.6 3.75 M7.8 10.1 L7.9 10.05 Q9.35 11.65 8.1 13.4 0.35 17.55 -7.6 13.65 -8.85 12.55 -8.2 11.05 -4.45 13.35 3.25 11.1 L7.8 10.1 M-7.6 10.05 L-7.6 10.0 -7.6 10.05" fill="#f2f2f2" fill-rule="evenodd" stroke="none"/>
    <path d="M3.15 -12.1 Q3.2 -10.4 1.55 -9.45 L3.05 -9.3 3.85 -9.15 4.0 -9.15 4.05 -9.15 9.5 -8.4 9.35 -4.25 9.35 -4.2 9.1 -1.95 Q8.95 -0.85 7.85 0.35 L6.95 1.05 6.9 1.2 6.25 1.5 4.4 1.6 Q3.2 0.45 2.55 -1.4 L2.45 -1.7 2.2 -2.45 2.05 -2.5 Q2.2 1.25 3.2 2.15 L-0.15 2.2 -3.35 2.0 Q-2.5 0.45 -2.3 -3.8 L-2.55 -2.35 -2.6 -2.0 Q-3.3 0.35 -4.75 1.75 L-6.25 1.45 -7.8 0.25 Q-8.95 -0.9 -9.1 -2.05 L-9.4 -4.3 Q-9.6 -5.4 -9.0 -8.45 L-4.0 -9.2 Q-4.75 -10.6 -3.85 -12.0 -0.8 -12.75 3.15 -12.1 M1.55 -9.45 L-0.15 -9.55 -4.0 -9.2 -0.15 -9.55 1.55 -9.45 M7.85 1.05 L7.8 1.65 6.9 1.8 7.85 1.05 M-7.8 1.35 L-7.8 0.65 -7.35 1.45 -7.8 1.35 M7.55 3.95 Q7.3 5.05 6.85 5.75 L6.75 5.9 6.7 5.95 4.85 8.9 -0.2 5.75 -4.8 8.45 -6.7 5.9 -6.85 5.7 -7.6 3.75 Q-0.1 5.85 7.55 3.95 M-0.15 -9.55 L-0.15 2.2 -0.15 -9.55" fill="#e39391" fill-rule="evenodd" stroke="none"/>
    <path d="M1.55 -9.45 Q3.2 -10.4 3.15 -12.1 L4.05 -11.95 Q5.15 -10.35 4.05 -9.15 L3.85 -9.15 3.05 -9.3 1.55 -9.45 M3.2 2.15 Q2.2 1.25 2.05 -2.5 L2.2 -2.45 2.45 -1.7 2.55 -1.4 Q3.2 0.45 4.4 1.6 L6.25 1.5 6.9 1.2 6.95 1.05 7.85 0.35 7.85 1.05 6.9 1.8 3.2 2.15 M7.6 3.95 Q7.15 6.95 7.65 9.6 L7.8 10.1 3.25 11.1 Q-2.25 11.8 -7.6 10.0 L-7.6 3.75 -6.85 5.7 -6.7 5.9 -4.8 8.45 -0.2 5.75 4.85 8.9 6.7 5.95 6.75 5.9 6.85 5.75 Q7.3 5.05 7.55 3.95 L7.6 3.95 M-7.8 0.65 L-7.8 0.25 -6.25 1.45 -4.75 1.75 Q-3.3 0.35 -2.6 -2.0 L-2.55 -2.35 -2.3 -3.8 Q-2.5 0.45 -3.35 2.0 L-7.35 1.45 -7.8 0.65" fill="#b86c63" fill-rule="evenodd" stroke="none"/>
    <path d="M6.9 1.8 Q5.75 2.45 4.25 2.4 L3.2 2.15 6.9 1.8 M-3.35 2.0 Q-4.0 3.1 -4.95 2.8 -6.6 2.3 -7.35 1.45 L-3.35 2.0" fill="#564759" fill-rule="evenodd" stroke="none"/>
    <path d="M7.8 1.65 L7.7 3.3 7.65 3.55 7.6 3.75 7.55 3.95 Q-0.1 5.85 -7.6 3.75 L-7.8 1.35 -7.35 1.45 Q-6.6 2.3 -4.95 2.8 -4.0 3.1 -3.35 2.0 L-0.15 2.2 3.2 2.15 4.25 2.4 Q5.75 2.45 6.9 1.8 L7.8 1.65" fill="#96609c" fill-rule="evenodd" stroke="none"/>
    <path d="M1.55 -9.45 L3.05 -9.3 3.85 -9.15 4.05 -9.15 Q5.15 -10.35 4.05 -11.95 L3.15 -12.1 Q-0.8 -12.75 -3.85 -12.0 -4.75 -10.6 -4.0 -9.2 L-0.15 -9.55 1.55 -9.45 M4.05 -9.15 L4.0 -9.15 3.85 -9.15 M7.85 0.35 Q8.95 -0.85 9.1 -1.95 L9.35 -4.2 M9.5 -8.4 L4.05 -9.15 M7.85 1.05 L7.8 1.65 7.7 3.3 7.65 3.55 7.6 3.75 7.6 3.95 Q7.15 6.95 7.65 9.6 L7.8 10.1 M-7.6 10.05 L-7.6 10.0 -7.6 3.75 -7.8 1.35 -7.8 0.65 -7.8 0.25 Q-8.95 -0.9 -9.1 -2.05 L-9.4 -4.3 M-9.0 -8.45 L-4.0 -9.2 M7.85 0.35 L7.85 1.05 M-7.6 10.05 L-7.6 10.0 M-0.15 2.2 L-0.15 -9.55" fill="none" stroke="#000000" stroke-linecap="round" stroke-linejoin="round" stroke-width="0.25"/>
    <path d="M7.8 10.1 L7.9 10.05 Q9.35 11.65 8.1 13.4 0.35 17.55 -7.6 13.65 -8.85 12.55 -8.2 11.05 L-7.6 10.05 M7.8 10.1 L3.25 11.1 Q-2.25 11.8 -7.6 10.0" fill="none" stroke="#000000" stroke-linecap="round" stroke-linejoin="round" stroke-width="0.05"/>
  </g>
</svg>
