<?xml version="1.0" encoding="UTF-8" standalone="no"?>
<svg xmlns:xlink="http://www.w3.org/1999/xlink" height="5.05px" width="3.95px" xmlns="http://www.w3.org/2000/svg">
  <g transform="matrix(1.0, 0.0, 0.0, 1.0, 2.05, 2.55)">
    <path d="M0.6 -1.6 L0.65 -1.7 Q1.0 -2.5 1.35 -2.5 1.7 -2.4 1.85 -1.65 L1.85 0.15 1.4 1.85 Q1.05 2.55 0.7 2.5 0.3 2.5 0.15 1.8 L0.15 1.6 0.15 0.05 0.15 -0.1 Q0.3 -0.95 0.6 -1.6 M-1.3 0.4 Q-1.85 0.25 -2.0 -0.4 L-1.9 -1.85 -1.75 -2.3 -1.6 -1.3 -1.55 -1.05 -1.5 -0.8 -1.3 0.4" fill="#847d31" fill-rule="evenodd" stroke="none"/>
    <path d="M-0.15 1.6 Q-0.75 1.55 -1.15 0.85 L-0.85 0.65 -0.85 0.55 -1.5 -0.8 -1.55 -1.05 -1.5 -1.1 -1.05 -1.15 -1.7 -2.35 -1.75 -2.4 -1.8 -2.55 -1.65 -2.5 Q-0.85 -1.95 -0.25 -1.75 L0.1 -1.65 -0.7 -1.1 -0.25 -0.1 -0.7 0.5 -0.15 1.6" fill="#e0e0e0" fill-rule="evenodd" stroke="none"/>
    <path d="M0.6 -1.6 Q0.3 -0.95 0.15 -0.1 L0.15 0.05 0.15 1.6 -0.15 1.6 -0.7 0.5 -0.25 -0.1 -0.7 -1.1 0.1 -1.65 0.6 -1.6 M-1.15 0.85 L-1.2 0.75 -1.3 0.4 -1.5 -0.8 -0.85 0.55 -0.85 0.65 -1.15 0.85 M-1.75 -2.3 L-1.7 -2.35 -1.05 -1.15 -1.5 -1.1 -1.6 -1.3 -1.75 -2.3" fill="#c5c5c5" fill-rule="evenodd" stroke="none"/>
  </g>
</svg>
