<?xml version="1.0" encoding="UTF-8" standalone="no"?>
<svg xmlns:xlink="http://www.w3.org/1999/xlink" height="27.4px" width="20.7px" xmlns="http://www.w3.org/2000/svg">
  <g transform="matrix(1.0, 0.0, 0.0, 1.0, 10.35, 10.7)">
    <path d="M3.2 -7.2 Q4.85 -8.3 3.5 -9.45 L6.1 -8.3 6.5 -8.05 7.85 -7.25 Q10.55 -5.85 10.3 -4.65 L10.35 -3.85 Q10.3 0.35 8.7 3.9 L8.5 4.3 8.5 4.35 Q7.9 7.75 7.95 8.3 L7.9 11.75 7.85 15.55 Q6.8 16.2 4.8 16.3 6.4 14.55 5.9 13.35 L5.95 13.3 Q4.9 12.1 4.65 8.65 L4.85 8.2 Q7.15 3.35 0.5 4.6 -1.3 3.15 -3.6 2.8 -6.3 2.65 -7.3 3.9 L-7.35 4.0 -7.8 4.95 -7.85 4.7 -8.0 4.65 -8.2 4.05 -8.55 3.05 -8.6 2.95 -9.35 0.55 Q-8.95 0.6 -7.8 1.55 L-7.65 1.7 -6.2 2.45 -3.7 2.2 Q-5.15 -0.9 -3.75 -6.15 L-3.4 -6.1 Q-4.95 1.6 -2.25 2.55 L-2.05 2.6 Q-0.8 2.95 0.1 3.5 3.25 4.35 5.85 2.45 9.85 -3.35 3.2 -7.2 M-10.35 -4.9 L-10.25 -6.9 Q-10.1 -8.2 -8.4 -10.05 L-6.9 -10.4 -5.75 -10.6 -4.7 -10.7 -4.7 -10.6 Q-5.5 -10.35 -5.8 -9.85 -6.1 -8.85 -5.85 -8.1 L-6.75 -8.0 Q-8.95 -7.7 -9.8 -6.3 L-10.35 -4.9" fill="#f2f2f2" fill-rule="evenodd" stroke="none"/>
    <path d="M4.8 16.3 L-1.7 16.65 Q-5.9 15.95 -6.85 14.85 L-8.0 13.45 Q-8.25 13.15 -8.1 12.55 L-7.8 10.95 -7.65 9.0 -6.5 8.95 -7.65 9.0 -7.75 6.0 -7.8 5.2 -7.8 5.15 -8.0 4.65 -7.85 4.7 -7.8 4.95 -7.35 4.0 -7.3 3.9 Q-6.3 2.65 -3.6 2.8 -1.3 3.15 0.5 4.6 7.15 3.35 4.85 8.2 L4.65 8.65 Q4.9 12.1 5.95 13.3 L5.9 13.35 Q6.4 14.55 4.8 16.3 M-9.35 0.55 Q-10.45 -3.1 -10.35 -4.9 L-9.8 -6.3 Q-8.95 -7.7 -6.75 -8.0 L-5.85 -8.1 -5.7 -7.75 Q-5.2 -6.8 -3.75 -6.15 -5.15 -0.9 -3.7 2.2 L-6.2 2.45 -7.65 1.7 -7.8 1.55 Q-8.95 0.6 -9.35 0.55 M-3.4 -6.1 L1.0 -6.25 2.4 -6.75 3.2 -7.2 Q9.85 -3.35 5.85 2.45 3.25 4.35 0.1 3.5 -0.8 2.95 -2.05 2.6 L-2.25 2.55 Q-4.95 1.6 -3.4 -6.1" fill="#ffffff" fill-rule="evenodd" stroke="none"/>
    <path d="M-4.7 -10.7 L-4.65 -10.7 -4.7 -10.6 -4.7 -10.7" fill="#eebf5a" fill-rule="evenodd" stroke="none"/>
    <path d="M3.2 -7.2 Q4.85 -8.3 3.5 -9.45 L6.1 -8.3 6.5 -8.05 7.85 -7.25 Q10.55 -5.85 10.3 -4.65 L10.35 -3.85 Q10.3 0.35 8.7 3.9 L8.5 4.3 8.5 4.35 Q7.9 7.75 7.95 8.3 L7.9 11.75 7.85 15.55 Q6.8 16.2 4.8 16.3 L-1.7 16.65 Q-5.9 15.95 -6.85 14.85 L-8.0 13.45 Q-8.25 13.15 -8.1 12.55 L-7.8 10.95 -7.65 9.0 -7.75 6.0 -7.8 5.2 M-7.8 5.15 L-8.0 4.65 -8.2 4.05 -8.55 3.05 -8.6 2.95 -9.35 0.55 Q-10.45 -3.1 -10.35 -4.9 L-10.25 -6.9 M-8.4 -10.05 L-6.9 -10.4 -5.75 -10.6 -4.7 -10.7 -4.65 -10.7 -4.7 -10.6 Q-5.5 -10.35 -5.8 -9.85 -6.1 -8.85 -5.85 -8.1 L-5.7 -7.75 Q-5.2 -6.8 -3.75 -6.15 L-3.4 -6.1 1.0 -6.25 2.4 -6.75 3.2 -7.2 Z" fill="none" stroke="#a0a0a0" stroke-linecap="round" stroke-linejoin="round" stroke-width="0.05"/>
  </g>
</svg>
