<?xml version="1.0" encoding="UTF-8" standalone="no"?>
<svg xmlns:xlink="http://www.w3.org/1999/xlink" height="27.9px" width="20.7px" xmlns="http://www.w3.org/2000/svg">
  <g transform="matrix(1.0, 0.0, 0.0, 1.0, 10.35, 11.9)">
    <path d="M5.45 -8.55 L5.4 -8.0 5.2 -7.15 5.1 -6.85 4.7 -5.75 4.25 -4.7 3.85 -4.0 3.6 -3.7 3.3 -3.4 2.3 -2.55 Q-0.85 -0.25 -4.4 -1.2 L-5.55 -2.05 -6.25 -2.8 -6.85 -3.65 -7.0 -3.9 Q-7.95 -5.85 -7.15 -8.25 L-7.1 -8.5 -6.15 -10.55 Q-5.75 -11.35 -5.15 -11.2 L-4.55 -11.9 Q-5.2 -9.7 -3.6 -8.75 L1.05 -8.9 Q3.45 -10.35 3.15 -11.2 L3.55 -11.05 Q4.1 -10.75 4.2 -9.95 L4.55 -9.9 Q5.3 -9.7 5.45 -8.55 M4.0 -7.9 L4.2 -8.55 4.3 -9.2 3.85 -7.95 3.7 -7.65 3.65 -7.6 3.65 -7.55 Q2.25 -4.85 -1.25 -3.6 L-1.85 -3.45 Q-5.05 -2.9 -6.35 -4.4 -5.9 -3.4 -4.7 -2.9 L-4.25 -2.7 -1.85 -3.05 -1.45 -3.2 -1.0 -3.35 Q-0.35 -3.6 0.05 -3.8 L1.0 -4.4 1.6 -4.75 1.65 -4.8 Q2.95 -5.7 3.55 -6.85 L3.7 -7.2 3.85 -7.55 4.0 -7.9 M1.2 -6.5 Q-4.05 -4.45 -5.25 -7.3 L-5.4 -7.6 -5.45 -7.9 Q-5.65 -10.35 -5.15 -11.2 -5.65 -10.35 -5.45 -7.9 L-5.4 -7.6 -5.25 -7.3 Q-4.05 -4.45 1.2 -6.5" fill="#e2cfcb" fill-rule="evenodd" stroke="none"/>
    <path d="M4.75 12.75 Q6.1 12.4 6.8 11.85 7.8 12.85 7.35 14.25 4.4 16.0 -0.5 16.0 L-1.7 15.95 -3.65 15.6 Q-4.4 13.85 -3.75 12.85 L-3.55 12.9 -3.2 13.0 -0.8 13.15 -0.55 13.15 4.75 12.75" fill="#87584e" fill-rule="evenodd" stroke="none"/>
    <path d="M-7.6 3.2 L-7.6 3.25 -7.6 3.2" fill="#ffdfc8" fill-rule="evenodd" stroke="none"/>
    <path d="M-7.6 3.25 L-7.6 3.2 -7.6 3.25" fill="#ffffff" fill-rule="evenodd" stroke="none"/>
    <path d="M-3.65 15.6 Q-5.6 15.15 -6.8 14.4 L-7.9 13.45 Q-8.45 11.5 -7.55 10.35 L-6.75 11.45 Q-5.8 12.25 -3.75 12.85 -4.4 13.85 -3.65 15.6 M4.3 -9.2 L4.2 -8.55 4.0 -7.9 3.85 -7.95 4.0 -7.9 3.85 -7.55 3.7 -7.2 3.55 -6.85 Q2.95 -5.7 1.65 -4.8 L1.6 -4.75 1.0 -4.4 0.05 -3.8 Q-0.35 -3.6 -1.0 -3.35 L-1.45 -3.2 -1.85 -3.05 -4.25 -2.7 -4.7 -2.9 Q-5.9 -3.4 -6.35 -4.4 -5.05 -2.9 -1.85 -3.45 L-1.25 -3.6 Q2.25 -4.85 3.65 -7.55 L3.65 -7.6 3.7 -7.65 3.85 -7.95 4.3 -9.2" fill="#b18378" fill-rule="evenodd" stroke="none"/>
    <path d="M5.1 -6.85 L5.8 -6.4 7.3 -5.5 Q8.4 -4.6 8.25 -3.8 L8.3 -3.0 Q8.25 3.3 5.2 8.05 L5.8 11.15 4.75 12.75 -0.55 13.15 -0.8 13.15 -3.2 13.0 -3.55 12.9 -3.75 12.85 Q-5.8 12.25 -6.75 11.45 L-7.55 10.35 Q-8.45 9.2 -8.05 7.55 L-7.5 4.8 -7.6 3.25 -7.65 1.7 -7.8 1.55 -9.15 -0.3 Q-11.9 -4.9 -8.4 -10.05 L-7.25 -10.35 -7.15 -10.35 -6.15 -10.55 -7.1 -8.5 -7.15 -8.25 Q-7.95 -5.85 -7.0 -3.9 L-6.85 -3.65 -6.25 -2.8 -5.55 -2.05 -4.4 -1.2 Q-0.85 -0.25 2.3 -2.55 L3.3 -3.4 3.6 -3.7 3.85 -4.0 4.25 -4.7 4.7 -5.75 5.1 -6.85" fill="#8bc087" fill-rule="evenodd" stroke="none"/>
    <path d="M5.45 -8.55 L6.1 -8.3 6.5 -8.05 7.85 -7.25 Q10.55 -5.85 10.3 -4.65 L10.35 -3.85 10.25 -1.9 10.25 -1.75 Q9.8 3.3 7.25 7.2 L7.85 10.3 6.8 11.85 Q6.1 12.4 4.75 12.75 L5.8 11.15 5.2 8.05 Q8.25 3.3 8.3 -3.0 L8.25 -3.8 Q8.4 -4.6 7.3 -5.5 L5.8 -6.4 5.1 -6.85 5.2 -7.15 5.4 -8.0 5.45 -8.55" fill="#5a9e54" fill-rule="evenodd" stroke="none"/>
    <path d="M5.45 -8.55 L5.4 -8.0 5.2 -7.15 5.1 -6.85 4.7 -5.75 4.25 -4.7 3.85 -4.0 3.6 -3.7 3.3 -3.4 2.3 -2.55 Q-0.85 -0.25 -4.4 -1.2 L-5.55 -2.05 -6.25 -2.8 -6.85 -3.65 -7.0 -3.9 Q-7.95 -5.85 -7.15 -8.25 L-7.1 -8.5 -6.15 -10.55 Q-5.75 -11.35 -5.15 -11.2 L-4.55 -11.9 Q-5.2 -9.7 -3.6 -8.75 L1.05 -8.9 Q3.45 -10.35 3.15 -11.2 L3.55 -11.05 Q4.1 -10.75 4.2 -9.95 L4.55 -9.9 Q5.3 -9.7 5.45 -8.55 M4.75 12.75 Q6.1 12.4 6.8 11.85 7.8 12.85 7.35 14.25 4.4 16.0 -0.5 16.0 L-1.7 15.95 -3.65 15.6 Q-5.6 15.15 -6.8 14.4 L-7.9 13.45 Q-8.45 11.5 -7.55 10.35 L-6.75 11.45 Q-5.8 12.25 -3.75 12.85 L-3.55 12.9 -3.2 13.0 -0.8 13.15 -0.55 13.15 4.75 12.75 M4.0 -7.9 L4.2 -8.55 4.3 -9.2 M4.0 -7.9 L3.85 -7.55 3.7 -7.2 3.55 -6.85 Q2.95 -5.7 1.65 -4.8 L1.6 -4.75 1.0 -4.4 0.05 -3.8 Q-0.35 -3.6 -1.0 -3.35 L-1.45 -3.2 -1.85 -3.05 -4.25 -2.7 M-5.15 -11.2 Q-5.65 -10.35 -5.45 -7.9 L-5.4 -7.6 -5.25 -7.3 Q-4.05 -4.45 1.2 -6.5 M-3.65 15.6 Q-4.4 13.85 -3.75 12.85" fill="none" stroke="#7b5046" stroke-linecap="round" stroke-linejoin="round" stroke-width="0.05"/>
    <path d="M-7.15 -10.35 L-6.15 -10.55 M3.85 -7.95 L4.0 -7.9" fill="none" stroke="#666666" stroke-linecap="round" stroke-linejoin="round" stroke-width="0.05"/>
    <path d="M6.8 11.85 L7.85 10.3 7.25 7.2 Q9.8 3.3 10.25 -1.75 L10.25 -1.9 10.35 -3.85 10.3 -4.65 Q10.55 -5.85 7.85 -7.25 L6.5 -8.05 6.1 -8.3 5.45 -8.55 M-7.55 10.35 Q-8.45 9.2 -8.05 7.55 L-7.5 4.8 -7.6 3.25 -7.65 1.7 -7.8 1.55 -9.15 -0.3 Q-11.9 -4.9 -8.4 -10.05 L-7.25 -10.35 -7.15 -10.35" fill="none" stroke="#666666" stroke-linecap="round" stroke-linejoin="round" stroke-width="0.05"/>
    <path d="M-2.25 12.75 Q-2.4 12.3 -2.7 11.95 -3.3 11.35 -4.05 11.4 -4.8 11.4 -5.25 12.1 L-5.4 12.35 Q-5.75 12.95 -5.7 13.65 -5.65 14.45 -5.2 15.0 L-5.05 15.15 Q-4.5 15.75 -3.75 15.7 L-2.75 15.3 -2.5 15.0 Q-2.0 14.35 -2.1 13.5 -2.1 13.05 -2.25 12.75 M-1.75 12.75 L-1.65 13.45 Q-1.55 14.45 -2.1 15.2 L-2.15 15.3 Q-2.7 15.95 -3.55 16.0 -4.4 16.05 -5.05 15.35 L-5.4 14.95 -5.8 13.65 Q-5.85 12.9 -5.55 12.3 L-5.3 11.85 Q-4.75 11.1 -3.9 11.05 -3.0 11.0 -2.35 11.7 L-1.75 12.75 M-4.15 12.55 L-4.05 12.85 -4.15 13.15 Q-4.25 13.3 -4.45 13.3 L-4.85 13.2 -5.0 12.9 -4.85 12.5 -4.8 12.45 -4.5 12.35 Q-4.3 12.35 -4.2 12.5 L-4.15 12.55" fill="#ffffff" fill-rule="evenodd" stroke="none"/>
    <path d="M-2.25 12.75 Q-2.1 13.05 -2.1 13.5 -2.0 14.35 -2.5 15.0 L-2.75 15.3 -3.75 15.7 Q-4.5 15.75 -5.05 15.15 L-5.2 15.0 Q-5.65 14.45 -5.7 13.65 -5.75 12.95 -5.4 12.35 L-5.25 12.1 Q-4.8 11.4 -4.05 11.4 -3.3 11.35 -2.7 11.95 -2.4 12.3 -2.25 12.75 M-4.15 12.55 L-4.2 12.5 Q-4.3 12.35 -4.5 12.35 L-4.8 12.45 -4.85 12.5 -5.0 12.9 -4.85 13.2 -4.45 13.3 Q-4.25 13.3 -4.15 13.15 L-4.05 12.85 -4.15 12.55" fill="#8bd7fe" fill-rule="evenodd" stroke="none"/>
    <path d="M-1.75 12.75 L-1.65 13.45 Q-1.55 14.45 -2.1 15.2 L-2.15 15.3 Q-2.7 15.95 -3.55 16.0 -4.4 16.05 -5.05 15.35 L-5.4 14.95 -5.8 13.65 Q-5.85 12.9 -5.55 12.3 L-5.3 11.85 Q-4.75 11.1 -3.9 11.05 -3.0 11.0 -2.35 11.7 L-1.75 12.75 Z" fill="none" stroke="#a0a0a0" stroke-linecap="round" stroke-linejoin="round" stroke-width="0.05"/>
  </g>
</svg>
