<?xml version="1.0" encoding="UTF-8" standalone="no"?>
<svg xmlns:xlink="http://www.w3.org/1999/xlink" height="27.85px" width="21.0px" xmlns="http://www.w3.org/2000/svg">
  <g transform="matrix(1.0, 0.0, 0.0, 1.0, 10.65, 10.9)">
    <path d="M0.3 15.8 Q-2.95 15.8 -5.15 14.95 L-5.55 10.6 -5.8 5.65 -5.8 4.5 -5.8 3.0 -5.8 2.6 -5.8 2.35 -3.7 2.2 Q-5.05 -0.75 -3.95 -5.0 -4.85 1.6 -2.25 2.55 L-2.05 2.6 -0.75 3.05 -0.7 3.8 -0.65 5.2 -0.6 6.55 -0.25 11.5 0.3 15.8 M-8.7 5.75 L-8.75 5.75 -8.7 5.7 -8.7 5.75" fill="#f2f2f2" fill-rule="evenodd" stroke="none"/>
    <path d="M0.05 -4.85 Q0.85 -6.15 2.75 -6.9 L3.2 -7.2 4.05 -8.05 Q4.3 -8.75 3.5 -9.45 3.85 -9.85 4.4 -9.1 L6.1 -8.3 6.5 -8.05 7.85 -7.25 Q10.55 -5.85 10.3 -4.65 L10.35 -3.85 10.35 -3.7 Q10.3 0.4 8.7 3.9 L8.6 4.1 Q3.15 8.95 -0.65 5.2 L-0.7 3.8 -0.75 3.05 -0.75 2.7 -0.75 -1.8 Q-0.75 -3.5 0.05 -4.85 M-9.5 2.55 Q-11.7 -3.3 -9.7 -8.4 L-8.4 -10.05 -6.9 -10.4 -5.75 -10.6 -4.7 -10.7 -4.7 -10.6 -5.75 -9.95 -5.8 -9.85 -5.95 -9.35 -5.95 -8.7 -5.85 -8.1 -5.75 -7.55 -5.7 -6.8 -5.65 -2.8 -5.8 2.35 -5.8 2.6 -5.8 3.0 -5.8 4.5 -5.85 4.5 Q-8.6 5.3 -9.5 2.55" fill="#5e5e5e" fill-rule="evenodd" stroke="none"/>
    <path d="M8.6 4.1 L8.5 4.3 8.7 6.6 8.8 8.9 8.85 13.3 Q8.6 15.1 6.9 15.85 L6.1 16.2 3.7 16.65 1.45 16.7 Q1.2 17.25 0.4 16.7 L0.3 15.8 -0.25 11.5 -0.6 6.55 -0.65 5.2 Q3.15 8.95 8.6 4.1 M-5.15 14.95 L-5.05 15.85 Q-5.65 16.0 -5.95 15.5 -9.3 15.45 -9.4 12.25 -9.05 11.15 -8.95 9.75 L-8.95 9.1 -8.9 8.05 -8.7 5.75 -8.7 5.7 -9.5 2.55 Q-8.6 5.3 -5.85 4.5 L-5.8 4.5 -5.8 5.65 -5.55 10.6 -5.15 14.95 M-7.65 9.0 L-6.55 8.95 -7.65 9.0" fill="#333333" fill-rule="evenodd" stroke="none"/>
    <path d="M-4.7 -10.7 L-4.65 -10.7 -4.7 -10.6 -4.7 -10.7" fill="#eebf5a" fill-rule="evenodd" stroke="none"/>
    <path d="M-5.7 -6.8 Q-5.55 -5.4 -3.95 -5.0 L0.05 -4.85 Q-0.75 -3.5 -0.75 -1.8 L-0.75 2.7 -0.75 3.05 -2.05 2.6 -2.25 2.55 Q-4.85 1.6 -3.95 -5.0 -5.05 -0.75 -3.7 2.2 L-5.8 2.35 -5.65 -2.8 -5.7 -6.8" fill="#ffffff" fill-rule="evenodd" stroke="none"/>
    <path d="M0.05 -4.85 Q0.85 -6.15 2.75 -6.9 L3.2 -7.2 4.05 -8.05 Q4.3 -8.75 3.5 -9.45 3.85 -9.85 4.4 -9.1 L6.1 -8.3 6.5 -8.05 7.85 -7.25 Q10.55 -5.85 10.3 -4.65 L10.35 -3.85 10.35 -3.7 Q10.3 0.4 8.7 3.9 L8.6 4.1 8.5 4.3 8.7 6.6 8.8 8.9 8.85 13.3 Q8.6 15.1 6.9 15.85 L6.1 16.2 3.7 16.65 1.45 16.7 Q1.2 17.25 0.4 16.7 L0.3 15.8 Q-2.95 15.8 -5.15 14.95 L-5.05 15.85 Q-5.65 16.0 -5.95 15.5 -9.3 15.45 -9.4 12.25 -9.05 11.15 -8.95 9.75 L-8.95 9.1 -8.9 8.05 -8.7 5.75 -8.7 5.7 -9.5 2.55 Q-11.7 -3.3 -9.7 -8.4 M-8.4 -10.05 L-6.9 -10.4 -5.75 -10.6 -4.7 -10.7 -4.65 -10.7 -4.7 -10.6 -5.75 -9.95 -5.8 -9.85 -5.95 -9.35 -5.95 -8.7 -5.85 -8.1 -5.75 -7.55 -5.7 -6.8 -5.65 -2.8 -5.8 2.35 -5.8 2.6 -5.8 3.0 -5.8 4.5 -5.8 5.65 -5.55 10.6 -5.15 14.95 M0.05 -4.85 Q-0.75 -3.5 -0.75 -1.8 L-0.75 2.7 -0.75 3.05 -0.7 3.8 -0.65 5.2 -0.6 6.55 -0.25 11.5 0.3 15.8" fill="none" stroke="#000000" stroke-linecap="round" stroke-linejoin="round" stroke-width="0.05"/>
    <path d="M-5.7 -6.8 Q-5.55 -5.4 -3.95 -5.0 L0.05 -4.85 Z" fill="none" stroke="#5e5e5e" stroke-linecap="round" stroke-linejoin="round" stroke-width="0.05"/>
  </g>
</svg>
