<?xml version="1.0" encoding="UTF-8" standalone="no"?>
<svg xmlns:xlink="http://www.w3.org/1999/xlink" height="27.35px" width="20.8px" xmlns="http://www.w3.org/2000/svg">
  <g transform="matrix(1.0, 0.0, 0.0, 1.0, 10.4, 11.35)">
    <path d="M4.6 -9.25 L5.25 -9.0 5.4 -8.9 7.45 -7.8 Q7.5 -7.65 9.0 -6.85 10.45 -6.1 10.4 -5.15 L10.35 -3.85 Q10.3 2.45 7.25 7.2 L7.85 10.3 6.8 11.85 Q7.75 12.85 7.4 14.2 L7.35 14.25 Q4.4 16.0 -0.5 16.0 L-1.7 15.95 -3.4 15.65 -1.05 15.25 Q1.5 14.65 1.45 13.95 1.4 13.2 1.2 13.15 L1.1 11.75 1.2 11.75 3.45 10.75 0.65 6.85 -0.8 6.95 Q1.35 4.85 0.0 3.25 -1.4 1.65 -1.8 1.6 L-2.65 1.4 -1.75 1.5 Q7.2 2.35 8.7 -4.55 8.4 -6.45 5.35 -8.2 L4.0 -8.9 4.5 -9.3 4.6 -9.25 M-8.45 3.0 L-8.8 0.35 Q-8.2 1.1 -7.2 1.15 -8.6 1.3 -8.45 3.0 M-8.35 -10.1 L-8.25 -10.1 -5.45 -10.7 -5.45 -10.05 -6.5 -9.8 -6.95 -9.65 Q-7.35 -10.2 -8.35 -10.1 M-4.8 -10.25 L-4.85 -10.1 -4.85 -10.3 -4.8 -10.25 M-4.3 11.9 L-4.3 11.95 -4.3 11.9" fill="#6992a7" fill-rule="evenodd" stroke="none"/>
    <path d="M-3.4 15.65 L-3.65 15.6 -5.5 15.05 -6.8 14.4 -7.9 13.45 Q-8.45 11.5 -7.55 10.35 -8.95 9.25 -8.45 8.15 -8.0 7.05 -8.1 6.05 L-8.45 3.0 Q-8.6 1.3 -7.2 1.15 -8.2 1.1 -8.8 0.35 L-8.8 0.25 -8.85 0.2 -9.15 -0.3 Q-10.85 -3.0 -10.25 -5.85 L-10.25 -6.05 -10.0 -7.15 -9.2 -9.0 -8.45 -10.05 -8.35 -10.1 Q-7.35 -10.2 -6.95 -9.65 L-6.5 -9.8 -5.45 -10.05 Q-5.5 -8.1 -5.05 -6.75 L-4.75 -6.75 Q-4.4 -4.4 -4.4 -2.0 L-4.65 -1.85 -4.7 -1.75 -4.85 -1.35 -4.6 -0.95 -4.5 -0.85 -4.4 -0.8 -4.45 -0.8 -4.35 -0.8 -4.15 -0.8 Q-3.9 -0.8 -3.7 -1.0 L-3.5 -1.45 -3.75 -1.9 Q-3.7 -4.25 -4.0 -6.75 L-3.7 -6.75 -3.6 -6.75 -2.7 -6.4 Q-3.35 -3.9 -2.85 -1.5 L-3.0 -1.1 -2.75 -0.7 -2.65 -0.6 -2.3 -0.55 -1.85 -0.75 -1.65 -1.2 -1.9 -1.65 -2.15 -1.8 Q-2.7 -3.85 -1.8 -6.05 L-1.65 -6.0 Q1.5 -6.9 4.0 -8.9 L5.35 -8.2 Q8.4 -6.45 8.7 -4.55 7.2 2.35 -1.75 1.5 L-2.65 1.4 -1.8 1.6 Q-1.4 1.65 0.0 3.25 1.35 4.85 -0.8 6.95 L-4.65 6.35 -6.65 5.65 -7.3 9.5 Q-6.05 11.0 -4.3 11.9 L1.1 11.75 1.2 13.15 Q1.4 13.2 1.45 13.95 1.5 14.65 -1.05 15.25 L-3.4 15.65 M-4.3 11.9 L-4.3 11.95 -4.3 11.9" fill="#97b3c1" fill-rule="evenodd" stroke="none"/>
    <path d="M-4.85 -10.3 L-4.85 -10.05 Q-4.95 -7.85 -3.7 -6.75 L-4.0 -6.75 -4.75 -6.75 -5.05 -6.75 Q-5.5 -8.1 -5.45 -10.05 L-4.85 -10.3 M-3.6 -6.75 Q0.6 -7.5 3.0 -9.35 L4.0 -8.9 Q1.5 -6.9 -1.65 -6.0 L-1.8 -6.05 -2.7 -6.4 -3.6 -6.75" fill="#608e9f" fill-rule="evenodd" stroke="none"/>
    <path d="M-2.15 -1.8 L-1.9 -1.65 -1.65 -1.2 -1.85 -0.75 -2.3 -0.55 -2.65 -0.6 -2.75 -0.7 -3.0 -1.1 -2.85 -1.5 -2.8 -1.6 -2.35 -1.85 -2.15 -1.8 M-3.75 -1.9 L-3.5 -1.45 -3.7 -1.0 Q-3.9 -0.8 -4.15 -0.8 L-4.35 -0.8 -4.4 -0.8 -4.5 -0.85 -4.6 -0.95 -4.85 -1.35 -4.7 -1.75 -4.65 -1.85 -4.4 -2.0 -4.3 -2.05 -4.2 -2.1 -4.1 -2.1 -4.0 -2.05 -3.75 -1.9" fill="#4e7381" fill-rule="evenodd" stroke="none"/>
    <path d="M-1.8 -6.05 Q-2.7 -3.85 -2.15 -1.8 L-2.35 -1.85 -2.8 -1.6 -2.85 -1.5 Q-3.35 -3.9 -2.7 -6.4 L-1.8 -6.05 M-4.75 -6.75 L-4.0 -6.75 Q-3.7 -4.25 -3.75 -1.9 L-4.0 -2.05 -4.1 -2.1 -4.2 -2.1 -4.3 -2.05 -4.4 -2.0 Q-4.4 -4.4 -4.75 -6.75" fill="#dde7ea" fill-rule="evenodd" stroke="none"/>
    <path d="M3.8 -10.8 Q5.2 -10.15 4.6 -9.25 L4.5 -9.3 4.0 -8.9 3.0 -9.35 3.3 -9.6 Q2.95 -9.5 2.75 -11.1 L3.8 -10.8 M-5.45 -10.7 Q-5.2 -11.3 -4.55 -11.35 L-4.7 -10.85 -4.7 -10.75 -4.8 -10.25 -4.85 -10.3 -5.45 -10.05 -5.45 -10.7" fill="#40626a" fill-rule="evenodd" stroke="none"/>
    <path d="M3.8 -10.8 Q4.9 -10.45 5.4 -9.55 L5.4 -8.9 5.25 -9.0 4.6 -9.25 Q5.2 -10.15 3.8 -10.8" fill="#2e464b" fill-rule="evenodd" stroke="none"/>
    <path d="M-2.15 -1.8 L-1.9 -1.65 -1.65 -1.2 -1.85 -0.75 -2.3 -0.55 -2.65 -0.6 -2.75 -0.7 -3.0 -1.1 -2.85 -1.5 -2.8 -1.6 -2.35 -1.85 -2.15 -1.8 M-3.75 -1.9 L-3.5 -1.45 -3.7 -1.0 Q-3.9 -0.8 -4.15 -0.8 L-4.35 -0.8 -4.4 -0.8 -4.5 -0.85 -4.6 -0.95 -4.85 -1.35 -4.7 -1.75 -4.65 -1.85 -4.4 -2.0 -4.3 -2.05 -4.2 -2.1 -4.1 -2.1 -4.0 -2.05 -3.75 -1.9" fill="none" stroke="#2e464b" stroke-linecap="round" stroke-linejoin="round" stroke-width="0.05"/>
    <path d="M-2.85 -1.5 Q-3.35 -3.9 -2.7 -6.4 M-4.4 -2.0 Q-4.4 -4.4 -4.75 -6.75" fill="none" stroke="#dde7ea" stroke-linecap="round" stroke-linejoin="round" stroke-width="0.05"/>
    <path d="M5.4 -8.9 L5.4 -9.55 Q4.9 -10.45 3.8 -10.8 L2.75 -11.1 Q2.95 -9.5 3.3 -9.6 L3.0 -9.35 Q0.6 -7.5 -3.6 -6.75 L-3.7 -6.75 Q-4.95 -7.85 -4.85 -10.05 L-4.85 -10.3 -4.85 -10.1 -4.8 -10.25 -4.7 -10.75 -4.7 -10.85 -4.55 -11.35 Q-5.2 -11.3 -5.45 -10.7 L-8.25 -10.1 M4.6 -9.25 L5.25 -9.0 5.4 -8.9 7.45 -7.8 Q7.5 -7.65 9.0 -6.85 10.45 -6.1 10.4 -5.15 L10.35 -3.85 Q10.3 2.45 7.25 7.2 L7.85 10.3 6.8 11.85 Q7.75 12.85 7.4 14.2 L7.35 14.25 Q4.4 16.0 -0.5 16.0 L-1.7 15.95 -3.4 15.65 -3.65 15.6 -5.5 15.05 -6.8 14.4 -7.9 13.45 Q-8.45 11.5 -7.55 10.35 -8.95 9.25 -8.45 8.15 -8.0 7.05 -8.1 6.05 L-8.45 3.0 -8.8 0.35 -8.8 0.25 -8.85 0.2 -9.15 -0.3 Q-10.85 -3.0 -10.25 -5.85 L-10.25 -6.05 -10.0 -7.15 M4.5 -9.3 L4.6 -9.25" fill="none" stroke="#38575f" stroke-linecap="round" stroke-linejoin="round" stroke-width="0.05"/>
    <path d="M1.2 11.75 L1.1 11.75 -4.3 11.9 Q-6.05 11.0 -7.3 9.5 L-6.65 5.65 -4.65 6.35 -0.8 6.95 Q0.9 9.25 1.2 11.75" fill="#608e9f" fill-rule="evenodd" stroke="none"/>
    <path d="M-0.8 6.95 L0.65 6.85 3.45 10.75 1.2 11.75 Q0.9 9.25 -0.8 6.95" fill="#507785" fill-rule="evenodd" stroke="none"/>
    <path d="M1.2 11.75 L1.1 11.75 -4.3 11.9 Q-6.05 11.0 -7.3 9.5 L-6.65 5.65 -4.65 6.35 -0.8 6.95" fill="none" stroke="#38575f" stroke-linecap="round" stroke-linejoin="round" stroke-width="0.05"/>
    <path d="M-0.8 6.95 L0.65 6.85 3.45 10.75 1.2 11.75 Z" fill="none" stroke="#38575f" stroke-linecap="round" stroke-linejoin="round" stroke-width="0.05"/>
  </g>
</svg>
