<?xml version="1.0" encoding="UTF-8" standalone="no"?>
<svg xmlns:xlink="http://www.w3.org/1999/xlink" height="27.2px" width="20.7px" xmlns="http://www.w3.org/2000/svg">
  <g transform="matrix(1.0, 0.0, 0.0, 1.0, 10.35, 10.7)">
    <path d="M-4.1 -4.65 Q3.0 -3.2 5.15 -6.7 5.9 -8.15 5.2 -8.7 L6.1 -8.3 6.5 -8.05 7.85 -7.25 Q10.55 -5.85 10.3 -4.65 L10.35 -3.85 Q8.8 -0.4 6.9 1.55 L6.15 2.1 4.15 3.3 0.1 3.5 -3.7 2.2 -6.2 2.45 Q-7.15 2.6 -7.65 1.7 L-7.8 1.55 -9.15 -0.3 Q-11.9 -4.9 -8.4 -10.05 L-6.15 -10.55 Q-9.6 -7.15 -4.1 -4.65 -4.9 -0.45 -3.7 2.2 -4.9 -0.45 -4.1 -4.65 M-7.6 3.25 L-7.6 3.2 -7.6 3.25" fill="#ffffff" fill-rule="evenodd" stroke="none"/>
    <path d="M-7.65 1.7 Q-7.15 2.6 -6.2 2.45 L-3.7 2.2 -3.4 3.25 -3.0 3.8 -3.4 3.25 -3.7 2.2 0.1 3.5 4.15 3.3 6.15 2.1 6.9 1.55 Q8.8 -0.4 10.35 -3.85 10.3 2.45 6.65 7.35 4.1 9.35 1.15 7.85 -1.6 6.45 -3.0 3.8 L-4.25 3.85 Q-4.85 3.9 -5.0 4.15 -6.55 5.4 -6.9 6.9 -7.55 5.25 -7.6 3.25 L-7.6 3.2 -7.65 1.7" fill="#e0e0e0" fill-rule="evenodd" stroke="none"/>
    <path d="M-4.7 -10.6 L-4.7 -10.7 -4.65 -10.7 -4.7 -10.6" fill="#eebf5a" fill-rule="evenodd" stroke="none"/>
    <path d="M5.2 -8.7 Q5.9 -8.15 5.15 -6.7 3.0 -3.2 -4.1 -4.65 -4.2 -5.4 -3.75 -6.15 L1.0 -6.25 2.4 -6.75 2.8 -6.95 Q5.0 -8.15 3.5 -9.45 L5.2 -8.7 M6.65 7.35 Q7.25 10.35 6.8 11.85 7.35 12.3 7.6 14.6 4.45 17.2 -3.75 16.2 -4.4 13.85 -3.75 12.85 -5.5 10.75 -4.25 3.85 L-3.0 3.8 Q-1.6 6.45 1.15 7.85 4.1 9.35 6.65 7.35 M6.8 11.85 Q5.0 13.25 -0.55 13.15 L-0.8 13.15 -3.2 13.0 -3.55 12.9 -3.75 12.85 -3.55 12.9 -3.2 13.0 -0.8 13.15 -0.55 13.15 Q5.0 13.25 6.8 11.85" fill="#000000" fill-rule="evenodd" stroke="none"/>
    <path d="M-3.75 -6.15 Q-4.2 -5.4 -4.1 -4.65 -9.6 -7.15 -6.15 -10.55 L-5.75 -10.6 -4.7 -10.7 -4.7 -10.6 Q-5.5 -10.35 -5.8 -9.85 L-5.95 -9.25 Q-6.05 -8.4 -5.7 -7.75 -5.2 -6.8 -3.75 -6.15 M-3.75 16.2 Q-6.75 15.4 -8.2 13.35 L-7.55 10.35 Q-7.55 8.95 -7.1 7.6 L-6.9 6.9 Q-6.55 5.4 -5.0 4.15 -4.85 3.9 -4.25 3.85 -5.5 10.75 -3.75 12.85 -5.8 12.25 -6.75 11.45 L-7.55 10.35 -6.75 11.45 Q-5.8 12.25 -3.75 12.85 -4.4 13.85 -3.75 16.2" fill="#5a5a5a" fill-rule="evenodd" stroke="none"/>
    <path d="M-6.15 -10.55 L-8.4 -10.05 Q-11.9 -4.9 -9.15 -0.3 L-7.8 1.55 -7.65 1.7 -7.6 3.2 M-6.2 2.45 L-3.7 2.2 Q-4.9 -0.45 -4.1 -4.65 M5.2 -8.7 L6.1 -8.3 6.5 -8.05 7.85 -7.25 Q10.55 -5.85 10.3 -4.65 L10.35 -3.85 Q10.3 2.45 6.65 7.35 M-6.9 6.9 Q-7.55 5.25 -7.6 3.25 M-4.7 -10.7 L-4.65 -10.7 -4.7 -10.6 M-3.0 3.8 L-3.4 3.25 -3.7 2.2" fill="none" stroke="#a0a0a0" stroke-linecap="round" stroke-linejoin="round" stroke-width="0.05"/>
    <path d="M-4.1 -4.65 Q3.0 -3.2 5.15 -6.7 5.9 -8.15 5.2 -8.7 L3.5 -9.45 Q5.0 -8.15 2.8 -6.95 L2.4 -6.75 1.0 -6.25 -3.75 -6.15 Q-4.2 -5.4 -4.1 -4.65 -9.6 -7.15 -6.15 -10.55 L-5.75 -10.6 -4.7 -10.7 -4.7 -10.6 Q-5.5 -10.35 -5.8 -9.85 L-5.95 -9.25 Q-6.05 -8.4 -5.7 -7.75 -5.2 -6.8 -3.75 -6.15 M6.65 7.35 Q7.25 10.35 6.8 11.85 7.35 12.3 7.6 14.6 4.45 17.2 -3.75 16.2 -6.75 15.4 -8.2 13.35 L-7.55 10.35 Q-7.55 8.95 -7.1 7.6 L-6.9 6.9 Q-6.55 5.4 -5.0 4.15 -4.85 3.9 -4.25 3.85 -5.5 10.75 -3.75 12.85 L-3.55 12.9 -3.2 13.0 -0.8 13.15 -0.55 13.15 Q5.0 13.25 6.8 11.85 M6.65 7.35 Q4.1 9.35 1.15 7.85 -1.6 6.45 -3.0 3.8 L-4.25 3.85 M-7.55 10.35 L-6.75 11.45 Q-5.8 12.25 -3.75 12.85 -4.4 13.85 -3.75 16.2" fill="none" stroke="#333333" stroke-linecap="round" stroke-linejoin="round" stroke-width="0.05"/>
    <path d="M-2.4 2.15 Q-2.3 3.15 -2.85 3.9 L-2.9 4.0 Q-3.45 4.65 -4.3 4.7 -5.15 4.75 -5.8 4.05 L-6.15 3.65 -6.55 2.35 Q-6.6 1.6 -6.3 1.0 L-6.05 0.55 Q-5.5 -0.2 -4.65 -0.25 -3.75 -0.3 -3.1 0.4 L-2.5 1.45 -2.4 2.15 M-3.0 1.45 Q-3.15 1.0 -3.45 0.65 -4.05 0.05 -4.8 0.1 -5.55 0.1 -6.0 0.8 L-6.15 1.05 Q-6.5 1.65 -6.45 2.35 -6.4 3.15 -5.95 3.7 L-5.8 3.85 Q-5.25 4.45 -4.5 4.4 -3.9 4.35 -3.5 4.0 L-3.25 3.7 Q-2.75 3.05 -2.85 2.2 -2.85 1.75 -3.0 1.45 M-4.8 1.55 L-4.9 1.85 -5.2 2.0 -5.6 1.9 -5.75 1.6 -5.6 1.2 -5.55 1.15 -5.25 1.05 Q-5.05 1.05 -4.95 1.2 L-4.9 1.25 -4.8 1.55" fill="#ffffff" fill-rule="evenodd" stroke="none"/>
    <path d="M-3.0 1.45 Q-2.85 1.75 -2.85 2.2 -2.75 3.05 -3.25 3.7 L-3.5 4.0 Q-3.9 4.35 -4.5 4.4 -5.25 4.45 -5.8 3.85 L-5.95 3.7 Q-6.4 3.15 -6.45 2.35 -6.5 1.65 -6.15 1.05 L-6.0 0.8 Q-5.55 0.1 -4.8 0.1 -4.05 0.05 -3.45 0.65 -3.15 1.0 -3.0 1.45 M-4.8 1.55 L-4.9 1.25 -4.95 1.2 Q-5.05 1.05 -5.25 1.05 L-5.55 1.15 -5.6 1.2 -5.75 1.6 -5.6 1.9 -5.2 2.0 -4.9 1.85 -4.8 1.55" fill="#000000" fill-rule="evenodd" stroke="none"/>
    <path d="M-2.4 2.15 Q-2.3 3.15 -2.85 3.9 L-2.9 4.0 Q-3.45 4.65 -4.3 4.7 -5.15 4.75 -5.8 4.05 L-6.15 3.65 -6.55 2.35 Q-6.6 1.6 -6.3 1.0 L-6.05 0.55 Q-5.5 -0.2 -4.65 -0.25 -3.75 -0.3 -3.1 0.4 L-2.5 1.45 -2.4 2.15 Z" fill="none" stroke="#a0a0a0" stroke-linecap="round" stroke-linejoin="round" stroke-width="0.05"/>
  </g>
</svg>
