<?xml version="1.0" encoding="UTF-8" standalone="no"?>
<svg xmlns:xlink="http://www.w3.org/1999/xlink" height="32.45px" width="20.85px" xmlns="http://www.w3.org/2000/svg">
  <g transform="matrix(1.0, 0.0, 0.0, 1.0, 10.45, 13.4)">
    <path d="M-2.0 2.6 L-2.05 2.65 -2.05 2.6 -2.0 2.6 M-2.6 2.85 L-2.6 3.05 -2.95 2.95 -2.6 2.85 M-4.5 2.7 L-4.3 2.8 -4.5 2.8 -4.5 2.7" fill="#f2f2f2" fill-rule="evenodd" stroke="none"/>
    <path d="M-7.65 8.55 L-7.65 8.5 -7.8 5.2 -7.8 5.15 Q-6.95 6.15 -6.1 6.35 L-6.1 10.4 -7.65 8.55 -7.65 8.5 -7.65 8.55 M-1.15 -7.1 L-1.5 -5.9 -2.25 -2.15 -3.5 -2.4 -3.95 -2.35 -4.4 -2.2 -4.2 -3.85 -3.8 -6.2 -3.5 -7.25 -1.15 -7.1 -3.5 -7.25 -3.5 -9.75 -1.15 -9.5 -1.15 -7.1 M1.95 12.25 L2.1 7.75 5.35 6.95 4.85 8.2 4.65 8.65 4.95 10.95 Q3.45 11.8 1.95 12.25 M-4.3 2.8 L-3.25 2.95 -2.95 2.95 -2.6 3.05 Q-2.3 6.7 -1.6 7.4 L-1.85 12.65 -2.75 12.55 -3.7 12.2 -3.5 7.1 Q-4.2 5.9 -4.5 2.8 L-4.3 2.8 M-4.8 -1.35 L-4.3 -1.6 -3.8 -1.4 -3.6 -0.85 Q-3.55 -0.55 -3.75 -0.35 -3.95 -0.15 -4.25 -0.15 L-4.75 -0.3 -5.0 -0.8 -4.8 -1.35" fill="#ffffff" fill-rule="evenodd" stroke="none"/>
    <path d="M2.45 -11.55 L2.5 -11.55 2.45 -11.55" fill="#add2e3" fill-rule="evenodd" stroke="none"/>
    <path d="M2.6 -8.15 L2.6 -8.1 2.6 -8.15" fill="#679ab0" fill-rule="evenodd" stroke="none"/>
    <path d="M8.4 5.0 Q7.9 7.9 7.95 8.3 L7.95 9.15 4.95 10.95 4.65 8.65 4.85 8.2 5.35 6.95 Q7.05 6.25 8.4 5.0" fill="#e0e0e0" fill-rule="evenodd" stroke="none"/>
    <path d="M8.4 11.25 L8.4 13.35 Q7.15 14.7 5.8 15.15 L2.15 15.85 2.15 13.9 5.75 12.9 8.4 11.25 M-8.4 12.7 L-8.25 10.4 -7.8 10.95 -6.4 12.25 -6.35 14.4 Q-7.15 14.25 -7.9 13.35 L-8.15 13.05 -8.4 12.7 M-4.25 13.75 Q-2.65 14.5 -0.55 14.15 L-0.55 15.9 -2.6 17.4 -4.5 15.85 -4.6 13.55 -4.25 13.75" fill="#576bca" fill-rule="evenodd" stroke="none"/>
    <path d="M7.95 9.15 L8.4 11.25 5.75 12.9 2.15 13.9 2.15 15.85 5.8 15.15 Q7.15 14.7 8.4 13.35 L7.8 16.1 4.85 16.45 4.4 16.55 Q1.25 17.1 -1.6 19.05 -4.45 18.3 -8.1 14.6 L-8.4 12.7 -8.15 13.05 -7.9 13.35 Q-7.15 14.25 -6.35 14.4 L-6.4 12.25 -7.8 10.95 -8.25 10.4 -7.65 8.55 -6.1 10.4 -3.7 12.2 -2.75 12.55 -1.85 12.65 1.95 12.25 Q3.45 11.8 4.95 10.95 L7.95 9.15 M-4.25 13.75 L-4.6 13.55 -4.5 15.85 -2.6 17.4 -0.55 15.9 -0.55 14.15 Q-2.65 14.5 -4.25 13.75" fill="#263959" fill-rule="evenodd" stroke="none"/>
    <path d="M-2.25 -2.15 L-1.55 -1.75 Q-0.95 -1.3 -0.7 -0.45 L-0.65 0.1 Q-0.6 1.05 -1.2 1.8 L-1.4 2.05 -2.0 2.6 -2.05 2.6 -2.05 2.65 -2.6 2.85 -2.95 2.95 -3.25 2.95 -4.3 2.8 -4.5 2.7 -5.2 2.25 Q-5.85 1.65 -6.0 0.85 L-6.05 0.45 Q-6.1 -0.5 -5.4 -1.4 L-5.35 -1.5 -4.4 -2.2 -3.95 -2.35 -3.5 -2.4 -2.25 -2.15 M-4.8 -1.35 L-5.0 -0.8 -4.75 -0.3 -4.25 -0.15 Q-3.95 -0.15 -3.75 -0.35 -3.55 -0.55 -3.6 -0.85 L-3.8 -1.4 -4.3 -1.6 -4.8 -1.35" fill="#8bd7fe" fill-rule="evenodd" stroke="none"/>
    <path d="M6.7 1.05 L5.85 2.45 Q3.25 4.3 0.1 3.5 -0.8 3.0 -2.0 2.6 L-1.4 2.05 -1.2 1.8 Q2.7 2.2 6.7 1.05" fill="#3a9a74" fill-rule="evenodd" stroke="none"/>
    <path d="M-7.8 5.15 L-7.85 5.0 -7.8 4.95 -7.35 4.0 -7.3 3.9 Q-6.45 2.85 -4.5 2.8 -4.2 5.9 -3.5 7.1 L-3.7 12.2 -6.1 10.4 -6.1 6.35 Q-6.95 6.15 -7.8 5.15 M-9.35 0.55 L-9.95 -1.75 -10.35 -4.6 -10.35 -4.9 -9.8 -6.3 Q-9.0 -7.7 -6.75 -8.0 L-5.15 -8.35 -5.65 -9.0 -5.7 -9.05 -5.85 -9.7 -6.0 -10.55 Q-6.15 -11.7 -5.75 -12.35 -5.2 -13.3 -0.9 -13.4 L3.2 -12.9 Q2.35 -12.55 2.5 -11.55 L2.45 -11.55 2.5 -11.55 2.45 -11.55 Q2.95 -9.65 2.6 -8.15 L2.6 -8.1 Q7.5 -4.55 7.4 -1.45 3.3 -0.45 -0.7 -0.45 3.3 -0.45 7.4 -1.45 7.35 -0.3 6.7 1.05 2.7 2.2 -1.2 1.8 -0.6 1.05 -0.65 0.1 L-0.7 -0.45 Q-0.95 -1.3 -1.55 -1.75 L-2.25 -2.15 -1.5 -5.9 -1.15 -7.1 -0.75 -7.15 2.6 -8.15 -0.75 -7.15 -1.15 -7.1 -1.15 -9.5 -3.5 -9.75 -3.5 -7.25 -3.8 -6.2 -4.2 -3.85 -4.4 -2.2 -5.35 -1.5 -5.4 -1.4 Q-6.1 -0.5 -6.05 0.45 L-6.0 0.85 Q-5.85 1.65 -5.2 2.25 L-6.2 2.45 -7.65 1.7 -7.8 1.55 -9.35 0.55 M-2.6 3.05 Q-0.9 3.5 0.5 4.6 6.25 3.55 5.35 6.95 L2.1 7.75 1.95 12.25 -1.85 12.65 -1.6 7.4 Q-2.3 6.7 -2.6 3.05 M-5.15 -8.35 Q-4.5 -7.7 -3.6 -7.3 L-3.5 -7.25 -3.6 -7.3 Q-4.5 -7.7 -5.15 -8.35 M-10.35 -4.6 Q-8.1 -2.65 -5.4 -1.4 -8.1 -2.65 -10.35 -4.6 M-6.0 0.85 Q-8.45 -0.2 -9.95 -1.75 -8.45 -0.2 -6.0 0.85 M-4.8 -11.75 L2.45 -11.55 -4.8 -11.75" fill="#42ac81" fill-rule="evenodd" stroke="none"/>
    <path d="M3.2 -12.9 L4.1 -12.2 Q4.7 -11.05 4.1 -9.2 L6.1 -8.3 7.85 -7.25 Q10.5 -5.85 10.3 -4.65 L10.3 -2.35 10.0 -0.15 Q9.65 1.85 8.7 3.9 L8.5 4.3 8.5 4.35 8.4 5.0 Q7.05 6.25 5.35 6.95 6.25 3.55 0.5 4.6 -0.9 3.5 -2.6 3.05 L-2.6 2.85 -2.05 2.65 -2.0 2.6 Q-0.8 3.0 0.1 3.5 3.25 4.3 5.85 2.45 L6.7 1.05 Q7.35 -0.3 7.4 -1.45 7.5 -4.55 2.6 -8.1 L2.6 -8.15 Q2.95 -9.65 2.45 -11.55 L2.5 -11.55 Q2.35 -12.55 3.2 -12.9 M-7.85 5.0 L-8.55 3.05 -8.6 2.95 -9.35 0.55 -7.8 1.55 -7.65 1.7 -6.2 2.45 -5.2 2.25 -4.5 2.7 -4.5 2.8 Q-6.45 2.85 -7.3 3.9 L-7.35 4.0 -7.8 4.95 -7.85 5.0 M-10.35 -4.9 L-10.25 -6.9 Q-10.1 -8.2 -8.4 -10.05 L-6.9 -10.4 -6.0 -10.55 -5.85 -9.7 -5.7 -9.05 -5.65 -9.0 -5.15 -8.35 -6.75 -8.0 Q-9.0 -7.7 -9.8 -6.3 L-10.35 -4.9 M3.05 -11.75 L2.5 -11.55 3.05 -11.75 M4.1 -9.2 L4.0 -8.95 3.95 -8.9 3.05 -8.35 2.6 -8.15 3.05 -8.35 3.95 -8.9 4.0 -8.95 4.1 -9.2 M10.3 -2.35 L7.4 -1.45 10.3 -2.35 M10.0 -0.15 L6.7 1.05 10.0 -0.15" fill="#45916e" fill-rule="evenodd" stroke="none"/>
    <path d="M7.4 -1.45 L10.3 -2.35 M-0.7 -0.45 Q3.3 -0.45 7.4 -1.45 M6.7 1.05 L10.0 -0.15 M-5.4 -1.4 Q-8.1 -2.65 -10.35 -4.6 M-1.2 1.8 Q2.7 2.2 6.7 1.05 M-9.95 -1.75 Q-8.45 -0.2 -6.0 0.85" fill="none" stroke="#ffffff" stroke-linecap="round" stroke-linejoin="round" stroke-width="0.25"/>
    <path d="M7.95 9.15 L8.4 11.25 8.4 13.35 7.8 16.1 4.85 16.45 4.4 16.55 Q1.25 17.1 -1.6 19.05 -4.45 18.3 -8.1 14.6 L-8.4 12.7 -8.25 10.4 -7.65 8.55" fill="none" stroke="#000000" stroke-linecap="round" stroke-linejoin="round" stroke-width="0.05"/>
    <path d="M-1.15 -7.1 L-1.5 -5.9 -2.25 -2.15 M-2.6 2.85 L-2.6 3.05 Q-2.3 6.7 -1.6 7.4 L-1.85 12.65 M-3.5 -7.25 L-3.8 -6.2 -4.2 -3.85 -4.4 -2.2 M-1.15 -7.1 L-1.15 -9.5 -3.5 -9.75 -3.5 -7.25 M-4.5 2.8 L-4.5 2.7 M-4.5 2.8 Q-4.2 5.9 -3.5 7.1 L-3.7 12.2" fill="none" stroke="#2e813e" stroke-linecap="round" stroke-linejoin="round" stroke-width="0.25"/>
    <path d="M3.2 -12.9 L4.1 -12.2 Q4.7 -11.05 4.1 -9.2 L6.1 -8.3 7.85 -7.25 Q10.5 -5.85 10.3 -4.65 L10.3 -2.35 10.0 -0.15 Q9.65 1.85 8.7 3.9 L8.5 4.3 8.5 4.35 8.4 5.0 Q7.9 7.9 7.95 8.3 L7.95 9.15 7.95 9.1 7.95 9.15 4.95 10.95 Q3.45 11.8 1.95 12.25 L-1.85 12.65 M-7.65 8.55 L-7.65 8.5 -7.8 5.2 M-7.8 5.15 L-7.85 5.0 -8.55 3.05 -8.6 2.95 -9.35 0.55 -9.95 -1.75 -10.35 -4.6 -10.35 -4.9 -10.25 -6.9 M-8.4 -10.05 L-6.9 -10.4 -6.0 -10.55 Q-6.15 -11.7 -5.75 -12.35 -5.2 -13.3 -0.9 -13.4 L3.2 -12.9 M2.5 -11.55 L3.05 -11.75 M2.5 -11.55 L2.45 -11.55 -4.8 -11.75 M2.6 -8.15 L3.05 -8.35 3.95 -8.9 4.0 -8.95 4.1 -9.2 M2.6 -8.15 L-0.75 -7.15 -1.15 -7.1 -3.5 -7.25 -3.6 -7.3 Q-4.5 -7.7 -5.15 -8.35 L-5.65 -9.0 -5.7 -9.05 -5.85 -9.7 -6.0 -10.55 M-7.65 8.55 L-7.65 8.5" fill="none" stroke="#2e813e" stroke-linecap="round" stroke-linejoin="round" stroke-width="0.05"/>
  </g>
</svg>
