<?xml version="1.0" encoding="UTF-8" standalone="no"?>
<svg xmlns:xlink="http://www.w3.org/1999/xlink" height="35.95px" width="20.7px" xmlns="http://www.w3.org/2000/svg">
  <g transform="matrix(1.0, 0.0, 0.0, 1.0, 10.35, 13.95)">
    <path d="M-7.8 10.8 L-7.65 9.0 -6.5 8.95 -7.65 9.0 -7.75 6.0 Q-4.05 1.35 5.15 7.55 L4.85 8.2 4.65 8.65 Q4.85 11.35 5.55 12.7 -2.4 14.8 -7.2 11.25 L-7.8 10.8 M-4.4 -4.15 Q-4.05 -4.15 -3.85 -3.95 L-3.55 -3.4 -3.8 -2.8 Q-4.0 -2.55 -4.35 -2.55 L-4.95 -2.75 -5.2 -3.3 -5.0 -3.9 -4.4 -4.15 M-3.7 14.65 Q-3.4 14.65 -3.2 14.8 -3.0 15.0 -2.95 15.3 L-3.15 15.75 Q-3.35 16.0 -3.65 16.0 L-4.1 15.85 -4.35 15.35 -4.15 14.9 -3.7 14.65" fill="#ffffff" fill-rule="evenodd" stroke="none"/>
    <path d="M8.9 -6.65 Q10.5 -5.6 10.3 -4.65 L10.35 -3.85 Q10.3 0.35 8.7 3.9 L8.5 4.3 8.5 4.35 Q7.9 7.75 7.95 8.3 L7.95 9.6 5.15 7.55 Q6.7 3.4 0.5 4.6 -1.3 3.15 -3.6 2.8 -6.3 2.65 -7.3 3.9 L-7.35 4.0 -7.8 4.95 -7.85 5.0 -8.0 4.65 -8.2 4.05 -8.55 3.05 -8.6 2.95 -9.35 0.55 Q-8.95 0.6 -7.8 1.55 L-7.65 1.7 -6.2 2.45 -3.7 2.2 -2.25 2.6 -1.95 2.6 Q-0.75 2.95 0.1 3.5 3.25 4.35 5.85 2.45 7.85 -0.4 7.25 -2.8 8.25 -4.45 8.9 -6.65 M-10.35 -4.9 L-10.25 -6.9 Q-10.1 -8.2 -8.4 -10.05 L-8.35 -10.05 Q-9.1 -8.45 -9.25 -6.95 L-9.8 -6.3 -10.35 -4.9" fill="#1e2225" fill-rule="evenodd" stroke="none"/>
    <path d="M-7.75 6.0 L-7.8 5.2 -7.8 5.15 -7.85 5.0 -7.8 4.95 -7.35 4.0 -7.3 3.9 Q-6.3 2.65 -3.6 2.8 -1.3 3.15 0.5 4.6 6.7 3.4 5.15 7.55 -4.05 1.35 -7.75 6.0 M-9.35 0.55 Q-10.45 -3.1 -10.35 -4.9 L-9.8 -6.3 -9.25 -6.95 Q-9.5 -4.75 -8.3 -2.4 -6.6 1.0 -3.7 2.2 L-6.2 2.45 -7.65 1.7 -7.8 1.55 Q-8.95 0.6 -9.35 0.55 M7.25 -2.8 Q7.85 -0.4 5.85 2.45 3.25 4.35 0.1 3.5 -0.75 2.95 -1.95 2.6 0.7 2.8 3.95 0.65 5.9 -0.7 7.25 -2.8" fill="#3c4147" fill-rule="evenodd" stroke="none"/>
    <path d="M-8.4 -10.05 L-8.35 -10.1 -8.35 -10.05 -8.4 -10.05 M-1.95 2.6 L-2.25 2.6 -2.25 2.55 -2.05 2.6 -1.95 2.6" fill="#f2f2f2" fill-rule="evenodd" stroke="none"/>
    <path d="M-6.15 -2.4 Q-6.2 -3.4 -5.55 -4.15 -4.9 -4.85 -4.05 -4.9 L-3.6 -4.95 Q-2.7 -4.95 -2.1 -4.35 -1.35 -3.7 -1.3 -2.7 -1.25 -1.65 -1.9 -0.9 -2.55 -0.15 -3.6 -0.1 L-4.35 -0.15 -5.35 -0.7 Q-6.1 -1.35 -6.15 -2.4 M-4.4 -4.15 L-5.0 -3.9 -5.2 -3.3 -4.95 -2.75 -4.35 -2.55 Q-4.0 -2.55 -3.8 -2.8 L-3.55 -3.4 -3.85 -3.95 Q-4.05 -4.15 -4.4 -4.15 M-2.95 14.1 Q-2.05 14.05 -1.4 14.6 -0.7 15.2 -0.65 16.1 -0.6 16.95 -1.25 17.6 -1.85 18.3 -2.75 18.35 -3.6 18.4 -4.3 17.8 -4.95 17.2 -5.0 16.3 -5.05 15.45 -4.45 14.8 -3.8 14.15 -2.95 14.1 M-3.7 14.65 L-4.15 14.9 -4.35 15.35 -4.1 15.85 -3.65 16.0 Q-3.35 16.0 -3.15 15.75 L-2.95 15.3 Q-3.0 15.0 -3.2 14.8 -3.4 14.65 -3.7 14.65" fill="#96609c" fill-rule="evenodd" stroke="none"/>
    <path d="M7.95 9.6 L7.9 11.75 7.9 11.95 5.55 12.7 Q4.85 11.35 4.65 8.65 L4.85 8.2 5.15 7.55 7.95 9.6" fill="#e0e0e0" fill-rule="evenodd" stroke="none"/>
    <path d="M6.1 16.6 L1.65 17.1 Q-0.9 21.65 -2.6 21.9 -5.15 20.25 -5.4 16.25 -7.1 15.5 -8.3 14.0 -8.7 12.7 -8.6 11.8 L-8.2 10.45 -7.8 10.8 -7.2 11.25 Q-2.4 14.8 5.55 12.7 6.85 14.75 6.1 16.6 M-6.85 -10.4 L-6.95 -10.75 Q-7.25 -12.4 -5.5 -13.2 -3.75 -14.05 -1.15 -13.8 L3.1 -13.05 Q4.75 -12.5 4.8 -11.2 L4.8 -11.05 4.7 -10.5 3.85 -9.3 3.75 -9.25 3.2 -8.9 2.8 -8.65 2.6 -8.55 1.9 -8.25 Q6.6 -5.25 7.25 -2.8 5.9 -0.7 3.95 0.65 0.7 2.8 -1.95 2.6 L-2.05 2.6 -2.25 2.55 -2.25 2.6 -3.7 2.2 Q-6.6 1.0 -8.3 -2.4 -9.5 -4.75 -9.25 -6.95 -8.35 -7.8 -6.75 -8.0 L-4.6 -8.25 Q-2.95 -7.6 -0.8 -7.75 L1.9 -8.25 1.85 -8.3 1.9 -8.25 1.85 -8.3 1.9 -8.25 -0.8 -7.75 Q-2.95 -7.6 -4.6 -8.25 L-4.9 -8.4 Q-5.55 -8.65 -5.95 -9.05 -6.65 -9.6 -6.85 -10.4 M-6.15 -2.4 Q-6.1 -1.35 -5.35 -0.7 L-4.35 -0.15 -3.6 -0.1 Q-2.55 -0.15 -1.9 -0.9 -1.25 -1.65 -1.3 -2.7 -1.35 -3.7 -2.1 -4.35 -2.7 -4.95 -3.6 -4.95 L-4.05 -4.9 Q-4.9 -4.85 -5.55 -4.15 -6.2 -3.4 -6.15 -2.4 M3.2 -11.75 Q-0.3 -9.8 -2.95 -10.65 -4.15 -11.05 -5.2 -12.05 -4.15 -11.05 -2.95 -10.65 -0.3 -9.8 3.2 -11.75 M-2.95 14.1 Q-3.8 14.15 -4.45 14.8 -5.05 15.45 -5.0 16.3 -4.95 17.2 -4.3 17.8 -3.6 18.4 -2.75 18.35 -1.85 18.3 -1.25 17.6 -0.6 16.95 -0.65 16.1 -0.7 15.2 -1.4 14.6 -2.05 14.05 -2.95 14.1" fill="#e39391" fill-rule="evenodd" stroke="none"/>
    <path d="M3.85 -9.3 L5.2 -8.75 5.45 -8.6 6.1 -8.3 6.5 -8.05 7.85 -7.25 8.9 -6.65 Q8.25 -4.45 7.25 -2.8 6.6 -5.25 1.9 -8.25 L2.6 -8.55 2.8 -8.65 3.2 -8.9 3.75 -9.25 3.85 -9.3 M7.9 11.95 L8.3 11.8 Q9.2 13.6 8.3 15.8 L6.1 16.6 Q6.85 14.75 5.55 12.7 L7.9 11.95 M-8.35 -10.1 L-6.9 -10.4 -6.85 -10.4 Q-6.65 -9.6 -5.95 -9.05 -5.55 -8.65 -4.9 -8.4 L-4.6 -8.25 -6.75 -8.0 Q-8.35 -7.8 -9.25 -6.95 -9.1 -8.45 -8.35 -10.05 L-8.35 -10.1" fill="#b86c63" fill-rule="evenodd" stroke="none"/>
    <path d="M8.9 -6.65 Q10.5 -5.6 10.3 -4.65 L10.35 -3.85 Q10.3 0.35 8.7 3.9 L8.5 4.3 8.5 4.35 Q7.9 7.75 7.95 8.3 L7.95 9.6 7.9 11.75 7.9 11.95 M-7.8 10.8 L-7.65 9.0 -7.75 6.0 -7.8 5.2 M-7.8 5.15 L-7.85 5.0 -8.0 4.65 -8.2 4.05 -8.55 3.05 -8.6 2.95 -9.35 0.55 Q-10.45 -3.1 -10.35 -4.9 L-10.25 -6.9 M-8.4 -10.05 L-8.35 -10.1" fill="none" stroke="#000000" stroke-linecap="round" stroke-linejoin="round" stroke-width="0.05"/>
    <path d="M3.85 -9.3 L5.2 -8.75 5.45 -8.6 6.1 -8.3 6.5 -8.05 7.85 -7.25 8.9 -6.65 Q8.25 -4.45 7.25 -2.8 5.9 -0.7 3.95 0.65 0.7 2.8 -1.95 2.6 L-2.05 2.6 -2.25 2.55 -2.25 2.6 -3.7 2.2 Q-6.6 1.0 -8.3 -2.4 -9.5 -4.75 -9.25 -6.95 -9.1 -8.45 -8.35 -10.05 L-8.35 -10.1 -6.9 -10.4 -6.85 -10.4 -6.95 -10.75 Q-7.25 -12.4 -5.5 -13.2 -3.75 -14.05 -1.15 -13.8 L3.1 -13.05 Q4.75 -12.5 4.8 -11.2 L4.8 -11.05 4.7 -10.5 3.85 -9.3 3.75 -9.25 3.2 -8.9 2.8 -8.65 2.6 -8.55 1.9 -8.25 1.85 -8.3 1.9 -8.25 -0.8 -7.75 Q-2.95 -7.6 -4.6 -8.25 L-4.9 -8.4 Q-5.55 -8.65 -5.95 -9.05 -6.65 -9.6 -6.85 -10.4 M7.9 11.95 L8.3 11.8 Q9.2 13.6 8.3 15.8 L6.1 16.6 1.65 17.1 Q-0.9 21.65 -2.6 21.9 -5.15 20.25 -5.4 16.25 -7.1 15.5 -8.3 14.0 -8.7 12.7 -8.6 11.8 L-8.2 10.45 -7.8 10.8 -7.2 11.25 Q-2.4 14.8 5.55 12.7 L7.9 11.95 M-5.2 -12.05 Q-4.15 -11.05 -2.95 -10.65 -0.3 -9.8 3.2 -11.75" fill="none" stroke="#000000" stroke-linecap="round" stroke-linejoin="round" stroke-width="0.25"/>
  </g>
</svg>
