<?xml version="1.0" encoding="UTF-8" standalone="no"?>
<svg xmlns:xlink="http://www.w3.org/1999/xlink" height="35.35px" width="20.7px" xmlns="http://www.w3.org/2000/svg">
  <g transform="matrix(1.0, 0.0, 0.0, 1.0, 10.35, 14.05)">
    <path d="M7.75 -7.25 L7.75 -7.3 7.85 -7.25 7.75 -7.25" fill="#f2f2f2" fill-rule="evenodd" stroke="none"/>
    <path d="M4.8 -6.1 Q6.9 -6.0 6.7 -4.05 8.6 -3.65 7.4 -1.65 7.35 0.25 5.85 2.45 3.25 4.35 0.1 3.5 -0.8 2.95 -2.05 2.6 L-2.25 2.55 Q-3.15 2.2 -3.6 1.15 L-4.05 1.1 -4.1 1.1 -3.7 2.2 -6.2 2.45 -7.65 1.7 -7.8 1.55 Q-8.95 0.6 -9.35 0.55 -10.45 -3.1 -10.35 -4.9 L-9.8 -6.3 Q-9.35 -7.05 -8.5 -7.45 L-7.25 -9.3 -6.7 -10.45 -6.7 -10.5 Q-5.95 -11.75 -5.05 -10.85 L-4.9 -10.7 -4.9 -10.85 -5.15 -12.8 Q-1.7 -14.9 1.65 -13.5 0.75 -12.9 0.85 -11.25 L1.65 -11.5 Q1.1 -9.25 2.5 -7.25 L3.4 -6.5 Q2.65 -4.5 1.05 -3.1 3.25 -3.95 4.8 -6.1 M-7.8 5.15 L-8.0 4.65 -7.8 5.15 Q-7.9 4.7 -7.1 3.75 -6.35 2.75 -3.6 2.8 -1.3 3.15 0.5 4.6 6.15 3.55 5.35 6.9 -3.6 8.8 -7.8 5.15 M-3.7 -6.45 Q-1.95 -4.0 2.5 -7.25 -1.95 -4.0 -3.7 -6.45 M-3.5 -12.2 Q-1.0 -10.9 0.85 -11.25 -1.0 -10.9 -3.5 -12.2 M-7.95 -1.45 Q-9.2 -3.75 -8.5 -7.45 -10.5 -4.0 -7.95 -1.45 -7.15 -0.6 -5.85 0.15 -9.3 -2.8 -7.8 -7.8 L-7.25 -9.3 -7.8 -7.8 Q-9.3 -2.8 -5.85 0.15 -7.15 -0.6 -7.95 -1.45 M-5.3 -8.4 Q-5.8 -9.35 -4.9 -10.7 -5.8 -9.35 -5.3 -8.4 M-4.75 -1.75 Q-6.45 -3.55 -6.2 -7.55 -8.7 -3.2 -4.75 -1.75 M-3.6 1.15 L-2.25 1.3 Q4.3 2.85 7.4 -1.65 4.3 2.85 -2.25 1.3 L-3.6 1.15 M-4.1 1.1 Q-5.05 0.9 -5.85 0.15 -5.05 0.9 -4.1 1.1 M-1.0 -2.65 L1.05 -3.1 -1.0 -2.65 M-2.25 1.3 Q4.25 1.0 6.7 -4.05 4.25 1.0 -2.25 1.3" fill="#ffffff" fill-rule="evenodd" stroke="none"/>
    <path d="M8.2 6.15 Q7.9 7.9 7.95 8.3 L7.9 10.35 5.1 11.55 Q4.8 10.35 4.65 8.65 L4.85 8.2 5.35 6.9 8.2 6.15" fill="#1e2225" fill-rule="evenodd" stroke="none"/>
    <path d="M-7.65 9.0 L-6.5 8.95 -7.65 9.0 -7.75 6.0 -7.8 5.2 -7.8 5.15 Q-3.6 8.8 5.35 6.9 L4.85 8.2 4.65 8.65 Q4.8 10.35 5.1 11.55 2.65 12.4 0.6 12.55 L0.15 11.65 Q-0.7 10.1 -1.85 10.15 -2.95 10.25 -3.7 11.9 L-3.7 12.0 Q-6.0 11.1 -7.65 9.0" fill="#3c4147" fill-rule="evenodd" stroke="none"/>
    <path d="M4.8 -6.1 L5.05 -6.5 Q5.8 -7.65 5.95 -8.35 L5.9 -8.95 5.95 -8.35 Q5.8 -7.65 5.05 -6.5 L4.8 -6.1 Q3.25 -3.95 1.05 -3.1 2.65 -4.5 3.4 -6.5 L2.5 -7.25 Q3.3 -8.35 3.7 -9.9 3.3 -8.35 2.5 -7.25 1.1 -9.25 1.65 -11.5 L0.85 -11.25 Q0.75 -12.9 1.65 -13.5 2.75 -13.05 3.85 -12.2 3.55 -10.95 3.7 -9.9 5.5 -10.05 5.9 -8.95 7.85 -9.7 7.75 -7.3 L7.75 -7.25 Q7.4 -5.45 6.7 -4.05 7.4 -5.45 7.75 -7.25 L7.85 -7.25 7.9 -7.25 Q9.15 -7.45 9.25 -6.45 10.5 -5.5 10.3 -4.65 L10.35 -3.85 Q10.3 0.35 8.7 3.9 L8.5 4.3 8.5 4.35 8.2 6.15 5.35 6.9 Q6.15 3.55 0.5 4.6 -1.3 3.15 -3.6 2.8 -6.35 2.75 -7.1 3.75 -7.9 4.7 -7.8 5.15 L-8.0 4.65 -8.2 4.05 -8.55 3.05 -8.6 2.95 -9.35 0.55 Q-8.95 0.6 -7.8 1.55 L-7.65 1.7 -6.2 2.45 -3.7 2.2 -4.1 1.1 -4.05 1.1 -3.6 1.15 Q-3.15 2.2 -2.25 2.55 L-2.05 2.6 Q-0.8 2.95 0.1 3.5 3.25 4.35 5.85 2.45 7.35 0.25 7.4 -1.65 8.6 -3.65 6.7 -4.05 6.9 -6.0 4.8 -6.1 M-10.35 -4.9 L-10.25 -6.9 Q-10.1 -8.2 -8.4 -10.05 L-6.9 -10.4 -6.7 -10.45 -7.25 -9.3 -8.5 -7.45 Q-9.35 -7.05 -9.8 -6.3 L-10.35 -4.9 M2.5 -12.0 L1.65 -11.5 2.5 -12.0 M9.25 -6.45 L8.8 -4.6 Q8.2 -2.9 7.4 -1.65 8.2 -2.9 8.8 -4.6 L9.25 -6.45 M-8.5 -7.45 Q-9.2 -3.75 -7.95 -1.45 -10.5 -4.0 -8.5 -7.45 M-6.2 -7.55 Q-6.45 -3.55 -4.75 -1.75 -8.7 -3.2 -6.2 -7.55" fill="#bbbdcf" fill-rule="evenodd" stroke="none"/>
    <path d="M-1.85 19.5 L-3.5 15.4 -1.8 11.5 0.3 15.75 -1.85 19.5" fill="#9c343e" fill-rule="evenodd" stroke="none"/>
    <path d="M1.15 17.15 Q1.0 18.5 0.5 19.55 -0.2 21.25 -1.35 21.3 -2.45 21.4 -3.35 19.8 -4.15 18.35 -4.25 16.15 L-4.25 16.1 -4.3 15.9 Q-4.4 13.65 -3.7 12.0 L-3.7 11.9 Q-2.95 10.25 -1.85 10.15 -0.7 10.1 0.15 11.65 L0.6 12.55 Q1.1 13.85 1.15 15.55 L1.15 16.7 1.15 17.15 M-1.85 19.5 L0.3 15.75 -1.8 11.5 -3.5 15.4 -1.85 19.5" fill="#e3e396" fill-rule="evenodd" stroke="none"/>
    <path d="M5.35 16.6 L1.15 17.15 1.15 16.7 1.15 15.55 Q1.1 13.85 0.6 12.55 2.65 12.4 5.1 11.55 L5.45 13.55 Q5.75 15.7 5.35 16.6 M-4.8 15.95 Q-6.05 15.6 -8.55 13.85 -8.9 10.65 -7.65 9.0 -6.0 11.1 -3.7 12.0 -4.4 13.65 -4.3 15.9 L-4.25 16.1 -4.8 15.95" fill="#877b51" fill-rule="evenodd" stroke="none"/>
    <path d="M7.9 10.35 Q9.0 12.75 8.55 15.5 L5.35 16.6 Q5.75 15.7 5.45 13.55 L5.1 11.55 7.9 10.35" fill="#474534" fill-rule="evenodd" stroke="none"/>
    <path d="M8.2 6.15 Q7.9 7.9 7.95 8.3 L7.9 10.35 Q9.0 12.75 8.55 15.5 L5.35 16.6 1.15 17.15 Q1.0 18.5 0.5 19.55 -0.2 21.25 -1.35 21.3 -2.45 21.4 -3.35 19.8 -4.15 18.35 -4.25 16.15 M-4.8 15.95 Q-6.05 15.6 -8.55 13.85 -8.9 10.65 -7.65 9.0 L-7.75 6.0 -7.8 5.2 M-3.7 12.0 L-3.7 11.9 Q-2.95 10.25 -1.85 10.15 -0.7 10.1 0.15 11.65 L0.6 12.55" fill="none" stroke="#000000" stroke-linecap="round" stroke-linejoin="round" stroke-width="0.05"/>
    <path d="M5.9 -8.95 L5.95 -8.35 Q5.8 -7.65 5.05 -6.5 L4.8 -6.1 Q3.25 -3.95 1.05 -3.1 L-1.0 -2.65 M6.7 -4.05 Q7.4 -5.45 7.75 -7.25 L7.75 -7.3 Q7.85 -9.7 5.9 -8.95 5.5 -10.05 3.7 -9.9 3.3 -8.35 2.5 -7.25 -1.95 -4.0 -3.7 -6.45 M7.85 -7.25 L7.9 -7.25 Q9.15 -7.45 9.25 -6.45 10.5 -5.5 10.3 -4.65 L10.35 -3.85 Q10.3 0.35 8.7 3.9 L8.5 4.3 8.5 4.35 8.2 6.15 5.35 6.9 Q-3.6 8.8 -7.8 5.15 L-8.0 4.65 -8.2 4.05 -8.55 3.05 -8.6 2.95 -9.35 0.55 Q-10.45 -3.1 -10.35 -4.9 L-10.25 -6.9 M-8.4 -10.05 L-6.9 -10.4 -6.7 -10.45 -6.7 -10.5 Q-5.95 -11.75 -5.05 -10.85 L-4.9 -10.7 -4.9 -10.85 -5.15 -12.8 Q-1.7 -14.9 1.65 -13.5 2.75 -13.05 3.85 -12.2 3.55 -10.95 3.7 -9.9 M7.85 -7.25 L7.75 -7.25 M0.85 -11.25 L1.65 -11.5 2.5 -12.0 M7.4 -1.65 Q8.2 -2.9 8.8 -4.6 L9.25 -6.45 M-3.6 1.15 L-4.05 1.1 -4.1 1.1 Q-5.05 0.9 -5.85 0.15 -9.3 -2.8 -7.8 -7.8 L-7.25 -9.3 -6.7 -10.45 M0.85 -11.25 Q-1.0 -10.9 -3.5 -12.2 M-8.5 -7.45 L-7.25 -9.3 M-7.95 -1.45 Q-7.15 -0.6 -5.85 0.15 M-4.9 -10.7 Q-5.8 -9.35 -5.3 -8.4 M-6.2 -7.55 Q-6.45 -3.55 -4.75 -1.75 M-8.5 -7.45 Q-10.5 -4.0 -7.95 -1.45 M7.4 -1.65 Q4.3 2.85 -2.25 1.3 L-3.6 1.15 M-4.25 16.1 L-4.25 16.15 M6.7 -4.05 Q4.25 1.0 -2.25 1.3" fill="none" stroke="#999999" stroke-linecap="round" stroke-linejoin="round" stroke-width="0.05"/>
    <path d="M-4.25 16.15 L-4.8 15.95" fill="none" stroke="#000000" stroke-linecap="round" stroke-linejoin="round" stroke-width="0.05"/>
  </g>
</svg>
