<?xml version="1.0" encoding="UTF-8" standalone="no"?>
<svg xmlns:xlink="http://www.w3.org/1999/xlink" height="31.8px" width="20.7px" xmlns="http://www.w3.org/2000/svg">
  <g transform="matrix(1.0, 0.0, 0.0, 1.0, 10.35, 13.4)">
    <path d="M9.45 2.05 L9.45 2.1 9.35 2.0 9.45 2.05 M7.9 10.4 Q10.5 12.5 8.3 16.35 L7.8 16.55 7.75 16.55 7.8 16.55 7.75 16.55 4.6 17.35 Q6.15 15.0 5.05 11.35 L7.9 10.4" fill="#f2f2f2" fill-rule="evenodd" stroke="none"/>
    <path d="M7.75 16.55 Q2.6 18.15 -1.25 18.0 L-0.15 17.1 0.2 16.7 Q0.9 15.65 0.85 14.35 0.75 13.15 0.1 12.25 L5.05 11.35 Q6.15 15.0 4.6 17.35 L7.75 16.55 M-6.25 16.65 L-7.85 15.5 Q-10.65 12.15 -7.7 9.65 L-7.7 9.6 -7.65 9.6 Q-6.7 10.85 -5.2 11.55 L-5.8 12.05 Q-6.85 13.25 -6.8 14.85 L-6.8 14.9 Q-6.7 15.9 -6.25 16.65 M-7.7 9.65 L-7.65 9.6 -7.7 9.65" fill="#ffffff" fill-rule="evenodd" stroke="none"/>
    <path d="M-7.7 9.6 L-7.65 9.0 -6.5 8.95 -7.65 9.0 -7.75 6.0 -7.8 5.2 -7.8 5.15 -7.85 5.0 -8.0 4.65 -8.2 4.05 -8.3 3.85 -7.1 3.65 Q-6.15 3.5 -5.2 2.85 L-4.55 2.2 -4.45 2.15 -3.7 2.2 -3.45 2.4 -3.0 2.9 Q0.2 6.7 3.5 6.8 L5.4 6.7 Q4.9 7.6 4.75 8.25 4.6 8.9 4.7 9.65 L5.05 11.35 0.1 12.25 -0.4 11.7 Q-1.55 10.7 -3.15 10.8 -4.35 10.85 -5.2 11.55 -6.7 10.85 -7.65 9.6 L-7.7 9.6 M-9.1 1.4 L-9.35 0.55 Q-10.45 -3.1 -10.35 -4.9 L-9.6 -6.85 Q-9.0 -8.0 -7.75 -8.35 L-5.55 -8.85 -5.55 -10.6 -5.55 -12.1 Q-1.8 -14.2 2.5 -12.9 1.75 -12.4 1.65 -11.05 L2.15 -11.15 Q3.15 -9.6 2.95 -7.85 9.1 -2.25 5.85 2.45 4.2 3.65 2.3 3.75 -0.3 2.7 -2.85 0.3 -2.85 -3.45 -2.2 -5.9 L-1.6 -7.75 -1.6 -9.55 -4.1 -10.15 -4.1 -8.2 -4.65 -6.65 Q-5.4 -4.0 -5.25 -0.1 -7.05 1.0 -8.1 1.3 L-9.05 1.3 -9.1 1.4 M-5.55 -8.85 Q-5.2 -8.3 -4.1 -8.2 -5.2 -8.3 -5.55 -8.85 M-4.7 -11.55 Q-1.65 -10.5 1.65 -11.05 -1.65 -10.5 -4.7 -11.55 M-1.6 -7.75 L2.95 -7.85 -1.6 -7.75" fill="#454b3f" fill-rule="evenodd" stroke="none"/>
    <path d="M-8.3 3.85 L-8.75 3.85 Q-10.1 2.35 -9.1 1.4 L-9.05 1.3 -8.1 1.3 Q-7.05 1.0 -5.25 -0.1 -5.4 -4.0 -4.65 -6.65 L-4.1 -8.2 -4.1 -10.15 -1.6 -9.55 -1.6 -7.75 -2.2 -5.9 Q-2.85 -3.45 -2.85 0.3 -0.3 2.7 2.3 3.75 L4.3 4.35 Q5.8 5.25 5.4 6.7 L3.5 6.8 Q0.2 6.7 -3.0 2.9 L-3.45 2.4 -3.7 2.2 -4.45 2.15 -4.55 2.2 -5.2 2.85 Q-6.15 3.5 -7.1 3.65 L-8.3 3.85" fill="#877b51" fill-rule="evenodd" stroke="none"/>
    <path d="M-1.25 18.0 L-2.8 18.4 Q-4.4 18.5 -5.55 17.45 L-6.25 16.65 Q-6.7 15.9 -6.8 14.9 L-6.8 14.85 Q-6.85 13.25 -5.8 12.05 L-5.2 11.55 Q-4.35 10.85 -3.15 10.8 -1.55 10.7 -0.4 11.7 L0.1 12.25 Q0.75 13.15 0.85 14.35 0.9 15.65 0.2 16.7 L-0.15 17.1 -1.25 18.0 M-1.9 16.6 L-1.6 16.3 Q-0.9 15.5 -0.95 14.5 -1.0 13.45 -1.8 12.75 -2.55 12.1 -3.6 12.15 -4.6 12.25 -5.35 13.0 -6.05 13.8 -6.0 14.8 L-5.85 15.55 -5.15 16.55 Q-4.35 17.25 -3.35 17.15 L-1.9 16.6 -3.35 17.15 Q-4.35 17.25 -5.15 16.55 L-5.85 15.55 -6.0 14.8 Q-6.05 13.8 -5.35 13.0 -4.6 12.25 -3.6 12.15 -2.55 12.1 -1.8 12.75 -1.0 13.45 -0.95 14.5 -0.9 15.5 -1.6 16.3 L-1.9 16.6" fill="#803941" fill-rule="evenodd" stroke="none"/>
    <path d="M2.5 -12.9 L4.1 -12.35 4.1 -9.2 6.1 -8.3 6.5 -8.05 7.85 -7.25 Q10.55 -5.85 10.3 -4.65 L10.35 -3.85 Q10.3 -0.75 9.45 2.05 L9.35 2.0 Q7.7 4.15 5.0 4.45 L4.3 4.35 2.3 3.75 Q4.2 3.65 5.85 2.45 9.1 -2.25 2.95 -7.85 3.15 -9.6 2.15 -11.15 L1.65 -11.05 Q1.75 -12.4 2.5 -12.9 M8.3 5.65 L7.95 8.3 7.9 10.4 5.05 11.35 4.7 9.65 Q4.6 8.9 4.75 8.25 4.9 7.6 5.4 6.7 7.1 6.45 8.3 5.65 M-10.35 -4.9 L-10.25 -6.9 Q-10.1 -8.2 -8.4 -10.05 L-6.9 -10.4 -5.75 -10.6 -5.55 -10.6 -5.55 -8.85 -7.75 -8.35 Q-9.0 -8.0 -9.6 -6.85 L-10.35 -4.9 M2.95 -7.85 L3.25 -7.95 4.1 -8.3 4.1 -8.5 4.1 -9.2 4.1 -8.5 4.1 -8.3 3.25 -7.95 2.95 -7.85 M3.05 -11.4 L2.15 -11.15 3.05 -11.4" fill="#191718" fill-rule="evenodd" stroke="none"/>
    <path d="M9.45 2.1 Q10.75 3.45 8.9 5.15 L8.3 5.65 Q7.1 6.45 5.4 6.7 5.8 5.25 4.3 4.35 L5.0 4.45 Q7.7 4.15 9.35 2.0 L9.45 2.1" fill="#706543" fill-rule="evenodd" stroke="none"/>
    <path d="M2.5 -12.9 L4.1 -12.35 4.1 -9.2 6.1 -8.3 6.5 -8.05 7.85 -7.25 Q10.55 -5.85 10.3 -4.65 L10.35 -3.85 Q10.3 -0.75 9.45 2.05 L9.45 2.1 Q10.75 3.45 8.9 5.15 L8.3 5.65 7.95 8.3 7.9 10.4 Q10.5 12.5 8.3 16.35 L7.8 16.55 7.75 16.55 Q2.6 18.15 -1.25 18.0 L-2.8 18.4 Q-4.4 18.5 -5.55 17.45 L-6.25 16.65 -7.85 15.5 Q-10.65 12.15 -7.7 9.65 L-7.7 9.6 -7.65 9.0 -7.75 6.0 -7.8 5.2 M-7.8 5.15 L-7.85 5.0 -8.0 4.65 -8.2 4.05 -8.3 3.85 -8.75 3.85 Q-10.1 2.35 -9.1 1.4 L-9.35 0.55 Q-10.45 -3.1 -10.35 -4.9 L-10.25 -6.9 M-8.4 -10.05 L-6.9 -10.4 -5.75 -10.6 -5.55 -10.6 -5.55 -12.1 Q-1.8 -14.2 2.5 -12.9 M1.65 -11.05 L2.15 -11.15 3.05 -11.4 M4.1 -9.2 L4.1 -8.5 4.1 -8.3 3.25 -7.95 2.95 -7.85 -1.6 -7.75 M9.35 2.0 L9.45 2.1 M0.1 12.25 L5.05 11.35 7.9 10.4 M-1.25 18.0 L-0.15 17.1 0.2 16.7 Q0.9 15.65 0.85 14.35 0.75 13.15 0.1 12.25 L-0.4 11.7 Q-1.55 10.7 -3.15 10.8 -4.35 10.85 -5.2 11.55 L-5.8 12.05 Q-6.85 13.25 -6.8 14.85 L-6.8 14.9 Q-6.7 15.9 -6.25 16.65 M-5.55 -8.85 L-5.55 -10.6 M-4.1 -8.2 Q-5.2 -8.3 -5.55 -8.85 M-7.65 9.6 L-7.7 9.65 M-5.2 11.55 Q-6.7 10.85 -7.65 9.6 M-1.9 16.6 L-3.35 17.15 Q-4.35 17.25 -5.15 16.55 L-5.85 15.55 -6.0 14.8 Q-6.05 13.8 -5.35 13.0 -4.6 12.25 -3.6 12.15 -2.55 12.1 -1.8 12.75 -1.0 13.45 -0.95 14.5 -0.9 15.5 -1.6 16.3 L-1.9 16.6 M1.65 -11.05 Q-1.65 -10.5 -4.7 -11.55" fill="none" stroke="#000000" stroke-linecap="round" stroke-linejoin="round" stroke-width="0.05"/>
  </g>
</svg>
