<?xml version="1.0" encoding="UTF-8" standalone="no"?>
<svg xmlns:xlink="http://www.w3.org/1999/xlink" height="35.05px" width="20.7px" xmlns="http://www.w3.org/2000/svg">
  <g transform="matrix(1.0, 0.0, 0.0, 1.0, 10.35, 15.3)">
    <path d="M-3.8 -15.1 Q1.5 -15.85 6.5 -13.45 7.0 -11.05 6.0 -8.3 L6.1 -8.3 6.5 -8.05 7.85 -7.25 8.35 -7.0 Q10.55 -5.75 10.3 -4.65 L10.35 -3.85 Q10.3 0.35 8.7 3.9 L8.5 4.3 8.5 4.35 Q7.9 7.75 7.95 8.3 L7.9 10.35 Q8.95 10.7 8.9 11.45 8.85 12.15 8.2 12.55 L7.85 12.8 6.05 13.8 5.9 13.35 5.95 13.3 Q4.9 12.1 4.65 8.65 L4.85 8.2 Q7.05 3.5 0.5 4.1 L0.5 3.25 Q3.4 4.2 5.85 2.45 8.4 -1.2 6.7 -4.05 L8.35 -7.0 Q7.55 -5.8 6.25 -4.7 5.2 -6.05 3.2 -7.2 L2.8 -6.95 Q4.05 -10.25 2.8 -12.25 -1.65 -11.55 -4.25 -12.4 -4.7 -14.25 -3.8 -15.1 M-7.8 5.15 L-7.85 5.0 -8.0 4.65 -8.2 4.05 -8.55 3.05 -8.6 2.95 -9.35 0.55 Q-8.25 1.6 -7.55 1.95 L-6.2 2.45 -3.85 2.15 -3.75 2.8 Q-6.3 2.7 -7.3 3.9 -7.75 4.5 -7.8 5.2 L-7.8 5.15 M4.8 -12.6 L2.8 -12.25 4.8 -12.6" fill="#809b96" fill-rule="evenodd" stroke="none"/>
    <path d="M-4.25 -12.4 Q-1.65 -11.55 2.8 -12.25 4.05 -10.25 2.8 -6.95 L2.35 -5.95 0.8 -5.6 -3.4 -5.95 -3.45 -5.95 -3.75 -6.05 -3.8 -6.05 -4.15 -6.2 -5.05 -6.7 Q-6.3 -10.15 -4.85 -12.65 L-4.25 -12.4 M1.3 -10.45 L0.8 -10.05 0.6 -9.15 0.9 -8.25 Q1.15 -7.85 1.45 -7.9 L2.0 -8.3 2.2 -9.2 1.9 -10.1 Q1.65 -10.45 1.3 -10.45 M-4.5 -10.65 L-4.85 -10.95 -5.2 -10.6 -5.3 -9.75 -5.1 -8.9 -4.75 -8.6 Q-4.55 -8.6 -4.45 -8.95 -4.3 -9.3 -4.3 -9.8 L-4.5 -10.65" fill="#224156" fill-rule="evenodd" stroke="none"/>
    <path d="M1.3 -10.45 Q1.65 -10.45 1.9 -10.1 L2.2 -9.2 2.0 -8.3 1.45 -7.9 Q1.15 -7.85 0.9 -8.25 L0.6 -9.15 0.8 -10.05 1.3 -10.45 M6.25 -4.7 L6.7 -4.05 Q4.05 -0.25 0.15 0.8 L-3.25 0.9 -3.7 0.8 -4.2 0.65 Q-8.25 -0.75 -8.75 -7.35 L-8.85 -9.45 -8.5 -7.5 Q-8.0 -5.9 -6.85 -4.05 -5.95 -2.6 -4.9 -1.85 L-4.4 -1.5 -3.85 -1.25 -2.65 -1.0 -0.05 -1.25 Q1.3 -1.65 2.7 -2.4 4.8 -3.5 6.25 -4.7 M-4.5 -10.65 L-4.3 -9.8 Q-4.3 -9.3 -4.45 -8.95 -4.55 -8.6 -4.75 -8.6 L-5.1 -8.9 -5.3 -9.75 -5.2 -10.6 -4.85 -10.95 -4.5 -10.65" fill="#fffca8" fill-rule="evenodd" stroke="none"/>
    <path d="M-8.05 12.3 L-8.6 11.25 Q-8.75 10.5 -7.7 9.65 L-7.65 9.0 -6.5 8.95 -7.65 9.0 -7.75 6.0 -7.8 5.2 -7.8 5.15 -7.8 5.2 Q-7.75 4.5 -7.3 3.9 -6.3 2.7 -3.75 2.8 -3.55 3.1 -3.6 6.2 -3.7 9.25 -4.2 10.6 L-4.95 12.95 -6.15 12.65 -6.2 13.65 Q-7.2 13.35 -8.05 12.3 M-9.35 0.55 Q-10.45 -3.1 -10.35 -4.9 L-10.25 -6.9 Q-10.15 -8.0 -8.9 -9.45 L-8.85 -9.45 -8.75 -7.35 Q-8.25 -0.75 -4.2 0.65 L-4.5 0.55 Q-4.45 1.55 -3.85 2.15 L-6.2 2.45 -7.55 1.95 Q-8.25 1.6 -9.35 0.55 M-8.85 -9.5 L-8.4 -10.05 -7.45 -10.3 Q-7.85 -12.05 -7.55 -14.25 L-3.8 -15.1 Q-4.7 -14.25 -4.25 -12.4 L-4.85 -12.65 -5.35 -12.9 -5.95 -13.3 -5.35 -12.9 Q-6.2 -11.95 -6.3 -10.5 -6.35 -9.45 -6.0 -8.1 L-5.7 -7.15 -5.05 -6.7 -4.15 -6.2 Q-5.15 -3.9 -4.9 -1.85 -5.95 -2.6 -6.85 -4.05 -8.0 -5.9 -8.5 -7.5 L-8.85 -9.45 -8.85 -9.5 M2.8 -6.95 L3.2 -7.2 Q5.2 -6.05 6.25 -4.7 4.8 -3.5 2.7 -2.4 1.3 -1.65 -0.05 -1.25 -0.15 -3.35 0.8 -5.6 L2.35 -5.95 2.8 -6.95 M6.7 -4.05 Q8.4 -1.2 5.85 2.45 3.4 4.2 0.5 3.25 -0.05 2.3 0.15 0.8 4.05 -0.25 6.7 -4.05 M0.5 4.1 Q7.05 3.5 4.85 8.2 L4.65 8.65 Q4.9 12.1 5.95 13.3 L5.9 13.35 6.05 13.8 Q4.0 14.55 0.8 14.85 L0.95 13.7 0.05 13.65 0.3 11.6 0.55 9.05 0.5 4.1 M-7.05 -8.95 L-7.45 -10.3 -7.05 -8.95" fill="#b6cac8" fill-rule="evenodd" stroke="none"/>
    <path d="M6.25 -4.7 Q7.55 -5.8 8.35 -7.0 L6.7 -4.05 6.25 -4.7" fill="#b8a434" fill-rule="evenodd" stroke="none"/>
    <path d="M-5.35 -12.9 L-4.85 -12.65 Q-6.3 -10.15 -5.05 -6.7 L-5.7 -7.15 -6.0 -8.1 Q-6.35 -9.45 -6.3 -10.5 -6.2 -11.95 -5.35 -12.9" fill="#618ea3" fill-rule="evenodd" stroke="none"/>
    <path d="M-8.05 13.45 Q-8.25 13.1 -8.1 12.55 L-8.05 12.3 -8.05 13.45 M-8.9 -9.45 L-8.85 -9.5 -8.85 -9.45 -8.9 -9.45 M0.5 3.25 L0.5 4.1 0.55 9.05 0.3 11.6 0.05 13.65 -4.95 12.95 -4.2 10.6 Q-3.7 9.25 -3.6 6.2 -3.55 3.1 -3.75 2.8 L-3.85 2.15 Q-4.45 1.55 -4.5 0.55 L-4.2 0.65 -3.7 0.8 -3.25 0.9 0.15 0.8 Q-0.05 2.3 0.5 3.25 M-0.05 -1.25 L-2.65 -1.0 -3.85 -1.25 -4.4 -1.5 -4.9 -1.85 Q-5.15 -3.9 -4.15 -6.2 L-3.8 -6.05 -3.75 -6.05 -3.45 -5.95 -3.4 -5.95 0.8 -5.6 Q-0.15 -3.35 -0.05 -1.25" fill="#ffffff" fill-rule="evenodd" stroke="none"/>
    <path d="M4.8 17.95 Q2.9 18.65 0.75 18.8 L0.6 17.2 0.8 14.85 Q4.0 14.55 6.05 13.8 6.15 14.85 5.65 15.95 L4.8 17.95 M-6.05 17.3 Q-7.75 16.4 -8.05 14.75 L-8.05 13.45 -8.0 13.45 -8.05 13.45 -8.05 12.3 Q-7.2 13.35 -6.2 13.65 L-6.2 15.5 -6.05 17.3 M-0.3 14.95 L-0.45 16.6 -0.4 18.4 Q-3.45 18.55 -4.85 17.35 L-5.05 15.95 -5.1 14.25 -0.3 14.95" fill="#2f3f4a" fill-rule="evenodd" stroke="none"/>
    <path d="M0.75 18.8 L0.8 19.55 Q-3.05 20.3 -5.9 18.1 L-6.05 17.3 -6.2 15.5 -6.2 13.65 -6.15 12.65 -4.95 12.95 0.05 13.65 0.95 13.7 0.8 14.85 0.6 17.2 0.75 18.8 M-0.3 14.95 L-5.1 14.25 -5.05 15.95 -4.85 17.35 Q-3.45 18.55 -0.4 18.4 L-0.45 16.6 -0.3 14.95" fill="#8f8b96" fill-rule="evenodd" stroke="none"/>
    <path d="M8.2 12.55 Q8.6 14.2 8.45 15.85 6.8 17.2 4.8 17.95 L5.65 15.95 Q6.15 14.85 6.05 13.8 L7.85 12.8 8.2 12.55" fill="#000000" fill-rule="evenodd" stroke="none"/>
    <path d="M-3.8 -15.1 Q1.5 -15.85 6.5 -13.45 7.0 -11.05 6.0 -8.3 L6.1 -8.3 6.5 -8.05 7.85 -7.25 8.35 -7.0 Q10.55 -5.75 10.3 -4.65 L10.35 -3.85 Q10.3 0.35 8.7 3.9 L8.5 4.3 M8.2 12.55 Q8.6 14.2 8.45 15.85 6.8 17.2 4.8 17.95 2.9 18.65 0.75 18.8 L0.8 19.55 Q-3.05 20.3 -5.9 18.1 L-6.05 17.3 Q-7.75 16.4 -8.05 14.75 L-8.05 13.45 Q-8.25 13.1 -8.1 12.55 L-8.05 12.3 Q-7.2 13.35 -6.2 13.65 L-6.2 15.5 -6.05 17.3 M-7.45 -10.3 Q-7.85 -12.05 -7.55 -14.25 L-3.8 -15.1 M-4.25 -12.4 Q-1.65 -11.55 2.8 -12.25 L4.8 -12.6 M6.05 13.8 L7.85 12.8 8.2 12.55 M-5.35 -12.9 L-5.95 -13.3 M-5.35 -12.9 L-4.85 -12.65 -4.25 -12.4 M-8.85 -9.5 L-8.85 -9.45 M-7.45 -10.3 L-7.05 -8.95 M-4.2 0.65 L-4.5 0.55 M-4.95 12.95 L0.05 13.65 0.95 13.7 0.8 14.85 0.6 17.2 0.75 18.8 M-0.3 14.95 L-5.1 14.25 -5.05 15.95 -4.85 17.35 Q-3.45 18.55 -0.4 18.4 L-0.45 16.6 -0.3 14.95 M-4.95 12.95 L-6.15 12.65 -6.2 13.65 M-8.0 13.45 L-8.05 13.45 -8.05 12.3 M6.05 13.8 Q4.0 14.55 0.8 14.85" fill="none" stroke="#000000" stroke-linecap="round" stroke-linejoin="round" stroke-width="0.05"/>
    <path d="M0.5 3.25 L0.5 4.1 0.55 9.05 0.3 11.6 0.05 13.65 M2.8 -6.95 Q4.05 -10.25 2.8 -12.25 M0.8 -5.6 L2.35 -5.95 2.8 -6.95 M-5.05 -6.7 L-5.7 -7.15 -6.0 -8.1 Q-6.35 -9.45 -6.3 -10.5 -6.2 -11.95 -5.35 -12.9 M-4.15 -6.2 L-3.8 -6.05 -3.75 -6.05 -3.45 -5.95 -3.4 -5.95 0.8 -5.6 Q-0.15 -3.35 -0.05 -1.25 M-4.15 -6.2 Q-5.15 -3.9 -4.9 -1.85 M-5.05 -6.7 L-4.15 -6.2 M-4.5 0.55 Q-4.45 1.55 -3.85 2.15 L-3.75 2.8 Q-3.55 3.1 -3.6 6.2 -3.7 9.25 -4.2 10.6 L-4.95 12.95 M0.5 3.25 Q-0.05 2.3 0.15 0.8" fill="none" stroke="#999999" stroke-linecap="round" stroke-linejoin="round" stroke-width="0.05"/>
    <path d="M8.35 -7.0 L6.7 -4.05 Q4.05 -0.25 0.15 0.8 L-3.25 0.9 -3.7 0.8 -4.2 0.65 Q-8.25 -0.75 -8.75 -7.35 L-8.85 -9.45" fill="none" stroke="#c0b101" stroke-linecap="round" stroke-linejoin="round" stroke-width="0.05"/>
    <path d="M8.5 4.3 L8.5 4.35 Q7.9 7.75 7.95 8.3 L7.9 10.35 Q8.95 10.7 8.9 11.45 8.85 12.15 8.2 12.55 M-8.05 12.3 L-8.6 11.25 Q-8.75 10.5 -7.7 9.65 L-7.65 9.0 -7.75 6.0 -7.8 5.2 M-7.8 5.15 L-7.85 5.0 -8.0 4.65 -8.2 4.05 -8.55 3.05 -8.6 2.95 -9.35 0.55 Q-10.45 -3.1 -10.35 -4.9 L-10.25 -6.9 M-8.4 -10.05 L-7.45 -10.3" fill="none" stroke="#666666" stroke-linecap="round" stroke-linejoin="round" stroke-width="0.05"/>
  </g>
</svg>
