<?xml version="1.0" encoding="UTF-8" standalone="no"?>
<svg xmlns:xlink="http://www.w3.org/1999/xlink" height="55.65px" width="108.15px" xmlns="http://www.w3.org/2000/svg">
  <g transform="matrix(1.0, 0.0, 0.0, 1.0, 54.05, 27.8)">
    <path d="M-53.75 8.3 L-53.95 8.7 -53.85 8.95 -54.05 8.85 -53.95 8.7 -53.8 8.3 -53.75 8.3" fill="#000000" fill-rule="evenodd" stroke="none"/>
    <path d="M7.4 -5.75 L12.05 -0.45 21.35 -0.45 21.45 -0.45 38.85 -15.35 38.9 -15.4 38.85 -15.35 Q38.5 -14.4 37.05 -13.35 35.55 -12.3 34.85 -8.5 L34.3 -7.55 34.85 -8.5 Q35.3 -4.7 29.8 1.1 L29.9 2.15 29.9 2.6 29.9 3.25 Q29.65 6.05 27.65 8.1 25.4 10.35 22.15 10.4 L19.65 10.0 19.7 10.8 Q19.7 14.05 17.4 16.3 15.15 18.55 11.95 18.55 9.45 18.55 7.5 17.2 7.3 19.95 5.25 21.95 3.0 24.25 -0.2 24.25 -3.35 24.25 -5.55 22.15 -6.05 24.05 -7.55 25.55 -9.8 27.85 -13.05 27.85 -16.25 27.85 -18.55 25.55 -20.8 23.3 -20.8 20.1 -20.8 18.7 -20.2 16.25 L-19.9 15.55 -21.9 15.45 -27.1 15.15 -29.85 14.9 -32.7 14.6 -33.65 14.5 -38.6 13.85 -38.65 13.85 Q-48.35 12.1 -53.85 8.95 L-53.95 8.7 -53.75 8.3 -53.05 7.1 Q-45.35 -6.2 -32.7 -13.6 L-32.05 -14.0 -29.15 -15.4 -26.05 -16.6 -29.15 -15.4 -32.05 -14.0 -32.7 -13.6 Q-45.35 -6.2 -53.05 7.1 L-53.75 8.3 -53.8 8.3 -53.25 7.1 Q-46.7 -7.15 -32.7 -16.4 L-32.05 -16.85 Q-24.8 -20.95 -17.3 -22.7 L-12.6 -23.65 Q-16.2 -20.95 -26.05 -16.6 -7.8 -15.8 -5.05 -6.05 L7.4 -5.75 M-19.85 15.55 L-19.9 15.55 -19.85 15.55 Q-11.2 10.05 -7.0 15.2 L-6.95 15.2 Q1.6 7.15 6.55 12.7 9.3 7.0 16.3 7.55 16.1 2.8 12.05 -0.45 16.1 2.8 16.3 7.55 9.3 7.0 6.55 12.7 1.6 7.15 -6.95 15.2 L-7.0 15.2 Q-11.2 10.05 -19.85 15.55 M19.65 9.8 L19.65 10.0 19.65 9.8 Q18.2 7.65 16.3 7.55 18.2 7.65 19.65 9.8 19.15 4.3 23.6 0.5 23.25 0.25 21.35 -0.45 23.25 0.25 23.6 0.5 19.15 4.3 19.65 9.8 M7.5 17.2 L7.55 16.5 Q7.55 14.4 6.55 12.7 7.55 14.4 7.55 16.5 L7.5 17.2 M23.6 0.5 Q27.1 -1.6 29.8 1.1 27.1 -1.6 23.6 0.5 M-6.95 15.2 L-7.0 15.2 -6.95 15.2 M-7.0 15.2 Q-5.3 17.3 -5.3 20.1 L-5.55 22.15 -5.3 20.1 Q-5.3 17.3 -7.0 15.2" fill="#ffffff" fill-rule="evenodd" stroke="none"/>
    <path d="M12.05 -0.45 L7.4 -5.75 Q-4.2 -19.05 -12.55 -20.25 -4.2 -19.05 7.4 -5.75 L-5.05 -6.05 Q-7.8 -15.8 -26.05 -16.6 -20.55 -18.6 -12.55 -20.25 L-10.15 -20.75 Q6.1 -24.0 30.2 -21.8 L35.75 -21.2 40.55 -20.65 39.7 -17.45 38.9 -15.4 38.85 -15.35 21.45 -0.45 21.35 -0.45 12.05 -0.45 M34.6 -18.25 L33.2 -18.4 29.8 -18.1 Q27.1 -17.6 25.35 -16.55 23.65 -15.5 23.95 -14.5 24.2 -13.55 26.3 -13.2 L29.2 -13.1 31.15 -13.35 Q33.8 -13.85 35.55 -14.9 37.25 -15.95 37.0 -16.9 36.7 -17.9 34.6 -18.25" fill="#000066" fill-rule="evenodd" stroke="none"/>
    <path d="M34.85 -22.15 L31.75 -22.8 38.85 -27.65 Q42.2 -28.3 47.9 -26.45 L39.9 -25.2 36.35 -21.75 34.85 -22.15 M34.85 -8.5 Q35.55 -12.3 37.05 -13.35 38.5 -14.4 38.85 -15.35 L38.9 -15.4 47.6 -15.0 54.1 -20.2 Q52.8 -15.45 47.9 -11.5 L34.85 -8.5" fill="#999999" fill-rule="evenodd" stroke="none"/>
    <path d="M31.75 -22.8 L34.85 -22.15 31.3 -22.3 31.0 -22.35 29.45 -22.65 28.3 -23.05 27.35 -23.65 28.35 -23.45 31.75 -22.8 M34.6 -18.25 Q36.7 -17.9 37.0 -16.9 37.25 -15.95 35.55 -14.9 33.8 -13.85 31.15 -13.35 L29.2 -13.1 26.3 -13.2 Q24.2 -13.55 23.95 -14.5 23.65 -15.5 25.35 -16.55 27.1 -17.6 29.8 -18.1 L33.2 -18.4 34.6 -18.25" fill="#ff0000" fill-rule="evenodd" stroke="none"/>
    <path d="M40.55 -20.65 L35.75 -21.2 30.2 -21.8 Q6.1 -24.0 -10.15 -20.75 L-12.55 -20.25 Q-20.55 -18.6 -26.05 -16.6 -16.2 -20.95 -12.6 -23.65 L-4.7 -24.55 8.4 -25.1 Q17.9 -25.2 27.35 -23.65 L28.3 -23.05 29.45 -22.65 31.0 -22.35 31.3 -22.3 34.85 -22.15 36.35 -21.75 40.55 -20.65 M-4.7 -24.55 Q-9.95 -23.0 -12.55 -20.25 -9.95 -23.0 -4.7 -24.55" fill="#000048" fill-rule="evenodd" stroke="none"/>
    <path d="M31.75 -22.8 L28.35 -23.45 27.35 -23.65 M29.8 1.1 L29.9 2.15 29.9 2.6 29.9 3.25 Q29.65 6.05 27.65 8.1 25.4 10.35 22.15 10.4 L19.65 10.0 19.7 10.8 Q19.7 14.05 17.4 16.3 15.15 18.55 11.95 18.55 9.45 18.55 7.5 17.2 7.3 19.95 5.25 21.95 3.0 24.25 -0.2 24.25 -3.35 24.25 -5.55 22.15 -6.05 24.05 -7.55 25.55 -9.8 27.85 -13.05 27.85 -16.25 27.85 -18.55 25.55 -20.8 23.3 -20.8 20.1 -20.8 18.7 -20.2 16.25 L-19.9 15.55 M19.65 10.0 L19.65 9.8 M6.55 12.7 Q7.55 14.4 7.55 16.5 L7.5 17.2 M-53.8 8.3 L-53.25 7.1 Q-46.7 -7.15 -32.7 -16.4 L-32.05 -16.85 Q-24.8 -20.95 -17.3 -22.7 L-12.6 -23.65 M-5.55 22.15 L-5.3 20.1 Q-5.3 17.3 -7.0 15.2 M-53.8 8.3 L-53.95 8.7 -54.05 8.85 -53.85 8.95" fill="none" stroke="#999999" stroke-linecap="round" stroke-linejoin="round" stroke-width="0.05"/>
    <path d="M38.85 -15.35 L38.9 -15.4 39.7 -17.45 40.55 -20.65 35.75 -21.2 30.2 -21.8 Q6.1 -24.0 -10.15 -20.75 L-12.55 -20.25 Q-4.2 -19.05 7.4 -5.75 M-12.6 -23.65 L-4.7 -24.55 8.4 -25.1 Q17.9 -25.2 27.35 -23.65 M36.35 -21.75 L40.55 -20.65 M-12.6 -23.65 Q-16.2 -20.95 -26.05 -16.6 -20.55 -18.6 -12.55 -20.25 -9.95 -23.0 -4.7 -24.55" fill="none" stroke="#5a56b4" stroke-linecap="round" stroke-linejoin="round" stroke-width="0.05"/>
    <path d="M31.75 -22.8 L34.85 -22.15 36.35 -21.75 39.9 -25.2 47.9 -26.45 Q42.2 -28.3 38.85 -27.65 L31.75 -22.8 M38.9 -15.4 L38.85 -15.35 Q38.5 -14.4 37.05 -13.35 35.55 -12.3 34.85 -8.5 L47.9 -11.5 Q52.8 -15.45 54.1 -20.2 L47.6 -15.0 38.9 -15.4" fill="none" stroke="#666666" stroke-linecap="round" stroke-linejoin="round" stroke-width="0.05"/>
    <path d="M7.4 -5.75 L12.05 -0.45 M21.45 -0.45 L38.85 -15.35 M7.4 -5.75 L-5.05 -6.05 Q-7.8 -15.8 -26.05 -16.6" fill="none" stroke="#5a56b4" stroke-linecap="round" stroke-linejoin="round" stroke-width="0.05"/>
    <path d="M-26.05 -16.6 L-29.15 -15.4 -32.05 -14.0 -32.7 -13.6 Q-45.35 -6.2 -53.05 7.1 L-53.75 8.3 -53.95 8.7 M-53.85 8.95 Q-48.35 12.1 -38.65 13.85 M-38.6 13.85 L-33.65 14.5 -32.7 14.6 -29.85 14.9 -27.1 15.15 -21.9 15.45 -19.9 15.55 -19.85 15.55 Q-11.2 10.05 -7.0 15.2 L-6.95 15.2 Q1.6 7.15 6.55 12.7 9.3 7.0 16.3 7.55 16.1 2.8 12.05 -0.45 M34.85 -8.5 Q35.3 -4.7 29.8 1.1 27.1 -1.6 23.6 0.5 23.25 0.25 21.35 -0.45 M19.65 9.8 Q18.2 7.65 16.3 7.55 M19.65 9.8 Q19.15 4.3 23.6 0.5 M-19.9 15.55 L-19.85 15.55 M-7.0 15.2 L-6.95 15.2" fill="none" stroke="#999999" stroke-linecap="round" stroke-linejoin="round" stroke-width="0.05"/>
  </g>
</svg>
