<?xml version="1.0" encoding="UTF-8" standalone="no"?>
<svg xmlns:xlink="http://www.w3.org/1999/xlink" height="55.65px" width="108.15px" xmlns="http://www.w3.org/2000/svg">
  <g transform="matrix(1.0, 0.0, 0.0, 1.0, 54.05, 27.8)">
    <path d="M-53.1 7.2 L-53.75 8.3 -53.8 8.3 -53.25 7.1 -53.1 7.2 M38.85 -15.35 L38.9 -15.4 38.85 -15.35" fill="#ffffff" fill-rule="evenodd" stroke="none"/>
    <path d="M-53.75 8.3 L-53.95 8.7 -53.85 8.95 -54.05 8.85 -53.95 8.7 -53.8 8.3 -53.75 8.3 M-20.2 16.25 L-20.05 15.55 -19.9 15.55 -20.2 16.25" fill="#000000" fill-rule="evenodd" stroke="none"/>
    <path d="M34.85 -22.15 L31.3 -22.3 31.0 -22.35 29.45 -22.65 28.3 -23.05 27.35 -23.65 28.35 -23.45 31.75 -22.8 34.85 -22.15 M35.05 -18.25 Q36.8 -17.9 37.0 -16.9 37.25 -15.95 35.85 -14.9 34.45 -13.85 32.25 -13.35 L28.35 -13.2 Q26.6 -13.55 26.4 -14.5 26.15 -15.5 27.55 -16.55 28.95 -17.6 31.15 -18.1 L35.05 -18.25" fill="#ffff00" fill-rule="evenodd" stroke="none"/>
    <path d="M-15.7 -19.55 Q-14.5 -16.15 -9.95 -15.2 L-5.6 -14.7 -2.5 -14.65 1.3 -15.0 Q7.75 -15.75 12.2 -17.8 16.65 -19.85 16.4 -21.95 L16.2 -22.65 30.2 -21.8 35.75 -21.2 40.55 -20.65 39.7 -17.45 38.9 -15.4 38.85 -15.35 36.8 -13.6 21.45 -0.45 -0.35 -5.15 Q-7.8 -15.8 -26.05 -16.6 -22.05 -18.05 -16.75 -19.3 L-15.7 -19.55 M35.05 -18.25 L31.15 -18.1 Q28.95 -17.6 27.55 -16.55 26.15 -15.5 26.4 -14.5 26.6 -13.55 28.35 -13.2 L32.25 -13.35 Q34.45 -13.85 35.85 -14.9 37.25 -15.95 37.0 -16.9 36.8 -17.9 35.05 -18.25 M-13.7 15.55 L-7.0 15.2 -3.1 14.75 -3.05 14.75 Q2.1 14.0 6.55 12.7 L9.95 11.5 Q14.8 9.65 18.7 6.9 L18.75 6.85 21.0 5.3 27.85 -0.45 28.85 -1.4 29.3 -0.45 Q29.85 0.75 29.9 2.15 L29.9 2.6 29.9 3.25 Q29.65 6.05 27.65 8.1 25.4 10.35 22.15 10.4 L19.65 10.0 19.7 10.8 Q19.7 14.05 17.4 16.3 15.15 18.55 11.95 18.55 9.45 18.55 7.5 17.2 7.3 19.95 5.25 21.95 3.0 24.25 -0.2 24.25 -3.35 24.25 -5.55 22.15 -6.05 24.05 -7.55 25.55 -9.8 27.85 -13.05 27.85 -16.25 27.85 -18.55 25.55 -20.8 23.3 -20.8 20.1 -20.8 18.7 -20.2 16.25 L-19.9 15.55 Q-16.7 15.8 -13.7 15.55 M-1.0 0.95 L10.8 3.4 9.4 5.5 Q8.6 6.55 5.9 7.65 1.85 9.3 -4.0 10.15 L-4.2 10.15 Q-10.0 10.9 -14.25 10.4 -18.55 9.9 -18.75 8.35 -18.8 7.85 -18.45 7.35 -17.7 6.3 -14.95 5.15 -10.95 3.5 -5.05 2.7 L-4.65 2.65 Q-2.75 2.4 -1.0 0.95 M-7.0 15.2 Q-5.3 17.25 -5.3 20.1 L-5.55 22.15 -5.3 20.1 Q-5.3 17.25 -7.0 15.2 M6.55 12.7 Q7.55 14.4 7.55 16.5 L7.5 17.2 7.55 16.5 Q7.55 14.4 6.55 12.7 M18.7 6.9 Q19.5 8.3 19.65 10.0 19.5 8.3 18.7 6.9" fill="#de6863" fill-rule="evenodd" stroke="none"/>
    <path d="M16.1 -22.65 L16.1 -22.8 16.2 -22.65 16.1 -22.8 Q15.4 -23.65 12.85 -24.15 L11.65 -24.35 Q7.0 -25.05 0.45 -24.5 L-1.6 -24.3 -5.1 -23.85 -6.45 -23.6 -10.75 -22.55 Q-15.0 -21.25 -15.8 -19.85 L-15.7 -19.55 -16.75 -19.3 Q-22.05 -18.05 -26.05 -16.6 -16.2 -20.95 -12.6 -23.65 L-6.45 -24.4 -4.7 -24.55 -2.95 -24.7 8.4 -25.1 Q17.9 -25.2 27.35 -23.65 L28.3 -23.05 29.45 -22.65 31.0 -22.35 31.3 -22.3 34.85 -22.15 36.35 -21.75 40.55 -20.65 35.75 -21.2 30.2 -21.8 16.2 -22.65 16.1 -22.65 M-6.45 -23.6 L-4.7 -24.55 -6.45 -23.6" fill="#b72828" fill-rule="evenodd" stroke="none"/>
    <path d="M16.1 -22.8 L16.1 -22.65 11.5 -22.7 Q-0.65 -22.65 -10.15 -20.75 L-12.55 -20.25 -15.7 -19.55 -15.8 -19.85 Q-15.0 -21.25 -10.75 -22.55 L-6.45 -23.6 -5.1 -23.85 -1.6 -24.3 0.45 -24.5 Q7.0 -25.05 11.65 -24.35 L12.85 -24.15 Q15.4 -23.65 16.1 -22.8 M-26.05 -16.6 L-29.15 -15.4 -32.05 -14.0 -32.7 -13.6 Q-45.35 -6.2 -53.05 7.1 L-53.1 7.2 -53.25 7.1 Q-46.7 -7.15 -32.7 -16.4 L-32.05 -16.85 Q-24.8 -20.95 -17.3 -22.7 L-12.6 -23.65 Q-16.2 -20.95 -26.05 -16.6" fill="#f4ffa4" fill-rule="evenodd" stroke="none"/>
    <path d="M16.1 -22.65 L16.2 -22.65 16.4 -21.95 Q16.65 -19.85 12.2 -17.8 7.75 -15.75 1.3 -15.0 L-2.5 -14.65 -5.6 -14.7 -9.95 -15.2 Q-14.5 -16.15 -15.7 -19.55 L-12.55 -20.25 -10.15 -20.75 Q-0.65 -22.65 11.5 -22.7 L16.1 -22.65 M36.8 -13.6 L37.05 -13.35 Q35.55 -12.3 34.85 -8.5 L31.95 -4.8 28.85 -1.4 27.85 -0.45 21.0 5.3 18.75 6.85 18.7 6.9 Q14.8 9.65 9.95 11.5 L6.55 12.7 Q2.1 14.0 -3.05 14.75 L-3.1 14.75 -7.0 15.2 -13.7 15.55 -16.5 15.6 -19.9 15.55 -20.05 15.55 -21.9 15.45 -27.1 15.15 -29.85 14.9 -32.7 14.6 -33.65 14.5 -38.65 13.85 Q-48.35 12.1 -53.85 8.95 L-53.95 8.7 -53.75 8.3 -53.1 7.2 -53.05 7.1 Q-45.35 -6.2 -32.7 -13.6 L-32.05 -14.0 -29.15 -15.4 -26.05 -16.6 Q-7.8 -15.8 -0.35 -5.15 L21.45 -0.45 36.8 -13.6 M-1.0 0.95 Q-2.75 2.4 -4.65 2.65 L-5.05 2.7 Q-10.95 3.5 -14.95 5.15 -17.7 6.3 -18.45 7.35 -18.8 7.85 -18.75 8.35 -18.55 9.9 -14.25 10.4 -10.0 10.9 -4.2 10.15 L-4.0 10.15 Q1.85 9.3 5.9 7.65 8.6 6.55 9.4 5.5 L10.8 3.4 -1.0 0.95" fill="#fdffd5" fill-rule="evenodd" stroke="none"/>
    <path d="M36.35 -21.75 L34.85 -22.15 31.75 -22.8 38.85 -27.65 Q42.2 -28.3 47.9 -26.45 L39.9 -25.2 36.35 -21.75 M37.05 -13.35 Q38.5 -14.4 38.85 -15.35 L38.9 -15.4 47.6 -15.0 54.1 -20.2 Q52.8 -15.45 47.9 -11.5 L34.85 -8.5 Q35.55 -12.3 37.05 -13.35" fill="#c0c001" fill-rule="evenodd" stroke="none"/>
    <path d="M-53.1 7.2 L-53.75 8.3 -53.95 8.7 -53.8 8.3 -53.25 7.1 M-53.85 8.95 L-54.05 8.85 -53.95 8.7" fill="none" stroke="#999999" stroke-linecap="round" stroke-linejoin="round" stroke-width="0.05"/>
    <path d="M16.1 -22.65 L16.2 -22.65 16.1 -22.8 Q15.4 -23.65 12.85 -24.15 L11.65 -24.35 Q7.0 -25.05 0.45 -24.5 L-1.6 -24.3 -5.1 -23.85 -6.45 -23.6 -10.75 -22.55 Q-15.0 -21.25 -15.8 -19.85 L-15.7 -19.55 Q-14.5 -16.15 -9.95 -15.2 L-5.6 -14.7 -2.5 -14.65 1.3 -15.0 Q7.75 -15.75 12.2 -17.8 16.65 -19.85 16.4 -21.95 L16.2 -22.65 30.2 -21.8 35.75 -21.2 40.55 -20.65 36.35 -21.75 M27.35 -23.65 Q17.9 -25.2 8.4 -25.1 L-2.95 -24.7 -4.7 -24.55 -6.45 -23.6 M34.85 -22.15 L31.75 -22.8 28.35 -23.45 27.35 -23.65 M35.05 -18.25 Q36.8 -17.9 37.0 -16.9 37.25 -15.95 35.85 -14.9 34.45 -13.85 32.25 -13.35 L28.35 -13.2 Q26.6 -13.55 26.4 -14.5 26.15 -15.5 27.55 -16.55 28.95 -17.6 31.15 -18.1 L35.05 -18.25 M38.85 -15.35 L36.8 -13.6 21.45 -0.45 -0.35 -5.15 Q-7.8 -15.8 -26.05 -16.6 -16.2 -20.95 -12.6 -23.65 L-6.45 -24.4 -4.7 -24.55 M-3.1 14.75 L-3.05 14.75 M40.55 -20.65 L39.7 -17.45 38.9 -15.4 38.85 -15.35 M28.85 -1.4 L29.3 -0.45 Q29.85 0.75 29.9 2.15 L29.9 2.6 29.9 3.25 Q29.65 6.05 27.65 8.1 25.4 10.35 22.15 10.4 L19.65 10.0 19.7 10.8 Q19.7 14.05 17.4 16.3 15.15 18.55 11.95 18.55 9.45 18.55 7.5 17.2 7.3 19.95 5.25 21.95 3.0 24.25 -0.2 24.25 -3.35 24.25 -5.55 22.15 -6.05 24.05 -7.55 25.55 -9.8 27.85 -13.05 27.85 -16.25 27.85 -18.55 25.55 -20.8 23.3 -20.8 20.1 -20.8 18.7 -20.2 16.25 L-19.9 15.55 Q-16.7 15.8 -13.7 15.55 M-15.7 -19.55 L-16.75 -19.3 Q-22.05 -18.05 -26.05 -16.6 M-1.0 0.95 L10.8 3.4 9.4 5.5 Q8.6 6.55 5.9 7.65 1.85 9.3 -4.0 10.15 L-4.2 10.15 Q-10.0 10.9 -14.25 10.4 -18.55 9.9 -18.75 8.35 -18.8 7.85 -18.45 7.35 -17.7 6.3 -14.95 5.15 -10.95 3.5 -5.05 2.7 L-4.65 2.65 Q-2.75 2.4 -1.0 0.95 M-5.55 22.15 L-5.3 20.1 Q-5.3 17.25 -7.0 15.2 M19.65 10.0 Q19.5 8.3 18.7 6.9 M7.5 17.2 L7.55 16.5 Q7.55 14.4 6.55 12.7" fill="none" stroke="#771a1a" stroke-linecap="round" stroke-linejoin="round" stroke-width="0.05"/>
    <path d="M-15.7 -19.55 L-12.55 -20.25 -10.15 -20.75 Q-0.65 -22.65 11.5 -22.7 L16.1 -22.65 M36.35 -21.75 L34.85 -22.15 M37.05 -13.35 Q38.5 -14.4 38.85 -15.35 L38.9 -15.4 47.6 -15.0 54.1 -20.2 Q52.8 -15.45 47.9 -11.5 L34.85 -8.5 Q35.55 -12.3 37.05 -13.35 M-26.05 -16.6 L-29.15 -15.4 -32.05 -14.0 -32.7 -13.6 Q-45.35 -6.2 -53.05 7.1 L-53.1 7.2 M-53.85 8.95 Q-48.35 12.1 -38.65 13.85 L-33.65 14.5 -32.7 14.6 -29.85 14.9 -27.1 15.15 -21.9 15.45 -20.05 15.55 -19.9 15.55 -16.5 15.6 -13.7 15.55 -7.0 15.2 -3.1 14.75 M-3.05 14.75 Q2.1 14.0 6.55 12.7 L9.95 11.5 Q14.8 9.65 18.7 6.9 L18.75 6.85 21.0 5.3 27.85 -0.45 28.85 -1.4 31.95 -4.8 34.85 -8.5 M-20.2 16.25 L-20.05 15.55 M36.35 -21.75 L39.9 -25.2 47.9 -26.45 Q42.2 -28.3 38.85 -27.65 L31.75 -22.8 M-53.25 7.1 Q-46.7 -7.15 -32.7 -16.4 L-32.05 -16.85 Q-24.8 -20.95 -17.3 -22.7 L-12.6 -23.65" fill="none" stroke="#898801" stroke-linecap="round" stroke-linejoin="round" stroke-width="0.05"/>
  </g>
</svg>
