<?xml version="1.0" encoding="UTF-8" standalone="no"?>
<svg xmlns:xlink="http://www.w3.org/1999/xlink" height="55.75px" width="86.75px" xmlns="http://www.w3.org/2000/svg">
  <g transform="matrix(1.0, 0.0, 0.0, 1.0, 32.65, 27.9)">
    <path d="M36.4 -19.8 L35.05 -21.2 34.6 -21.5 33.05 -22.55 32.1 -23.05 38.85 -27.65 Q42.9 -28.05 47.1 -26.45 48.0 -25.05 44.35 -24.0 41.4 -24.5 39.3 -24.1 L36.4 -19.8 M39.0 -15.35 L39.0 -15.4 39.65 -15.35 45.3 -15.35 Q48.25 -17.5 49.55 -19.7 51.85 -21.45 54.1 -20.2 52.8 -15.45 47.9 -11.5 L35.95 -6.0 Q37.15 -11.1 38.0 -13.4 L38.1 -13.6 39.0 -15.35 M38.85 -15.35 L38.9 -15.4 38.85 -15.35 M6.85 13.2 L6.85 13.25 6.65 13.3 6.85 13.2" fill="#ffffff" fill-rule="evenodd" stroke="none"/>
    <path d="M-20.2 16.25 L-20.2 16.05 -20.2 16.25" fill="#000000" fill-rule="evenodd" stroke="none"/>
    <path d="M34.6 -21.5 Q31.8 -22.6 28.95 -24.2 L26.25 -25.5 26.5 -25.4 28.75 -24.6 32.1 -23.05 33.05 -22.55 34.6 -21.5 M31.9 -11.75 Q25.95 -9.45 20.55 -11.75 25.9 -19.25 31.9 -18.5 36.8 -17.25 31.9 -11.75" fill="#ffff00" fill-rule="evenodd" stroke="none"/>
    <path d="M9.3 -27.9 Q17.45 -27.75 21.15 -25.5 5.45 -26.95 -11.05 -21.6 5.45 -26.95 21.15 -25.5 16.85 -13.05 -3.3 -9.45 L-11.05 -21.6 -15.75 -22.5 Q-11.5 -24.65 -6.25 -25.9 1.65 -27.9 9.3 -27.9" fill="#e7df8b" fill-rule="evenodd" stroke="none"/>
    <path d="M37.25 -19.15 Q29.9 -24.35 25.5 -24.95 L21.15 -25.5 25.5 -24.95 Q29.9 -24.35 37.25 -19.15 L38.65 -17.35 39.65 -15.35 39.0 -15.4 38.9 -15.4 39.0 -15.35 38.1 -13.6 38.0 -13.4 Q34.45 -6.35 28.55 -1.75 25.2 0.85 21.15 2.7 18.25 4.0 14.95 4.9 L14.8 4.9 5.45 -3.2 -4.6 -0.7 Q-10.4 -15.25 -19.25 -18.1 -16.4 -19.8 -13.35 -20.8 L-11.05 -21.6 -13.35 -20.8 Q-16.4 -19.8 -19.25 -18.1 L-21.05 -19.35 Q-18.6 -21.1 -15.75 -22.5 L-11.05 -21.6 -3.3 -9.45 Q16.85 -13.05 21.15 -25.5 17.45 -27.75 9.3 -27.9 15.25 -27.95 21.05 -26.8 L23.0 -26.35 24.2 -26.05 26.0 -25.55 26.25 -25.5 28.95 -24.2 Q31.8 -22.6 34.6 -21.5 L35.05 -21.2 36.4 -19.8 37.25 -19.15 M38.85 -15.35 L38.9 -15.4 38.85 -15.35 M31.9 -11.75 Q36.8 -17.25 31.9 -18.5 25.9 -19.25 20.55 -11.75 25.95 -9.45 31.9 -11.75" fill="#715739" fill-rule="evenodd" stroke="none"/>
    <path d="M38.0 -13.4 Q37.15 -11.1 35.95 -6.0 35.35 -4.7 35.0 -3.25 34.2 -0.1 34.2 0.95 31.75 2.55 29.9 1.75 L29.3 -0.45 28.55 -1.75 29.3 -0.45 29.9 1.75 29.9 2.15 29.9 2.6 29.9 3.25 Q29.8 4.55 29.3 5.65 28.75 6.95 27.65 8.1 25.4 10.35 22.15 10.4 L19.65 10.0 19.7 10.8 19.65 11.65 Q19.4 14.3 17.4 16.3 15.15 18.55 11.95 18.55 9.45 18.55 7.5 17.2 7.3 19.95 5.25 21.95 3.0 24.25 -0.2 24.25 -3.35 24.25 -5.55 22.15 -6.05 24.05 -7.55 25.55 -9.8 27.85 -13.05 27.85 -16.25 27.85 -18.55 25.55 -20.8 23.3 -20.8 20.1 -20.8 18.7 -20.2 16.25 L-20.2 16.05 -20.2 15.05 Q-28.25 12.05 -31.25 5.7 -33.0 1.95 -32.6 -2.05 -32.1 -7.2 -27.9 -12.7 -25.0 -16.5 -21.05 -19.35 L-19.25 -18.1 Q-10.4 -15.25 -4.6 -0.7 L5.45 -3.2 14.8 4.9 14.95 4.9 Q18.25 4.0 21.15 2.7 25.2 0.85 28.55 -1.75 34.45 -6.35 38.0 -13.4 M19.65 10.0 Q19.5 8.55 18.8 7.1 L21.15 2.7 18.8 7.1 Q19.5 8.55 19.65 10.0 M6.85 13.2 L18.8 7.1 6.85 13.2 6.65 13.3 6.85 13.25 6.85 13.2 M-32.6 -2.05 Q-28.2 -12.9 -19.25 -18.1 -28.2 -12.9 -32.6 -2.05 M7.5 17.2 L7.55 16.5 7.5 15.95 Q7.4 14.5 6.85 13.25 7.4 14.5 7.5 15.95 L7.55 16.5 7.5 17.2 M-5.55 22.15 L-5.3 20.1 Q-5.3 18.7 -5.7 17.55 -6.0 16.6 -6.55 15.8 L6.65 13.3 -6.55 15.8 Q-6.0 16.6 -5.7 17.55 -5.3 18.7 -5.3 20.1 L-5.55 22.15 M-6.55 15.8 L-18.5 15.65 -20.2 15.05 -18.5 15.65 -6.55 15.8" fill="#473725" fill-rule="evenodd" stroke="none"/>
    <path d="M32.1 -23.05 L38.85 -27.65 Q42.9 -28.05 47.1 -26.45 48.0 -25.05 44.35 -24.0 41.4 -24.5 39.3 -24.1 L36.4 -19.8 M35.95 -6.0 L47.9 -11.5 Q52.8 -15.45 54.1 -20.2 51.85 -21.45 49.55 -19.7 48.25 -17.5 45.3 -15.35 L39.65 -15.35" fill="none" stroke="#666666" stroke-linecap="round" stroke-linejoin="round" stroke-width="0.05"/>
    <path d="M-20.2 16.25 L-20.2 16.05" fill="none" stroke="#999999" stroke-linecap="round" stroke-linejoin="round" stroke-width="0.05"/>
    <path d="M21.15 -25.5 L25.5 -24.95 Q29.9 -24.35 37.25 -19.15 L36.4 -19.8 35.05 -21.2 34.6 -21.5 33.05 -22.55 32.1 -23.05 28.75 -24.6 26.5 -25.4 M26.0 -25.55 L24.2 -26.05 23.0 -26.35 21.05 -26.8 Q15.25 -27.95 9.3 -27.9 17.45 -27.75 21.15 -25.5 16.85 -13.05 -3.3 -9.45 L-11.05 -21.6 -15.75 -22.5 Q-11.5 -24.65 -6.25 -25.9 1.65 -27.9 9.3 -27.9 M39.0 -15.35 L39.0 -15.4 38.9 -15.4 39.0 -15.35 38.1 -13.6 38.0 -13.4 Q37.15 -11.1 35.95 -6.0 35.35 -4.7 35.0 -3.25 34.2 -0.1 34.2 0.95 31.75 2.55 29.9 1.75 L29.3 -0.45 28.55 -1.75 Q25.2 0.85 21.15 2.7 L18.8 7.1 Q19.5 8.55 19.65 10.0 L22.15 10.4 Q25.4 10.35 27.65 8.1 28.75 6.95 29.3 5.65 29.8 4.55 29.9 3.25 L29.9 2.6 29.9 2.15 29.9 1.75 M39.65 -15.35 L39.0 -15.4 M38.85 -15.35 L38.9 -15.4 38.85 -15.35 M37.25 -19.15 L38.65 -17.35 39.65 -15.35 M38.0 -13.4 Q34.45 -6.35 28.55 -1.75 M19.65 10.0 L19.7 10.8 19.65 11.65 Q19.4 14.3 17.4 16.3 15.15 18.55 11.95 18.55 9.45 18.55 7.5 17.2 7.3 19.95 5.25 21.95 3.0 24.25 -0.2 24.25 -3.35 24.25 -5.55 22.15 -6.05 24.05 -7.55 25.55 -9.8 27.85 -13.05 27.85 -16.25 27.85 -18.55 25.55 -20.8 23.3 -20.8 20.1 -20.8 18.7 -20.2 16.25 L-20.2 16.05 -20.2 15.05 Q-28.25 12.05 -31.25 5.7 -33.0 1.95 -32.6 -2.05 -32.1 -7.2 -27.9 -12.7 -25.0 -16.5 -21.05 -19.35 -18.6 -21.1 -15.75 -22.5 M21.15 2.7 Q18.25 4.0 14.95 4.9 L14.8 4.9 5.45 -3.2 -4.6 -0.7 Q-10.4 -15.25 -19.25 -18.1 -28.2 -12.9 -32.6 -2.05 M18.8 7.1 L6.85 13.2 6.85 13.25 Q7.4 14.5 7.5 15.95 L7.55 16.5 7.5 17.2 M6.85 13.25 L6.65 13.3 -6.55 15.8 Q-6.0 16.6 -5.7 17.55 -5.3 18.7 -5.3 20.1 L-5.55 22.15 M6.65 13.3 L6.85 13.2 M-11.05 -21.6 L-13.35 -20.8 Q-16.4 -19.8 -19.25 -18.1 L-21.05 -19.35 M-20.2 15.05 L-18.5 15.65 -6.55 15.8" fill="none" stroke="#898801" stroke-linecap="round" stroke-linejoin="round" stroke-width="0.05"/>
    <path d="M26.25 -25.5 L26.0 -25.55 M21.15 -25.5 Q5.45 -26.95 -11.05 -21.6 M26.25 -25.5 L26.5 -25.4" fill="none" stroke="#898801" stroke-linecap="round" stroke-linejoin="round" stroke-width="0.05"/>
  </g>
</svg>
