<?xml version="1.0" encoding="UTF-8" standalone="no"?>
<svg xmlns:xlink="http://www.w3.org/1999/xlink" height="56.8px" width="80.4px" xmlns="http://www.w3.org/2000/svg">
  <g transform="matrix(1.0, 0.0, 0.0, 1.0, 31.55, 28.95)">
    <path d="M29.9 2.55 L29.9 2.6 29.9 3.25 Q29.8 4.55 29.3 5.65 28.75 6.95 27.65 8.1 25.4 10.35 22.15 10.4 L19.65 10.0 19.7 10.8 19.65 11.65 Q19.4 14.3 17.4 16.3 15.15 18.55 11.95 18.55 9.45 18.55 7.5 17.2 7.3 19.95 5.25 21.95 3.0 24.25 -0.2 24.25 -3.35 24.25 -5.55 22.15 -6.05 24.05 -7.55 25.55 -9.8 27.85 -13.05 27.85 -16.25 27.85 -18.55 25.55 -20.8 23.3 -20.8 20.1 -20.8 18.7 -20.2 16.25 L-20.2 16.05 -19.3 11.6 Q-14.4 14.35 -8.55 15.4 L-6.15 15.7 -1.2 16.0 5.7 15.45 7.4 15.1 10.9 14.2 Q15.0 12.85 18.55 10.6 L19.65 9.85 20.2 9.45 20.75 9.05 Q23.75 6.7 25.65 4.1 L26.2 3.95 29.2 2.9 29.9 2.55 M19.65 10.0 L19.65 9.85 19.65 10.0 M7.5 17.2 L7.55 16.5 7.5 15.95 7.4 15.1 7.5 15.95 7.55 16.5 7.5 17.2 M-5.55 22.15 L-5.3 20.1 Q-5.3 18.7 -5.7 17.55 L-6.15 15.7 -5.7 17.55 Q-5.3 18.7 -5.3 20.1 L-5.55 22.15" fill="#715739" fill-rule="evenodd" stroke="none"/>
    <path d="M10.4 -27.0 L13.05 -26.1 Q16.9 -24.6 20.2 -22.1 L21.4 -21.2 Q25.8 -17.6 27.7 -13.25 30.0 -11.65 33.9 -13.25 L34.2 -12.5 Q34.85 -11.25 35.8 -11.2 36.65 -11.25 37.3 -12.4 L37.35 -12.5 37.75 -13.4 38.05 -15.5 39.05 -17.2 39.55 -15.55 39.6 -15.5 39.95 -12.1 39.75 -9.6 Q38.85 -4.2 34.05 -0.15 L33.8 0.0 30.0 2.5 29.9 2.55 29.2 2.9 26.2 3.95 25.65 4.1 Q27.3 1.8 28.2 -0.75 29.1 -3.4 29.1 -6.35 29.1 -10.0 27.7 -13.25 29.1 -10.0 29.1 -6.35 29.1 -3.4 28.2 -0.75 27.3 1.8 25.65 4.1 23.75 6.7 20.75 9.05 L20.2 9.45 19.65 9.85 18.55 10.6 Q15.0 12.85 10.9 14.2 L11.25 13.55 Q18.1 0.9 13.05 -12.5 7.8 -26.25 -12.2 -27.2 -7.1 -28.7 -1.2 -28.65 5.05 -28.65 10.4 -27.0 M31.35 -9.85 Q30.95 -8.9 30.95 -7.5 30.95 -6.1 31.35 -5.15 31.75 -4.15 32.25 -4.15 32.75 -4.15 33.15 -5.15 33.55 -6.1 33.55 -7.5 33.55 -8.9 33.15 -9.85 32.75 -10.8 32.25 -10.8 31.75 -10.8 31.35 -9.85" fill="#69ba79" fill-rule="evenodd" stroke="none"/>
    <path d="M10.4 -27.0 Q14.65 -28.95 19.85 -28.95 27.6 -29.0 33.2 -24.7 L34.05 -24.05 36.2 -21.95 Q38.1 -19.75 39.05 -17.2 L38.05 -15.5 Q38.0 -17.3 37.35 -18.6 36.7 -19.85 35.8 -19.85 34.85 -19.85 34.2 -18.6 33.55 -17.3 33.55 -15.5 33.55 -14.25 33.9 -13.25 30.0 -11.65 27.7 -13.25 25.8 -17.6 21.4 -21.2 L20.2 -22.1 Q16.9 -24.6 13.05 -26.1 L10.4 -27.0 M-19.3 11.6 L-21.4 10.3 -22.65 9.45 Q-31.55 2.9 -31.55 -6.35 -31.55 -15.6 -22.65 -22.1 -17.95 -25.6 -12.2 -27.2 7.8 -26.25 13.05 -12.5 18.1 0.9 11.25 13.55 L10.9 14.2 7.4 15.1 5.7 15.45 -1.2 16.0 -6.15 15.7 -8.55 15.4 Q-14.4 14.35 -19.3 11.6" fill="#e8eabf" fill-rule="evenodd" stroke="none"/>
    <path d="M36.2 -21.95 L34.05 -24.05 33.2 -24.7 35.6 -26.7 Q41.95 -28.9 43.75 -25.15 43.15 -24.55 38.45 -24.65 L36.2 -21.95 M39.6 -15.5 L43.4 -15.45 48.1 -17.25 Q50.35 -18.05 45.85 -11.9 L39.75 -9.6 39.95 -12.1 39.6 -15.5" fill="#dddddd" fill-rule="evenodd" stroke="none"/>
    <path d="M33.9 -13.25 Q33.55 -14.25 33.55 -15.5 33.55 -17.3 34.2 -18.6 34.85 -19.85 35.8 -19.85 36.7 -19.85 37.35 -18.6 38.0 -17.3 38.05 -15.5 L37.75 -13.4 37.35 -12.5 37.3 -12.4 Q36.65 -11.25 35.8 -11.2 34.85 -11.25 34.2 -12.5 L33.9 -13.25 M31.35 -9.85 Q31.75 -10.8 32.25 -10.8 32.75 -10.8 33.15 -9.85 33.55 -8.9 33.55 -7.5 33.55 -6.1 33.15 -5.15 32.75 -4.15 32.25 -4.15 31.75 -4.15 31.35 -5.15 30.95 -6.1 30.95 -7.5 30.95 -8.9 31.35 -9.85" fill="#0000ff" fill-rule="evenodd" stroke="none"/>
    <path d="M29.9 2.55 L29.9 2.6 29.9 3.25 Q29.8 4.55 29.3 5.65 28.75 6.95 27.65 8.1 25.4 10.35 22.15 10.4 L19.65 10.0 19.7 10.8 19.65 11.65 Q19.4 14.3 17.4 16.3 15.15 18.55 11.95 18.55 9.45 18.55 7.5 17.2 7.3 19.95 5.25 21.95 3.0 24.25 -0.2 24.25 -3.35 24.25 -5.55 22.15 -6.05 24.05 -7.55 25.55 -9.8 27.85 -13.05 27.85 -16.25 27.85 -18.55 25.55 -20.8 23.3 -20.8 20.1 -20.8 18.7 -20.2 16.25 L-20.2 16.05 -19.3 11.6 M19.65 9.85 L19.65 10.0 M7.4 15.1 L7.5 15.95 7.55 16.5 7.5 17.2 M-6.15 15.7 L-5.7 17.55 Q-5.3 18.7 -5.3 20.1 L-5.55 22.15" fill="none" stroke="#898801" stroke-linecap="round" stroke-linejoin="round" stroke-width="0.05"/>
    <path d="M33.2 -24.7 L35.6 -26.7 Q41.95 -28.9 43.75 -25.15 43.15 -24.55 38.45 -24.65 L36.2 -21.95 M39.6 -15.5 L43.4 -15.45 48.1 -17.25 Q50.35 -18.05 45.85 -11.9 L39.75 -9.6" fill="none" stroke="#666666" stroke-linecap="round" stroke-linejoin="round" stroke-width="0.05"/>
    <path d="M33.2 -24.7 Q27.6 -29.0 19.85 -28.95 14.65 -28.95 10.4 -27.0 L13.05 -26.1 Q16.9 -24.6 20.2 -22.1 L21.4 -21.2 Q25.8 -17.6 27.7 -13.25 29.1 -10.0 29.1 -6.35 29.1 -3.4 28.2 -0.75 27.3 1.8 25.65 4.1 L26.2 3.95 29.2 2.9 29.9 2.55 30.0 2.5 33.8 0.0 34.05 -0.15 Q38.85 -4.2 39.75 -9.6 L39.95 -12.1 39.6 -15.5 39.55 -15.55 39.05 -17.2 Q38.1 -19.75 36.2 -21.95 L34.05 -24.05 33.2 -24.7 M-19.3 11.6 L-21.4 10.3 -22.65 9.45 Q-31.55 2.9 -31.55 -6.35 -31.55 -15.6 -22.65 -22.1 -17.95 -25.6 -12.2 -27.2 -7.1 -28.7 -1.2 -28.65 5.05 -28.65 10.4 -27.0 M25.65 4.1 Q23.75 6.7 20.75 9.05 L20.2 9.45 19.65 9.85 18.55 10.6 Q15.0 12.85 10.9 14.2 L7.4 15.1 5.7 15.45 -1.2 16.0 -6.15 15.7 -8.55 15.4 Q-14.4 14.35 -19.3 11.6" fill="none" stroke="#36743e" stroke-linecap="round" stroke-linejoin="round" stroke-width="0.05"/>
  </g>
</svg>
