<?xml version="1.0" encoding="UTF-8" standalone="no"?>
<svg xmlns:xlink="http://www.w3.org/1999/xlink" height="55.4px" width="118.2px" xmlns="http://www.w3.org/2000/svg">
  <g transform="matrix(1.0, 0.0, 0.0, 1.0, 54.05, 27.55)">
    <path d="M-53.85 8.95 L-54.05 8.85 -53.95 8.7 -53.8 8.3 -53.75 8.3 -53.95 8.7 -53.85 8.95" fill="#000000" fill-rule="evenodd" stroke="none"/>
    <path d="M20.7 -26.1 L20.7 -26.0 18.85 -26.55 20.7 -26.1 M-3.2 -24.75 L-3.4 -24.65 -3.2 -24.75 M21.35 -0.45 L21.45 -0.45 21.45 -0.4 21.35 -0.45 M38.85 -15.35 L38.9 -15.4 38.85 -15.35 M-6.95 15.2 L-7.0 15.2 -6.95 15.2" fill="#ffffff" fill-rule="evenodd" stroke="none"/>
    <path d="M37.85 -21.4 L36.35 -21.75 34.85 -22.15 32.3 -22.7 39.35 -25.75 Q44.8 -26.5 54.05 -24.9 L41.05 -23.35 37.85 -21.4 M34.8 -6.8 L34.85 -8.5 Q35.55 -12.3 37.05 -13.35 L37.1 -13.4 53.6 -13.4 64.15 -18.8 Q62.05 -14.05 54.05 -9.9 L34.8 -6.8" fill="#999999" fill-rule="evenodd" stroke="none"/>
    <path d="M32.3 -22.7 L34.85 -22.15 31.35 -22.3 31.3 -22.3 31.0 -22.35 29.45 -22.65 28.3 -23.05 27.35 -23.65 28.35 -23.45 31.75 -22.8 32.3 -22.7 M35.05 -18.25 Q36.8 -17.9 37.0 -16.9 37.25 -15.95 35.85 -14.9 34.45 -13.85 32.25 -13.35 L28.35 -13.2 Q26.6 -13.55 26.4 -14.5 26.15 -15.5 27.55 -16.55 28.95 -17.6 31.15 -18.1 L35.05 -18.25" fill="#ff0000" fill-rule="evenodd" stroke="none"/>
    <path d="M18.85 -26.55 L20.7 -26.0 Q25.1 -24.45 25.1 -22.25 25.1 -20.05 20.7 -18.5 16.25 -16.95 10.1 -16.95 3.85 -16.95 -0.55 -18.5 -4.95 -20.05 -4.95 -22.25 -4.95 -23.55 -3.4 -24.65 L-3.2 -24.75 Q-2.15 -25.45 -0.55 -26.0 3.85 -27.55 10.1 -27.55 15.0 -27.55 18.85 -26.55 M-5.5 -22.8 L-5.85 -21.6 -5.85 -21.5 Q-5.8 -19.5 -2.2 -18.0 L-5.4 -17.4 -28.3 -13.3 Q-21.2 -12.25 -19.75 -9.35 -0.4 -9.4 7.4 -5.75 L12.05 -0.45 21.35 -0.45 21.45 -0.4 21.45 -0.45 38.85 -15.35 Q38.5 -14.4 37.1 -13.4 L37.05 -13.35 Q35.55 -12.3 34.85 -8.5 L34.8 -6.8 Q34.35 -4.65 32.4 -1.95 L29.8 1.1 29.9 2.15 29.9 2.6 29.9 3.25 Q29.65 6.05 27.65 8.1 25.4 10.35 22.15 10.4 L19.65 10.0 19.7 10.8 Q19.7 14.05 17.4 16.3 15.15 18.55 11.95 18.55 9.45 18.55 7.5 17.2 7.3 19.95 5.25 21.95 3.0 24.25 -0.2 24.25 -3.35 24.25 -5.55 22.15 -6.05 24.05 -7.55 25.55 -9.8 27.85 -13.05 27.85 -16.25 27.85 -18.55 25.55 -20.8 23.3 -20.8 20.1 -20.8 18.7 -20.2 16.25 L-19.9 15.55 -21.9 15.45 -27.1 15.15 -29.85 14.9 -32.7 14.6 -33.65 14.5 -38.6 13.85 -38.65 13.85 Q-48.35 12.1 -53.85 8.95 L-53.95 8.7 -53.75 8.3 -53.8 8.3 -53.25 7.1 Q-46.7 -7.15 -32.7 -16.4 L-32.05 -16.85 -27.05 -19.4 -26.25 -19.75 -24.15 -20.6 Q-23.2 -20.35 -28.6 -17.1 -20.0 -20.45 -10.1 -22.2 L-5.5 -22.8 M29.8 1.1 Q27.1 -1.6 23.6 0.5 L21.45 -0.4 23.6 0.5 Q27.1 -1.6 29.8 1.1 M19.65 10.0 L19.65 9.8 19.65 10.0 M6.55 12.7 Q9.3 7.0 16.3 7.55 18.2 7.65 19.65 9.8 18.2 7.65 16.3 7.55 9.3 7.0 6.55 12.7 7.55 14.4 7.55 16.5 L7.5 17.2 7.55 16.5 Q7.55 14.4 6.55 12.7 1.6 7.15 -6.95 15.2 1.6 7.15 6.55 12.7 M16.3 7.55 Q16.1 2.8 12.05 -0.45 16.1 2.8 16.3 7.55 M19.65 9.8 Q19.15 4.3 23.6 0.5 19.15 4.3 19.65 9.8 M-5.85 -21.5 L-10.15 -20.75 -12.55 -20.25 Q-20.55 -18.6 -26.05 -16.6 L-29.15 -15.4 -32.05 -14.0 -32.7 -13.6 Q-45.35 -6.2 -53.05 7.1 L-53.75 8.3 -53.05 7.1 Q-45.35 -6.2 -32.7 -13.6 L-32.05 -14.0 -29.15 -15.4 -26.05 -16.6 Q-20.55 -18.6 -12.55 -20.25 L-10.15 -20.75 -5.85 -21.5 M-19.9 15.55 L-19.85 15.55 -19.9 15.55 M-7.0 15.2 L-6.95 15.2 -7.0 15.2 Q-5.3 17.3 -5.3 20.1 L-5.55 22.15 -5.3 20.1 Q-5.3 17.3 -7.0 15.2 -11.2 10.05 -19.85 15.55 -11.2 10.05 -7.0 15.2" fill="#faedfe" fill-rule="evenodd" stroke="none"/>
    <path d="M-3.4 -24.65 Q-4.95 -23.8 -5.5 -22.8 L-10.1 -22.2 Q-7.9 -23.6 -4.7 -24.55 -7.9 -23.6 -10.1 -22.2 -20.0 -20.45 -28.6 -17.1 -23.2 -20.35 -24.15 -20.6 L-23.25 -20.9 -21.1 -21.65 -20.0 -22.0 -17.3 -22.7 -13.15 -23.55 -12.6 -23.65 -4.7 -24.55 -3.4 -24.65 M-2.2 -18.0 L-1.05 -17.55 Q3.75 -15.85 10.5 -15.85 17.25 -15.85 22.05 -17.55 26.85 -19.2 26.85 -21.6 L26.8 -22.05 Q26.6 -23.05 25.55 -23.9 L27.35 -23.65 28.3 -23.05 29.45 -22.65 31.0 -22.35 31.3 -22.3 31.35 -22.3 34.85 -22.15 36.35 -21.75 37.85 -21.4 40.55 -20.65 39.7 -17.45 38.9 -15.4 38.85 -15.35 21.45 -0.45 21.35 -0.45 12.05 -0.45 7.4 -5.75 Q0.4 -13.75 -5.4 -17.4 0.4 -13.75 7.4 -5.75 -0.4 -9.4 -19.75 -9.35 -21.2 -12.25 -28.3 -13.3 L-5.4 -17.4 -2.2 -18.0 M26.8 -22.05 L30.2 -21.8 35.75 -21.2 37.25 -21.05 40.55 -20.65 37.25 -21.05 35.75 -21.2 30.2 -21.8 26.8 -22.05 M35.05 -18.25 L31.15 -18.1 Q28.95 -17.6 27.55 -16.55 26.15 -15.5 26.4 -14.5 26.6 -13.55 28.35 -13.2 L32.25 -13.35 Q34.45 -13.85 35.85 -14.9 37.25 -15.95 37.0 -16.9 36.8 -17.9 35.05 -18.25" fill="#3a5c94" fill-rule="evenodd" stroke="none"/>
    <path d="M20.7 -26.0 L20.7 -26.1 22.05 -25.7 Q24.3 -24.9 25.55 -23.9 26.6 -23.05 26.8 -22.05 L26.85 -21.6 Q26.85 -19.2 22.05 -17.55 17.25 -15.85 10.5 -15.85 3.75 -15.85 -1.05 -17.55 L-2.2 -18.0 Q-5.8 -19.5 -5.85 -21.5 L-5.85 -21.6 -5.5 -22.8 Q-4.95 -23.8 -3.4 -24.65 -4.95 -23.55 -4.95 -22.25 -4.95 -20.05 -0.55 -18.5 3.85 -16.95 10.1 -16.95 16.25 -16.95 20.7 -18.5 25.1 -20.05 25.1 -22.25 25.1 -24.45 20.7 -26.0" fill="#e6bafa" fill-rule="evenodd" stroke="none"/>
    <path d="M-5.5 -22.8 L-5.85 -21.6 -5.85 -21.5 -10.15 -20.75 -12.55 -20.25 Q-20.55 -18.6 -26.05 -16.6 L-29.15 -15.4 -32.05 -14.0 -32.7 -13.6 Q-45.35 -6.2 -53.05 7.1 L-53.75 8.3 -53.8 8.3 -53.25 7.1 Q-46.7 -7.15 -32.7 -16.4 L-32.05 -16.85 -27.05 -19.4 -26.25 -19.75 -24.15 -20.6 M31.75 -22.8 L28.35 -23.45 27.35 -23.65 M29.8 1.1 L29.9 2.15 29.9 2.6 29.9 3.25 Q29.65 6.05 27.65 8.1 25.4 10.35 22.15 10.4 L19.65 10.0 19.7 10.8 Q19.7 14.05 17.4 16.3 15.15 18.55 11.95 18.55 9.45 18.55 7.5 17.2 7.3 19.95 5.25 21.95 3.0 24.25 -0.2 24.25 -3.35 24.25 -5.55 22.15 -6.05 24.05 -7.55 25.55 -9.8 27.85 -13.05 27.85 -16.25 27.85 -18.55 25.55 -20.8 23.3 -20.8 20.1 -20.8 18.7 -20.2 16.25 L-19.9 15.55 M-53.85 8.95 L-54.05 8.85 -53.95 8.7 -53.8 8.3 M19.65 9.8 L19.65 10.0 M6.55 12.7 Q7.55 14.4 7.55 16.5 L7.5 17.2 M-7.0 15.2 Q-5.3 17.3 -5.3 20.1 L-5.55 22.15" fill="none" stroke="#999999" stroke-linecap="round" stroke-linejoin="round" stroke-width="0.05"/>
    <path d="M-3.4 -24.65 Q-4.95 -23.8 -5.5 -22.8 M-3.4 -24.65 L-4.7 -24.55" fill="none" stroke="#5a56b4" stroke-linecap="round" stroke-linejoin="round" stroke-width="0.05"/>
    <path d="M34.8 -6.8 Q34.35 -4.65 32.4 -1.95 L29.8 1.1 Q27.1 -1.6 23.6 0.5 19.15 4.3 19.65 9.8 18.2 7.65 16.3 7.55 9.3 7.0 6.55 12.7 1.6 7.15 -6.95 15.2 L-7.0 15.2 -6.95 15.2 M-19.9 15.55 L-21.9 15.45 -27.1 15.15 -29.85 14.9 -32.7 14.6 -33.65 14.5 -38.6 13.85 M-38.65 13.85 Q-48.35 12.1 -53.85 8.95 M21.45 -0.4 L21.35 -0.45 M21.45 -0.4 L23.6 0.5 M12.05 -0.45 Q16.1 2.8 16.3 7.55 M-19.85 15.55 L-19.9 15.55 -19.85 15.55 Q-11.2 10.05 -7.0 15.2 M-53.95 8.7 L-53.75 8.3" fill="none" stroke="#999999" stroke-linecap="round" stroke-linejoin="round" stroke-width="0.05"/>
    <path d="M36.35 -21.75 L37.85 -21.4 40.55 -20.65 M27.35 -23.65 L25.55 -23.9" fill="none" stroke="#5a56b4" stroke-linecap="round" stroke-linejoin="round" stroke-width="0.05"/>
    <path d="M20.7 -26.1 L18.85 -26.55 Q15.0 -27.55 10.1 -27.55 3.85 -27.55 -0.55 -26.0 -2.15 -25.45 -3.2 -24.75 L-3.4 -24.65 -3.2 -24.75 M-5.85 -21.5 Q-5.8 -19.5 -2.2 -18.0 M26.8 -22.05 Q26.6 -23.05 25.55 -23.9 24.3 -24.9 22.05 -25.7 L20.7 -26.1 M37.85 -21.4 L41.05 -23.35 54.05 -24.9 Q44.8 -26.5 39.35 -25.75 L32.3 -22.7 M34.8 -6.8 L34.85 -8.5 Q35.55 -12.3 37.05 -13.35 L37.1 -13.4 53.6 -13.4 64.15 -18.8 Q62.05 -14.05 54.05 -9.9 L34.8 -6.8" fill="none" stroke="#666666" stroke-linecap="round" stroke-linejoin="round" stroke-width="0.05"/>
    <path d="M-2.2 -18.0 L-1.05 -17.55 Q3.75 -15.85 10.5 -15.85 17.25 -15.85 22.05 -17.55 26.85 -19.2 26.85 -21.6 L26.8 -22.05 30.2 -21.8 35.75 -21.2 37.25 -21.05 40.55 -20.65 39.7 -17.45 38.9 -15.4 38.85 -15.35 21.45 -0.45 21.35 -0.45 12.05 -0.45 7.4 -5.75 Q-0.4 -9.4 -19.75 -9.35 -21.2 -12.25 -28.3 -13.3 L-5.4 -17.4 Q0.4 -13.75 7.4 -5.75 M-4.7 -24.55 Q-7.9 -23.6 -10.1 -22.2 L-5.5 -22.8 M31.3 -22.3 L31.35 -22.3 M-24.15 -20.6 L-23.25 -20.9 -21.1 -21.65 -20.0 -22.0 -17.3 -22.7 -13.15 -23.55 -12.6 -23.65 -4.7 -24.55 M-24.15 -20.6 Q-23.2 -20.35 -28.6 -17.1 -20.0 -20.45 -10.1 -22.2 M-2.2 -18.0 L-5.4 -17.4" fill="none" stroke="#274363" stroke-linecap="round" stroke-linejoin="round" stroke-width="0.05"/>
  </g>
</svg>
