<?xml version="1.0" encoding="UTF-8" standalone="no"?>
<svg xmlns:xlink="http://www.w3.org/1999/xlink" height="56.25px" width="118.15px" xmlns="http://www.w3.org/2000/svg">
  <g transform="matrix(1.0, 0.0, 0.0, 1.0, 54.05, 28.4)">
    <path d="M-53.8 8.3 L-53.25 7.1 -53.1 7.2 -53.75 8.3 -53.8 8.3" fill="#ffffff" fill-rule="evenodd" stroke="none"/>
    <path d="M-20.2 16.25 L-20.05 15.55 -19.9 15.55 -20.2 16.25 M-53.85 8.95 L-54.05 8.85 -53.95 8.7 -53.8 8.3 -53.75 8.3 -53.95 8.7 -53.85 8.95" fill="#000000" fill-rule="evenodd" stroke="none"/>
    <path d="M31.75 -22.8 L34.85 -22.15 31.3 -22.3 31.0 -22.35 29.45 -22.65 28.3 -23.05 27.35 -23.65 28.35 -23.45 31.75 -22.8 M35.05 -18.25 Q36.8 -17.9 37.0 -16.9 37.25 -15.95 35.85 -14.9 34.45 -13.85 32.25 -13.35 L28.35 -13.2 Q26.6 -13.55 26.4 -14.5 26.15 -15.5 27.55 -16.55 28.95 -17.6 31.15 -18.1 L35.05 -18.25" fill="#ffff00" fill-rule="evenodd" stroke="none"/>
    <path d="M28.85 -1.4 L29.3 -0.45 Q29.85 0.75 29.9 2.15 L29.9 2.6 29.9 3.25 Q29.65 6.05 27.65 8.1 25.4 10.35 22.15 10.4 L19.65 10.0 19.7 10.8 Q19.7 14.05 17.4 16.3 15.15 18.55 11.95 18.55 9.45 18.55 7.5 17.2 7.3 19.95 5.25 21.95 3.0 24.25 -0.2 24.25 -3.35 24.25 -5.55 22.15 -6.05 24.05 -7.55 25.55 -9.8 27.85 -13.05 27.85 -16.25 27.85 -18.55 25.55 -20.8 23.3 -20.8 20.1 -20.8 18.7 -20.2 16.25 L-19.9 15.55 Q-16.7 15.8 -13.7 15.55 L-7.0 15.2 -3.1 14.75 -3.05 14.75 Q2.1 14.0 6.55 12.7 L9.95 11.5 Q13.25 10.2 16.15 8.55 L18.7 6.9 18.75 6.85 21.0 5.3 21.85 4.65 27.85 -0.45 28.85 -1.4 M19.65 10.0 Q19.5 8.3 18.7 6.9 19.5 8.3 19.65 10.0 M7.5 17.2 L7.55 16.5 Q7.55 14.4 6.55 12.7 7.55 14.4 7.55 16.5 L7.5 17.2 M-7.0 15.2 Q-5.3 17.25 -5.3 20.1 L-5.55 22.15 -5.3 20.1 Q-5.3 17.25 -7.0 15.2" fill="#de6863" fill-rule="evenodd" stroke="none"/>
    <path d="M16.2 -22.65 L16.1 -22.65 16.1 -22.8 16.2 -22.65" fill="#b72828" fill-rule="evenodd" stroke="none"/>
    <path d="M-53.25 7.1 Q-49.25 -1.65 -42.4 -8.5 L-40.75 -10.1 Q-33.4 -15.65 -24.2 -20.55 L-22.8 -21.1 -17.3 -22.7 -12.6 -23.65 Q-16.2 -20.95 -26.05 -16.6 L-29.15 -15.4 -32.05 -14.0 -32.7 -13.6 Q-45.35 -6.2 -53.05 7.1 L-53.1 7.2 -53.25 7.1 M16.1 -22.65 L11.5 -22.7 Q-0.65 -22.65 -10.15 -20.75 L-12.55 -20.25 -15.7 -19.55 -15.8 -19.85 Q-15.0 -21.25 -10.75 -22.55 L-6.45 -23.6 -5.1 -23.85 -1.6 -24.3 0.45 -24.5 Q7.0 -25.05 11.65 -24.35 L12.85 -24.15 Q15.4 -23.65 16.1 -22.8 L16.1 -22.65" fill="#f3b49c" fill-rule="evenodd" stroke="none"/>
    <path d="M34.85 -8.5 L31.95 -4.8 28.85 -1.4 27.85 -0.45 21.85 4.65 -1.0 0.95 Q-1.8 -2.1 -6.65 -4.45 -12.25 -7.15 -20.15 -7.15 -28.05 -7.15 -33.65 -4.45 -39.25 -1.75 -39.25 2.05 -39.25 5.85 -33.65 8.55 -28.05 11.25 -20.15 11.25 L-12.65 10.55 -4.2 10.15 -4.0 10.15 5.5 8.8 16.1 8.5 16.15 8.55 Q13.25 10.2 9.95 11.5 L6.55 12.7 Q2.1 14.0 -3.05 14.75 L-3.1 14.75 -7.0 15.2 -13.7 15.55 -16.5 15.6 -19.9 15.55 -20.05 15.55 -21.9 15.45 -27.1 15.15 -29.85 14.9 -32.7 14.6 -33.65 14.5 -38.65 13.85 Q-48.35 12.1 -53.85 8.95 L-53.95 8.7 -53.75 8.3 -53.1 7.2 -53.05 7.1 Q-45.35 -6.2 -32.7 -13.6 L-32.05 -14.0 -29.15 -15.4 -26.05 -16.6 Q-7.8 -15.8 -0.35 -5.15 L21.45 -0.45 38.7 -15.25 Q38.3 -14.3 36.95 -13.35 35.45 -12.3 34.75 -8.5 L34.85 -8.5 M16.2 -22.65 L16.4 -21.95 Q16.65 -19.85 12.2 -17.8 7.75 -15.75 1.3 -15.0 L-2.5 -14.65 -5.6 -14.7 -9.95 -15.2 Q-14.5 -16.15 -15.7 -19.55 L-12.55 -20.25 -10.15 -20.75 Q-0.65 -22.65 11.5 -22.7 L16.1 -22.65 16.2 -22.65" fill="#fad9cd" fill-rule="evenodd" stroke="none"/>
    <path d="M40.55 -20.65 L39.7 -17.45 38.9 -15.4 38.8 -15.4 38.75 -15.35 38.7 -15.25 21.45 -0.45 -0.35 -5.15 Q-7.8 -15.8 -26.05 -16.6 -22.05 -18.05 -16.75 -19.3 L-15.7 -19.55 Q-14.5 -16.15 -9.95 -15.2 L-5.6 -14.7 -2.5 -14.65 1.3 -15.0 Q7.75 -15.75 12.2 -17.8 16.65 -19.85 16.4 -21.95 L16.2 -22.65 30.2 -21.8 35.75 -21.2 40.55 -20.65 M-40.75 -10.1 Q-37.1 -13.5 -32.7 -16.4 L-32.05 -16.85 Q-28.15 -19.05 -24.2 -20.55 -33.4 -15.65 -40.75 -10.1 M35.05 -18.25 L31.15 -18.1 Q28.95 -17.6 27.55 -16.55 26.15 -15.5 26.4 -14.5 26.6 -13.55 28.35 -13.2 L32.25 -13.35 Q34.45 -13.85 35.85 -14.9 37.25 -15.95 37.0 -16.9 36.8 -17.9 35.05 -18.25 M21.85 4.65 L21.0 5.3 18.75 6.85 18.7 6.9 16.15 8.55 16.1 8.5 5.5 8.8 -4.0 10.15 -4.2 10.15 -12.65 10.55 -20.15 11.25 Q-28.05 11.25 -33.65 8.55 -39.25 5.85 -39.25 2.05 -39.25 -1.75 -33.65 -4.45 -28.05 -7.15 -20.15 -7.15 -12.25 -7.15 -6.65 -4.45 -1.8 -2.1 -1.0 0.95 L21.85 4.65" fill="#86392f" fill-rule="evenodd" stroke="none"/>
    <path d="M34.85 -22.15 L36.35 -21.75 40.55 -20.65 35.75 -21.2 30.2 -21.8 16.2 -22.65 16.1 -22.8 Q15.4 -23.65 12.85 -24.15 L11.65 -24.35 Q7.0 -25.05 0.45 -24.5 L-1.6 -24.3 -5.1 -23.85 -6.45 -23.6 -10.75 -22.55 Q-15.0 -21.25 -15.8 -19.85 L-15.7 -19.55 -16.75 -19.3 Q-22.05 -18.05 -26.05 -16.6 -16.2 -20.95 -12.6 -23.65 L-6.45 -24.4 -4.7 -24.55 -2.95 -24.7 8.4 -25.1 Q17.9 -25.2 27.35 -23.65 L28.3 -23.05 29.45 -22.65 31.0 -22.35 31.3 -22.3 34.85 -22.15" fill="#471e18" fill-rule="evenodd" stroke="none"/>
    <path d="M31.75 -22.8 L36.7 -25.25 37.9 -25.8 Q41.0 -27.2 42.7 -26.65 47.5 -25.5 52.65 -28.4 50.1 -24.5 41.2 -24.45 40.2 -24.45 38.4 -23.15 L36.35 -21.75 34.85 -22.15 31.75 -22.8 M38.9 -15.4 L45.8 -15.05 49.2 -15.65 49.4 -15.75 Q59.9 -21.25 64.1 -17.4 57.15 -18.25 51.8 -13.65 50.0 -11.9 47.2 -10.8 L45.0 -10.5 43.35 -10.3 42.2 -10.15 41.6 -10.05 34.85 -8.5 34.75 -8.5 Q35.45 -12.3 36.95 -13.35 38.3 -14.3 38.7 -15.25 L38.75 -15.35 38.8 -15.4 38.9 -15.4" fill="#efecff" fill-rule="evenodd" stroke="none"/>
    <path d="M-53.85 8.95 L-54.05 8.85 -53.95 8.7 -53.8 8.3 -53.25 7.1" fill="none" stroke="#999999" stroke-linecap="round" stroke-linejoin="round" stroke-width="0.05"/>
    <path d="M28.85 -1.4 L29.3 -0.45 Q29.85 0.75 29.9 2.15 L29.9 2.6 29.9 3.25 Q29.65 6.05 27.65 8.1 25.4 10.35 22.15 10.4 L19.65 10.0 19.7 10.8 Q19.7 14.05 17.4 16.3 15.15 18.55 11.95 18.55 9.45 18.55 7.5 17.2 7.3 19.95 5.25 21.95 3.0 24.25 -0.2 24.25 -3.35 24.25 -5.55 22.15 -6.05 24.05 -7.55 25.55 -9.8 27.85 -13.05 27.85 -16.25 27.85 -18.55 25.55 -20.8 23.3 -20.8 20.1 -20.8 18.7 -20.2 16.25 L-19.9 15.55 Q-16.7 15.8 -13.7 15.55 M18.7 6.9 Q19.5 8.3 19.65 10.0 M6.55 12.7 Q7.55 14.4 7.55 16.5 L7.5 17.2 M-5.55 22.15 L-5.3 20.1 Q-5.3 17.25 -7.0 15.2" fill="none" stroke="#771a1a" stroke-linecap="round" stroke-linejoin="round" stroke-width="0.05"/>
    <path d="M-20.2 16.25 L-20.05 15.55" fill="none" stroke="#898801" stroke-linecap="round" stroke-linejoin="round" stroke-width="0.05"/>
    <path d="M31.75 -22.8 L34.85 -22.15 36.35 -21.75 40.55 -20.65 39.7 -17.45 38.9 -15.4 M34.85 -8.5 L31.95 -4.8 28.85 -1.4 27.85 -0.45 21.85 4.65 21.0 5.3 18.75 6.85 18.7 6.9 16.15 8.55 Q13.25 10.2 9.95 11.5 L6.55 12.7 Q2.1 14.0 -3.05 14.75 L-3.1 14.75 -7.0 15.2 -13.7 15.55 -16.5 15.6 -19.9 15.55 -20.05 15.55 -21.9 15.45 -27.1 15.15 -29.85 14.9 -32.7 14.6 -33.65 14.5 -38.65 13.85 Q-48.35 12.1 -53.85 8.95 L-53.95 8.7 -53.75 8.3 -53.1 7.2 -53.25 7.1 Q-49.25 -1.65 -42.4 -8.5 L-40.75 -10.1 Q-37.1 -13.5 -32.7 -16.4 L-32.05 -16.85 Q-28.15 -19.05 -24.2 -20.55 L-22.8 -21.1 -17.3 -22.7 -12.6 -23.65 -6.45 -24.4 -4.7 -24.55 -2.95 -24.7 8.4 -25.1 Q17.9 -25.2 27.35 -23.65 L28.35 -23.45 31.75 -22.8 M-15.7 -19.55 Q-14.5 -16.15 -9.95 -15.2 L-5.6 -14.7 -2.5 -14.65 1.3 -15.0 Q7.75 -15.75 12.2 -17.8 16.65 -19.85 16.4 -21.95 L16.2 -22.65 16.1 -22.65 11.5 -22.7 Q-0.65 -22.65 -10.15 -20.75 L-12.55 -20.25 -15.7 -19.55 -15.8 -19.85 Q-15.0 -21.25 -10.75 -22.55 L-6.45 -23.6 -5.1 -23.85 -1.6 -24.3 0.45 -24.5 Q7.0 -25.05 11.65 -24.35 L12.85 -24.15 Q15.4 -23.65 16.1 -22.8 L16.2 -22.65 30.2 -21.8 35.75 -21.2 40.55 -20.65 M16.1 -22.65 L16.1 -22.8 M34.85 -22.15 L31.3 -22.3 31.0 -22.35 29.45 -22.65 28.3 -23.05 27.35 -23.65 M35.05 -18.25 Q36.8 -17.9 37.0 -16.9 37.25 -15.95 35.85 -14.9 34.45 -13.85 32.25 -13.35 L28.35 -13.2 Q26.6 -13.55 26.4 -14.5 26.15 -15.5 27.55 -16.55 28.95 -17.6 31.15 -18.1 L35.05 -18.25 M38.7 -15.25 L21.45 -0.45 -0.35 -5.15 Q-7.8 -15.8 -26.05 -16.6 L-29.15 -15.4 -32.05 -14.0 -32.7 -13.6 Q-45.35 -6.2 -53.05 7.1 L-53.1 7.2 M16.15 8.55 L16.1 8.5 5.5 8.8 -4.0 10.15 -4.2 10.15 -12.65 10.55 -20.15 11.25 Q-28.05 11.25 -33.65 8.55 -39.25 5.85 -39.25 2.05 -39.25 -1.75 -33.65 -4.45 -28.05 -7.15 -20.15 -7.15 -12.25 -7.15 -6.65 -4.45 -1.8 -2.1 -1.0 0.95 L21.85 4.65 M-26.05 -16.6 Q-22.05 -18.05 -16.75 -19.3 L-15.7 -19.55 M-12.6 -23.65 Q-16.2 -20.95 -26.05 -16.6 M-40.75 -10.1 Q-33.4 -15.65 -24.2 -20.55" fill="none" stroke="#d28582" stroke-linecap="round" stroke-linejoin="round" stroke-width="0.05"/>
    <path d="M36.35 -21.75 L38.4 -23.15 Q40.2 -24.45 41.2 -24.45 50.1 -24.5 52.65 -28.4 47.5 -25.5 42.7 -26.65 41.0 -27.2 37.9 -25.8 L36.7 -25.25 31.75 -22.8" fill="none" stroke="#d3ceff" stroke-linecap="round" stroke-linejoin="round" stroke-width="0.05"/>
    <path d="M38.9 -15.4 L45.8 -15.05 49.2 -15.65 49.4 -15.75 Q59.9 -21.25 64.1 -17.4 57.15 -18.25 51.8 -13.65 50.0 -11.9 47.2 -10.8 L45.0 -10.5 43.35 -10.3 42.2 -10.15 41.6 -10.05 34.85 -8.5 34.75 -8.5 Q35.45 -12.3 36.95 -13.35 38.3 -14.3 38.7 -15.25 L38.75 -15.35 38.8 -15.4 38.9 -15.4" fill="none" stroke="#d3ceff" stroke-linecap="round" stroke-linejoin="round" stroke-width="0.05"/>
  </g>
</svg>
