<?xml version="1.0" encoding="UTF-8" standalone="no"?>
<svg xmlns:xlink="http://www.w3.org/1999/xlink" height="56.2px" width="77.45px" xmlns="http://www.w3.org/2000/svg">
  <g transform="matrix(1.0, 0.0, 0.0, 1.0, 28.6, 28.35)">
    <path d="M33.8 -24.2 L36.05 -26.15 Q42.2 -28.3 43.9 -24.65 43.35 -24.1 38.8 -24.2 L36.65 -21.55 34.55 -23.6 33.8 -24.2 M39.9 -15.35 L43.6 -15.35 48.1 -17.05 Q50.3 -17.85 45.95 -11.9 L40.1 -9.7 40.05 -9.7 40.25 -12.1 Q40.25 -13.8 39.9 -15.35" fill="#dddddd" fill-rule="evenodd" stroke="none"/>
    <path d="M-26.4 -14.9 Q-24.45 -12.45 -19.95 -10.5 -11.95 -7.0 -0.65 -7.0 10.65 -7.0 18.6 -10.5 24.95 -13.25 26.25 -16.9 27.6 -15.15 28.45 -13.2 29.8 -10.1 29.8 -6.55 29.8 -3.7 28.95 -1.15 28.1 1.3 26.5 3.5 28.1 1.3 28.95 -1.15 29.8 -3.7 29.8 -6.55 29.8 -10.1 28.45 -13.2 30.7 -11.65 34.45 -13.2 L34.7 -12.5 Q35.35 -11.25 36.25 -11.25 37.1 -11.25 37.7 -12.4 L37.75 -12.5 38.15 -13.35 38.4 -15.4 39.4 -17.0 39.9 -15.4 39.9 -15.35 Q40.25 -13.8 40.25 -12.1 L40.05 -9.7 40.05 -9.65 Q39.2 -4.45 34.55 -0.6 L34.35 -0.4 30.7 1.95 29.9 2.35 26.5 3.5 Q24.5 6.25 21.25 8.65 L19.65 9.8 Q16.2 11.95 12.3 13.25 L7.3 14.45 0.6 14.95 -6.45 14.4 Q-13.35 13.15 -18.85 9.5 L-20.05 8.65 Q-28.6 2.35 -28.6 -6.55 -28.6 -11.05 -26.4 -14.9 M31.95 -9.95 Q31.6 -9.0 31.6 -7.65 31.6 -6.3 31.95 -5.4 32.35 -4.45 32.85 -4.45 33.35 -4.45 33.7 -5.4 34.1 -6.3 34.1 -7.65 34.1 -9.0 33.7 -9.95 33.35 -10.85 32.85 -10.85 32.35 -10.85 31.95 -9.95" fill="#d2d17b" fill-rule="evenodd" stroke="none"/>
    <path d="M-26.4 -14.9 Q-24.25 -18.65 -20.05 -21.75 -15.5 -25.1 -9.95 -26.65 -5.1 -28.05 0.6 -28.05 6.65 -28.05 11.8 -26.45 13.1 -26.1 14.35 -25.55 18.05 -24.1 21.25 -21.75 L22.4 -20.85 26.25 -16.9 22.4 -20.85 21.25 -21.75 Q18.05 -24.1 14.35 -25.55 13.1 -26.1 11.8 -26.45 14.2 -27.6 16.9 -28.0 L20.9 -28.35 Q28.35 -28.35 33.8 -24.2 L34.55 -23.6 36.65 -21.55 Q38.5 -19.45 39.4 -17.0 L38.4 -15.4 Q38.4 -17.1 37.75 -18.35 37.15 -19.55 36.25 -19.55 35.35 -19.55 34.7 -18.35 34.1 -17.1 34.1 -15.4 34.1 -14.15 34.45 -13.2 30.7 -11.65 28.45 -13.2 27.6 -15.15 26.25 -16.9 24.95 -13.25 18.6 -10.5 10.65 -7.0 -0.65 -7.0 -11.95 -7.0 -19.95 -10.5 -24.45 -12.45 -26.4 -14.9" fill="#efefd1" fill-rule="evenodd" stroke="none"/>
    <path d="M34.45 -13.2 Q34.1 -14.15 34.1 -15.4 34.1 -17.1 34.7 -18.35 35.35 -19.55 36.25 -19.55 37.15 -19.55 37.75 -18.35 38.4 -17.1 38.4 -15.4 L38.15 -13.35 37.75 -12.5 37.7 -12.4 Q37.1 -11.25 36.25 -11.25 35.35 -11.25 34.7 -12.5 L34.45 -13.2 M31.95 -9.95 Q32.35 -10.85 32.85 -10.85 33.35 -10.85 33.7 -9.95 34.1 -9.0 34.1 -7.65 34.1 -6.3 33.7 -5.4 33.35 -4.45 32.85 -4.45 32.35 -4.45 31.95 -5.4 31.6 -6.3 31.6 -7.65 31.6 -9.0 31.95 -9.95" fill="#ec0000" fill-rule="evenodd" stroke="none"/>
    <path d="M29.9 2.35 L29.9 2.6 29.9 3.25 Q29.8 4.55 29.3 5.65 28.75 6.95 27.65 8.1 25.4 10.35 22.15 10.4 L19.65 10.0 19.7 10.8 19.65 11.65 Q19.4 14.3 17.4 16.3 15.15 18.55 11.95 18.55 9.45 18.55 7.5 17.2 7.3 19.95 5.25 21.95 3.0 24.25 -0.2 24.25 -3.35 24.25 -5.55 22.15 -6.05 24.05 -7.55 25.55 -9.8 27.85 -13.05 27.85 -16.25 27.85 -18.55 25.55 -20.8 23.3 -20.8 20.1 -20.8 18.7 -20.2 16.25 L-20.2 16.05 -18.85 9.5 Q-13.35 13.15 -6.45 14.4 L0.6 14.95 7.3 14.45 12.3 13.25 Q16.2 11.95 19.65 9.8 L21.25 8.65 Q24.5 6.25 26.5 3.5 L29.9 2.35 M-6.45 14.4 L-5.7 17.55 Q-5.3 18.7 -5.3 20.1 L-5.55 22.15 -5.3 20.1 Q-5.3 18.7 -5.7 17.55 L-6.45 14.4 M7.5 17.2 L7.55 16.5 7.5 15.95 7.3 14.45 7.5 15.95 7.55 16.5 7.5 17.2 M19.65 9.8 L19.65 10.0 19.65 9.8" fill="#eecfbf" fill-rule="evenodd" stroke="none"/>
    <path d="M29.9 2.35 L29.9 2.6 29.9 3.25 Q29.8 4.55 29.3 5.65 28.75 6.95 27.65 8.1 25.4 10.35 22.15 10.4 L19.65 10.0 19.7 10.8 19.65 11.65 Q19.4 14.3 17.4 16.3 15.15 18.55 11.95 18.55 9.45 18.55 7.5 17.2 7.3 19.95 5.25 21.95 3.0 24.25 -0.2 24.25 -3.35 24.25 -5.55 22.15 -6.05 24.05 -7.55 25.55 -9.8 27.85 -13.05 27.85 -16.25 27.85 -18.55 25.55 -20.8 23.3 -20.8 20.1 -20.8 18.7 -20.2 16.25 L-20.2 16.05 -18.85 9.5 M19.65 10.0 L19.65 9.8 M7.3 14.45 L7.5 15.95 7.55 16.5 7.5 17.2 M-5.55 22.15 L-5.3 20.1 Q-5.3 18.7 -5.7 17.55 L-6.45 14.4" fill="none" stroke="#898801" stroke-linecap="round" stroke-linejoin="round" stroke-width="0.05"/>
    <path d="M33.8 -24.2 L36.05 -26.15 Q42.2 -28.3 43.9 -24.65 43.35 -24.1 38.8 -24.2 L36.65 -21.55 M39.9 -15.35 L43.6 -15.35 48.1 -17.05 Q50.3 -17.85 45.95 -11.9 L40.1 -9.7 40.05 -9.7" fill="none" stroke="#666666" stroke-linecap="round" stroke-linejoin="round" stroke-width="0.05"/>
    <path d="M11.8 -26.45 Q6.65 -28.05 0.6 -28.05 -5.1 -28.05 -9.95 -26.65 -15.5 -25.1 -20.05 -21.75 -24.25 -18.65 -26.4 -14.9 -28.6 -11.05 -28.6 -6.55 -28.6 2.35 -20.05 8.65 L-18.85 9.5 Q-13.35 13.15 -6.45 14.4 L0.6 14.95 7.3 14.45 12.3 13.25 Q16.2 11.95 19.65 9.8 L21.25 8.65 Q24.5 6.25 26.5 3.5 L29.9 2.35 30.7 1.95 34.35 -0.4 34.55 -0.6 Q39.2 -4.45 40.05 -9.65 L40.05 -9.7 40.25 -12.1 Q40.25 -13.8 39.9 -15.35 L39.9 -15.4 39.4 -17.0 Q38.5 -19.45 36.65 -21.55 L34.55 -23.6 33.8 -24.2 Q28.35 -28.35 20.9 -28.35 L16.9 -28.0 Q14.2 -27.6 11.8 -26.45 13.1 -26.1 14.35 -25.55 18.05 -24.1 21.25 -21.75 L22.4 -20.85 26.25 -16.9 Q27.6 -15.15 28.45 -13.2 29.8 -10.1 29.8 -6.55 29.8 -3.7 28.95 -1.15 28.1 1.3 26.5 3.5" fill="none" stroke="#36743e" stroke-linecap="round" stroke-linejoin="round" stroke-width="0.05"/>
  </g>
</svg>
