<?xml version="1.0" encoding="UTF-8" standalone="no"?>
<svg xmlns:xlink="http://www.w3.org/1999/xlink" height="56.5px" width="89.4px" xmlns="http://www.w3.org/2000/svg">
  <g transform="matrix(1.0, 0.0, 0.0, 1.0, 32.65, 28.65)">
    <path d="M6.65 13.3 L6.85 13.2 6.85 13.25 6.65 13.3 M37.55 -13.55 L38.35 -14.5 Q38.9 -15.2 39.65 -15.35 L38.45 -15.35 39.65 -15.35 Q42.5 -15.35 47.05 -16.7 51.9 -19.45 56.75 -24.35 52.8 -15.45 47.9 -11.5 L35.95 -6.0 Q34.85 -9.75 37.55 -13.55 M36.4 -19.8 L36.0 -20.25 35.75 -20.5 35.15 -21.1 34.65 -21.55 32.75 -23.5 38.85 -27.65 Q46.1 -30.25 54.8 -26.25 47.25 -26.95 39.3 -24.1 L36.4 -19.8" fill="#ffffff" fill-rule="evenodd" stroke="none"/>
    <path d="M9.25 -24.3 L9.2 -24.3 9.25 -24.3" fill="#ffff66" fill-rule="evenodd" stroke="none"/>
    <path d="M29.2 -26.2 L29.15 -26.2 29.1 -26.3 29.2 -26.2 M14.5 -25.85 L14.2 -25.85 14.45 -25.85 14.2 -25.85 14.5 -25.85 14.2 -25.85 14.15 -25.85 14.45 -25.85 14.5 -25.85 M21.55 -26.7 L21.05 -26.65 21.05 -26.8 21.55 -26.7 M35.15 -21.1 L35.05 -21.2 34.65 -21.55 35.15 -21.1" fill="#7a4762" fill-rule="evenodd" stroke="none"/>
    <path d="M3.1 -26.75 L3.0 -26.8 3.1 -26.75" fill="#533143" fill-rule="evenodd" stroke="none"/>
    <path d="M35.75 -20.5 L34.6 -21.5 34.65 -21.55 35.05 -21.2 35.15 -21.1 35.75 -20.5" fill="#25786b" fill-rule="evenodd" stroke="none"/>
    <path d="M29.15 -26.2 L28.8 -19.25 14.2 -25.85 14.5 -25.85 29.15 -26.2" fill="#80d9cb" fill-rule="evenodd" stroke="none"/>
    <path d="M29.15 -26.2 L29.2 -26.2 34.6 -21.5 35.75 -20.5 28.8 -19.25 29.15 -26.2" fill="#52cbb8" fill-rule="evenodd" stroke="none"/>
    <path d="M7.15 -27.85 L8.5 -27.35 Q8.85 -26.6 3.25 -26.7 L3.1 -26.75 -3.05 -25.95 Q-7.95 -25.0 -11.15 -23.45 -13.05 -22.5 -13.65 -21.65 L-13.95 -21.15 Q-14.95 -18.35 -19.25 -18.1 L-21.05 -19.35 Q-21.0 -21.75 -16.9 -21.9 L-15.75 -22.5 Q-11.5 -24.65 -6.25 -25.9 L0.9 -27.3 1.4 -27.35 Q3.55 -29.15 7.15 -27.85 M3.1 -26.75 L3.0 -26.8 3.1 -26.75 M9.25 -24.3 Q12.2 -26.1 15.05 -23.05 29.55 -3.35 24.9 -0.05 17.85 2.8 11.6 3.95 L-4.6 -0.7 Q-7.85 -8.9 -12.1 -13.35 -13.55 -16.95 -10.7 -19.25 L-10.55 -19.15 -10.0 -19.1 Q-6.35 -18.9 -1.45 -19.85 3.4 -20.85 6.6 -22.45 8.6 -23.4 9.25 -24.3 M37.1 -16.25 L34.1 -12.85 Q29.65 -10.85 23.9 -12.45 31.85 -18.1 37.1 -16.25 M11.85 -21.65 Q0.2 -15.45 -7.85 -16.55 -4.3 -13.0 -1.65 -4.8 6.15 -1.95 13.3 0.25 L21.1 -2.2 Q22.55 -6.45 11.85 -21.65" fill="#ffff99" fill-rule="evenodd" stroke="none"/>
    <path d="M28.8 -19.25 L35.75 -20.5 36.0 -20.25 36.4 -19.8 37.25 -19.15 38.65 -17.35 39.65 -15.35 Q38.9 -15.2 38.35 -14.5 L37.55 -13.55 Q32.05 -7.55 28.55 -1.75 27.3 -0.05 18.8 7.1 L6.85 13.2 6.65 13.3 -6.55 15.8 -18.5 15.65 -20.2 15.05 Q-28.25 12.05 -31.25 5.7 -33.0 1.95 -32.6 -2.05 -32.1 -7.2 -27.9 -12.7 -25.0 -16.5 -21.05 -19.35 L-19.25 -18.1 Q-14.95 -18.35 -13.95 -21.15 L-13.65 -21.65 Q-13.05 -22.5 -11.15 -23.45 -7.95 -25.0 -3.05 -25.95 L3.1 -26.75 3.25 -26.7 Q8.85 -26.6 8.5 -27.35 L7.15 -27.85 9.3 -27.9 Q15.25 -27.95 21.05 -26.8 L21.05 -26.65 14.45 -25.85 14.15 -25.85 14.2 -25.85 28.8 -19.25 M39.65 -15.35 L38.45 -15.35 39.65 -15.35 M9.25 -24.3 Q8.6 -23.4 6.6 -22.45 3.4 -20.85 -1.45 -19.85 -6.35 -18.9 -10.0 -19.1 L-10.55 -19.15 -10.7 -19.25 Q-13.55 -16.95 -12.1 -13.35 -7.85 -8.9 -4.6 -0.7 L11.6 3.95 Q17.85 2.8 24.9 -0.05 29.55 -3.35 15.05 -23.05 12.2 -26.1 9.25 -24.3 L9.2 -24.3 9.25 -24.3 M37.1 -16.25 Q31.85 -18.1 23.9 -12.45 29.65 -10.85 34.1 -12.85 L37.1 -16.25" fill="#9c75ae" fill-rule="evenodd" stroke="none"/>
    <path d="M11.85 -21.65 Q22.55 -6.45 21.1 -2.2 L13.3 0.25 Q6.15 -1.95 -1.65 -4.8 -4.3 -13.0 -7.85 -16.55 0.2 -15.45 11.85 -21.65" fill="#714f86" fill-rule="evenodd" stroke="none"/>
    <path d="M29.1 -26.3 L29.15 -26.2 14.5 -25.85 14.45 -25.85 21.05 -26.65 21.55 -26.7 28.6 -27.55 29.1 -26.3" fill="#48c8aa" fill-rule="evenodd" stroke="none"/>
    <path d="M34.6 -21.5 L29.2 -26.2 29.1 -26.3 28.6 -27.55 32.75 -23.5 34.65 -21.55 34.6 -21.5" fill="#35b095" fill-rule="evenodd" stroke="none"/>
    <path d="M-20.2 15.05 L-18.5 15.65 -6.55 15.8 6.65 13.3 6.85 13.25 Q7.4 14.5 7.5 15.95 L7.55 16.5 7.5 17.2 Q7.3 19.95 5.25 21.95 3.0 24.25 -0.2 24.25 -3.35 24.25 -5.55 22.15 -6.05 24.05 -7.55 25.55 -9.8 27.85 -13.05 27.85 -16.25 27.85 -18.55 25.55 -20.8 23.3 -20.8 20.1 -20.8 18.7 -20.2 16.05 L-20.2 15.05 M6.85 13.2 L18.8 7.1 Q27.3 -0.05 28.55 -1.75 32.05 -7.55 37.55 -13.55 34.85 -9.75 35.95 -6.0 35.35 -4.7 35.0 -3.25 34.2 -0.1 34.2 0.95 31.75 2.55 29.9 1.75 L29.9 2.15 29.9 2.6 29.9 3.25 Q29.8 4.55 29.3 5.65 28.75 6.95 27.65 8.1 25.4 10.35 22.15 10.4 L19.65 10.0 19.7 10.8 19.65 11.65 Q19.4 14.3 17.4 16.3 15.15 18.55 11.95 18.55 9.45 18.55 7.5 17.2 L7.55 16.5 7.5 15.95 Q7.4 14.5 6.85 13.25 L6.85 13.2 M28.55 -1.75 L29.3 -0.45 29.9 1.75 29.3 -0.45 28.55 -1.75 M19.65 10.0 Q19.5 8.55 18.8 7.1 19.5 8.55 19.65 10.0 M-5.55 22.15 L-5.3 20.1 Q-5.3 18.7 -5.7 17.55 -6.0 16.6 -6.55 15.8 -6.0 16.6 -5.7 17.55 -5.3 18.7 -5.3 20.1 L-5.55 22.15" fill="#6c4f86" fill-rule="evenodd" stroke="none"/>
    <path d="M32.75 -23.5 L38.85 -27.65 Q46.1 -30.25 54.8 -26.25 47.25 -26.95 39.3 -24.1 L36.4 -19.8 M35.95 -6.0 L47.9 -11.5 Q52.8 -15.45 56.75 -24.35 51.9 -19.45 47.05 -16.7 42.5 -15.35 39.65 -15.35" fill="none" stroke="#666666" stroke-linecap="round" stroke-linejoin="round" stroke-width="0.05"/>
    <path d="M21.05 -26.8 L21.55 -26.7 M35.15 -21.1 L35.05 -21.2 34.65 -21.55" fill="none" stroke="#898801" stroke-linecap="round" stroke-linejoin="round" stroke-width="0.05"/>
    <path d="M9.25 -24.3 L9.2 -24.3 9.25 -24.3" fill="none" stroke="#d3ceff" stroke-linecap="round" stroke-linejoin="round" stroke-width="0.05"/>
    <path d="M29.15 -26.2 L28.8 -19.25 35.75 -20.5 34.6 -21.5 29.2 -26.2 29.1 -26.3 29.15 -26.2 14.5 -25.85 14.2 -25.85 28.8 -19.25 M29.1 -26.3 L28.6 -27.55 21.55 -26.7 21.05 -26.65 14.45 -25.85 14.5 -25.85 14.2 -25.85 14.15 -25.85 14.45 -25.85 14.2 -25.85 M36.0 -20.25 L35.75 -20.5 35.15 -21.1 34.65 -21.55 32.75 -23.5 28.6 -27.55" fill="none" stroke="#27836d" stroke-linecap="round" stroke-linejoin="round" stroke-width="0.05"/>
    <path d="M7.15 -27.85 L8.5 -27.35 Q8.85 -26.6 3.25 -26.7 L3.1 -26.75 -3.05 -25.95 Q-7.95 -25.0 -11.15 -23.45 -13.05 -22.5 -13.65 -21.65 L-13.95 -21.15 Q-14.95 -18.35 -19.25 -18.1 L-21.05 -19.35 Q-25.0 -16.5 -27.9 -12.7 -32.1 -7.2 -32.6 -2.05 -33.0 1.95 -31.25 5.7 -28.25 12.05 -20.2 15.05 L-18.5 15.65 -6.55 15.8 6.65 13.3 6.85 13.2 18.8 7.1 Q27.3 -0.05 28.55 -1.75 32.05 -7.55 37.55 -13.55 L38.35 -14.5 Q38.9 -15.2 39.65 -15.35 L38.65 -17.35 37.25 -19.15 36.4 -19.8 36.0 -20.25 M3.1 -26.75 L3.0 -26.8 3.1 -26.75 M-21.05 -19.35 Q-21.0 -21.75 -16.9 -21.9 L-15.75 -22.5 Q-11.5 -24.65 -6.25 -25.9 L0.9 -27.3 1.4 -27.35 Q3.55 -29.15 7.15 -27.85 L9.3 -27.9 Q15.25 -27.95 21.05 -26.8 M9.25 -24.3 Q8.6 -23.4 6.6 -22.45 3.4 -20.85 -1.45 -19.85 -6.35 -18.9 -10.0 -19.1 L-10.55 -19.15 -10.7 -19.25 Q-13.55 -16.95 -12.1 -13.35 -7.85 -8.9 -4.6 -0.7 L11.6 3.95 Q17.85 2.8 24.9 -0.05 29.55 -3.35 15.05 -23.05 12.2 -26.1 9.25 -24.3 M37.1 -16.25 Q31.85 -18.1 23.9 -12.45 29.65 -10.85 34.1 -12.85 L37.1 -16.25 M29.9 1.75 L29.3 -0.45 28.55 -1.75 M35.95 -6.0 Q35.35 -4.7 35.0 -3.25 34.2 -0.1 34.2 0.95 31.75 2.55 29.9 1.75 L29.9 2.15 29.9 2.6 29.9 3.25 Q29.8 4.55 29.3 5.65 28.75 6.95 27.65 8.1 25.4 10.35 22.15 10.4 L19.65 10.0 19.7 10.8 19.65 11.65 Q19.4 14.3 17.4 16.3 15.15 18.55 11.95 18.55 9.45 18.55 7.5 17.2 7.3 19.95 5.25 21.95 3.0 24.25 -0.2 24.25 -3.35 24.25 -5.55 22.15 -6.05 24.05 -7.55 25.55 -9.8 27.85 -13.05 27.85 -16.25 27.85 -18.55 25.55 -20.8 23.3 -20.8 20.1 -20.8 18.7 -20.2 16.05 L-20.2 15.05 M37.55 -13.55 Q34.85 -9.75 35.95 -6.0 M18.8 7.1 Q19.5 8.55 19.65 10.0 M6.85 13.25 L6.65 13.3 M6.85 13.25 Q7.4 14.5 7.5 15.95 L7.55 16.5 7.5 17.2 M6.85 13.2 L6.85 13.25 M-6.55 15.8 Q-6.0 16.6 -5.7 17.55 -5.3 18.7 -5.3 20.1 L-5.55 22.15" fill="none" stroke="#4d355b" stroke-linecap="round" stroke-linejoin="round" stroke-width="0.05"/>
  </g>
</svg>
