<?xml version="1.0" encoding="UTF-8" standalone="no"?>
<svg xmlns:xlink="http://www.w3.org/1999/xlink" height="18.6px" width="18.6px" xmlns="http://www.w3.org/2000/svg">
  <g transform="matrix(1.0, 0.0, 0.0, 1.0, 9.25, 13.8)">
    <path d="M-0.1 -12.3 Q0.65 -10.75 0.45 -9.55 L0.45 -9.45 3.1 -9.5 Q8.6 -7.8 9.35 -3.35 8.15 -6.55 6.3 -5.6 5.5 -4.3 6.05 -4.0 7.3 -2.35 7.2 -0.3 L6.45 -1.5 5.1 -2.9 Q5.1 -1.2 4.5 2.3 L4.35 3.3 3.65 -2.0 3.65 -1.85 Q3.7 -3.9 2.95 -5.4 3.3 -0.45 2.25 0.3 L1.85 -1.4 0.45 -3.0 -0.05 -4.85 -0.25 -4.95 Q-1.15 -4.1 -0.7 -3.65 L-0.6 -3.45 Q0.15 -1.55 -0.35 0.25 L-0.8 -1.05 -1.8 -2.75 Q-2.45 -1.9 -3.0 -0.05 -4.1 -0.8 -3.7 -5.75 L-4.15 -4.6 Q-4.15 -4.2 -4.3 -3.95 L-4.4 -2.25 -4.55 -2.25 -5.3 -1.75 -6.5 -0.5 Q-6.95 -2.15 -5.9 -4.35 L-5.75 -4.85 -6.4 -6.9 -6.85 -5.75 -7.0 -5.5 -7.2 -5.5 Q-8.45 -5.4 -9.25 -2.6 -8.7 -6.8 -4.7 -9.55 L-3.8 -9.85 -1.2 -9.8 -1.2 -9.9 Q-1.65 -12.2 -3.5 -13.8 -1.75 -13.6 -0.15 -12.3 L-0.1 -12.35 -0.1 -12.3" fill="#413445" fill-rule="evenodd" stroke="none"/>
    <path d="M9.35 -3.35 Q8.6 -7.8 3.1 -9.5 L0.45 -9.45 0.45 -9.55 Q0.65 -10.75 -0.1 -12.3 3.95 -12.3 6.35 -10.6 8.7 -8.95 9.35 -3.35 M-3.5 -13.8 Q-1.65 -12.2 -1.2 -9.9 L-1.2 -9.8 -3.8 -9.85 -4.7 -9.55 Q-8.7 -6.8 -9.25 -2.6 -8.75 -8.3 -6.55 -9.7 L-4.7 -11.0 -4.1 -11.25 Q-4.1 -11.95 -4.7 -12.55 L-4.7 -12.5 -5.95 -13.05 -4.7 -13.7 -4.7 -13.75 -3.5 -13.8 M-6.85 -5.75 L-6.4 -6.9 -5.75 -4.85 -5.9 -4.35 Q-6.95 -2.15 -6.5 -0.5 -7.3 1.95 -6.9 4.8 -8.9 0.3 -6.85 -5.75 M-4.4 -2.25 L-4.3 -3.95 Q-4.15 -4.2 -4.15 -4.6 L-3.7 -5.75 Q-4.1 -0.8 -3.0 -0.05 -3.25 0.75 -3.05 2.25 -4.15 0.65 -4.4 -2.2 L-4.4 -2.25 M-0.35 0.25 Q0.15 -1.55 -0.6 -3.45 L-0.7 -3.65 Q-1.15 -4.1 -0.25 -4.95 L-0.05 -4.85 0.45 -3.0 Q1.15 0.65 -0.45 4.35 -0.05 2.1 -0.35 0.25 M2.25 0.3 Q3.3 -0.45 2.95 -5.4 3.7 -3.9 3.65 -1.85 3.4 1.0 2.3 2.6 2.45 1.1 2.25 0.3 M4.35 3.3 L4.5 2.3 Q5.1 -1.2 5.1 -2.9 6.1 -0.7 4.35 3.3 L4.35 3.4 4.35 3.45 4.35 3.5 4.35 3.45 4.35 3.3 M7.2 -0.3 Q7.3 -2.35 6.05 -4.0 5.5 -4.3 6.3 -5.6 8.95 -1.6 7.95 3.65 7.9 1.35 7.2 -0.3" fill="#68536f" fill-rule="evenodd" stroke="none"/>
  </g>
</svg>
