<?xml version="1.0" encoding="UTF-8" standalone="no"?>
<svg xmlns:xlink="http://www.w3.org/1999/xlink" height="14.7px" width="13.7px" xmlns="http://www.w3.org/2000/svg">
  <g transform="matrix(1.0, 0.0, 0.0, 1.0, 6.65, 12.5)">
    <path d="M5.55 -1.6 L5.5 -1.65 5.55 -1.65 5.55 -1.6" fill="#446584" fill-rule="evenodd" stroke="none"/>
    <path d="M-4.0 0.1 L-4.0 0.15 -4.05 0.1 -4.0 0.1 M5.55 -1.7 L5.55 -1.6 5.55 -1.65 5.55 -1.7" fill="#5c82ad" fill-rule="evenodd" stroke="none"/>
    <path d="M5.2 1.8 L5.05 2.2 Q5.0 -0.75 3.3 -2.05 L3.3 -2.0 1.65 -1.5 Q1.6 -0.35 2.25 0.1 0.95 -0.1 0.3 -1.75 L0.25 -1.85 0.25 -1.75 -0.1 -1.75 -0.3 0.7 Q-0.3 -0.25 -1.15 -1.95 L-1.2 -2.0 -1.2 -1.95 -1.7 -2.05 -2.1 -0.05 -3.2 -2.0 -4.0 -2.1 Q-4.5 -1.8 -4.0 0.1 L-4.05 0.1 Q-4.95 -0.85 -5.1 -2.05 -5.5 -0.8 -5.05 1.6 L-5.3 0.9 -5.3 0.8 -5.35 0.65 Q-5.7 -0.7 -5.55 -2.5 -6.3 -2.2 -6.6 -0.15 -6.8 -1.8 -6.05 -3.1 L-6.05 -4.45 Q-5.85 -6.7 -4.35 -8.25 -2.25 -10.4 -1.7 -10.45 3.4 -9.3 5.0 -4.45 L5.55 -1.7 5.55 -1.65 5.5 -1.65 5.0 -0.85 Q5.5 0.05 5.2 1.8" fill="#af7c7a" fill-rule="evenodd" stroke="none"/>
    <path d="M-1.7 -10.45 L-3.9 -11.55 -0.65 -10.6 0.0 -12.5 0.05 -12.45 0.7 -10.7 2.25 -11.55 1.75 -10.55 Q4.35 -9.25 5.4 -6.75 L6.15 -4.45 6.2 -2.6 Q7.55 -1.35 6.7 1.1 6.9 -0.95 5.55 -1.6 5.8 0.2 5.2 1.8 5.5 0.05 5.0 -0.85 L5.5 -1.65 5.55 -1.6 5.55 -1.7 5.0 -4.45 Q3.4 -9.3 -1.7 -10.45 M3.3 -2.0 Q2.0 -0.95 2.25 0.1 1.6 -0.35 1.65 -1.5 L3.3 -2.0 M0.25 -1.75 L-0.3 0.7 -0.1 -1.75 0.25 -1.75 M-1.2 -1.95 L-2.05 0.1 -2.1 -0.05 -1.7 -2.05 -1.2 -1.95 M-3.2 -2.0 Q-4.3 -1.05 -4.0 0.1 -4.5 -1.8 -4.0 -2.1 L-3.2 -2.0 M-5.35 0.65 L-5.85 -1.55 Q-6.45 -0.9 -6.5 0.55 L-6.6 -0.15 Q-6.3 -2.2 -5.55 -2.5 -5.7 -0.7 -5.35 0.65" fill="#86554f" fill-rule="evenodd" stroke="none"/>
    <path d="M-1.7 -10.45 L-3.9 -11.55 -0.65 -10.6 0.0 -12.5 0.05 -12.45 0.7 -10.7 2.25 -11.55 1.75 -10.55 Q4.35 -9.25 5.4 -6.75 L6.15 -4.45 6.2 -2.6 Q7.55 -1.35 6.7 1.1 6.9 -0.95 5.55 -1.6 5.8 0.2 5.2 1.8 L5.05 2.2 Q5.0 -0.75 3.3 -2.05 L3.3 -2.0 Q2.0 -0.95 2.25 0.1 0.95 -0.1 0.3 -1.75 L0.25 -1.75 -0.3 0.7 Q-0.3 -0.25 -1.15 -1.95 L-1.2 -2.0 -1.2 -1.95 -2.05 0.1 -2.1 -0.05 -3.2 -2.0 Q-4.3 -1.05 -4.0 0.1 L-4.0 0.15 -4.05 0.1 Q-4.95 -0.85 -5.1 -2.05 -5.5 -0.8 -5.05 1.6 L-5.3 0.9 -5.3 0.8 -5.35 0.65 -5.85 -1.55 Q-6.45 -0.9 -6.5 0.55 L-6.6 -0.15 Q-6.8 -1.8 -6.05 -3.1 L-6.05 -4.45 Q-5.85 -6.7 -4.35 -8.25 -2.25 -10.4 -1.7 -10.45 M0.3 -1.75 L0.25 -1.85 0.25 -1.75 M5.55 -1.65 L5.55 -1.7" fill="none" stroke="#5a3736" stroke-linecap="round" stroke-linejoin="round" stroke-width="0.05"/>
  </g>
</svg>
