<?xml version="1.0" encoding="UTF-8" standalone="no"?>
<svg xmlns:xlink="http://www.w3.org/1999/xlink" height="18.85px" width="18.8px" xmlns="http://www.w3.org/2000/svg">
  <g transform="matrix(1.0, 0.0, 0.0, 1.0, 9.65, 11.75)">
    <path d="M-5.8 -9.55 L-0.95 -9.4 Q-0.95 -10.55 -2.45 -11.75 0.3 -11.45 2.9 -9.3 6.05 -11.05 8.85 -8.35 7.4 -8.55 6.85 -6.25 8.05 -5.45 9.15 -3.05 L7.8 -3.2 7.95 -1.25 7.9 -0.55 7.9 -0.05 7.65 -0.55 7.45 -0.8 6.6 -1.5 6.45 -1.55 Q6.55 0.85 7.0 2.55 L4.45 -0.95 Q5.55 -4.2 -0.05 -1.4 -5.05 -4.3 -4.4 -1.05 -6.05 0.75 -6.85 2.3 L-7.05 -1.3 Q-7.9 -0.95 -8.55 0.0 L-8.6 -1.35 -8.4 -3.2 -9.65 -3.0 -9.15 -3.8 Q-7.85 -5.55 -6.4 -6.2 -7.15 -8.5 -9.25 -8.3 -7.5 -9.25 -5.8 -9.55 L-5.8 -2.4 -5.8 -2.45 -5.8 -9.55 M-5.8 -2.35 L-5.8 -1.35 -5.8 -2.35" fill="#ffffcc" fill-rule="evenodd" stroke="none"/>
    <path d="M-5.8 -9.55 L-0.95 -9.4 Q-0.95 -10.55 -2.45 -11.75 0.3 -11.45 2.9 -9.3 6.05 -11.05 8.85 -8.35 7.4 -8.55 6.85 -6.25 8.05 -5.45 9.15 -3.05 L7.8 -3.2 7.95 -1.25 7.9 -0.55 7.9 -0.05 7.65 -0.55 7.45 -0.8 6.6 -1.5 6.45 -1.55 Q6.55 0.85 7.0 2.55 L4.45 -0.95 Q5.55 -4.2 -0.05 -1.4 -5.05 -4.3 -4.4 -1.05 -6.05 0.75 -6.85 2.3 L-7.05 -1.3 Q-7.9 -0.95 -8.55 0.0 L-8.6 -1.35 -8.4 -3.2 -9.65 -3.0 -9.15 -3.8 Q-7.85 -5.55 -6.4 -6.2 -7.15 -8.5 -9.25 -8.3 -7.5 -9.25 -5.8 -9.55 Z" fill="none" stroke="#d3d301" stroke-linecap="round" stroke-linejoin="round" stroke-width="0.05"/>
    <path d="M4.45 -0.95 L4.95 -0.6 5.35 0.05 5.4 0.05 5.4 0.3 Q5.85 3.8 3.8 7.1 4.55 4.15 4.5 0.55 L4.45 -0.95 M-0.9 -2.05 L0.0 -2.1 0.2 -2.1 1.35 -2.0 Q-0.4 -0.35 -0.7 0.8 -1.1 -0.1 -0.9 -2.05 M-4.4 -1.05 L-4.4 0.55 Q-4.5 4.15 -3.7 7.1 -5.8 3.8 -5.7 0.25 -5.4 -0.55 -4.4 -1.05" fill="#ffffcc" fill-rule="evenodd" stroke="none"/>
    <path d="M5.4 0.3 Q5.85 3.8 3.8 7.1 4.55 4.15 4.5 0.55 L4.45 -0.95 M1.35 -2.0 Q-0.4 -0.35 -0.7 0.8 -1.1 -0.1 -0.9 -2.05 M-5.7 0.25 Q-5.8 3.8 -3.7 7.1 -4.5 4.15 -4.4 0.55 L-4.4 -1.05" fill="none" stroke="#d3d301" stroke-linecap="round" stroke-linejoin="round" stroke-width="0.05"/>
  </g>
</svg>
