<?xml version="1.0" encoding="UTF-8" standalone="no"?>
<svg xmlns:xlink="http://www.w3.org/1999/xlink" height="22.1px" width="18.6px" xmlns="http://www.w3.org/2000/svg">
  <g transform="matrix(1.0, 0.0, 0.0, 1.0, 8.95, 15.75)">
    <path d="M-1.1 -5.45 L-1.15 -5.45 -1.1 -5.45" fill="#9b7968" fill-rule="evenodd" stroke="none"/>
    <path d="M-3.5 -6.0 L-3.55 -5.95 -3.55 -6.0 -3.5 -6.0" fill="#665044" fill-rule="evenodd" stroke="none"/>
    <path d="M-1.1 -5.45 L-1.1 -5.4 -1.15 -5.45 -1.1 -5.45" fill="#5c82ad" fill-rule="evenodd" stroke="none"/>
    <path d="M0.6 -12.95 L0.5 -14.0 Q6.7 -13.1 8.65 -7.35 7.0 -9.0 5.8 -8.45 L5.7 -8.45 5.7 -8.4 5.75 -8.3 5.95 -7.45 Q8.1 -3.35 7.15 2.5 6.8 -0.8 5.65 -1.05 L5.5 -1.0 5.35 -0.85 5.4 0.25 4.9 2.05 Q4.7 -4.35 0.2 -7.65 1.85 -8.45 4.2 -8.05 L4.45 -8.0 4.1 -9.2 3.05 -10.9 3.9 -11.05 4.75 -11.15 0.65 -12.2 0.6 -12.95 M4.45 -4.3 L5.2 -1.8 5.35 -0.85 5.2 -1.8 4.45 -4.3 M-8.8 -15.3 Q-4.05 -15.0 -1.8 -13.25 L-0.85 -12.3 -1.05 -11.8 -1.75 -11.35 -3.15 -12.15 -2.85 -12.2 -3.0 -12.45 Q-3.95 -14.0 -8.55 -15.15 L-8.8 -15.3 M-1.1 -5.4 Q-2.65 -3.55 -2.2 -0.4 -3.25 -4.05 -1.85 -5.5 L-1.15 -5.45 -1.1 -5.4 M-3.55 -5.95 L-4.6 -4.65 -5.55 -1.6 Q-6.0 -0.05 -5.9 3.8 L-5.9 5.0 -6.2 3.8 Q-7.15 -0.15 -6.7 -2.6 -6.4 -4.4 -5.5 -6.15 L-4.5 -6.35 -3.55 -6.0 -3.55 -5.95" fill="#7892bc" fill-rule="evenodd" stroke="none"/>
    <path d="M0.6 -12.95 L0.65 -12.2 4.75 -11.15 3.9 -11.05 3.05 -10.9 4.1 -9.2 4.45 -8.0 4.2 -8.05 Q1.85 -8.45 0.2 -7.65 4.7 -4.35 4.9 2.05 L5.4 0.25 5.45 0.95 5.45 1.55 5.2 3.8 Q4.9 5.35 4.2 6.35 L4.1 3.8 Q3.65 0.05 1.4 -3.3 L1.4 -3.35 1.4 -3.3 Q2.0 -1.2 1.45 0.45 L0.7 -2.25 0.35 -3.2 -0.3 -4.4 -0.55 -4.85 -0.85 -5.15 -1.05 -5.45 -1.1 -5.45 -1.15 -5.45 -1.85 -5.5 Q-3.25 -4.05 -2.2 -0.4 -4.1 -2.5 -3.5 -5.95 L-3.5 -6.0 -3.55 -6.0 -4.5 -6.35 -5.5 -6.15 Q-6.4 -4.4 -6.7 -2.6 -7.15 -0.15 -6.2 3.8 L-5.9 5.0 -5.95 5.0 -6.35 3.8 Q-7.65 0.2 -7.65 -3.0 -7.7 -4.6 -7.4 -6.1 L-6.7 -7.7 Q-5.8 -11.3 -3.4 -12.15 L-3.45 -12.15 -3.1 -12.35 -3.0 -12.45 -2.85 -12.2 -3.15 -12.15 -1.75 -11.35 -1.05 -11.8 -0.85 -12.3 -1.8 -13.25 Q-4.05 -15.0 -8.8 -15.3 L-8.95 -15.35 -7.7 -15.65 Q-6.35 -15.85 -4.85 -15.65 L-4.05 -15.5 Q-2.4 -15.2 -0.25 -13.85 L-0.2 -13.9 0.5 -14.0 0.6 -12.95 M-5.9 -8.6 L-6.7 -7.7 -5.9 -8.6 M5.8 -8.45 Q7.0 -9.0 8.65 -7.35 L9.65 -2.1 Q7.8 -7.8 5.8 -8.45 M7.15 2.5 L6.85 3.8 6.5 5.0 6.45 3.8 Q6.25 0.4 5.65 -1.05 6.8 -0.8 7.15 2.5" fill="#9caccf" fill-rule="evenodd" stroke="none"/>
    <path d="M5.4 0.25 L5.35 -0.85 5.2 -1.8 4.45 -4.3 M0.5 -14.0 L-0.2 -13.9 -0.25 -13.85 Q-2.4 -15.2 -4.05 -15.5 L-4.85 -15.65 Q-6.35 -15.85 -7.7 -15.65 L-8.95 -15.35 M-3.15 -12.15 L-2.85 -12.2 -3.0 -12.45 -3.1 -12.35 -3.45 -12.15 M-3.4 -12.15 Q-5.8 -11.3 -6.7 -7.7 L-5.9 -8.6 M8.65 -7.35 Q6.7 -13.1 0.5 -14.0 M5.8 -8.45 L5.7 -8.45 5.7 -8.4 5.75 -8.3 5.95 -7.45 Q8.1 -3.35 7.15 2.5 L6.85 3.8 6.5 5.0 6.45 3.8 Q6.25 0.4 5.65 -1.05 M5.5 -1.0 L5.35 -0.85 M5.4 0.25 L5.45 0.95 5.45 1.55 5.2 3.8 Q4.9 5.35 4.2 6.35 L4.1 3.8 Q3.65 0.05 1.4 -3.3 L1.4 -3.35 1.4 -3.3 Q2.0 -1.2 1.45 0.45 L0.7 -2.25 0.35 -3.2 -0.3 -4.4 -0.55 -4.85 -0.85 -5.15 -1.05 -5.45 -1.1 -5.45 -1.1 -5.4 Q-2.65 -3.55 -2.2 -0.4 -4.1 -2.5 -3.5 -5.95 M-3.5 -6.0 L-3.55 -5.95 -4.6 -4.65 -5.55 -1.6 Q-6.0 -0.05 -5.9 3.8 L-5.9 5.0 M-5.95 5.0 L-6.35 3.8 Q-7.65 0.2 -7.65 -3.0 -7.7 -4.6 -7.4 -6.1 L-6.7 -7.7 M8.65 -7.35 L9.65 -2.1 Q7.8 -7.8 5.8 -8.45 M-8.55 -15.15 Q-3.95 -14.0 -3.0 -12.45" fill="none" stroke="#36506d" stroke-linecap="round" stroke-linejoin="round" stroke-width="0.05"/>
  </g>
</svg>
