<?xml version="1.0" encoding="UTF-8" standalone="no"?>
<svg xmlns:xlink="http://www.w3.org/1999/xlink" height="71.3px" width="100.5px" xmlns="http://www.w3.org/2000/svg">
  <g transform="matrix(1.0, 0.0, 0.0, 1.0, 57.5, 31.8)">
    <path d="M29.65 -29.2 L29.7 -29.3 29.8 -29.25 29.65 -29.2 29.8 -29.25 29.65 -29.2 M13.05 -27.7 L13.05 -27.55 12.15 -27.45 13.05 -27.7 M17.55 14.15 L17.6 14.15 17.55 14.2 17.55 14.15 M-9.8 -18.8 L-10.6 -18.4 -9.85 -18.85 -9.8 -18.8 M5.55 18.5 L5.45 18.4 5.5 18.35 5.55 18.5" fill="#000000" fill-rule="evenodd" stroke="none"/>
    <path d="M29.7 -29.3 L29.65 -29.2 29.7 -29.3" fill="#ffffff" fill-rule="evenodd" stroke="none"/>
    <path d="M-9.8 -18.85 L-9.8 -18.8 -9.85 -18.85 -9.8 -18.85" fill="#000066" fill-rule="evenodd" stroke="none"/>
    <path d="M-7.2 21.1 L-0.8 19.75 5.45 18.4 5.55 18.5 5.5 18.35 8.95 17.55 Q15.85 15.85 17.55 14.15 L17.55 14.2 18.35 14.9 Q20.65 17.15 20.65 20.4 L20.6 21.1 20.65 20.4 Q20.65 17.15 18.35 14.9 L17.55 14.2 17.6 14.15 28.4 7.7 Q34.45 3.85 35.2 1.3 35.9 -1.25 36.25 -1.15 38.85 -0.9 40.75 1.0 43.0 3.3 43.0 6.5 43.0 9.75 40.75 12.0 38.5 14.25 35.25 14.3 L32.75 13.9 32.8 14.7 Q32.8 17.95 30.5 20.2 28.25 22.45 25.05 22.45 22.55 22.45 20.6 21.1 20.4 23.85 18.35 25.85 16.1 28.15 12.9 28.15 9.75 28.15 7.55 26.05 7.05 27.95 5.55 29.45 3.3 31.75 0.05 31.75 -3.15 31.75 -5.45 29.45 -7.7 27.2 -7.7 24.0 -7.7 22.45 -7.2 21.1 M-30.2 8.65 L-30.65 10.65 -31.15 13.3 -31.35 14.45 -31.45 14.8 -32.0 13.5 -33.1 10.65 -33.15 9.45 -33.15 8.9 Q-32.95 6.0 -30.9 3.95 -29.75 2.8 -28.3 2.25 L-29.1 4.6 -30.0 7.8 -30.2 8.65 M-30.65 16.55 L-30.65 16.5 -30.65 16.6 -30.65 16.55 M28.4 7.7 L30.5 9.2 Q32.5 11.2 32.75 13.9 32.5 11.2 30.5 9.2 L28.4 7.7 M-0.8 19.75 L-0.85 19.75 -0.8 19.75 -0.85 19.75 -0.8 19.75 M7.55 26.05 L7.8 24.0 Q7.8 21.55 6.5 19.65 L5.55 18.5 6.5 19.65 Q7.8 21.55 7.8 24.0 L7.55 26.05" fill="#de6863" fill-rule="evenodd" stroke="none"/>
    <path d="M6.8 -25.8 L6.9 -25.55 6.8 -25.8" fill="#b72828" fill-rule="evenodd" stroke="none"/>
    <path d="M-27.9 1.15 L-27.85 2.05 -27.95 5.65 -28.15 7.2 Q-28.55 8.75 -29.2 9.05 -29.7 9.2 -30.2 8.65 L-30.0 7.8 -29.1 4.6 -28.3 2.25 -27.9 1.15 M-6.45 10.75 Q-8.3 11.85 -10.65 12.6 L-13.05 13.3 -19.0 13.8 -19.7 13.75 -19.8 13.7 Q-22.4 13.25 -22.4 11.85 -22.4 11.25 -22.0 10.65 -21.4 9.7 -19.8 8.75 L-19.7 8.65 Q-18.85 8.15 -17.85 7.7 -15.75 6.7 -13.05 6.15 L-10.65 5.7 Q-8.3 5.35 -6.45 5.65 -3.7 6.1 -3.7 7.6 -3.7 9.05 -6.45 10.75" fill="#ffff00" fill-rule="evenodd" stroke="none"/>
    <path d="M28.5 -28.9 Q17.5 -25.45 14.05 -3.3 L1.45 14.5 -25.5 22.5 -31.9 21.3 -30.65 16.55 -30.65 16.6 -30.65 16.5 -30.3 15.5 Q-29.45 12.9 -28.4 10.65 L-28.1 10.05 -24.95 4.35 -23.4 1.95 -20.75 -1.6 -19.8 -2.75 Q-17.15 -5.9 -14.0 -8.65 -11.8 -6.0 -7.9 -5.95 -4.0 -5.95 0.85 -8.45 5.7 -10.95 8.8 -13.45 L9.9 -14.4 12.2 -16.6 Q16.45 -21.1 16.3 -24.0 L16.0 -25.15 Q22.0 -27.25 28.5 -28.9 M-0.8 19.75 L11.6 7.35 Q13.3 7.3 14.5 6.5 L14.75 6.35 Q17.4 4.6 19.75 3.6 19.2 2.55 18.9 1.1 17.8 -3.7 19.4 -9.65 21.0 -15.6 24.35 -19.2 27.7 -22.8 30.9 -21.95 34.1 -21.1 35.2 -16.3 36.3 -11.5 34.75 -5.55 33.15 0.4 29.75 4.0 27.65 6.25 25.65 6.75 21.1 8.85 17.9 11.0 L17.8 11.05 Q14.05 13.45 10.35 16.45 L8.95 17.55 5.5 18.35 5.45 18.4 -0.8 19.75 M-6.45 10.75 Q-3.7 9.05 -3.7 7.6 -3.7 6.1 -6.45 5.65 -8.3 5.35 -10.65 5.7 L-13.05 6.15 Q-15.75 6.7 -17.85 7.7 -18.85 8.15 -19.7 8.65 L-19.8 8.75 Q-21.4 9.7 -22.0 10.65 -22.4 11.25 -22.4 11.85 -22.4 13.25 -19.8 13.7 L-19.7 13.75 -19.0 13.8 -13.05 13.3 -10.65 12.6 Q-8.3 11.85 -6.45 10.75" fill="#86392f" fill-rule="evenodd" stroke="none"/>
    <path d="M13.05 -27.55 L29.65 -29.2 28.5 -28.9 Q22.0 -27.25 16.0 -25.15 15.25 -26.75 11.8 -26.5 9.55 -26.4 6.9 -25.55 4.2 -24.75 1.05 -23.2 L-0.7 -22.3 Q-5.9 -19.55 -9.7 -16.05 -14.1 -12.05 -14.1 -9.35 L-14.0 -8.65 Q-17.15 -5.9 -19.8 -2.75 L-20.75 -1.6 -23.4 1.95 -24.95 4.35 -28.1 10.05 -28.4 10.65 Q-29.45 12.9 -30.3 15.5 L-30.65 16.5 -30.65 16.55 -31.9 21.3 Q-31.95 18.05 -31.6 15.85 L-31.45 14.8 -31.35 14.45 -31.15 13.3 -30.65 10.65 -30.2 8.65 Q-29.7 9.2 -29.2 9.05 -28.55 8.75 -28.15 7.2 L-27.95 5.65 -27.85 2.05 -27.9 1.15 -26.7 -1.6 -25.55 -3.7 -24.6 -5.25 -23.95 -6.1 Q-18.1 -13.85 -10.6 -18.4 L-9.8 -18.8 -9.8 -18.85 Q-3.65 -22.5 6.8 -25.8 L6.9 -25.55 6.8 -25.8 12.15 -27.45 13.05 -27.55" fill="#471e18" fill-rule="evenodd" stroke="none"/>
    <path d="M29.65 -29.2 L29.8 -29.25 30.4 -29.4 42.55 -31.8 Q44.2 -16.7 36.25 -1.15 35.9 -1.25 35.2 1.3 34.45 3.85 28.4 7.7 L17.6 14.15 17.55 14.15 Q15.85 15.85 8.95 17.55 L10.35 16.45 Q14.05 13.45 17.8 11.05 L17.9 11.0 Q21.1 8.85 25.65 6.75 27.65 6.25 29.75 4.0 33.15 0.4 34.75 -5.55 36.3 -11.5 35.2 -16.3 34.1 -21.1 30.9 -21.95 27.7 -22.8 24.35 -19.2 21.0 -15.6 19.4 -9.65 17.8 -3.7 18.9 1.1 19.2 2.55 19.75 3.6 17.4 4.6 14.75 6.35 L14.5 6.5 Q13.3 7.3 11.6 7.35 L-0.8 19.75 -7.2 21.1 -10.65 21.65 -10.85 21.7 -19.8 22.3 -21.7 22.35 -25.5 22.5 1.45 14.5 14.05 -3.3 Q17.5 -25.45 28.5 -28.9 L29.65 -29.2 M16.0 -25.15 L16.3 -24.0 Q16.45 -21.1 12.2 -16.6 L9.9 -14.4 8.8 -13.45 Q5.7 -10.95 0.85 -8.45 -4.0 -5.95 -7.9 -5.95 -11.8 -6.0 -14.0 -8.65 -9.9 -12.35 -5.0 -15.3 3.5 -20.45 13.45 -24.2 L16.0 -25.15" fill="#fad9cd" fill-rule="evenodd" stroke="none"/>
    <path d="M29.8 -29.25 L29.7 -29.3 29.65 -29.2 13.05 -27.55 13.05 -27.7 Q27.95 -31.95 42.55 -31.8 L30.4 -29.4 29.8 -29.25 M-14.0 -8.65 L-14.1 -9.35 Q-14.1 -12.05 -9.7 -16.05 -5.9 -19.55 -0.7 -22.3 L1.05 -23.2 Q4.2 -24.75 6.9 -25.55 9.55 -26.4 11.8 -26.5 15.25 -26.75 16.0 -25.15 L13.45 -24.2 Q3.5 -20.45 -5.0 -15.3 -9.9 -12.35 -14.0 -8.65" fill="#f3b49c" fill-rule="evenodd" stroke="none"/>
    <path d="M-33.15 8.9 L-33.15 9.45 -33.1 10.65 -32.0 13.5 -34.8 14.05 Q-38.45 14.65 -39.65 15.8 -50.05 26.1 -57.5 24.55 -48.2 21.9 -43.9 14.95 -42.55 12.35 -37.35 10.35 L-35.3 9.65 -33.15 8.9" fill="#efecff" fill-rule="evenodd" stroke="none"/>
    <path d="M29.7 -29.3 L29.65 -29.2 29.8 -29.25" fill="none" stroke="#6b1e01" stroke-linecap="round" stroke-linejoin="round" stroke-width="0.05"/>
    <path d="M13.05 -27.7 L12.15 -27.45 M-9.85 -18.85 L-9.8 -18.85 M-10.6 -18.4 L-9.85 -18.85 M-27.9 1.15 L-28.3 2.25" fill="none" stroke="#999999" stroke-linecap="round" stroke-linejoin="round" stroke-width="0.05"/>
    <path d="M32.75 13.9 L35.25 14.3 Q38.5 14.25 40.75 12.0 43.0 9.75 43.0 6.5 43.0 3.3 40.75 1.0 38.85 -0.9 36.25 -1.15 M20.6 21.1 L20.65 20.4 Q20.65 17.15 18.35 14.9 L17.55 14.2 17.55 14.15 M20.6 21.1 Q22.55 22.45 25.05 22.45 28.25 22.45 30.5 20.2 32.8 17.95 32.8 14.7 L32.75 13.9 Q32.5 11.2 30.5 9.2 L28.4 7.7 M5.45 18.4 L5.55 18.5 6.5 19.65 Q7.8 21.55 7.8 24.0 L7.55 26.05 Q9.75 28.15 12.9 28.15 16.1 28.15 18.35 25.85 20.4 23.85 20.6 21.1 M-7.2 21.1 Q-7.7 22.45 -7.7 24.0 -7.7 27.2 -5.45 29.45 -3.15 31.75 0.05 31.75 3.3 31.75 5.55 29.45 7.05 27.95 7.55 26.05" fill="none" stroke="#771a1a" stroke-linecap="round" stroke-linejoin="round" stroke-width="0.05"/>
    <path d="M29.8 -29.25 L29.7 -29.3 29.65 -29.2 29.8 -29.25 30.4 -29.4 42.55 -31.8 Q44.2 -16.7 36.25 -1.15 35.9 -1.25 35.2 1.3 34.45 3.85 28.4 7.7 L17.6 14.15 17.55 14.15 Q15.85 15.85 8.95 17.55 M13.05 -27.7 L13.05 -27.55 M-25.5 22.5 L-21.7 22.35 -19.8 22.3 -10.85 21.7 -10.65 21.65 -7.2 21.1 -0.8 19.75" fill="none" stroke="#898801" stroke-linecap="round" stroke-linejoin="round" stroke-width="0.05"/>
    <path d="M-0.8 19.75 L-0.85 19.75 -0.8 19.75" fill="none" stroke="#771a1a" stroke-linecap="round" stroke-linejoin="round" stroke-width="0.05"/>
    <path d="M42.55 -31.8 Q27.95 -31.95 13.05 -27.7 M13.05 -27.55 L29.65 -29.2 28.5 -28.9 Q17.5 -25.45 14.05 -3.3 L1.45 14.5 -25.5 22.5 -31.9 21.3 -30.65 16.55 -30.65 16.5 -30.3 15.5 Q-29.45 12.9 -28.4 10.65 L-28.1 10.05 -24.95 4.35 -23.4 1.95 -20.75 -1.6 -19.8 -2.75 Q-17.15 -5.9 -14.0 -8.65 L-14.1 -9.35 Q-14.1 -12.05 -9.7 -16.05 -5.9 -19.55 -0.7 -22.3 L1.05 -23.2 Q4.2 -24.75 6.9 -25.55 9.55 -26.4 11.8 -26.5 15.25 -26.75 16.0 -25.15 22.0 -27.25 28.5 -28.9 M-0.8 19.75 L11.6 7.35 Q13.3 7.3 14.5 6.5 L14.75 6.35 Q17.4 4.6 19.75 3.6 19.2 2.55 18.9 1.1 17.8 -3.7 19.4 -9.65 21.0 -15.6 24.35 -19.2 27.7 -22.8 30.9 -21.95 34.1 -21.1 35.2 -16.3 36.3 -11.5 34.75 -5.55 33.15 0.4 29.75 4.0 27.65 6.25 25.65 6.75 21.1 8.85 17.9 11.0 L17.8 11.05 Q14.05 13.45 10.35 16.45 L8.95 17.55 5.5 18.35 5.45 18.4 -0.8 19.75 M6.8 -25.8 L6.9 -25.55 6.8 -25.8 Q-3.65 -22.5 -9.8 -18.85 L-9.8 -18.8 -10.6 -18.4 Q-18.1 -13.85 -23.95 -6.1 L-24.6 -5.25 -25.55 -3.7 -26.7 -1.6 -27.9 1.15 -27.85 2.05 -27.95 5.65 -28.15 7.2 Q-28.55 8.75 -29.2 9.05 -29.7 9.2 -30.2 8.65 L-30.65 10.65 -31.15 13.3 -31.35 14.45 -31.45 14.8 -31.6 15.85 Q-31.95 18.05 -31.9 21.3 M12.15 -27.45 L13.05 -27.55 M6.8 -25.8 L12.15 -27.45 M-14.0 -8.65 Q-11.8 -6.0 -7.9 -5.95 -4.0 -5.95 0.85 -8.45 5.7 -10.95 8.8 -13.45 L9.9 -14.4 12.2 -16.6 Q16.45 -21.1 16.3 -24.0 L16.0 -25.15 13.45 -24.2 Q3.5 -20.45 -5.0 -15.3 -9.9 -12.35 -14.0 -8.65 M-6.45 10.75 Q-8.3 11.85 -10.65 12.6 L-13.05 13.3 -19.0 13.8 -19.7 13.75 -19.8 13.7 Q-22.4 13.25 -22.4 11.85 -22.4 11.25 -22.0 10.65 -21.4 9.7 -19.8 8.75 L-19.7 8.65 Q-18.85 8.15 -17.85 7.7 -15.75 6.7 -13.05 6.15 L-10.65 5.7 Q-8.3 5.35 -6.45 5.65 -3.7 6.1 -3.7 7.6 -3.7 9.05 -6.45 10.75 M-30.65 16.5 L-30.65 16.6 -30.65 16.55" fill="none" stroke="#d28582" stroke-linecap="round" stroke-linejoin="round" stroke-width="0.05"/>
    <path d="M-33.15 8.9 L-35.3 9.65 -37.35 10.35 Q-42.55 12.35 -43.9 14.95 -48.2 21.9 -57.5 24.55 -50.05 26.1 -39.65 15.8 -38.45 14.65 -34.8 14.05 L-32.0 13.5" fill="none" stroke="#d3ceff" stroke-linecap="round" stroke-linejoin="round" stroke-width="0.05"/>
    <path d="M-28.3 2.25 L-29.1 4.6 -30.0 7.8 -30.2 8.65 M-28.3 2.25 Q-29.75 2.8 -30.9 3.95 -32.95 6.0 -33.15 8.9 L-33.15 9.45 -33.1 10.65 -32.0 13.5 -31.45 14.8" fill="none" stroke="#d28582" stroke-linecap="round" stroke-linejoin="round" stroke-width="0.05"/>
    <path d="M-30.4 25.5 L-25.2 18.95 -25.15 18.95 -24.95 19.0 -21.95 19.2 Q-20.85 18.95 -19.15 19.9 -17.85 20.55 -16.2 21.9 L-22.85 26.55 -23.4 26.95 -24.45 27.8 -25.95 29.1 -27.9 30.75 Q-29.55 31.5 -31.1 31.85 L-33.9 32.1 Q-42.05 32.45 -46.75 39.5 -46.7 32.15 -33.85 28.0 L-33.55 27.95 -30.4 25.5" fill="#efecff" fill-rule="evenodd" stroke="none"/>
    <path d="M-30.4 25.5 L-25.2 18.95 -25.15 18.95 -24.95 19.0 -21.95 19.2 Q-20.85 18.95 -19.15 19.9 -17.85 20.55 -16.2 21.9 L-22.85 26.55 -23.4 26.95 -24.45 27.8 -25.95 29.1 -27.9 30.75 Q-29.55 31.5 -31.1 31.85 L-33.9 32.1 Q-42.05 32.45 -46.75 39.5 -46.7 32.15 -33.85 28.0 L-33.55 27.95 -30.4 25.5 Z" fill="none" stroke="#d3ceff" stroke-linecap="round" stroke-linejoin="round" stroke-width="0.05"/>
  </g>
</svg>
