<?xml version="1.0" encoding="UTF-8" standalone="no"?>
<svg xmlns:xlink="http://www.w3.org/1999/xlink" height="60.05px" width="84.65px" xmlns="http://www.w3.org/2000/svg">
  <g transform="matrix(1.0, 0.0, 0.0, 1.0, 40.95, 28.3)">
    <path d="M-8.9 21.7 L-8.95 21.75 -8.95 21.7 -8.9 21.7 -8.95 21.7 -8.9 21.7" fill="#ffffff" fill-rule="evenodd" stroke="none"/>
    <path d="M-18.65 -14.1 L-17.6 -14.35 -16.7 -14.5 -12.6 -14.9 -7.85 -14.35 Q-6.25 -14.05 -4.75 -13.45 L-4.85 -13.25 Q-6.2 -13.95 -7.85 -14.35 L-14.2 -14.75 -16.7 -14.5 -18.6 -13.95 -18.65 -14.1 M0.95 11.55 L0.95 11.6 0.75 11.65 0.95 11.55 0.75 11.65 0.95 11.55 M-34.8 6.95 L-34.8 6.85 -34.75 6.9 -34.8 6.95" fill="#e7df8b" fill-rule="evenodd" stroke="none"/>
    <path d="M7.5 -27.4 L9.3 -27.7 9.2 -27.4 7.5 -27.4" fill="#ced275" fill-rule="evenodd" stroke="none"/>
    <path d="M-4.75 -13.45 L-4.85 -13.25 -4.75 -13.45" fill="#e8eabf" fill-rule="evenodd" stroke="none"/>
    <path d="M-12.25 27.25 Q-15.85 30.15 -20.25 31.7 -27.3 30.85 -27.95 27.95 L-23.05 27.2 -22.5 26.55 -21.35 25.2 -21.3 25.15 -19.55 23.0 -18.0 22.8 -16.3 22.95 -16.25 23.0 -9.3 24.4 -9.3 24.45 Q-10.7 25.95 -12.25 27.25 M-34.25 17.3 L-36.35 17.9 Q-39.7 26.0 -40.95 23.0 L-40.95 15.5 -36.45 11.15 Q-35.9 14.45 -34.25 17.3" fill="#dddddd" fill-rule="evenodd" stroke="none"/>
    <path d="M33.7 -23.95 Q43.65 -18.2 43.7 -7.95 43.65 -2.95 41.35 1.65 38.8 6.6 33.6 11.2 L32.4 12.2 Q27.7 16.0 22.15 18.45 L20.55 19.15 Q15.25 21.2 9.3 22.1 L7.65 22.3 -0.9 22.55 1.7 20.3 Q6.95 15.0 8.05 8.35 6.95 15.0 1.7 20.3 L-0.9 22.55 Q-3.9 24.85 -7.4 26.1 L-12.25 27.25 Q-10.7 25.95 -9.3 24.45 L-9.3 24.4 -16.25 23.0 -16.3 22.95 -18.0 22.8 -19.55 23.0 -21.3 25.15 -21.35 25.2 -22.5 26.55 Q-26.7 25.25 -30.1 22.25 -32.7 20.0 -34.25 17.3 -35.9 14.45 -36.45 11.15 L-36.7 7.75 -36.55 5.15 -34.8 6.85 -34.8 6.95 -34.05 9.4 Q-33.2 10.85 -32.05 10.85 -31.05 10.85 -30.3 9.7 L-28.9 10.35 Q-24.3 12.35 -18.65 13.1 L-17.4 14.85 Q-15.55 16.7 -12.9 16.7 -10.25 16.7 -8.4 14.85 -7.65 14.1 -7.2 13.2 L-3.25 12.65 -3.3 13.55 Q-3.35 14.95 -2.7 16.0 -1.95 17.05 -0.95 17.05 0.0 17.05 0.65 16.0 1.35 14.95 1.4 13.55 1.35 12.45 0.95 11.6 L0.95 11.55 Q3.85 10.65 6.45 9.25 L8.05 8.35 8.3 4.95 Q8.3 -0.55 5.7 -4.8 L7.9 -4.8 Q19.6 -4.8 27.9 -8.75 36.2 -12.7 36.2 -18.3 36.2 -21.4 33.7 -23.95 M-8.95 21.7 L-8.95 21.75 -8.9 21.7 -8.95 21.7" fill="#d2d17b" fill-rule="evenodd" stroke="none"/>
    <path d="M7.5 -27.4 L9.2 -27.4 9.3 -27.7 Q23.5 -29.85 33.6 -24.0 L33.7 -23.95 Q36.2 -21.4 36.2 -18.3 36.2 -12.7 27.9 -8.75 19.6 -4.8 7.9 -4.8 L5.7 -4.8 Q4.15 -7.4 1.7 -9.55 -1.25 -12.15 -4.75 -13.45 -1.25 -12.15 1.7 -9.55 4.15 -7.4 5.7 -4.8 8.3 -0.55 8.3 4.95 L8.05 8.35 6.45 9.25 Q3.85 10.65 0.95 11.55 L0.65 11.05 Q0.0 10.0 -0.95 10.05 -1.95 10.0 -2.7 11.05 L-3.15 12.1 -3.25 12.65 -7.2 13.2 Q-6.55 11.9 -6.55 10.35 -6.55 7.7 -8.4 5.85 -10.25 4.0 -12.9 4.0 -15.55 4.0 -17.4 5.85 -19.25 7.7 -19.25 10.35 -19.25 11.85 -18.65 13.1 -24.3 12.35 -28.9 10.35 L-30.3 9.7 -30.1 9.4 -29.9 9.05 Q-29.25 7.75 -29.25 5.95 -29.25 3.9 -30.1 2.45 -30.9 1.05 -32.05 1.05 -33.2 1.05 -34.05 2.45 -34.85 3.9 -34.85 5.95 L-34.8 6.85 -36.55 5.15 Q-35.7 -2.0 -30.1 -7.6 -25.3 -12.4 -19.05 -14.0 L-18.65 -14.1 -18.6 -13.95 -16.7 -14.5 -14.2 -14.75 -7.85 -14.35 Q-6.2 -13.95 -4.85 -13.25 L-4.75 -13.45 Q-6.25 -14.05 -7.85 -14.35 L-12.6 -14.9 -16.7 -14.5 -17.6 -14.35 -16.9 -15.05 -15.0 -16.8 Q-5.6 -25.05 7.5 -27.4" fill="#efefd1" fill-rule="evenodd" stroke="none"/>
    <path d="M0.75 11.65 L0.95 11.6 Q1.35 12.45 1.4 13.55 1.35 14.95 0.65 16.0 0.0 17.05 -0.95 17.05 -1.95 17.05 -2.7 16.0 -3.35 14.95 -3.3 13.55 L-3.25 12.65 -3.15 12.1 -2.7 11.05 Q-1.95 10.0 -0.95 10.05 0.0 10.0 0.65 11.05 L0.95 11.55 0.75 11.65 M-7.2 13.2 Q-7.65 14.1 -8.4 14.85 -10.25 16.7 -12.9 16.7 -15.55 16.7 -17.4 14.85 L-18.65 13.1 Q-19.25 11.85 -19.25 10.35 -19.25 7.7 -17.4 5.85 -15.55 4.0 -12.9 4.0 -10.25 4.0 -8.4 5.85 -6.55 7.7 -6.55 10.35 -6.55 11.9 -7.2 13.2 M-30.3 9.7 Q-31.05 10.85 -32.05 10.85 -33.2 10.85 -34.05 9.4 L-34.8 6.95 -34.75 6.9 -34.8 6.85 -34.85 5.95 Q-34.85 3.9 -34.05 2.45 -33.2 1.05 -32.05 1.05 -30.9 1.05 -30.1 2.45 -29.25 3.9 -29.25 5.95 -29.25 7.75 -29.9 9.05 L-30.1 9.4 -30.3 9.7" fill="#ec0000" fill-rule="evenodd" stroke="none"/>
    <path d="M41.35 1.65 Q43.0 3.75 43.0 6.5 43.0 9.75 40.75 12.0 38.5 14.25 35.25 14.3 L32.75 13.9 32.8 14.7 Q32.8 17.95 30.5 20.2 28.25 22.45 25.05 22.45 22.55 22.45 20.6 21.1 20.4 23.85 18.35 25.85 16.1 28.15 12.9 28.15 9.75 28.15 7.55 26.05 7.05 27.95 5.55 29.45 3.3 31.75 0.05 31.75 -3.15 31.75 -5.45 29.45 -6.9 28.0 -7.4 26.1 -3.9 24.85 -0.9 22.55 L7.65 22.3 9.3 22.1 Q15.25 21.2 20.55 19.15 L22.15 18.45 Q27.7 16.0 32.4 12.2 L33.6 11.2 Q38.8 6.6 41.35 1.65 M32.75 13.9 L32.4 12.2 32.75 13.9 M20.6 21.1 L20.65 20.4 20.55 19.15 20.65 20.4 20.6 21.1 M7.55 26.05 L7.8 24.0 7.65 22.3 7.8 24.0 7.55 26.05" fill="#eecfbf" fill-rule="evenodd" stroke="none"/>
    <path d="M41.35 1.65 Q43.0 3.75 43.0 6.5 43.0 9.75 40.75 12.0 38.5 14.25 35.25 14.3 L32.75 13.9 32.8 14.7 Q32.8 17.95 30.5 20.2 28.25 22.45 25.05 22.45 22.55 22.45 20.6 21.1 20.4 23.85 18.35 25.85 16.1 28.15 12.9 28.15 9.75 28.15 7.55 26.05 7.05 27.95 5.55 29.45 3.3 31.75 0.05 31.75 -3.15 31.75 -5.45 29.45 -6.9 28.0 -7.4 26.1 M32.4 12.2 L32.75 13.9 M20.55 19.15 L20.65 20.4 20.6 21.1 M7.65 22.3 L7.8 24.0 7.55 26.05" fill="none" stroke="#898801" stroke-linecap="round" stroke-linejoin="round" stroke-width="0.05"/>
    <path d="M-8.9 21.7 L-8.95 21.7" fill="none" stroke="#666666" stroke-linecap="round" stroke-linejoin="round" stroke-width="0.05"/>
    <path d="M-12.25 27.25 Q-15.85 30.15 -20.25 31.7 -27.3 30.85 -27.95 27.95 L-23.05 27.2 -22.5 26.55 M-34.25 17.3 L-36.35 17.9 Q-39.7 26.0 -40.95 23.0 L-40.95 15.5 -36.45 11.15" fill="none" stroke="#666666" stroke-linecap="round" stroke-linejoin="round" stroke-width="0.05"/>
    <path d="M9.3 -27.7 L7.5 -27.4 M-18.65 -14.1 L-17.6 -14.35 M0.95 11.55 L0.75 11.65" fill="none" stroke="#36743e" stroke-linecap="round" stroke-linejoin="round" stroke-width="0.05"/>
    <path d="M7.5 -27.4 L9.2 -27.4 9.3 -27.7 Q23.5 -29.85 33.6 -24.0 L33.7 -23.95 Q43.65 -18.2 43.7 -7.95 43.65 -2.95 41.35 1.65 38.8 6.6 33.6 11.2 L32.4 12.2 Q27.7 16.0 22.15 18.45 L20.55 19.15 Q15.25 21.2 9.3 22.1 L7.65 22.3 -0.9 22.55 Q-3.9 24.85 -7.4 26.1 L-12.25 27.25 Q-10.7 25.95 -9.3 24.45 L-9.3 24.4 -16.25 23.0 -16.3 22.95 -18.0 22.8 -19.55 23.0 -21.3 25.15 -21.35 25.2 -22.5 26.55 Q-26.7 25.25 -30.1 22.25 -32.7 20.0 -34.25 17.3 -35.9 14.45 -36.45 11.15 L-36.7 7.75 -36.55 5.15 Q-35.7 -2.0 -30.1 -7.6 -25.3 -12.4 -19.05 -14.0 L-18.65 -14.1 -18.6 -13.95 -16.7 -14.5 -17.6 -14.35 -16.9 -15.05 -15.0 -16.8 Q-5.6 -25.05 7.5 -27.4 M5.7 -4.8 Q4.15 -7.4 1.7 -9.55 -1.25 -12.15 -4.75 -13.45 L-4.85 -13.25 M-7.85 -14.35 L-14.2 -14.75 -16.7 -14.5 -12.6 -14.9 -7.85 -14.35 Q-6.25 -14.05 -4.75 -13.45 M0.95 11.6 L0.95 11.55 M-34.8 6.95 L-34.8 6.85 M8.05 8.35 L8.3 4.95 Q8.3 -0.55 5.7 -4.8 M8.05 8.35 Q6.95 15.0 1.7 20.3 L-0.9 22.55 M-8.95 21.7 L-8.95 21.75 -8.9 21.7 -8.95 21.7" fill="none" stroke="#36743e" stroke-linecap="round" stroke-linejoin="round" stroke-width="0.05"/>
  </g>
</svg>
