<?xml version="1.0" encoding="UTF-8" standalone="no"?>
<svg xmlns:xlink="http://www.w3.org/1999/xlink" height="63.55px" width="86.05px" xmlns="http://www.w3.org/2000/svg">
  <g transform="matrix(1.0, 0.0, 0.0, 1.0, 43.05, 31.8)">
    <path d="M29.7 -29.3 L29.8 -29.25 29.65 -29.2 29.8 -29.25 29.65 -29.2 29.7 -29.3 M13.05 -27.7 L13.05 -27.55 12.15 -27.45 13.05 -27.7 M-9.8 -18.8 L-10.6 -18.4 -9.85 -18.85 -9.8 -18.8 M-30.2 8.65 L-30.65 10.65 -32.85 11.8 -33.1 10.65 -33.15 9.45 Q-33.15 6.25 -30.9 3.95 -29.75 2.8 -28.3 2.25 L-29.1 4.6 -30.2 8.65 M5.45 18.4 L5.5 18.35 5.55 18.5 5.45 18.4 M17.55 14.15 L17.6 14.15 17.55 14.2 17.55 14.15" fill="#000000" fill-rule="evenodd" stroke="none"/>
    <path d="M29.65 -29.2 L29.7 -29.3 29.65 -29.2" fill="#ffffff" fill-rule="evenodd" stroke="none"/>
    <path d="M-9.8 -18.85 L-9.8 -18.8 -9.85 -18.85 -9.8 -18.85" fill="#000066" fill-rule="evenodd" stroke="none"/>
    <path d="M29.8 -29.25 L30.4 -29.4 42.55 -31.8 Q44.2 -16.7 36.25 -1.15 35.9 -1.25 35.2 1.3 34.45 3.85 28.4 7.7 L17.6 14.15 17.55 14.15 Q15.45 16.25 5.5 18.35 L5.45 18.4 -7.2 21.1 -10.65 21.65 -10.85 21.7 -15.75 22.3 Q-16.2 19.95 -18.5 19.35 L1.45 14.5 14.05 -3.3 Q17.5 -25.45 28.5 -28.9 L29.65 -29.2 29.8 -29.25 M16.0 -25.15 L16.3 -24.0 Q16.45 -21.1 12.2 -16.6 L9.9 -14.4 8.8 -13.45 Q5.7 -10.95 0.85 -8.45 -4.0 -5.95 -7.9 -5.95 -11.8 -6.0 -14.0 -8.65 -9.9 -12.35 -5.0 -15.3 3.5 -20.45 13.45 -24.2 L16.0 -25.15" fill="#fdffd5" fill-rule="evenodd" stroke="none"/>
    <path d="M29.7 -29.3 L29.65 -29.2 13.05 -27.55 13.05 -27.7 Q27.95 -31.95 42.55 -31.8 L30.4 -29.4 29.8 -29.25 29.7 -29.3 M-14.0 -8.65 L-14.1 -9.35 Q-14.1 -12.05 -9.7 -16.05 -5.9 -19.55 -0.7 -22.3 L1.05 -23.2 Q7.35 -26.25 11.8 -26.5 15.25 -26.75 16.0 -25.15 L13.45 -24.2 Q3.5 -20.45 -5.0 -15.3 -9.9 -12.35 -14.0 -8.65" fill="#f4ffa4" fill-rule="evenodd" stroke="none"/>
    <path d="M-31.9 21.3 L-30.3 15.5 Q-29.45 12.9 -28.4 10.65 L-28.1 10.05 -24.95 4.35 -23.4 1.95 -20.75 -1.6 Q-17.7 -5.4 -14.0 -8.65 -11.8 -6.0 -7.9 -5.95 -4.0 -5.95 0.85 -8.45 5.7 -10.95 8.8 -13.45 L9.9 -14.4 12.2 -16.6 Q16.45 -21.1 16.3 -24.0 L16.0 -25.15 Q22.0 -27.25 28.5 -28.9 17.5 -25.45 14.05 -3.3 L1.45 14.5 -18.5 19.35 -19.1 19.25 -23.05 19.4 -25.5 22.5 -31.9 21.3 M-7.2 21.1 L5.45 18.4 5.55 18.5 5.5 18.35 Q15.45 16.25 17.55 14.15 L17.55 14.2 18.35 14.9 Q20.65 17.15 20.65 20.4 L20.6 21.1 20.65 20.4 Q20.65 17.15 18.35 14.9 L17.55 14.2 17.6 14.15 28.4 7.7 Q34.45 3.85 35.2 1.3 35.9 -1.25 36.25 -1.15 38.85 -0.9 40.75 1.0 43.0 3.3 43.0 6.5 43.0 9.75 40.75 12.0 38.5 14.25 35.25 14.3 L32.75 13.9 32.8 14.7 Q32.8 17.95 30.5 20.2 28.25 22.45 25.05 22.45 22.55 22.45 20.6 21.1 20.4 23.85 18.35 25.85 16.1 28.15 12.9 28.15 9.75 28.15 7.55 26.05 7.05 27.95 5.55 29.45 3.3 31.75 0.05 31.75 -3.15 31.75 -5.45 29.45 -7.7 27.2 -7.7 24.0 -7.7 22.45 -7.2 21.1 M28.4 7.7 L30.5 9.2 Q32.5 11.2 32.75 13.9 32.5 11.2 30.5 9.2 L28.4 7.7 M7.55 26.05 L7.8 24.0 Q7.8 20.75 5.55 18.5 7.8 20.75 7.8 24.0 L7.55 26.05 M-6.45 10.75 Q-3.7 9.05 -3.7 7.6 -3.7 6.1 -6.45 5.65 -8.3 5.35 -10.65 5.7 L-13.05 6.15 Q-15.75 6.7 -17.85 7.7 -18.85 8.15 -19.7 8.65 -21.35 9.7 -22.0 10.65 -22.4 11.25 -22.4 11.85 -22.4 13.3 -19.7 13.75 L-19.0 13.8 -13.05 13.3 -10.65 12.6 Q-8.3 11.85 -6.45 10.75" fill="#de6863" fill-rule="evenodd" stroke="none"/>
    <path d="M13.05 -27.55 L29.65 -29.2 28.5 -28.9 Q22.0 -27.25 16.0 -25.15 15.25 -26.75 11.8 -26.5 7.35 -26.25 1.05 -23.2 L-0.7 -22.3 Q-5.9 -19.55 -9.7 -16.05 -14.1 -12.05 -14.1 -9.35 L-14.0 -8.65 Q-17.7 -5.4 -20.75 -1.6 L-23.4 1.95 -24.95 4.35 -28.1 10.05 -28.4 10.65 Q-29.45 12.9 -30.3 15.5 L-31.9 21.3 Q-31.95 18.05 -31.6 15.85 L-31.35 14.45 -30.65 10.65 -30.2 8.65 Q-29.7 9.2 -29.2 9.05 -28.25 8.65 -27.95 5.65 L-27.85 2.05 -27.9 1.15 -26.7 -1.6 -25.55 -3.7 -23.95 -6.1 Q-18.1 -13.85 -10.6 -18.4 L-9.8 -18.8 -9.8 -18.85 Q-2.1 -23.35 12.15 -27.45 L13.05 -27.55" fill="#b72828" fill-rule="evenodd" stroke="none"/>
    <path d="M-30.65 10.65 L-31.35 14.45 -31.6 15.85 -38.8 18.0 -43.05 24.3 Q-42.55 18.4 -40.65 15.85 L-32.85 11.8 -30.65 10.65 M-18.5 19.35 Q-16.2 19.95 -15.75 22.3 L-27.0 30.45 Q-33.5 31.45 -38.15 29.1 L-29.6 27.7 -25.5 22.5 -23.05 19.4 -19.1 19.25 -18.5 19.35" fill="#c0c001" fill-rule="evenodd" stroke="none"/>
    <path d="M-27.9 1.15 L-27.85 2.05 -27.95 5.65 Q-28.25 8.65 -29.2 9.05 -29.7 9.2 -30.2 8.65 L-29.1 4.6 -28.3 2.25 -27.9 1.15 M-6.45 10.75 Q-8.3 11.85 -10.65 12.6 L-13.05 13.3 -19.0 13.8 -19.7 13.75 Q-22.4 13.3 -22.4 11.85 -22.4 11.25 -22.0 10.65 -21.35 9.7 -19.7 8.65 -18.85 8.15 -17.85 7.7 -15.75 6.7 -13.05 6.15 L-10.65 5.7 Q-8.3 5.35 -6.45 5.65 -3.7 6.1 -3.7 7.6 -3.7 9.05 -6.45 10.75" fill="#ffff00" fill-rule="evenodd" stroke="none"/>
    <path d="M29.65 -29.2 L29.7 -29.3 M29.8 -29.25 L29.65 -29.2" fill="none" stroke="#6b1e01" stroke-linecap="round" stroke-linejoin="round" stroke-width="0.05"/>
    <path d="M12.15 -27.45 L13.05 -27.7 M-9.85 -18.85 L-9.8 -18.85 M-10.6 -18.4 L-9.85 -18.85 M-28.3 2.25 L-29.1 4.6 -30.2 8.65 M-27.9 1.15 L-28.3 2.25 Q-29.75 2.8 -30.9 3.95 -33.15 6.25 -33.15 9.45 L-33.1 10.65 -32.85 11.8" fill="none" stroke="#999999" stroke-linecap="round" stroke-linejoin="round" stroke-width="0.05"/>
    <path d="M13.05 -27.55 L29.65 -29.2 28.5 -28.9 Q17.5 -25.45 14.05 -3.3 L1.45 14.5 -18.5 19.35 M13.05 -27.55 L12.15 -27.45 Q-2.1 -23.35 -9.8 -18.85 L-9.8 -18.8 -10.6 -18.4 Q-18.1 -13.85 -23.95 -6.1 L-25.55 -3.7 -26.7 -1.6 -27.9 1.15 -27.85 2.05 -27.95 5.65 Q-28.25 8.65 -29.2 9.05 -29.7 9.2 -30.2 8.65 L-30.65 10.65 -31.35 14.45 -31.6 15.85 Q-31.95 18.05 -31.9 21.3 L-30.3 15.5 Q-29.45 12.9 -28.4 10.65 L-28.1 10.05 -24.95 4.35 -23.4 1.95 -20.75 -1.6 Q-17.7 -5.4 -14.0 -8.65 L-14.1 -9.35 Q-14.1 -12.05 -9.7 -16.05 -5.9 -19.55 -0.7 -22.3 L1.05 -23.2 Q7.35 -26.25 11.8 -26.5 15.25 -26.75 16.0 -25.15 22.0 -27.25 28.5 -28.9 M16.0 -25.15 L16.3 -24.0 Q16.45 -21.1 12.2 -16.6 L9.9 -14.4 8.8 -13.45 Q5.7 -10.95 0.85 -8.45 -4.0 -5.95 -7.9 -5.95 -11.8 -6.0 -14.0 -8.65 M36.25 -1.15 Q38.85 -0.9 40.75 1.0 43.0 3.3 43.0 6.5 43.0 9.75 40.75 12.0 38.5 14.25 35.25 14.3 L32.75 13.9 32.8 14.7 Q32.8 17.95 30.5 20.2 28.25 22.45 25.05 22.45 22.55 22.45 20.6 21.1 20.4 23.85 18.35 25.85 16.1 28.15 12.9 28.15 9.75 28.15 7.55 26.05 7.05 27.95 5.55 29.45 3.3 31.75 0.05 31.75 -3.15 31.75 -5.45 29.45 -7.7 27.2 -7.7 24.0 -7.7 22.45 -7.2 21.1 M20.6 21.1 L20.65 20.4 Q20.65 17.15 18.35 14.9 L17.55 14.2 17.55 14.15 M32.75 13.9 Q32.5 11.2 30.5 9.2 L28.4 7.7 M5.55 18.5 Q7.8 20.75 7.8 24.0 L7.55 26.05 M5.55 18.5 L5.45 18.4 M-6.45 10.75 Q-8.3 11.85 -10.65 12.6 L-13.05 13.3 -19.0 13.8 -19.7 13.75 Q-22.4 13.3 -22.4 11.85 -22.4 11.25 -22.0 10.65 -21.35 9.7 -19.7 8.65 -18.85 8.15 -17.85 7.7 -15.75 6.7 -13.05 6.15 L-10.65 5.7 Q-8.3 5.35 -6.45 5.65 -3.7 6.1 -3.7 7.6 -3.7 9.05 -6.45 10.75 M-31.9 21.3 L-25.5 22.5" fill="none" stroke="#771a1a" stroke-linecap="round" stroke-linejoin="round" stroke-width="0.05"/>
    <path d="M29.65 -29.2 L29.7 -29.3 29.8 -29.25 30.4 -29.4 42.55 -31.8 Q27.95 -31.95 13.05 -27.7 L13.05 -27.55 M29.65 -29.2 L29.8 -29.25 M-18.5 19.35 Q-16.2 19.95 -15.75 22.3 L-10.85 21.7 -10.65 21.65 -7.2 21.1 5.45 18.4 5.5 18.35 Q15.45 16.25 17.55 14.15 L17.6 14.15 28.4 7.7 Q34.45 3.85 35.2 1.3 35.9 -1.25 36.25 -1.15 44.2 -16.7 42.55 -31.8 M-14.0 -8.65 Q-9.9 -12.35 -5.0 -15.3 3.5 -20.45 13.45 -24.2 L16.0 -25.15 M-25.5 22.5 L-23.05 19.4 -19.1 19.25 -18.5 19.35 M-32.85 11.8 L-30.65 10.65 M-32.85 11.8 L-40.65 15.85 Q-42.55 18.4 -43.05 24.3 L-38.8 18.0 -31.6 15.85 M-25.5 22.5 L-29.6 27.7 -38.15 29.1 Q-33.5 31.45 -27.0 30.45 L-15.75 22.3" fill="none" stroke="#898801" stroke-linecap="round" stroke-linejoin="round" stroke-width="0.05"/>
    <path d="M21.5 2.95 Q23.6 2.25 24.6 2.45 L25.2 2.9 Q25.9 3.8 23.7 6.2 21.5 8.6 17.9 11.0 L17.8 11.0 Q14.05 13.45 11.0 14.45 L8.0 14.95 6.15 14.45 11.6 7.3 Q13.3 7.3 14.55 6.5 L14.75 6.4 Q18.4 3.9 21.5 2.95" fill="#de6863" fill-rule="evenodd" stroke="none"/>
    <path d="M21.5 2.95 Q18.4 3.9 14.75 6.4 L14.55 6.5 Q13.3 7.3 11.6 7.3 L6.15 14.45 8.0 14.95 11.0 14.45 Q14.05 13.45 17.8 11.0 L17.9 11.0 Q21.5 8.6 23.7 6.2 25.9 3.8 25.2 2.9 L24.6 2.45 Q23.6 2.25 21.5 2.95 Z" fill="none" stroke="#771a1a" stroke-linecap="round" stroke-linejoin="round" stroke-width="0.05"/>
  </g>
</svg>
