<?xml version="1.0" encoding="UTF-8" standalone="no"?>
<svg xmlns:xlink="http://www.w3.org/1999/xlink" height="58.65px" width="92.15px" xmlns="http://www.w3.org/2000/svg">
  <g transform="matrix(1.0, 0.0, 0.0, 1.0, 49.15, 26.65)">
    <path d="M-17.4 23.5 L-27.0 30.45 -44.9 32.0 -29.6 27.7 -25.3 22.25 -23.05 19.4 -19.1 19.25 -18.5 19.35 Q-16.2 19.95 -15.75 22.3 L-17.4 23.5 M-33.85 16.55 L-38.8 18.0 -49.15 29.15 -42.6 15.85 -33.8 12.2 Q-34.3 14.65 -33.85 16.55" fill="#ffffff" fill-rule="evenodd" stroke="none"/>
    <path d="M-12.5 -17.6 Q-12.45 -20.0 -8.35 -20.15 L-7.2 -20.75 Q-2.95 -22.9 2.3 -24.15 L9.45 -25.55 9.95 -25.6 Q12.1 -27.4 15.7 -26.1 L17.05 -25.6 Q17.4 -24.85 11.8 -24.95 L11.65 -25.0 5.5 -24.2 Q0.6 -23.25 -2.6 -21.7 -4.5 -20.75 -5.1 -19.9 L-5.4 -19.4 Q-6.4 -16.6 -10.7 -16.35 L-12.5 -17.6 M11.65 -25.0 L11.55 -25.05 11.65 -25.0 M17.8 -22.55 L18.35 -22.85 Q21.0 -24.05 23.6 -21.3 L27.25 -16.3 29.0 -13.5 Q31.75 -8.95 31.65 -6.8 26.4 4.55 24.5 5.15 6.5 9.9 3.95 1.05 1.8 -4.35 -0.75 -8.15 L-3.55 -11.6 Q-5.0 -15.2 -2.15 -17.5 L-2.0 -17.4 -1.45 -17.35 Q2.2 -17.15 7.1 -18.1 11.95 -19.1 15.15 -20.7 17.15 -21.65 17.8 -22.55 M6.9 -3.05 Q9.1 6.5 21.85 2.0 L28.15 -8.9 22.95 -16.3 20.4 -19.9 18.35 -18.85 Q8.05 -13.8 0.7 -14.8 3.05 -12.5 5.0 -8.15 L6.9 -3.05 M-20.2 13.35 Q-16.6 9.1 -6.85 10.0 -11.05 14.25 -15.9 14.75 L-20.2 13.35" fill="#ffff99" fill-rule="evenodd" stroke="none"/>
    <path d="M15.7 -26.1 L17.85 -26.15 18.35 -26.15 19.55 -26.15 Q38.3 -23.8 41.1 -2.7 40.95 -0.75 40.05 0.4 L39.0 1.3 29.7 8.5 Q24.15 12.35 18.7 15.25 12.75 18.35 6.95 20.35 -0.45 22.8 -7.65 23.45 L-8.85 23.55 Q-13.15 23.8 -17.4 23.5 L-15.75 22.3 Q-16.2 19.95 -18.5 19.35 L-19.1 19.25 -23.05 19.4 -25.3 22.25 -28.1 21.55 Q-32.95 20.3 -33.85 16.55 -34.3 14.65 -33.8 12.2 L-33.45 10.85 Q-30.95 2.2 -28.35 -1.8 -25.75 -5.85 -24.05 -7.75 L-23.9 -7.95 -19.55 -12.15 -12.5 -17.6 -10.7 -16.35 Q-6.4 -16.6 -5.4 -19.4 L-5.1 -19.9 Q-4.5 -20.75 -2.6 -21.7 0.6 -23.25 5.5 -24.2 L11.65 -25.0 11.8 -24.95 Q17.4 -24.85 17.05 -25.6 L15.7 -26.1 M17.8 -22.55 Q17.15 -21.65 15.15 -20.7 11.95 -19.1 7.1 -18.1 2.2 -17.15 -1.45 -17.35 L-2.0 -17.4 -2.15 -17.5 Q-5.0 -15.2 -3.55 -11.6 L-0.75 -8.15 Q1.8 -4.35 3.95 1.05 6.5 9.9 24.5 5.15 26.4 4.55 31.65 -6.8 31.75 -8.95 29.0 -13.5 L27.25 -16.3 23.6 -21.3 Q21.0 -24.05 18.35 -22.85 L17.8 -22.55 17.75 -22.55 17.8 -22.55 M-20.2 13.35 L-15.9 14.75 Q-11.05 14.25 -6.85 10.0 -16.6 9.1 -20.2 13.35" fill="#9c75ae" fill-rule="evenodd" stroke="none"/>
    <path d="M17.8 -22.55 L17.75 -22.55 17.8 -22.55" fill="#ffff66" fill-rule="evenodd" stroke="none"/>
    <path d="M6.9 -3.05 L5.0 -8.15 Q3.05 -12.5 0.7 -14.8 8.05 -13.8 18.35 -18.85 L20.4 -19.9 22.95 -16.3 28.15 -8.9 21.85 2.0 Q9.1 6.5 6.9 -3.05" fill="#714f86" fill-rule="evenodd" stroke="none"/>
    <path d="M40.05 0.4 L40.75 1.0 Q43.0 3.3 43.0 6.5 43.0 9.75 40.75 12.0 38.5 14.25 35.25 14.3 L32.75 13.9 32.8 14.7 Q32.8 17.95 30.5 20.2 28.25 22.45 25.05 22.45 22.55 22.45 20.6 21.1 20.4 23.85 18.35 25.85 16.1 28.15 12.9 28.15 9.75 28.15 7.55 26.05 7.05 27.95 5.55 29.45 3.3 31.75 0.05 31.75 -3.15 31.75 -5.45 29.45 -7.7 27.2 -7.7 24.0 L-7.65 23.45 Q-0.45 22.8 6.95 20.35 12.75 18.35 18.7 15.25 20.65 17.4 20.65 20.4 L20.6 21.1 20.65 20.4 Q20.65 17.4 18.7 15.25 24.15 12.35 29.7 8.5 L39.0 1.3 40.05 0.4 M32.75 13.9 Q32.5 11.2 30.5 9.2 L29.7 8.5 30.5 9.2 Q32.5 11.2 32.75 13.9 M7.55 26.05 L7.8 24.0 Q7.8 21.95 6.95 20.35 7.8 21.95 7.8 24.0 L7.55 26.05" fill="#6c4f86" fill-rule="evenodd" stroke="none"/>
    <path d="M11.65 -25.0 L11.55 -25.05 11.65 -25.0" fill="#533143" fill-rule="evenodd" stroke="none"/>
    <path d="M-12.5 -17.6 Q-12.45 -20.0 -8.35 -20.15 L-7.2 -20.75 Q-2.95 -22.9 2.3 -24.15 L9.45 -25.55 9.95 -25.6 Q12.1 -27.4 15.7 -26.1 L17.85 -26.15 18.35 -26.15 19.55 -26.15 Q38.3 -23.8 41.1 -2.7 40.95 -0.75 40.05 0.4 L39.0 1.3 29.7 8.5 Q24.15 12.35 18.7 15.25 12.75 18.35 6.95 20.35 -0.45 22.8 -7.65 23.45 L-8.85 23.55 Q-13.15 23.8 -17.4 23.5 M-25.3 22.25 L-28.1 21.55 Q-32.95 20.3 -33.85 16.55 M-33.8 12.2 L-33.45 10.85 Q-30.95 2.2 -28.35 -1.8 -25.75 -5.85 -24.05 -7.75 L-23.9 -7.95 -19.55 -12.15 -12.5 -17.6 -10.7 -16.35 Q-6.4 -16.6 -5.4 -19.4 L-5.1 -19.9 Q-4.5 -20.75 -2.6 -21.7 0.6 -23.25 5.5 -24.2 L11.65 -25.0 11.55 -25.05 11.65 -25.0 11.8 -24.95 Q17.4 -24.85 17.05 -25.6 L15.7 -26.1 M17.8 -22.55 Q17.15 -21.65 15.15 -20.7 11.95 -19.1 7.1 -18.1 2.2 -17.15 -1.45 -17.35 L-2.0 -17.4 -2.15 -17.5 Q-5.0 -15.2 -3.55 -11.6 L-0.75 -8.15 Q1.8 -4.35 3.95 1.05 6.5 9.9 24.5 5.15 26.4 4.55 31.65 -6.8 31.75 -8.95 29.0 -13.5 L27.25 -16.3 23.6 -21.3 Q21.0 -24.05 18.35 -22.85 L17.8 -22.55 M-20.2 13.35 Q-16.6 9.1 -6.85 10.0 -11.05 14.25 -15.9 14.75 L-20.2 13.35" fill="none" stroke="#4d355b" stroke-linecap="round" stroke-linejoin="round" stroke-width="0.05"/>
    <path d="M17.8 -22.55 L17.75 -22.55 17.8 -22.55" fill="none" stroke="#d3ceff" stroke-linecap="round" stroke-linejoin="round" stroke-width="0.05"/>
    <path d="M40.05 0.4 L40.75 1.0 Q43.0 3.3 43.0 6.5 43.0 9.75 40.75 12.0 38.5 14.25 35.25 14.3 L32.75 13.9 32.8 14.7 Q32.8 17.95 30.5 20.2 28.25 22.45 25.05 22.45 22.55 22.45 20.6 21.1 20.4 23.85 18.35 25.85 16.1 28.15 12.9 28.15 9.75 28.15 7.55 26.05 7.05 27.95 5.55 29.45 3.3 31.75 0.05 31.75 -3.15 31.75 -5.45 29.45 -7.7 27.2 -7.7 24.0 L-7.65 23.45 M29.7 8.5 L30.5 9.2 Q32.5 11.2 32.75 13.9 M18.7 15.25 Q20.65 17.4 20.65 20.4 L20.6 21.1 M6.95 20.35 Q7.8 21.95 7.8 24.0 L7.55 26.05" fill="none" stroke="#4d355b" stroke-linecap="round" stroke-linejoin="round" stroke-width="0.05"/>
    <path d="M-17.4 23.5 L-27.0 30.45 -44.9 32.0 -29.6 27.7 -25.3 22.25 -23.05 19.4 -19.1 19.25 -18.5 19.35 Q-16.2 19.95 -15.75 22.3 L-17.4 23.5 M-33.85 16.55 L-38.8 18.0 -49.15 29.15 -42.6 15.85 -33.8 12.2 Q-34.3 14.65 -33.85 16.55" fill="none" stroke="#666666" stroke-linecap="round" stroke-linejoin="round" stroke-width="0.05"/>
    <path d="M-28.15 -3.6 L-28.2 -3.55 -30.45 6.95 -30.95 9.15 -21.95 6.15 -28.15 -3.6" fill="#52cbb8" fill-rule="evenodd" stroke="none"/>
    <path d="M-28.15 -3.8 L-28.15 -3.6 -11.1 -13.2 -11.05 -13.2 -28.6 -5.95 -28.15 -3.8" fill="#48c8aa" fill-rule="evenodd" stroke="none"/>
    <path d="M-28.2 -3.55 L-28.15 -3.8 -28.6 -5.95 -30.55 6.9 -30.45 6.95 -28.2 -3.55" fill="#35b095" fill-rule="evenodd" stroke="none"/>
    <path d="M-28.15 -3.6 L-21.95 6.15 -10.8 -13.4 -11.1 -13.2 -28.15 -3.6" fill="#80d9cb" fill-rule="evenodd" stroke="none"/>
    <path d="M-28.2 -3.55 L-28.15 -3.8 -28.15 -3.6 -21.95 6.15 -30.95 9.15 -30.45 6.95 -28.2 -3.55 M-28.6 -5.95 L-28.15 -3.8 M-21.95 6.15 L-10.8 -13.4 -11.1 -13.2 -11.05 -13.2 -28.6 -5.95 -30.55 6.9 M-11.1 -13.2 L-28.15 -3.6" fill="none" stroke="#27836d" stroke-linecap="round" stroke-linejoin="round" stroke-width="0.05"/>
  </g>
</svg>
