<?xml version="1.0" encoding="UTF-8" standalone="no"?>
<svg xmlns:xlink="http://www.w3.org/1999/xlink" height="63.8px" width="92.15px" xmlns="http://www.w3.org/2000/svg">
  <g transform="matrix(1.0, 0.0, 0.0, 1.0, 49.15, 31.8)">
    <path d="M29.8 -29.25 L29.65 -29.2 29.8 -29.25 29.65 -29.2 29.7 -29.3 29.8 -29.25 M17.55 14.2 L17.55 14.15 17.6 14.15 17.55 14.2 M5.5 18.35 L5.55 18.5 5.45 18.4 5.5 18.35 M-30.2 8.65 L-30.65 10.65 -32.85 11.8 -33.1 10.65 -33.15 9.45 Q-33.15 6.25 -30.9 3.95 L-30.65 3.7 -28.3 2.25 -28.8 3.7 -29.1 4.6 -30.2 8.65" fill="#000000" fill-rule="evenodd" stroke="none"/>
    <path d="M-27.9 1.15 L-27.85 2.05 -27.8 3.7 -27.95 5.65 Q-28.25 8.65 -29.2 9.05 -29.7 9.2 -30.2 8.65 L-29.1 4.6 -28.8 3.7 -28.3 2.25 -27.9 1.15 M-6.45 10.75 Q-8.3 11.85 -10.65 12.6 L-13.05 13.3 -19.0 13.8 -19.7 13.75 Q-22.4 13.3 -22.4 11.85 -22.4 11.25 -22.0 10.65 -21.35 9.7 -19.7 8.65 -18.85 8.15 -17.85 7.7 -15.75 6.7 -13.05 6.15 L-10.65 5.7 Q-8.3 5.35 -6.45 5.65 -3.7 6.1 -3.7 7.6 -3.7 9.05 -6.45 10.75" fill="#ff0000" fill-rule="evenodd" stroke="none"/>
    <path d="M16.05 -28.55 L16.0 -28.5 14.15 -28.0 13.05 -27.7 14.15 -28.05 16.05 -28.55" fill="#ffffff" fill-rule="evenodd" stroke="none"/>
    <path d="M16.0 -28.5 Q19.15 -28.25 23.65 -29.2 L2.5 -23.2 Q-0.55 -22.0 -1.35 -21.35 L-1.45 -21.35 -1.7 -21.35 -4.7 -20.95 Q-6.9 -20.4 -9.15 -19.25 -1.55 -23.5 12.0 -27.4 L14.15 -28.0 16.0 -28.5 M2.35 -13.95 L2.45 -13.95 2.35 -13.95 2.4 -14.0 2.45 -13.95 10.2 -17.65 29.65 -27.5 Q25.9 -23.15 26.9 -18.8 L7.4 -5.05 Q7.1 -0.75 7.75 3.7 L8.1 6.05 1.45 14.5 -18.5 19.35 -19.1 19.25 -23.05 19.4 -25.5 22.5 -31.9 21.3 -30.3 15.5 Q-29.45 12.9 -28.4 10.65 L-28.1 10.05 -24.95 4.35 -24.55 3.7 -23.4 1.95 -22.6 0.85 -23.4 1.95 -24.55 3.7 -24.95 4.35 -28.1 10.05 -28.4 10.65 Q-29.45 12.9 -30.3 15.5 L-31.9 21.3 Q-31.95 18.05 -31.6 15.85 L-31.35 14.45 -30.65 10.65 -30.2 8.65 Q-29.7 9.2 -29.2 9.05 -28.25 8.65 -27.95 5.65 L-27.8 3.7 -27.85 2.05 -27.9 1.15 -26.7 -1.6 -25.55 -3.7 -23.95 -6.1 Q-20.25 -11.05 -15.85 -14.65 -18.65 -12.25 -20.45 -9.65 L-21.5 -7.95 -21.6 -8.05 -22.35 -6.8 Q-23.6 -4.6 -23.85 -2.9 -24.1 -1.4 -23.5 -0.3 L-23.2 0.2 -22.6 0.85 Q-20.75 2.4 -16.5 1.3 -11.45 0.05 -6.1 -4.1 -0.8 -8.25 1.8 -12.85 L2.35 -13.95 M10.2 -17.65 Q7.8 -11.55 7.4 -5.05 7.8 -11.55 10.2 -17.65 M-20.45 -9.65 L-21.6 -8.05 -20.45 -9.65 M-6.45 10.75 Q-3.7 9.05 -3.7 7.6 -3.7 6.1 -6.45 5.65 -8.3 5.35 -10.65 5.7 L-13.05 6.15 Q-15.75 6.7 -17.85 7.7 -18.85 8.15 -19.7 8.65 -21.35 9.7 -22.0 10.65 -22.4 11.25 -22.4 11.85 -22.4 13.3 -19.7 13.75 L-19.0 13.8 -13.05 13.3 -10.65 12.6 Q-8.3 11.85 -6.45 10.75" fill="#3a5c94" fill-rule="evenodd" stroke="none"/>
    <path d="M29.65 -29.2 L29.8 -29.25 29.7 -29.3 29.65 -29.2 Q21.1 -27.1 13.45 -24.2 L12.0 -23.65 Q7.2 -21.8 2.8 -19.6 7.2 -21.8 12.0 -23.65 L13.45 -24.2 Q21.1 -27.1 29.65 -29.2 M42.55 -31.8 L30.4 -29.4 29.8 -29.25 30.4 -29.4 42.55 -31.8 Q44.2 -16.7 36.25 -1.15 38.85 -0.9 40.75 1.0 43.0 3.3 43.0 6.5 43.0 9.75 40.75 12.0 38.5 14.25 35.25 14.3 L32.75 13.9 32.8 14.7 Q32.8 17.95 30.5 20.2 28.25 22.45 25.05 22.45 22.55 22.45 20.6 21.1 20.4 23.85 18.35 25.85 16.1 28.15 12.9 28.15 9.75 28.15 7.55 26.05 7.05 27.95 5.55 29.45 3.3 31.75 0.05 31.75 -3.15 31.75 -5.45 29.45 -7.7 27.2 -7.7 24.0 -7.7 22.45 -7.2 21.1 L-10.65 21.65 -10.85 21.7 -15.75 22.3 Q-16.2 19.95 -18.5 19.35 L1.45 14.5 8.1 6.05 7.75 3.7 Q7.1 -0.75 7.4 -5.05 L26.9 -18.8 Q25.9 -23.15 29.65 -27.5 L10.2 -17.65 2.45 -13.95 2.4 -14.0 Q4.05 -17.55 2.8 -19.6 L2.7 -19.7 2.65 -19.8 1.55 -20.8 Q0.4 -21.45 -1.35 -21.35 -0.55 -22.0 2.5 -23.2 L23.65 -29.2 Q19.15 -28.25 16.0 -28.5 L16.05 -28.55 Q29.4 -31.95 42.55 -31.8 M-9.15 -19.25 Q-6.9 -20.4 -4.7 -20.95 L-1.7 -21.35 -1.45 -21.35 -1.4 -21.35 Q0.55 -21.2 1.5 -19.9 L1.9 -19.15 Q2.7 -17.05 0.7 -13.5 L0.4 -13.0 Q-1.95 -9.05 -6.6 -5.45 -11.5 -1.7 -16.1 -0.5 L-21.45 -0.7 -22.3 -1.5 Q-23.9 -3.7 -21.5 -7.95 L-20.45 -9.65 Q-18.65 -12.25 -15.85 -14.65 L-15.05 -15.3 -14.25 -15.95 -9.15 -19.25 M17.55 14.2 L18.35 14.9 Q20.65 17.15 20.65 20.4 L20.6 21.1 20.65 20.4 Q20.65 17.15 18.35 14.9 L17.55 14.2 17.6 14.15 17.55 14.15 17.55 14.2 M5.5 18.35 Q8.95 13.85 13.3 13.55 15.3 13.4 17.55 14.15 15.3 13.4 13.3 13.55 8.95 13.85 5.5 18.35 L5.45 18.4 5.0 18.2 5.45 18.4 5.55 18.5 5.5 18.35 M32.75 13.9 Q32.5 11.2 30.5 9.2 L28.4 7.7 Q19.8 6.25 17.6 14.15 19.8 6.25 28.4 7.7 28.5 1.25 32.0 0.1 L36.25 -1.15 32.0 0.1 Q28.5 1.25 28.4 7.7 L30.5 9.2 Q32.5 11.2 32.75 13.9 M7.55 26.05 L7.8 24.0 Q7.8 20.75 5.55 18.5 7.8 20.75 7.8 24.0 L7.55 26.05 M1.45 14.5 Q3.9 15.45 5.0 18.2 -1.85 15.0 -7.2 21.1 -1.85 15.0 5.0 18.2 3.9 15.45 1.45 14.5 M13.3 13.55 Q11.8 9.0 8.1 6.05 11.8 9.0 13.3 13.55" fill="#faedfe" fill-rule="evenodd" stroke="none"/>
    <path d="M-1.35 -21.35 Q0.4 -21.45 1.55 -20.8 L2.65 -19.8 2.7 -19.7 2.8 -19.6 Q4.05 -17.55 2.4 -14.0 L2.35 -13.95 1.8 -12.85 Q-0.8 -8.25 -6.1 -4.1 -11.45 0.05 -16.5 1.3 -20.75 2.4 -22.6 0.85 L-23.2 0.2 -23.5 -0.3 Q-24.1 -1.4 -23.85 -2.9 -23.6 -4.6 -22.35 -6.8 L-21.6 -8.05 -21.5 -7.95 Q-23.9 -3.7 -22.3 -1.5 L-21.45 -0.7 -16.1 -0.5 Q-11.5 -1.7 -6.6 -5.45 -1.95 -9.05 0.4 -13.0 L0.7 -13.5 Q2.7 -17.05 1.9 -19.15 L1.5 -19.9 Q0.55 -21.2 -1.4 -21.35 L-1.45 -21.35 -1.35 -21.35" fill="#e6bafa" fill-rule="evenodd" stroke="none"/>
    <path d="M-25.5 22.5 L-23.05 19.4 -19.1 19.25 -18.5 19.35 Q-16.2 19.95 -15.75 22.3 L-27.0 30.45 -44.9 32.0 -29.6 27.7 -25.5 22.5 M-30.65 10.65 L-31.35 14.45 -31.6 15.85 -38.8 18.0 -49.15 29.15 -42.6 15.85 -32.85 11.8 -30.65 10.65" fill="#999999" fill-rule="evenodd" stroke="none"/>
    <path d="M29.65 -29.2 L29.8 -29.25 30.4 -29.4 42.55 -31.8 Q44.2 -16.7 36.25 -1.15 38.85 -0.9 40.75 1.0 43.0 3.3 43.0 6.5 43.0 9.75 40.75 12.0 38.5 14.25 35.25 14.3 L32.75 13.9 32.8 14.7 Q32.8 17.95 30.5 20.2 28.25 22.45 25.05 22.45 22.55 22.45 20.6 21.1 20.4 23.85 18.35 25.85 16.1 28.15 12.9 28.15 9.75 28.15 7.55 26.05 7.05 27.95 5.55 29.45 3.3 31.75 0.05 31.75 -3.15 31.75 -5.45 29.45 -7.7 27.2 -7.7 24.0 -7.7 22.45 -7.2 21.1 L-10.65 21.65 -10.85 21.7 -15.75 22.3 M2.8 -19.6 Q7.2 -21.8 12.0 -23.65 L13.45 -24.2 Q21.1 -27.1 29.65 -29.2 M2.45 -13.95 L2.4 -14.0 Q4.05 -17.55 2.8 -19.6 M20.6 21.1 L20.65 20.4 Q20.65 17.15 18.35 14.9 L17.55 14.2 17.55 14.15 Q15.3 13.4 13.3 13.55 8.95 13.85 5.5 18.35 L5.45 18.4 5.0 18.2 Q3.9 15.45 1.45 14.5 M5.55 18.5 Q7.8 20.75 7.8 24.0 L7.55 26.05 M17.6 14.15 Q19.8 6.25 28.4 7.7 28.5 1.25 32.0 0.1 L36.25 -1.15 M28.4 7.7 L30.5 9.2 Q32.5 11.2 32.75 13.9 M-7.2 21.1 Q-1.85 15.0 5.0 18.2 M5.55 18.5 L5.45 18.4 M17.6 14.15 L17.55 14.15 M8.1 6.05 Q11.8 9.0 13.3 13.55 M-28.3 2.25 L-28.8 3.7 -29.1 4.6 -30.2 8.65 M-28.3 2.25 L-27.9 1.15 M-32.85 11.8 L-33.1 10.65 -33.15 9.45 Q-33.15 6.25 -30.9 3.95 L-30.65 3.7 -28.3 2.25" fill="none" stroke="#999999" stroke-linecap="round" stroke-linejoin="round" stroke-width="0.05"/>
    <path d="M29.8 -29.25 L29.65 -29.2 29.7 -29.3" fill="none" stroke="#6b1e01" stroke-linecap="round" stroke-linejoin="round" stroke-width="0.05"/>
    <path d="M-1.35 -21.35 Q0.4 -21.45 1.55 -20.8 M-1.45 -21.35 L-1.35 -21.35 M-15.85 -14.65 Q-20.25 -11.05 -23.95 -6.1 L-25.55 -3.7 -26.7 -1.6 -27.9 1.15 -27.85 2.05 -27.8 3.7 -27.95 5.65 Q-28.25 8.65 -29.2 9.05 -29.7 9.2 -30.2 8.65 L-30.65 10.65 M-31.6 15.85 Q-31.95 18.05 -31.9 21.3 M-15.85 -14.65 L-15.05 -15.3" fill="none" stroke="#5a56b4" stroke-linecap="round" stroke-linejoin="round" stroke-width="0.05"/>
    <path d="M42.55 -31.8 Q29.4 -31.95 16.05 -28.55 L14.15 -28.05 13.05 -27.7 14.15 -28.0 12.0 -27.4 Q-1.55 -23.5 -9.15 -19.25 -6.9 -20.4 -4.7 -20.95 M16.0 -28.5 Q19.15 -28.25 23.65 -29.2 L2.5 -23.2 Q-0.55 -22.0 -1.35 -21.35 M16.0 -28.5 L14.15 -28.0 M2.45 -13.95 L2.35 -13.95 1.8 -12.85 Q-0.8 -8.25 -6.1 -4.1 -11.45 0.05 -16.5 1.3 -20.75 2.4 -22.6 0.85 L-23.4 1.95 -24.55 3.7 -24.95 4.35 -28.1 10.05 -28.4 10.65 Q-29.45 12.9 -30.3 15.5 L-31.9 21.3 -25.5 22.5 M-18.5 19.35 L1.45 14.5 8.1 6.05 7.75 3.7 Q7.1 -0.75 7.4 -5.05 7.8 -11.55 10.2 -17.65 L2.45 -13.95 M2.4 -14.0 L2.35 -13.95 M10.2 -17.65 L29.65 -27.5 Q25.9 -23.15 26.9 -18.8 L7.4 -5.05 M-23.5 -0.3 L-23.2 0.2 -22.6 0.85 M-6.45 10.75 Q-8.3 11.85 -10.65 12.6 L-13.05 13.3 -19.0 13.8 -19.7 13.75 Q-22.4 13.3 -22.4 11.85 -22.4 11.25 -22.0 10.65 -21.35 9.7 -19.7 8.65 -18.85 8.15 -17.85 7.7 -15.75 6.7 -13.05 6.15 L-10.65 5.7 Q-8.3 5.35 -6.45 5.65 -3.7 6.1 -3.7 7.6 -3.7 9.05 -6.45 10.75" fill="none" stroke="#274363" stroke-linecap="round" stroke-linejoin="round" stroke-width="0.05"/>
    <path d="M2.7 -19.7 L2.8 -19.6 M-4.7 -20.95 L-1.7 -21.35 M-15.75 22.3 L-27.0 30.45 -44.9 32.0 -29.6 27.7 -25.5 22.5 M-21.6 -8.05 L-22.35 -6.8 Q-23.6 -4.6 -23.85 -2.9 -24.1 -1.4 -23.5 -0.3 M-21.6 -8.05 L-20.45 -9.65 Q-18.65 -12.25 -15.85 -14.65 M-30.65 10.65 L-31.35 14.45 -31.6 15.85 -38.8 18.0 -49.15 29.15 -42.6 15.85 -32.85 11.8 -30.65 10.65 M-15.05 -15.3 L-14.25 -15.95 -9.15 -19.25" fill="none" stroke="#666666" stroke-linecap="round" stroke-linejoin="round" stroke-width="0.05"/>
    <path d="M1.55 -20.8 L2.65 -19.8 2.7 -19.7 M-18.5 19.35 Q-16.2 19.95 -15.75 22.3" fill="none" stroke="#999999" stroke-linecap="round" stroke-linejoin="round" stroke-width="0.05"/>
    <path d="M-25.5 22.5 L-23.05 19.4 -19.1 19.25 -18.5 19.35" fill="none" stroke="#274363" stroke-linecap="round" stroke-linejoin="round" stroke-width="0.05"/>
  </g>
</svg>
