<?xml version="1.0" encoding="UTF-8" standalone="no"?>
<svg xmlns:xlink="http://www.w3.org/1999/xlink" height="59.55px" width="83.05px" xmlns="http://www.w3.org/2000/svg">
  <g transform="matrix(1.0, 0.0, 0.0, 1.0, 40.05, 27.8)">
    <path d="M14.4 -25.1 L14.4 -25.15 14.4 -25.2 14.5 -25.15 14.4 -25.1 14.4 -25.15 14.5 -25.15 14.4 -25.15 14.4 -25.1 M17.6 14.65 L17.55 14.7 17.55 14.65 17.6 14.65 M5.5 18.75 L5.55 18.85 5.45 18.75 5.5 18.75" fill="#000000" fill-rule="evenodd" stroke="none"/>
    <path d="M-8.9 21.7 Q-15.3 28.65 -24.0 31.65 L-33.15 31.65 Q-34.8 29.95 -34.6 26.55 L-27.9 25.5 -25.5 22.75 -25.45 22.65 -23.05 19.75 -20.9 19.5 -19.95 19.6 -19.3 19.7 -18.6 19.7 -18.5 19.7 -9.35 21.65 -9.35 21.75 -8.9 21.7 M-33.1 18.7 L-35.45 19.4 -36.55 24.5 Q-39.0 25.85 -40.05 24.5 L-40.05 17.0 Q-37.15 13.8 -33.75 11.2 L-33.5 14.9 -33.25 18.4 -33.1 18.7 M-1.3 17.7 L-1.35 17.45 -1.3 17.45 -1.3 17.7" fill="#ffffff" fill-rule="evenodd" stroke="none"/>
    <path d="M-9.35 21.65 L-8.95 21.7 -9.35 21.75 -9.35 21.65" fill="#999999" fill-rule="evenodd" stroke="none"/>
    <path d="M14.4 -25.2 L14.45 -25.35 Q9.95 -26.5 4.15 -25.25 14.7 -27.95 26.25 -27.8 30.25 -26.3 33.2 -24.5 36.45 -22.5 38.4 -20.05 L38.4 -20.1 Q40.55 -15.95 41.15 -10.6 41.65 -4.25 38.85 0.5 38.0 0.05 37.05 -0.1 L36.75 -0.1 36.25 -0.2 35.9 -0.1 35.7 -0.05 Q34.4 0.2 32.15 0.95 L32.0 1.0 Q30.55 1.45 29.7 2.75 28.45 4.65 28.4 8.4 19.8 6.95 17.6 14.65 L17.55 14.65 Q10.55 12.35 5.5 18.75 L5.45 18.75 Q1.85 17.0 -1.3 17.7 -4.45 18.35 -7.2 21.4 L-8.95 21.7 -9.35 21.65 -18.5 19.7 Q-9.4 19.35 -2.75 17.45 10.85 13.45 14.05 2.75 L14.15 2.35 13.5 -0.05 13.45 -0.1 12.2 -4.25 23.9 -11.35 Q22.15 -18.9 16.0 -24.5 L15.1 -25.25 14.85 -25.25 15.05 -25.3 15.1 -25.3 15.1 -25.25 15.1 -25.3 15.05 -25.3 14.85 -25.25 14.45 -25.35 14.85 -25.25 14.5 -25.15 14.4 -25.2 M6.65 -22.65 L6.8 -22.7 6.7 -22.65 6.65 -22.65 M15.1 -25.3 Q20.35 -26.75 26.25 -27.8 20.35 -26.75 15.1 -25.3 M-1.3 17.45 L-1.35 17.45 -1.3 17.7 -1.3 17.45" fill="#473725" fill-rule="evenodd" stroke="none"/>
    <path d="M-2.35 -23.35 L-1.6 -23.6 1.3 -24.5 2.4 -24.8 4.15 -25.25 Q9.95 -26.5 14.45 -25.35 L14.4 -25.2 14.4 -25.15 14.4 -25.1 12.25 -24.5 8.25 -23.25 12.25 -24.5 14.4 -25.1 14.5 -25.15 14.85 -25.25 15.1 -25.25 16.0 -24.5 Q22.15 -18.9 23.9 -11.35 L12.2 -4.25 13.45 -0.1 13.5 -0.05 14.15 2.35 14.05 2.75 Q10.85 13.45 -2.75 17.45 -9.4 19.35 -18.5 19.7 L-18.6 19.7 -19.3 19.7 -19.95 19.6 -20.9 19.5 -23.0 19.6 -23.05 19.75 -25.45 22.65 -25.5 22.75 -29.45 22.75 -29.65 22.55 -29.95 22.25 -33.1 18.7 -33.25 18.4 -33.5 14.9 -33.75 11.2 -33.8 10.05 -33.85 9.3 -33.15 9.7 -32.75 9.7 Q-31.95 9.35 -32.35 6.65 L-32.4 6.4 Q-32.65 4.8 -33.25 2.9 L-33.55 2.0 -33.4 0.95 -33.2 -0.1 -33.15 -0.1 -33.05 -0.55 -32.5 -2.4 -31.55 -4.55 Q-28.25 -10.4 -23.15 -14.15 -25.0 -10.7 -23.15 -5.85 2.65 -2.95 16.2 -13.45 13.65 -21.1 8.25 -23.25 4.2 -24.35 -2.35 -23.35 M-29.95 22.25 Q-32.3 19.8 -32.25 18.45 L-32.15 15.95 Q-32.0 13.45 -31.5 11.25 L-31.4 10.65 -31.25 10.05 -29.75 5.15 -29.1 3.4 -28.8 2.8 -27.95 0.95 -27.4 -0.05 -27.4 -0.1 -27.1 -0.55 Q-25.4 -3.4 -23.15 -5.85 -25.4 -3.4 -27.1 -0.55 L-27.4 -0.1 -27.4 -0.05 -27.95 0.95 -28.8 2.8 -29.1 3.4 -29.75 5.15 -31.25 10.05 -31.4 10.65 -31.5 11.25 Q-32.0 13.45 -32.15 15.95 L-32.25 18.45 Q-32.3 19.8 -29.95 22.25 M-9.55 11.35 Q-7.3 9.7 -7.65 8.25 -8.05 6.8 -10.9 6.4 -12.85 6.1 -15.1 6.45 L-17.4 6.85 Q-19.9 7.4 -21.75 8.35 L-23.35 9.3 Q-24.75 10.3 -25.15 11.25 -25.4 11.85 -25.25 12.4 -24.85 13.8 -22.0 14.25 L-21.3 14.3 -15.5 13.8 -13.25 13.15 Q-11.1 12.4 -9.55 11.35" fill="#715739" fill-rule="evenodd" stroke="none"/>
    <path d="M-33.85 9.3 L-33.85 5.4 -33.65 3.05 -33.65 2.75 -33.25 2.9 Q-32.65 4.8 -32.4 6.4 L-32.35 6.65 Q-31.95 9.35 -32.75 9.7 L-33.15 9.7 -33.85 9.3 M-9.55 11.35 Q-11.1 12.4 -13.25 13.15 L-15.5 13.8 -21.3 14.3 -22.0 14.25 Q-24.85 13.8 -25.25 12.4 -25.4 11.85 -25.15 11.25 -24.75 10.3 -23.35 9.3 L-21.75 8.35 Q-19.9 7.4 -17.4 6.85 L-15.1 6.45 Q-12.85 6.1 -10.9 6.4 -8.05 6.8 -7.65 8.25 -7.3 9.7 -9.55 11.35" fill="#ffff00" fill-rule="evenodd" stroke="none"/>
    <path d="M-2.35 -23.35 Q4.2 -24.35 8.25 -23.25 L6.55 -22.65 Q-13.6 -15.35 -23.15 -5.85 -13.6 -15.35 6.55 -22.65 L8.25 -23.25 Q13.65 -21.1 16.2 -13.45 2.65 -2.95 -23.15 -5.85 -25.0 -10.7 -23.15 -14.15 -13.3 -20.6 -2.35 -23.35 M6.65 -22.65 L6.7 -22.65 6.8 -22.7 6.65 -22.65" fill="#e7df8b" fill-rule="evenodd" stroke="none"/>
    <path d="M4.15 -25.25 L2.4 -24.8 1.3 -24.5 -1.6 -23.6 -2.35 -23.35 Q4.2 -24.35 8.25 -23.25 L12.25 -24.5 14.4 -25.1 14.4 -25.15 14.5 -25.15 14.4 -25.1 M14.4 -25.15 L14.4 -25.2 M14.45 -25.35 Q9.95 -26.5 4.15 -25.25 14.7 -27.95 26.25 -27.8 30.25 -26.3 33.2 -24.5 36.45 -22.5 38.4 -20.05 M38.4 -20.1 Q40.55 -15.95 41.15 -10.6 41.65 -4.25 38.85 0.5 M-7.2 21.4 L-8.95 21.7 -8.9 21.7 M-25.5 22.75 L-29.45 22.75 -29.65 22.55 -29.95 22.25 -33.1 18.7 M-33.75 11.2 L-33.8 10.05 -33.85 9.3 -33.85 5.4 -33.65 3.05 -33.65 2.75 M-33.25 2.9 L-33.55 2.0 -33.4 0.95 -33.2 -0.1 M-33.15 -0.1 L-33.05 -0.55 -32.5 -2.4 -31.55 -4.55 Q-28.25 -10.4 -23.15 -14.15 -13.3 -20.6 -2.35 -23.35 M14.85 -25.25 L15.1 -25.25 15.1 -25.3 15.05 -25.3 14.85 -25.25 14.45 -25.35 M14.5 -25.15 L14.85 -25.25 M-23.15 -5.85 Q-13.6 -15.35 6.55 -22.65 L8.25 -23.25 Q13.65 -21.1 16.2 -13.45 2.65 -2.95 -23.15 -5.85 -25.4 -3.4 -27.1 -0.55 L-27.4 -0.1 -27.4 -0.05 -27.95 0.95 -28.8 2.8 -29.1 3.4 -29.75 5.15 -31.25 10.05 -31.4 10.65 -31.5 11.25 Q-32.0 13.45 -32.15 15.95 L-32.25 18.45 Q-32.3 19.8 -29.95 22.25 M15.1 -25.25 L16.0 -24.5 Q22.15 -18.9 23.9 -11.35 L12.2 -4.25 13.45 -0.1 13.5 -0.05 14.15 2.35 14.05 2.75 Q10.85 13.45 -2.75 17.45 -9.4 19.35 -18.5 19.7 L-18.6 19.7 M-9.35 21.65 L-8.95 21.7 -9.35 21.75 M26.25 -27.8 Q20.35 -26.75 15.1 -25.3 M5.45 18.75 L5.5 18.75 M17.55 14.65 L17.6 14.65 M-23.15 -14.15 Q-25.0 -10.7 -23.15 -5.85 M-9.55 11.35 Q-11.1 12.4 -13.25 13.15 L-15.5 13.8 -21.3 14.3 -22.0 14.25 Q-24.85 13.8 -25.25 12.4 -25.4 11.85 -25.15 11.25 -24.75 10.3 -23.35 9.3 L-21.75 8.35 Q-19.9 7.4 -17.4 6.85 L-15.1 6.45 Q-12.85 6.1 -10.9 6.4 -8.05 6.8 -7.65 8.25 -7.3 9.7 -9.55 11.35 M-1.3 17.45 L-1.3 17.7 M-33.25 2.9 Q-32.65 4.8 -32.4 6.4 L-32.35 6.65 Q-31.95 9.35 -32.75 9.7 L-33.15 9.7 -33.85 9.3" fill="none" stroke="#898801" stroke-linecap="round" stroke-linejoin="round" stroke-width="0.05"/>
    <path d="M-8.9 21.7 Q-15.3 28.65 -24.0 31.65 L-33.15 31.65 Q-34.8 29.95 -34.6 26.55 L-27.9 25.5 -25.5 22.75 -25.45 22.65 -23.05 19.75 -20.9 19.5 -19.95 19.6 -19.3 19.7 -18.6 19.7 -18.5 19.7 -9.35 21.65 -9.35 21.75 -8.9 21.7 M-33.1 18.7 L-35.45 19.4 -36.55 24.5 Q-39.0 25.85 -40.05 24.5 L-40.05 17.0 Q-37.15 13.8 -33.75 11.2 L-33.5 14.9 -33.25 18.4 -33.1 18.7" fill="none" stroke="#666666" stroke-linecap="round" stroke-linejoin="round" stroke-width="0.05"/>
    <path d="M28.4 7.7 Q28.5 1.25 32.0 0.1 L32.15 0.05 35.7 -1.0 35.9 -1.05 36.25 -1.1 36.75 -1.05 37.05 -1.05 38.85 -0.4 39.6 0.05 40.75 1.0 Q43.0 3.3 43.0 6.5 43.0 9.75 40.75 12.0 38.5 14.25 35.25 14.3 L32.75 13.9 Q32.5 11.2 30.5 9.2 L28.4 7.7 30.5 9.2 Q32.5 11.2 32.75 13.9 L32.8 14.7 Q32.8 17.95 30.5 20.2 28.25 22.45 25.05 22.45 22.55 22.45 20.6 21.1 20.4 23.85 18.35 25.85 16.1 28.15 12.9 28.15 9.75 28.15 7.55 26.05 7.05 27.95 5.55 29.45 3.3 31.75 0.05 31.75 -3.15 31.75 -5.45 29.45 -7.7 27.2 -7.7 24.0 -7.7 22.45 -7.2 21.1 -4.45 17.95 -1.3 17.3 1.85 16.6 5.45 18.4 L5.55 18.5 5.5 18.35 Q10.55 11.8 17.55 14.15 L17.55 14.2 17.6 14.15 Q19.8 6.25 28.4 7.7 M7.55 26.05 L7.8 24.0 Q7.8 20.75 5.55 18.5 7.8 20.75 7.8 24.0 L7.55 26.05 M17.55 14.2 L18.35 14.9 Q20.65 17.15 20.65 20.4 L20.6 21.1 20.65 20.4 Q20.65 17.15 18.35 14.9 L17.55 14.2" fill="#473725" fill-rule="evenodd" stroke="none"/>
    <path d="M32.75 13.9 L35.25 14.3 Q38.5 14.25 40.75 12.0 43.0 9.75 43.0 6.5 43.0 3.3 40.75 1.0 L39.6 0.05 38.85 -0.4 37.05 -1.05 36.75 -1.05 36.25 -1.1 35.9 -1.05 35.7 -1.0 32.15 0.05 32.0 0.1 Q28.5 1.25 28.4 7.7 L30.5 9.2 Q32.5 11.2 32.75 13.9 L32.8 14.7 Q32.8 17.95 30.5 20.2 28.25 22.45 25.05 22.45 22.55 22.45 20.6 21.1 20.4 23.85 18.35 25.85 16.1 28.15 12.9 28.15 9.75 28.15 7.55 26.05 7.05 27.95 5.55 29.45 3.3 31.75 0.05 31.75 -3.15 31.75 -5.45 29.45 -7.7 27.2 -7.7 24.0 -7.7 22.45 -7.2 21.1 -4.45 17.95 -1.3 17.3 1.85 16.6 5.45 18.4 L5.55 18.5 5.5 18.35 Q10.55 11.8 17.55 14.15 L17.55 14.2 17.6 14.15 Q19.8 6.25 28.4 7.7 M20.6 21.1 L20.65 20.4 Q20.65 17.15 18.35 14.9 L17.55 14.2 M5.55 18.5 Q7.8 20.75 7.8 24.0 L7.55 26.05" fill="none" stroke="#898801" stroke-linecap="round" stroke-linejoin="round" stroke-width="0.05"/>
  </g>
</svg>
