<?xml version="1.0" encoding="UTF-8" standalone="no"?>
<svg xmlns:xlink="http://www.w3.org/1999/xlink" height="25.8px" width="18.4px" xmlns="http://www.w3.org/2000/svg">
  <g transform="matrix(1.0, 0.0, 0.0, 1.0, 9.2, 9.6)">
    <path d="M-3.0 -9.2 L-2.95 -9.2 -2.95 -9.15 -3.0 -9.2 M3.0 -9.2 L3.0 -9.15 3.0 -9.2" fill="#eebf5a" fill-rule="evenodd" stroke="none"/>
    <path d="M4.1 -9.15 Q6.55 -9.05 9.0 -8.35 L9.1 -7.15 9.15 -2.75 Q8.95 -0.85 8.45 -0.2 L7.85 0.7 Q5.4 2.4 3.45 2.2 L2.4 -0.6 2.3 -0.95 -2.55 -0.95 -3.75 2.0 Q-5.7 2.0 -8.1 0.3 L-8.3 0.15 -8.35 -0.2 Q-8.95 -0.9 -9.15 -2.85 L-9.1 -7.2 -9.0 -8.45 -3.95 -9.2 -3.9 -8.25 Q-3.75 -7.75 -3.2 -7.35 -2.65 -6.95 -1.7 -6.65 L-0.3 -6.55 1.7 -6.7 3.1 -7.35 3.9 -8.2 4.1 -9.15 M8.35 1.1 L8.35 1.2 8.3 1.15 8.35 1.1" fill="#5e5e5e" fill-rule="evenodd" stroke="none"/>
    <path d="M8.45 -0.2 L8.35 1.1 8.3 1.15 8.35 1.2 Q7.2 5.45 7.5 8.7 7.75 11.9 7.9 12.35 L8.05 13.2 7.95 14.4 Q-0.2 18.0 -7.95 14.3 L-8.0 12.85 -7.9 12.2 -7.6 8.65 Q-7.4 5.5 -8.3 0.5 L-8.3 0.15 -8.1 0.3 Q-5.7 2.0 -3.75 2.0 L-2.55 -0.95 2.3 -0.95 2.4 -0.6 3.45 2.2 Q5.4 2.4 7.85 0.7 L8.45 -0.2 M-3.95 -9.2 Q-3.5 -9.75 -3.0 -9.2 L-3.0 -9.15 -2.65 -8.7 -2.6 -8.6 -1.5 -8.4 -0.3 -8.25 0.0 -8.25 1.3 -8.35 2.15 -8.45 2.2 -8.45 Q3.0 -8.8 3.0 -9.15 L3.0 -9.2 4.1 -9.15 3.9 -8.2 3.1 -7.35 1.7 -6.7 -0.3 -6.55 -1.7 -6.65 Q-2.65 -6.95 -3.2 -7.35 -3.75 -7.75 -3.9 -8.25 L-3.95 -9.2" fill="#333333" fill-rule="evenodd" stroke="none"/>
    <path d="M8.35 1.2 Q7.2 5.45 7.5 8.7 7.75 11.9 7.9 12.35 L8.05 13.2 7.95 14.4 Q-0.2 18.0 -7.95 14.3 L-8.0 12.85 -7.9 12.2 -7.6 8.65 Q-7.4 5.5 -8.3 0.5 M2.15 -8.45 L2.2 -8.45" fill="none" stroke="#000000" stroke-linecap="round" stroke-linejoin="round" stroke-width="0.05"/>
    <path d="M4.1 -9.15 Q6.55 -9.05 9.0 -8.35 L9.1 -7.15 9.15 -2.75 Q8.95 -0.85 8.45 -0.2 L8.35 1.1 8.35 1.2 M-8.3 0.5 L-8.3 0.15 -8.35 -0.2 Q-8.95 -0.9 -9.15 -2.85 L-9.1 -7.2 -9.0 -8.45 -3.95 -9.2 Q-3.5 -9.75 -3.0 -9.2 L-2.95 -9.15 M-3.0 -9.15 L-2.65 -8.7 -2.6 -8.6 -1.5 -8.4 -0.3 -8.25 0.0 -8.25 1.3 -8.35 2.15 -8.45 2.2 -8.45 Q3.0 -8.8 3.0 -9.15 L3.0 -9.2 3.0 -9.15 3.0 -9.2 4.1 -9.15" fill="none" stroke="#000000" stroke-linecap="round" stroke-linejoin="round" stroke-width="0.05"/>
  </g>
</svg>
