<?xml version="1.0" encoding="UTF-8" standalone="no"?>
<svg xmlns:xlink="http://www.w3.org/1999/xlink" height="29.05px" width="18.95px" xmlns="http://www.w3.org/2000/svg">
  <g transform="matrix(1.0, 0.0, 0.0, 1.0, 9.45, 13.0)">
    <path d="M2.45 -1.7 L2.4 -1.7 2.45 -1.7 M-6.0 6.8 L-2.95 7.45 -4.8 8.45 -6.0 6.8 M2.4 7.4 L6.3 6.6 4.85 8.9 2.4 7.4" fill="#ffffff" fill-rule="evenodd" stroke="none"/>
    <path d="M7.4 6.25 Q7.35 8.0 7.65 9.6 -0.15 13.35 -7.6 9.8 L-7.55 6.25 -6.0 6.8 -4.8 8.45 -2.95 7.45 Q-0.4 7.75 2.4 7.4 L4.85 8.9 6.3 6.6 7.4 6.25" fill="#e0e0e0" fill-rule="evenodd" stroke="none"/>
    <path d="M-7.6 9.85 L-7.6 9.8 -7.6 9.85" fill="#f2f2f2" fill-rule="evenodd" stroke="none"/>
    <path d="M7.65 9.6 L8.4 10.05 7.85 10.45 Q4.45 12.65 1.65 12.7 L1.65 14.65 Q4.35 14.35 8.1 12.0 8.35 11.8 8.7 11.7 L7.95 12.95 Q-0.65 19.15 -7.95 12.9 L-8.35 11.9 -7.75 12.3 Q-4.9 14.0 -2.05 14.6 L-2.05 12.7 Q-5.25 12.15 -7.65 10.85 L-8.2 10.55 -7.6 9.85 -7.6 9.8 Q-0.15 13.35 7.65 9.6" fill="#263959" fill-rule="evenodd" stroke="none"/>
    <path d="M8.4 10.05 Q9.0 10.65 8.7 11.7 8.35 11.8 8.1 12.0 4.35 14.35 1.65 14.65 L1.65 12.7 Q4.45 12.65 7.85 10.45 L8.4 10.05 M-8.35 11.9 Q-8.55 11.15 -8.2 10.55 L-7.65 10.85 Q-5.25 12.15 -2.05 12.7 L-2.05 14.6 Q-4.9 14.0 -7.75 12.3 L-8.35 11.9" fill="#576bca" fill-rule="evenodd" stroke="none"/>
    <path d="M-9.0 -8.45 L-4.1 -9.15 Q-4.8 -10.5 -3.9 -12.1 -0.1 -14.0 4.2 -11.95 4.75 -11.15 4.7 -10.4 0.4 -7.5 -3.35 -8.45 0.55 -5.15 4.25 -9.15 L9.5 -8.4 9.35 -4.25 9.35 -4.2 9.25 -3.55 9.1 -1.95 Q9.0 -1.2 8.5 -0.4 L7.85 0.35 6.95 1.05 6.25 1.5 4.4 1.6 4.0 1.2 Q3.05 0.1 2.55 -1.4 L2.45 -1.7 2.4 -1.7 2.2 -2.45 2.05 -2.5 2.1 -1.7 Q2.25 0.4 2.7 1.45 -0.25 1.9 -3.1 1.4 -0.25 1.9 2.7 1.45 3.25 2.6 4.25 2.4 6.5 2.45 7.85 1.05 L7.7 3.3 7.65 3.55 7.6 3.75 6.85 5.75 6.75 5.9 6.7 5.95 6.3 6.6 2.4 7.4 -0.2 5.75 -2.95 7.45 -6.0 6.8 -6.7 5.9 -6.85 5.7 -7.6 3.75 -7.8 0.65 Q-7.3 2.1 -4.95 2.8 -3.75 3.15 -3.1 1.4 -2.65 0.25 -2.45 -1.75 -0.15 -1.5 2.1 -1.7 -0.15 -1.5 -2.45 -1.75 L-2.3 -3.8 -2.55 -2.35 -2.6 -2.0 -2.7 -1.8 Q-5.95 -2.2 -9.3 -3.55 -5.95 -2.2 -2.7 -1.8 -3.25 -0.05 -4.2 1.15 L-4.75 1.75 -6.25 1.45 -7.8 0.25 -8.45 -0.55 -9.1 -2.05 -9.3 -3.55 -9.4 -4.3 Q-9.6 -5.4 -9.0 -8.45 M9.25 -3.55 Q5.9 -2.1 2.45 -1.7 5.9 -2.1 9.25 -3.55 M-4.1 -9.15 L-3.35 -8.45 -4.1 -9.15 M-8.45 -0.55 L-6.25 0.5 -5.4 0.8 -4.2 1.15 -5.4 0.8 -6.25 0.5 -8.45 -0.55 M8.5 -0.4 Q6.2 0.65 4.0 1.2 6.2 0.65 8.5 -0.4" fill="#42ac81" fill-rule="evenodd" stroke="none"/>
    <path d="M4.7 -10.4 L4.25 -9.2 4.25 -9.15 Q0.55 -5.15 -3.35 -8.45 0.4 -7.5 4.7 -10.4 M7.85 0.35 L7.85 1.05 Q6.5 2.45 4.25 2.4 3.25 2.6 2.7 1.45 2.25 0.4 2.1 -1.7 L2.4 -1.7 2.1 -1.7 2.05 -2.5 2.2 -2.45 2.4 -1.7 2.45 -1.7 2.55 -1.4 Q3.05 0.1 4.0 1.2 L2.7 1.45 4.0 1.2 4.4 1.6 6.25 1.5 6.95 1.05 7.85 0.35 M7.6 3.75 L7.4 6.25 6.3 6.6 6.7 5.95 6.75 5.9 6.85 5.75 7.6 3.75 M-7.55 6.25 L-7.6 3.75 -6.85 5.7 -6.7 5.9 -6.0 6.8 -7.55 6.25 M-7.8 0.65 L-7.8 0.25 -6.25 1.45 -4.75 1.75 -4.2 1.15 Q-3.25 -0.05 -2.7 -1.8 L-2.6 -2.0 -2.55 -2.35 -2.3 -3.8 -2.45 -1.75 -2.7 -1.8 -2.45 -1.75 Q-2.65 0.25 -3.1 1.4 L-4.2 1.15 -3.1 1.4 Q-3.75 3.15 -4.95 2.8 -7.3 2.1 -7.8 0.65 M-2.95 7.45 L-0.2 5.75 2.4 7.4 Q-0.4 7.75 -2.95 7.45" fill="#45916e" fill-rule="evenodd" stroke="none"/>
    <path d="M2.4 -1.7 L2.1 -1.7 Q-0.15 -1.5 -2.45 -1.75 L-2.7 -1.8 Q-5.95 -2.2 -9.3 -3.55 M2.7 1.45 L4.0 1.2 Q6.2 0.65 8.5 -0.4 M-3.1 1.4 Q-0.25 1.9 2.7 1.45 M2.45 -1.7 Q5.9 -2.1 9.25 -3.55 M-4.2 1.15 L-3.1 1.4 M-4.2 1.15 L-5.4 0.8 -6.25 0.5 -8.45 -0.55" fill="none" stroke="#ffffff" stroke-linecap="round" stroke-linejoin="round" stroke-width="0.25"/>
    <path d="M7.65 9.6 L8.4 10.05 Q9.0 10.65 8.7 11.7 L7.95 12.95 Q-0.65 19.15 -7.95 12.9 L-8.35 11.9 Q-8.55 11.15 -8.2 10.55 L-7.6 9.85 -7.6 9.8 Q-0.15 13.35 7.65 9.6" fill="none" stroke="#000000" stroke-linecap="round" stroke-linejoin="round" stroke-width="0.05"/>
    <path d="M-9.0 -8.45 L-4.1 -9.15 Q-4.8 -10.5 -3.9 -12.1 -0.1 -14.0 4.2 -11.95 4.75 -11.15 4.7 -10.4 L4.25 -9.2 4.25 -9.15 9.5 -8.4 M9.35 -4.2 L9.25 -3.55 9.1 -1.95 Q9.0 -1.2 8.5 -0.4 L7.85 0.35 7.85 1.05 7.7 3.3 7.65 3.55 7.6 3.75 7.4 6.25 Q7.35 8.0 7.65 9.6 M-7.6 9.85 L-7.6 9.8 -7.55 6.25 -7.6 3.75 -7.8 0.65 -7.8 0.25 -8.45 -0.55 -9.1 -2.05 -9.3 -3.55 -9.4 -4.3 M2.45 -1.7 L2.4 -1.7 M-3.35 -8.45 L-4.1 -9.15 M-7.55 6.25 L-6.0 6.8 -2.95 7.45 Q-0.4 7.75 2.4 7.4 L6.3 6.6 7.4 6.25 M-3.35 -8.45 Q0.55 -5.15 4.25 -9.15" fill="none" stroke="#2e813e" stroke-linecap="round" stroke-linejoin="round" stroke-width="0.05"/>
  </g>
</svg>
