<?xml version="1.0" encoding="UTF-8" standalone="no"?>
<svg xmlns:xlink="http://www.w3.org/1999/xlink" height="25.0px" width="18.75px" xmlns="http://www.w3.org/2000/svg">
  <g transform="matrix(1.0, 0.0, 0.0, 1.0, 9.35, 9.2)">
    <path d="M8.45 -8.55 L9.25 -8.35 9.35 -7.7 9.4 -6.8 9.4 -5.95 9.35 -4.75 9.3 -4.15 9.0 -1.25 8.95 -0.8 8.9 -0.55 Q7.85 3.65 3.95 5.65 6.3 7.9 4.8 11.5 5.6 12.25 5.6 13.65 5.6 15.0 3.2 15.55 L0.0 15.8 -2.8 15.6 -3.0 15.55 Q-7.6 14.15 -5.65 11.65 -6.4 8.6 -4.85 5.15 -8.15 3.6 -9.2 -1.8 L-9.35 -4.35 -9.2 -8.45 -8.9 -8.5 -4.9 -9.15 Q-6.25 -8.45 -5.45 -7.85 L-5.3 -7.75 -5.2 -7.7 Q-5.4 -5.9 -5.1 -4.35 L-4.4 -3.05 Q-3.9 -0.75 -2.25 1.1 -0.65 2.95 1.7 0.3 4.05 -2.35 4.65 -7.4 L5.25 -7.7 Q5.95 -8.3 4.8 -9.1 L8.45 -8.55 M-5.45 -7.85 L-5.2 -7.7 -5.45 -7.85" fill="#97b3c1" fill-rule="evenodd" stroke="none"/>
    <path d="M-5.2 -7.7 L-5.1 -7.65 Q-3.8 -6.95 -1.75 -6.8 L1.55 -6.8 4.65 -7.4 Q4.05 -2.35 1.7 0.3 -0.65 2.95 -2.25 1.1 -3.9 -0.75 -4.4 -3.05 L-5.1 -4.35 Q-5.4 -5.9 -5.2 -7.7 M-2.15 -1.45 Q-3.9 -2.15 -4.4 -3.05 -3.9 -2.15 -2.15 -1.45" fill="#608e9f" fill-rule="evenodd" stroke="none"/>
    <path d="M-4.9 -9.15 L-3.85 -9.2 -3.0 -9.2 -3.0 -9.15 Q-3.75 -8.8 -3.0 -8.7 L-1.5 -8.4 0.0 -8.25 1.3 -8.35 3.0 -8.65 Q3.4 -8.8 3.0 -9.15 L3.0 -9.2 4.8 -9.1 Q5.95 -8.3 5.25 -7.7 L4.65 -7.4 1.55 -6.8 -1.75 -6.8 Q-3.8 -6.95 -5.1 -7.65 L-5.2 -7.7 -5.3 -7.75 -5.45 -7.85 Q-6.25 -8.45 -4.9 -9.15" fill="#40626a" fill-rule="evenodd" stroke="none"/>
    <path d="M8.9 -0.55 L8.0 3.0 6.85 5.75 7.05 5.95 7.4 6.6 7.95 7.9 Q8.6 9.7 7.3 11.1 8.4 11.95 8.05 14.2 5.6 15.15 3.2 15.55 5.6 15.0 5.6 13.65 5.6 12.25 4.8 11.5 6.3 7.9 3.95 5.65 7.85 3.65 8.9 -0.55 M-3.0 15.55 L-7.9 14.2 Q-8.4 11.9 -7.3 11.05 -8.05 10.2 -8.0 8.65 L-7.85 7.25 -7.65 6.55 -7.4 5.6 -7.2 5.05 -7.5 4.05 Q-8.85 1.15 -9.2 -1.8 -8.15 3.6 -4.85 5.15 -6.4 8.6 -5.65 11.65 -7.6 14.15 -3.0 15.55" fill="#6992a7" fill-rule="evenodd" stroke="none"/>
    <path d="M9.0 -1.25 L8.95 -0.8 8.9 -0.55 M7.3 11.1 Q8.4 11.95 8.05 14.2 5.6 15.15 3.2 15.55 L0.0 15.8 -2.8 15.6 -3.0 15.55 -7.9 14.2 Q-8.4 11.9 -7.3 11.05 M-7.5 4.05 Q-8.85 1.15 -9.2 -1.8 L-9.35 -4.35 M-8.9 -8.5 L-4.9 -9.15 -3.85 -9.2 -3.0 -9.2 -3.0 -9.15 Q-3.75 -8.8 -3.0 -8.7 L-1.5 -8.4 0.0 -8.25 1.3 -8.35 3.0 -8.65 Q3.4 -8.8 3.0 -9.15 L3.0 -9.2 4.8 -9.1 8.45 -8.55 M5.25 -7.7 Q5.95 -8.3 4.8 -9.1 M4.65 -7.4 Q4.05 -2.35 1.7 0.3 -0.65 2.95 -2.25 1.1 -3.9 -0.75 -4.4 -3.05 L-5.1 -4.35 Q-5.4 -5.9 -5.2 -7.7 L-5.45 -7.85 Q-6.25 -8.45 -4.9 -9.15 M-5.45 -7.85 L-5.3 -7.75 M-4.4 -3.05 Q-3.9 -2.15 -2.15 -1.45" fill="none" stroke="#38575f" stroke-linecap="round" stroke-linejoin="round" stroke-width="0.05"/>
    <path d="M9.3 -4.15 L9.0 -1.25 M8.9 -0.55 L8.0 3.0 6.85 5.75 7.05 5.95 7.4 6.6 7.95 7.9 Q8.6 9.7 7.3 11.1 M-7.3 11.05 Q-8.05 10.2 -8.0 8.65 L-7.85 7.25 -7.65 6.55 -7.4 5.6 -7.2 5.05 -7.5 4.05 M4.65 -7.4 L5.25 -7.7 M-5.3 -7.75 L-5.2 -7.7" fill="none" stroke="#38575f" stroke-linecap="round" stroke-linejoin="round" stroke-width="0.05"/>
  </g>
</svg>
