<?xml version="1.0" encoding="UTF-8" standalone="no"?>
<svg xmlns:xlink="http://www.w3.org/1999/xlink" height="30.25px" width="18.95px" xmlns="http://www.w3.org/2000/svg">
  <g transform="matrix(1.0, 0.0, 0.0, 1.0, 9.45, 14.7)">
    <path d="M1.75 -3.7 Q2.25 0.15 1.75 4.8 L1.6 6.9 -0.2 5.75 -1.4 6.55 -1.6 4.8 Q-2.1 -0.55 -1.6 -3.8 L1.75 -3.7 M1.7 -10.05 L1.9 -8.5 1.8 -5.75 -1.65 -5.95 -1.75 -8.5 -1.65 -10.1 Q0.05 -10.5 1.7 -10.05" fill="#ffffff" fill-rule="evenodd" stroke="none"/>
    <path d="M1.6 6.9 Q1.45 9.6 1.9 12.3 L-1.65 12.25 Q-1.2 9.55 -1.4 6.55 L-0.2 5.75 1.6 6.9 M8.0 11.25 L8.05 11.25 8.05 11.3 8.0 11.25" fill="#f2f2f2" fill-rule="evenodd" stroke="none"/>
    <path d="M1.9 12.3 Q5.05 12.3 8.0 11.25 L8.05 11.3 Q9.1 13.3 7.7 14.75 0.25 16.4 -7.25 14.75 -8.25 14.05 -8.15 12.85 L-7.7 11.25 -7.65 11.25 Q-4.65 12.2 -1.65 12.25 L1.9 12.3" fill="#000000" fill-rule="evenodd" stroke="none"/>
    <path d="M6.25 -8.95 L9.5 -8.4 9.35 -4.25 9.35 -4.2 9.1 -1.95 Q8.95 -0.85 7.85 0.35 L6.95 1.05 6.9 1.2 6.25 1.5 4.4 1.6 Q3.2 0.45 2.55 -1.4 L2.45 -1.7 2.2 -2.45 2.05 -2.5 Q2.25 2.8 4.25 2.4 6.5 2.45 7.85 1.05 L7.7 3.3 7.65 3.55 7.6 3.75 6.85 5.75 6.75 5.9 6.7 5.95 4.85 8.9 1.6 6.9 1.75 4.8 Q2.25 0.15 1.75 -3.7 4.05 -4.8 6.25 -8.95 4.15 -6.35 1.8 -5.75 L1.9 -8.5 1.7 -10.05 Q0.05 -10.5 -1.65 -10.1 L-1.75 -8.5 -1.65 -5.95 Q-3.85 -6.7 -6.3 -9.0 L-4.6 -9.15 Q-5.55 -10.75 -4.6 -12.9 -0.15 -16.5 4.3 -12.9 5.4 -11.4 4.3 -9.15 L6.25 -8.95 M3.4 -9.2 Q2.8 -9.85 1.7 -10.05 2.8 -9.85 3.4 -9.2 M-1.65 -10.1 Q-3.05 -9.9 -4.6 -9.15 -3.05 -9.9 -1.65 -10.1 M-7.8 0.25 Q-8.95 -0.9 -9.1 -2.05 L-9.4 -4.3 Q-9.6 -5.4 -9.0 -8.45 L-6.3 -9.0 Q-3.9 -4.95 -1.6 -3.8 -2.1 -0.55 -1.6 4.8 L-1.4 6.55 -4.8 8.45 -6.7 5.9 -6.85 5.7 -7.6 3.75 -7.8 0.65 Q-7.3 2.1 -4.95 2.8 -2.65 3.5 -2.3 -3.8 L-2.55 -2.35 -2.6 -2.0 Q-3.3 0.35 -4.75 1.75 L-6.25 1.45 -7.8 0.25" fill="#42ac81" fill-rule="evenodd" stroke="none"/>
    <path d="M1.6 6.9 L4.85 8.9 6.7 5.95 6.75 5.9 6.85 5.75 7.6 3.75 Q7.15 6.9 7.65 9.6 L8.05 11.25 8.0 11.25 Q5.05 12.3 1.9 12.3 1.45 9.6 1.6 6.9 M7.85 1.05 Q6.5 2.45 4.25 2.4 2.25 2.8 2.05 -2.5 L2.2 -2.45 2.45 -1.7 2.55 -1.4 Q3.2 0.45 4.4 1.6 L6.25 1.5 6.9 1.2 6.95 1.05 7.85 0.35 7.85 1.05 M-7.8 0.25 L-6.25 1.45 -4.75 1.75 Q-3.3 0.35 -2.6 -2.0 L-2.55 -2.35 -2.3 -3.8 Q-2.65 3.5 -4.95 2.8 -7.3 2.1 -7.8 0.65 L-7.8 0.25 M-7.6 3.75 L-6.85 5.7 -6.7 5.9 -4.8 8.45 -1.4 6.55 Q-1.2 9.55 -1.65 12.25 -4.65 12.2 -7.65 11.25 -7.55 9.05 -7.6 3.75" fill="#45916e" fill-rule="evenodd" stroke="none"/>
    <path d="M6.25 -8.95 Q4.05 -4.8 1.75 -3.7 L-1.6 -3.8 Q-3.9 -4.95 -6.3 -9.0 -3.85 -6.7 -1.65 -5.95 L1.8 -5.75 Q4.15 -6.35 6.25 -8.95" fill="#8bd7fe" fill-rule="evenodd" stroke="none"/>
    <path d="M1.75 -3.7 Q2.25 0.15 1.75 4.8 L1.6 6.9 Q1.45 9.6 1.9 12.3 M1.8 -5.75 L1.9 -8.5 1.7 -10.05 M-1.65 -10.1 L-1.75 -8.5 -1.65 -5.95 M-1.4 6.55 L-1.6 4.8 Q-2.1 -0.55 -1.6 -3.8 M-1.65 12.25 Q-1.2 9.55 -1.4 6.55" fill="none" stroke="#999999" stroke-linecap="round" stroke-linejoin="round" stroke-width="0.05"/>
    <path d="M9.5 -8.4 L6.25 -8.95 4.3 -9.15 Q5.4 -11.4 4.3 -12.9 -0.15 -16.5 -4.6 -12.9 -5.55 -10.75 -4.6 -9.15 -3.05 -9.9 -1.65 -10.1 0.05 -10.5 1.7 -10.05 2.8 -9.85 3.4 -9.2 M7.6 3.75 L7.65 3.55 7.7 3.3 7.85 1.05 7.85 0.35 Q8.95 -0.85 9.1 -1.95 L9.35 -4.2 M8.05 11.25 L7.65 9.6 Q7.15 6.9 7.6 3.75 M8.05 11.3 L8.0 11.25 M8.05 11.3 L8.05 11.25 M-7.8 0.25 Q-8.95 -0.9 -9.1 -2.05 L-9.4 -4.3 Q-9.6 -5.4 -9.0 -8.45 L-6.3 -9.0 -4.6 -9.15 M-7.8 0.25 L-7.8 0.65 -7.6 3.75 Q-7.55 9.05 -7.65 11.25" fill="none" stroke="#666666" stroke-linecap="round" stroke-linejoin="round" stroke-width="0.05"/>
    <path d="M6.25 -8.95 Q4.05 -4.8 1.75 -3.7 L-1.6 -3.8 Q-3.9 -4.95 -6.3 -9.0" fill="none" stroke="#029ad2" stroke-linecap="round" stroke-linejoin="round" stroke-width="0.05"/>
    <path d="M-7.65 11.25 L-7.7 11.25 -8.15 12.85 Q-8.25 14.05 -7.25 14.75 0.25 16.4 7.7 14.75 9.1 13.3 8.05 11.3" fill="none" stroke="#000000" stroke-linecap="round" stroke-linejoin="round" stroke-width="0.05"/>
  </g>
</svg>
