<?xml version="1.0" encoding="UTF-8" standalone="no"?>
<svg xmlns:xlink="http://www.w3.org/1999/xlink" height="7.7px" width="15.85px" xmlns="http://www.w3.org/2000/svg">
  <g transform="matrix(1.0, 0.0, 0.0, 1.0, 6.2, 3.6)">
    <path d="M4.7 -0.9 L4.7 -0.95 4.7 -1.05 Q4.65 -1.9 4.1 -2.5 L3.25 -2.9 9.15 -2.7 Q10.55 0.6 8.15 4.1 5.5 3.2 2.15 3.3 L1.45 3.4 0.15 3.45 -0.35 3.45 -1.8 3.35 -2.3 3.4 -3.2 3.2 -5.1 2.2 -2.25 2.35 -1.2 2.35 -1.15 2.35 -1.0 2.35 -0.1 2.3 0.9 2.2 3.1 1.4 4.0 0.65 4.65 -0.35 4.65 -0.55 4.7 -0.9" fill="#f2f2f2" fill-rule="evenodd" stroke="none"/>
    <path d="M4.1 -2.5 Q4.65 -1.9 4.7 -1.05 L4.7 -0.95 4.7 -0.9 4.65 -0.6 4.65 -0.55 4.65 -0.4 4.0 0.65 3.1 1.4 0.9 2.2 -0.1 2.3 -1.0 2.35 -1.15 2.35 -1.2 2.35 -2.25 2.35 -5.1 2.2 -6.0 1.15 -6.15 0.0 -6.05 -0.7 -5.95 -1.05 -5.35 -1.8 -4.0 -2.75 Q-2.15 -3.75 0.35 -3.55 L2.65 -3.15 3.25 -2.9 4.1 -2.5" fill="#ffffff" fill-rule="evenodd" stroke="none"/>
    <path d="M-1.8 3.35 L-0.35 3.45 0.15 3.45 1.45 3.4 2.15 3.3 Q5.5 3.2 8.15 4.1 10.55 0.6 9.15 -2.7 L3.25 -2.9 4.1 -2.5 M3.25 -2.9 L2.65 -3.15 0.35 -3.55 Q-2.15 -3.75 -4.0 -2.75 L-5.35 -1.8 -5.95 -1.05" fill="none" stroke="#a0a0a0" stroke-linecap="round" stroke-linejoin="round" stroke-width="0.05"/>
  </g>
</svg>
