<?xml version="1.0" encoding="UTF-8" standalone="no"?>
<svg xmlns:xlink="http://www.w3.org/1999/xlink" height="13.15px" width="17.15px" xmlns="http://www.w3.org/2000/svg">
  <g transform="matrix(1.0, 0.0, 0.0, 1.0, 8.65, 6.8)">
    <path d="M5.45 -5.8 Q6.95 -7.6 8.15 -5.4 9.0 -2.0 6.95 2.5 4.85 6.95 1.95 6.1 -1.35 5.35 -4.25 3.4 -7.15 1.4 -8.55 -2.15 -7.85 -4.6 -6.5 -3.5 L-6.85 -3.05 Q-5.05 -0.15 -1.1 1.6 1.8 1.0 4.5 -0.15 6.35 -2.95 5.95 -5.65 L5.45 -5.8 M4.75 1.65 Q2.2 2.7 -0.35 3.15 1.15 4.0 3.05 4.45 4.05 3.55 4.75 1.65" fill="#ffffff" fill-rule="evenodd" stroke="none"/>
    <path d="M4.75 1.65 Q4.05 3.55 3.05 4.45 1.15 4.0 -0.35 3.15 2.2 2.7 4.75 1.65" fill="#294163" fill-rule="evenodd" stroke="none"/>
    <path d="M5.45 -5.8 L5.95 -5.65 Q6.35 -2.95 4.5 -0.15 1.8 1.0 -1.1 1.6 -5.05 -0.15 -6.85 -3.05 L-6.5 -3.5 Q-2.9 -8.35 5.45 -5.8" fill="#8f392d" fill-rule="evenodd" stroke="none"/>
    <path d="M-6.5 -3.5 Q-7.85 -4.6 -8.55 -2.15 -7.15 1.4 -4.25 3.4 -1.35 5.35 1.95 6.1 4.85 6.95 6.95 2.5 9.0 -2.0 8.15 -5.4 6.95 -7.6 5.45 -5.8 -2.9 -8.35 -6.5 -3.5 Z" fill="none" stroke="#000000" stroke-linecap="round" stroke-linejoin="round" stroke-width="0.25"/>
  </g>
</svg>
