<?xml version="1.0" encoding="UTF-8" standalone="no"?>
<svg xmlns:xlink="http://www.w3.org/1999/xlink" height="23.4px" width="12.15px" xmlns="http://www.w3.org/2000/svg">
  <g transform="matrix(1.0, 0.0, 0.0, 1.0, 6.1, 9.2)">
    <path d="M-0.2 -8.1 Q2.6 -8.4 3.6 -9.2 L3.9 -9.1 5.1 -8.05 5.25 -7.9 5.85 -6.45 5.85 -6.3 5.85 -6.2 6.05 -3.65 5.8 1.85 Q6.0 6.5 5.35 12.75 3.6 14.8 -4.8 13.95 -1.25 14.05 0.75 13.05 3.45 6.35 -0.7 4.65 L-1.9 4.25 -4.65 2.55 -5.65 0.2 -5.1 0.65 Q-3.8 1.2 -0.95 -0.75 L1.0 -1.95 Q3.9 -6.75 -0.2 -8.1" fill="#f2f2f2" fill-rule="evenodd" stroke="none"/>
    <path d="M-4.8 13.95 Q-5.45 11.05 -5.35 9.6 L-4.65 2.55 -1.9 4.25 -0.7 4.65 Q3.45 6.35 0.75 13.05 -1.25 14.05 -4.8 13.95 M-5.65 0.2 Q-7.2 -2.45 -3.4 -8.05 L-3.1 -8.05 -1.75 -8.05 -0.2 -8.1 Q3.9 -6.75 1.0 -1.95 L-0.95 -0.75 Q-3.8 1.2 -5.1 0.65 L-5.65 0.2" fill="#ffffff" fill-rule="evenodd" stroke="none"/>
    <path d="M-0.2 -8.1 Q2.6 -8.4 3.6 -9.2 L3.9 -9.1 5.1 -8.05 5.25 -7.9 5.85 -6.45 5.85 -6.3 5.85 -6.2 6.05 -3.65 5.8 1.85 Q6.0 6.5 5.35 12.75 3.6 14.8 -4.8 13.95 -5.45 11.05 -5.35 9.6 L-4.65 2.55 -5.65 0.2 Q-7.2 -2.45 -3.4 -8.05 L-3.1 -8.05 -1.75 -8.05 -0.2 -8.1 Z" fill="none" stroke="#a0a0a0" stroke-linecap="round" stroke-linejoin="round" stroke-width="0.05"/>
  </g>
</svg>
