<?xml version="1.0" encoding="UTF-8" standalone="no"?>
<svg xmlns:xlink="http://www.w3.org/1999/xlink" height="29.95px" width="12.9px" xmlns="http://www.w3.org/2000/svg">
  <g transform="matrix(1.0, 0.0, 0.0, 1.0, 6.75, 13.2)">
    <path d="M3.6 -9.2 L3.65 -9.2 3.6 -9.2 M4.7 -8.5 L4.75 -8.45 4.7 -8.5 M5.7 9.25 L5.7 9.3 5.65 9.25 5.7 9.25 M5.5 -7.4 L5.55 -7.4 5.5 -7.4" fill="#f2f2f2" fill-rule="evenodd" stroke="none"/>
    <path d="M-5.25 8.55 L-4.9 5.25 0.7 5.5 Q2.35 7.1 1.55 10.6 L-4.15 11.1 -4.55 9.6 -5.25 8.55 M-5.8 -3.35 L-5.65 -3.85 -5.75 -3.4 -5.75 -3.35 -5.8 -3.35 -5.75 -3.4 -5.8 -3.35 M-4.2 -6.85 L-3.4 -8.05 -4.2 -6.85" fill="#ffffff" fill-rule="evenodd" stroke="none"/>
    <path d="M5.7 9.3 Q6.7 10.95 5.35 12.75 4.8 13.4 3.6 13.75 0.5 15.05 -3.8 14.25 L-3.8 14.05 -3.8 13.95 Q-0.95 13.9 0.75 13.05 L1.55 10.6 5.65 9.25 5.7 9.3" fill="#474534" fill-rule="evenodd" stroke="none"/>
    <path d="M1.55 10.6 L0.75 13.05 Q-0.95 13.9 -3.8 13.95 L-3.9 12.5 -4.15 11.1 1.55 10.6" fill="#877b51" fill-rule="evenodd" stroke="none"/>
    <path d="M-3.8 14.25 L-3.85 15.45 Q-4.05 16.65 -4.5 16.75 -4.9 16.85 -5.35 15.7 L-6.0 12.8 -6.05 9.85 Q-5.9 8.6 -5.5 8.5 L-5.25 8.55 -4.55 9.6 -4.15 11.1 -3.9 12.5 -3.8 13.95 -3.8 14.05 -3.8 14.25 M-4.6 15.95 L-4.35 12.7 -5.35 9.15 -5.65 12.75 -4.6 15.95" fill="#e3e396" fill-rule="evenodd" stroke="none"/>
    <path d="M1.6 -12.9 L2.95 -13.15 Q3.65 -12.45 3.6 -11.0 L3.6 -9.2 3.35 -9.0 Q2.05 -8.1 1.0 -7.55 2.05 -8.1 3.35 -9.0 L3.6 -9.2 3.65 -9.2 Q4.65 -9.5 4.7 -8.5 L4.75 -8.45 Q5.8 -7.95 5.55 -7.4 L5.85 -6.45 5.85 -6.3 5.85 -6.2 6.05 -3.65 5.8 1.85 5.85 4.05 0.7 5.5 Q0.1 4.95 -0.7 4.65 L-1.9 4.25 -4.65 2.55 -5.65 0.2 -5.1 0.65 Q-3.8 1.2 -0.95 -0.75 L-0.65 -0.95 1.0 -1.95 Q2.35 -4.2 2.2 -5.65 L4.7 -8.5 2.2 -5.65 Q2.05 -6.85 1.0 -7.55 L-0.15 -8.1 Q2.35 -10.25 1.6 -12.9 M-6.05 -0.65 Q-6.9 -1.3 -6.75 -2.05 -4.95 -0.65 -2.0 -0.6 -3.85 -0.3 -6.05 -0.65 M-5.65 -3.85 L-5.4 -4.5 Q-5.45 -3.2 -4.85 -2.6 -5.85 -2.8 -5.75 -3.35 L-5.75 -3.4 -5.65 -3.85 M5.55 -7.4 L5.5 -7.4 5.55 -7.4 M-4.2 -6.85 Q-3.35 -5.0 -0.65 -5.35 -4.5 -3.75 -4.2 -6.85 M-0.65 -0.95 Q3.35 -2.35 5.5 -7.4 3.35 -2.35 -0.65 -0.95" fill="#000000" fill-rule="evenodd" stroke="none"/>
    <path d="M-4.9 5.25 L-4.65 2.55 -1.9 4.25 -0.7 4.65 Q0.1 4.95 0.7 5.5 L-4.9 5.25 M-5.65 0.2 L-6.05 -0.65 Q-3.85 -0.3 -2.0 -0.6 L-0.65 -0.95 -2.0 -0.6 Q-4.95 -0.65 -6.75 -2.05 -6.65 -2.65 -5.8 -3.35 L-5.75 -3.35 Q-5.85 -2.8 -4.85 -2.6 -5.45 -3.2 -5.4 -4.5 L-4.2 -6.85 -3.4 -8.05 Q-3.25 -8.6 -3.85 -9.9 L-3.9 -9.95 Q-3.25 -10.7 -0.3 -12.1 L1.6 -12.9 Q2.35 -10.25 -0.15 -8.1 L1.0 -7.55 Q2.05 -6.85 2.2 -5.65 2.35 -4.2 1.0 -1.95 L-0.65 -0.95 -0.95 -0.75 Q-3.8 1.2 -5.1 0.65 L-5.65 0.2 M-2.7 -2.55 Q-0.3 -3.3 2.2 -5.65 -0.3 -3.3 -2.7 -2.55 M-0.65 -5.35 Q-3.35 -5.0 -4.2 -6.85 -4.5 -3.75 -0.65 -5.35 L0.25 -5.8 -0.65 -5.35 M-2.8 -6.75 Q-1.3 -6.35 1.0 -7.55 -1.3 -6.35 -2.8 -6.75" fill="#5a5a5a" fill-rule="evenodd" stroke="none"/>
    <path d="M5.85 4.05 L5.7 9.25 5.65 9.25 1.55 10.6 Q2.35 7.1 0.7 5.5 L5.85 4.05" fill="#e0e0e0" fill-rule="evenodd" stroke="none"/>
    <path d="M-4.6 15.95 L-5.65 12.75 -5.35 9.15 -4.35 12.7 -4.6 15.95" fill="#ff9933" fill-rule="evenodd" stroke="none"/>
    <path d="M1.6 -12.9 L2.95 -13.15 Q3.65 -12.45 3.6 -11.0 L3.6 -9.2 3.65 -9.2 Q4.65 -9.5 4.7 -8.5 L4.75 -8.45 Q5.8 -7.95 5.55 -7.4 L5.85 -6.45 5.85 -6.3 5.85 -6.2 6.05 -3.65 5.8 1.85 5.85 4.05 0.7 5.5 -4.9 5.25 -4.65 2.55 -5.65 0.2 -6.05 -0.65 Q-6.9 -1.3 -6.75 -2.05 -6.65 -2.65 -5.8 -3.35 L-5.65 -3.85 -5.4 -4.5 -4.2 -6.85 -3.4 -8.05 Q-3.25 -8.6 -3.85 -9.9 L-3.9 -9.95 Q-3.25 -10.7 -0.3 -12.1 L1.6 -12.9 M5.7 9.25 L5.7 9.3 M1.0 -7.55 Q2.05 -8.1 3.35 -9.0 L3.6 -9.2 3.65 -9.2 M5.55 -7.4 L5.5 -7.4 Q3.35 -2.35 -0.65 -0.95 L-2.0 -0.6 Q-3.85 -0.3 -6.05 -0.65 M4.7 -8.5 L4.75 -8.45 M2.2 -5.65 Q-0.3 -3.3 -2.7 -2.55 M2.2 -5.65 L4.7 -8.5 M-4.2 -6.85 L-3.4 -8.05 M-5.65 -3.85 L-5.75 -3.4 -5.75 -3.35 Q-5.85 -2.8 -4.85 -2.6 M-5.8 -3.35 L-5.75 -3.4 M-0.65 -5.35 L0.25 -5.8 M-0.65 -5.35 Q-4.5 -3.75 -4.2 -6.85 M1.0 -7.55 Q-1.3 -6.35 -2.8 -6.75" fill="none" stroke="#a0a0a0" stroke-linecap="round" stroke-linejoin="round" stroke-width="0.05"/>
    <path d="M5.7 9.3 Q6.7 10.95 5.35 12.75 4.8 13.4 3.6 13.75 0.5 15.05 -3.8 14.25 L-3.85 15.45 Q-4.05 16.65 -4.5 16.75 -4.9 16.85 -5.35 15.7 L-6.0 12.8 -6.05 9.85 Q-5.9 8.6 -5.5 8.5 L-5.25 8.55 -4.55 9.6 -4.15 11.1 1.55 10.6 5.65 9.25 5.7 9.3" fill="none" stroke="#333333" stroke-linecap="round" stroke-linejoin="round" stroke-width="0.05"/>
    <path d="M5.85 4.05 L5.7 9.25 M-5.25 8.55 L-4.9 5.25" fill="none" stroke="#000000" stroke-linecap="round" stroke-linejoin="round" stroke-width="0.05"/>
  </g>
</svg>
