<?xml version="1.0" encoding="UTF-8" standalone="no"?>
<svg xmlns:xlink="http://www.w3.org/1999/xlink" height="25.45px" width="17.05px" xmlns="http://www.w3.org/2000/svg">
  <g transform="matrix(1.0, 0.0, 0.0, 1.0, 7.3, 10.2)">
    <path d="M5.7 -6.95 L5.75 -6.85 5.6 -7.15 5.7 -6.95" fill="#5a9e54" fill-rule="evenodd" stroke="none"/>
    <path d="M5.75 -6.85 L5.75 -6.75 5.85 -6.45 5.85 -6.3 5.85 -6.2 6.05 -3.65 6.05 -3.2 5.9 1.1 5.8 1.85 5.85 3.9 5.85 5.9 Q5.75 7.5 6.1 9.85 6.05 11.15 5.45 11.85 L5.75 12.8 Q6.1 14.95 0.5 15.25 L-3.05 15.2 Q-2.95 14.1 -2.5 13.55 L-1.85 13.1 -1.75 13.05 1.4 12.8 1.55 12.75 1.65 12.6 1.8 12.25 Q3.1 9.45 0.65 5.8 L-1.1 4.85 Q0.65 4.65 1.45 3.9 3.1 2.3 0.95 -1.9 L1.85 -2.3 Q3.4 -6.1 2.9 -9.05 L3.85 -9.4 Q4.95 -8.9 5.6 -7.15 L5.75 -6.85" fill="#6992a7" fill-rule="evenodd" stroke="none"/>
    <path d="M-0.65 -7.55 Q1.1 -8.45 2.9 -9.05 3.4 -6.1 1.85 -2.3 L0.95 -1.9 Q3.1 2.3 1.45 3.9 0.65 4.65 -1.1 4.85 L0.65 5.8 Q3.1 9.45 1.8 12.25 L1.65 12.6 1.55 12.75 1.4 12.8 -1.75 13.05 -1.85 13.1 -2.5 13.55 Q-2.95 14.1 -3.05 15.2 -5.45 15.15 -5.5 14.0 -5.5 12.95 -4.7 12.65 L-5.3 12.0 -5.8 11.3 -5.65 10.8 Q-2.7 11.9 0.85 10.65 L-1.5 7.15 -5.05 6.85 -5.0 5.95 -4.65 2.6 -4.6 2.6 -4.65 2.55 -5.6 0.25 -5.65 0.2 -5.8 -0.15 -5.9 -0.45 -5.95 -0.65 -6.0 -0.95 -6.05 -1.4 -6.05 -1.6 -6.05 -2.5 Q-5.95 -3.7 -5.25 -4.95 L-4.25 -5.55 -2.05 -6.85 -1.55 -7.1 -1.25 -7.25 -0.65 -7.55" fill="#97b3c1" fill-rule="evenodd" stroke="none"/>
    <path d="M5.75 -6.85 L5.7 -6.95 5.6 -7.15 Q4.95 -8.9 3.85 -9.4 L2.9 -9.05 Q1.1 -8.45 -0.65 -7.55 1.95 -8.9 2.4 -10.05 L2.65 -10.1 3.15 -10.2 Q7.1 -9.55 9.7 -7.85 9.95 -5.35 8.5 -5.55 L8.5 -5.5 5.75 -6.75 5.75 -6.85" fill="#40626a" fill-rule="evenodd" stroke="none"/>
    <path d="M5.75 -6.75 L8.5 -5.5 Q8.55 -3.3 7.55 -2.65 7.7 1.8 5.9 1.1 L6.05 -3.2 6.05 -3.65 5.85 -6.2 5.85 -6.3 5.85 -6.45 5.75 -6.75 M2.4 -10.05 Q1.95 -8.9 -0.65 -7.55 L-1.25 -7.25 -1.55 -7.1 -2.05 -6.85 -4.25 -5.55 -5.25 -4.95 -4.75 -6.35 -3.85 -7.4 -1.55 -8.6 Q0.55 -9.65 2.4 -10.05 M-5.05 6.85 L-1.5 7.15 0.85 10.65 Q-2.7 11.9 -5.65 10.8 L-5.65 10.75 -6.35 10.05 -5.4 6.85 -5.05 6.85" fill="#608e9f" fill-rule="evenodd" stroke="none"/>
    <path d="M-6.05 -1.6 L-6.05 -1.4 -6.0 -0.95 -6.35 -0.7 -6.85 -0.7 -7.15 -0.9 -7.2 -1.0 -7.25 -1.45 -7.0 -1.8 -6.9 -1.85 -6.4 -1.9 -6.2 -1.8 -6.05 -1.6" fill="#4e7381" fill-rule="evenodd" stroke="none"/>
    <path d="M-4.75 -6.35 L-5.25 -4.95 Q-5.95 -3.7 -6.05 -2.5 L-6.2 -1.8 -6.4 -1.9 -6.9 -1.85 -7.0 -1.8 Q-6.5 -4.2 -4.75 -6.35" fill="#dde7ea" fill-rule="evenodd" stroke="none"/>
    <path d="M5.7 -6.95 L5.75 -6.85 5.75 -6.75 5.85 -6.45 5.85 -6.3 5.85 -6.2 6.05 -3.65 6.05 -3.2 5.9 1.1 Q7.7 1.8 7.55 -2.65 8.55 -3.3 8.5 -5.5 L8.5 -5.55 Q9.95 -5.35 9.7 -7.85 7.1 -9.55 3.15 -10.2 L2.65 -10.1 2.4 -10.05 Q0.55 -9.65 -1.55 -8.6 L-3.85 -7.4 -4.75 -6.35 -5.25 -4.95 Q-5.95 -3.7 -6.05 -2.5 L-6.05 -1.6 -6.05 -1.4 -6.0 -0.95 -5.95 -0.65 -5.9 -0.45 -5.8 -0.15 -5.65 0.2 M2.9 -9.05 L3.85 -9.4 Q4.95 -8.9 5.6 -7.15 L5.75 -6.85 M-3.05 15.2 L0.5 15.25 Q6.1 14.95 5.75 12.8 L5.45 11.85 Q6.05 11.15 6.1 9.85 5.75 7.5 5.85 5.9 L5.85 3.9 5.8 1.85 5.9 1.1 M-5.6 0.25 L-4.65 2.55 -4.6 2.6 -4.65 2.6 -5.0 5.95 -5.05 6.85 -1.5 7.15 0.85 10.65 Q-2.7 11.9 -5.65 10.8 L-5.8 11.3 -5.3 12.0 -4.7 12.65 Q-5.5 12.95 -5.5 14.0 -5.45 15.15 -3.05 15.2 M-6.2 -1.8 L-6.05 -1.6 M-6.2 -1.8 L-6.4 -1.9 -6.9 -1.85 -7.0 -1.8 -7.25 -1.45 -7.2 -1.0 -7.15 -0.9 -6.85 -0.7 -6.35 -0.7 -6.0 -0.95 M-5.05 6.85 L-5.4 6.85 -6.35 10.05 -5.65 10.75 -5.65 10.8" fill="none" stroke="#38575f" stroke-linecap="round" stroke-linejoin="round" stroke-width="0.05"/>
    <path d="M-4.75 -6.35 Q-6.5 -4.2 -7.0 -1.8" fill="none" stroke="#dde7ea" stroke-linecap="round" stroke-linejoin="round" stroke-width="0.05"/>
  </g>
</svg>
