<?xml version="1.0" encoding="UTF-8" standalone="no"?>
<svg xmlns:xlink="http://www.w3.org/1999/xlink" height="26.85px" width="14.1px" xmlns="http://www.w3.org/2000/svg">
  <g transform="matrix(1.0, 0.0, 0.0, 1.0, 7.85, 11.0)">
    <path d="M5.85 -6.3 L5.85 -6.2 6.05 -3.65 5.8 1.85 5.8 7.05 Q3.85 6.85 1.85 5.4 L-0.4 3.7 -0.85 3.45 -1.15 3.3 Q-3.15 2.35 -4.65 2.55 L-5.65 0.2 -5.1 0.65 Q-3.8 1.2 -0.95 -0.75 L-0.55 -0.9 0.1 -1.4 0.9 -2.15 1.6 -3.05 Q4.05 -5.75 5.85 -6.3" fill="#1e2225" fill-rule="evenodd" stroke="none"/>
    <path d="M-5.35 9.85 L-5.35 9.6 -4.65 2.55 -1.9 4.25 -0.7 4.65 Q2.4 5.9 1.7 10.0 L-5.35 9.85 M-5.5 -6.2 L-5.1 -6.35 -4.7 -6.25 -4.55 -5.9 Q-4.55 -5.65 -4.7 -5.5 -4.85 -5.3 -5.1 -5.3 L-5.5 -5.45 -5.65 -5.8 -5.5 -6.2 M-6.8 11.95 L-7.0 11.5 -6.8 11.05 -6.3 10.85 -5.8 11.05 -5.6 11.5 -5.8 11.95 -6.3 12.15 Q-6.6 12.15 -6.8 11.95 M-4.5 13.95 L-4.5 13.9 -4.35 13.95 -4.5 13.95" fill="#ffffff" fill-rule="evenodd" stroke="none"/>
    <path d="M-0.95 -0.75 Q-3.8 1.2 -5.1 0.65 L-5.65 0.2 Q-2.7 0.05 -0.95 -0.75" fill="#3c4147" fill-rule="evenodd" stroke="none"/>
    <path d="M-4.2 14.0 L-4.5 14.0 -4.8 13.95 -4.5 13.95 -4.5 14.0 -4.5 13.95 -4.35 13.95 -4.2 14.0" fill="#f2f2f2" fill-rule="evenodd" stroke="none"/>
    <path d="M1.25 14.55 Q-1.65 14.95 -4.2 14.0 L-4.35 13.95 -4.5 13.9 -4.5 13.95 -4.8 13.95 -4.5 14.0 -5.15 15.85 -6.15 13.8 -5.5 13.3 -5.1 12.5 -5.05 12.0 Q-5.05 11.45 -5.3 11.0 L-5.55 10.65 -6.0 10.3 -5.65 9.85 -5.35 9.85 1.7 10.0 Q2.15 11.75 1.25 14.55 M-5.65 0.2 Q-6.35 -1.0 -5.95 -2.75 L-5.8 -2.7 Q-5.25 -2.55 -4.65 -3.0 -4.05 -3.5 -3.8 -4.25 -3.6 -5.0 -3.9 -5.7 L-4.45 -6.4 -3.9 -7.35 -4.1 -7.65 Q-4.3 -8.4 -3.1 -9.25 -1.9 -10.1 0.0 -10.6 L3.35 -10.95 Q4.8 -10.85 5.0 -10.15 5.15 -9.55 4.3 -8.85 L3.95 -8.6 Q2.9 -7.8 1.3 -7.3 2.95 -5.9 1.6 -3.05 L0.9 -2.15 0.1 -1.4 -0.55 -0.9 -0.95 -0.75 Q-2.7 0.05 -5.65 0.2 M1.3 -7.3 L0.9 -7.2 -2.45 -6.85 Q-3.5 -6.95 -3.9 -7.35 -3.5 -6.95 -2.45 -6.85 L0.9 -7.2 1.3 -7.3 M-2.75 -8.4 Q0.2 -8.2 3.5 -10.4 0.2 -8.2 -2.75 -8.4" fill="#5ca8a4" fill-rule="evenodd" stroke="none"/>
    <path d="M4.3 -8.85 L5.1 -8.05 5.25 -7.9 5.85 -6.45 5.85 -6.3 Q4.05 -5.75 1.6 -3.05 2.95 -5.9 1.3 -7.3 2.9 -7.8 3.95 -8.6 L4.3 -8.85 M5.6 10.1 L6.05 10.1 Q6.6 11.7 5.75 13.25 3.4 14.25 1.25 14.55 2.15 11.75 1.7 10.0 L5.6 10.1" fill="#488681" fill-rule="evenodd" stroke="none"/>
    <path d="M-6.15 13.8 L-6.45 13.85 Q-7.05 13.85 -7.5 13.3 -7.9 12.75 -7.85 12.0 -7.9 11.25 -7.5 10.7 -7.05 10.2 -6.45 10.2 L-6.0 10.3 -5.55 10.65 -5.3 11.0 Q-5.05 11.45 -5.05 12.0 L-5.1 12.5 -5.5 13.3 -6.15 13.8 M-5.95 -2.75 L-6.7 -3.55 Q-7.0 -4.25 -6.75 -5.0 -6.55 -5.8 -6.0 -6.25 -5.4 -6.7 -4.8 -6.5 L-4.45 -6.4 -3.9 -5.7 Q-3.6 -5.0 -3.8 -4.25 -4.05 -3.5 -4.65 -3.0 -5.25 -2.55 -5.8 -2.7 L-5.95 -2.75 M-5.5 -6.2 L-5.65 -5.8 -5.5 -5.45 -5.1 -5.3 Q-4.85 -5.3 -4.7 -5.5 -4.55 -5.65 -4.55 -5.9 L-4.7 -6.25 -5.1 -6.35 -5.5 -6.2 M-6.8 11.95 Q-6.6 12.15 -6.3 12.15 L-5.8 11.95 -5.6 11.5 -5.8 11.05 -6.3 10.85 -6.8 11.05 -7.0 11.5 -6.8 11.95" fill="#8bd7fe" fill-rule="evenodd" stroke="none"/>
    <path d="M5.8 7.05 L5.6 10.1 1.7 10.0 Q2.4 5.9 -0.7 4.65 L-1.9 4.25 -4.65 2.55 Q-3.15 2.35 -1.15 3.3 L-0.85 3.45 -0.4 3.7 1.85 5.4 Q3.85 6.85 5.8 7.05" fill="#e0e0e0" fill-rule="evenodd" stroke="none"/>
    <path d="M5.85 -6.3 L5.85 -6.2 6.05 -3.65 5.8 1.85 5.8 7.05 5.6 10.1 M-4.2 14.0 L-4.5 14.0 -4.5 13.95 M-5.35 9.85 L-5.35 9.6 -4.65 2.55 -5.65 0.2" fill="none" stroke="#000000" stroke-linecap="round" stroke-linejoin="round" stroke-width="0.05"/>
    <path d="M4.3 -8.85 L5.1 -8.05 5.25 -7.9 5.85 -6.45 5.85 -6.3 M5.6 10.1 L6.05 10.1 Q6.6 11.7 5.75 13.25 3.4 14.25 1.25 14.55 -1.65 14.95 -4.2 14.0 L-4.35 13.95 -4.5 13.9 -4.5 13.95 -4.8 13.95 -4.5 14.0 -5.15 15.85 -6.15 13.8 -5.5 13.3 -5.1 12.5 -5.05 12.0 Q-5.05 11.45 -5.3 11.0 L-5.55 10.65 -6.0 10.3 -5.65 9.85 -5.35 9.85 1.7 10.0 5.6 10.1 M-5.65 0.2 Q-6.35 -1.0 -5.95 -2.75 M-4.45 -6.4 L-3.9 -7.35 -4.1 -7.65 Q-4.3 -8.4 -3.1 -9.25 -1.9 -10.1 0.0 -10.6 L3.35 -10.95 Q4.8 -10.85 5.0 -10.15 5.15 -9.55 4.3 -8.85 L3.95 -8.6 Q2.9 -7.8 1.3 -7.3 L0.9 -7.2 -2.45 -6.85 Q-3.5 -6.95 -3.9 -7.35 M1.7 10.0 Q2.15 11.75 1.25 14.55 M3.5 -10.4 Q0.2 -8.2 -2.75 -8.4" fill="none" stroke="#2e813e" stroke-linecap="round" stroke-linejoin="round" stroke-width="0.05"/>
  </g>
</svg>
