<?xml version="1.0" encoding="UTF-8" standalone="no"?>
<svg xmlns:xlink="http://www.w3.org/1999/xlink" height="24.55px" width="12.15px" xmlns="http://www.w3.org/2000/svg">
  <g transform="matrix(1.0, 0.0, 0.0, 1.0, 6.1, 9.3)">
    <path d="M-3.6 1.0 L-3.6 1.05 -3.6 1.0" fill="#737373" fill-rule="evenodd" stroke="none"/>
    <path d="M0.6 -8.2 L2.5 -8.6 Q3.15 -8.85 3.6 -9.2 L4.2 -9.25 4.55 -8.65 5.1 -8.05 5.25 -7.9 5.4 -7.65 5.85 -6.45 5.85 -6.3 5.85 -6.2 5.9 -5.65 6.05 -3.65 6.05 -3.2 5.8 1.85 5.85 5.9 5.7 10.75 5.65 11.4 5.6 12.75 5.5 13.7 Q4.7 15.0 0.5 15.25 L-2.4 15.2 -2.45 15.2 -3.8 15.1 -3.75 14.35 -3.85 12.8 -3.9 11.6 -3.9 8.1 -3.9 5.75 -2.4 5.7 Q-0.05 5.1 2.0 0.0 L2.0 -2.7 Q2.2 -3.45 2.05 -4.3 L1.35 -5.95 0.9 -6.6 0.75 -6.75 Q0.85 -7.75 0.6 -8.2" fill="#333333" fill-rule="evenodd" stroke="none"/>
    <path d="M-2.7 -6.55 L-2.7 -6.6 -2.35 -7.25 -1.5 -8.05 0.15 -8.15 0.6 -8.2 Q0.85 -7.75 0.75 -6.75 L0.9 -6.6 1.35 -5.95 2.05 -4.3 Q2.2 -3.45 2.0 -2.7 L2.0 0.0 Q-0.05 5.1 -2.4 5.7 L-3.9 5.75 -3.6 1.05 -3.6 1.0 -3.2 -3.05 -2.7 -6.55" fill="#5e5e5e" fill-rule="evenodd" stroke="none"/>
    <path d="M-3.75 14.35 Q-4.3 14.5 -4.8 14.1 L-5.0 11.05 -4.95 5.95 -4.8 4.3 -4.75 3.7 -4.65 2.6 -4.6 2.6 -4.65 2.55 -4.85 2.1 -3.6 1.05 -3.9 5.75 -3.9 8.1 -3.9 11.6 -3.85 12.8 -3.75 14.35" fill="#f2f2f2" fill-rule="evenodd" stroke="none"/>
    <path d="M-4.85 2.1 L-5.6 0.25 -5.65 0.2 -5.8 -0.15 -5.9 -0.45 Q-6.15 -1.15 -6.05 -1.95 -5.95 -3.8 -4.45 -6.45 L-4.3 -6.7 -2.7 -6.55 -3.2 -3.05 -3.6 1.0 -3.6 1.05 -4.85 2.1" fill="#ffffff" fill-rule="evenodd" stroke="none"/>
    <path d="M-2.7 -6.55 L-2.7 -6.6" fill="none" stroke="#666666" stroke-linecap="round" stroke-linejoin="round" stroke-width="0.05"/>
    <path d="M0.6 -8.2 L2.5 -8.6 Q3.15 -8.85 3.6 -9.2 L4.2 -9.25 4.55 -8.65 5.1 -8.05 5.25 -7.9 5.4 -7.65 5.85 -6.45 5.85 -6.3 5.85 -6.2 5.9 -5.65 6.05 -3.65 6.05 -3.2 5.8 1.85 5.85 5.9 5.7 10.75 5.65 11.4 5.6 12.75 5.5 13.7 Q4.7 15.0 0.5 15.25 L-2.4 15.2 -2.45 15.2 -3.8 15.1 -3.75 14.35 -3.85 12.8 -3.9 11.6 -3.9 8.1 -3.9 5.75 -3.6 1.05 -3.6 1.0 -3.6 1.05 M-4.65 2.6 L-4.6 2.6 M-2.7 -6.6 L-2.35 -7.25 -1.5 -8.05 0.15 -8.15 0.6 -8.2 M-2.7 -6.55 L-3.2 -3.05 -3.6 1.0" fill="none" stroke="#000000" stroke-linecap="round" stroke-linejoin="round" stroke-width="0.05"/>
    <path d="M-3.75 14.35 Q-4.3 14.5 -4.8 14.1 L-5.0 11.05 -4.95 5.95 -4.8 4.3 -4.75 3.7 -4.65 2.6 M-4.65 2.55 L-4.85 2.1 -5.6 0.25 -5.65 0.2 -5.8 -0.15 -5.9 -0.45 Q-6.15 -1.15 -6.05 -1.95 -5.95 -3.8 -4.45 -6.45 L-4.3 -6.7 -2.7 -6.55 Z" fill="none" stroke="#999999" stroke-linecap="round" stroke-linejoin="round" stroke-width="0.05"/>
  </g>
</svg>
