<?xml version="1.0" encoding="UTF-8" standalone="no"?>
<svg xmlns:xlink="http://www.w3.org/1999/xlink" height="27.2px" width="13.15px" xmlns="http://www.w3.org/2000/svg">
  <g transform="matrix(1.0, 0.0, 0.0, 1.0, 7.0, 11.45)">
    <path d="M-4.5 11.2 L1.5 10.9 0.75 13.05 Q-1.2 14.0 -4.55 13.95 L-4.4 12.55 -4.5 11.2" fill="#ffffff" fill-rule="evenodd" stroke="none"/>
    <path d="M5.6 10.0 L5.6 10.05 Q6.0 12.15 5.3 13.25 L3.75 13.95 Q0.8 14.9 -4.85 14.9 L-4.8 14.8 -4.55 14.0 -4.8 13.95 -4.55 13.95 Q-1.2 14.0 0.75 13.05 L1.5 10.9 5.6 10.0 M-6.0 0.25 L-6.1 0.1 -6.05 0.15 -6.0 0.25 M-4.55 14.0 L-4.55 13.95 -4.55 14.0" fill="#f2f2f2" fill-rule="evenodd" stroke="none"/>
    <path d="M-2.75 -7.8 L-2.75 -7.75 -2.8 -7.75 -2.8 -7.8 -2.75 -7.8" fill="#877b51" fill-rule="evenodd" stroke="none"/>
    <path d="M-6.05 0.15 Q-6.4 -1.4 -6.05 -2.95 -5.5 -4.8 -4.0 -7.2 L-4.2 -8.25 -4.2 -8.45 -3.15 -9.1 -2.8 -7.8 -2.8 -7.75 Q-5.95 -2.25 -4.2 0.4 L-3.35 0.55 -5.25 0.65 -6.0 0.25 -6.05 0.15" fill="#8bd7fe" fill-rule="evenodd" stroke="none"/>
    <path d="M-4.85 14.9 Q-5.2 15.7 -5.7 15.75 L-6.65 14.8 Q-7.05 13.9 -7.0 12.6 -7.05 11.25 -6.65 10.3 -6.2 9.35 -5.7 9.35 L-5.35 9.45 -4.8 10.3 -4.5 11.2 -4.4 12.55 -4.55 13.95 -4.8 13.95 -4.55 14.0 -4.8 14.8 -4.85 14.9 M-6.1 10.5 Q-5.8 10.5 -5.65 11.1 L-5.45 12.7 -5.65 14.2 Q-5.8 14.85 -6.1 14.85 L-6.5 14.2 -6.7 12.7 -6.5 11.1 -6.1 10.5 -6.5 11.1 -6.7 12.7 -6.5 14.2 -6.1 14.85 Q-5.8 14.85 -5.65 14.2 L-5.45 12.7 -5.65 11.1 Q-5.8 10.5 -6.1 10.5" fill="#8c9aff" fill-rule="evenodd" stroke="none"/>
    <path d="M-5.35 9.45 L-4.65 2.55 -1.9 4.25 -0.7 4.65 Q2.75 6.05 1.5 10.9 L-4.5 11.2 -4.8 10.3 -5.35 9.45 M-4.2 -8.45 L-3.8 -9.2 Q-2.35 -10.25 -0.25 -10.8 0.4 -10.0 0.0 -8.85 L-0.2 -8.8 Q3.9 -6.75 1.0 -1.95 L-0.95 -0.75 Q-2.35 0.2 -3.35 0.55 L-4.2 0.4 Q-5.95 -2.25 -2.8 -7.75 L-2.75 -7.75 -2.75 -7.8 -2.8 -7.8 -3.15 -9.1 -4.2 -8.45 M-2.75 -7.8 L-2.25 -8.05 -0.2 -8.8 -2.25 -8.05 -2.75 -7.8" fill="#5ca8a4" fill-rule="evenodd" stroke="none"/>
    <path d="M-0.25 -10.8 L3.05 -11.35 Q4.45 -10.75 3.9 -9.35 L5.1 -8.05 5.25 -7.9 5.85 -6.45 5.85 -6.3 5.85 -6.2 6.05 -3.65 6.0 -0.45 Q0.95 1.3 -3.35 0.55 -2.35 0.2 -0.95 -0.75 L1.0 -1.95 Q3.9 -6.75 -0.2 -8.8 L0.0 -8.85 Q0.4 -10.0 -0.25 -10.8 M5.85 1.2 L5.8 1.85 Q5.95 5.45 5.6 10.0 L1.5 10.9 Q2.75 6.05 -0.7 4.65 L-1.9 4.25 -4.65 2.55 -4.8 2.15 -1.05 2.7 Q3.95 3.1 5.85 1.2 M3.9 -9.35 L0.0 -8.85 3.9 -9.35" fill="#488681" fill-rule="evenodd" stroke="none"/>
    <path d="M6.0 -0.45 L5.85 1.2 Q3.95 3.1 -1.05 2.7 L-4.8 2.15 Q-5.85 1.8 -5.65 1.35 L-6.0 0.25 -5.25 0.65 -3.35 0.55 Q0.95 1.3 6.0 -0.45" fill="#24a1e0" fill-rule="evenodd" stroke="none"/>
    <path d="M5.6 10.0 L5.6 10.05 Q6.0 12.15 5.3 13.25 L3.75 13.95 Q0.8 14.9 -4.85 14.9 -5.2 15.7 -5.7 15.75 L-6.65 14.8 Q-7.05 13.9 -7.0 12.6 -7.05 11.25 -6.65 10.3 -6.2 9.35 -5.7 9.35 L-5.35 9.45 -4.8 10.3 -4.5 11.2 1.5 10.9 5.6 10.0 M-4.65 2.55 L-4.8 2.15 M-2.75 -7.8 L-2.8 -7.8 M-6.05 0.15 L-6.0 0.25 M-6.1 10.5 L-6.5 11.1 -6.7 12.7 -6.5 14.2 -6.1 14.85 Q-5.8 14.85 -5.65 14.2 L-5.45 12.7 -5.65 11.1 Q-5.8 10.5 -6.1 10.5 M-4.55 13.95 L-4.55 14.0 -4.8 14.8 -4.85 14.9 M-4.55 13.95 L-4.4 12.55 -4.5 11.2 M0.0 -8.85 L-0.2 -8.8" fill="none" stroke="#000000" stroke-linecap="round" stroke-linejoin="round" stroke-width="0.05"/>
    <path d="M-0.25 -10.8 L3.05 -11.35 Q4.45 -10.75 3.9 -9.35 L5.1 -8.05 5.25 -7.9 5.85 -6.45 5.85 -6.3 5.85 -6.2 6.05 -3.65 6.0 -0.45 5.85 1.2 5.8 1.85 Q5.95 5.45 5.6 10.0 M-5.35 9.45 L-4.65 2.55 M-4.8 2.15 Q-5.85 1.8 -5.65 1.35 L-6.0 0.25 M-6.05 0.15 Q-6.4 -1.4 -6.05 -2.95 -5.6 -5.05 -4.0 -7.2 L-4.2 -8.25 -4.2 -8.45 -3.8 -9.2 Q-2.35 -10.25 -0.25 -10.8 M0.0 -8.85 L3.9 -9.35 M-0.2 -8.8 L-2.25 -8.05 -2.75 -7.8" fill="none" stroke="#2e813e" stroke-linecap="round" stroke-linejoin="round" stroke-width="0.25"/>
  </g>
</svg>
