<?xml version="1.0" encoding="UTF-8" standalone="no"?>
<svg xmlns:xlink="http://www.w3.org/1999/xlink" height="16.3px" width="13.3px" xmlns="http://www.w3.org/2000/svg">
  <g transform="matrix(1.0, 0.0, 0.0, 1.0, 6.65, 8.15)">
    <path d="M-2.75 8.15 L-2.8 8.15 Q-5.3 6.2 -5.85 4.7 L-6.5 0.35 -6.65 -0.9 -6.45 -2.55 Q-6.0 -4.55 -4.55 -6.05 -2.6 -8.15 0.2 -8.15 2.95 -8.15 4.85 -6.05 L5.4 -5.35 Q7.2 -0.3 1.35 1.5 L2.35 4.5 Q1.1 7.15 -2.75 8.15 M3.35 2.15 L3.45 1.9 Q3.75 1.35 4.35 1.25 4.95 1.1 5.2 1.7 L5.35 2.9 5.3 3.25 Q5.1 2.6 4.4 2.3 L4.1 2.65 4.0 2.85 Q3.35 2.95 3.25 2.55 L3.25 2.35 3.3 2.3 3.35 2.15 M-4.95 1.45 L-5.05 0.35 Q-6.0 -0.7 -6.25 1.35 -5.85 2.3 -5.0 2.7 L-4.95 1.45 Q-4.5 3.3 -5.05 4.1 -4.5 3.3 -4.95 1.45 M-4.3 4.65 L-5.05 4.1 Q-5.1 4.9 -4.3 4.65 M-2.8 3.5 L-0.3 3.65 Q-0.6 1.35 -2.3 1.35 -2.75 2.15 -2.8 3.5 M-2.05 6.6 Q-3.75 6.3 -4.7 5.6 -3.75 6.3 -2.05 6.6" fill="#a56c5f" fill-rule="evenodd" stroke="none"/>
    <path d="M5.4 -5.35 Q6.25 -4.15 6.55 -2.6 L6.55 -2.35 6.65 -0.9 Q6.55 1.5 5.25 3.45 L5.2 3.75 5.1 4.05 5.05 4.15 5.05 4.2 4.85 4.6 4.7 4.75 4.4 4.95 4.35 5.0 4.15 5.05 4.05 5.05 2.95 6.7 2.8 6.75 Q-0.55 8.1 -2.4 8.15 L-2.75 8.15 Q1.1 7.15 2.35 4.5 L1.35 1.5 Q7.2 -0.3 5.4 -5.35 M5.25 3.45 L5.3 3.25 5.25 3.45 M5.3 3.25 L5.35 2.9 5.2 1.7 Q4.95 1.1 4.35 1.25 3.75 1.35 3.45 1.9 L3.35 2.15 3.3 2.3 3.25 2.35 3.25 2.55 Q3.35 2.95 4.0 2.85 L4.1 2.65 4.4 2.3 Q5.1 2.6 5.3 3.25 M4.4 4.0 L3.85 3.5 3.85 3.35 4.0 2.85 3.85 3.35 3.85 3.5 4.4 4.0 M3.85 4.25 L3.85 3.5 3.85 4.25 M-5.05 4.1 L-4.3 4.65 Q-5.1 4.9 -5.05 4.1" fill="#784d43" fill-rule="evenodd" stroke="none"/>
    <path d="M-2.75 8.15 L-2.8 8.15 Q-5.3 6.2 -5.85 4.7 L-6.5 0.35 -6.65 -0.9 -6.45 -2.55 Q-6.0 -4.55 -4.55 -6.05 -2.6 -8.15 0.2 -8.15 2.95 -8.15 4.85 -6.05 L5.4 -5.35 Q6.25 -4.15 6.55 -2.6 L6.55 -2.35 6.65 -0.9 Q6.55 1.5 5.25 3.45 L5.2 3.75 5.1 4.05 5.05 4.15 5.05 4.2 4.85 4.6 4.7 4.75 4.4 4.95 4.35 5.0 4.15 5.05 4.05 5.05 2.95 6.7 2.8 6.75 Q-0.55 8.1 -2.4 8.15 L-2.75 8.15 M5.3 3.25 L5.25 3.45 M3.35 2.15 L3.45 1.9 Q3.75 1.35 4.35 1.25 4.95 1.1 5.2 1.7 L5.35 2.9 5.3 3.25 M4.4 2.3 L4.1 2.65 4.0 2.85 3.85 3.35 3.85 3.5 4.4 4.0 M3.85 3.5 L3.85 4.25 M-4.95 1.45 L-5.0 2.7 Q-5.85 2.3 -6.25 1.35 -6.0 -0.7 -5.05 0.35 L-4.95 1.45 Q-4.5 3.3 -5.05 4.1 -5.1 4.9 -4.3 4.65 M-2.8 3.5 L-0.3 3.65 Q-0.6 1.35 -2.3 1.35 -2.75 2.15 -2.8 3.5 M-4.7 5.6 Q-3.75 6.3 -2.05 6.6" fill="none" stroke="#68413c" stroke-linecap="round" stroke-linejoin="round" stroke-width="0.05"/>
  </g>
</svg>
