<?xml version="1.0" encoding="UTF-8" standalone="no"?>
<svg xmlns:xlink="http://www.w3.org/1999/xlink" height="28.4px" width="18.4px" xmlns="http://www.w3.org/2000/svg">
  <g transform="matrix(1.0, 0.0, 0.0, 1.0, 9.2, 14.2)">
    <path d="M-3.0 -9.2 L-2.95 -9.2 -2.95 -9.15 -3.0 -9.2 M3.0 -9.2 L3.0 -9.15 3.0 -9.2 3.0 -9.15 3.0 -9.2" fill="#eebf5a" fill-rule="evenodd" stroke="none"/>
    <path d="M7.3 11.1 L7.3 12.55 Q4.0 13.9 0.2 14.2 L0.0 14.2 -1.75 14.0 Q-3.7 13.85 -7.3 12.75 L-7.3 11.05 Q-4.8 12.05 -2.95 12.2 L0.0 12.4 0.2 12.4 Q3.9 12.35 7.3 11.1" fill="#fde0bd" fill-rule="evenodd" stroke="none"/>
    <path d="M-2.85 -12.85 Q-1.85 -14.05 0.0 -14.2 1.5 -14.15 2.85 -12.85 2.65 -10.65 3.0 -9.2 6.0 -9.2 9.0 -8.35 9.35 -4.65 9.15 -2.75 8.95 -0.85 7.85 0.35 L7.6 3.75 6.85 5.75 6.75 5.9 6.7 5.95 Q6.45 9.1 7.3 11.1 3.9 12.35 0.2 12.4 L0.0 12.4 -2.95 12.2 Q-4.8 12.05 -7.3 11.05 -6.45 9.05 -6.7 5.9 L-6.85 5.7 -7.6 3.75 -7.8 0.25 Q-8.95 -0.9 -9.15 -2.85 -9.35 -4.75 -9.0 -8.45 L-3.0 -9.2 -2.95 -9.15 -2.95 -9.2 Q-2.65 -10.65 -2.85 -12.85 M3.0 -9.15 L3.0 -9.2 3.0 -9.15 3.0 -8.65 3.0 -9.15 M-6.25 1.45 L-6.95 1.0 -7.8 0.25 -6.95 1.0 -6.25 1.45 M6.25 1.5 L6.95 1.05 7.85 0.35 6.95 1.05 6.25 1.5 M4.1 10.1 L6.7 5.95 4.1 10.1 M-3.8 9.8 L-6.7 5.9 -3.8 9.8 M0.0 -8.25 L0.0 12.4 0.0 -8.25 M2.2 -2.45 Q2.85 0.15 4.4 1.6 2.85 0.15 2.2 -2.45 M-2.55 -2.35 Q-3.2 0.25 -4.75 1.75 -3.2 0.25 -2.55 -2.35" fill="#fbcd95" fill-rule="evenodd" stroke="none"/>
    <path d="M-3.0 -9.2 L-2.95 -9.2" fill="none" stroke="#003399" stroke-linecap="round" stroke-linejoin="round" stroke-width="0.05"/>
    <path d="M2.85 -12.85 Q2.65 -10.65 3.0 -9.2 6.0 -9.2 9.0 -8.35 9.35 -4.65 9.15 -2.75 8.95 -0.85 7.85 0.35 L7.6 3.75 6.85 5.75 6.75 5.9 6.7 5.95 Q6.45 9.1 7.3 11.1 L7.3 12.55 Q4.0 13.9 0.2 14.2 L0.0 14.2 -1.75 14.0 Q-3.7 13.85 -7.3 12.75 L-7.3 11.05 Q-6.45 9.05 -6.7 5.9 L-6.85 5.7 -7.6 3.75 -7.8 0.25 Q-8.95 -0.9 -9.15 -2.85 -9.35 -4.75 -9.0 -8.45 L-3.0 -9.2 -2.95 -9.15 -2.95 -9.2 Q-2.65 -10.65 -2.85 -12.85 M3.0 -9.15 L3.0 -9.2 3.0 -9.15 3.0 -9.2 M3.0 -9.15 L3.0 -8.65 M-7.8 0.25 L-6.95 1.0 -6.25 1.45 M-7.3 11.05 Q-4.8 12.05 -2.95 12.2 L0.0 12.4 0.0 -8.25 M-6.7 5.9 L-3.8 9.8 M6.7 5.95 L4.1 10.1 M7.85 0.35 L6.95 1.05 6.25 1.5 M0.0 12.4 L0.2 12.4 Q3.9 12.35 7.3 11.1 M-4.75 1.75 Q-3.2 0.25 -2.55 -2.35 M4.4 1.6 Q2.85 0.15 2.2 -2.45" fill="none" stroke="#d7995e" stroke-linecap="round" stroke-linejoin="round" stroke-width="0.05"/>
  </g>
</svg>
