<?xml version="1.0" encoding="UTF-8" standalone="no"?>
<svg xmlns:xlink="http://www.w3.org/1999/xlink" height="28.65px" width="9.05px" xmlns="http://www.w3.org/2000/svg">
  <g transform="matrix(1.0, 0.0, 0.0, 1.0, 3.95, 14.35)">
    <path d="M-3.95 8.8 L-3.9 -3.35 -3.9 -9.55 Q-3.65 -12.95 -1.6 -14.3 2.05 -14.75 3.65 -10.2 L4.4 -3.35 4.65 -0.1 4.85 3.0 5.0 6.75 5.1 10.1 5.1 10.3 Q1.75 12.5 -3.95 8.8 1.75 12.5 5.1 10.3 L5.1 12.65 5.1 12.8 5.1 12.65 4.95 13.25 4.65 13.6 Q3.8 14.3 1.35 14.3 -0.1 14.1 -1.35 13.45 L-1.75 13.25 -2.85 12.5 -3.3 12.15 -3.5 12.0 -3.95 11.6 -3.95 8.8" fill="#97b3c1" fill-rule="evenodd" stroke="none"/>
    <path d="M5.1 10.3 L5.1 10.1 5.0 6.75 4.85 3.0 4.65 -0.1 4.4 -3.35 3.65 -10.2 Q2.05 -14.75 -1.6 -14.3 -3.65 -12.95 -3.9 -9.55 L-3.9 -3.35 -3.95 8.8 Q1.75 12.5 5.1 10.3 L5.1 12.65 5.1 12.8 M5.1 12.65 L4.95 13.25 4.65 13.6 Q3.8 14.3 1.35 14.3 -0.1 14.1 -1.35 13.45 L-1.75 13.25 -2.85 12.5 -3.3 12.15 M-3.5 12.0 L-3.95 11.6 -3.95 8.8" fill="none" stroke="#38575f" stroke-linecap="round" stroke-linejoin="round" stroke-width="0.05"/>
    <path d="M-3.3 12.15 L-3.5 12.0" fill="none" stroke="#38575f" stroke-linecap="round" stroke-linejoin="round" stroke-width="0.05"/>
  </g>
</svg>
