<?xml version="1.0" encoding="UTF-8" standalone="no"?>
<svg xmlns:xlink="http://www.w3.org/1999/xlink" height="29.25px" width="10.85px" xmlns="http://www.w3.org/2000/svg">
  <g transform="matrix(1.0, 0.0, 0.0, 1.0, 5.4, 14.35)">
    <path d="M-5.1 -9.5 L-5.1 -9.55 -5.05 -9.5 -5.1 -9.5" fill="#8e8e8e" fill-rule="evenodd" stroke="none"/>
    <path d="M4.45 -10.55 L4.6 -10.2 5.0 -6.35 Q4.0 -5.2 0.2 -4.35 L-0.05 -4.4 Q-2.3 -4.65 -3.4 -5.4 L-5.2 -7.0 -5.1 -9.5 -5.05 -9.5 Q-3.5 -7.6 -0.15 -7.25 L0.45 -7.2 Q3.65 -7.4 4.45 -10.55 M5.3 9.9 L5.15 12.65 Q5.15 14.3 0.2 14.9 L-0.05 14.85 Q-2.3 14.35 -3.4 13.5 L-5.25 11.6 -5.3 10.15 -5.3 8.85 -3.4 10.75 Q-2.3 11.6 -0.05 12.1 L0.2 12.15 Q5.15 11.55 5.3 9.9" fill="#877b51" fill-rule="evenodd" stroke="none"/>
    <path d="M-5.1 -9.55 Q-4.6 -12.95 -1.9 -14.3 2.65 -14.75 4.45 -10.55 3.65 -7.4 0.45 -7.2 L-0.15 -7.25 Q-3.5 -7.6 -5.05 -9.5 L-5.1 -9.55" fill="#302f34" fill-rule="evenodd" stroke="none"/>
    <path d="M5.0 -6.35 L5.1 -5.05 Q5.65 2.7 5.3 9.9 5.15 11.55 0.2 12.15 L-0.05 12.1 Q-2.3 11.6 -3.4 10.75 L-5.3 8.85 Q-5.55 1.1 -5.2 -6.6 L-5.2 -7.0 -3.4 -5.4 Q-2.3 -4.65 -0.05 -4.4 L0.2 -4.35 Q4.0 -5.2 5.0 -6.35" fill="#454b3f" fill-rule="evenodd" stroke="none"/>
    <path d="M4.45 -10.55 L4.6 -10.2 5.0 -6.35 5.1 -5.05 Q5.65 2.7 5.3 9.9 L5.15 12.65 Q5.15 14.3 0.2 14.9 L-0.05 14.85 Q-2.3 14.35 -3.4 13.5 L-5.25 11.6 -5.3 10.15 -5.3 8.85 Q-5.55 1.1 -5.2 -6.6 L-5.2 -7.0 -5.1 -9.5 -5.05 -9.5 -5.1 -9.55 Q-4.6 -12.95 -1.9 -14.3 2.65 -14.75 4.45 -10.55 3.65 -7.4 0.45 -7.2 L-0.15 -7.25 Q-3.5 -7.6 -5.05 -9.5" fill="none" stroke="#000000" stroke-linecap="round" stroke-linejoin="round" stroke-width="0.05"/>
    <path d="M-5.1 -9.5 L-5.1 -9.55" fill="none" stroke="#000000" stroke-linecap="round" stroke-linejoin="round" stroke-width="0.05"/>
  </g>
</svg>
