<?xml version="1.0" encoding="UTF-8" standalone="no"?>
<svg xmlns:xlink="http://www.w3.org/1999/xlink" height="28.45px" width="9.95px" xmlns="http://www.w3.org/2000/svg">
  <g transform="matrix(1.0, 0.0, 0.0, 1.0, 5.05, 14.85)">
    <path d="M2.7 12.5 L2.6 11.25 2.7 10.65 2.65 11.25 Q2.6 11.95 2.7 12.5" fill="#224156" fill-rule="evenodd" stroke="none"/>
    <path d="M2.9 -14.05 Q1.6 -13.35 0.3 -13.25 -1.55 -13.1 -3.35 -14.1 -0.8 -15.65 2.9 -14.05" fill="#000000" fill-rule="evenodd" stroke="none"/>
    <path d="M0.3 -13.25 Q1.6 -13.35 2.9 -14.05 5.8 -7.3 4.5 -0.1 3.55 5.1 3.1 9.4 L2.95 9.65 2.85 10.0 Q1.55 9.15 0.3 9.05 L0.3 -13.25 0.3 9.05 Q-0.95 8.9 -2.15 9.5 L-2.2 9.1 -2.5 8.5 Q-2.9 0.75 -4.35 -2.6 -6.1 -6.7 -3.35 -14.1 -1.55 -13.1 0.3 -13.25 M2.7 12.6 Q0.35 14.55 -2.3 12.1 L-2.3 12.05 -2.3 12.0 Q0.2 11.55 2.7 12.5 L2.7 12.6" fill="#8a4343" fill-rule="evenodd" stroke="none"/>
    <path d="M0.3 9.05 Q1.55 9.15 2.85 10.0 L2.95 9.65 3.1 9.4 3.45 9.1 Q3.75 9.15 3.9 9.8 L4.05 11.45 3.7 13.0 Q3.5 13.65 3.2 13.6 L2.75 12.85 2.7 12.6 2.7 12.5 Q0.2 11.55 -2.3 12.0 L-2.3 12.05 -2.3 12.1 -2.4 12.35 Q-2.65 13.0 -2.9 12.95 L-3.35 12.2 -3.5 10.55 -3.2 8.95 Q-2.95 8.3 -2.7 8.35 L-2.5 8.5 -2.2 9.1 -2.15 9.5 -2.1 10.8 -2.3 12.0 -2.1 10.8 -2.15 9.5 Q-0.95 8.9 0.3 9.05 M2.85 10.0 L2.85 10.05 2.7 10.65 2.85 10.05 2.85 10.0 M2.7 10.65 L2.6 11.25 2.7 12.5 Q2.6 11.95 2.65 11.25 L2.7 10.65" fill="#d66f64" fill-rule="evenodd" stroke="none"/>
    <path d="M2.9 -14.05 Q1.6 -13.35 0.3 -13.25 -1.55 -13.1 -3.35 -14.1 -6.1 -6.7 -4.35 -2.6 -2.9 0.75 -2.5 8.5 M3.1 9.4 Q3.55 5.1 4.5 -0.1 5.8 -7.3 2.9 -14.05 M2.7 12.6 Q0.35 14.55 -2.3 12.1" fill="none" stroke="#666666" stroke-linecap="round" stroke-linejoin="round" stroke-width="0.05"/>
    <path d="M2.9 -14.05 Q-0.8 -15.65 -3.35 -14.1" fill="none" stroke="#666666" stroke-linecap="round" stroke-linejoin="round" stroke-width="0.05"/>
    <path d="M0.3 9.05 Q1.55 9.15 2.85 10.0 L2.95 9.65 3.1 9.4 3.45 9.1 Q3.75 9.15 3.9 9.8 L4.05 11.45 3.7 13.0 Q3.5 13.65 3.2 13.6 L2.75 12.85 2.7 12.6 2.7 12.5 Q0.2 11.55 -2.3 12.0 L-2.3 12.05 -2.3 12.1 -2.4 12.35 Q-2.65 13.0 -2.9 12.95 L-3.35 12.2 -3.5 10.55 -3.2 8.95 Q-2.95 8.3 -2.7 8.35 L-2.5 8.5 -2.2 9.1 -2.15 9.5 Q-0.95 8.9 0.3 9.05 M2.7 10.65 L2.85 10.05 2.85 10.0 M2.7 12.5 Q2.6 11.95 2.65 11.25 L2.7 10.65 M-2.3 12.0 L-2.1 10.8 -2.15 9.5" fill="none" stroke="#333333" stroke-linecap="round" stroke-linejoin="round" stroke-width="0.05"/>
    <path d="M0.3 -13.25 L0.3 9.05" fill="none" stroke="#000000" stroke-linecap="round" stroke-linejoin="round" stroke-width="0.05"/>
  </g>
</svg>
