<?xml version="1.0" encoding="UTF-8" standalone="no"?>
<svg xmlns:xlink="http://www.w3.org/1999/xlink" height="3.5px" width="4.9px" xmlns="http://www.w3.org/2000/svg">
  <g transform="matrix(1.0, 0.0, 0.0, 1.0, 2.45, 1.75)">
    <path d="M1.75 -0.55 L2.25 -0.2 2.45 0.6 2.25 1.45 1.75 1.75 1.3 1.45 1.1 0.6 1.3 -0.2 Q1.45 -0.55 1.75 -0.55 M1.65 -0.05 L1.45 0.1 Q1.3 0.3 1.3 0.6 1.3 0.9 1.45 1.1 L1.75 1.3 2.1 1.1 2.25 0.6 2.2 0.3 2.15 0.35 2.1 0.4 1.9 0.45 1.65 0.35 1.55 0.15 1.6 -0.05 1.65 -0.05 M-1.7 -0.9 L-1.8 -0.9 -2.0 -0.95 -2.1 -1.15 -2.05 -1.3 -2.05 -1.35 -2.2 -1.2 -2.3 -0.75 -2.2 -0.3 -1.95 -0.1 -1.7 -0.3 -1.6 -0.75 -1.6 -1.0 -1.65 -0.95 -1.7 -0.9 M-2.45 -0.75 L-2.3 -1.45 -1.95 -1.75 -1.55 -1.45 Q-1.4 -1.2 -1.4 -0.75 -1.4 -0.3 -1.55 0.0 L-1.95 0.3 -2.3 0.0 -2.45 -0.75" fill="#339933" fill-rule="evenodd" stroke="none"/>
    <path d="M-1.7 -0.9 L-1.65 -0.95 -1.6 -1.0 -1.6 -0.75 -1.7 -0.3 -1.95 -0.1 -2.2 -0.3 -2.3 -0.75 -2.2 -1.2 -2.05 -1.35 -2.05 -1.3 -2.1 -1.15 -2.0 -0.95 -1.8 -0.9 -1.7 -0.9 M1.65 -0.05 L1.6 -0.05 1.55 0.15 1.65 0.35 1.9 0.45 2.1 0.4 2.15 0.35 2.2 0.3 2.25 0.6 2.1 1.1 1.75 1.3 1.45 1.1 Q1.3 0.9 1.3 0.6 1.3 0.3 1.45 0.1 L1.65 -0.05" fill="#000000" fill-rule="evenodd" stroke="none"/>
    <path d="M1.6 0.4 L1.5 0.15 1.6 -0.1 1.85 -0.2 2.1 -0.1 2.2 0.15 2.1 0.4 1.85 0.55 1.6 0.4" fill="#ffffff" fill-rule="evenodd" stroke="none"/>
    <path d="M-2.05 -0.95 L-2.15 -1.15 -2.05 -1.4 -1.85 -1.5 -1.7 -1.4 -1.6 -1.15 -1.7 -0.95 -1.85 -0.85 Q-2.0 -0.85 -2.05 -0.95" fill="#ffffff" fill-rule="evenodd" stroke="none"/>
  </g>
</svg>
