<?xml version="1.0" encoding="UTF-8" standalone="no"?>
<svg xmlns:xlink="http://www.w3.org/1999/xlink" height="7.6px" width="6.85px" xmlns="http://www.w3.org/2000/svg">
  <g transform="matrix(1.0, 0.0, 0.0, 1.0, 3.4, 3.8)">
    <path d="M-0.15 0.8 L-0.2 0.75 -1.05 0.15 -3.4 0.2 -2.1 -3.45 1.1 -3.55 Q2.55 -3.75 3.45 -1.7 L3.3 2.9 2.85 3.35 2.8 3.8 2.75 3.8 0.6 1.4 -0.15 0.8" fill="#ffffff" fill-rule="evenodd" stroke="none"/>
    <path d="M-0.2 0.75 L-0.15 0.8 0.6 1.4 2.75 3.8 -1.5 3.05 -1.55 3.05 -1.7 2.1 -3.4 0.2 -1.05 0.15 -0.2 0.75 -1.7 2.1 -0.2 0.75" fill="#cccccc" fill-rule="evenodd" stroke="none"/>
    <path d="M-0.2 0.75 L-0.15 0.8 M2.75 3.8 L2.8 3.8 2.85 3.35 3.3 2.9 3.45 -1.7 Q2.55 -3.75 1.1 -3.55 L-2.1 -3.45 -3.4 0.2 -1.7 2.1 -1.55 3.05 -1.5 3.05 2.75 3.8 M-0.2 0.75 L-1.7 2.1" fill="none" stroke="#a0a0a0" stroke-linecap="round" stroke-linejoin="round" stroke-width="0.05"/>
  </g>
</svg>
