<?xml version="1.0" encoding="UTF-8" standalone="no"?>
<svg xmlns:xlink="http://www.w3.org/1999/xlink" height="97.05px" width="50.35px" xmlns="http://www.w3.org/2000/svg">
  <g transform="matrix(1.0, 0.0, 0.0, 1.0, 25.65, 49.0)">
    <path d="M9.95 -44.4 L9.7 -37.35 -14.05 -15.6 -14.05 21.95 -20.1 25.45 Q-26.75 22.0 -24.1 -13.5 -29.15 -26.45 -17.6 -30.1 3.4 -49.6 9.95 -44.4 M-24.1 -13.5 Q-23.15 -13.15 -20.95 -14.05 -18.8 -14.95 -16.95 -18.55 -15.1 -22.15 -15.75 -24.9 -16.4 -27.7 -17.6 -30.1 -16.4 -27.7 -15.75 -24.9 -15.1 -22.15 -16.95 -18.55 -18.8 -14.95 -20.95 -14.05 -23.15 -13.15 -24.1 -13.5" fill="#fea030" fill-rule="evenodd" stroke="none"/>
    <path d="M-20.1 25.45 L-14.05 21.95 -14.05 -15.6 9.7 -37.35 9.95 -44.4 18.4 -49.0 Q26.35 -48.45 24.3 -40.5 9.45 -24.15 -7.35 -13.9 -7.05 7.15 -7.7 28.2 -8.4 49.2 -12.0 48.0 -15.65 46.75 -20.1 25.45" fill="#fff9f2" fill-rule="evenodd" stroke="none"/>
    <path d="M-20.1 25.45 L-14.05 21.95 -14.05 -15.6 9.7 -37.35 9.95 -44.4 Q3.4 -49.6 -17.6 -30.1 -16.4 -27.7 -15.75 -24.9 -15.1 -22.15 -16.95 -18.55 -18.8 -14.95 -20.95 -14.05 -23.15 -13.15 -24.1 -13.5 -26.75 22.0 -20.1 25.45 -15.65 46.75 -12.0 48.0 -8.4 49.2 -7.7 28.2 -7.05 7.15 -7.35 -13.9 9.45 -24.15 24.3 -40.5 26.35 -48.45 18.4 -49.0 L9.95 -44.4 M-24.1 -13.5 Q-29.15 -26.45 -17.6 -30.1" fill="none" stroke="#ad5701" stroke-linecap="round" stroke-linejoin="round" stroke-width="0.05"/>
  </g>
</svg>
