<?xml version="1.0" encoding="UTF-8" standalone="no"?>
<svg xmlns:xlink="http://www.w3.org/1999/xlink" height="112.55px" width="47.15px" xmlns="http://www.w3.org/2000/svg">
  <g transform="matrix(1.0, 0.0, 0.0, 1.0, 22.6, 49.0)">
    <path d="M-16.75 28.9 L-22.6 37.65 Q-19.6 26.85 -19.25 13.25 -18.9 -0.35 -19.7 -11.1 -20.55 -21.95 -16.05 -24.05 L10.05 -48.15 9.95 -44.4 9.7 -37.35 -13.25 -21.65 -14.05 21.95 -16.75 28.9 M-9.85 45.0 L-21.9 63.55 -15.75 38.9 Q-14.9 46.15 -9.85 45.0" fill="#ffff99" fill-rule="evenodd" stroke="none"/>
    <path d="M9.95 -44.4 L18.4 -49.0 Q27.1 -47.6 23.5 -40.15 6.7 -26.9 -7.8 -19.45 -10.6 10.3 -10.0 18.7 -8.7 37.55 -9.85 45.0 -14.9 46.15 -15.75 38.9 L-16.75 28.9 -14.05 21.95 -13.25 -21.65 9.7 -37.35 9.95 -44.4" fill="#de6863" fill-rule="evenodd" stroke="none"/>
    <path d="M9.95 -44.4 L18.4 -49.0 Q27.1 -47.6 23.5 -40.15 6.7 -26.9 -7.8 -19.45 -10.6 10.3 -10.0 18.7 -8.7 37.55 -9.85 45.0 M-15.75 38.9 L-16.75 28.9" fill="none" stroke="#771a1a" stroke-linecap="round" stroke-linejoin="round" stroke-width="0.05"/>
    <path d="M-16.75 28.9 L-22.6 37.65 Q-19.6 26.85 -19.25 13.25 -18.9 -0.35 -19.7 -11.1 -20.55 -21.95 -16.05 -24.05 L10.05 -48.15 9.95 -44.4 9.7 -37.35 -13.25 -21.65 -14.05 21.95 -16.75 28.9 M-9.85 45.0 L-21.9 63.55 -15.75 38.9 Q-14.9 46.15 -9.85 45.0" fill="none" stroke="#9c9b01" stroke-linecap="round" stroke-linejoin="round" stroke-width="0.05"/>
  </g>
</svg>
