<?xml version="1.0" encoding="UTF-8" standalone="no"?>
<svg xmlns:xlink="http://www.w3.org/1999/xlink" height="98.55px" width="51.45px" xmlns="http://www.w3.org/2000/svg">
  <g transform="matrix(1.0, 0.0, 0.0, 1.0, 26.9, 49.5)">
    <path d="M9.95 -44.4 L18.4 -49.0 Q27.1 -47.6 23.5 -40.15 6.7 -26.9 -7.8 -19.45 -10.6 10.3 -10.0 18.7 -8.15 44.9 -11.15 49.05 -14.05 45.45 -20.1 25.45 L-14.05 21.95 -13.25 -21.45 -13.25 -21.55 -13.25 -21.5 -13.25 -21.45 -13.25 -21.5 -13.25 -21.55 -13.25 -21.65 -13.1 -21.75 -13.15 -21.7 -13.25 -21.55 -13.15 -21.7 -13.1 -21.75 9.7 -37.35 9.95 -44.4 M-13.25 -21.5 L-13.15 -21.7 -13.25 -21.5" fill="#ffffff" fill-rule="evenodd" stroke="none"/>
    <path d="M-20.1 25.45 L-23.7 27.5 -24.45 10.7 -24.45 11.05 Q-26.85 -7.25 -26.9 -16.95 -16.95 -38.1 -2.45 -49.5 L-7.85 -35.6 10.05 -48.15 9.95 -44.4 9.7 -37.35 -13.1 -21.75 -13.25 -21.65 -13.25 -21.55 -13.25 -21.45 -14.05 21.95 -20.1 25.45 M-24.45 10.7 Q-15.8 5.25 -13.25 -21.55 -15.8 5.25 -24.45 10.7 M-7.85 -35.6 L-13.25 -21.65 -7.85 -35.6" fill="#000066" fill-rule="evenodd" stroke="none"/>
    <path d="M9.95 -44.4 L18.4 -49.0 Q27.1 -47.6 23.5 -40.15 6.7 -26.9 -7.8 -19.45 -10.6 10.3 -10.0 18.7 -8.15 44.9 -11.15 49.05 -14.05 45.45 -20.1 25.45 M-13.25 -21.45 L-13.25 -21.5 -13.25 -21.55 -13.15 -21.7 -13.1 -21.75 M-13.15 -21.7 L-13.25 -21.5" fill="none" stroke="#999999" stroke-linecap="round" stroke-linejoin="round" stroke-width="0.05"/>
    <path d="M-20.1 25.45 L-23.7 27.5 -24.45 10.7 -24.45 11.05 Q-26.85 -7.25 -26.9 -16.95 -16.95 -38.1 -2.45 -49.5 L-7.85 -35.6 10.05 -48.15 9.95 -44.4 9.7 -37.35 -13.1 -21.75 -13.25 -21.65 -7.85 -35.6 M-20.1 25.45 L-14.05 21.95 -13.25 -21.45 -13.25 -21.55 Q-15.8 5.25 -24.45 10.7 M-13.25 -21.55 L-13.25 -21.65" fill="none" stroke="#5a56b4" stroke-linecap="round" stroke-linejoin="round" stroke-width="0.05"/>
  </g>
</svg>
