<?xml version="1.0" encoding="UTF-8" standalone="no"?>
<svg xmlns:xlink="http://www.w3.org/1999/xlink" height="98.55px" width="47.75px" xmlns="http://www.w3.org/2000/svg">
  <g transform="matrix(1.0, 0.0, 0.0, 1.0, 23.2, 49.5)">
    <path d="M-21.05 10.7 Q-23.2 -7.35 -23.2 -16.95 -14.25 -38.1 -1.2 -49.5 L-6.05 -35.6 -10.85 -21.8 -6.05 -35.6 10.05 -48.15 9.95 -44.4 9.75 -37.35 -10.8 -21.75 -10.85 -21.8 -10.95 -21.65 -10.95 -21.55 Q-11.85 -10.95 -13.6 -3.7 -16.3 7.4 -21.0 10.7 -16.3 7.4 -13.6 -3.7 -11.85 -10.95 -10.95 -21.55 L-11.65 21.95 -17.1 25.45 -19.6 27.05 -20.35 27.5 -21.0 10.7 -21.05 10.7" fill="#72386b" fill-rule="evenodd" stroke="none"/>
    <path d="M-10.95 -21.55 L-10.95 -21.65 -10.85 -21.8 -10.8 -21.75 9.75 -37.35 9.95 -44.4 18.4 -49.0 Q27.1 -47.6 23.5 -40.15 5.6 -33.45 -7.8 -19.45 -10.9 10.45 -10.05 28.0 -9.2 45.55 -11.15 49.05 -13.95 45.6 -19.6 27.05 L-17.1 25.45 -11.65 21.95 -10.95 -21.55" fill="#f7eef7" fill-rule="evenodd" stroke="none"/>
    <path d="M9.95 -44.4 L18.4 -49.0 Q27.1 -47.6 23.5 -40.15 5.6 -33.45 -7.8 -19.45 -10.9 10.45 -10.05 28.0 -9.2 45.55 -11.15 49.05 -13.95 45.6 -19.6 27.05" fill="none" stroke="#999999" stroke-linecap="round" stroke-linejoin="round" stroke-width="0.05"/>
    <path d="M-6.05 -35.6 L-1.2 -49.5 Q-14.25 -38.1 -23.2 -16.95 -23.2 -7.35 -21.05 10.7 M-21.0 10.7 Q-16.3 7.4 -13.6 -3.7 -11.85 -10.95 -10.95 -21.55 L-10.95 -21.65 -10.85 -21.8 -6.05 -35.6 10.05 -48.15 9.95 -44.4 9.75 -37.35 -10.8 -21.75 M-19.6 27.05 L-20.35 27.5 -21.0 10.7 M-10.95 -21.55 L-11.65 21.95 -17.1 25.45 -19.6 27.05" fill="none" stroke="#5a56b4" stroke-linecap="round" stroke-linejoin="round" stroke-width="0.05"/>
  </g>
</svg>
