<?xml version="1.0" encoding="UTF-8" standalone="no"?>
<svg xmlns:xlink="http://www.w3.org/1999/xlink" height="101.75px" width="57.5px" xmlns="http://www.w3.org/2000/svg">
  <g transform="matrix(1.0, 0.0, 0.0, 1.0, 32.5, 49.0)">
    <path d="M-20.1 25.45 L-14.05 21.95 -13.25 -21.65 9.7 -37.35 9.95 -44.4 18.4 -49.0 Q27.1 -47.6 24.3 -40.5 8.45 -21.0 -4.35 -16.3 -6.75 12.15 -1.95 24.4 2.8 36.6 -5.4 52.75 -14.05 45.45 -20.1 25.45" fill="#753939" fill-rule="evenodd" stroke="none"/>
    <path d="M9.95 -44.4 L9.7 -37.35 -13.25 -21.65 -14.05 21.95 -20.1 25.45 Q-21.95 26.45 -32.5 35.25 -30.75 -5.05 -23.8 -28.15 -7.6 -39.75 10.05 -48.15 L9.95 -44.4" fill="#397559" fill-rule="evenodd" stroke="none"/>
    <path d="M-20.1 25.45 Q-14.05 45.45 -5.4 52.75 2.8 36.6 -1.95 24.4 -6.75 12.15 -4.35 -16.3 8.45 -21.0 24.3 -40.5 27.1 -47.6 18.4 -49.0 L9.95 -44.4" fill="none" stroke="#482424" stroke-linecap="round" stroke-linejoin="round" stroke-width="0.05"/>
    <path d="M-20.1 25.45 L-14.05 21.95 -13.25 -21.65 9.7 -37.35 9.95 -44.4 10.05 -48.15 Q-7.6 -39.75 -23.8 -28.15 -30.75 -5.05 -32.5 35.25 -21.95 26.45 -20.1 25.45 Z" fill="none" stroke="#28513d" stroke-linecap="round" stroke-linejoin="round" stroke-width="0.05"/>
  </g>
</svg>
