<?xml version="1.0" encoding="UTF-8" standalone="no"?>
<svg xmlns:xlink="http://www.w3.org/1999/xlink" height="6.9px" width="12.05px" xmlns="http://www.w3.org/2000/svg">
  <g transform="matrix(1.0, 0.0, 0.0, 1.0, 6.0, 3.45)">
    <path d="M-4.6 2.15 Q-6.15 1.05 -6.0 -0.3 -5.9 -1.75 -4.0 -2.65 -2.15 -3.6 0.35 -3.4 2.55 -3.3 4.1 -2.4 4.65 -1.8 4.7 -0.95 L4.7 -0.9 4.65 -0.55 4.65 -0.35 4.0 0.65 Q1.9 3.0 -4.6 2.15" fill="#d5a480" fill-rule="evenodd" stroke="none"/>
    <path d="M-4.6 2.15 Q1.9 3.0 4.0 0.65 L4.65 -0.35 4.65 -0.55 4.7 -0.9 4.7 -0.95 Q4.65 -1.8 4.1 -2.4 L4.55 -2.1 5.45 -1.35 5.75 -0.9 5.8 -0.8 6.05 0.45 Q5.9 1.85 4.05 2.75 2.2 3.6 -0.35 3.45 -2.85 3.3 -4.5 2.2 L-4.6 2.15" fill="#ca8c60" fill-rule="evenodd" stroke="none"/>
    <path d="M4.1 -2.4 Q2.55 -3.3 0.35 -3.4 -2.15 -3.6 -4.0 -2.65 -5.9 -1.75 -6.0 -0.3 -6.15 1.05 -4.6 2.15 L-4.5 2.2 Q-2.85 3.3 -0.35 3.45 2.2 3.6 4.05 2.75 M4.1 -2.4 L4.55 -2.1 5.45 -1.35 5.75 -0.9" fill="none" stroke="#714a1c" stroke-linecap="round" stroke-linejoin="round" stroke-width="0.05"/>
  </g>
</svg>
