<?xml version="1.0" encoding="UTF-8" standalone="no"?>
<svg xmlns:xlink="http://www.w3.org/1999/xlink" height="15.1px" width="6.3px" xmlns="http://www.w3.org/2000/svg">
  <g transform="matrix(1.0, 0.0, 0.0, 1.0, 6.6, 1.85)">
    <path d="M-1.0 -0.6 L-0.3 13.25 Q-1.05 12.4 -1.6 12.65 -2.9 12.8 -3.55 11.75 -4.55 10.65 -5.15 10.95 L-5.7 10.65 -6.6 -1.85 Q-4.2 -1.0 -1.0 -0.6 M-1.95 6.8 L-1.6 12.65 -1.95 6.8 M-5.4 7.8 L-5.15 10.95 -5.4 7.8 M-3.55 9.05 L-3.55 11.75 -3.55 9.05" fill="#c85e4f" fill-rule="evenodd" stroke="none"/>
    <path d="M-1.0 -0.6 L-0.3 13.25 Q-1.05 12.4 -1.6 12.65 -2.9 12.8 -3.55 11.75 -4.55 10.65 -5.15 10.95 L-5.7 10.65 -6.6 -1.85 Q-4.2 -1.0 -1.0 -0.6 M-3.55 11.75 L-3.55 9.05 M-5.15 10.95 L-5.4 7.8 M-1.6 12.65 L-1.95 6.8" fill="none" stroke="#88312d" stroke-linecap="round" stroke-linejoin="round" stroke-width="0.05"/>
  </g>
</svg>
