<?xml version="1.0" encoding="UTF-8" standalone="no"?>
<svg xmlns:xlink="http://www.w3.org/1999/xlink" height="17.8px" width="17.7px" xmlns="http://www.w3.org/2000/svg">
  <g transform="matrix(1.0, 0.0, 0.0, 1.0, 3.6, 10.4)">
    <path d="M5.15 0.35 Q5.5 -1.45 4.9 -2.55 4.3 -3.7 -0.25 -2.15 -1.0 -1.55 -1.3 -0.5 -1.65 -1.25 -1.6 -2.2 -2.8 -3.1 -3.6 -1.8 -3.95 -5.1 0.6 -8.3 5.15 -11.55 11.5 -9.75 8.8 -8.1 8.75 -7.3 11.5 -7.2 14.1 -5.1 L10.3 -4.9 11.95 -3.85 10.6 -3.7 11.95 -3.85 Q14.3 -0.9 14.0 1.55 12.8 0.2 11.2 -0.2 11.3 2.2 10.25 3.35 10.35 1.95 9.65 1.0 9.25 2.8 7.85 4.5 8.6 3.0 7.85 1.5 6.8 1.2 6.6 1.85 5.8 4.55 6.4 7.4 4.4 4.0 5.15 0.35 M-1.55 -2.55 L-1.6 -2.2 -1.55 -2.55" fill="#ffffcc" fill-rule="evenodd" stroke="none"/>
    <path d="M5.15 0.35 Q5.5 -1.45 4.9 -2.55 4.3 -3.7 -0.25 -2.15 -1.0 -1.55 -1.3 -0.5 -1.65 -1.25 -1.6 -2.2 -2.8 -3.1 -3.6 -1.8 -3.95 -5.1 0.6 -8.3 5.15 -11.55 11.5 -9.75 8.8 -8.1 8.75 -7.3 11.5 -7.2 14.1 -5.1 L10.3 -4.9 11.95 -3.85 Q14.3 -0.9 14.0 1.55 12.8 0.2 11.2 -0.2 11.3 2.2 10.25 3.35 10.35 1.95 9.65 1.0 9.25 2.8 7.85 4.5 8.6 3.0 7.85 1.5 6.8 1.2 6.6 1.85 5.8 4.55 6.4 7.4 4.4 4.0 5.15 0.35 M-1.6 -2.2 L-1.55 -2.55" fill="none" stroke="#d3d301" stroke-linecap="round" stroke-linejoin="round" stroke-width="0.05"/>
  </g>
</svg>
