<?xml version="1.0" encoding="UTF-8" standalone="no"?>
<svg xmlns:xlink="http://www.w3.org/1999/xlink" height="23.65px" width="23.65px" xmlns="http://www.w3.org/2000/svg">
  <g transform="matrix(1.0, 0.0, 0.0, 1.0, 6.25, 14.7)">
    <path d="M6.65 2.6 L6.65 3.35 6.45 3.25 6.65 2.6 M-4.55 5.65 L-4.05 7.55 -4.8 5.7 -4.55 5.65" fill="#9b7968" fill-rule="evenodd" stroke="none"/>
    <path d="M0.1 -3.35 L0.15 -3.35 0.1 -3.35" fill="#5c82ad" fill-rule="evenodd" stroke="none"/>
    <path d="M3.5 -12.8 L3.55 -12.75 Q8.6 -15.05 11.6 -14.65 15.0 -14.2 17.4 -12.35 9.85 -14.6 6.65 -11.85 L7.6 -10.75 7.0 -10.75 7.55 -9.45 4.8 -9.05 Q5.8 -7.95 6.1 -6.05 3.5 -6.55 1.65 -5.65 6.15 -2.2 6.0 4.5 L6.45 3.25 6.65 3.35 6.65 3.95 Q6.4 7.2 5.05 8.95 5.55 3.55 2.65 -1.15 L2.65 -1.2 2.65 -1.15 Q3.2 1.05 2.5 2.75 L1.85 -0.05 1.5 -1.05 0.9 -2.3 0.65 -2.75 0.4 -3.1 0.2 -3.35 0.15 -3.4 0.1 -3.4 0.1 -3.35 Q0.15 -3.85 -0.6 -3.45 -2.15 -1.9 -1.3 1.9 -3.2 -0.35 -2.3 -4.1 L-2.3 -4.15 -2.4 -4.1 Q-2.8 -4.55 -4.1 -4.1 -6.25 0.65 -4.55 5.65 L-4.8 5.7 Q-6.75 0.45 -6.1 -4.05 -5.7 -5.9 -4.45 -6.85 -2.5 -10.35 0.0 -11.6 L1.5 -12.15 1.55 -12.15 2.35 -12.3 3.5 -12.8 M14.15 -4.4 Q14.4 -3.6 14.85 1.0 13.2 -4.95 11.15 -5.6 12.5 -6.15 14.15 -4.4 M11.95 5.85 L11.2 8.5 Q11.3 2.95 10.35 1.4 11.8 1.95 11.95 5.85" fill="#9caccf" fill-rule="evenodd" stroke="none"/>
    <path d="M17.4 -12.35 Q10.6 -13.0 9.25 -11.15 L9.0 -10.75 9.2 -10.6 Q12.6 -8.35 14.15 -4.4 12.5 -6.15 11.15 -5.6 L11.1 -5.6 11.1 -5.55 11.1 -5.45 11.25 -4.55 Q13.3 -0.25 11.95 5.85 11.8 1.95 10.35 1.4 L10.3 1.4 9.35 3.45 8.0 5.05 8.15 4.6 8.55 3.15 8.6 3.1 8.6 1.95 8.4 1.45 8.15 1.25 7.55 1.1 6.8 1.3 6.65 1.4 6.65 2.6 6.45 3.25 6.0 4.5 Q6.15 -2.2 1.65 -5.65 3.5 -6.55 6.1 -6.05 5.8 -7.95 4.8 -9.05 L7.55 -9.45 7.0 -10.75 7.6 -10.75 6.65 -11.85 Q9.85 -14.6 17.4 -12.35 M0.1 -3.35 Q-1.6 -1.4 -1.3 1.9 -2.15 -1.9 -0.6 -3.45 0.15 -3.85 0.1 -3.35 M-2.4 -4.1 L-3.9 -2.05 Q-5.4 1.65 -4.55 5.65 -6.25 0.65 -4.1 -4.1 -2.8 -4.55 -2.4 -4.1 M5.9 -2.15 L6.55 0.45 6.65 1.4 6.55 0.45 5.9 -2.15" fill="#7892bc" fill-rule="evenodd" stroke="none"/>
    <path d="M3.55 -12.75 Q8.6 -15.05 11.6 -14.65 15.0 -14.2 17.4 -12.35 10.6 -13.0 9.25 -11.15 L9.0 -10.75 9.2 -10.6 Q12.6 -8.35 14.15 -4.4 14.4 -3.6 14.85 1.0 13.2 -4.95 11.15 -5.6 L11.1 -5.6 11.1 -5.55 11.1 -5.45 11.25 -4.55 Q13.3 -0.25 11.95 5.85 L11.2 8.5 Q11.3 2.95 10.35 1.4 L10.3 1.4 9.35 3.45 8.0 5.05 8.15 4.6 8.55 3.15 8.6 3.1 8.6 1.95 8.4 1.45 8.15 1.25 7.55 1.1 6.8 1.3 6.65 1.4 6.65 2.6 6.65 3.35 6.65 3.95 Q6.4 7.2 5.05 8.95 5.55 3.55 2.65 -1.15 L2.65 -1.2 2.65 -1.15 Q3.2 1.05 2.5 2.75 L1.85 -0.05 1.5 -1.05 0.9 -2.3 0.65 -2.75 0.4 -3.1 0.2 -3.35 0.15 -3.4 0.1 -3.4 M0.15 -3.35 L0.1 -3.35 Q-1.6 -1.4 -1.3 1.9 -3.2 -0.35 -2.3 -4.1 L-2.3 -4.15 -2.4 -4.1 -3.9 -2.05 Q-5.4 1.65 -4.55 5.65 M-4.05 7.55 L-4.8 5.7 Q-6.75 0.45 -6.1 -4.05 -5.7 -5.9 -4.45 -6.85 -2.5 -10.35 0.0 -11.6 L1.5 -12.15 1.55 -12.15 2.35 -12.3 3.5 -12.8 M6.65 1.4 L6.55 0.45 5.9 -2.15" fill="none" stroke="#36506d" stroke-linecap="round" stroke-linejoin="round" stroke-width="0.05"/>
  </g>
</svg>
