<?xml version="1.0" encoding="UTF-8" standalone="no"?>
<svg xmlns:xlink="http://www.w3.org/1999/xlink" height="13.2px" width="15.55px" xmlns="http://www.w3.org/2000/svg">
  <g transform="matrix(1.0, 0.0, 0.0, 1.0, 5.6, 10.15)">
    <path d="M-5.6 -6.5 L-5.6 -6.55 -5.55 -6.5 -5.6 -6.5" fill="#446584" fill-rule="evenodd" stroke="none"/>
    <path d="M5.65 -8.15 L4.7 -10.15 6.55 -7.75 8.3 -9.05 7.6 -7.15 9.35 -7.1 8.65 -6.35 9.15 -5.35 9.25 -5.15 9.35 -4.9 Q10.05 -3.0 9.95 -1.1 L9.95 -0.75 9.9 -0.55 9.5 1.25 8.55 3.05 8.55 2.2 8.55 2.15 8.5 2.0 8.45 1.75 8.35 1.5 8.3 1.4 8.25 1.35 7.9 1.1 7.7 1.05 7.0 1.2 6.65 1.5 6.5 1.7 6.45 1.85 6.0 1.85 6.0 1.5 6.0 1.4 6.0 1.2 6.05 0.3 6.2 0.15 Q9.7 -3.75 5.65 -8.15 M5.45 0.75 L4.95 0.3 4.85 0.1 4.4 -0.65 Q3.95 -1.3 3.4 -1.15 L3.4 -1.1 3.8 0.6 3.2 -0.05 3.05 -1.2 2.95 -1.8 3.45 -2.1 Q4.6 -1.85 4.8 -0.95 L4.8 -0.2 5.2 0.15 5.5 0.75 5.45 0.75 M2.0 -2.15 L1.05 -0.65 0.25 -1.9 0.8 -1.4 1.85 -2.7 2.0 -2.15 M0.05 -2.4 L-0.25 -1.8 -1.0 -0.45 -1.2 -0.75 Q-0.85 -2.0 0.0 -3.05 L0.05 -2.4 M-1.9 -2.6 Q-3.1 -1.25 -4.9 -1.15 L-4.6 -1.75 Q-3.4 -1.9 -2.45 -2.7 L-1.85 -3.2 -1.9 -2.6 M-3.6 -3.3 L-4.1 -3.15 Q-5.15 -3.2 -5.5 -3.65 L-3.6 -3.3 M-3.55 -5.0 L-4.25 -5.0 Q-5.55 -5.75 -5.6 -6.5 L-5.55 -6.5 -5.25 -6.35 Q-4.8 -5.55 -4.15 -5.4 L-4.0 -5.35 -3.55 -5.25 -3.6 -5.15 -3.55 -5.0" fill="#86554f" fill-rule="evenodd" stroke="none"/>
    <path d="M6.0 1.85 L5.45 0.75 5.5 0.75 5.2 0.15 4.8 -0.2 4.8 -0.95 Q4.6 -1.85 3.45 -2.1 L2.95 -1.8 3.05 -1.2 3.2 -0.05 2.0 -2.15 1.85 -2.7 0.8 -1.4 0.25 -1.9 0.05 -2.4 0.0 -3.05 Q-0.85 -2.0 -1.2 -0.75 -1.9 -1.35 -1.9 -2.6 L-1.85 -3.2 -2.45 -2.7 Q-3.4 -1.9 -4.6 -1.75 L-3.6 -3.3 -5.5 -3.65 -5.2 -3.8 -3.85 -4.7 -3.55 -5.0 -3.6 -5.15 -3.55 -5.25 -4.0 -5.35 -4.15 -5.4 Q-4.8 -5.55 -5.25 -6.35 L-3.05 -6.45 Q-2.2 -6.8 -1.15 -7.45 1.65 -9.3 4.75 -8.45 L5.65 -8.15 Q9.7 -3.75 6.2 0.15 L6.05 0.3 6.0 1.2 6.0 1.4 6.0 1.5 6.0 1.85" fill="#af7c7a" fill-rule="evenodd" stroke="none"/>
    <path d="M5.65 -8.15 L4.7 -10.15 6.55 -7.75 8.3 -9.05 7.6 -7.15 9.35 -7.1 8.65 -6.35 9.15 -5.35 9.25 -5.15 9.35 -4.9 Q10.05 -3.0 9.95 -1.1 L9.95 -0.75 9.9 -0.55 9.5 1.25 8.55 3.05 8.55 2.2 8.55 2.15 8.5 2.0 8.45 1.75 8.35 1.5 8.3 1.4 8.25 1.35 7.9 1.1 7.7 1.05 7.0 1.2 6.65 1.5 6.5 1.7 6.45 1.85 6.0 1.85 5.45 0.75 4.95 0.3 4.85 0.1 4.4 -0.65 Q3.95 -1.3 3.4 -1.15 M3.4 -1.1 L3.8 0.6 3.2 -0.05 2.0 -2.15 1.05 -0.65 0.25 -1.9 0.05 -2.4 -0.25 -1.8 -1.0 -0.45 -1.2 -0.75 Q-1.9 -1.35 -1.9 -2.6 -3.1 -1.25 -4.9 -1.15 L-4.6 -1.75 -3.6 -3.3 -4.1 -3.15 Q-5.15 -3.2 -5.5 -3.65 L-5.2 -3.8 -3.85 -4.7 -3.55 -5.0 -4.25 -5.0 Q-5.55 -5.75 -5.6 -6.5 L-5.6 -6.55 M-5.55 -6.5 L-5.25 -6.35 -3.05 -6.45 Q-2.2 -6.8 -1.15 -7.45 1.65 -9.3 4.75 -8.45 L5.65 -8.15 Z" fill="none" stroke="#5a3736" stroke-linecap="round" stroke-linejoin="round" stroke-width="0.05"/>
  </g>
</svg>
