<?xml version="1.0" encoding="UTF-8" standalone="no"?>
<svg xmlns:xlink="http://www.w3.org/1999/xlink" height="19.0px" width="20.95px" xmlns="http://www.w3.org/2000/svg">
  <g transform="matrix(1.0, 0.0, 0.0, 1.0, 8.75, 12.6)">
    <path d="M-8.75 -4.5 Q-7.45 -8.3 -1.2 -9.1 0.45 -8.35 1.7 -8.7 L1.7 -8.8 Q1.5 -10.85 -0.4 -12.45 1.65 -12.05 3.45 -10.55 L3.5 -10.6 4.6 -10.2 Q6.9 -11.25 8.05 -11.35 10.15 -10.75 10.7 -10.05 7.3 -9.85 7.7 -8.7 9.85 -8.85 11.4 -7.65 10.1 -7.65 9.45 -6.6 12.55 -2.8 12.15 -0.85 9.9 3.5 7.85 4.75 8.8 2.15 7.8 1.5 7.35 1.3 6.9 1.5 L6.2 4.55 Q5.5 0.7 4.65 0.55 L4.5 2.15 Q3.8 -0.5 2.4 -1.15 L2.25 -1.4 2.45 0.25 Q1.15 -2.8 -0.25 -2.35 -0.95 -1.7 -1.3 -0.4 -2.45 -1.2 -1.45 -5.5 -2.5 -4.3 -2.6 -2.5 L-2.6 -2.6 Q-3.45 -0.45 -3.95 1.95 L-4.0 1.05 Q-4.3 -2.1 -4.1 -3.6 L-5.75 -2.5 -6.7 -1.6 Q-6.65 -3.4 -5.0 -4.65 -4.4 -4.85 -5.1 -6.05 -7.1 -7.15 -8.75 -4.5" fill="#413445" fill-rule="evenodd" stroke="none"/>
    <path d="M-0.4 -12.45 Q1.5 -10.85 1.7 -8.8 L1.7 -8.7 Q0.45 -8.35 -1.2 -9.1 -7.45 -8.3 -8.75 -4.5 -7.45 -9.3 -4.5 -9.75 L-1.35 -10.35 Q-1.2 -11.5 -3.4 -12.5 L-0.4 -12.45 M-5.1 -6.05 Q-4.4 -4.85 -5.0 -4.65 -6.65 -3.4 -6.7 -1.6 -7.65 -0.2 -7.95 1.8 -8.5 -2.9 -5.1 -6.05 M-4.1 -3.6 Q-4.3 -2.1 -4.0 1.05 L-3.95 1.95 -3.95 2.05 -3.95 2.1 -3.95 2.05 -3.95 1.95 Q-5.45 -1.75 -4.1 -3.6 M-2.6 -2.5 Q-2.5 -4.3 -1.45 -5.5 -2.45 -1.2 -1.3 -0.4 -1.65 0.25 -1.6 1.55 -2.7 0.05 -2.6 -2.5 M-0.25 -2.35 Q1.15 -2.8 2.45 0.25 2.4 1.4 1.85 2.6 1.65 -0.4 -0.25 -2.35 M2.4 -1.15 Q3.8 -0.5 4.5 2.15 L4.1 3.35 3.75 1.95 2.4 -1.15 M4.65 0.55 Q5.5 0.7 6.2 4.55 L5.35 6.4 Q5.6 3.1 4.65 0.55 M8.05 -11.35 Q6.9 -11.25 4.6 -10.2 L3.5 -10.6 Q5.15 -11.8 8.05 -11.35" fill="#68536f" fill-rule="evenodd" stroke="none"/>
  </g>
</svg>
