<?xml version="1.0" encoding="UTF-8" standalone="no"?>
<svg xmlns:xlink="http://www.w3.org/1999/xlink" height="15.25px" width="5.6px" xmlns="http://www.w3.org/2000/svg">
  <g transform="matrix(1.0, 0.0, 0.0, 1.0, 2.8, 7.6)">
    <path d="M0.4 -7.55 L0.4 -7.5 0.35 -7.55 0.4 -7.55" fill="#f9f9f9" fill-rule="evenodd" stroke="none"/>
    <path d="M0.35 -7.55 L0.4 -7.5 0.4 -7.55 1.1 -7.35 Q2.05 -6.4 2.8 -3.85 L2.2 4.35 0.95 4.6 -1.0 4.3 Q-1.6 0.8 -2.75 -2.4 -2.95 -4.15 -2.15 -5.9 -1.6 -7.45 -0.35 -7.55 L0.35 -7.55" fill="#666666" fill-rule="evenodd" stroke="none"/>
    <path d="M-1.0 4.3 L0.95 4.6 2.2 4.35 2.0 7.25 0.9 7.65 -0.75 7.3 -1.0 4.3" fill="#f2f2f2" fill-rule="evenodd" stroke="none"/>
    <path d="M0.35 -7.55 L-0.35 -7.55 Q-1.6 -7.45 -2.15 -5.9 -2.95 -4.15 -2.75 -2.4 -1.6 0.8 -1.0 4.3 L-0.75 7.3 0.9 7.65 2.0 7.25 2.2 4.35 2.8 -3.85 Q2.05 -6.4 1.1 -7.35 L0.4 -7.55 0.35 -7.55 Z" fill="none" stroke="#000000" stroke-linecap="round" stroke-linejoin="round" stroke-width="0.05"/>
  </g>
</svg>
