<?xml version="1.0" encoding="UTF-8" standalone="no"?>
<svg xmlns:xlink="http://www.w3.org/1999/xlink" height="15.4px" width="7.85px" xmlns="http://www.w3.org/2000/svg">
  <g transform="matrix(1.0, 0.0, 0.0, 1.0, 3.45, 7.7)">
    <path d="M3.05 -2.85 L3.15 -3.95 Q2.9 -5.7 2.1 -6.7 L3.25 -7.2 Q4.85 -5.4 4.0 -2.85 L3.05 -2.85" fill="#ffee99" fill-rule="evenodd" stroke="none"/>
    <path d="M2.1 -6.7 Q2.9 -5.7 3.15 -3.95 L3.05 -2.85 2.0 7.25 Q0.4 8.2 -0.7 6.7 -1.5 1.85 -3.35 -4.15 -2.55 -8.1 1.05 -7.5 L2.1 -6.7" fill="#8a4343" fill-rule="evenodd" stroke="none"/>
    <path d="M2.1 -6.7 Q2.9 -5.7 3.15 -3.95 L3.05 -2.85 4.0 -2.85 Q4.85 -5.4 3.25 -7.2 L2.1 -6.7 1.05 -7.5 Q-2.55 -8.1 -3.35 -4.15 -1.5 1.85 -0.7 6.7 0.4 8.2 2.0 7.25 L3.05 -2.85" fill="none" stroke="#8a4343" stroke-linecap="round" stroke-linejoin="round" stroke-width="0.25"/>
  </g>
</svg>
