<?xml version="1.0" encoding="UTF-8" standalone="no"?>
<svg xmlns:xlink="http://www.w3.org/1999/xlink" height="15.55px" width="5.65px" xmlns="http://www.w3.org/2000/svg">
  <g transform="matrix(1.0, 0.0, 0.0, 1.0, 2.85, 7.95)">
    <path d="M-2.75 -2.4 Q-1.1 -1.4 1.3 -1.5 2.6 -1.75 2.75 -2.85 L2.0 7.25 Q0.4 8.2 -0.7 6.7 -1.25 1.85 -2.75 -2.4" fill="#ffffff" fill-rule="evenodd" stroke="none"/>
    <path d="M-2.75 -2.4 L-2.75 -5.0 Q-2.6 -6.45 -1.3 -7.45 L1.45 -7.4 Q3.1 -5.2 2.75 -2.85 2.6 -1.75 1.3 -1.5 -1.1 -1.4 -2.75 -2.4" fill="#3c4147" fill-rule="evenodd" stroke="none"/>
    <path d="M2.75 -2.85 Q3.1 -5.2 1.45 -7.4 L-1.3 -7.45 Q-2.6 -6.45 -2.75 -5.0 L-2.75 -2.4 Q-1.1 -1.4 1.3 -1.5 2.6 -1.75 2.75 -2.85 L2.0 7.25 Q0.4 8.2 -0.7 6.7 -1.25 1.85 -2.75 -2.4" fill="none" stroke="#a0a0a0" stroke-linecap="round" stroke-linejoin="round" stroke-width="0.05"/>
  </g>
</svg>
