<?xml version="1.0" encoding="UTF-8" standalone="no"?>
<svg xmlns:xlink="http://www.w3.org/1999/xlink" height="15.35px" width="6.4px" xmlns="http://www.w3.org/2000/svg">
  <g transform="matrix(1.0, 0.0, 0.0, 1.0, 2.95, 7.75)">
    <path d="M2.45 3.1 L2.0 7.25 Q0.4 8.2 -0.7 6.7 L-1.45 2.7 Q-1.0 2.5 0.65 2.7 L2.45 3.1 M-2.5 -1.35 L-2.8 -2.35 Q-3.05 -6.95 -0.6 -7.65 1.8 -8.4 2.95 -3.95 L2.85 -1.15 0.15 -1.55 -2.5 -1.35" fill="#ffffff" fill-rule="evenodd" stroke="none"/>
    <path d="M2.85 -1.15 L3.25 -0.75 Q3.55 0.0 3.35 1.9 3.1 3.75 2.75 3.35 L2.45 3.1 0.65 2.7 Q-1.0 2.5 -1.45 2.7 L-1.55 2.75 Q-2.0 3.0 -2.55 1.15 -3.15 -0.65 -2.85 -1.15 L-2.5 -1.35 0.15 -1.55 2.85 -1.15" fill="#3c6f64" fill-rule="evenodd" stroke="none"/>
    <path d="M2.85 -1.15 L3.25 -0.75 Q3.55 0.0 3.35 1.9 3.1 3.75 2.75 3.35 L2.45 3.1 2.0 7.25 Q0.4 8.2 -0.7 6.7 L-1.45 2.7 -1.55 2.75 Q-2.0 3.0 -2.55 1.15 -3.15 -0.65 -2.85 -1.15 L-2.5 -1.35 -2.8 -2.35 Q-3.05 -6.95 -0.6 -7.65 1.8 -8.4 2.95 -3.95 L2.85 -1.15 0.15 -1.55 -2.5 -1.35 M2.45 3.1 L0.65 2.7 Q-1.0 2.5 -1.45 2.7" fill="none" stroke="#999999" stroke-linecap="round" stroke-linejoin="round" stroke-width="0.05"/>
  </g>
</svg>
