<?xml version="1.0" encoding="UTF-8" standalone="no"?>
<svg xmlns:xlink="http://www.w3.org/1999/xlink" height="17.4px" width="17.95px" xmlns="http://www.w3.org/2000/svg">
  <g transform="matrix(1.0, 0.0, 0.0, 1.0, 9.25, 8.05)">
    <path d="M2.35 -7.9 Q0.9 -6.3 0.75 -4.25 L0.75 -4.15 Q1.7 -3.8 2.95 -4.55 7.7 -3.75 8.7 0.05 7.45 -2.6 5.95 -1.5 5.4 -0.3 5.9 -0.1 7.1 1.15 7.15 2.95 L6.45 2.05 5.2 0.95 5.1 5.6 5.05 6.5 4.05 1.95 4.05 2.05 Q3.95 0.25 3.2 -0.95 3.9 3.35 3.05 4.15 2.9 3.45 2.35 3.7 0.8 4.15 1.5 7.15 L1.4 7.05 2.1 8.0 1.55 8.8 Q0.0 9.6 -2.05 9.2 L-2.6 9.15 -2.65 9.15 -4.95 8.55 -6.95 6.8 Q-7.85 6.2 -9.2 3.05 -9.55 1.2 -7.35 -2.4 L-6.65 -3.25 Q-6.0 -4.05 -6.0 -4.6 -6.05 -5.15 -6.6 -5.25 L-3.8 -5.3 Q-3.5 -6.4 -6.05 -7.45 -5.65 -8.0 -4.05 -8.05 L-1.45 -6.0 -0.6 -6.1 -0.55 -6.05 -0.5 -6.05 Q0.8 -7.5 2.35 -7.9" fill="#413445" fill-rule="evenodd" stroke="none"/>
    <path d="M2.35 -7.9 L4.65 -7.95 Q2.95 -6.95 3.1 -5.8 L5.5 -5.2 Q7.7 -4.75 8.7 0.05 7.7 -3.75 2.95 -4.55 1.7 -3.8 0.75 -4.15 L0.75 -4.25 Q0.9 -6.3 2.35 -7.9 M5.95 -1.5 Q8.5 1.65 8.1 6.35 7.9 4.35 7.15 2.95 7.1 1.15 5.9 -0.1 5.4 -0.3 5.95 -1.5 M5.2 0.95 Q6.2 2.8 5.05 6.5 L5.1 5.6 5.2 0.95 M4.05 2.05 Q4.1 4.6 3.3 6.1 L3.05 4.15 Q3.9 3.35 3.2 -0.95 3.95 0.25 4.05 2.05 M-4.05 -8.05 Q-1.9 -7.75 -0.6 -6.1 L-1.45 -6.0 -4.05 -8.05" fill="#68536f" fill-rule="evenodd" stroke="none"/>
    <path d="M-2.6 9.15 L-2.65 9.15" fill="none" stroke="#4b3a34" stroke-linecap="round" stroke-linejoin="round" stroke-width="0.05"/>
  </g>
</svg>
