<?xml version="1.0" encoding="UTF-8" standalone="no"?>
<svg xmlns:xlink="http://www.w3.org/1999/xlink" height="14.65px" width="15.15px" xmlns="http://www.w3.org/2000/svg">
  <g transform="matrix(1.0, 0.0, 0.0, 1.0, 8.35, 5.3)">
    <path d="M-4.75 -4.05 Q0.35 -5.45 2.6 -3.45 L4.35 -1.9 4.85 -1.45 Q5.95 -1.35 6.5 -2.0 L6.55 -2.05 6.5 -2.0 5.9 -1.0 5.8 -0.9 5.7 -0.85 5.4 -0.6 5.4 -0.55 5.4 -0.4 5.6 -0.25 6.5 -0.05 6.7 -0.05 5.4 0.9 5.95 1.55 6.1 1.8 5.2 2.0 5.2 2.6 5.2 2.9 4.65 2.75 4.2 2.55 4.25 3.05 Q4.25 4.15 3.8 4.95 3.55 4.0 2.95 3.7 -0.75 -1.9 -2.35 -1.7 -5.95 -2.2 -5.55 -3.5 L-5.1 -3.85 -4.75 -4.05 -4.2 -3.5 -4.75 -4.05" fill="#af7c7a" fill-rule="evenodd" stroke="none"/>
    <path d="M-5.55 -3.5 Q-5.95 -2.2 -2.35 -1.7 -0.75 -1.9 2.95 3.7 3.55 4.0 3.8 4.95 L3.65 5.35 3.2 4.7 1.9 4.55 Q0.5 5.65 1.85 7.9 L0.95 9.2 Q-3.25 9.75 -5.2 8.55 -10.4 3.7 -6.95 -1.4 L-7.0 -1.7 -7.7 -2.2 -6.55 -2.45 -7.75 -3.9 -6.05 -3.1 -5.7 -5.3 -5.55 -3.5 M4.25 3.05 L4.2 2.55 4.65 2.75 5.2 2.9 5.2 3.4 4.25 3.05 M5.2 2.6 L5.2 2.0 6.1 1.8 6.3 2.25 5.2 2.6 M5.4 0.9 L6.7 -0.05 5.75 0.85 5.4 0.9 M5.4 -0.4 L5.4 -0.55 5.4 -0.6 5.7 -0.85 5.8 -0.9 5.9 -1.0 6.5 -2.0 6.55 -2.05 6.75 -2.35 6.8 -2.35 6.7 -2.0 6.15 -1.0 5.85 -0.65 5.4 -0.4" fill="#86554f" fill-rule="evenodd" stroke="none"/>
    <path d="M4.85 -1.45 L4.35 -1.9 2.6 -3.45 Q0.35 -5.45 -4.75 -4.05 L-5.1 -3.85 -5.55 -3.5 -5.7 -5.3 -6.05 -3.1 -7.75 -3.9 -6.55 -2.45 -7.7 -2.2 -7.0 -1.7 -6.95 -1.4 Q-10.4 3.7 -5.2 8.55 -3.25 9.75 0.95 9.2 L1.85 7.9 Q0.5 5.65 1.9 4.55 L3.2 4.7 3.65 5.35 3.8 4.95 Q4.25 4.15 4.25 3.05 L5.2 3.4 M6.1 1.8 L5.95 1.55 5.4 0.9 5.75 0.85 6.7 -0.05 6.5 -0.05 5.6 -0.25 5.4 -0.4 5.85 -0.65 6.15 -1.0 6.7 -2.0 6.8 -2.35 M6.55 -2.05 L6.5 -2.0 Q5.95 -1.35 4.85 -1.45 M6.75 -2.35 L6.55 -2.05 M5.2 2.6 L6.3 2.25 6.1 1.8" fill="none" stroke="#5a3736" stroke-linecap="round" stroke-linejoin="round" stroke-width="0.05"/>
  </g>
</svg>
