<?xml version="1.0" encoding="UTF-8" standalone="no"?>
<svg xmlns:xlink="http://www.w3.org/1999/xlink" height="21.0px" width="21.35px" xmlns="http://www.w3.org/2000/svg">
  <g transform="matrix(1.0, 0.0, 0.0, 1.0, 13.45, 9.05)">
    <path d="M5.5 -0.05 L5.5 0.0 5.5 -0.05" fill="#665044" fill-rule="evenodd" stroke="none"/>
    <path d="M7.2 8.25 Q7.95 1.9 5.35 -1.5 L5.5 -0.05 5.5 0.0 Q5.1 4.05 3.8 7.65 3.95 2.15 2.3 0.55 L-0.85 -2.1 -0.85 -2.05 -4.15 -1.75 Q-4.2 -3.5 -3.45 -4.65 L-6.0 -4.5 -5.8 -5.65 -5.45 -6.35 -5.15 -6.7 -5.45 -6.85 -6.4 -7.4 Q-9.0 -8.5 -13.1 -7.0 L-13.4 -6.9 -13.45 -6.9 -13.3 -7.05 Q-11.75 -8.5 -9.35 -8.95 L-6.4 -8.85 -4.0 -8.5 -2.35 -8.2 -1.05 -8.0 -1.0 -8.0 0.4 -7.75 Q2.85 -7.1 5.2 -4.35 6.45 -3.75 7.15 -2.2 8.6 2.2 7.2 8.25 M-6.85 6.55 Q-7.5 7.1 -6.35 11.95 L-7.5 9.75 Q-8.0 6.3 -6.85 6.55 M-8.65 -0.45 Q-10.4 0.45 -10.85 6.0 -11.25 1.9 -11.1 1.1 -9.95 -0.7 -8.65 -0.45" fill="#9caccf" fill-rule="evenodd" stroke="none"/>
    <path d="M5.5 0.0 L5.5 -0.05 5.35 -1.5 Q7.95 1.9 7.2 8.25 7.4 2.95 5.5 0.0 M3.8 7.65 Q3.5 3.0 2.25 3.65 0.9 4.05 1.2 5.8 1.5 7.5 2.0 7.8 0.55 10.0 -3.1 8.95 -6.1 7.9 -6.85 6.55 -8.0 6.3 -7.5 9.75 -9.7 4.65 -8.55 0.5 L-8.6 -0.35 -8.55 -0.45 -8.6 -0.5 -8.65 -0.45 Q-9.95 -0.7 -11.1 1.1 -10.4 -2.85 -7.45 -5.7 L-6.4 -5.5 -7.45 -5.7 -7.25 -5.85 -7.05 -6.05 Q-8.3 -7.5 -12.85 -6.95 L-13.4 -6.9 -13.1 -7.0 Q-9.0 -8.5 -6.4 -7.4 L-5.45 -6.85 -5.15 -6.7 -5.45 -6.35 -5.8 -5.65 -6.0 -4.5 -3.45 -4.65 Q-4.2 -3.5 -4.15 -1.75 L-0.85 -2.05 -0.85 -2.1 2.3 0.55 Q3.95 2.15 3.8 7.65 M-0.25 4.5 L-0.25 4.65 -0.25 4.5 M-3.2 8.85 L-3.85 8.5 -3.1 8.95 -3.1 8.9 -3.2 8.85" fill="#7892bc" fill-rule="evenodd" stroke="none"/>
    <path d="M5.5 -0.05 L5.5 0.0 Q7.4 2.95 7.2 8.25 8.6 2.2 7.15 -2.2 6.45 -3.75 5.2 -4.35 2.85 -7.1 0.4 -7.75 L-1.0 -8.0 -1.05 -8.0 -2.35 -8.2 -4.0 -8.5 -6.4 -8.85 -9.35 -8.95 Q-11.75 -8.5 -13.3 -7.05 L-13.45 -6.9 M5.5 -0.05 L5.5 0.0 Q5.1 4.05 3.8 7.65 3.5 3.0 2.25 3.65 0.9 4.05 1.2 5.8 1.5 7.5 2.0 7.8 0.55 10.0 -3.1 8.95 -6.1 7.9 -6.85 6.55 -7.5 7.1 -6.35 11.95 L-7.5 9.75 Q-9.7 4.65 -8.55 0.5 L-8.6 -0.35 -8.55 -0.45 -8.6 -0.5 -8.65 -0.45 Q-10.4 0.45 -10.85 6.0 -11.25 1.9 -11.1 1.1 -10.4 -2.85 -7.45 -5.7 L-7.25 -5.85 -7.05 -6.05 Q-8.3 -7.5 -12.85 -6.95 L-13.4 -6.9 M-3.2 8.85 L-3.85 8.5 -3.1 8.95 -3.2 8.85 -3.1 8.9 -3.1 8.95" fill="none" stroke="#36506d" stroke-linecap="round" stroke-linejoin="round" stroke-width="0.05"/>
  </g>
</svg>
