<?xml version="1.0" encoding="UTF-8" standalone="no"?>
<svg xmlns:xlink="http://www.w3.org/1999/xlink" height="10.4px" width="10.5px" xmlns="http://www.w3.org/2000/svg">
  <g transform="matrix(1.0, 0.0, 0.0, 1.0, 7.1, 4.8)">
    <path d="M1.9 1.95 Q1.95 -0.6 1.65 -2.0 1.35 -3.45 2.5 -3.25 3.7 0.4 3.3 1.95 L2.85 3.5 Q0.9 6.8 -3.15 4.95 L-3.7 4.55 Q-4.85 3.55 -7.1 -0.65 -6.6 -1.5 -5.65 0.25 L-3.05 3.85 Q-3.0 3.0 -2.35 2.4 -1.85 1.95 -0.95 1.7 L0.65 1.6 1.9 1.95" fill="#ffffff" fill-rule="evenodd" stroke="none"/>
    <path d="M-0.95 -4.75 L-0.95 -4.7 -1.8 -4.75 -0.95 -4.75" fill="#9ecffe" fill-rule="evenodd" stroke="none"/>
    <path d="M-0.95 -4.7 Q0.1 -4.5 0.25 -3.95 0.45 -3.35 -0.3 -2.75 L-0.35 -2.75 Q-1.05 -2.15 -2.35 -1.8 L-2.45 -1.8 -4.6 -1.6 -4.8 -1.65 Q-5.8 -1.8 -6.0 -2.4 -6.1 -2.85 -5.65 -3.3 L-5.4 -3.6 -3.3 -4.55 -2.2 -4.7 -1.8 -4.75 -0.95 -4.7" fill="#000000" fill-rule="evenodd" stroke="none"/>
    <path d="M-0.35 -2.75 L-0.3 -2.75 -0.35 -2.75" fill="#bcdefe" fill-rule="evenodd" stroke="none"/>
    <path d="M2.5 -3.25 Q1.35 -3.45 1.65 -2.0 1.95 -0.6 1.9 1.95 L0.65 1.6 -0.3 -2.75 Q0.45 -3.35 0.25 -3.95 0.1 -4.5 -0.95 -4.7 L-0.95 -4.75 Q0.65 -4.65 2.5 -3.25 M-2.35 2.4 Q-3.0 3.0 -3.05 3.85 L-5.65 0.25 Q-6.6 -1.5 -7.1 -0.65 -7.1 -2.3 -5.65 -3.3 -6.1 -2.85 -6.0 -2.4 -5.8 -1.8 -4.8 -1.65 L-4.6 -1.6 -2.35 2.4" fill="#5a5a5a" fill-rule="evenodd" stroke="none"/>
    <path d="M0.65 1.6 L-0.95 1.7 Q-1.85 1.95 -2.35 2.4 L-4.6 -1.6 -2.45 -1.8 -2.35 -1.8 Q-1.05 -2.15 -0.35 -2.75 L-0.3 -2.75 0.65 1.6" fill="#828282" fill-rule="evenodd" stroke="none"/>
    <path d="M1.9 1.95 L0.65 1.6 -0.95 1.7 Q-1.85 1.95 -2.35 2.4 -3.0 3.0 -3.05 3.85 M-7.1 -0.65 Q-4.85 3.55 -3.7 4.55 L-3.15 4.95 Q0.9 6.8 2.85 3.5 L3.3 1.95 Q3.7 0.4 2.5 -3.25 0.65 -4.65 -0.95 -4.75 L-1.8 -4.75 -2.2 -4.7 -3.3 -4.55 -5.4 -3.6 -5.65 -3.3 Q-7.1 -2.3 -7.1 -0.65 M-0.3 -2.75 L0.65 1.6 M-4.6 -1.6 L-2.35 2.4" fill="none" stroke="#333333" stroke-linecap="round" stroke-linejoin="round" stroke-width="0.05"/>
  </g>
</svg>
