<?xml version="1.0" encoding="UTF-8" standalone="no"?>
<svg xmlns:xlink="http://www.w3.org/1999/xlink" height="90.8px" width="127.9px" xmlns="http://www.w3.org/2000/svg">
  <g transform="matrix(1.0, 0.0, 0.0, 1.0, 52.85, 47.0)">
    <path d="M62.95 -0.25 L24.5 31.85 -1.2 26.8 Q3.9 24.45 9.0 20.1 16.5 13.7 23.95 3.0 L31.5 4.5 Q46.7 -6.25 75.05 -30.6 L62.95 -0.25 M32.65 4.45 L31.5 4.5 32.65 4.45" fill="#ffff99" fill-rule="evenodd" stroke="none"/>
    <path d="M62.95 -0.25 L24.5 31.85 -1.2 26.8 Q3.9 24.45 9.0 20.1 16.5 13.7 23.95 3.0 L31.5 4.5 Q46.7 -6.25 75.05 -30.6 L62.95 -0.25 M31.5 4.5 L32.65 4.45" fill="none" stroke="#c7c701" stroke-linecap="round" stroke-linejoin="round" stroke-width="0.05"/>
    <path d="M-2.2 43.7 L-1.45 43.65 -1.5 43.75 -2.2 43.7" fill="#000000" fill-rule="evenodd" stroke="none"/>
    <path d="M-52.7 3.1 Q-38.05 27.35 -20.9 23.9 1.3 19.35 1.75 -9.75 25.8 -15.7 39.25 -14.95 49.25 -12.75 52.3 -6.3 52.95 -2.4 52.85 1.85 52.2 19.9 36.3 32.2 20.4 44.5 -1.5 43.75 L-1.45 43.65 -2.2 43.7 Q-23.6 42.75 -38.4 29.65 -51.35 18.15 -52.7 3.1 M39.25 -14.95 Q43.85 37.8 -1.45 43.65 43.85 37.8 39.25 -14.95" fill="#000066" fill-rule="evenodd" stroke="none"/>
    <path d="M52.3 -6.3 Q49.25 -12.75 39.25 -14.95 25.8 -15.7 1.75 -9.75 1.3 19.35 -20.9 23.9 -38.05 27.35 -52.7 3.1 L-52.8 -1.8 Q-52.2 -19.9 -36.3 -32.15 -20.4 -44.45 1.5 -43.7 L4.4 -43.55 5.85 -43.4 Q23.65 -41.75 36.6 -31.15 L36.75 -31.05 36.95 -30.85 37.5 -30.4 38.4 -29.6 Q49.95 -19.4 52.3 -6.3" fill="#ffffff" fill-rule="evenodd" stroke="none"/>
    <path d="M-52.7 3.1 Q-38.05 27.35 -20.9 23.9 1.3 19.35 1.75 -9.75 25.8 -15.7 39.25 -14.95 49.25 -12.75 52.3 -6.3 49.95 -19.4 38.4 -29.6 L37.5 -30.4 36.95 -30.85 36.75 -31.05 36.6 -31.15 Q23.65 -41.75 5.85 -43.4 L4.4 -43.55 1.5 -43.7 Q-20.4 -44.45 -36.3 -32.15 -52.2 -19.9 -52.8 -1.8 L-52.7 3.1 Q-51.35 18.15 -38.4 29.65 -23.6 42.75 -2.2 43.7 L-1.45 43.65 Q43.85 37.8 39.25 -14.95 M52.3 -6.3 Q52.95 -2.4 52.85 1.85 52.2 19.9 36.3 32.2 20.4 44.5 -1.5 43.75 L-2.2 43.7 M-1.5 43.75 L-1.45 43.65" fill="none" stroke="#999999" stroke-linecap="round" stroke-linejoin="round" stroke-width="0.05"/>
    <path d="M-5.9 -10.95 L-5.9 -3.3 Q-18.95 14.7 -34.15 16.85 L-34.15 -9.35 4.75 -40.95 36.9 -47.0 Q17.25 -31.5 4.75 -20.6 L-5.9 -10.95 -5.7 -12.1 -5.9 -10.95" fill="#ffff99" fill-rule="evenodd" stroke="none"/>
    <path d="M-5.9 -10.95 L4.75 -20.6 Q17.25 -31.5 36.9 -47.0 L4.75 -40.95 -34.15 -9.35 -34.15 16.85 Q-18.95 14.7 -5.9 -3.3 L-5.9 -10.95 -5.7 -12.1" fill="none" stroke="#c7c701" stroke-linecap="round" stroke-linejoin="round" stroke-width="0.05"/>
  </g>
</svg>
