<?xml version="1.0" encoding="UTF-8" standalone="no"?>
<svg xmlns:xlink="http://www.w3.org/1999/xlink" height="81.0px" width="102.45px" xmlns="http://www.w3.org/2000/svg">
  <g transform="matrix(1.0, 0.0, 0.0, 1.0, 48.2, 35.3)">
    <path d="M-35.4 37.6 Q-49.2 17.75 -48.1 -5.1 L-48.1 -6.7 Q-48.05 -9.4 -47.55 -11.35 -45.2 -19.1 -37.75 -23.8 -25.55 -31.6 1.5 -34.6 L14.7 -35.25 19.55 -35.0 22.7 -34.8 25.8 -34.35 Q33.6 -33.35 40.85 -30.35 43.65 -28.85 43.85 -28.35 52.65 -15.4 54.1 -0.8 L54.1 0.65 Q51.6 -11.15 22.4 -7.7 L22.0 -7.6 Q-19.15 4.65 -30.55 13.45 -33.05 15.35 -34.1 17.1 -40.15 26.95 -37.0 34.15 L-35.4 37.6 M54.25 4.9 L54.25 6.0 54.2 5.65 54.1 5.65 54.25 4.9 M-32.8 40.8 L-33.0 40.65 -33.3 40.55 -32.95 40.65 -32.95 40.6 -32.85 40.7 -32.8 40.8 M-32.95 40.6 L-32.95 40.65 -33.0 40.65 -32.95 40.65 -32.95 40.6" fill="#743a3a" fill-rule="evenodd" stroke="none"/>
    <path d="M-35.4 37.6 L-37.0 34.15 Q-40.15 26.95 -34.1 17.1 -33.05 15.35 -30.55 13.45 -19.15 4.65 22.0 -7.6 L22.4 -7.7 Q51.6 -11.15 54.1 0.65 L54.25 4.9 54.1 5.65 54.1 5.75 54.15 5.85 54.15 5.9 Q54.0 5.85 54.2 6.05 L54.25 6.9 Q53.85 10.85 47.2 17.35 L41.1 22.45 Q33.25 28.55 22.25 35.55 8.5 43.35 -3.75 45.15 L-13.05 45.7 Q-14.9 45.35 -16.05 45.7 L-12.75 44.05 21.3 22.65 11.05 22.3 -26.65 42.15 -28.95 43.1 Q-31.55 41.85 -32.8 40.8 L-32.85 40.7 -32.95 40.6 -32.95 40.65 -33.3 40.55 -35.4 37.6 M27.0 21.25 L27.5 21.0 41.3 12.8 17.65 7.9 1.85 15.75 -30.55 13.45 1.85 15.75 17.65 7.9 41.3 12.8 27.5 21.0 41.1 22.45 27.5 21.0 27.0 21.25 M53.1 0.8 L22.0 -7.6 53.1 0.8" fill="#984e4e" fill-rule="evenodd" stroke="none"/>
    <path d="M-17.05 43.4 L-26.65 42.15 11.05 22.3 21.3 22.65 -12.75 44.05 -17.05 43.4" fill="#61af88" fill-rule="evenodd" stroke="none"/>
    <path d="M-16.05 45.7 Q-16.3 45.25 -16.25 45.7 L-17.05 43.4 -12.75 44.05 -16.05 45.7" fill="#470f01" fill-rule="evenodd" stroke="none"/>
    <path d="M54.1 0.65 L54.1 -0.8 Q52.65 -15.4 43.85 -28.35 43.65 -28.85 40.85 -30.35 33.6 -33.35 25.8 -34.35 L22.7 -34.8 19.55 -35.0 14.7 -35.25 1.5 -34.6 Q-25.55 -31.6 -37.75 -23.8 -45.2 -19.1 -47.55 -11.35 -48.05 -9.4 -48.1 -6.7 L-48.1 -5.1 Q-49.2 17.75 -35.4 37.6 L-37.0 34.15 Q-40.15 26.95 -34.1 17.1 -33.05 15.35 -30.55 13.45 -19.15 4.65 22.0 -7.6 L22.4 -7.7 Q51.6 -11.15 54.1 0.65 L54.25 4.9 54.25 6.0 M54.2 5.65 L54.1 5.65 54.1 5.75 54.15 5.85 54.15 5.9 Q54.0 5.85 54.2 6.05 L54.25 6.9 Q53.85 10.85 47.2 17.35 L41.1 22.45 Q33.25 28.55 22.25 35.55 8.5 43.35 -3.75 45.15 L-13.05 45.7 Q-14.9 45.35 -16.05 45.7 -16.3 45.25 -16.25 45.7 L-17.05 43.4 -26.65 42.15 -28.95 43.1 Q-31.55 41.85 -32.8 40.8 L-33.0 40.65 Q-33.7 40.95 -35.4 37.6 L-33.3 40.55 -32.95 40.65 -32.95 40.6 -32.85 40.7 -32.8 40.8 M54.25 4.9 L54.1 5.65 M-30.55 13.45 L1.85 15.75 17.65 7.9 41.3 12.8 27.5 21.0 41.1 22.45 M27.5 21.0 L27.0 21.25 M-26.65 42.15 L11.05 22.3 21.3 22.65 -12.75 44.05 -16.05 45.7 M-33.3 40.55 L-33.0 40.65 -32.95 40.65 -32.95 40.6 M-12.75 44.05 L-17.05 43.4 M22.0 -7.6 L53.1 0.8" fill="none" stroke="#6b1e01" stroke-linecap="round" stroke-linejoin="round" stroke-width="0.05"/>
    <path d="M22.2 -7.95 L18.95 -22.3 Q10.8 -23.1 1.15 -20.6 L-2.35 -34.1 M-30.5 13.55 L-36.1 -7.65 Q-32.4 -13.5 -24.65 -15.15 L-28.2 -28.05" fill="none" stroke="#984e4e" stroke-linecap="round" stroke-linejoin="round" stroke-width="0.05"/>
  </g>
</svg>
