<?xml version="1.0" encoding="UTF-8" standalone="no"?>
<svg xmlns:xlink="http://www.w3.org/1999/xlink" height="7.6px" width="15.8px" xmlns="http://www.w3.org/2000/svg">
  <g transform="matrix(1.0, 0.0, 0.0, 1.0, 8.75, 2.55)">
    <path d="M2.45 -2.3 L4.85 -1.65 4.9 -1.65 6.05 -0.7 Q5.15 0.05 2.1 0.0 -0.25 -0.25 -0.7 -1.45 -0.8 -1.8 -0.1 -2.2 L2.45 -2.3" fill="#000000" fill-rule="evenodd" stroke="none"/>
    <path d="M6.4 4.55 L-4.75 5.05 Q-8.1 4.6 -8.55 3.85 -9.05 3.05 -8.4 2.0 L-7.2 0.7 Q-5.8 -0.1 -4.85 3.2 L-4.6 4.1 Q-3.65 4.1 -2.55 3.35 L-2.1 3.05 Q-0.85 2.15 0.6 1.6 L4.85 0.9 Q7.7 1.05 6.4 4.55" fill="#ffffff" fill-rule="evenodd" stroke="none"/>
    <path d="M-7.2 0.7 L-6.1 -0.3 Q-5.2 -1.05 -3.95 -1.4 L-0.1 -2.2 Q-0.8 -1.8 -0.7 -1.45 -0.25 -0.25 2.1 0.0 L0.7 0.1 -1.45 0.5 Q-2.7 1.0 -3.65 1.9 L-4.85 3.2 Q-5.8 -0.1 -7.2 0.7" fill="#6aca7d" fill-rule="evenodd" stroke="none"/>
    <path d="M-8.4 2.0 Q-7.6 0.1 -4.55 -1.65 -2.8 -2.55 1.4 -2.55 L2.45 -2.3 -0.1 -2.2 -3.95 -1.4 Q-5.2 -1.05 -6.1 -0.3 L-7.2 0.7 -8.4 2.0 M6.05 -0.7 Q7.85 1.3 6.4 4.55 7.7 1.05 4.85 0.9 L0.6 1.6 Q-0.85 2.15 -2.1 3.05 L-2.55 3.35 Q-3.65 4.1 -4.6 4.1 L-4.85 3.2 -3.65 1.9 Q-2.7 1.0 -1.45 0.5 L0.7 0.1 2.1 0.0 Q5.15 0.05 6.05 -0.7" fill="#40b961" fill-rule="evenodd" stroke="none"/>
    <path d="M-8.4 2.0 Q-7.6 0.1 -4.55 -1.65 -2.8 -2.55 1.4 -2.55 L2.45 -2.3 4.85 -1.65 4.9 -1.65 6.05 -0.7 Q7.85 1.3 6.4 4.55 L-4.75 5.05 Q-8.1 4.6 -8.55 3.85 -9.05 3.05 -8.4 2.0 L-7.2 0.7 Q-5.8 -0.1 -4.85 3.2 L-4.6 4.1 Q-3.65 4.1 -2.55 3.35 L-2.1 3.05 Q-0.85 2.15 0.6 1.6 L4.85 0.9 Q7.7 1.05 6.4 4.55 M-4.85 3.2 L-3.65 1.9 Q-2.7 1.0 -1.45 0.5 L0.7 0.1 2.1 0.0" fill="none" stroke="#2e813e" stroke-linecap="round" stroke-linejoin="round" stroke-width="0.05"/>
  </g>
</svg>
