<?xml version="1.0" encoding="UTF-8" standalone="no"?>
<svg xmlns:xlink="http://www.w3.org/1999/xlink" height="7.0px" width="12.6px" xmlns="http://www.w3.org/2000/svg">
  <g transform="matrix(1.0, 0.0, 0.0, 1.0, 6.2, 3.4)">
    <path d="M4.5 -2.25 L4.85 -2.05 5.4 -1.6 5.75 -1.25 6.1 -0.85 6.2 -0.7 Q6.5 -0.15 6.4 0.55 L6.35 0.9 Q6.05 2.1 4.3 2.9 L2.75 3.4 1.9 3.55 -0.25 3.6 Q-2.85 3.45 -4.6 2.35 L-4.6 2.3 Q-1.3 2.7 0.9 2.35 2.2 2.15 3.15 1.6 L4.25 0.8 4.7 0.25 4.65 0.25 4.75 0.15 4.95 -0.25 5.0 -0.45 5.0 -0.8 5.0 -0.9 5.0 -1.15 4.9 -1.55 4.5 -2.25" fill="#6992a7" fill-rule="evenodd" stroke="none"/>
    <path d="M4.4 -2.35 L4.5 -2.25 4.9 -1.55 5.0 -1.15 5.0 -0.9 5.0 -0.8 5.0 -0.45 4.95 -0.25 4.75 0.15 4.65 0.25 4.5 0.45 4.7 0.25 4.25 0.8 3.15 1.6 Q2.2 2.15 0.9 2.35 -1.3 2.7 -4.6 2.3 L-4.7 2.3 -5.95 1.0 -6.2 -0.2 Q-6.15 -0.85 -5.75 -1.35 L-4.1 -2.6 Q-2.15 -3.55 0.45 -3.4 2.75 -3.25 4.4 -2.35" fill="#97b3c1" fill-rule="evenodd" stroke="none"/>
    <path d="M4.4 -2.35 L4.5 -2.25 4.4 -2.35" fill="#d1d1d1" fill-rule="evenodd" stroke="none"/>
    <path d="M-4.6 2.35 L-4.7 2.3 -4.6 2.3 -4.6 2.35" fill="#333333" fill-rule="evenodd" stroke="none"/>
    <path d="M4.5 -2.25 L4.4 -2.35 M4.5 -2.25 L4.85 -2.05 5.4 -1.6" fill="none" stroke="#38575f" stroke-linecap="round" stroke-linejoin="round" stroke-width="0.05"/>
    <path d="M-5.75 -1.35 L-4.1 -2.6 Q-2.15 -3.55 0.45 -3.4 2.75 -3.25 4.4 -2.35" fill="none" stroke="#38575f" stroke-linecap="round" stroke-linejoin="round" stroke-width="0.05"/>
  </g>
</svg>
