<?xml version="1.0" encoding="UTF-8" standalone="no"?>
<svg xmlns:xlink="http://www.w3.org/1999/xlink" height="13.3px" width="18.55px" xmlns="http://www.w3.org/2000/svg">
  <g transform="matrix(1.0, 0.0, 0.0, 1.0, 7.75, 7.4)">
    <path d="M7.85 -7.0 Q9.35 -6.65 10.7 -5.8 8.6 -3.9 8.15 -2.55 7.7 -1.25 7.8 -1.2 5.5 4.95 0.7 5.75 -3.25 6.3 -6.05 2.7 -7.25 1.15 -7.55 -0.4 -7.8 -1.8 -7.3 -2.15 L-5.3 -3.75 Q-5.55 -0.9 -3.55 1.65 -1.55 4.15 1.0 3.15 3.5 2.15 4.8 -2.3 5.65 -4.85 7.85 -7.0" fill="#ffffff" fill-rule="evenodd" stroke="none"/>
    <path d="M-5.3 -3.75 Q-2.65 -5.55 1.7 -6.85 L7.85 -7.0 Q5.65 -4.85 4.8 -2.3 3.5 2.15 1.0 3.15 -1.55 4.15 -3.55 1.65 -5.55 -0.9 -5.3 -3.75" fill="#000000" fill-rule="evenodd" stroke="none"/>
    <path d="M-5.3 -3.75 Q-2.65 -5.55 1.7 -6.85 L7.85 -7.0 Q9.35 -6.65 10.7 -5.8 8.6 -3.9 8.15 -2.55 7.7 -1.25 7.8 -1.2 5.5 4.95 0.7 5.75 -3.25 6.3 -6.05 2.7 -7.25 1.15 -7.55 -0.4 -7.8 -1.8 -7.3 -2.15 L-5.3 -3.75 Z" fill="none" stroke="#666666" stroke-linecap="round" stroke-linejoin="round" stroke-width="0.25"/>
  </g>
</svg>
