<?xml version="1.0" encoding="UTF-8" standalone="no"?>
<svg xmlns:xlink="http://www.w3.org/1999/xlink" height="13.55px" width="20.2px" xmlns="http://www.w3.org/2000/svg">
  <g transform="matrix(1.0, 0.0, 0.0, 1.0, 6.55, 7.5)">
    <path d="M8.05 -7.4 Q6.85 -5.75 9.05 -5.6 11.2 -5.5 11.45 -5.0 11.65 -4.6 9.1 -2.1 2.55 -1.7 1.65 -0.95 1.1 -0.5 1.2 1.05 1.2 2.4 1.35 3.2 1.45 4.0 0.35 4.35 -4.4 1.5 -4.6 -3.1 2.55 -7.45 8.05 -7.4" fill="#313747" fill-rule="evenodd" stroke="none"/>
    <path d="M8.05 -7.4 Q10.8 -7.45 13.15 -6.35 14.8 -5.55 9.7 -0.05 4.55 5.45 -0.6 5.95 -6.45 2.65 -6.45 -1.95 L-4.6 -3.1 Q-4.4 1.5 0.35 4.35 1.45 4.0 1.35 3.2 1.2 2.4 1.2 1.05 1.1 -0.5 1.65 -0.95 2.55 -1.7 9.1 -2.1 11.65 -4.6 11.45 -5.0 11.2 -5.5 9.05 -5.6 6.85 -5.75 8.05 -7.4" fill="#b4dacd" fill-rule="evenodd" stroke="none"/>
    <path d="M-4.6 -3.1 L-6.45 -1.95 Q-6.45 2.65 -0.6 5.95 4.55 5.45 9.7 -0.05 14.8 -5.55 13.15 -6.35 10.8 -7.45 8.05 -7.4 2.55 -7.45 -4.6 -3.1 Z" fill="none" stroke="#000000" stroke-linecap="round" stroke-linejoin="round" stroke-width="0.25"/>
  </g>
</svg>
